G75*
%MOIN*%
%OFA0B0*%
%FSLAX24Y24*%
%IPPOS*%
%LPD*%
%AMOC8*
5,1,8,0,0,1.08239X$1,22.5*
%
%ADD10C,0.0867*%
%ADD11R,0.0178X0.0434*%
%ADD12R,0.2442X0.0880*%
%ADD13R,0.0595X0.0595*%
%ADD14R,0.0631X0.0356*%
%ADD15R,0.1773X0.2049*%
%ADD16R,0.0710X0.0789*%
%ADD17R,0.0513X0.0474*%
%ADD18R,0.0474X0.0513*%
%ADD19R,0.0671X0.0592*%
%ADD20R,0.0789X0.1497*%
%ADD21R,0.0789X0.1025*%
%ADD22R,0.0710X0.1143*%
%ADD23R,0.0167X0.0474*%
%ADD24R,0.0474X0.0167*%
%ADD25R,0.0560X0.0960*%
%ADD26R,0.1497X0.0946*%
%ADD27R,0.0710X0.0592*%
%ADD28C,0.0907*%
%ADD29R,0.0781X0.0363*%
%ADD30R,0.0493X0.0505*%
%ADD31C,0.0142*%
%ADD32R,0.0316X0.0710*%
%ADD33C,0.0378*%
%ADD34R,0.0476X0.0476*%
%ADD35C,0.0366*%
%ADD36C,0.0476*%
D10*
X002024Y022349D03*
X013835Y022349D03*
D11*
X010601Y016968D03*
X010404Y016968D03*
X010207Y016968D03*
X010010Y016968D03*
X009813Y016968D03*
X009617Y016968D03*
X009420Y016968D03*
X009223Y016968D03*
X009026Y016968D03*
X008829Y016968D03*
X008632Y016968D03*
X008435Y016968D03*
X008239Y016968D03*
X008042Y016968D03*
X007845Y016968D03*
X007648Y016968D03*
X007451Y016968D03*
X007254Y016968D03*
X007057Y016968D03*
X006861Y016968D03*
X006664Y016968D03*
X006467Y016968D03*
X006270Y016968D03*
X006073Y016968D03*
X005876Y016968D03*
X005680Y016968D03*
X005483Y016968D03*
X005286Y016968D03*
X005286Y013779D03*
X005483Y013779D03*
X005680Y013779D03*
X005876Y013779D03*
X006073Y013779D03*
X006270Y013779D03*
X006467Y013779D03*
X006664Y013779D03*
X006861Y013779D03*
X007057Y013779D03*
X007254Y013779D03*
X007451Y013779D03*
X007648Y013779D03*
X007845Y013779D03*
X008042Y013779D03*
X008239Y013779D03*
X008435Y013779D03*
X008632Y013779D03*
X008829Y013779D03*
X009026Y013779D03*
X009223Y013779D03*
X009420Y013779D03*
X009617Y013779D03*
X009813Y013779D03*
X010010Y013779D03*
X010207Y013779D03*
X010404Y013779D03*
X010601Y013779D03*
D12*
X007943Y015374D03*
D13*
X007943Y015374D03*
X008693Y015374D03*
X007193Y015374D03*
D14*
X008587Y010477D03*
X008587Y009977D03*
X008587Y009477D03*
X008587Y008977D03*
X013387Y008977D03*
X013387Y009477D03*
X013387Y009977D03*
X013387Y010477D03*
X003787Y010477D03*
X003787Y009977D03*
X003787Y009477D03*
X003787Y008977D03*
D15*
X002350Y009727D03*
X007150Y009727D03*
X011950Y009727D03*
D16*
X012531Y008175D03*
X013343Y007133D03*
X013343Y006345D03*
X013343Y005558D03*
X013343Y004771D03*
X013343Y003983D03*
X014446Y003983D03*
X014446Y004771D03*
X014446Y005558D03*
X014446Y006345D03*
X014446Y007133D03*
X013633Y008175D03*
X008886Y008135D03*
X007783Y008135D03*
X004063Y008128D03*
X002961Y008128D03*
X002457Y007172D03*
X002457Y006385D03*
X002457Y005597D03*
X002457Y004810D03*
X002457Y004023D03*
X001355Y004023D03*
X001355Y004810D03*
X001355Y005597D03*
X001355Y006385D03*
X001355Y007172D03*
D17*
X003743Y011092D03*
X003743Y011761D03*
X003863Y012830D03*
X003863Y013499D03*
X004665Y013504D03*
X004665Y014173D03*
X006235Y012382D03*
X006904Y012382D03*
X007789Y012342D03*
X008366Y011742D03*
X008458Y012342D03*
X008366Y011072D03*
X009343Y011261D03*
X009343Y010592D03*
X009324Y012283D03*
X009993Y012283D03*
X010586Y012306D03*
X011255Y012306D03*
X013343Y011761D03*
X013343Y011092D03*
X014065Y011261D03*
X014065Y010592D03*
X014369Y011927D03*
X014369Y012596D03*
X012325Y016609D03*
X012325Y017279D03*
X011772Y018195D03*
X011240Y017526D03*
X011240Y016856D03*
X011243Y016294D03*
X011243Y015625D03*
X010420Y017649D03*
X010420Y018319D03*
X011103Y018195D03*
X009742Y019254D03*
X009072Y019254D03*
X009464Y018312D03*
X009464Y017642D03*
X012457Y022428D03*
X012457Y023097D03*
X010094Y023938D03*
X010091Y024434D03*
X009422Y024434D03*
X009424Y023938D03*
X006453Y024856D03*
X005783Y024856D03*
X005272Y024849D03*
X004603Y024849D03*
X004543Y011261D03*
X004543Y010592D03*
X013337Y018156D03*
X014006Y018156D03*
D18*
X011271Y014892D03*
X011271Y014223D03*
X011264Y013624D03*
X011264Y012955D03*
X007909Y017988D03*
X007909Y018657D03*
X006359Y018551D03*
X006359Y017882D03*
X004769Y015754D03*
X004769Y015085D03*
X003050Y013496D03*
X003050Y012827D03*
X003680Y020279D03*
X003680Y020949D03*
X002457Y020873D03*
X001788Y020873D03*
X003406Y023140D03*
X003406Y023809D03*
X010429Y019533D03*
X010429Y018864D03*
D19*
X008682Y018461D03*
X008682Y017713D03*
D20*
X012209Y014945D03*
X013784Y014945D03*
D21*
X013696Y013465D03*
X012101Y013465D03*
D22*
X013174Y016957D03*
X014276Y016957D03*
X010394Y009527D03*
X009292Y009527D03*
X005594Y009527D03*
X004492Y009527D03*
D23*
X005219Y019604D03*
X005416Y019604D03*
X005613Y019604D03*
X005810Y019604D03*
X006006Y019604D03*
X006203Y019604D03*
X006400Y019604D03*
X006597Y019604D03*
X006794Y019604D03*
X006991Y019604D03*
X007188Y019604D03*
X007384Y019604D03*
X007581Y019604D03*
X007778Y019604D03*
X007975Y019604D03*
X008172Y019604D03*
X008172Y024132D03*
X007975Y024132D03*
X007778Y024132D03*
X007581Y024132D03*
X007384Y024132D03*
X007188Y024132D03*
X006991Y024132D03*
X006794Y024132D03*
X006597Y024132D03*
X006400Y024132D03*
X006203Y024132D03*
X006006Y024132D03*
X005810Y024132D03*
X005613Y024132D03*
X005416Y024132D03*
X005219Y024132D03*
D24*
X004432Y023344D03*
X004432Y023147D03*
X004432Y022951D03*
X004432Y022754D03*
X004432Y022557D03*
X004432Y022360D03*
X004432Y022163D03*
X004432Y021966D03*
X004432Y021769D03*
X004432Y021573D03*
X004432Y021376D03*
X004432Y021179D03*
X004432Y020982D03*
X004432Y020785D03*
X004432Y020588D03*
X004432Y020391D03*
X008959Y020391D03*
X008959Y020588D03*
X008959Y020785D03*
X008959Y020982D03*
X008959Y021179D03*
X008959Y021376D03*
X008959Y021573D03*
X008959Y021769D03*
X008959Y021966D03*
X008959Y022163D03*
X008959Y022360D03*
X008959Y022557D03*
X008959Y022754D03*
X008959Y022951D03*
X008959Y023147D03*
X008959Y023344D03*
D25*
X011221Y019092D03*
X012131Y019092D03*
X013041Y019092D03*
D26*
X012131Y021532D03*
D27*
X011641Y022456D03*
X011641Y023243D03*
D28*
X011466Y008176D03*
X006645Y008176D03*
X001745Y008176D03*
D29*
X002457Y017151D03*
X002457Y017651D03*
X002457Y018151D03*
X002457Y018651D03*
X004308Y018651D03*
X004308Y018151D03*
X004308Y017651D03*
X004308Y017151D03*
D30*
X004416Y019279D03*
X003727Y019279D03*
X002467Y019534D03*
X001778Y019534D03*
D31*
X001592Y020136D02*
X001592Y020468D01*
X001924Y020468D01*
X001924Y020136D01*
X001592Y020136D01*
X001592Y020277D02*
X001924Y020277D01*
X001924Y020418D02*
X001592Y020418D01*
X002282Y020468D02*
X002282Y020136D01*
X002282Y020468D02*
X002614Y020468D01*
X002614Y020136D01*
X002282Y020136D01*
X002282Y020277D02*
X002614Y020277D01*
X002614Y020418D02*
X002282Y020418D01*
X012022Y023778D02*
X012022Y024110D01*
X012022Y023778D02*
X011690Y023778D01*
X011690Y024110D01*
X012022Y024110D01*
X012022Y023919D02*
X011690Y023919D01*
X011690Y024060D02*
X012022Y024060D01*
X012713Y024110D02*
X012713Y023778D01*
X012381Y023778D01*
X012381Y024110D01*
X012713Y024110D01*
X012713Y023919D02*
X012381Y023919D01*
X012381Y024060D02*
X012713Y024060D01*
D32*
X008206Y024987D03*
X007733Y024987D03*
X007261Y024987D03*
D33*
X006650Y024869D03*
X006060Y023550D03*
X006296Y023137D03*
X006769Y023156D03*
X007418Y023511D03*
X007477Y022389D03*
X008009Y022448D03*
X008934Y023668D03*
X009643Y022822D03*
X010115Y023275D03*
X010666Y022389D03*
X010883Y023294D03*
X010174Y021582D03*
X010666Y020342D03*
X011217Y019121D03*
X012123Y019101D03*
X013028Y020420D03*
X010371Y015460D03*
X009603Y015243D03*
X009583Y014574D03*
X010509Y013334D03*
X011355Y011759D03*
X009839Y011031D03*
X009347Y011267D03*
X009328Y012271D03*
X008383Y011070D03*
X007772Y012349D03*
X007930Y012782D03*
X006631Y012822D03*
X006335Y013353D03*
X006237Y012389D03*
X005528Y012723D03*
X005351Y012251D03*
X004780Y012251D03*
X004406Y012251D03*
X004662Y013511D03*
X005568Y014751D03*
X005587Y015499D03*
X006080Y016247D03*
X006355Y015263D03*
X005824Y017448D03*
X005863Y017901D03*
X006394Y019082D03*
X005528Y022172D03*
X005804Y022546D03*
X005627Y023137D03*
X004918Y023373D03*
X004032Y023944D03*
X003619Y018137D03*
X009052Y019259D03*
X009111Y019790D03*
X009603Y020322D03*
X009465Y018314D03*
D34*
X001355Y004023D03*
X001355Y004810D03*
X001355Y005597D03*
X001355Y006385D03*
X001355Y007172D03*
X002320Y005420D03*
X002320Y004554D03*
X002969Y008137D03*
X004072Y008137D03*
X004662Y006011D03*
X004662Y005656D03*
X004662Y005302D03*
X005154Y005302D03*
X005154Y005656D03*
X005154Y006011D03*
X006690Y005342D03*
X007044Y005342D03*
X007792Y008137D03*
X008894Y008137D03*
X008796Y006011D03*
X008796Y005656D03*
X008796Y005302D03*
X009288Y005302D03*
X009288Y005656D03*
X009288Y006011D03*
X010784Y005322D03*
X011178Y005322D03*
X012517Y008176D03*
X013639Y008196D03*
X014446Y007133D03*
X014446Y006345D03*
X014446Y005558D03*
X014446Y004771D03*
X014446Y003983D03*
X013540Y004554D03*
X013540Y005420D03*
X014367Y012605D03*
D35*
X008028Y022015D03*
X007753Y021700D03*
X007457Y021385D03*
X007162Y021070D03*
X006296Y020302D03*
X004898Y018649D03*
X003914Y017133D03*
X003068Y016129D03*
X001788Y017625D03*
X001769Y018117D03*
X003028Y020007D03*
X003422Y022684D03*
D36*
X012123Y021582D03*
M02*
