G75*
%MOIN*%
%OFA0B0*%
%FSLAX24Y24*%
%IPPOS*%
%LPD*%
%AMOC8*
5,1,8,0,0,1.08239X$1,22.5*
%
%ADD10C,0.0080*%
%ADD11R,0.0266X0.0965*%
%ADD12C,0.0050*%
D10*
X003226Y008782D02*
X003511Y008782D01*
X003511Y010671D02*
X003226Y010671D01*
X005227Y014213D02*
X010659Y014213D01*
X010659Y016535D01*
X005227Y016535D01*
X005227Y014213D01*
X008026Y010671D02*
X008311Y010671D01*
X008311Y008782D02*
X008026Y008782D01*
X010659Y015177D02*
X010632Y015179D01*
X010606Y015184D01*
X010581Y015193D01*
X010557Y015206D01*
X010535Y015221D01*
X010515Y015240D01*
X010498Y015260D01*
X010484Y015283D01*
X010473Y015308D01*
X010466Y015334D01*
X010462Y015361D01*
X010462Y015387D01*
X010466Y015414D01*
X010473Y015440D01*
X010484Y015465D01*
X010498Y015488D01*
X010515Y015508D01*
X010535Y015527D01*
X010557Y015542D01*
X010581Y015555D01*
X010606Y015564D01*
X010632Y015569D01*
X010659Y015571D01*
X012491Y013977D02*
X013302Y013977D01*
X013302Y012953D02*
X012491Y012953D01*
X012826Y010671D02*
X013111Y010671D01*
X013111Y008782D02*
X012826Y008782D01*
X013421Y019612D02*
X010841Y019612D01*
X010841Y021012D01*
X013421Y021012D01*
X013421Y019612D01*
X012135Y023763D02*
X012135Y023944D01*
X012257Y024036D01*
X012135Y024125D02*
X012135Y023944D01*
X012141Y023934D02*
X012257Y023858D01*
X008703Y023482D02*
X008310Y023876D01*
X008703Y020254D02*
X008703Y019860D01*
X008310Y019860D01*
X005081Y019860D02*
X004688Y019860D01*
X004688Y020254D01*
X004688Y023482D02*
X004688Y023876D01*
X005081Y023876D01*
X002170Y020483D02*
X002170Y020302D01*
X002048Y020210D01*
X002170Y020121D02*
X002170Y020302D01*
X002164Y020312D02*
X002048Y020388D01*
D11*
X012612Y013465D03*
D12*
X008363Y024672D02*
X007103Y024672D01*
X007103Y025302D01*
X008363Y025302D01*
X008363Y024672D01*
X006032Y024856D02*
X006034Y024874D01*
X006039Y024891D01*
X006048Y024907D01*
X006060Y024920D01*
X006075Y024930D01*
X006091Y024938D01*
X006109Y024942D01*
X006127Y024942D01*
X006145Y024938D01*
X006161Y024930D01*
X006176Y024920D01*
X006188Y024907D01*
X006197Y024891D01*
X006202Y024874D01*
X006204Y024856D01*
X006202Y024838D01*
X006197Y024821D01*
X006188Y024805D01*
X006176Y024792D01*
X006161Y024782D01*
X006145Y024774D01*
X006127Y024770D01*
X006109Y024770D01*
X006091Y024774D01*
X006075Y024782D01*
X006060Y024792D01*
X006048Y024805D01*
X006039Y024821D01*
X006034Y024838D01*
X006032Y024856D01*
X006108Y024856D02*
X006110Y024861D01*
X006114Y024865D01*
X006119Y024866D01*
X006125Y024864D01*
X006128Y024859D01*
X006128Y024853D01*
X006125Y024848D01*
X006119Y024846D01*
X006114Y024847D01*
X006110Y024851D01*
X006108Y024856D01*
X006068Y024856D02*
X006070Y024869D01*
X006075Y024882D01*
X006084Y024893D01*
X006095Y024900D01*
X006108Y024905D01*
X006121Y024906D01*
X006135Y024903D01*
X006147Y024897D01*
X006157Y024888D01*
X006164Y024876D01*
X006168Y024863D01*
X006168Y024849D01*
X006164Y024836D01*
X006157Y024824D01*
X006147Y024815D01*
X006135Y024809D01*
X006121Y024806D01*
X006108Y024807D01*
X006095Y024812D01*
X006084Y024819D01*
X006075Y024830D01*
X006070Y024843D01*
X006068Y024856D01*
M02*
