G75*
%MOIN*%
%OFA0B0*%
%FSLAX24Y24*%
%IPPOS*%
%LPD*%
%AMOC8*
5,1,8,0,0,1.08239X$1,22.5*
%
%ADD10C,0.0098*%
%ADD11C,0.0000*%
%ADD12C,0.0100*%
%ADD13C,0.0080*%
%ADD14C,0.0060*%
%ADD15C,0.0232*%
%ADD16C,0.0050*%
D10*
X000843Y003452D02*
X003796Y003452D01*
X000843Y003452D02*
X000843Y023137D01*
X003599Y025893D01*
X012261Y025893D01*
X015017Y023137D01*
X015017Y003452D01*
X012064Y003452D01*
D11*
X013441Y022349D02*
X013443Y022388D01*
X013449Y022427D01*
X013459Y022465D01*
X013472Y022502D01*
X013489Y022537D01*
X013509Y022571D01*
X013533Y022602D01*
X013560Y022631D01*
X013589Y022657D01*
X013621Y022680D01*
X013655Y022700D01*
X013691Y022716D01*
X013728Y022728D01*
X013767Y022737D01*
X013806Y022742D01*
X013845Y022743D01*
X013884Y022740D01*
X013923Y022733D01*
X013960Y022722D01*
X013997Y022708D01*
X014032Y022690D01*
X014065Y022669D01*
X014096Y022644D01*
X014124Y022617D01*
X014149Y022587D01*
X014171Y022554D01*
X014190Y022520D01*
X014205Y022484D01*
X014217Y022446D01*
X014225Y022408D01*
X014229Y022369D01*
X014229Y022329D01*
X014225Y022290D01*
X014217Y022252D01*
X014205Y022214D01*
X014190Y022178D01*
X014171Y022144D01*
X014149Y022111D01*
X014124Y022081D01*
X014096Y022054D01*
X014065Y022029D01*
X014032Y022008D01*
X013997Y021990D01*
X013960Y021976D01*
X013923Y021965D01*
X013884Y021958D01*
X013845Y021955D01*
X013806Y021956D01*
X013767Y021961D01*
X013728Y021970D01*
X013691Y021982D01*
X013655Y021998D01*
X013621Y022018D01*
X013589Y022041D01*
X013560Y022067D01*
X013533Y022096D01*
X013509Y022127D01*
X013489Y022161D01*
X013472Y022196D01*
X013459Y022233D01*
X013449Y022271D01*
X013443Y022310D01*
X013441Y022349D01*
X001630Y022349D02*
X001632Y022388D01*
X001638Y022427D01*
X001648Y022465D01*
X001661Y022502D01*
X001678Y022537D01*
X001698Y022571D01*
X001722Y022602D01*
X001749Y022631D01*
X001778Y022657D01*
X001810Y022680D01*
X001844Y022700D01*
X001880Y022716D01*
X001917Y022728D01*
X001956Y022737D01*
X001995Y022742D01*
X002034Y022743D01*
X002073Y022740D01*
X002112Y022733D01*
X002149Y022722D01*
X002186Y022708D01*
X002221Y022690D01*
X002254Y022669D01*
X002285Y022644D01*
X002313Y022617D01*
X002338Y022587D01*
X002360Y022554D01*
X002379Y022520D01*
X002394Y022484D01*
X002406Y022446D01*
X002414Y022408D01*
X002418Y022369D01*
X002418Y022329D01*
X002414Y022290D01*
X002406Y022252D01*
X002394Y022214D01*
X002379Y022178D01*
X002360Y022144D01*
X002338Y022111D01*
X002313Y022081D01*
X002285Y022054D01*
X002254Y022029D01*
X002221Y022008D01*
X002186Y021990D01*
X002149Y021976D01*
X002112Y021965D01*
X002073Y021958D01*
X002034Y021955D01*
X001995Y021956D01*
X001956Y021961D01*
X001917Y021970D01*
X001880Y021982D01*
X001844Y021998D01*
X001810Y022018D01*
X001778Y022041D01*
X001749Y022067D01*
X001722Y022096D01*
X001698Y022127D01*
X001678Y022161D01*
X001661Y022196D01*
X001648Y022233D01*
X001638Y022271D01*
X001632Y022310D01*
X001630Y022349D01*
D12*
X003964Y023915D02*
X004111Y023915D01*
X003964Y023915D02*
X003964Y024712D01*
X004505Y025488D02*
X005292Y025488D01*
X005833Y024712D02*
X005833Y023915D01*
X005686Y023915D01*
X008787Y023935D02*
X008934Y023935D01*
X008787Y023935D02*
X008787Y024731D01*
X009328Y025508D02*
X011296Y025508D01*
X011837Y024731D02*
X011837Y023935D01*
X011690Y023935D01*
X003234Y015961D02*
X003234Y015164D01*
X003234Y015961D02*
X003087Y015961D01*
X002694Y014388D02*
X001906Y014388D01*
X001366Y015164D02*
X001366Y015961D01*
X001513Y015961D01*
X003796Y005027D02*
X012064Y005027D01*
X012064Y003452D01*
X003796Y003452D02*
X003796Y005027D01*
D13*
X002361Y008782D02*
X002076Y008782D01*
X002076Y010671D02*
X002361Y010671D01*
X006876Y010671D02*
X007161Y010671D01*
X007161Y008782D02*
X006876Y008782D01*
X011676Y008782D02*
X011961Y008782D01*
X011961Y010671D02*
X011676Y010671D01*
D14*
X013390Y007972D02*
X013690Y007972D01*
X013540Y007822D02*
X013540Y008122D01*
X013260Y007232D02*
X012240Y007232D01*
X012240Y004632D01*
X013260Y004632D01*
X013820Y004632D02*
X014840Y004632D01*
X014840Y007232D01*
X014190Y007232D01*
X014840Y006582D01*
X014190Y007232D02*
X013820Y007232D01*
X012890Y007232D02*
X012240Y006582D01*
X008890Y018006D02*
X008890Y019685D01*
X006979Y019685D02*
X006979Y018006D01*
X002320Y008142D02*
X002320Y007842D01*
X002170Y007992D02*
X002470Y007992D01*
X002600Y007252D02*
X002970Y007252D01*
X003620Y006602D01*
X003620Y007252D02*
X003620Y004652D01*
X002600Y004652D01*
X002040Y004652D02*
X001020Y004652D01*
X001020Y007252D01*
X002040Y007252D01*
X001670Y007252D02*
X001020Y006602D01*
X002970Y007252D02*
X003620Y007252D01*
D15*
X007182Y019463D03*
D16*
X007930Y005046D02*
X007930Y000125D01*
X008619Y000125D01*
X008619Y005046D01*
X007930Y005046D01*
X007950Y005046D02*
X007950Y000125D01*
X004505Y000125D01*
X004505Y005046D01*
X003816Y005046D01*
X003816Y000125D01*
X004505Y000125D01*
X004505Y005046D02*
X007950Y005046D01*
X008619Y005046D02*
X012064Y005046D01*
X012064Y000125D01*
X008619Y000125D01*
M02*
