G75*
%MOIN*%
%OFA0B0*%
%FSLAX24Y24*%
%IPPOS*%
%LPD*%
%AMOC8*
5,1,8,0,0,1.08239X$1,22.5*
%
%ADD10C,0.0867*%
%ADD11R,0.0595X0.0595*%
%ADD12R,0.0631X0.0356*%
%ADD13R,0.1773X0.2049*%
%ADD14R,0.0513X0.0474*%
%ADD15R,0.0474X0.0513*%
%ADD16R,0.0671X0.0592*%
%ADD17C,0.0907*%
%ADD18R,0.0316X0.0690*%
%ADD19R,0.0552X0.0789*%
%ADD20R,0.0237X0.0781*%
%ADD21R,0.0710X0.0789*%
%ADD22R,0.0867X0.1261*%
%ADD23R,0.0380X0.1360*%
%ADD24C,0.0378*%
%ADD25R,0.0476X0.0476*%
%ADD26C,0.0366*%
%ADD27C,0.0476*%
D10*
X002024Y022349D03*
X013835Y022349D03*
D11*
X008693Y015374D03*
X007943Y015374D03*
X007193Y015374D03*
D12*
X006600Y010477D03*
X006600Y009977D03*
X006600Y009477D03*
X006600Y008977D03*
X001800Y008977D03*
X001800Y009477D03*
X001800Y009977D03*
X001800Y010477D03*
X011400Y010477D03*
X011400Y009977D03*
X011400Y009477D03*
X011400Y008977D03*
D13*
X012837Y009727D03*
X008037Y009727D03*
X003237Y009727D03*
D14*
X002443Y011092D03*
X002443Y011761D03*
X001643Y011761D03*
X001643Y011092D03*
X005743Y011261D03*
X005743Y010592D03*
X006543Y011092D03*
X006543Y011761D03*
X007123Y016916D03*
X007792Y016916D03*
X011343Y011761D03*
X011343Y011092D03*
X010543Y011261D03*
X010543Y010592D03*
D15*
X009591Y014570D03*
X009591Y015239D03*
X006366Y015267D03*
X006366Y014597D03*
X002398Y016916D03*
X001729Y016916D03*
D16*
X005586Y015506D03*
X005586Y014758D03*
X010376Y014719D03*
X010376Y015467D03*
D17*
X011466Y008176D03*
X006645Y008176D03*
X001745Y008176D03*
D18*
X001906Y016139D03*
X002300Y016139D03*
X002694Y016139D03*
X004505Y023737D03*
X004898Y023737D03*
X005292Y023737D03*
X009328Y023757D03*
X009721Y023757D03*
X010115Y023757D03*
X010509Y023757D03*
X010902Y023757D03*
X011296Y023757D03*
D19*
X011808Y025282D03*
X008816Y025282D03*
X005804Y025263D03*
X003993Y025263D03*
X003206Y014613D03*
X001394Y014613D03*
D20*
X007162Y017674D03*
X007418Y017674D03*
X007674Y017674D03*
X007930Y017674D03*
X008186Y017674D03*
X008442Y017674D03*
X008698Y017674D03*
X008698Y020017D03*
X008442Y020017D03*
X008186Y020017D03*
X007930Y020017D03*
X007674Y020017D03*
X007418Y020017D03*
X007162Y020017D03*
D21*
X012536Y008196D03*
X013639Y008196D03*
X008894Y008137D03*
X007792Y008137D03*
X004052Y008137D03*
X002950Y008137D03*
D22*
X004898Y005637D03*
X006867Y005637D03*
X009013Y005637D03*
X010981Y005637D03*
D23*
X013540Y004982D03*
X013540Y006882D03*
X002320Y006902D03*
X002320Y005002D03*
D24*
X004406Y012251D03*
X004780Y012251D03*
X005351Y012251D03*
X005528Y012723D03*
X006237Y012389D03*
X006631Y012822D03*
X006335Y013353D03*
X005568Y014751D03*
X005587Y015499D03*
X006080Y016247D03*
X006355Y015263D03*
X005824Y017448D03*
X005863Y017901D03*
X006394Y019082D03*
X005528Y022172D03*
X005804Y022546D03*
X005627Y023137D03*
X006060Y023550D03*
X006296Y023137D03*
X006769Y023156D03*
X007418Y023511D03*
X007477Y022389D03*
X008009Y022448D03*
X008934Y023668D03*
X009643Y022822D03*
X010115Y023275D03*
X010666Y022389D03*
X010883Y023294D03*
X010174Y021582D03*
X010666Y020342D03*
X011217Y019121D03*
X012123Y019101D03*
X013028Y020420D03*
X010371Y015460D03*
X009603Y015243D03*
X009583Y014574D03*
X010509Y013334D03*
X011355Y011759D03*
X009839Y011031D03*
X009347Y011267D03*
X009328Y012271D03*
X008383Y011070D03*
X007772Y012349D03*
X007930Y012782D03*
X004662Y013511D03*
X003619Y018137D03*
X004918Y023373D03*
X004032Y023944D03*
X006650Y024869D03*
X009603Y020322D03*
X009111Y019790D03*
X009052Y019259D03*
X009465Y018314D03*
D25*
X001355Y004023D03*
X001355Y004810D03*
X001355Y005597D03*
X001355Y006385D03*
X001355Y007172D03*
X002320Y005420D03*
X002320Y004554D03*
X002969Y008137D03*
X004072Y008137D03*
X004662Y006011D03*
X004662Y005656D03*
X004662Y005302D03*
X005154Y005302D03*
X005154Y005656D03*
X005154Y006011D03*
X006690Y005342D03*
X007044Y005342D03*
X007792Y008137D03*
X008894Y008137D03*
X008796Y006011D03*
X008796Y005656D03*
X008796Y005302D03*
X009288Y005302D03*
X009288Y005656D03*
X009288Y006011D03*
X010784Y005322D03*
X011178Y005322D03*
X012517Y008176D03*
X013639Y008196D03*
X014446Y007133D03*
X014446Y006345D03*
X014446Y005558D03*
X014446Y004771D03*
X014446Y003983D03*
X013540Y004554D03*
X013540Y005420D03*
X014367Y012605D03*
D26*
X008028Y022015D03*
X007753Y021700D03*
X007457Y021385D03*
X007162Y021070D03*
X006296Y020302D03*
X004898Y018649D03*
X003914Y017133D03*
X003068Y016129D03*
X001788Y017625D03*
X001769Y018117D03*
X003028Y020007D03*
X003422Y022684D03*
D27*
X012123Y021582D03*
M02*
