G75*
%MOIN*%
%OFA0B0*%
%FSLAX24Y24*%
%IPPOS*%
%LPD*%
%AMOC8*
5,1,8,0,0,1.08239X$1,22.5*
%
%ADD10C,0.0098*%
%ADD11C,0.0000*%
%ADD12C,0.0020*%
%ADD13C,0.0100*%
%ADD14C,0.0080*%
%ADD15R,0.0266X0.0965*%
%ADD16C,0.0050*%
D10*
X000843Y003452D02*
X003796Y003452D01*
X000843Y003452D02*
X000843Y023137D01*
X003599Y025893D01*
X012261Y025893D01*
X015017Y023137D01*
X015017Y003452D01*
X012064Y003452D01*
D11*
X013441Y022349D02*
X013443Y022388D01*
X013449Y022427D01*
X013459Y022465D01*
X013472Y022502D01*
X013489Y022537D01*
X013509Y022571D01*
X013533Y022602D01*
X013560Y022631D01*
X013589Y022657D01*
X013621Y022680D01*
X013655Y022700D01*
X013691Y022716D01*
X013728Y022728D01*
X013767Y022737D01*
X013806Y022742D01*
X013845Y022743D01*
X013884Y022740D01*
X013923Y022733D01*
X013960Y022722D01*
X013997Y022708D01*
X014032Y022690D01*
X014065Y022669D01*
X014096Y022644D01*
X014124Y022617D01*
X014149Y022587D01*
X014171Y022554D01*
X014190Y022520D01*
X014205Y022484D01*
X014217Y022446D01*
X014225Y022408D01*
X014229Y022369D01*
X014229Y022329D01*
X014225Y022290D01*
X014217Y022252D01*
X014205Y022214D01*
X014190Y022178D01*
X014171Y022144D01*
X014149Y022111D01*
X014124Y022081D01*
X014096Y022054D01*
X014065Y022029D01*
X014032Y022008D01*
X013997Y021990D01*
X013960Y021976D01*
X013923Y021965D01*
X013884Y021958D01*
X013845Y021955D01*
X013806Y021956D01*
X013767Y021961D01*
X013728Y021970D01*
X013691Y021982D01*
X013655Y021998D01*
X013621Y022018D01*
X013589Y022041D01*
X013560Y022067D01*
X013533Y022096D01*
X013509Y022127D01*
X013489Y022161D01*
X013472Y022196D01*
X013459Y022233D01*
X013449Y022271D01*
X013443Y022310D01*
X013441Y022349D01*
X001630Y022349D02*
X001632Y022388D01*
X001638Y022427D01*
X001648Y022465D01*
X001661Y022502D01*
X001678Y022537D01*
X001698Y022571D01*
X001722Y022602D01*
X001749Y022631D01*
X001778Y022657D01*
X001810Y022680D01*
X001844Y022700D01*
X001880Y022716D01*
X001917Y022728D01*
X001956Y022737D01*
X001995Y022742D01*
X002034Y022743D01*
X002073Y022740D01*
X002112Y022733D01*
X002149Y022722D01*
X002186Y022708D01*
X002221Y022690D01*
X002254Y022669D01*
X002285Y022644D01*
X002313Y022617D01*
X002338Y022587D01*
X002360Y022554D01*
X002379Y022520D01*
X002394Y022484D01*
X002406Y022446D01*
X002414Y022408D01*
X002418Y022369D01*
X002418Y022329D01*
X002414Y022290D01*
X002406Y022252D01*
X002394Y022214D01*
X002379Y022178D01*
X002360Y022144D01*
X002338Y022111D01*
X002313Y022081D01*
X002285Y022054D01*
X002254Y022029D01*
X002221Y022008D01*
X002186Y021990D01*
X002149Y021976D01*
X002112Y021965D01*
X002073Y021958D01*
X002034Y021955D01*
X001995Y021956D01*
X001956Y021961D01*
X001917Y021970D01*
X001880Y021982D01*
X001844Y021998D01*
X001810Y022018D01*
X001778Y022041D01*
X001749Y022067D01*
X001722Y022096D01*
X001698Y022127D01*
X001678Y022161D01*
X001661Y022196D01*
X001648Y022233D01*
X001638Y022271D01*
X001632Y022310D01*
X001630Y022349D01*
D12*
X002301Y015529D02*
X002301Y015492D01*
X002374Y015419D01*
X002447Y015419D02*
X002301Y015419D01*
X002337Y015345D02*
X002374Y015345D01*
X002374Y015198D01*
X002337Y015198D02*
X002301Y015235D01*
X002301Y015308D01*
X002337Y015345D01*
X002447Y015308D02*
X002447Y015235D01*
X002411Y015198D01*
X002337Y015198D01*
X002301Y015124D02*
X002484Y015124D01*
X002521Y015087D01*
X002521Y015050D01*
X002447Y015014D02*
X002447Y015124D01*
X002447Y015014D02*
X002411Y014977D01*
X002301Y014977D01*
X002337Y014903D02*
X002447Y014903D01*
X002447Y014793D01*
X002411Y014756D01*
X002374Y014793D01*
X002374Y014903D01*
X002337Y014903D02*
X002301Y014866D01*
X002301Y014793D01*
X002227Y014645D02*
X002447Y014645D01*
X002447Y014609D02*
X002447Y014682D01*
X002337Y014313D02*
X002337Y014167D01*
X002227Y014277D01*
X002447Y014277D01*
X002227Y014609D02*
X002227Y014645D01*
X001801Y014350D02*
X001764Y014387D01*
X001581Y014387D01*
X001581Y014277D01*
X001617Y014240D01*
X001691Y014240D01*
X001727Y014277D01*
X001727Y014387D01*
X001727Y014461D02*
X001581Y014461D01*
X001654Y014461D02*
X001581Y014535D01*
X001581Y014571D01*
X001581Y014682D02*
X001581Y014756D01*
X001617Y014792D01*
X001727Y014792D01*
X001727Y014682D01*
X001691Y014645D01*
X001654Y014682D01*
X001654Y014792D01*
X001581Y014866D02*
X001581Y014940D01*
X001544Y014903D02*
X001691Y014903D01*
X001727Y014940D01*
X001691Y015014D02*
X001617Y015014D01*
X001581Y015051D01*
X001581Y015124D01*
X001617Y015161D01*
X001654Y015161D01*
X001654Y015014D01*
X001691Y015014D02*
X001727Y015051D01*
X001727Y015124D01*
X001691Y015235D02*
X001617Y015235D01*
X001581Y015271D01*
X001581Y015382D01*
X001507Y015382D02*
X001727Y015382D01*
X001727Y015271D01*
X001691Y015235D01*
X001801Y014350D02*
X001801Y014314D01*
X001727Y014129D02*
X001727Y014056D01*
X001691Y014019D01*
X001617Y014019D01*
X001581Y014056D01*
X001581Y014129D01*
X001617Y014166D01*
X001654Y014166D01*
X001654Y014019D01*
X001581Y013945D02*
X001581Y013872D01*
X001544Y013909D02*
X001691Y013909D01*
X001727Y013945D01*
X001727Y013798D02*
X001617Y013798D01*
X001581Y013761D01*
X001581Y013651D01*
X001727Y013651D01*
X001727Y013577D02*
X001727Y013504D01*
X001727Y013540D02*
X001507Y013540D01*
X001507Y013504D02*
X001507Y013577D01*
X001691Y013209D02*
X001727Y013209D01*
X001727Y013172D01*
X001691Y013172D01*
X001691Y013209D01*
X001691Y013098D02*
X001727Y013061D01*
X001727Y012988D01*
X001691Y012951D01*
X001544Y012951D01*
X001507Y012988D01*
X001507Y013061D01*
X001544Y013098D01*
X001691Y012877D02*
X001727Y012877D01*
X001727Y012841D01*
X001691Y012841D01*
X001691Y012877D01*
X001727Y012767D02*
X001617Y012656D01*
X001654Y012620D02*
X001507Y012767D01*
X001507Y012620D02*
X001727Y012620D01*
X001727Y012546D02*
X001507Y012546D01*
X001617Y012546D02*
X001617Y012399D01*
X001727Y012399D02*
X001507Y012399D01*
X001867Y012399D02*
X001867Y012509D01*
X001904Y012546D01*
X001941Y012546D01*
X001977Y012509D01*
X001977Y012399D01*
X002087Y012399D02*
X001867Y012399D01*
X001977Y012509D02*
X002014Y012546D01*
X002051Y012546D01*
X002087Y012509D01*
X002087Y012399D01*
X002227Y012472D02*
X002447Y012472D01*
X002447Y012399D02*
X002447Y012546D01*
X002447Y012620D02*
X002447Y012767D01*
X002447Y012841D02*
X002227Y012988D01*
X002301Y013062D02*
X002227Y013135D01*
X002447Y013135D01*
X002447Y013062D02*
X002447Y013209D01*
X002447Y013283D02*
X002411Y013283D01*
X002264Y013430D01*
X002227Y013430D01*
X002227Y013283D01*
X002087Y013283D02*
X001867Y013283D01*
X001977Y013319D02*
X002087Y013430D01*
X002051Y013504D02*
X002014Y013540D01*
X002014Y013651D01*
X001977Y013651D02*
X002087Y013651D01*
X002087Y013540D01*
X002051Y013504D01*
X001941Y013540D02*
X001941Y013614D01*
X001977Y013651D01*
X001941Y013725D02*
X001941Y013798D01*
X001904Y013761D02*
X002051Y013761D01*
X002087Y013798D01*
X002087Y013872D02*
X002087Y014019D01*
X001941Y014019D02*
X002087Y013872D01*
X001941Y013872D02*
X001941Y014019D01*
X002337Y013871D02*
X002337Y013725D01*
X002014Y013283D02*
X001867Y013430D01*
X001977Y012988D02*
X002087Y012988D01*
X001977Y012988D02*
X001941Y012951D01*
X001941Y012841D01*
X002087Y012841D01*
X002014Y012767D02*
X002014Y012620D01*
X001977Y012620D02*
X001941Y012656D01*
X001941Y012730D01*
X001977Y012767D01*
X002014Y012767D01*
X002087Y012730D02*
X002087Y012656D01*
X002051Y012620D01*
X001977Y012620D01*
X002227Y012693D02*
X002447Y012693D01*
X002301Y012620D02*
X002227Y012693D01*
X002227Y012472D02*
X002301Y012399D01*
D13*
X003796Y005027D02*
X012064Y005027D01*
X012064Y003452D01*
X003796Y003452D02*
X003796Y005027D01*
D14*
X003511Y008782D02*
X003226Y008782D01*
X003226Y010671D02*
X003511Y010671D01*
X005227Y014213D02*
X010659Y014213D01*
X010659Y016535D01*
X005227Y016535D01*
X005227Y014213D01*
X008026Y010671D02*
X008311Y010671D01*
X008311Y008782D02*
X008026Y008782D01*
X010659Y015177D02*
X010632Y015179D01*
X010606Y015184D01*
X010581Y015193D01*
X010557Y015206D01*
X010535Y015221D01*
X010515Y015240D01*
X010498Y015260D01*
X010484Y015283D01*
X010473Y015308D01*
X010466Y015334D01*
X010462Y015361D01*
X010462Y015387D01*
X010466Y015414D01*
X010473Y015440D01*
X010484Y015465D01*
X010498Y015488D01*
X010515Y015508D01*
X010535Y015527D01*
X010557Y015542D01*
X010581Y015555D01*
X010606Y015564D01*
X010632Y015569D01*
X010659Y015571D01*
X012491Y013977D02*
X013302Y013977D01*
X013302Y012953D02*
X012491Y012953D01*
X012826Y010671D02*
X013111Y010671D01*
X013111Y008782D02*
X012826Y008782D01*
X013421Y019612D02*
X010841Y019612D01*
X010841Y021012D01*
X013421Y021012D01*
X013421Y019612D01*
X012135Y023763D02*
X012135Y023944D01*
X012257Y024036D01*
X012135Y024125D02*
X012135Y023944D01*
X012141Y023934D02*
X012257Y023858D01*
X008703Y023482D02*
X008310Y023876D01*
X008703Y020254D02*
X008703Y019860D01*
X008310Y019860D01*
X005081Y019860D02*
X004688Y019860D01*
X004688Y020254D01*
X004688Y023482D02*
X004688Y023876D01*
X005081Y023876D01*
X002170Y020483D02*
X002170Y020302D01*
X002048Y020210D01*
X002170Y020121D02*
X002170Y020302D01*
X002164Y020312D02*
X002048Y020388D01*
D15*
X012612Y013465D03*
D16*
X008363Y024672D02*
X007103Y024672D01*
X007103Y025302D01*
X008363Y025302D01*
X008363Y024672D01*
X006032Y024856D02*
X006034Y024874D01*
X006039Y024891D01*
X006048Y024907D01*
X006060Y024920D01*
X006075Y024930D01*
X006091Y024938D01*
X006109Y024942D01*
X006127Y024942D01*
X006145Y024938D01*
X006161Y024930D01*
X006176Y024920D01*
X006188Y024907D01*
X006197Y024891D01*
X006202Y024874D01*
X006204Y024856D01*
X006202Y024838D01*
X006197Y024821D01*
X006188Y024805D01*
X006176Y024792D01*
X006161Y024782D01*
X006145Y024774D01*
X006127Y024770D01*
X006109Y024770D01*
X006091Y024774D01*
X006075Y024782D01*
X006060Y024792D01*
X006048Y024805D01*
X006039Y024821D01*
X006034Y024838D01*
X006032Y024856D01*
X006108Y024856D02*
X006110Y024861D01*
X006114Y024865D01*
X006119Y024866D01*
X006125Y024864D01*
X006128Y024859D01*
X006128Y024853D01*
X006125Y024848D01*
X006119Y024846D01*
X006114Y024847D01*
X006110Y024851D01*
X006108Y024856D01*
X006068Y024856D02*
X006070Y024869D01*
X006075Y024882D01*
X006084Y024893D01*
X006095Y024900D01*
X006108Y024905D01*
X006121Y024906D01*
X006135Y024903D01*
X006147Y024897D01*
X006157Y024888D01*
X006164Y024876D01*
X006168Y024863D01*
X006168Y024849D01*
X006164Y024836D01*
X006157Y024824D01*
X006147Y024815D01*
X006135Y024809D01*
X006121Y024806D01*
X006108Y024807D01*
X006095Y024812D01*
X006084Y024819D01*
X006075Y024830D01*
X006070Y024843D01*
X006068Y024856D01*
M02*
