G75*
%MOIN*%
%OFA0B0*%
%FSLAX24Y24*%
%IPPOS*%
%LPD*%
%AMOC8*
5,1,8,0,0,1.08239X$1,22.5*
%
%ADD10C,0.0020*%
%ADD11C,0.0000*%
%ADD12C,0.0060*%
%ADD13C,0.0030*%
%ADD14C,0.0100*%
%ADD15R,0.0295X0.0335*%
%ADD16R,0.0354X0.0531*%
%ADD17C,0.0080*%
%ADD18C,0.0197*%
%ADD19C,0.0040*%
%ADD20R,0.0138X0.0315*%
%ADD21R,0.0118X0.0236*%
%ADD22R,0.0197X0.0108*%
%ADD23R,0.0315X0.0138*%
%ADD24R,0.0108X0.0197*%
%ADD25R,0.0236X0.0118*%
%ADD26C,0.0050*%
%ADD27C,0.0079*%
%ADD28R,0.0374X0.0197*%
%ADD29R,0.1024X0.0295*%
%ADD30R,0.0157X0.0055*%
%ADD31R,0.0630X0.0197*%
%ADD32R,0.0197X0.0630*%
D10*
X002777Y012953D02*
X002924Y012953D01*
X002850Y012953D02*
X002850Y013173D01*
X002777Y013099D01*
X002777Y013313D02*
X002887Y013313D01*
X002924Y013349D01*
X002924Y013386D01*
X002887Y013423D01*
X002777Y013423D01*
X002777Y013313D02*
X002777Y013533D01*
X002887Y013533D01*
X002924Y013496D01*
X002924Y013459D01*
X002887Y013423D01*
X002998Y013423D02*
X003035Y013459D01*
X003108Y013459D01*
X003145Y013423D01*
X003145Y013386D01*
X002998Y013386D01*
X002998Y013349D02*
X002998Y013423D01*
X002998Y013349D02*
X003035Y013313D01*
X003108Y013313D01*
X003219Y013313D02*
X003219Y013459D01*
X003329Y013459D01*
X003366Y013423D01*
X003366Y013313D01*
X003366Y013173D02*
X003219Y012953D01*
X003145Y012989D02*
X003108Y012953D01*
X003035Y012953D01*
X002998Y012989D01*
X003145Y013136D01*
X003145Y012989D01*
X003145Y013136D02*
X003108Y013173D01*
X003035Y013173D01*
X002998Y013136D01*
X002998Y012989D01*
X003440Y012953D02*
X003587Y012953D01*
X003513Y012953D02*
X003513Y013173D01*
X003440Y013099D01*
X003661Y013099D02*
X003661Y013136D01*
X003698Y013173D01*
X003771Y013173D01*
X003808Y013136D01*
X003808Y013099D01*
X003771Y013063D01*
X003698Y013063D01*
X003661Y013099D01*
X003698Y013063D02*
X003661Y013026D01*
X003661Y012989D01*
X003698Y012953D01*
X003771Y012953D01*
X003808Y012989D01*
X003808Y013026D01*
X003771Y013063D01*
X003808Y013313D02*
X003698Y013423D01*
X003661Y013386D02*
X003808Y013533D01*
X003918Y013459D02*
X003992Y013459D01*
X004029Y013423D01*
X004029Y013313D01*
X003918Y013313D01*
X003882Y013349D01*
X003918Y013386D01*
X004029Y013386D01*
X004103Y013459D02*
X004176Y013459D01*
X004139Y013496D02*
X004139Y013349D01*
X004176Y013313D01*
X004250Y013313D02*
X004397Y013459D01*
X004250Y013459D01*
X004250Y013313D02*
X004397Y013313D01*
X004471Y013959D02*
X004508Y013959D01*
X004544Y013996D01*
X004544Y014179D01*
X004434Y014179D01*
X004397Y014143D01*
X004397Y014069D01*
X004434Y014033D01*
X004544Y014033D01*
X004618Y014033D02*
X004618Y014179D01*
X004618Y014106D02*
X004692Y014179D01*
X004729Y014179D01*
X004839Y014179D02*
X004913Y014179D01*
X004949Y014143D01*
X004949Y014033D01*
X004839Y014033D01*
X004803Y014069D01*
X004839Y014106D01*
X004949Y014106D01*
X005024Y014179D02*
X005097Y014179D01*
X005060Y014216D02*
X005060Y014069D01*
X005097Y014033D01*
X005171Y014069D02*
X005171Y014143D01*
X005208Y014179D01*
X005281Y014179D01*
X005318Y014143D01*
X005318Y014106D01*
X005171Y014106D01*
X005171Y014069D02*
X005208Y014033D01*
X005281Y014033D01*
X005392Y014069D02*
X005392Y014143D01*
X005429Y014179D01*
X005539Y014179D01*
X005539Y014253D02*
X005539Y014033D01*
X005429Y014033D01*
X005392Y014069D01*
X004323Y014106D02*
X004176Y014106D01*
X004176Y014069D02*
X004176Y014143D01*
X004213Y014179D01*
X004287Y014179D01*
X004323Y014143D01*
X004323Y014106D01*
X004287Y014033D02*
X004213Y014033D01*
X004176Y014069D01*
X004103Y014033D02*
X004066Y014069D01*
X004066Y014216D01*
X004029Y014179D02*
X004103Y014179D01*
X003955Y014143D02*
X003955Y014033D01*
X003955Y014143D02*
X003918Y014179D01*
X003808Y014179D01*
X003808Y014033D01*
X003734Y014033D02*
X003661Y014033D01*
X003698Y014033D02*
X003698Y014253D01*
X003734Y014253D02*
X003661Y014253D01*
X003366Y014216D02*
X003329Y014253D01*
X003256Y014253D01*
X003219Y014216D01*
X003219Y014069D01*
X003256Y014033D01*
X003329Y014033D01*
X003366Y014069D01*
X003366Y013893D02*
X003329Y013856D01*
X003366Y013893D02*
X003439Y013893D01*
X003476Y013856D01*
X003476Y013819D01*
X003329Y013673D01*
X003476Y013673D01*
X003661Y013533D02*
X003661Y013313D01*
X003256Y013673D02*
X003219Y013673D01*
X003219Y013709D01*
X003256Y013709D01*
X003256Y013673D01*
X003145Y013673D02*
X002998Y013673D01*
X003145Y013819D01*
X003145Y013856D01*
X003108Y013893D01*
X003035Y013893D01*
X002998Y013856D01*
X002924Y013893D02*
X002924Y013746D01*
X002850Y013673D01*
X002777Y013746D01*
X002777Y013893D01*
X002777Y014033D02*
X002777Y014253D01*
X002777Y014143D02*
X002924Y014143D01*
X002998Y014106D02*
X003145Y014253D01*
X002998Y014253D02*
X002998Y014033D01*
X002924Y014033D02*
X002924Y014253D01*
X003035Y014143D02*
X003145Y014033D01*
D11*
X000956Y014128D02*
X000956Y001135D01*
X000958Y001081D01*
X000963Y001028D01*
X000972Y000975D01*
X000985Y000923D01*
X001001Y000871D01*
X001021Y000821D01*
X001044Y000773D01*
X001071Y000726D01*
X001100Y000681D01*
X001133Y000638D01*
X001168Y000598D01*
X001206Y000560D01*
X001246Y000525D01*
X001289Y000492D01*
X001334Y000463D01*
X001381Y000436D01*
X001429Y000413D01*
X001479Y000393D01*
X001531Y000377D01*
X001583Y000364D01*
X001636Y000355D01*
X001689Y000350D01*
X001743Y000348D01*
X014735Y000348D01*
X014789Y000350D01*
X014842Y000355D01*
X014895Y000364D01*
X014947Y000377D01*
X014999Y000393D01*
X015049Y000413D01*
X015097Y000436D01*
X015144Y000463D01*
X015189Y000492D01*
X015232Y000525D01*
X015272Y000560D01*
X015310Y000598D01*
X015345Y000638D01*
X015378Y000681D01*
X015407Y000726D01*
X015434Y000773D01*
X015457Y000821D01*
X015477Y000871D01*
X015493Y000923D01*
X015506Y000975D01*
X015515Y001028D01*
X015520Y001081D01*
X015522Y001135D01*
X015523Y001135D02*
X015523Y014128D01*
X015522Y014128D02*
X015520Y014182D01*
X015515Y014235D01*
X015506Y014288D01*
X015493Y014340D01*
X015477Y014392D01*
X015457Y014442D01*
X015434Y014490D01*
X015407Y014537D01*
X015378Y014582D01*
X015345Y014625D01*
X015310Y014665D01*
X015272Y014703D01*
X015232Y014738D01*
X015189Y014771D01*
X015144Y014800D01*
X015097Y014827D01*
X015049Y014850D01*
X014999Y014870D01*
X014947Y014886D01*
X014895Y014899D01*
X014842Y014908D01*
X014789Y014913D01*
X014735Y014915D01*
X001743Y014915D01*
X001689Y014913D01*
X001636Y014908D01*
X001583Y014899D01*
X001531Y014886D01*
X001479Y014870D01*
X001429Y014850D01*
X001381Y014827D01*
X001334Y014800D01*
X001289Y014771D01*
X001246Y014738D01*
X001206Y014703D01*
X001168Y014665D01*
X001133Y014625D01*
X001100Y014582D01*
X001071Y014537D01*
X001044Y014490D01*
X001021Y014442D01*
X001001Y014392D01*
X000985Y014340D01*
X000972Y014288D01*
X000963Y014235D01*
X000958Y014182D01*
X000956Y014128D01*
X004937Y010152D02*
X004853Y010067D01*
X004796Y010011D02*
X004718Y009933D01*
X004662Y009876D02*
X004577Y009791D01*
X004520Y009735D02*
X004435Y009650D01*
X004379Y009593D02*
X004301Y009516D01*
X004245Y009459D02*
X004160Y009374D01*
X004103Y009318D02*
X004018Y009233D01*
X003962Y009176D02*
X003884Y009098D01*
X003912Y009127D02*
X003912Y008420D01*
X003884Y008448D02*
X003962Y008370D01*
X004018Y008314D02*
X004103Y008229D01*
X004160Y008172D02*
X004245Y008087D01*
X004301Y008031D02*
X004379Y007953D01*
X004435Y007896D02*
X004520Y007812D01*
X004577Y007755D02*
X004662Y007670D01*
X004718Y007614D02*
X004796Y007536D01*
X004853Y007479D02*
X004937Y007394D01*
X004994Y007338D02*
X005079Y007253D01*
X005135Y007196D02*
X005213Y007119D01*
X005270Y007062D02*
X005355Y006977D01*
X005539Y006793D02*
X003559Y008773D01*
X005539Y010753D01*
X007518Y008773D01*
X005539Y006793D01*
X005722Y006977D02*
X005807Y007062D01*
X005864Y007119D02*
X005942Y007196D01*
X005998Y007253D02*
X006083Y007338D01*
X006140Y007394D02*
X006224Y007479D01*
X006281Y007536D02*
X006359Y007614D01*
X006415Y007670D02*
X006500Y007755D01*
X006557Y007812D02*
X006642Y007896D01*
X006698Y007953D02*
X006776Y008031D01*
X006833Y008087D02*
X006917Y008172D01*
X006974Y008229D02*
X007059Y008314D01*
X007115Y008370D02*
X007193Y008448D01*
X007250Y008505D02*
X007335Y008589D01*
X007335Y008957D02*
X007250Y009042D01*
X007193Y009098D02*
X007115Y009176D01*
X007059Y009233D02*
X006974Y009318D01*
X006917Y009374D02*
X006833Y009459D01*
X006776Y009516D02*
X006698Y009593D01*
X006642Y009650D02*
X006557Y009735D01*
X006500Y009791D02*
X006415Y009876D01*
X006359Y009933D02*
X006281Y010011D01*
X006224Y010067D02*
X006140Y010152D01*
X006083Y010209D02*
X005998Y010294D01*
X005942Y010350D02*
X005864Y010428D01*
X005807Y010484D02*
X005722Y010569D01*
X005355Y010569D02*
X005270Y010484D01*
X005213Y010428D02*
X005135Y010350D01*
X005079Y010294D02*
X004994Y010209D01*
X003827Y009042D02*
X003742Y008957D01*
X003742Y008589D02*
X003827Y008505D01*
D12*
X003651Y008681D02*
X003559Y008773D01*
X003651Y008865D01*
X004711Y010294D02*
X004435Y010569D01*
X004735Y011057D02*
X004735Y011112D01*
X004735Y011057D02*
X003554Y011057D01*
X003554Y011112D01*
X003202Y011547D02*
X003202Y011740D01*
X003025Y011740D02*
X003025Y011547D01*
X003554Y012183D02*
X003554Y012238D01*
X004735Y012238D01*
X004735Y012183D01*
X006191Y012183D02*
X006191Y012076D01*
X006297Y012076D01*
X006297Y012183D01*
X006191Y012183D01*
X006191Y011863D02*
X006191Y011756D01*
X006297Y011756D01*
X006297Y011863D01*
X006191Y011863D01*
X006513Y011969D02*
X006833Y011969D01*
X006940Y012076D01*
X006940Y012290D01*
X006833Y012397D01*
X006513Y012397D01*
X006513Y011756D01*
X007119Y011137D02*
X007312Y011137D01*
X007312Y010961D02*
X007119Y010961D01*
X007234Y011708D02*
X007234Y011901D01*
X007410Y011901D02*
X007410Y011708D01*
X008139Y011672D02*
X008332Y011672D01*
X008332Y011496D02*
X008139Y011496D01*
X008158Y010870D02*
X008158Y010677D01*
X007982Y010677D02*
X007982Y010870D01*
X008498Y010870D02*
X008498Y010677D01*
X008674Y010677D02*
X008674Y010870D01*
X007052Y010145D02*
X006769Y009862D01*
X007426Y008865D02*
X007518Y008773D01*
X007426Y008681D01*
X006917Y007819D02*
X007200Y007536D01*
X005630Y006885D02*
X005539Y006793D01*
X005447Y006885D01*
X004867Y007126D02*
X004584Y006843D01*
X004791Y005609D02*
X004791Y004880D01*
X005751Y004880D02*
X005751Y005609D01*
X006602Y005617D02*
X006602Y004888D01*
X007562Y004888D02*
X007562Y005617D01*
X007625Y001215D02*
X007625Y000788D01*
X007412Y000575D01*
X007198Y000788D01*
X007198Y001215D01*
X004413Y001215D02*
X004413Y000682D01*
X004306Y000575D01*
X004093Y000575D01*
X003986Y000682D01*
X003986Y001215D01*
X002123Y006961D02*
X001930Y006961D01*
X001930Y007137D02*
X002123Y007137D01*
X002115Y007437D02*
X001922Y007437D01*
X001922Y007613D02*
X002115Y007613D01*
X005447Y010661D02*
X005539Y010753D01*
X005630Y010661D01*
X011493Y014374D02*
X011686Y014374D01*
X011686Y014550D02*
X011493Y014550D01*
X014431Y012319D02*
X014431Y012126D01*
X014607Y012126D02*
X014607Y012319D01*
X014944Y006073D02*
X014944Y005646D01*
X014692Y002986D02*
X014692Y002559D01*
X014479Y002773D02*
X014906Y002773D01*
X010665Y001215D02*
X010665Y000575D01*
X010451Y000788D01*
X010238Y000575D01*
X010238Y001215D01*
D13*
X003312Y008206D02*
X003312Y008650D01*
X003312Y008206D01*
X003201Y008317D02*
X003423Y008539D01*
X003201Y008317D01*
X003091Y008428D02*
X003534Y008428D01*
X003091Y008428D01*
X003201Y008539D02*
X003423Y008317D01*
X003201Y008539D01*
D14*
X003090Y009553D02*
X002224Y009553D01*
X002224Y010104D01*
X003090Y010104D01*
X003090Y009553D01*
X005825Y013126D02*
X005972Y013126D01*
X005825Y013126D02*
X005825Y013923D01*
X005825Y014700D02*
X005825Y013126D01*
X009268Y013126D01*
X009121Y013126D01*
X009268Y013126D02*
X009268Y013923D01*
X009268Y014700D02*
X009268Y013126D01*
X009268Y014700D02*
X005825Y014700D01*
X006365Y014700D02*
X008727Y014700D01*
X013687Y008448D02*
X013687Y008301D01*
X013687Y008448D02*
X014483Y008448D01*
X015260Y008448D02*
X013687Y008448D01*
X013687Y006579D01*
X013687Y006726D01*
X013687Y006579D02*
X014483Y006579D01*
X015260Y006579D02*
X013687Y006579D01*
X015260Y006579D02*
X015260Y008448D01*
X015260Y007907D02*
X015260Y007120D01*
D15*
X003277Y009838D03*
X002037Y009838D03*
D16*
X002893Y009819D03*
D17*
X002735Y010309D02*
X001279Y010309D01*
X001279Y011962D01*
X002735Y011962D01*
X002735Y010309D01*
X002548Y010939D02*
X002548Y011332D01*
X001908Y011731D02*
X001862Y011719D01*
X001817Y011703D01*
X001773Y011684D01*
X001731Y011661D01*
X001690Y011635D01*
X001652Y011606D01*
X001617Y011574D01*
X001584Y011539D01*
X001554Y011502D01*
X001527Y011462D01*
X001503Y011421D01*
X001482Y011377D01*
X001465Y011332D01*
X001466Y011332D02*
X001466Y010939D01*
X001909Y010594D02*
X001909Y010545D01*
X001909Y010594D02*
X001911Y010612D01*
X001916Y010629D01*
X001924Y010646D01*
X001935Y010660D01*
X001948Y010672D01*
X001963Y010682D01*
X001980Y010688D01*
X001998Y010692D01*
X002016Y010692D01*
X002034Y010688D01*
X002051Y010682D01*
X002066Y010672D01*
X002079Y010660D01*
X002090Y010646D01*
X002098Y010629D01*
X002103Y010612D01*
X002105Y010594D01*
X002105Y010545D01*
X001908Y010540D02*
X001862Y010552D01*
X001817Y010568D01*
X001773Y010587D01*
X001731Y010610D01*
X001690Y010636D01*
X001652Y010665D01*
X001617Y010697D01*
X001584Y010732D01*
X001554Y010769D01*
X001527Y010809D01*
X001503Y010850D01*
X001482Y010894D01*
X001465Y010939D01*
X002106Y010540D02*
X002152Y010552D01*
X002197Y010568D01*
X002241Y010587D01*
X002283Y010610D01*
X002324Y010636D01*
X002362Y010665D01*
X002397Y010697D01*
X002430Y010732D01*
X002460Y010769D01*
X002487Y010809D01*
X002511Y010850D01*
X002532Y010894D01*
X002549Y010939D01*
X002549Y011332D02*
X002532Y011377D01*
X002511Y011421D01*
X002487Y011462D01*
X002460Y011502D01*
X002430Y011539D01*
X002397Y011574D01*
X002362Y011606D01*
X002324Y011635D01*
X002283Y011661D01*
X002241Y011684D01*
X002197Y011703D01*
X002152Y011719D01*
X002106Y011731D01*
X002105Y011726D02*
X002105Y011677D01*
X002103Y011659D01*
X002098Y011642D01*
X002090Y011625D01*
X002079Y011611D01*
X002066Y011599D01*
X002051Y011589D01*
X002034Y011583D01*
X002016Y011579D01*
X001998Y011579D01*
X001980Y011583D01*
X001963Y011589D01*
X001948Y011599D01*
X001935Y011611D01*
X001924Y011625D01*
X001916Y011642D01*
X001911Y011659D01*
X001909Y011677D01*
X001909Y011726D01*
X008168Y011943D02*
X008168Y012124D01*
X008290Y012216D01*
X008168Y012305D02*
X008168Y012124D01*
X008174Y012114D02*
X008290Y012038D01*
X009590Y012608D02*
X009590Y013002D01*
X009983Y013002D01*
X009629Y012962D02*
X009629Y009025D01*
X013566Y009025D01*
X013566Y012962D01*
X009629Y012962D01*
X012684Y014382D02*
X012806Y014474D01*
X012806Y014655D01*
X012684Y014560D02*
X012800Y014484D01*
X012806Y014474D02*
X012806Y014293D01*
X013212Y013002D02*
X013605Y013002D01*
X013605Y012608D01*
X013605Y009380D02*
X013212Y008986D01*
X009983Y008986D02*
X009590Y008986D01*
X009590Y009380D01*
D18*
X002007Y011381D03*
D19*
X002119Y012254D02*
X001548Y012254D01*
X001548Y012529D02*
X002119Y012529D01*
X001855Y012844D02*
X001521Y012844D01*
X001521Y013002D02*
X001855Y013002D01*
X003554Y012238D02*
X004735Y012238D01*
X004735Y011057D01*
X003554Y011057D01*
X003554Y012238D01*
X003737Y010714D02*
X003166Y010714D01*
X003166Y010439D02*
X003737Y010439D01*
X002454Y009328D02*
X001883Y009328D01*
X001883Y009053D02*
X002454Y009053D01*
X002729Y008746D02*
X001529Y008746D01*
X001529Y008155D02*
X002729Y008155D01*
X002857Y007303D02*
X002857Y006968D01*
X003015Y006968D02*
X003015Y007303D01*
X003452Y007444D02*
X003452Y006874D01*
X003727Y006874D02*
X003727Y007444D01*
X003377Y006047D02*
X003377Y004846D01*
X002787Y004846D02*
X002787Y006047D01*
X002570Y006047D02*
X002570Y004846D01*
X001979Y004846D02*
X001979Y006047D01*
X001743Y006047D02*
X001743Y004846D01*
X001153Y004846D02*
X001153Y006047D01*
X005820Y010860D02*
X006155Y010860D01*
X006155Y011017D02*
X005820Y011017D01*
X005920Y011881D02*
X005920Y012452D01*
X005645Y012452D02*
X005645Y011881D01*
X005401Y011885D02*
X005401Y012456D01*
X005125Y012456D02*
X005125Y011885D01*
X007897Y009527D02*
X007897Y009193D01*
X008054Y009193D02*
X008054Y009527D01*
X008554Y009582D02*
X008554Y009917D01*
X008712Y009917D02*
X008712Y009582D01*
X010153Y007582D02*
X010153Y007248D01*
X010310Y007248D02*
X010310Y007582D01*
X008761Y007415D02*
X008426Y007415D01*
X008426Y007257D02*
X008761Y007257D01*
X008783Y005929D02*
X008783Y004728D01*
X008956Y004728D02*
X008956Y005929D01*
X009546Y005929D02*
X009546Y004728D01*
X010539Y004669D02*
X010539Y005870D01*
X011129Y005870D02*
X011129Y004669D01*
X011365Y004669D02*
X011365Y005870D01*
X011956Y005870D02*
X011956Y004669D01*
X013076Y005624D02*
X014277Y005624D01*
X014277Y006214D02*
X013076Y006214D01*
X012753Y008002D02*
X012418Y008002D01*
X012418Y008159D02*
X012753Y008159D01*
X014377Y009236D02*
X014377Y009570D01*
X014535Y009570D02*
X014535Y009236D01*
X014869Y009220D02*
X014869Y009555D01*
X015027Y009555D02*
X015027Y009220D01*
X015185Y012216D02*
X015185Y012496D01*
X014850Y012496D02*
X014850Y012216D01*
X012867Y013880D02*
X012533Y013880D01*
X012533Y014037D02*
X012867Y014037D01*
X010603Y014029D02*
X010269Y014029D01*
X010269Y013872D02*
X010603Y013872D01*
X008192Y005929D02*
X008192Y004728D01*
X014649Y002696D02*
X014649Y002362D01*
X014806Y002362D02*
X014806Y002696D01*
X015090Y002696D02*
X015090Y002362D01*
X015247Y002362D02*
X015247Y002696D01*
D20*
X003698Y010576D03*
X003206Y010576D03*
X002414Y009191D03*
X001922Y009191D03*
X002080Y012391D03*
X001588Y012391D03*
D21*
X001858Y007527D03*
X002178Y007527D03*
X002188Y007047D03*
X001868Y007047D03*
X007055Y011051D03*
X007375Y011051D03*
X008074Y011586D03*
X008394Y011586D03*
X011429Y014464D03*
X011749Y014464D03*
D22*
X008633Y009892D03*
X008633Y009607D03*
X007976Y009503D03*
X007976Y009217D03*
X010231Y007558D03*
X010231Y007272D03*
X014456Y009260D03*
X014456Y009546D03*
X014948Y009530D03*
X014948Y009245D03*
X015168Y002672D03*
X015168Y002386D03*
X014727Y002386D03*
X014727Y002672D03*
X002936Y006993D03*
X002936Y007278D03*
D23*
X003590Y007405D03*
X003590Y006913D03*
X005263Y011925D03*
X005783Y011921D03*
X005783Y012413D03*
X005263Y012417D03*
D24*
X005845Y010939D03*
X006130Y010939D03*
X008451Y007336D03*
X008736Y007336D03*
X012443Y008080D03*
X012728Y008080D03*
X012843Y013958D03*
X012557Y013958D03*
X010579Y013950D03*
X010293Y013950D03*
X001831Y012923D03*
X001545Y012923D03*
D25*
X003115Y011804D03*
X003115Y011484D03*
X007320Y011644D03*
X007320Y011964D03*
X008072Y010934D03*
X008072Y010614D03*
X008588Y010614D03*
X008588Y010934D03*
X014521Y012063D03*
X014521Y012383D03*
D26*
X014929Y012356D02*
X014931Y012374D01*
X014936Y012391D01*
X014945Y012407D01*
X014957Y012420D01*
X014972Y012430D01*
X014988Y012438D01*
X015006Y012442D01*
X015024Y012442D01*
X015042Y012438D01*
X015058Y012430D01*
X015073Y012420D01*
X015085Y012407D01*
X015094Y012391D01*
X015099Y012374D01*
X015101Y012356D01*
X015099Y012338D01*
X015094Y012321D01*
X015085Y012305D01*
X015073Y012292D01*
X015058Y012282D01*
X015042Y012274D01*
X015024Y012270D01*
X015006Y012270D01*
X014988Y012274D01*
X014972Y012282D01*
X014957Y012292D01*
X014945Y012305D01*
X014936Y012321D01*
X014931Y012338D01*
X014929Y012356D01*
X015005Y012356D02*
X015007Y012361D01*
X015011Y012365D01*
X015016Y012366D01*
X015022Y012364D01*
X015025Y012359D01*
X015025Y012353D01*
X015022Y012348D01*
X015016Y012346D01*
X015011Y012347D01*
X015007Y012351D01*
X015005Y012356D01*
X014965Y012356D02*
X014967Y012369D01*
X014972Y012382D01*
X014981Y012393D01*
X014992Y012400D01*
X015005Y012405D01*
X015018Y012406D01*
X015032Y012403D01*
X015044Y012397D01*
X015054Y012388D01*
X015061Y012376D01*
X015065Y012363D01*
X015065Y012349D01*
X015061Y012336D01*
X015054Y012324D01*
X015044Y012315D01*
X015032Y012309D01*
X015018Y012306D01*
X015005Y012307D01*
X014992Y012312D01*
X014981Y012319D01*
X014972Y012330D01*
X014967Y012343D01*
X014965Y012356D01*
X014680Y011549D02*
X014680Y010289D01*
X015310Y010289D01*
X015310Y011549D01*
X014680Y011549D01*
X010987Y007872D02*
X010989Y007887D01*
X010994Y007900D01*
X011003Y007912D01*
X011014Y007922D01*
X011028Y007928D01*
X011042Y007931D01*
X011057Y007930D01*
X011071Y007925D01*
X011084Y007917D01*
X011094Y007907D01*
X011101Y007894D01*
X011105Y007879D01*
X011105Y007865D01*
X011101Y007850D01*
X011094Y007837D01*
X011084Y007827D01*
X011071Y007819D01*
X011057Y007814D01*
X011042Y007813D01*
X011028Y007816D01*
X011014Y007822D01*
X011003Y007832D01*
X010994Y007844D01*
X010989Y007857D01*
X010987Y007872D01*
X012413Y004604D02*
X012413Y003620D01*
X012353Y003620D01*
X012413Y003620D02*
X012413Y002635D01*
X014381Y002635D01*
X014381Y003620D01*
X014440Y003620D01*
X014381Y003620D02*
X014381Y004604D01*
X012413Y004604D01*
X012413Y002635D01*
X012137Y003108D02*
X012137Y002124D01*
X012137Y004092D01*
X012137Y003108D01*
X012196Y003108D01*
X012137Y004092D02*
X010168Y004092D01*
X010168Y003108D01*
X010109Y003108D01*
X010168Y003108D02*
X010168Y002124D01*
X012137Y002124D01*
X010168Y002124D02*
X010168Y004092D01*
X009952Y004289D02*
X009952Y003305D01*
X010011Y003305D01*
X009952Y003305D02*
X009952Y002320D01*
X009952Y004289D01*
X007983Y004289D01*
X007983Y003305D01*
X007924Y003305D01*
X007983Y003305D02*
X007983Y002320D01*
X009952Y002320D01*
X007983Y002320D02*
X007983Y004289D01*
X007767Y003876D02*
X007767Y002891D01*
X007826Y002891D01*
X007767Y002891D02*
X007767Y001907D01*
X005798Y001907D01*
X005798Y002891D01*
X005739Y002891D01*
X005798Y002891D02*
X005798Y003876D01*
X005798Y001907D01*
X005523Y001907D02*
X005523Y002891D01*
X005582Y002891D01*
X005523Y002891D02*
X005523Y003876D01*
X003554Y003876D01*
X003554Y002891D01*
X003495Y002891D01*
X003554Y002891D02*
X003554Y001907D01*
X005523Y001907D01*
X005523Y003876D01*
X005798Y003876D02*
X007767Y003876D01*
X007767Y001907D01*
X003554Y001907D02*
X003554Y003876D01*
X003456Y003462D02*
X003397Y003462D01*
X003397Y002478D01*
X003397Y004446D01*
X003397Y003462D01*
X003397Y004446D02*
X001428Y004446D01*
X001428Y003462D01*
X001369Y003462D01*
X001428Y003462D02*
X001428Y002478D01*
X003397Y002478D01*
X001428Y002478D02*
X001428Y004446D01*
X014381Y004604D02*
X014381Y002635D01*
D27*
X014108Y005120D02*
X014110Y005132D01*
X014115Y005143D01*
X014124Y005152D01*
X014135Y005157D01*
X014147Y005159D01*
X014159Y005157D01*
X014170Y005152D01*
X014179Y005143D01*
X014184Y005132D01*
X014186Y005120D01*
X014184Y005108D01*
X014179Y005097D01*
X014170Y005088D01*
X014159Y005083D01*
X014147Y005081D01*
X014135Y005083D01*
X014124Y005088D01*
X014115Y005097D01*
X014110Y005108D01*
X014108Y005120D01*
X010364Y001608D02*
X010366Y001620D01*
X010371Y001631D01*
X010380Y001640D01*
X010391Y001645D01*
X010403Y001647D01*
X010415Y001645D01*
X010426Y001640D01*
X010435Y001631D01*
X010440Y001620D01*
X010442Y001608D01*
X010440Y001596D01*
X010435Y001585D01*
X010426Y001576D01*
X010415Y001571D01*
X010403Y001569D01*
X010391Y001571D01*
X010380Y001576D01*
X010371Y001585D01*
X010366Y001596D01*
X010364Y001608D01*
X008179Y001805D02*
X008181Y001817D01*
X008186Y001828D01*
X008195Y001837D01*
X008206Y001842D01*
X008218Y001844D01*
X008230Y001842D01*
X008241Y001837D01*
X008250Y001828D01*
X008255Y001817D01*
X008257Y001805D01*
X008255Y001793D01*
X008250Y001782D01*
X008241Y001773D01*
X008230Y001768D01*
X008218Y001766D01*
X008206Y001768D01*
X008195Y001773D01*
X008186Y001782D01*
X008181Y001793D01*
X008179Y001805D01*
X007494Y004391D02*
X007496Y004403D01*
X007501Y004414D01*
X007510Y004423D01*
X007521Y004428D01*
X007533Y004430D01*
X007545Y004428D01*
X007556Y004423D01*
X007565Y004414D01*
X007570Y004403D01*
X007572Y004391D01*
X007570Y004379D01*
X007565Y004368D01*
X007556Y004359D01*
X007545Y004354D01*
X007533Y004352D01*
X007521Y004354D01*
X007510Y004359D01*
X007501Y004368D01*
X007496Y004379D01*
X007494Y004391D01*
X005250Y004391D02*
X005252Y004403D01*
X005257Y004414D01*
X005266Y004423D01*
X005277Y004428D01*
X005289Y004430D01*
X005301Y004428D01*
X005312Y004423D01*
X005321Y004414D01*
X005326Y004403D01*
X005328Y004391D01*
X005326Y004379D01*
X005321Y004368D01*
X005312Y004359D01*
X005301Y004354D01*
X005289Y004352D01*
X005277Y004354D01*
X005266Y004359D01*
X005257Y004368D01*
X005252Y004379D01*
X005250Y004391D01*
X001624Y001962D02*
X001626Y001974D01*
X001631Y001985D01*
X001640Y001994D01*
X001651Y001999D01*
X001663Y002001D01*
X001675Y001999D01*
X001686Y001994D01*
X001695Y001985D01*
X001700Y001974D01*
X001702Y001962D01*
X001700Y001950D01*
X001695Y001939D01*
X001686Y001930D01*
X001675Y001925D01*
X001663Y001923D01*
X001651Y001925D01*
X001640Y001930D01*
X001631Y001939D01*
X001626Y001950D01*
X001624Y001962D01*
D28*
X015017Y012127D03*
X015017Y012587D03*
D29*
X007079Y005760D03*
X007079Y004750D03*
X005268Y004742D03*
X005268Y005752D03*
D30*
X004657Y011084D03*
D31*
X003082Y005978D03*
X002275Y005978D03*
X001448Y005978D03*
X001448Y004915D03*
X002275Y004915D03*
X003082Y004915D03*
X008487Y004797D03*
X009251Y004797D03*
X009251Y005860D03*
X008487Y005860D03*
X010834Y005801D03*
X011661Y005801D03*
X011661Y004738D03*
X010834Y004738D03*
D32*
X013145Y005919D03*
X014208Y005919D03*
X002661Y008450D03*
X001598Y008450D03*
M02*
