G75*
%MOIN*%
%OFA0B0*%
%FSLAX24Y24*%
%IPPOS*%
%LPD*%
%AMOC8*
5,1,8,0,0,1.08239X$1,22.5*
%
%ADD10C,0.0827*%
%ADD11C,0.0236*%
%ADD12C,0.0100*%
%ADD13C,0.0063*%
%ADD14C,0.1227*%
D10*
X005090Y000978D03*
X008239Y000978D03*
X011389Y000978D03*
X014972Y003557D03*
X014972Y004974D03*
D11*
X014066Y005053D03*
X014066Y004817D03*
X013830Y004817D03*
X013830Y005053D03*
X013594Y005053D03*
X013594Y004817D03*
X013357Y004817D03*
X013357Y005053D03*
X013121Y005053D03*
X013121Y004817D03*
X013121Y004580D03*
X013357Y004580D03*
X013594Y004580D03*
X013830Y004580D03*
X014066Y004580D03*
X014090Y003911D03*
X013853Y003911D03*
X013617Y003911D03*
X013381Y003911D03*
X013145Y003911D03*
X012909Y003911D03*
X012909Y003675D03*
X013145Y003675D03*
X013145Y003439D03*
X012909Y003439D03*
X012672Y003439D03*
X012672Y003675D03*
X012672Y003911D03*
X012672Y003202D03*
X012672Y002966D03*
X012909Y002966D03*
X013145Y002966D03*
X013145Y003202D03*
X012909Y003202D03*
X013381Y003202D03*
X013381Y002966D03*
X013617Y002966D03*
X013617Y003202D03*
X013853Y003202D03*
X013853Y002966D03*
X014090Y002966D03*
X014090Y003202D03*
X014090Y003439D03*
X014090Y003675D03*
X013853Y003675D03*
X013853Y003439D03*
X013617Y003439D03*
X013617Y003675D03*
X013381Y003675D03*
X013381Y003439D03*
X011842Y003380D03*
X011605Y003380D03*
X011605Y003143D03*
X011842Y003143D03*
X011842Y002907D03*
X011842Y002671D03*
X011605Y002671D03*
X011605Y002907D03*
X011369Y002907D03*
X011133Y002907D03*
X011133Y002671D03*
X011369Y002671D03*
X010897Y002671D03*
X010897Y002907D03*
X010661Y002907D03*
X010661Y002671D03*
X010424Y002671D03*
X010424Y002907D03*
X010424Y003143D03*
X010424Y003380D03*
X010424Y003616D03*
X010424Y003852D03*
X010661Y003852D03*
X010897Y003852D03*
X010897Y003616D03*
X010661Y003616D03*
X010661Y003380D03*
X010897Y003380D03*
X010897Y003143D03*
X010661Y003143D03*
X011133Y003143D03*
X011369Y003143D03*
X011369Y003380D03*
X011133Y003380D03*
X011133Y003616D03*
X011133Y003852D03*
X011369Y003852D03*
X011369Y003616D03*
X011605Y003616D03*
X011605Y003852D03*
X011842Y003852D03*
X011842Y003616D03*
X011432Y002080D03*
X011432Y001844D03*
X011196Y001844D03*
X010960Y001844D03*
X010960Y002080D03*
X011196Y002080D03*
X010724Y002080D03*
X010487Y002080D03*
X010487Y001844D03*
X010724Y001844D03*
X009661Y002848D03*
X009661Y003084D03*
X009661Y003320D03*
X009661Y003557D03*
X009661Y003793D03*
X009661Y004029D03*
X009424Y004029D03*
X009188Y004029D03*
X009188Y003793D03*
X009424Y003793D03*
X009424Y003557D03*
X009188Y003557D03*
X009188Y003320D03*
X009424Y003320D03*
X009424Y003084D03*
X009188Y003084D03*
X009188Y002848D03*
X009424Y002848D03*
X008952Y002848D03*
X008952Y003084D03*
X008716Y003084D03*
X008716Y002848D03*
X008479Y002848D03*
X008479Y003084D03*
X008243Y003084D03*
X008243Y002848D03*
X008243Y003320D03*
X008243Y003557D03*
X008243Y003793D03*
X008243Y004029D03*
X008479Y004029D03*
X008479Y003793D03*
X008716Y003793D03*
X008952Y003793D03*
X008952Y004029D03*
X008716Y004029D03*
X008716Y003557D03*
X008952Y003557D03*
X008952Y003320D03*
X008716Y003320D03*
X008479Y003320D03*
X008479Y003557D03*
X007590Y004443D03*
X007353Y004443D03*
X007353Y004679D03*
X007590Y004679D03*
X007117Y004679D03*
X006881Y004679D03*
X006645Y004679D03*
X006645Y004443D03*
X006881Y004443D03*
X007117Y004443D03*
X006999Y003320D03*
X006763Y003320D03*
X006527Y003320D03*
X006527Y003084D03*
X006763Y003084D03*
X006763Y002848D03*
X006999Y002848D03*
X006999Y003084D03*
X007235Y003084D03*
X007235Y002848D03*
X007472Y002848D03*
X007472Y003084D03*
X007472Y003320D03*
X007235Y003320D03*
X006527Y002848D03*
X006527Y002612D03*
X006763Y002612D03*
X006999Y002612D03*
X006999Y002376D03*
X006763Y002376D03*
X006527Y002376D03*
X006290Y002376D03*
X006054Y002376D03*
X006054Y002612D03*
X006290Y002612D03*
X006290Y002848D03*
X006054Y002848D03*
X006054Y003084D03*
X006290Y003084D03*
X006290Y003320D03*
X006054Y003320D03*
X005231Y003380D03*
X005231Y003143D03*
X004995Y003143D03*
X004759Y003143D03*
X004759Y003380D03*
X004995Y003380D03*
X004523Y003380D03*
X004287Y003380D03*
X004287Y003143D03*
X004523Y003143D03*
X004523Y002907D03*
X004523Y002671D03*
X004287Y002671D03*
X004287Y002907D03*
X004050Y002907D03*
X003814Y002907D03*
X003814Y002671D03*
X004050Y002671D03*
X004050Y002435D03*
X003814Y002435D03*
X003814Y002198D03*
X004050Y002198D03*
X004287Y002198D03*
X004523Y002198D03*
X004523Y002435D03*
X004287Y002435D03*
X004759Y002435D03*
X004995Y002435D03*
X004995Y002198D03*
X004759Y002198D03*
X005231Y002198D03*
X005231Y002435D03*
X005231Y002671D03*
X005231Y002907D03*
X004995Y002907D03*
X004759Y002907D03*
X004759Y002671D03*
X004995Y002671D03*
X004050Y003143D03*
X003814Y003143D03*
X003814Y003380D03*
X004050Y003380D03*
X003102Y003498D03*
X003102Y003261D03*
X003102Y003025D03*
X002865Y003025D03*
X002629Y003025D03*
X002393Y003025D03*
X002157Y003025D03*
X002157Y003261D03*
X002393Y003261D03*
X002393Y003498D03*
X002157Y003498D03*
X002157Y003734D03*
X002393Y003734D03*
X002393Y003970D03*
X002157Y003970D03*
X002157Y004206D03*
X002393Y004206D03*
X002629Y004206D03*
X002865Y004206D03*
X002865Y003970D03*
X002629Y003970D03*
X002629Y003734D03*
X002865Y003734D03*
X002865Y003498D03*
X002629Y003498D03*
X002629Y003261D03*
X002865Y003261D03*
X003102Y003734D03*
X003102Y003970D03*
X003102Y004206D03*
X001920Y004206D03*
X001684Y004206D03*
X001684Y003970D03*
X001684Y003734D03*
X001920Y003734D03*
X001920Y003970D03*
X001920Y003498D03*
X001684Y003498D03*
X001684Y003261D03*
X001920Y003261D03*
X001920Y003025D03*
X001684Y003025D03*
X001743Y002439D03*
X001979Y002439D03*
X002216Y002439D03*
X002216Y002202D03*
X002452Y002202D03*
X002688Y002202D03*
X002688Y002439D03*
X002452Y002439D03*
X004637Y004443D03*
X004873Y004443D03*
X004873Y004679D03*
X004637Y004679D03*
X005109Y004679D03*
X005346Y004679D03*
X005582Y004679D03*
X005582Y004443D03*
X005346Y004443D03*
X005109Y004443D03*
X004857Y005643D03*
X004857Y005880D03*
X004857Y006116D03*
X005094Y006116D03*
X005330Y006116D03*
X005566Y006116D03*
X005566Y005880D03*
X005566Y005643D03*
X005330Y005880D03*
X005094Y005880D03*
X005346Y006561D03*
X005790Y006679D03*
X005558Y007572D03*
X004968Y008163D03*
X005558Y008754D03*
X006090Y009344D03*
X005499Y009935D03*
X004968Y009344D03*
X004377Y008754D03*
X003432Y009265D03*
X003389Y008513D03*
X004145Y007254D03*
X003318Y006175D03*
X002964Y006175D03*
X002609Y006175D03*
X002255Y006175D03*
X001901Y006175D03*
X001546Y006175D03*
X001192Y006175D03*
X001192Y005584D03*
X001546Y005584D03*
X001901Y005584D03*
X002255Y005584D03*
X002609Y005584D03*
X002964Y005584D03*
X003318Y005584D03*
X001369Y007076D03*
X001365Y007506D03*
X004318Y010112D03*
X004259Y010407D03*
X004495Y010643D03*
X004810Y010584D03*
X005027Y010820D03*
X005322Y010939D03*
X004991Y011317D03*
X005629Y011352D03*
X006515Y010525D03*
X006814Y010415D03*
X007105Y010289D03*
X007164Y009931D03*
X007574Y010061D03*
X008216Y009915D03*
X008342Y009084D03*
X008913Y009061D03*
X009350Y009344D03*
X009940Y009462D03*
X009944Y010309D03*
X010413Y010643D03*
X010117Y010820D03*
X009822Y010998D03*
X009873Y011647D03*
X010176Y011883D03*
X010015Y012824D03*
X010413Y012828D03*
X011357Y012002D03*
X011594Y012238D03*
X011830Y012537D03*
X012066Y012773D03*
X012775Y012651D03*
X013188Y012651D03*
X013897Y012769D03*
X014483Y012954D03*
X015251Y013135D03*
X013405Y013679D03*
X013302Y011588D03*
X012893Y011116D03*
X012617Y010860D03*
X013342Y010592D03*
X013424Y009639D03*
X012901Y009545D03*
X013129Y009108D03*
X013877Y009159D03*
X012243Y009167D03*
X012271Y008072D03*
X011452Y008072D03*
X011294Y007458D03*
X010759Y007065D03*
X010314Y007072D03*
X009700Y007159D03*
X009294Y007159D03*
X009294Y007509D03*
X009527Y007860D03*
X008239Y007631D03*
X007708Y008458D03*
X007436Y008939D03*
X006739Y008754D03*
X006149Y008163D03*
X006924Y006773D03*
X007164Y006561D03*
X007227Y006116D03*
X007464Y006116D03*
X007464Y005880D03*
X007227Y005880D03*
X007464Y005643D03*
X006991Y005880D03*
X006755Y005880D03*
X006755Y005643D03*
X006755Y006116D03*
X006991Y006116D03*
X008109Y006175D03*
X008464Y006175D03*
X008818Y006175D03*
X009172Y006175D03*
X009527Y006175D03*
X009527Y005584D03*
X009172Y005584D03*
X008818Y005584D03*
X008464Y005584D03*
X008109Y005584D03*
X010472Y005584D03*
X010826Y005584D03*
X011180Y005584D03*
X011535Y005584D03*
X011889Y005584D03*
X011889Y006175D03*
X011535Y006175D03*
X011180Y006175D03*
X010826Y006175D03*
X010472Y006175D03*
X012432Y007100D03*
X013023Y007041D03*
X013121Y005289D03*
X013357Y005289D03*
X013594Y005289D03*
X013830Y005289D03*
X014066Y005289D03*
X009125Y002257D03*
X009125Y002021D03*
X008889Y002021D03*
X008653Y002021D03*
X008653Y002257D03*
X008889Y002257D03*
X008416Y002257D03*
X008416Y002021D03*
X008180Y002021D03*
X008180Y002257D03*
X007472Y002139D03*
X007235Y002139D03*
X006999Y002139D03*
X006763Y002139D03*
X006527Y002139D03*
X006290Y002139D03*
X006054Y002139D03*
X007235Y002376D03*
X007235Y002612D03*
X007472Y002612D03*
X007472Y002376D03*
X014586Y010931D03*
X011117Y011714D03*
X008995Y012986D03*
X008369Y012592D03*
X007582Y012592D03*
X007924Y013427D03*
X007168Y013616D03*
X006731Y013643D03*
X006361Y013659D03*
X004857Y012502D03*
X004184Y011927D03*
X002318Y012923D03*
X001448Y012395D03*
X001814Y011600D03*
X006924Y011549D03*
X007826Y011588D03*
D12*
X001106Y006273D02*
X015373Y006273D01*
X015373Y004324D01*
X007831Y004324D01*
X007858Y004389D01*
X007858Y004496D01*
X007831Y004561D01*
X007858Y004625D01*
X007858Y004732D01*
X007817Y004831D01*
X007742Y004906D01*
X007643Y004947D01*
X007536Y004947D01*
X007472Y004920D01*
X007407Y004947D01*
X007300Y004947D01*
X007235Y004920D01*
X007171Y004947D01*
X007064Y004947D01*
X006999Y004920D01*
X006934Y004947D01*
X006828Y004947D01*
X006763Y004920D01*
X006698Y004947D01*
X006591Y004947D01*
X006493Y004906D01*
X006418Y004831D01*
X006377Y004732D01*
X006377Y004625D01*
X006404Y004561D01*
X006377Y004496D01*
X006377Y004389D01*
X006404Y004324D01*
X005823Y004324D01*
X005850Y004389D01*
X005850Y004496D01*
X005823Y004561D01*
X005850Y004625D01*
X005850Y004732D01*
X005809Y004831D01*
X005734Y004906D01*
X005635Y004947D01*
X005528Y004947D01*
X005464Y004920D01*
X005399Y004947D01*
X005292Y004947D01*
X005227Y004920D01*
X005163Y004947D01*
X005056Y004947D01*
X004991Y004920D01*
X004926Y004947D01*
X004820Y004947D01*
X004755Y004920D01*
X004690Y004947D01*
X004584Y004947D01*
X004485Y004906D01*
X004410Y004831D01*
X004369Y004732D01*
X004369Y004625D01*
X004396Y004561D01*
X004369Y004496D01*
X004369Y004389D01*
X004396Y004324D01*
X003343Y004324D01*
X003329Y004358D01*
X003253Y004434D01*
X003155Y004474D01*
X003048Y004474D01*
X002983Y004448D01*
X002919Y004474D01*
X002812Y004474D01*
X002747Y004448D01*
X002682Y004474D01*
X002576Y004474D01*
X002511Y004448D01*
X002446Y004474D01*
X002340Y004474D01*
X002275Y004448D01*
X002210Y004474D01*
X002103Y004474D01*
X002039Y004448D01*
X001974Y004474D01*
X001867Y004474D01*
X001802Y004448D01*
X001738Y004474D01*
X001631Y004474D01*
X001532Y004434D01*
X001457Y004358D01*
X001443Y004324D01*
X001106Y004324D01*
X001106Y006273D01*
X001106Y006252D02*
X015373Y006252D01*
X015373Y006154D02*
X001106Y006154D01*
X001106Y006055D02*
X015373Y006055D01*
X015373Y005957D02*
X001106Y005957D01*
X001106Y005858D02*
X015373Y005858D01*
X015373Y005760D02*
X001106Y005760D01*
X001106Y005661D02*
X015373Y005661D01*
X015373Y005563D02*
X001106Y005563D01*
X001106Y005464D02*
X015373Y005464D01*
X015373Y005366D02*
X001106Y005366D01*
X001106Y005267D02*
X015373Y005267D01*
X015373Y005169D02*
X001106Y005169D01*
X001106Y005070D02*
X015373Y005070D01*
X015373Y004972D02*
X001106Y004972D01*
X001106Y004873D02*
X004453Y004873D01*
X004387Y004775D02*
X001106Y004775D01*
X001106Y004676D02*
X004369Y004676D01*
X004388Y004578D02*
X001106Y004578D01*
X001106Y004479D02*
X004369Y004479D01*
X004372Y004381D02*
X003306Y004381D01*
X001480Y004381D02*
X001106Y004381D01*
X005766Y004873D02*
X006460Y004873D01*
X006394Y004775D02*
X005832Y004775D01*
X005850Y004676D02*
X006377Y004676D01*
X006396Y004578D02*
X005830Y004578D01*
X005850Y004479D02*
X006377Y004479D01*
X006380Y004381D02*
X005847Y004381D01*
X007774Y004873D02*
X015373Y004873D01*
X015373Y004775D02*
X007840Y004775D01*
X007858Y004676D02*
X015373Y004676D01*
X015373Y004578D02*
X007838Y004578D01*
X007858Y004479D02*
X015373Y004479D01*
X015373Y004381D02*
X007854Y004381D01*
D13*
X007727Y003545D02*
X007727Y002462D01*
X009401Y002462D01*
X009401Y000480D01*
X005802Y000480D01*
X005802Y001903D01*
X005822Y001903D01*
X005822Y003545D01*
X007727Y003545D01*
X007727Y003512D02*
X005822Y003512D01*
X005822Y003450D02*
X007727Y003450D01*
X007727Y003389D02*
X005822Y003389D01*
X005822Y003327D02*
X007727Y003327D01*
X007727Y003266D02*
X005822Y003266D01*
X005822Y003204D02*
X007727Y003204D01*
X007727Y003143D02*
X005822Y003143D01*
X005822Y003081D02*
X007727Y003081D01*
X007727Y003020D02*
X005822Y003020D01*
X005822Y002958D02*
X007727Y002958D01*
X007727Y002897D02*
X005822Y002897D01*
X005822Y002835D02*
X007727Y002835D01*
X007727Y002774D02*
X005822Y002774D01*
X005822Y002712D02*
X007727Y002712D01*
X007727Y002651D02*
X005822Y002651D01*
X005822Y002589D02*
X007727Y002589D01*
X007727Y002528D02*
X005822Y002528D01*
X005822Y002466D02*
X007727Y002466D01*
X009401Y002405D02*
X005822Y002405D01*
X005822Y002343D02*
X009401Y002343D01*
X009401Y002282D02*
X005822Y002282D01*
X005822Y002220D02*
X009401Y002220D01*
X009401Y002159D02*
X005822Y002159D01*
X005822Y002097D02*
X009401Y002097D01*
X009401Y002036D02*
X005822Y002036D01*
X005822Y001974D02*
X009401Y001974D01*
X009401Y001913D02*
X005822Y001913D01*
X005802Y001851D02*
X009401Y001851D01*
X009401Y001790D02*
X005802Y001790D01*
X005802Y001728D02*
X009401Y001728D01*
X009401Y001667D02*
X005802Y001667D01*
X005802Y001605D02*
X009401Y001605D01*
X009401Y001544D02*
X005802Y001544D01*
X005802Y001482D02*
X009401Y001482D01*
X009401Y001421D02*
X005802Y001421D01*
X005802Y001359D02*
X009401Y001359D01*
X009401Y001298D02*
X005802Y001298D01*
X005802Y001236D02*
X009401Y001236D01*
X009401Y001175D02*
X005802Y001175D01*
X005802Y001113D02*
X009401Y001113D01*
X009401Y001052D02*
X005802Y001052D01*
X005802Y000990D02*
X009401Y000990D01*
X009401Y000929D02*
X005802Y000929D01*
X005802Y000867D02*
X009401Y000867D01*
X009401Y000806D02*
X005802Y000806D01*
X005802Y000744D02*
X009401Y000744D01*
X009401Y000683D02*
X005802Y000683D01*
X005802Y000621D02*
X009401Y000621D01*
X009401Y000560D02*
X005802Y000560D01*
X005802Y000498D02*
X009401Y000498D01*
X010235Y000498D02*
X014327Y000498D01*
X014330Y000497D02*
X014330Y000486D01*
X010235Y000486D01*
X010235Y002403D01*
X012413Y002403D01*
X012413Y004112D01*
X014330Y004112D01*
X014330Y001774D01*
X014313Y001767D01*
X014104Y001557D01*
X013990Y001284D01*
X013990Y000987D01*
X014104Y000713D01*
X014313Y000504D01*
X014330Y000497D01*
X014258Y000560D02*
X010235Y000560D01*
X010235Y000621D02*
X014196Y000621D01*
X014135Y000683D02*
X010235Y000683D01*
X010235Y000744D02*
X014091Y000744D01*
X014066Y000806D02*
X010235Y000806D01*
X010235Y000867D02*
X014040Y000867D01*
X014015Y000929D02*
X010235Y000929D01*
X010235Y000990D02*
X013990Y000990D01*
X013990Y001052D02*
X010235Y001052D01*
X010235Y001113D02*
X013990Y001113D01*
X013990Y001175D02*
X010235Y001175D01*
X010235Y001236D02*
X013990Y001236D01*
X013996Y001298D02*
X010235Y001298D01*
X010235Y001359D02*
X014022Y001359D01*
X014047Y001421D02*
X010235Y001421D01*
X010235Y001482D02*
X014073Y001482D01*
X014098Y001544D02*
X010235Y001544D01*
X010235Y001605D02*
X014152Y001605D01*
X014213Y001667D02*
X010235Y001667D01*
X010235Y001728D02*
X014275Y001728D01*
X014330Y001790D02*
X010235Y001790D01*
X010235Y001851D02*
X014330Y001851D01*
X014330Y001913D02*
X010235Y001913D01*
X010235Y001974D02*
X014330Y001974D01*
X014330Y002036D02*
X010235Y002036D01*
X010235Y002097D02*
X014330Y002097D01*
X014330Y002159D02*
X010235Y002159D01*
X010235Y002220D02*
X014330Y002220D01*
X014330Y002282D02*
X010235Y002282D01*
X010235Y002343D02*
X014330Y002343D01*
X014330Y002405D02*
X012413Y002405D01*
X012413Y002466D02*
X014330Y002466D01*
X014330Y002528D02*
X012413Y002528D01*
X012413Y002589D02*
X014330Y002589D01*
X014330Y002651D02*
X012413Y002651D01*
X012413Y002712D02*
X014330Y002712D01*
X014330Y002774D02*
X012413Y002774D01*
X012413Y002835D02*
X014330Y002835D01*
X014330Y002897D02*
X012413Y002897D01*
X012413Y002958D02*
X014330Y002958D01*
X014330Y003020D02*
X012413Y003020D01*
X012413Y003081D02*
X014330Y003081D01*
X014330Y003143D02*
X012413Y003143D01*
X012413Y003204D02*
X014330Y003204D01*
X014330Y003266D02*
X012413Y003266D01*
X012413Y003327D02*
X014330Y003327D01*
X014330Y003389D02*
X012413Y003389D01*
X012413Y003450D02*
X014330Y003450D01*
X014330Y003512D02*
X012413Y003512D01*
X012413Y003573D02*
X014330Y003573D01*
X014330Y003634D02*
X012413Y003634D01*
X012413Y003696D02*
X014330Y003696D01*
X014330Y003757D02*
X012413Y003757D01*
X012413Y003819D02*
X014330Y003819D01*
X014330Y003880D02*
X012413Y003880D01*
X012413Y003942D02*
X014330Y003942D01*
X014330Y004003D02*
X012413Y004003D01*
X012413Y004065D02*
X014330Y004065D01*
X015391Y006667D02*
X015391Y013765D01*
X015367Y013706D01*
X015157Y013496D01*
X014884Y013383D01*
X014587Y013383D01*
X014313Y013496D01*
X014104Y013706D01*
X013990Y013979D01*
X013990Y014276D01*
X014104Y014550D01*
X014313Y014759D01*
X014372Y014783D01*
X002106Y014783D01*
X002165Y014759D01*
X002375Y014550D01*
X002488Y014276D01*
X002488Y013979D01*
X002375Y013706D01*
X002165Y013496D01*
X001891Y013383D01*
X001595Y013383D01*
X001321Y013496D01*
X001112Y013706D01*
X001087Y013765D01*
X001087Y006667D01*
X005119Y006667D01*
X005134Y006702D01*
X005204Y006772D01*
X005296Y006810D01*
X005395Y006810D01*
X005487Y006772D01*
X005541Y006718D01*
X005541Y006728D01*
X005579Y006820D01*
X005649Y006890D01*
X005741Y006928D01*
X005840Y006928D01*
X005932Y006890D01*
X006002Y006820D01*
X006040Y006728D01*
X006040Y006667D01*
X006698Y006667D01*
X006675Y006724D01*
X006675Y006823D01*
X006713Y006915D01*
X006783Y006985D01*
X006875Y007023D01*
X006974Y007023D01*
X007066Y006985D01*
X007136Y006915D01*
X007174Y006823D01*
X007174Y006810D01*
X007214Y006810D01*
X007306Y006772D01*
X007376Y006702D01*
X007391Y006667D01*
X015391Y006667D01*
X015391Y006709D02*
X007369Y006709D01*
X007308Y006771D02*
X015391Y006771D01*
X015391Y006832D02*
X013167Y006832D01*
X013164Y006829D02*
X013234Y006900D01*
X013272Y006991D01*
X013272Y007091D01*
X013234Y007182D01*
X013164Y007253D01*
X013072Y007291D01*
X012973Y007291D01*
X012881Y007253D01*
X012811Y007182D01*
X012773Y007091D01*
X012773Y006991D01*
X012811Y006900D01*
X012881Y006829D01*
X012973Y006791D01*
X013072Y006791D01*
X013164Y006829D01*
X013228Y006894D02*
X015391Y006894D01*
X015391Y006955D02*
X013257Y006955D01*
X013272Y007017D02*
X015391Y007017D01*
X015391Y007078D02*
X013272Y007078D01*
X013252Y007140D02*
X015391Y007140D01*
X015391Y007201D02*
X013216Y007201D01*
X013140Y007263D02*
X015391Y007263D01*
X015391Y007324D02*
X011509Y007324D01*
X011506Y007317D02*
X011544Y007409D01*
X011544Y007508D01*
X011506Y007600D01*
X011436Y007670D01*
X011344Y007708D01*
X011245Y007708D01*
X011153Y007670D01*
X011083Y007600D01*
X011045Y007508D01*
X011045Y007409D01*
X011083Y007317D01*
X011153Y007247D01*
X011245Y007209D01*
X011344Y007209D01*
X011436Y007247D01*
X011506Y007317D01*
X011534Y007386D02*
X015391Y007386D01*
X015391Y007447D02*
X011544Y007447D01*
X011544Y007509D02*
X015391Y007509D01*
X015391Y007570D02*
X011518Y007570D01*
X011474Y007631D02*
X015391Y007631D01*
X015391Y007693D02*
X011380Y007693D01*
X011402Y007823D02*
X011502Y007823D01*
X011593Y007861D01*
X011664Y007931D01*
X011702Y008023D01*
X011702Y008122D01*
X011664Y008214D01*
X011593Y008284D01*
X011502Y008322D01*
X011402Y008322D01*
X011311Y008284D01*
X011240Y008214D01*
X011202Y008122D01*
X011202Y008023D01*
X011240Y007931D01*
X011311Y007861D01*
X011402Y007823D01*
X011294Y007877D02*
X009776Y007877D01*
X009776Y007909D02*
X009738Y008001D01*
X009668Y008071D01*
X009576Y008109D01*
X009477Y008109D01*
X009385Y008071D01*
X009315Y008001D01*
X009277Y007909D01*
X009277Y007810D01*
X009298Y007759D01*
X009245Y007759D01*
X009153Y007721D01*
X009083Y007651D01*
X009045Y007559D01*
X009045Y007460D01*
X009083Y007368D01*
X009153Y007298D01*
X009245Y007260D01*
X009344Y007260D01*
X009436Y007298D01*
X009506Y007368D01*
X009544Y007460D01*
X009544Y007559D01*
X009523Y007610D01*
X009576Y007610D01*
X009668Y007648D01*
X009738Y007718D01*
X009776Y007810D01*
X009776Y007909D01*
X009764Y007939D02*
X011237Y007939D01*
X011212Y008000D02*
X009739Y008000D01*
X009678Y008062D02*
X011202Y008062D01*
X011203Y008123D02*
X006398Y008123D01*
X006398Y008113D02*
X006360Y008022D01*
X006290Y007951D01*
X006198Y007913D01*
X006099Y007913D01*
X006007Y007951D01*
X005937Y008022D01*
X005899Y008113D01*
X005899Y008213D01*
X005937Y008304D01*
X006007Y008375D01*
X006099Y008413D01*
X006198Y008413D01*
X006290Y008375D01*
X006360Y008304D01*
X006398Y008213D01*
X006398Y008113D01*
X006377Y008062D02*
X009376Y008062D01*
X009315Y008000D02*
X006339Y008000D01*
X006260Y007939D02*
X009289Y007939D01*
X009277Y007877D02*
X008298Y007877D01*
X008289Y007881D02*
X008190Y007881D01*
X008098Y007843D01*
X008028Y007773D01*
X007990Y007681D01*
X007990Y007582D01*
X008028Y007490D01*
X008098Y007420D01*
X008190Y007382D01*
X008289Y007382D01*
X008381Y007420D01*
X008451Y007490D01*
X008489Y007582D01*
X008489Y007681D01*
X008451Y007773D01*
X008381Y007843D01*
X008289Y007881D01*
X008181Y007877D02*
X001087Y007877D01*
X001087Y007816D02*
X005494Y007816D01*
X005509Y007822D02*
X005417Y007784D01*
X005347Y007714D01*
X005309Y007622D01*
X005309Y007523D01*
X005347Y007431D01*
X005417Y007361D01*
X005509Y007323D01*
X005608Y007323D01*
X005700Y007361D01*
X005770Y007431D01*
X005808Y007523D01*
X005808Y007622D01*
X005770Y007714D01*
X005700Y007784D01*
X005608Y007822D01*
X005509Y007822D01*
X005623Y007816D02*
X008071Y007816D01*
X008020Y007754D02*
X005729Y007754D01*
X005778Y007693D02*
X007995Y007693D01*
X007990Y007631D02*
X005804Y007631D01*
X005808Y007570D02*
X007995Y007570D01*
X008020Y007509D02*
X005802Y007509D01*
X005776Y007447D02*
X008071Y007447D01*
X008181Y007386D02*
X005724Y007386D01*
X005611Y007324D02*
X009127Y007324D01*
X009076Y007386D02*
X008298Y007386D01*
X008408Y007447D02*
X009050Y007447D01*
X009045Y007509D02*
X008459Y007509D01*
X008484Y007570D02*
X009049Y007570D01*
X009075Y007631D02*
X008489Y007631D01*
X008484Y007693D02*
X009125Y007693D01*
X009234Y007754D02*
X008459Y007754D01*
X008408Y007816D02*
X009277Y007816D01*
X009540Y007570D02*
X011071Y007570D01*
X011045Y007509D02*
X009544Y007509D01*
X009539Y007447D02*
X011045Y007447D01*
X011054Y007386D02*
X009805Y007386D01*
X009841Y007371D02*
X009750Y007409D01*
X009650Y007409D01*
X009559Y007371D01*
X009488Y007300D01*
X009450Y007209D01*
X009450Y007109D01*
X009488Y007018D01*
X009559Y006947D01*
X009650Y006909D01*
X009750Y006909D01*
X009841Y006947D01*
X009912Y007018D01*
X009950Y007109D01*
X009950Y007209D01*
X009912Y007300D01*
X009841Y007371D01*
X009888Y007324D02*
X011080Y007324D01*
X011137Y007263D02*
X010914Y007263D01*
X010900Y007276D02*
X010809Y007314D01*
X010709Y007314D01*
X010618Y007276D01*
X010547Y007206D01*
X010538Y007184D01*
X010526Y007214D01*
X010455Y007284D01*
X010364Y007322D01*
X010264Y007322D01*
X010173Y007284D01*
X010102Y007214D01*
X010064Y007122D01*
X010064Y007023D01*
X010102Y006931D01*
X010173Y006861D01*
X010264Y006823D01*
X010364Y006823D01*
X010455Y006861D01*
X010526Y006931D01*
X010535Y006953D01*
X010547Y006923D01*
X010618Y006853D01*
X010709Y006815D01*
X010809Y006815D01*
X010900Y006853D01*
X010971Y006923D01*
X011009Y007015D01*
X011009Y007114D01*
X010971Y007206D01*
X010900Y007276D01*
X010973Y007201D02*
X012830Y007201D01*
X012793Y007140D02*
X010998Y007140D01*
X011009Y007078D02*
X012773Y007078D01*
X012773Y007017D02*
X011009Y007017D01*
X010984Y006955D02*
X012788Y006955D01*
X012817Y006894D02*
X010941Y006894D01*
X010850Y006832D02*
X012879Y006832D01*
X012905Y007263D02*
X011452Y007263D01*
X011209Y007693D02*
X009713Y007693D01*
X009753Y007754D02*
X015391Y007754D01*
X015391Y007816D02*
X009776Y007816D01*
X009628Y007631D02*
X011115Y007631D01*
X011610Y007877D02*
X015391Y007877D01*
X015391Y007939D02*
X011667Y007939D01*
X011692Y008000D02*
X015391Y008000D01*
X015391Y008062D02*
X011702Y008062D01*
X011701Y008123D02*
X015391Y008123D01*
X015391Y008185D02*
X011675Y008185D01*
X011631Y008246D02*
X015391Y008246D01*
X015391Y008308D02*
X011536Y008308D01*
X011368Y008308D02*
X007910Y008308D01*
X007919Y008317D02*
X007957Y008409D01*
X007957Y008508D01*
X007919Y008600D01*
X007849Y008670D01*
X007757Y008708D01*
X007658Y008708D01*
X007566Y008670D01*
X007496Y008600D01*
X007458Y008508D01*
X007458Y008409D01*
X007496Y008317D01*
X007566Y008247D01*
X007658Y008209D01*
X007757Y008209D01*
X007849Y008247D01*
X007919Y008317D01*
X007941Y008369D02*
X015391Y008369D01*
X015391Y008431D02*
X007957Y008431D01*
X007957Y008492D02*
X015391Y008492D01*
X015391Y008554D02*
X007938Y008554D01*
X007904Y008615D02*
X015391Y008615D01*
X015391Y008677D02*
X007832Y008677D01*
X007648Y008797D02*
X007686Y008889D01*
X007686Y008988D01*
X007648Y009080D01*
X007578Y009150D01*
X007486Y009188D01*
X007387Y009188D01*
X007295Y009150D01*
X007225Y009080D01*
X007187Y008988D01*
X007187Y008889D01*
X007225Y008797D01*
X007295Y008727D01*
X007387Y008689D01*
X007486Y008689D01*
X007578Y008727D01*
X007648Y008797D01*
X007649Y008800D02*
X015391Y008800D01*
X015391Y008861D02*
X009066Y008861D01*
X009054Y008849D02*
X009124Y008919D01*
X009162Y009011D01*
X009162Y009110D01*
X009124Y009202D01*
X009054Y009272D01*
X008962Y009310D01*
X008863Y009310D01*
X008771Y009272D01*
X008701Y009202D01*
X008663Y009110D01*
X008663Y009011D01*
X008701Y008919D01*
X008771Y008849D01*
X008863Y008811D01*
X008962Y008811D01*
X009054Y008849D01*
X009126Y008923D02*
X012180Y008923D01*
X012194Y008917D02*
X012293Y008917D01*
X012385Y008955D01*
X012455Y009026D01*
X012493Y009117D01*
X012493Y009217D01*
X012455Y009308D01*
X012385Y009379D01*
X012293Y009417D01*
X012194Y009417D01*
X012102Y009379D01*
X012032Y009308D01*
X011994Y009217D01*
X011994Y009117D01*
X012032Y009026D01*
X012102Y008955D01*
X012194Y008917D01*
X012306Y008923D02*
X013795Y008923D01*
X013827Y008909D02*
X013927Y008909D01*
X014018Y008947D01*
X014089Y009018D01*
X014127Y009109D01*
X014127Y009209D01*
X014089Y009300D01*
X014018Y009371D01*
X013927Y009409D01*
X013827Y009409D01*
X013736Y009371D01*
X013665Y009300D01*
X013627Y009209D01*
X013627Y009109D01*
X013665Y009018D01*
X013736Y008947D01*
X013827Y008909D01*
X013959Y008923D02*
X015391Y008923D01*
X015391Y008984D02*
X014055Y008984D01*
X014100Y009046D02*
X015391Y009046D01*
X015391Y009107D02*
X014126Y009107D01*
X014127Y009169D02*
X015391Y009169D01*
X015391Y009230D02*
X014118Y009230D01*
X014092Y009292D02*
X015391Y009292D01*
X015391Y009353D02*
X014036Y009353D01*
X013718Y009353D02*
X013062Y009353D01*
X013042Y009333D02*
X013112Y009403D01*
X013150Y009495D01*
X013150Y009595D01*
X013112Y009686D01*
X013042Y009756D01*
X012950Y009794D01*
X012851Y009794D01*
X012759Y009756D01*
X012689Y009686D01*
X012651Y009595D01*
X012651Y009495D01*
X012689Y009403D01*
X012759Y009333D01*
X012851Y009295D01*
X012950Y009295D01*
X013042Y009333D01*
X013117Y009415D02*
X015391Y009415D01*
X015391Y009476D02*
X013142Y009476D01*
X013150Y009538D02*
X015391Y009538D01*
X015391Y009599D02*
X013148Y009599D01*
X013123Y009661D02*
X015391Y009661D01*
X015391Y009722D02*
X013076Y009722D01*
X012976Y009784D02*
X015391Y009784D01*
X015391Y009845D02*
X007706Y009845D01*
X007715Y009849D02*
X007786Y009919D01*
X007824Y010011D01*
X007824Y010110D01*
X007786Y010202D01*
X007715Y010272D01*
X007624Y010310D01*
X007524Y010310D01*
X007433Y010272D01*
X007362Y010202D01*
X007328Y010120D01*
X007309Y010139D01*
X007317Y010148D01*
X007355Y010239D01*
X007355Y010339D01*
X007317Y010430D01*
X007247Y010501D01*
X007155Y010539D01*
X007056Y010539D01*
X007036Y010531D01*
X007026Y010556D01*
X006955Y010627D01*
X006864Y010665D01*
X006764Y010665D01*
X006733Y010651D01*
X006726Y010667D01*
X006656Y010737D01*
X006565Y010775D01*
X006465Y010775D01*
X006374Y010737D01*
X006303Y010667D01*
X006265Y010575D01*
X006265Y010476D01*
X006303Y010384D01*
X006374Y010314D01*
X006465Y010276D01*
X004507Y010276D01*
X004484Y010299D02*
X004509Y010357D01*
X004509Y010394D01*
X004545Y010394D01*
X004618Y010424D01*
X004669Y010373D01*
X004761Y010335D01*
X004860Y010335D01*
X004952Y010373D01*
X005022Y010443D01*
X005060Y010535D01*
X005060Y010571D01*
X005076Y010571D01*
X005168Y010609D01*
X005238Y010679D01*
X005247Y010700D01*
X005272Y010689D01*
X005372Y010689D01*
X005463Y010727D01*
X005534Y010797D01*
X005572Y010889D01*
X005572Y010988D01*
X005534Y011080D01*
X005463Y011150D01*
X005372Y011188D01*
X005272Y011188D01*
X005181Y011150D01*
X005110Y011080D01*
X005102Y011059D01*
X005076Y011070D01*
X004977Y011070D01*
X004885Y011032D01*
X004815Y010962D01*
X004777Y010870D01*
X004777Y010834D01*
X004761Y010834D01*
X004688Y010804D01*
X004637Y010855D01*
X004545Y010893D01*
X004446Y010893D01*
X004354Y010855D01*
X004284Y010785D01*
X004246Y010693D01*
X004246Y010657D01*
X004209Y010657D01*
X004118Y010619D01*
X004047Y010548D01*
X004009Y010457D01*
X004009Y010357D01*
X004047Y010266D01*
X004093Y010220D01*
X004068Y010161D01*
X004068Y010062D01*
X004106Y009970D01*
X004177Y009900D01*
X004268Y009862D01*
X004368Y009862D01*
X004459Y009900D01*
X004530Y009970D01*
X004568Y010062D01*
X004568Y010161D01*
X004530Y010253D01*
X004484Y010299D01*
X004500Y010337D02*
X004754Y010337D01*
X004866Y010337D02*
X006350Y010337D01*
X006297Y010399D02*
X004978Y010399D01*
X005029Y010460D02*
X006272Y010460D01*
X006265Y010522D02*
X005054Y010522D01*
X005106Y010583D02*
X006269Y010583D01*
X006294Y010645D02*
X005204Y010645D01*
X005413Y010706D02*
X006343Y010706D01*
X006448Y010768D02*
X005504Y010768D01*
X005547Y010829D02*
X009638Y010829D01*
X009610Y010856D02*
X009681Y010786D01*
X009772Y010748D01*
X009872Y010748D01*
X009876Y010750D01*
X009906Y010679D01*
X009976Y010609D01*
X010068Y010571D01*
X010167Y010571D01*
X010172Y010573D01*
X010201Y010502D01*
X010271Y010432D01*
X010363Y010394D01*
X010462Y010394D01*
X010554Y010432D01*
X010624Y010502D01*
X010662Y010594D01*
X010662Y010693D01*
X010624Y010785D01*
X010554Y010855D01*
X010462Y010893D01*
X010363Y010893D01*
X010358Y010891D01*
X010329Y010962D01*
X010259Y011032D01*
X010167Y011070D01*
X010068Y011070D01*
X010063Y011068D01*
X010034Y011139D01*
X009963Y011209D01*
X009872Y011247D01*
X009772Y011247D01*
X009681Y011209D01*
X009610Y011139D01*
X009572Y011047D01*
X009572Y010948D01*
X009610Y010856D01*
X009596Y010891D02*
X005572Y010891D01*
X005572Y010952D02*
X009572Y010952D01*
X009572Y011014D02*
X005561Y011014D01*
X005536Y011075D02*
X009584Y011075D01*
X009609Y011137D02*
X005761Y011137D01*
X005770Y011140D02*
X005841Y011211D01*
X005879Y011302D01*
X005879Y011402D01*
X005841Y011493D01*
X005770Y011564D01*
X005679Y011602D01*
X005579Y011602D01*
X005488Y011564D01*
X005417Y011493D01*
X005379Y011402D01*
X005379Y011302D01*
X005417Y011211D01*
X005488Y011140D01*
X005579Y011102D01*
X005679Y011102D01*
X005770Y011140D01*
X005828Y011198D02*
X009669Y011198D01*
X009732Y011436D02*
X009824Y011398D01*
X009923Y011398D01*
X010015Y011436D01*
X010085Y011506D01*
X010123Y011598D01*
X010123Y011635D01*
X010127Y011634D01*
X010226Y011634D01*
X010318Y011672D01*
X010388Y011742D01*
X010426Y011834D01*
X010426Y011933D01*
X010388Y012025D01*
X010318Y012095D01*
X010226Y012133D01*
X010127Y012133D01*
X010035Y012095D01*
X009965Y012025D01*
X009927Y011933D01*
X009927Y011895D01*
X009923Y011897D01*
X009824Y011897D01*
X009732Y011859D01*
X009662Y011789D01*
X009624Y011697D01*
X009624Y011598D01*
X009662Y011506D01*
X009732Y011436D01*
X009723Y011444D02*
X007151Y011444D01*
X007136Y011407D02*
X007174Y011499D01*
X007174Y011598D01*
X007136Y011690D01*
X009624Y011690D01*
X009624Y011629D02*
X007162Y011629D01*
X007174Y011567D02*
X009636Y011567D01*
X009662Y011506D02*
X007174Y011506D01*
X007136Y011407D02*
X007066Y011337D01*
X006974Y011299D01*
X006875Y011299D01*
X006783Y011337D01*
X006713Y011407D01*
X006675Y011499D01*
X006675Y011598D01*
X006713Y011690D01*
X006783Y011760D01*
X006875Y011798D01*
X006974Y011798D01*
X007066Y011760D01*
X007136Y011690D01*
X007075Y011751D02*
X009646Y011751D01*
X009686Y011813D02*
X004407Y011813D01*
X004396Y011785D02*
X004434Y011877D01*
X004434Y011976D01*
X004396Y012068D01*
X004326Y012138D01*
X004234Y012176D01*
X004135Y012176D01*
X004043Y012138D01*
X003973Y012068D01*
X003935Y011976D01*
X003935Y011877D01*
X003973Y011785D01*
X004043Y011715D01*
X004135Y011677D01*
X004234Y011677D01*
X004326Y011715D01*
X004396Y011785D01*
X004362Y011751D02*
X006774Y011751D01*
X006713Y011690D02*
X004265Y011690D01*
X004104Y011690D02*
X002047Y011690D01*
X002064Y011650D02*
X002026Y011741D01*
X001955Y011812D01*
X001864Y011850D01*
X001764Y011850D01*
X001673Y011812D01*
X001602Y011741D01*
X001564Y011650D01*
X001564Y011550D01*
X001602Y011459D01*
X001673Y011388D01*
X001764Y011350D01*
X001864Y011350D01*
X001955Y011388D01*
X002026Y011459D01*
X002064Y011550D01*
X002064Y011650D01*
X002064Y011629D02*
X006687Y011629D01*
X006675Y011567D02*
X005762Y011567D01*
X005829Y011506D02*
X006675Y011506D01*
X006698Y011444D02*
X005861Y011444D01*
X005879Y011383D02*
X006738Y011383D01*
X006822Y011321D02*
X005879Y011321D01*
X005861Y011260D02*
X012684Y011260D01*
X012681Y011257D02*
X012643Y011165D01*
X012643Y011109D01*
X012568Y011109D01*
X012476Y011071D01*
X012406Y011001D01*
X012368Y010909D01*
X012368Y010810D01*
X012406Y010718D01*
X012476Y010648D01*
X012568Y010610D01*
X012667Y010610D01*
X012759Y010648D01*
X012829Y010718D01*
X012867Y010810D01*
X012867Y010866D01*
X012942Y010866D01*
X013034Y010904D01*
X013104Y010974D01*
X013142Y011066D01*
X013142Y011165D01*
X013104Y011257D01*
X013034Y011327D01*
X012942Y011365D01*
X012843Y011365D01*
X012751Y011327D01*
X012681Y011257D01*
X012657Y011198D02*
X009975Y011198D01*
X010035Y011137D02*
X012643Y011137D01*
X012485Y011075D02*
X010060Y011075D01*
X010277Y011014D02*
X012418Y011014D01*
X012385Y010952D02*
X010333Y010952D01*
X010468Y010891D02*
X012368Y010891D01*
X012368Y010829D02*
X010580Y010829D01*
X010631Y010768D02*
X012385Y010768D01*
X012418Y010706D02*
X010657Y010706D01*
X010662Y010645D02*
X012485Y010645D01*
X012750Y010645D02*
X013093Y010645D01*
X013092Y010642D02*
X013092Y010542D01*
X013130Y010451D01*
X013200Y010381D01*
X013292Y010343D01*
X013391Y010343D01*
X013483Y010381D01*
X013553Y010451D01*
X013591Y010542D01*
X013591Y010642D01*
X013553Y010734D01*
X013483Y010804D01*
X013391Y010842D01*
X013292Y010842D01*
X013200Y010804D01*
X013130Y010734D01*
X013092Y010642D01*
X013092Y010583D02*
X010658Y010583D01*
X010632Y010522D02*
X013101Y010522D01*
X013126Y010460D02*
X010582Y010460D01*
X010474Y010399D02*
X013182Y010399D01*
X013119Y010706D02*
X012817Y010706D01*
X012849Y010768D02*
X013164Y010768D01*
X013262Y010829D02*
X012867Y010829D01*
X013002Y010891D02*
X014336Y010891D01*
X014336Y010881D02*
X014374Y010789D01*
X014444Y010719D01*
X014536Y010681D01*
X014635Y010681D01*
X014727Y010719D01*
X014797Y010789D01*
X014835Y010881D01*
X014835Y010980D01*
X014797Y011072D01*
X014727Y011142D01*
X014635Y011180D01*
X014536Y011180D01*
X014444Y011142D01*
X014374Y011072D01*
X014336Y010980D01*
X014336Y010881D01*
X014358Y010829D02*
X013422Y010829D01*
X013519Y010768D02*
X014396Y010768D01*
X014476Y010706D02*
X013565Y010706D01*
X013590Y010645D02*
X015391Y010645D01*
X015391Y010706D02*
X014696Y010706D01*
X014776Y010768D02*
X015391Y010768D01*
X015391Y010829D02*
X014814Y010829D01*
X014835Y010891D02*
X015391Y010891D01*
X015391Y010952D02*
X014835Y010952D01*
X014822Y011014D02*
X015391Y011014D01*
X015391Y011075D02*
X014794Y011075D01*
X014733Y011137D02*
X015391Y011137D01*
X015391Y011198D02*
X013129Y011198D01*
X013142Y011137D02*
X014439Y011137D01*
X014377Y011075D02*
X013142Y011075D01*
X013121Y011014D02*
X014350Y011014D01*
X014336Y010952D02*
X013082Y010952D01*
X013102Y011260D02*
X015391Y011260D01*
X015391Y011321D02*
X013041Y011321D01*
X013155Y011383D02*
X007111Y011383D01*
X007027Y011321D02*
X012745Y011321D01*
X013091Y011447D02*
X013053Y011539D01*
X013053Y011638D01*
X013091Y011730D01*
X013161Y011800D01*
X013253Y011838D01*
X013352Y011838D01*
X013444Y011800D01*
X013514Y011730D01*
X013552Y011638D01*
X013552Y011539D01*
X013514Y011447D01*
X013444Y011377D01*
X013352Y011339D01*
X013253Y011339D01*
X013161Y011377D01*
X013091Y011447D01*
X013093Y011444D02*
X010023Y011444D01*
X010084Y011506D02*
X010973Y011506D01*
X010976Y011503D02*
X011068Y011465D01*
X011167Y011465D01*
X011259Y011503D01*
X011329Y011573D01*
X011367Y011665D01*
X011367Y011752D01*
X011407Y011752D01*
X011499Y011790D01*
X011569Y011860D01*
X011607Y011952D01*
X011607Y011988D01*
X011643Y011988D01*
X011735Y012026D01*
X011805Y012096D01*
X011843Y012188D01*
X011843Y012287D01*
X011880Y012287D01*
X011971Y012325D01*
X012041Y012396D01*
X012079Y012487D01*
X012079Y012524D01*
X012116Y012524D01*
X012207Y012562D01*
X012278Y012632D01*
X012316Y012724D01*
X012316Y012823D01*
X012278Y012915D01*
X012207Y012985D01*
X012116Y013023D01*
X012016Y013023D01*
X011925Y012985D01*
X011854Y012915D01*
X011816Y012823D01*
X011816Y012787D01*
X011780Y012787D01*
X011688Y012749D01*
X011618Y012678D01*
X011580Y012587D01*
X011580Y012487D01*
X011544Y012487D01*
X011452Y012449D01*
X011382Y012379D01*
X011344Y012287D01*
X011344Y012251D01*
X011308Y012251D01*
X011216Y012213D01*
X011146Y012143D01*
X011108Y012051D01*
X011108Y011964D01*
X011068Y011964D01*
X010976Y011926D01*
X010906Y011856D01*
X010868Y011764D01*
X010868Y011665D01*
X010906Y011573D01*
X010976Y011503D01*
X010911Y011567D02*
X010110Y011567D01*
X010123Y011629D02*
X010883Y011629D01*
X010868Y011690D02*
X010336Y011690D01*
X010392Y011751D02*
X010868Y011751D01*
X010888Y011813D02*
X010417Y011813D01*
X010426Y011874D02*
X010925Y011874D01*
X011000Y011936D02*
X010425Y011936D01*
X010399Y011997D02*
X011108Y011997D01*
X011111Y012059D02*
X010354Y012059D01*
X010256Y012120D02*
X011136Y012120D01*
X011185Y012182D02*
X001585Y012182D01*
X001589Y012184D02*
X001660Y012254D01*
X001698Y012346D01*
X001698Y012445D01*
X001660Y012537D01*
X001589Y012607D01*
X001498Y012645D01*
X001398Y012645D01*
X001307Y012607D01*
X001236Y012537D01*
X001198Y012445D01*
X001198Y012346D01*
X001236Y012254D01*
X001307Y012184D01*
X001398Y012146D01*
X001498Y012146D01*
X001589Y012184D01*
X001649Y012243D02*
X011289Y012243D01*
X011351Y012305D02*
X005014Y012305D01*
X004999Y012290D02*
X005069Y012360D01*
X005107Y012452D01*
X005107Y012551D01*
X007332Y012551D01*
X007332Y012542D02*
X007370Y012451D01*
X007440Y012381D01*
X007532Y012343D01*
X007631Y012343D01*
X007723Y012381D01*
X007793Y012451D01*
X007831Y012542D01*
X007831Y012642D01*
X007793Y012734D01*
X007723Y012804D01*
X007631Y012842D01*
X007532Y012842D01*
X007440Y012804D01*
X007370Y012734D01*
X007332Y012642D01*
X007332Y012542D01*
X007354Y012489D02*
X005107Y012489D01*
X005097Y012428D02*
X007393Y012428D01*
X007474Y012366D02*
X005072Y012366D01*
X004999Y012290D02*
X004907Y012252D01*
X004808Y012252D01*
X004716Y012290D01*
X004646Y012360D01*
X004608Y012452D01*
X004608Y012551D01*
X001645Y012551D01*
X001679Y012489D02*
X004608Y012489D01*
X004618Y012428D02*
X001698Y012428D01*
X001698Y012366D02*
X004643Y012366D01*
X004701Y012305D02*
X001681Y012305D01*
X001576Y012612D02*
X004633Y012612D01*
X004646Y012643D02*
X004608Y012551D01*
X004646Y012643D02*
X004716Y012713D01*
X004808Y012751D01*
X004907Y012751D01*
X004999Y012713D01*
X005069Y012643D01*
X005107Y012551D01*
X005082Y012612D02*
X007332Y012612D01*
X007346Y012674D02*
X005038Y012674D01*
X004945Y012735D02*
X007372Y012735D01*
X007434Y012797D02*
X002536Y012797D01*
X002530Y012781D02*
X002568Y012873D01*
X002568Y012972D01*
X002530Y013064D01*
X002459Y013134D01*
X002368Y013172D01*
X002268Y013172D01*
X002177Y013134D01*
X002106Y013064D01*
X002068Y012972D01*
X002068Y012873D01*
X002106Y012781D01*
X002177Y012711D01*
X002268Y012673D01*
X002368Y012673D01*
X002459Y012711D01*
X002530Y012781D01*
X002484Y012735D02*
X004770Y012735D01*
X004677Y012674D02*
X002369Y012674D01*
X002267Y012674D02*
X001087Y012674D01*
X001087Y012735D02*
X002153Y012735D01*
X002100Y012797D02*
X001087Y012797D01*
X001087Y012858D02*
X002075Y012858D01*
X002068Y012920D02*
X001087Y012920D01*
X001087Y012981D02*
X002072Y012981D01*
X002098Y013043D02*
X001087Y013043D01*
X001087Y013104D02*
X002147Y013104D01*
X002252Y013166D02*
X001087Y013166D01*
X001087Y013227D02*
X007771Y013227D01*
X007783Y013215D02*
X007875Y013177D01*
X007974Y013177D01*
X008066Y013215D01*
X008136Y013285D01*
X008174Y013377D01*
X008174Y013476D01*
X008136Y013568D01*
X008066Y013638D01*
X007974Y013676D01*
X007875Y013676D01*
X007783Y013638D01*
X007713Y013568D01*
X007675Y013476D01*
X007675Y013377D01*
X007713Y013285D01*
X007783Y013215D01*
X007711Y013289D02*
X001087Y013289D01*
X001087Y013350D02*
X007686Y013350D01*
X007675Y013412D02*
X007317Y013412D01*
X007310Y013404D02*
X007380Y013474D01*
X007418Y013566D01*
X007418Y013665D01*
X007380Y013757D01*
X007310Y013827D01*
X007218Y013865D01*
X007119Y013865D01*
X007027Y013827D01*
X006957Y013757D01*
X006956Y013754D01*
X006943Y013785D01*
X006873Y013855D01*
X006781Y013893D01*
X006682Y013893D01*
X006590Y013855D01*
X006554Y013819D01*
X006503Y013871D01*
X006411Y013909D01*
X006312Y013909D01*
X006220Y013871D01*
X006150Y013800D01*
X006112Y013709D01*
X006112Y013609D01*
X006150Y013518D01*
X006220Y013447D01*
X006312Y013409D01*
X006411Y013409D01*
X006503Y013447D01*
X006539Y013483D01*
X006590Y013432D01*
X006682Y013394D01*
X006781Y013394D01*
X006873Y013432D01*
X006943Y013502D01*
X006944Y013505D01*
X006957Y013474D01*
X007027Y013404D01*
X007119Y013366D01*
X007218Y013366D01*
X007310Y013404D01*
X007379Y013473D02*
X007675Y013473D01*
X007699Y013535D02*
X007405Y013535D01*
X007418Y013596D02*
X007741Y013596D01*
X007830Y013658D02*
X007418Y013658D01*
X007396Y013719D02*
X013155Y013719D01*
X013155Y013728D02*
X013155Y013629D01*
X013193Y013537D01*
X013263Y013467D01*
X013355Y013429D01*
X013454Y013429D01*
X013546Y013467D01*
X013616Y013537D01*
X013654Y013629D01*
X013654Y013728D01*
X013616Y013820D01*
X013546Y013890D01*
X013454Y013928D01*
X013355Y013928D01*
X013263Y013890D01*
X013193Y013820D01*
X013155Y013728D01*
X013177Y013781D02*
X007356Y013781D01*
X007274Y013842D02*
X013215Y013842D01*
X013296Y013904D02*
X006423Y013904D01*
X006300Y013904D02*
X002457Y013904D01*
X002482Y013965D02*
X013996Y013965D01*
X013990Y014027D02*
X002488Y014027D01*
X002488Y014088D02*
X013990Y014088D01*
X013990Y014150D02*
X002488Y014150D01*
X002488Y014211D02*
X013990Y014211D01*
X013990Y014273D02*
X002488Y014273D01*
X002464Y014334D02*
X014015Y014334D01*
X014040Y014396D02*
X002438Y014396D01*
X002413Y014457D02*
X014066Y014457D01*
X014091Y014519D02*
X002388Y014519D01*
X002344Y014580D02*
X014135Y014580D01*
X014196Y014642D02*
X002283Y014642D01*
X002221Y014703D02*
X014258Y014703D01*
X014327Y014765D02*
X002152Y014765D01*
X002431Y013842D02*
X006192Y013842D01*
X006142Y013781D02*
X002406Y013781D01*
X002380Y013719D02*
X006116Y013719D01*
X006112Y013658D02*
X002327Y013658D01*
X002265Y013596D02*
X006117Y013596D01*
X006143Y013535D02*
X002204Y013535D01*
X002110Y013473D02*
X006194Y013473D01*
X006306Y013412D02*
X001962Y013412D01*
X002384Y013166D02*
X014342Y013166D01*
X014272Y013096D01*
X014234Y013004D01*
X014234Y012905D01*
X014272Y012813D01*
X014342Y012743D01*
X014434Y012705D01*
X014533Y012705D01*
X014625Y012743D01*
X014695Y012813D01*
X014733Y012905D01*
X014733Y013004D01*
X014695Y013096D01*
X014625Y013166D01*
X015391Y013166D01*
X015391Y013227D02*
X008078Y013227D01*
X008137Y013289D02*
X015391Y013289D01*
X015391Y013350D02*
X008163Y013350D01*
X008174Y013412D02*
X014517Y013412D01*
X014368Y013473D02*
X013552Y013473D01*
X013614Y013535D02*
X014275Y013535D01*
X014213Y013596D02*
X013641Y013596D01*
X013654Y013658D02*
X014152Y013658D01*
X014098Y013719D02*
X013654Y013719D01*
X013633Y013781D02*
X014073Y013781D01*
X014047Y013842D02*
X013594Y013842D01*
X013514Y013904D02*
X014022Y013904D01*
X014342Y013166D02*
X014434Y013204D01*
X014533Y013204D01*
X014625Y013166D01*
X014686Y013104D02*
X015391Y013104D01*
X015391Y013043D02*
X014717Y013043D01*
X014733Y012981D02*
X015391Y012981D01*
X015391Y012920D02*
X014733Y012920D01*
X014714Y012858D02*
X015391Y012858D01*
X015391Y012797D02*
X014679Y012797D01*
X014607Y012735D02*
X015391Y012735D01*
X015391Y012674D02*
X014127Y012674D01*
X014108Y012628D02*
X014146Y012720D01*
X014146Y012819D01*
X014108Y012911D01*
X014038Y012981D01*
X013946Y013019D01*
X013847Y013019D01*
X013755Y012981D01*
X013685Y012911D01*
X013647Y012819D01*
X013647Y012720D01*
X013685Y012628D01*
X013755Y012558D01*
X013847Y012520D01*
X013946Y012520D01*
X014038Y012558D01*
X014108Y012628D01*
X014093Y012612D02*
X015391Y012612D01*
X015391Y012551D02*
X014022Y012551D01*
X014146Y012735D02*
X014360Y012735D01*
X014288Y012797D02*
X014146Y012797D01*
X014130Y012858D02*
X014253Y012858D01*
X014234Y012920D02*
X014099Y012920D01*
X014037Y012981D02*
X014234Y012981D01*
X014250Y013043D02*
X010547Y013043D01*
X010554Y013040D02*
X010462Y013078D01*
X010363Y013078D01*
X010271Y013040D01*
X010201Y012970D01*
X010163Y012878D01*
X010163Y012779D01*
X010201Y012687D01*
X010271Y012617D01*
X010363Y012579D01*
X010462Y012579D01*
X010554Y012617D01*
X010624Y012687D01*
X010662Y012779D01*
X010662Y012878D01*
X010624Y012970D01*
X010554Y013040D01*
X010613Y012981D02*
X011921Y012981D01*
X011860Y012920D02*
X010645Y012920D01*
X010662Y012858D02*
X011831Y012858D01*
X011816Y012797D02*
X010662Y012797D01*
X010644Y012735D02*
X011675Y012735D01*
X011616Y012674D02*
X010611Y012674D01*
X010543Y012612D02*
X011591Y012612D01*
X011580Y012551D02*
X008619Y012551D01*
X008619Y012542D02*
X008581Y012451D01*
X008511Y012381D01*
X008419Y012343D01*
X008320Y012343D01*
X008228Y012381D01*
X008158Y012451D01*
X008120Y012542D01*
X008120Y012642D01*
X008158Y012734D01*
X008228Y012804D01*
X008320Y012842D01*
X008419Y012842D01*
X008511Y012804D01*
X008581Y012734D01*
X008619Y012642D01*
X008619Y012542D01*
X008597Y012489D02*
X011580Y012489D01*
X011431Y012428D02*
X008558Y012428D01*
X008477Y012366D02*
X011377Y012366D01*
X011666Y011997D02*
X015391Y011997D01*
X015391Y011936D02*
X011600Y011936D01*
X011575Y011874D02*
X015391Y011874D01*
X015391Y011813D02*
X013412Y011813D01*
X013492Y011751D02*
X015391Y011751D01*
X015391Y011690D02*
X013530Y011690D01*
X013552Y011629D02*
X015391Y011629D01*
X015391Y011567D02*
X013552Y011567D01*
X013538Y011506D02*
X015391Y011506D01*
X015391Y011444D02*
X013511Y011444D01*
X013450Y011383D02*
X015391Y011383D01*
X015391Y012059D02*
X011768Y012059D01*
X011815Y012120D02*
X015391Y012120D01*
X015391Y012182D02*
X011841Y012182D01*
X011843Y012243D02*
X015391Y012243D01*
X015391Y012305D02*
X011922Y012305D01*
X012012Y012366D02*
X015391Y012366D01*
X015391Y012428D02*
X013301Y012428D01*
X013330Y012440D02*
X013400Y012510D01*
X013438Y012602D01*
X013438Y012701D01*
X013400Y012793D01*
X013330Y012863D01*
X013238Y012901D01*
X013138Y012901D01*
X013047Y012863D01*
X012977Y012793D01*
X012939Y012701D01*
X012939Y012602D01*
X012977Y012510D01*
X013047Y012440D01*
X013138Y012402D01*
X013238Y012402D01*
X013330Y012440D01*
X013379Y012489D02*
X015391Y012489D01*
X015391Y013412D02*
X014954Y013412D01*
X015102Y013473D02*
X015391Y013473D01*
X015391Y013535D02*
X015196Y013535D01*
X015257Y013596D02*
X015391Y013596D01*
X015391Y013658D02*
X015319Y013658D01*
X015372Y013719D02*
X015391Y013719D01*
X014280Y013104D02*
X002490Y013104D01*
X002539Y013043D02*
X010278Y013043D01*
X010213Y012981D02*
X002564Y012981D01*
X002568Y012920D02*
X010180Y012920D01*
X010163Y012858D02*
X002562Y012858D01*
X001525Y013412D02*
X001087Y013412D01*
X001087Y013473D02*
X001376Y013473D01*
X001283Y013535D02*
X001087Y013535D01*
X001087Y013596D02*
X001221Y013596D01*
X001160Y013658D02*
X001087Y013658D01*
X001087Y013719D02*
X001106Y013719D01*
X001087Y012612D02*
X001320Y012612D01*
X001251Y012551D02*
X001087Y012551D01*
X001087Y012489D02*
X001217Y012489D01*
X001198Y012428D02*
X001087Y012428D01*
X001087Y012366D02*
X001198Y012366D01*
X001215Y012305D02*
X001087Y012305D01*
X001087Y012243D02*
X001247Y012243D01*
X001311Y012182D02*
X001087Y012182D01*
X001087Y012120D02*
X004025Y012120D01*
X003969Y012059D02*
X001087Y012059D01*
X001087Y011997D02*
X003943Y011997D01*
X003935Y011936D02*
X001087Y011936D01*
X001087Y011874D02*
X003936Y011874D01*
X003961Y011813D02*
X001952Y011813D01*
X002016Y011751D02*
X004006Y011751D01*
X004400Y012059D02*
X009999Y012059D01*
X009953Y011997D02*
X004425Y011997D01*
X004434Y011936D02*
X009928Y011936D01*
X009769Y011874D02*
X004433Y011874D01*
X004344Y012120D02*
X010096Y012120D01*
X010282Y012612D02*
X008619Y012612D01*
X008606Y012674D02*
X010214Y012674D01*
X010181Y012735D02*
X008579Y012735D01*
X008517Y012797D02*
X010163Y012797D01*
X011367Y011751D02*
X013113Y011751D01*
X013074Y011690D02*
X011367Y011690D01*
X011352Y011629D02*
X013053Y011629D01*
X013053Y011567D02*
X011323Y011567D01*
X011262Y011506D02*
X013066Y011506D01*
X013193Y011813D02*
X011522Y011813D01*
X012055Y012428D02*
X013075Y012428D01*
X012997Y012489D02*
X012079Y012489D01*
X012182Y012551D02*
X012959Y012551D01*
X012939Y012612D02*
X012258Y012612D01*
X012295Y012674D02*
X012939Y012674D01*
X012953Y012735D02*
X012316Y012735D01*
X012316Y012797D02*
X012981Y012797D01*
X013042Y012858D02*
X012301Y012858D01*
X012272Y012920D02*
X013694Y012920D01*
X013663Y012858D02*
X013334Y012858D01*
X013395Y012797D02*
X013647Y012797D01*
X013647Y012735D02*
X013423Y012735D01*
X013438Y012674D02*
X013666Y012674D01*
X013701Y012612D02*
X013438Y012612D01*
X013417Y012551D02*
X013772Y012551D01*
X013756Y012981D02*
X012211Y012981D01*
X012775Y012651D02*
X012834Y012592D01*
X013257Y013473D02*
X008174Y013473D01*
X008150Y013535D02*
X013196Y013535D01*
X013169Y013596D02*
X008108Y013596D01*
X008019Y013658D02*
X013155Y013658D01*
X013591Y010583D02*
X015391Y010583D01*
X015391Y010522D02*
X013583Y010522D01*
X013557Y010460D02*
X015391Y010460D01*
X015391Y010399D02*
X013501Y010399D01*
X012825Y009784D02*
X007371Y009784D01*
X007376Y009789D02*
X007410Y009871D01*
X007433Y009849D01*
X007524Y009811D01*
X007624Y009811D01*
X007715Y009849D01*
X007773Y009907D02*
X015391Y009907D01*
X015391Y009968D02*
X007806Y009968D01*
X007824Y010030D02*
X015391Y010030D01*
X015391Y010091D02*
X010071Y010091D01*
X010085Y010097D02*
X010156Y010167D01*
X010194Y010259D01*
X010194Y010358D01*
X010156Y010450D01*
X010085Y010520D01*
X009994Y010558D01*
X009894Y010558D01*
X009803Y010520D01*
X009732Y010450D01*
X009694Y010358D01*
X009694Y010259D01*
X009732Y010167D01*
X009803Y010097D01*
X009894Y010059D01*
X009994Y010059D01*
X010085Y010097D01*
X010141Y010153D02*
X015391Y010153D01*
X015391Y010214D02*
X010175Y010214D01*
X010194Y010276D02*
X015391Y010276D01*
X015391Y010337D02*
X010194Y010337D01*
X010177Y010399D02*
X010351Y010399D01*
X010243Y010460D02*
X010146Y010460D01*
X010193Y010522D02*
X010082Y010522D01*
X010038Y010583D02*
X006999Y010583D01*
X006912Y010645D02*
X009940Y010645D01*
X009894Y010706D02*
X006687Y010706D01*
X006582Y010768D02*
X009725Y010768D01*
X009806Y010522D02*
X007196Y010522D01*
X007287Y010460D02*
X009743Y010460D01*
X009711Y010399D02*
X007330Y010399D01*
X007355Y010337D02*
X009694Y010337D01*
X009694Y010276D02*
X007707Y010276D01*
X007773Y010214D02*
X009713Y010214D01*
X009747Y010153D02*
X007806Y010153D01*
X007824Y010091D02*
X009817Y010091D01*
X009890Y009712D02*
X009799Y009674D01*
X009728Y009604D01*
X009690Y009512D01*
X009690Y009413D01*
X009728Y009321D01*
X009799Y009251D01*
X009890Y009213D01*
X009990Y009213D01*
X010081Y009251D01*
X010152Y009321D01*
X010190Y009413D01*
X010190Y009512D01*
X010152Y009604D01*
X010081Y009674D01*
X009990Y009712D01*
X009890Y009712D01*
X009786Y009661D02*
X001087Y009661D01*
X001087Y009722D02*
X005360Y009722D01*
X005358Y009723D02*
X005449Y009685D01*
X005549Y009685D01*
X005641Y009723D01*
X005711Y009793D01*
X005749Y009885D01*
X005749Y009984D01*
X005711Y010076D01*
X005641Y010146D01*
X005549Y010184D01*
X005449Y010184D01*
X005358Y010146D01*
X005288Y010076D01*
X005250Y009984D01*
X005250Y009885D01*
X005288Y009793D01*
X005358Y009723D01*
X005297Y009784D02*
X001087Y009784D01*
X001087Y009845D02*
X005266Y009845D01*
X005250Y009907D02*
X004466Y009907D01*
X004527Y009968D02*
X005250Y009968D01*
X005268Y010030D02*
X004554Y010030D01*
X004568Y010091D02*
X005303Y010091D01*
X005373Y010153D02*
X004568Y010153D01*
X004546Y010214D02*
X006662Y010214D01*
X006673Y010203D02*
X006764Y010165D01*
X006864Y010165D01*
X006883Y010173D01*
X006894Y010148D01*
X006961Y010080D01*
X006953Y010072D01*
X006915Y009980D01*
X006915Y009881D01*
X006953Y009789D01*
X007023Y009719D01*
X007115Y009681D01*
X007214Y009681D01*
X007306Y009719D01*
X007376Y009789D01*
X007399Y009845D02*
X007442Y009845D01*
X007309Y009722D02*
X012725Y009722D01*
X012679Y009661D02*
X010095Y009661D01*
X010153Y009599D02*
X012653Y009599D01*
X012651Y009538D02*
X010179Y009538D01*
X010190Y009476D02*
X012659Y009476D01*
X012684Y009415D02*
X012297Y009415D01*
X012189Y009415D02*
X010190Y009415D01*
X010165Y009353D02*
X012077Y009353D01*
X012025Y009292D02*
X010123Y009292D01*
X010032Y009230D02*
X011999Y009230D01*
X011994Y009169D02*
X009138Y009169D01*
X009162Y009107D02*
X011998Y009107D01*
X012023Y009046D02*
X009162Y009046D01*
X009151Y008984D02*
X012073Y008984D01*
X012414Y008984D02*
X013699Y008984D01*
X013654Y009046D02*
X012463Y009046D01*
X012489Y009107D02*
X013628Y009107D01*
X013627Y009169D02*
X012493Y009169D01*
X012487Y009230D02*
X013636Y009230D01*
X013662Y009292D02*
X012462Y009292D01*
X012410Y009353D02*
X012739Y009353D01*
X013129Y009108D02*
X013188Y009167D01*
X013424Y009639D02*
X013424Y009698D01*
X015391Y008738D02*
X007589Y008738D01*
X007583Y008677D02*
X006978Y008677D01*
X006989Y008704D02*
X006951Y008612D01*
X006881Y008542D01*
X006789Y008504D01*
X006690Y008504D01*
X006598Y008542D01*
X006528Y008612D01*
X006490Y008704D01*
X006490Y008803D01*
X006528Y008895D01*
X006598Y008965D01*
X006690Y009003D01*
X006789Y009003D01*
X006881Y008965D01*
X006951Y008895D01*
X006989Y008803D01*
X006989Y008704D01*
X006989Y008738D02*
X007283Y008738D01*
X007223Y008800D02*
X006989Y008800D01*
X006965Y008861D02*
X007198Y008861D01*
X007187Y008923D02*
X006923Y008923D01*
X006834Y008984D02*
X007187Y008984D01*
X007210Y009046D02*
X003554Y009046D01*
X003574Y009054D02*
X003644Y009124D01*
X003682Y009216D01*
X003682Y009315D01*
X003644Y009407D01*
X003574Y009477D01*
X003482Y009515D01*
X003383Y009515D01*
X003291Y009477D01*
X003221Y009407D01*
X003183Y009315D01*
X003183Y009216D01*
X003221Y009124D01*
X003291Y009054D01*
X003383Y009016D01*
X003482Y009016D01*
X003574Y009054D01*
X003627Y009107D02*
X004887Y009107D01*
X004918Y009094D02*
X004826Y009132D01*
X004756Y009203D01*
X004718Y009294D01*
X004718Y009394D01*
X004756Y009485D01*
X004826Y009556D01*
X004918Y009594D01*
X005017Y009594D01*
X005109Y009556D01*
X005179Y009485D01*
X005217Y009394D01*
X005217Y009294D01*
X005179Y009203D01*
X005109Y009132D01*
X005017Y009094D01*
X004918Y009094D01*
X005048Y009107D02*
X006009Y009107D01*
X006040Y009094D02*
X005948Y009132D01*
X005878Y009203D01*
X005840Y009294D01*
X005840Y009394D01*
X005878Y009485D01*
X005948Y009556D01*
X006040Y009594D01*
X006139Y009594D01*
X006231Y009556D01*
X006301Y009485D01*
X006339Y009394D01*
X006339Y009294D01*
X006301Y009203D01*
X006231Y009132D01*
X006139Y009094D01*
X006040Y009094D01*
X006170Y009107D02*
X007252Y009107D01*
X007340Y009169D02*
X006267Y009169D01*
X006313Y009230D02*
X008135Y009230D01*
X008130Y009226D02*
X008092Y009134D01*
X008092Y009035D01*
X008130Y008943D01*
X008200Y008873D01*
X008292Y008835D01*
X008391Y008835D01*
X008483Y008873D01*
X008553Y008943D01*
X008591Y009035D01*
X008591Y009134D01*
X008553Y009226D01*
X008483Y009296D01*
X008391Y009334D01*
X008292Y009334D01*
X008200Y009296D01*
X008130Y009226D01*
X008107Y009169D02*
X007533Y009169D01*
X007620Y009107D02*
X008092Y009107D01*
X008092Y009046D02*
X007662Y009046D01*
X007686Y008984D02*
X008113Y008984D01*
X008150Y008923D02*
X007686Y008923D01*
X007674Y008861D02*
X008228Y008861D01*
X008456Y008861D02*
X008759Y008861D01*
X008699Y008923D02*
X008533Y008923D01*
X008570Y008984D02*
X008674Y008984D01*
X008663Y009046D02*
X008591Y009046D01*
X008591Y009107D02*
X008663Y009107D01*
X008687Y009169D02*
X008577Y009169D01*
X008549Y009230D02*
X008729Y009230D01*
X008818Y009292D02*
X008487Y009292D01*
X008196Y009292D02*
X006338Y009292D01*
X006339Y009353D02*
X009715Y009353D01*
X009690Y009415D02*
X006331Y009415D01*
X006305Y009476D02*
X009690Y009476D01*
X009701Y009538D02*
X006249Y009538D01*
X005930Y009538D02*
X005127Y009538D01*
X005183Y009476D02*
X005874Y009476D01*
X005849Y009415D02*
X005209Y009415D01*
X005217Y009353D02*
X005840Y009353D01*
X005841Y009292D02*
X005216Y009292D01*
X005191Y009230D02*
X005867Y009230D01*
X005912Y009169D02*
X005145Y009169D01*
X005374Y008923D02*
X004561Y008923D01*
X004589Y008895D02*
X004518Y008965D01*
X004427Y009003D01*
X004327Y009003D01*
X004236Y008965D01*
X004165Y008895D01*
X004127Y008803D01*
X004127Y008704D01*
X004165Y008612D01*
X004236Y008542D01*
X004327Y008504D01*
X004427Y008504D01*
X004518Y008542D01*
X004589Y008612D01*
X004627Y008704D01*
X004627Y008803D01*
X004589Y008895D01*
X004603Y008861D02*
X005333Y008861D01*
X005347Y008895D02*
X005309Y008803D01*
X005309Y008704D01*
X005347Y008612D01*
X005417Y008542D01*
X005509Y008504D01*
X005608Y008504D01*
X005700Y008542D01*
X005770Y008612D01*
X005808Y008704D01*
X005808Y008803D01*
X005770Y008895D01*
X005700Y008965D01*
X005608Y009003D01*
X005509Y009003D01*
X005417Y008965D01*
X005347Y008895D01*
X005309Y008800D02*
X004627Y008800D01*
X004627Y008738D02*
X005309Y008738D01*
X005320Y008677D02*
X004616Y008677D01*
X004590Y008615D02*
X005345Y008615D01*
X005405Y008554D02*
X004530Y008554D01*
X004224Y008554D02*
X003639Y008554D01*
X003639Y008563D02*
X003601Y008655D01*
X003530Y008725D01*
X003439Y008763D01*
X003339Y008763D01*
X003248Y008725D01*
X003177Y008655D01*
X003139Y008563D01*
X003139Y008464D01*
X003177Y008372D01*
X003248Y008302D01*
X003339Y008264D01*
X003439Y008264D01*
X003530Y008302D01*
X003601Y008372D01*
X003639Y008464D01*
X003639Y008563D01*
X003617Y008615D02*
X004164Y008615D01*
X004139Y008677D02*
X003578Y008677D01*
X003498Y008738D02*
X004127Y008738D01*
X004127Y008800D02*
X001087Y008800D01*
X001087Y008861D02*
X004152Y008861D01*
X004193Y008923D02*
X001087Y008923D01*
X001087Y008984D02*
X004282Y008984D01*
X004472Y008984D02*
X005463Y008984D01*
X005653Y008984D02*
X006644Y008984D01*
X006556Y008923D02*
X005742Y008923D01*
X005784Y008861D02*
X006514Y008861D01*
X006490Y008800D02*
X005808Y008800D01*
X005808Y008738D02*
X006490Y008738D01*
X006501Y008677D02*
X005797Y008677D01*
X005771Y008615D02*
X006526Y008615D01*
X006586Y008554D02*
X005712Y008554D01*
X005941Y008308D02*
X005176Y008308D01*
X005179Y008304D02*
X005109Y008375D01*
X005017Y008413D01*
X004918Y008413D01*
X004826Y008375D01*
X004756Y008304D01*
X004718Y008213D01*
X004718Y008113D01*
X004756Y008022D01*
X004826Y007951D01*
X004918Y007913D01*
X005017Y007913D01*
X005109Y007951D01*
X005179Y008022D01*
X005217Y008113D01*
X005217Y008213D01*
X005179Y008304D01*
X005203Y008246D02*
X005913Y008246D01*
X005899Y008185D02*
X005217Y008185D01*
X005217Y008123D02*
X005899Y008123D01*
X005920Y008062D02*
X005196Y008062D01*
X005158Y008000D02*
X005958Y008000D01*
X006037Y007939D02*
X005079Y007939D01*
X004856Y007939D02*
X001087Y007939D01*
X001087Y008000D02*
X004777Y008000D01*
X004739Y008062D02*
X001087Y008062D01*
X001087Y008123D02*
X004718Y008123D01*
X004718Y008185D02*
X001087Y008185D01*
X001087Y008246D02*
X004732Y008246D01*
X004760Y008308D02*
X003536Y008308D01*
X003598Y008369D02*
X004821Y008369D01*
X005114Y008369D02*
X006002Y008369D01*
X006295Y008369D02*
X007474Y008369D01*
X007458Y008431D02*
X003625Y008431D01*
X003639Y008492D02*
X007458Y008492D01*
X007477Y008554D02*
X006893Y008554D01*
X006952Y008615D02*
X007512Y008615D01*
X007505Y008308D02*
X006357Y008308D01*
X006384Y008246D02*
X007567Y008246D01*
X007849Y008246D02*
X011273Y008246D01*
X011228Y008185D02*
X006398Y008185D01*
X005387Y007754D02*
X001416Y007754D01*
X001415Y007755D02*
X001316Y007755D01*
X001224Y007717D01*
X001154Y007647D01*
X001116Y007555D01*
X001116Y007456D01*
X001154Y007364D01*
X001224Y007294D01*
X001233Y007290D01*
X001228Y007288D01*
X001158Y007218D01*
X001120Y007126D01*
X001120Y007027D01*
X001158Y006935D01*
X001228Y006865D01*
X001320Y006827D01*
X001419Y006827D01*
X001511Y006865D01*
X001581Y006935D01*
X001619Y007027D01*
X001619Y007126D01*
X001581Y007218D01*
X001511Y007288D01*
X001501Y007292D01*
X001507Y007294D01*
X001577Y007364D01*
X001615Y007456D01*
X001615Y007555D01*
X001577Y007647D01*
X001507Y007717D01*
X001415Y007755D01*
X001314Y007754D02*
X001087Y007754D01*
X001087Y007693D02*
X001200Y007693D01*
X001147Y007631D02*
X001087Y007631D01*
X001087Y007570D02*
X001122Y007570D01*
X001116Y007509D02*
X001087Y007509D01*
X001087Y007447D02*
X001119Y007447D01*
X001145Y007386D02*
X001087Y007386D01*
X001087Y007324D02*
X001194Y007324D01*
X001202Y007263D02*
X001087Y007263D01*
X001087Y007201D02*
X001151Y007201D01*
X001125Y007140D02*
X001087Y007140D01*
X001087Y007078D02*
X001120Y007078D01*
X001124Y007017D02*
X001087Y007017D01*
X001087Y006955D02*
X001149Y006955D01*
X001199Y006894D02*
X001087Y006894D01*
X001087Y006832D02*
X001307Y006832D01*
X001432Y006832D02*
X005591Y006832D01*
X005558Y006771D02*
X005489Y006771D01*
X005657Y006894D02*
X001539Y006894D01*
X001589Y006955D02*
X006753Y006955D01*
X006704Y006894D02*
X005924Y006894D01*
X005990Y006832D02*
X006679Y006832D01*
X006675Y006771D02*
X006023Y006771D01*
X006040Y006709D02*
X006681Y006709D01*
X006860Y007017D02*
X004225Y007017D01*
X004194Y007004D02*
X004286Y007042D01*
X004356Y007112D01*
X004394Y007204D01*
X004394Y007303D01*
X004356Y007395D01*
X004286Y007465D01*
X004194Y007503D01*
X004095Y007503D01*
X004003Y007465D01*
X003933Y007395D01*
X003895Y007303D01*
X003895Y007204D01*
X003933Y007112D01*
X004003Y007042D01*
X004095Y007004D01*
X004194Y007004D01*
X004065Y007017D02*
X001615Y007017D01*
X001619Y007078D02*
X003967Y007078D01*
X003922Y007140D02*
X001613Y007140D01*
X001588Y007201D02*
X003896Y007201D01*
X003895Y007263D02*
X001536Y007263D01*
X001537Y007324D02*
X003904Y007324D01*
X003929Y007386D02*
X001586Y007386D01*
X001611Y007447D02*
X003985Y007447D01*
X004304Y007447D02*
X005340Y007447D01*
X005315Y007509D02*
X001615Y007509D01*
X001609Y007570D02*
X005309Y007570D01*
X005312Y007631D02*
X001583Y007631D01*
X001531Y007693D02*
X005338Y007693D01*
X005392Y007386D02*
X004360Y007386D01*
X004386Y007324D02*
X005506Y007324D01*
X005203Y006771D02*
X001087Y006771D01*
X001087Y006709D02*
X005141Y006709D01*
X004368Y007140D02*
X009450Y007140D01*
X009450Y007201D02*
X004393Y007201D01*
X004394Y007263D02*
X009238Y007263D01*
X009351Y007263D02*
X009473Y007263D01*
X009462Y007324D02*
X009512Y007324D01*
X009513Y007386D02*
X009594Y007386D01*
X009463Y007078D02*
X004322Y007078D01*
X003241Y008308D02*
X001087Y008308D01*
X001087Y008369D02*
X003180Y008369D01*
X003153Y008431D02*
X001087Y008431D01*
X001087Y008492D02*
X003139Y008492D01*
X003139Y008554D02*
X001087Y008554D01*
X001087Y008615D02*
X003161Y008615D01*
X003199Y008677D02*
X001087Y008677D01*
X001087Y008738D02*
X003280Y008738D01*
X003310Y009046D02*
X001087Y009046D01*
X001087Y009107D02*
X003237Y009107D01*
X003202Y009169D02*
X001087Y009169D01*
X001087Y009230D02*
X003183Y009230D01*
X003183Y009292D02*
X001087Y009292D01*
X001087Y009353D02*
X003198Y009353D01*
X003229Y009415D02*
X001087Y009415D01*
X001087Y009476D02*
X003290Y009476D01*
X003574Y009476D02*
X004752Y009476D01*
X004727Y009415D02*
X003636Y009415D01*
X003666Y009353D02*
X004718Y009353D01*
X004719Y009292D02*
X003682Y009292D01*
X003682Y009230D02*
X004745Y009230D01*
X004790Y009169D02*
X003662Y009169D01*
X004170Y009907D02*
X001087Y009907D01*
X001087Y009968D02*
X004109Y009968D01*
X004082Y010030D02*
X001087Y010030D01*
X001087Y010091D02*
X004068Y010091D01*
X004068Y010153D02*
X001087Y010153D01*
X001087Y010214D02*
X004090Y010214D01*
X004043Y010276D02*
X001087Y010276D01*
X001087Y010337D02*
X004018Y010337D01*
X004009Y010399D02*
X001087Y010399D01*
X001087Y010460D02*
X004011Y010460D01*
X004036Y010522D02*
X001087Y010522D01*
X001087Y010583D02*
X004082Y010583D01*
X004180Y010645D02*
X001087Y010645D01*
X001087Y010706D02*
X004251Y010706D01*
X004277Y010768D02*
X001087Y010768D01*
X001087Y010829D02*
X004328Y010829D01*
X004440Y010891D02*
X001087Y010891D01*
X001087Y010952D02*
X004811Y010952D01*
X004786Y010891D02*
X004550Y010891D01*
X004662Y010829D02*
X004749Y010829D01*
X004867Y011014D02*
X001087Y011014D01*
X001087Y011075D02*
X005108Y011075D01*
X005167Y011137D02*
X001087Y011137D01*
X001087Y011198D02*
X005430Y011198D01*
X005397Y011260D02*
X001087Y011260D01*
X001087Y011321D02*
X005379Y011321D01*
X005379Y011383D02*
X001941Y011383D01*
X002011Y011444D02*
X005397Y011444D01*
X005430Y011506D02*
X002045Y011506D01*
X002064Y011567D02*
X005496Y011567D01*
X005477Y011137D02*
X005497Y011137D01*
X004643Y010399D02*
X004557Y010399D01*
X004808Y009538D02*
X001087Y009538D01*
X001087Y009599D02*
X009727Y009599D01*
X009758Y009292D02*
X009007Y009292D01*
X009096Y009230D02*
X009848Y009230D01*
X009468Y009285D02*
X009409Y009344D01*
X009350Y009344D01*
X007441Y010276D02*
X007355Y010276D01*
X007345Y010214D02*
X007374Y010214D01*
X007342Y010153D02*
X007319Y010153D01*
X006950Y010091D02*
X005696Y010091D01*
X005730Y010030D02*
X006935Y010030D01*
X006915Y009968D02*
X005749Y009968D01*
X005749Y009907D02*
X006915Y009907D01*
X006930Y009845D02*
X005732Y009845D01*
X005701Y009784D02*
X006958Y009784D01*
X007020Y009722D02*
X005639Y009722D01*
X005625Y010153D02*
X006892Y010153D01*
X006673Y010203D02*
X006602Y010274D01*
X006596Y010289D01*
X006565Y010276D01*
X006602Y010276D01*
X006565Y010276D02*
X006465Y010276D01*
X007689Y012366D02*
X008262Y012366D01*
X008180Y012428D02*
X007771Y012428D01*
X007809Y012489D02*
X008142Y012489D01*
X008120Y012551D02*
X007831Y012551D01*
X007831Y012612D02*
X008120Y012612D01*
X008133Y012674D02*
X007818Y012674D01*
X007792Y012735D02*
X008159Y012735D01*
X008221Y012797D02*
X007730Y012797D01*
X007019Y013412D02*
X006825Y013412D01*
X006914Y013473D02*
X006958Y013473D01*
X006945Y013781D02*
X006980Y013781D01*
X007063Y013842D02*
X006886Y013842D01*
X006577Y013842D02*
X006531Y013842D01*
X006529Y013473D02*
X006548Y013473D01*
X006638Y013412D02*
X006417Y013412D01*
X001676Y011813D02*
X001087Y011813D01*
X001087Y011751D02*
X001613Y011751D01*
X001581Y011690D02*
X001087Y011690D01*
X001087Y011629D02*
X001564Y011629D01*
X001564Y011567D02*
X001087Y011567D01*
X001087Y011506D02*
X001583Y011506D01*
X001617Y011444D02*
X001087Y011444D01*
X001087Y011383D02*
X001687Y011383D01*
X006989Y007017D02*
X009489Y007017D01*
X009551Y006955D02*
X007095Y006955D01*
X007145Y006894D02*
X010140Y006894D01*
X010093Y006955D02*
X009849Y006955D01*
X009910Y007017D02*
X010067Y007017D01*
X010064Y007078D02*
X009937Y007078D01*
X009950Y007140D02*
X010072Y007140D01*
X010097Y007201D02*
X009950Y007201D01*
X009927Y007263D02*
X010151Y007263D01*
X010477Y007263D02*
X010604Y007263D01*
X010545Y007201D02*
X010531Y007201D01*
X010488Y006894D02*
X010577Y006894D01*
X010668Y006832D02*
X010386Y006832D01*
X010242Y006832D02*
X007170Y006832D01*
X005621Y003545D02*
X003629Y003545D01*
X003629Y002663D01*
X001645Y002663D01*
X001645Y001880D01*
X001891Y001880D01*
X002165Y001767D01*
X002375Y001557D01*
X002488Y001284D01*
X002488Y000987D01*
X002375Y000713D01*
X002165Y000504D01*
X002106Y000480D01*
X002542Y000480D01*
X005602Y000525D01*
X005621Y003545D01*
X005621Y003512D02*
X003629Y003512D01*
X003629Y003450D02*
X005621Y003450D01*
X005620Y003389D02*
X003629Y003389D01*
X003629Y003327D02*
X005620Y003327D01*
X005619Y003266D02*
X003629Y003266D01*
X003629Y003204D02*
X005619Y003204D01*
X005619Y003143D02*
X003629Y003143D01*
X003629Y003081D02*
X005618Y003081D01*
X005618Y003020D02*
X003629Y003020D01*
X003629Y002958D02*
X005617Y002958D01*
X005617Y002897D02*
X003629Y002897D01*
X003629Y002835D02*
X005617Y002835D01*
X005616Y002774D02*
X003629Y002774D01*
X003629Y002712D02*
X005616Y002712D01*
X005615Y002651D02*
X001645Y002651D01*
X001645Y002589D02*
X005615Y002589D01*
X005615Y002528D02*
X001645Y002528D01*
X001645Y002466D02*
X005614Y002466D01*
X005614Y002405D02*
X001645Y002405D01*
X001645Y002343D02*
X005613Y002343D01*
X005613Y002282D02*
X001645Y002282D01*
X001645Y002220D02*
X005613Y002220D01*
X005612Y002159D02*
X001645Y002159D01*
X001645Y002097D02*
X005612Y002097D01*
X005611Y002036D02*
X001645Y002036D01*
X001645Y001974D02*
X005611Y001974D01*
X005611Y001913D02*
X001645Y001913D01*
X001962Y001851D02*
X005610Y001851D01*
X005610Y001790D02*
X002110Y001790D01*
X002204Y001728D02*
X005609Y001728D01*
X005609Y001667D02*
X002265Y001667D01*
X002327Y001605D02*
X005609Y001605D01*
X005608Y001544D02*
X002380Y001544D01*
X002406Y001482D02*
X005608Y001482D01*
X005607Y001421D02*
X002431Y001421D01*
X002457Y001359D02*
X005607Y001359D01*
X005607Y001298D02*
X002482Y001298D01*
X002488Y001236D02*
X005606Y001236D01*
X005606Y001175D02*
X002488Y001175D01*
X002488Y001113D02*
X005605Y001113D01*
X005605Y001052D02*
X002488Y001052D01*
X002488Y000990D02*
X005605Y000990D01*
X005604Y000929D02*
X002464Y000929D01*
X002438Y000867D02*
X005604Y000867D01*
X005603Y000806D02*
X002413Y000806D01*
X002387Y000744D02*
X005603Y000744D01*
X005603Y000683D02*
X002344Y000683D01*
X002283Y000621D02*
X005602Y000621D01*
X005602Y000560D02*
X002221Y000560D01*
X002152Y000498D02*
X003805Y000498D01*
X012432Y006982D02*
X012432Y007100D01*
D14*
X001743Y001135D03*
X014735Y001135D03*
X014735Y014128D03*
X001743Y014128D03*
M02*
