G75*
%MOIN*%
%OFA0B0*%
%FSLAX24Y24*%
%IPPOS*%
%LPD*%
%AMOC8*
5,1,8,0,0,1.08239X$1,22.5*
%
%ADD10R,0.0200X0.0400*%
%ADD11R,0.2090X0.2090*%
%ADD12R,0.0631X0.0631*%
%ADD13C,0.0158*%
%ADD14R,0.0493X0.0505*%
%ADD15R,0.0356X0.0434*%
%ADD16R,0.0371X0.0444*%
%ADD17R,0.0505X0.0493*%
%ADD18R,0.0444X0.0371*%
%ADD19R,0.0434X0.0356*%
%ADD20R,0.0289X0.0525*%
%ADD21R,0.1793X0.1537*%
%ADD22R,0.0289X0.0604*%
%ADD23R,0.0474X0.0167*%
%ADD24R,0.0167X0.0474*%
%ADD25R,0.0474X0.0513*%
%ADD26C,0.0142*%
%ADD27R,0.0710X0.0316*%
%ADD28R,0.1143X0.0710*%
%ADD29R,0.0690X0.0316*%
%ADD30R,0.0789X0.0552*%
%ADD31C,0.0907*%
%ADD32R,0.0375X0.0198*%
%ADD33R,0.0615X0.0655*%
%ADD34R,0.0669X0.1024*%
%ADD35R,0.0374X0.0217*%
%ADD36R,0.0867X0.0671*%
%ADD37R,0.0671X0.0867*%
%ADD38R,0.0316X0.0690*%
%ADD39R,0.0552X0.0789*%
%ADD40C,0.1576*%
D10*
G36*
X005271Y006836D02*
X005129Y006978D01*
X005411Y007260D01*
X005553Y007118D01*
X005271Y006836D01*
G37*
G36*
X005136Y006970D02*
X004994Y007112D01*
X005276Y007394D01*
X005418Y007252D01*
X005136Y006970D01*
G37*
G36*
X004995Y007112D02*
X004853Y007254D01*
X005135Y007536D01*
X005277Y007394D01*
X004995Y007112D01*
G37*
G36*
X004853Y007253D02*
X004711Y007395D01*
X004993Y007677D01*
X005135Y007535D01*
X004853Y007253D01*
G37*
G36*
X004719Y007387D02*
X004577Y007529D01*
X004859Y007811D01*
X005001Y007669D01*
X004719Y007387D01*
G37*
G36*
X004578Y007529D02*
X004436Y007671D01*
X004718Y007953D01*
X004860Y007811D01*
X004578Y007529D01*
G37*
G36*
X004436Y007670D02*
X004294Y007812D01*
X004576Y008094D01*
X004718Y007952D01*
X004436Y007670D01*
G37*
G36*
X004295Y007812D02*
X004153Y007954D01*
X004435Y008236D01*
X004577Y008094D01*
X004295Y007812D01*
G37*
G36*
X004160Y007946D02*
X004018Y008088D01*
X004300Y008370D01*
X004442Y008228D01*
X004160Y007946D01*
G37*
G36*
X004019Y008087D02*
X003877Y008229D01*
X004159Y008511D01*
X004301Y008369D01*
X004019Y008087D01*
G37*
G36*
X003878Y008229D02*
X003736Y008371D01*
X004018Y008653D01*
X004160Y008511D01*
X003878Y008229D01*
G37*
G36*
X003743Y008363D02*
X003601Y008505D01*
X003883Y008787D01*
X004025Y008645D01*
X003743Y008363D01*
G37*
G36*
X003601Y009041D02*
X003743Y009183D01*
X004025Y008901D01*
X003883Y008759D01*
X003601Y009041D01*
G37*
G36*
X003736Y009176D02*
X003878Y009318D01*
X004160Y009036D01*
X004018Y008894D01*
X003736Y009176D01*
G37*
G36*
X003877Y009317D02*
X004019Y009459D01*
X004301Y009177D01*
X004159Y009035D01*
X003877Y009317D01*
G37*
G36*
X004018Y009458D02*
X004160Y009600D01*
X004442Y009318D01*
X004300Y009176D01*
X004018Y009458D01*
G37*
G36*
X004153Y009593D02*
X004295Y009735D01*
X004577Y009453D01*
X004435Y009311D01*
X004153Y009593D01*
G37*
G36*
X004294Y009734D02*
X004436Y009876D01*
X004718Y009594D01*
X004576Y009452D01*
X004294Y009734D01*
G37*
G36*
X004436Y009876D02*
X004578Y010018D01*
X004860Y009736D01*
X004718Y009594D01*
X004436Y009876D01*
G37*
G36*
X004577Y010017D02*
X004719Y010159D01*
X005001Y009877D01*
X004859Y009735D01*
X004577Y010017D01*
G37*
G36*
X004711Y010151D02*
X004853Y010293D01*
X005135Y010011D01*
X004993Y009869D01*
X004711Y010151D01*
G37*
G36*
X004853Y010293D02*
X004995Y010435D01*
X005277Y010153D01*
X005135Y010011D01*
X004853Y010293D01*
G37*
G36*
X004994Y010434D02*
X005136Y010576D01*
X005418Y010294D01*
X005276Y010152D01*
X004994Y010434D01*
G37*
G36*
X005129Y010569D02*
X005271Y010711D01*
X005553Y010429D01*
X005411Y010287D01*
X005129Y010569D01*
G37*
G36*
X005667Y010287D02*
X005525Y010429D01*
X005807Y010711D01*
X005949Y010569D01*
X005667Y010287D01*
G37*
G36*
X005801Y010152D02*
X005659Y010294D01*
X005941Y010576D01*
X006083Y010434D01*
X005801Y010152D01*
G37*
G36*
X005942Y010011D02*
X005800Y010153D01*
X006082Y010435D01*
X006224Y010293D01*
X005942Y010011D01*
G37*
G36*
X006084Y009869D02*
X005942Y010011D01*
X006224Y010293D01*
X006366Y010151D01*
X006084Y009869D01*
G37*
G36*
X006218Y009735D02*
X006076Y009877D01*
X006358Y010159D01*
X006500Y010017D01*
X006218Y009735D01*
G37*
G36*
X006359Y009594D02*
X006217Y009736D01*
X006499Y010018D01*
X006641Y009876D01*
X006359Y009594D01*
G37*
G36*
X006501Y009452D02*
X006359Y009594D01*
X006641Y009876D01*
X006783Y009734D01*
X006501Y009452D01*
G37*
G36*
X006642Y009311D02*
X006500Y009453D01*
X006782Y009735D01*
X006924Y009593D01*
X006642Y009311D01*
G37*
G36*
X006777Y009176D02*
X006635Y009318D01*
X006917Y009600D01*
X007059Y009458D01*
X006777Y009176D01*
G37*
G36*
X006918Y009035D02*
X006776Y009177D01*
X007058Y009459D01*
X007200Y009317D01*
X006918Y009035D01*
G37*
G36*
X007060Y008894D02*
X006918Y009036D01*
X007200Y009318D01*
X007342Y009176D01*
X007060Y008894D01*
G37*
G36*
X007194Y008759D02*
X007052Y008901D01*
X007334Y009183D01*
X007476Y009041D01*
X007194Y008759D01*
G37*
G36*
X007052Y008645D02*
X007194Y008787D01*
X007476Y008505D01*
X007334Y008363D01*
X007052Y008645D01*
G37*
G36*
X006918Y008511D02*
X007060Y008653D01*
X007342Y008371D01*
X007200Y008229D01*
X006918Y008511D01*
G37*
G36*
X006776Y008369D02*
X006918Y008511D01*
X007200Y008229D01*
X007058Y008087D01*
X006776Y008369D01*
G37*
G36*
X006635Y008228D02*
X006777Y008370D01*
X007059Y008088D01*
X006917Y007946D01*
X006635Y008228D01*
G37*
G36*
X006500Y008094D02*
X006642Y008236D01*
X006924Y007954D01*
X006782Y007812D01*
X006500Y008094D01*
G37*
G36*
X006359Y007952D02*
X006501Y008094D01*
X006783Y007812D01*
X006641Y007670D01*
X006359Y007952D01*
G37*
G36*
X006217Y007811D02*
X006359Y007953D01*
X006641Y007671D01*
X006499Y007529D01*
X006217Y007811D01*
G37*
G36*
X006076Y007669D02*
X006218Y007811D01*
X006500Y007529D01*
X006358Y007387D01*
X006076Y007669D01*
G37*
G36*
X005942Y007535D02*
X006084Y007677D01*
X006366Y007395D01*
X006224Y007253D01*
X005942Y007535D01*
G37*
G36*
X005800Y007394D02*
X005942Y007536D01*
X006224Y007254D01*
X006082Y007112D01*
X005800Y007394D01*
G37*
G36*
X005659Y007252D02*
X005801Y007394D01*
X006083Y007112D01*
X005941Y006970D01*
X005659Y007252D01*
G37*
G36*
X005525Y007118D02*
X005667Y007260D01*
X005949Y006978D01*
X005807Y006836D01*
X005525Y007118D01*
G37*
D11*
G36*
X007016Y008773D02*
X005539Y007296D01*
X004062Y008773D01*
X005539Y010250D01*
X007016Y008773D01*
G37*
D12*
X003405Y009828D03*
X001909Y009828D03*
D13*
X001456Y010466D02*
X002558Y010466D01*
X001456Y010466D02*
X001456Y010938D01*
X002558Y010938D01*
X002558Y010466D01*
X002558Y010623D02*
X001456Y010623D01*
X001456Y010780D02*
X002558Y010780D01*
X002558Y010937D02*
X001456Y010937D01*
X001456Y011333D02*
X002558Y011333D01*
X001456Y011333D02*
X001456Y011805D01*
X002558Y011805D01*
X002558Y011333D01*
X002558Y011490D02*
X001456Y011490D01*
X001456Y011647D02*
X002558Y011647D01*
X002558Y011804D02*
X001456Y011804D01*
D14*
X001489Y012391D03*
X002178Y012391D03*
X003107Y010576D03*
X003796Y010576D03*
X002513Y009191D03*
X001824Y009191D03*
D15*
X001763Y007525D03*
X001771Y007049D03*
X002275Y007525D03*
X002283Y007049D03*
X006960Y011049D03*
X007472Y011049D03*
X007979Y011584D03*
X008491Y011584D03*
X011334Y014462D03*
X011846Y014462D03*
D16*
X008633Y009986D03*
X008633Y009513D03*
X007976Y009596D03*
X007976Y009124D03*
X010231Y007651D03*
X010231Y007179D03*
X014456Y009167D03*
X014456Y009639D03*
X014948Y009624D03*
X014948Y009151D03*
X015168Y002765D03*
X014727Y002765D03*
X014727Y002293D03*
X015168Y002293D03*
X002936Y006899D03*
X002936Y007372D03*
D17*
X003590Y007504D03*
X003590Y006815D03*
X005263Y011826D03*
X005783Y011822D03*
X005783Y012511D03*
X005263Y012515D03*
D18*
X005751Y010939D03*
X006224Y010939D03*
X008357Y007336D03*
X008830Y007336D03*
X012350Y008080D03*
X012822Y008080D03*
X012936Y013958D03*
X012464Y013958D03*
X010672Y013950D03*
X010200Y013950D03*
X001924Y012923D03*
X001452Y012923D03*
D19*
X003113Y011899D03*
X003113Y011387D03*
X007322Y011549D03*
X007322Y012061D03*
X008070Y011029D03*
X008586Y011029D03*
X008586Y010517D03*
X008070Y010517D03*
X014519Y011966D03*
X014519Y012478D03*
D20*
X014147Y004718D03*
X013647Y004718D03*
X013147Y004718D03*
X012647Y004718D03*
X011903Y002009D03*
X011403Y002009D03*
X010903Y002009D03*
X010403Y002009D03*
X009718Y002206D03*
X009218Y002206D03*
X008718Y002206D03*
X008218Y002206D03*
X007533Y003990D03*
X007033Y003990D03*
X006533Y003990D03*
X006033Y003990D03*
X005289Y003990D03*
X004789Y003990D03*
X004289Y003990D03*
X003789Y003990D03*
X003163Y002364D03*
X002663Y002364D03*
X002163Y002364D03*
X001663Y002364D03*
D21*
X002413Y003600D03*
X004539Y002754D03*
X006783Y002754D03*
X008968Y003443D03*
X011153Y003246D03*
X013397Y003482D03*
D22*
X013647Y002561D03*
X014147Y002561D03*
X013147Y002561D03*
X012647Y002561D03*
X011903Y004167D03*
X011403Y004167D03*
X010903Y004167D03*
X010403Y004167D03*
X009718Y004364D03*
X009218Y004364D03*
X008718Y004364D03*
X008218Y004364D03*
X007533Y001832D03*
X007033Y001832D03*
X006533Y001832D03*
X006033Y001832D03*
X005289Y001832D03*
X004789Y001832D03*
X004289Y001832D03*
X003789Y001832D03*
X003163Y004521D03*
X002663Y004521D03*
X002163Y004521D03*
X001663Y004521D03*
D23*
X009334Y009517D03*
X009334Y009714D03*
X009334Y009911D03*
X009334Y010108D03*
X009334Y010305D03*
X009334Y010502D03*
X009334Y010698D03*
X009334Y010895D03*
X009334Y011092D03*
X009334Y011289D03*
X009334Y011486D03*
X009334Y011683D03*
X009334Y011880D03*
X009334Y012076D03*
X009334Y012273D03*
X009334Y012470D03*
X013861Y012470D03*
X013861Y012273D03*
X013861Y012076D03*
X013861Y011880D03*
X013861Y011683D03*
X013861Y011486D03*
X013861Y011289D03*
X013861Y011092D03*
X013861Y010895D03*
X013861Y010698D03*
X013861Y010502D03*
X013861Y010305D03*
X013861Y010108D03*
X013861Y009911D03*
X013861Y009714D03*
X013861Y009517D03*
D24*
X013074Y008730D03*
X012877Y008730D03*
X012680Y008730D03*
X012483Y008730D03*
X012287Y008730D03*
X012090Y008730D03*
X011893Y008730D03*
X011696Y008730D03*
X011499Y008730D03*
X011302Y008730D03*
X011105Y008730D03*
X010909Y008730D03*
X010712Y008730D03*
X010515Y008730D03*
X010318Y008730D03*
X010121Y008730D03*
X010121Y013257D03*
X010318Y013257D03*
X010515Y013257D03*
X010712Y013257D03*
X010909Y013257D03*
X011105Y013257D03*
X011302Y013257D03*
X011499Y013257D03*
X011696Y013257D03*
X011893Y013257D03*
X012090Y013257D03*
X012287Y013257D03*
X012483Y013257D03*
X012680Y013257D03*
X012877Y013257D03*
X013074Y013257D03*
D25*
X015015Y012691D03*
X015015Y012021D03*
D26*
X012919Y014308D02*
X012919Y014640D01*
X013251Y014640D01*
X013251Y014308D01*
X012919Y014308D01*
X012919Y014449D02*
X013251Y014449D01*
X013251Y014590D02*
X012919Y014590D01*
X012228Y014640D02*
X012228Y014308D01*
X012228Y014640D02*
X012560Y014640D01*
X012560Y014308D01*
X012228Y014308D01*
X012228Y014449D02*
X012560Y014449D01*
X012560Y014590D02*
X012228Y014590D01*
X008747Y012290D02*
X008747Y011958D01*
X008415Y011958D01*
X008415Y012290D01*
X008747Y012290D01*
X008747Y012099D02*
X008415Y012099D01*
X008415Y012240D02*
X008747Y012240D01*
X008056Y012290D02*
X008056Y011958D01*
X007724Y011958D01*
X007724Y012290D01*
X008056Y012290D01*
X008056Y012099D02*
X007724Y012099D01*
X007724Y012240D02*
X008056Y012240D01*
D27*
X014995Y011391D03*
X014995Y010919D03*
X014995Y010446D03*
D28*
X007082Y005809D03*
X007082Y004706D03*
X005271Y004698D03*
X005271Y005801D03*
D29*
X013509Y007120D03*
X013509Y007513D03*
X013509Y007907D03*
D30*
X015035Y008419D03*
X015035Y006608D03*
D31*
X014972Y004974D03*
X014972Y003557D03*
X011389Y000978D03*
X008239Y000978D03*
X005090Y000978D03*
D32*
X010751Y007183D03*
X010751Y007380D03*
X010751Y007576D03*
X010751Y007773D03*
X011932Y007773D03*
X011932Y007576D03*
X011932Y007380D03*
X011932Y007183D03*
D33*
X011342Y007478D03*
D34*
X004145Y011647D03*
D35*
X004716Y011647D03*
X004716Y012041D03*
X004716Y011254D03*
X003574Y011254D03*
X003574Y011647D03*
X003574Y012041D03*
D36*
X003082Y006037D03*
X002275Y006037D03*
X001448Y006037D03*
X001448Y004856D03*
X002275Y004856D03*
X003082Y004856D03*
X008487Y004738D03*
X009251Y004738D03*
X009251Y005919D03*
X008487Y005919D03*
X010834Y005860D03*
X011661Y005860D03*
X011661Y004679D03*
X010834Y004679D03*
D37*
X013086Y005919D03*
X014267Y005919D03*
X002720Y008450D03*
X001539Y008450D03*
D38*
X006365Y012948D03*
X006759Y012948D03*
X007153Y012948D03*
X007546Y012948D03*
X007940Y012948D03*
X008334Y012948D03*
X008727Y012948D03*
D39*
X009239Y014474D03*
X005853Y014474D03*
D40*
X001743Y001135D03*
X014735Y001135D03*
X014735Y014128D03*
X001743Y014128D03*
M02*
