%
M48
M72
T01C0.0118
T02C0.0551
T03C0.0827
%
T01
X2216Y2202
X2216Y2439
X1979Y2439
X1743Y2439
X1684Y3025
X1920Y3025
X1920Y3261
X1684Y3261
X1684Y3498
X1920Y3498
X1920Y3734
X1684Y3734
X1684Y3970
X1920Y3970
X1920Y4206
X1684Y4206
X2157Y4206
X2393Y4206
X2393Y3970
X2393Y3734
X2157Y3734
X2157Y3970
X2629Y3970
X2629Y3734
X2865Y3734
X2865Y3970
X2865Y4206
X2629Y4206
X3102Y4206
X3102Y3970
X3102Y3734
X3102Y3498
X3102Y3261
X3102Y3025
X2865Y3025
X2629Y3025
X2393Y3025
X2157Y3025
X2157Y3261
X2393Y3261
X2393Y3498
X2157Y3498
X2629Y3498
X2865Y3498
X2865Y3261
X2629Y3261
X2688Y2439
X2452Y2439
X2452Y2202
X2688Y2202
X3814Y2198
X4050Y2198
X4050Y2435
X3814Y2435
X3814Y2671
X3814Y2907
X4050Y2907
X4050Y2671
X4287Y2671
X4523Y2671
X4523Y2907
X4287Y2907
X4287Y3143
X4523Y3143
X4523Y3380
X4287Y3380
X4050Y3380
X3814Y3380
X3814Y3143
X4050Y3143
X4759Y3143
X4995Y3143
X4995Y3380
X4759Y3380
X5231Y3380
X5231Y3143
X5231Y2907
X5231Y2671
X4995Y2671
X4759Y2671
X4759Y2907
X4995Y2907
X4995Y2435
X4759Y2435
X4759Y2198
X4995Y2198
X5231Y2198
X5231Y2435
X4523Y2435
X4287Y2435
X4287Y2198
X4523Y2198
X6054Y2139
X6290Y2139
X6290Y2376
X6054Y2376
X6054Y2612
X6290Y2612
X6290Y2848
X6054Y2848
X6054Y3084
X6290Y3084
X6290Y3320
X6054Y3320
X6527Y3320
X6763Y3320
X6999Y3320
X6999Y3084
X6999Y2848
X6763Y2848
X6763Y3084
X6527Y3084
X6527Y2848
X6527Y2612
X6763Y2612
X6999Y2612
X6999Y2376
X6763Y2376
X6527Y2376
X6527Y2139
X6763Y2139
X6999Y2139
X7235Y2139
X7472Y2139
X7472Y2376
X7472Y2612
X7235Y2612
X7235Y2376
X7235Y2848
X7235Y3084
X7472Y3084
X7472Y2848
X7472Y3320
X7235Y3320
X8243Y3320
X8243Y3557
X8243Y3793
X8243Y4029
X8479Y4029
X8479Y3793
X8716Y3793
X8952Y3793
X8952Y4029
X8716Y4029
X9188Y4029
X9188Y3793
X9424Y3793
X9424Y4029
X9661Y4029
X9661Y3793
X9661Y3557
X9661Y3320
X9661Y3084
X9661Y2848
X9424Y2848
X9188Y2848
X9188Y3084
X9424Y3084
X9424Y3320
X9188Y3320
X9188Y3557
X9424Y3557
X8952Y3557
X8716Y3557
X8716Y3320
X8952Y3320
X8952Y3084
X8952Y2848
X8716Y2848
X8716Y3084
X8479Y3084
X8479Y2848
X8243Y2848
X8243Y3084
X8479Y3320
X8479Y3557
X7590Y4443
X7353Y4443
X7353Y4679
X7590Y4679
X7117Y4679
X6881Y4679
X6645Y4679
X6645Y4443
X6881Y4443
X7117Y4443
X8109Y5584
X8464Y5584
X8818Y5584
X9172Y5584
X9527Y5584
X9527Y6175
X9172Y6175
X8818Y6175
X8464Y6175
X8109Y6175
X7464Y6116
X7227Y6116
X6991Y6116
X6755Y6116
X6755Y5880
X6991Y5880
X6755Y5643
X7227Y5880
X7464Y5880
X7464Y5643
X7164Y6561
X6924Y6773
X5790Y6679
X5346Y6561
X5330Y6116
X5094Y6116
X5094Y5880
X5330Y5880
X5566Y5880
X5566Y5643
X5566Y6116
X4857Y6116
X4857Y5880
X4857Y5643
X4873Y4679
X4637Y4679
X4637Y4443
X4873Y4443
X5109Y4443
X5346Y4443
X5346Y4679
X5109Y4679
X5582Y4679
X5582Y4443
X3318Y5584
X2964Y5584
X2609Y5584
X2255Y5584
X1901Y5584
X1546Y5584
X1192Y5584
X1192Y6175
X1546Y6175
X1901Y6175
X2255Y6175
X2609Y6175
X2964Y6175
X3318Y6175
X4145Y7254
X4968Y8163
X5558Y8754
X6090Y9344
X5499Y9935
X4968Y9344
X4377Y8754
X3432Y9265
X3389Y8513
X4318Y10112
X4259Y10407
X4495Y10643
X4810Y10584
X5027Y10820
X5322Y10939
X4991Y11317
X5629Y11352
X6515Y10525
X6814Y10415
X7105Y10289
X7164Y9931
X7574Y10061
X8216Y9915
X8342Y9084
X8913Y9061
X9350Y9344
X9940Y9462
X9944Y10309
X10413Y10643
X10117Y10820
X9822Y10998
X9873Y11647
X10176Y11883
X10015Y12824
X10413Y12828
X11357Y12002
X11594Y12238
X11830Y12537
X12066Y12773
X12775Y12651
X13188Y12651
X13897Y12769
X14483Y12954
X15251Y13135
X13405Y13679
X13302Y11588
X12893Y11116
X12617Y10860
X13342Y10592
X13424Y9639
X12901Y9545
X13129Y9108
X13877Y9159
X12243Y9167
X12271Y8072
X11452Y8072
X11294Y7458
X10759Y7065
X10314Y7072
X9700Y7159
X9294Y7159
X9294Y7509
X9527Y7860
X8239Y7631
X7708Y8458
X7436Y8939
X6739Y8754
X6149Y8163
X5558Y7572
X1365Y7506
X1369Y7076
X1814Y11600
X1448Y12395
X2318Y12923
X4184Y11927
X4857Y12502
X6361Y13659
X6731Y13643
X7168Y13616
X7924Y13427
X7582Y12592
X8369Y12592
X8995Y12986
X7826Y11588
X6924Y11549
X11117Y11714
X14586Y10931
X13023Y7041
X12432Y7100
X11889Y6175
X11535Y6175
X11180Y6175
X10826Y6175
X10472Y6175
X10472Y5584
X10826Y5584
X11180Y5584
X11535Y5584
X11889Y5584
X13121Y5289
X13357Y5289
X13357Y5053
X13121Y5053
X13121Y4817
X13357Y4817
X13594Y4817
X13594Y5053
X13830Y5053
X13830Y4817
X14066Y4817
X14066Y5053
X14066Y5289
X13830Y5289
X13594Y5289
X13594Y4580
X13830Y4580
X14066Y4580
X14090Y3911
X13853Y3911
X13617Y3911
X13381Y3911
X13145Y3911
X12909Y3911
X12909Y3675
X13145Y3675
X13145Y3439
X12909Y3439
X12672Y3439
X12672Y3675
X12672Y3911
X13121Y4580
X13357Y4580
X13381Y3675
X13617Y3675
X13617Y3439
X13381Y3439
X13381Y3202
X13381Y2966
X13617Y2966
X13617Y3202
X13853Y3202
X13853Y2966
X14090Y2966
X14090Y3202
X14090Y3439
X14090Y3675
X13853Y3675
X13853Y3439
X13145Y3202
X13145Y2966
X12909Y2966
X12909Y3202
X12672Y3202
X12672Y2966
X11842Y2907
X11842Y2671
X11605Y2671
X11605Y2907
X11369Y2907
X11133Y2907
X11133Y2671
X11369Y2671
X10897Y2671
X10897Y2907
X10661Y2907
X10661Y2671
X10424Y2671
X10424Y2907
X10424Y3143
X10424Y3380
X10424Y3616
X10424Y3852
X10661Y3852
X10897Y3852
X10897Y3616
X10661Y3616
X10661Y3380
X10897Y3380
X10897Y3143
X10661Y3143
X11133Y3143
X11369Y3143
X11369Y3380
X11133Y3380
X11133Y3616
X11133Y3852
X11369Y3852
X11369Y3616
X11605Y3616
X11605Y3852
X11842Y3852
X11842Y3616
X11842Y3380
X11605Y3380
X11605Y3143
X11842Y3143
X11432Y2080
X11432Y1844
X11196Y1844
X10960Y1844
X10960Y2080
X11196Y2080
X10724Y2080
X10487Y2080
X10487Y1844
X10724Y1844
X9125Y2021
X8889Y2021
X8653Y2021
X8653Y2257
X8889Y2257
X9125Y2257
X8416Y2257
X8416Y2021
X8180Y2021
X8180Y2257
T02
X8239Y978
X5090Y978
X11389Y978
X14972Y3557
X14972Y4974
T03
X1743Y1135
X14735Y1135
X14735Y14128
X1743Y14128
M30
