G75*
%MOIN*%
%OFA0B0*%
%FSLAX24Y24*%
%IPPOS*%
%LPD*%
%AMOC8*
5,1,8,0,0,1.08239X$1,22.5*
%
%ADD10C,0.0098*%
%ADD11C,0.0000*%
%ADD12C,0.0100*%
%ADD13C,0.0080*%
%ADD14C,0.0030*%
%ADD15C,0.0040*%
%ADD16C,0.0060*%
%ADD17C,0.0232*%
%ADD18C,0.0050*%
D10*
X001107Y002743D02*
X004060Y002743D01*
X001107Y002743D02*
X001107Y022428D01*
X003863Y025184D01*
X012524Y025184D01*
X015280Y022428D01*
X015280Y002743D01*
X012327Y002743D01*
D11*
X013705Y021641D02*
X013707Y021680D01*
X013713Y021719D01*
X013723Y021757D01*
X013736Y021794D01*
X013753Y021829D01*
X013773Y021863D01*
X013797Y021894D01*
X013824Y021923D01*
X013853Y021949D01*
X013885Y021972D01*
X013919Y021992D01*
X013955Y022008D01*
X013992Y022020D01*
X014031Y022029D01*
X014070Y022034D01*
X014109Y022035D01*
X014148Y022032D01*
X014187Y022025D01*
X014224Y022014D01*
X014261Y022000D01*
X014296Y021982D01*
X014329Y021961D01*
X014360Y021936D01*
X014388Y021909D01*
X014413Y021879D01*
X014435Y021846D01*
X014454Y021812D01*
X014469Y021776D01*
X014481Y021738D01*
X014489Y021700D01*
X014493Y021661D01*
X014493Y021621D01*
X014489Y021582D01*
X014481Y021544D01*
X014469Y021506D01*
X014454Y021470D01*
X014435Y021436D01*
X014413Y021403D01*
X014388Y021373D01*
X014360Y021346D01*
X014329Y021321D01*
X014296Y021300D01*
X014261Y021282D01*
X014224Y021268D01*
X014187Y021257D01*
X014148Y021250D01*
X014109Y021247D01*
X014070Y021248D01*
X014031Y021253D01*
X013992Y021262D01*
X013955Y021274D01*
X013919Y021290D01*
X013885Y021310D01*
X013853Y021333D01*
X013824Y021359D01*
X013797Y021388D01*
X013773Y021419D01*
X013753Y021453D01*
X013736Y021488D01*
X013723Y021525D01*
X013713Y021563D01*
X013707Y021602D01*
X013705Y021641D01*
X001894Y021641D02*
X001896Y021680D01*
X001902Y021719D01*
X001912Y021757D01*
X001925Y021794D01*
X001942Y021829D01*
X001962Y021863D01*
X001986Y021894D01*
X002013Y021923D01*
X002042Y021949D01*
X002074Y021972D01*
X002108Y021992D01*
X002144Y022008D01*
X002181Y022020D01*
X002220Y022029D01*
X002259Y022034D01*
X002298Y022035D01*
X002337Y022032D01*
X002376Y022025D01*
X002413Y022014D01*
X002450Y022000D01*
X002485Y021982D01*
X002518Y021961D01*
X002549Y021936D01*
X002577Y021909D01*
X002602Y021879D01*
X002624Y021846D01*
X002643Y021812D01*
X002658Y021776D01*
X002670Y021738D01*
X002678Y021700D01*
X002682Y021661D01*
X002682Y021621D01*
X002678Y021582D01*
X002670Y021544D01*
X002658Y021506D01*
X002643Y021470D01*
X002624Y021436D01*
X002602Y021403D01*
X002577Y021373D01*
X002549Y021346D01*
X002518Y021321D01*
X002485Y021300D01*
X002450Y021282D01*
X002413Y021268D01*
X002376Y021257D01*
X002337Y021250D01*
X002298Y021247D01*
X002259Y021248D01*
X002220Y021253D01*
X002181Y021262D01*
X002144Y021274D01*
X002108Y021290D01*
X002074Y021310D01*
X002042Y021333D01*
X002013Y021359D01*
X001986Y021388D01*
X001962Y021419D01*
X001942Y021453D01*
X001925Y021488D01*
X001912Y021525D01*
X001902Y021563D01*
X001896Y021602D01*
X001894Y021641D01*
D12*
X004228Y023206D02*
X004375Y023206D01*
X004228Y023206D02*
X004228Y024003D01*
X004768Y024780D02*
X005556Y024780D01*
X006096Y024003D02*
X006096Y023206D01*
X005949Y023206D01*
X009051Y023226D02*
X009198Y023226D01*
X009051Y023226D02*
X009051Y024023D01*
X009591Y024799D02*
X011560Y024799D01*
X012100Y024023D02*
X012100Y023226D01*
X011953Y023226D01*
X003498Y015252D02*
X003498Y014456D01*
X003498Y015252D02*
X003351Y015252D01*
X002957Y013679D02*
X002170Y013679D01*
X001629Y014456D02*
X001629Y015252D01*
X001776Y015252D01*
X004060Y005007D02*
X012327Y005007D01*
X012327Y002743D01*
X004060Y002743D02*
X004060Y005007D01*
D13*
X002625Y008073D02*
X002339Y008073D01*
X001153Y006920D02*
X001153Y006673D01*
X001030Y006549D01*
X001030Y006288D02*
X000906Y006288D01*
X000783Y006165D01*
X000783Y005918D01*
X000906Y005794D01*
X001030Y005794D01*
X001153Y005918D01*
X001153Y006165D01*
X001030Y006288D01*
X000783Y006165D02*
X000660Y006288D01*
X000536Y006288D01*
X000413Y006165D01*
X000413Y005918D01*
X000536Y005794D01*
X000660Y005794D01*
X000783Y005918D01*
X000536Y006549D02*
X000413Y006673D01*
X000413Y006920D01*
X000536Y007043D01*
X001030Y007043D01*
X001153Y006920D01*
X002339Y009963D02*
X002625Y009963D01*
X007139Y009963D02*
X007425Y009963D01*
X007425Y008073D02*
X007139Y008073D01*
X011633Y006900D02*
X011757Y007023D01*
X012250Y007023D01*
X012374Y006900D01*
X012374Y006653D01*
X012250Y006530D01*
X012250Y006268D02*
X012374Y006268D01*
X012250Y006268D02*
X011757Y005775D01*
X011633Y005775D01*
X011633Y006268D01*
X011757Y006530D02*
X011633Y006653D01*
X011633Y006900D01*
X011939Y008073D02*
X012225Y008073D01*
X012225Y009963D02*
X011939Y009963D01*
D14*
X011963Y010356D02*
X012327Y010356D01*
X012327Y010538D01*
X012266Y010599D01*
X012145Y010599D01*
X012084Y010538D01*
X012084Y010356D01*
X012084Y010478D02*
X011963Y010599D01*
X012023Y010719D02*
X011963Y010779D01*
X011963Y010901D01*
X012023Y010961D01*
X012145Y010961D01*
X012205Y010901D01*
X012205Y010840D01*
X012145Y010719D01*
X012327Y010719D01*
X012327Y010961D01*
X011131Y009588D02*
X011131Y009224D01*
X011131Y009345D02*
X010949Y009345D01*
X010888Y009406D01*
X010888Y009527D01*
X010949Y009588D01*
X011131Y009588D01*
X011010Y009345D02*
X010888Y009224D01*
X010768Y009224D02*
X010526Y009224D01*
X010406Y009224D02*
X010163Y009224D01*
X010285Y009224D02*
X010285Y009588D01*
X010406Y009467D01*
X010647Y009588D02*
X010647Y009224D01*
X010768Y009467D02*
X010647Y009588D01*
X007522Y010318D02*
X007522Y010500D01*
X007461Y010560D01*
X007340Y010560D01*
X007279Y010500D01*
X007279Y010318D01*
X007279Y010439D02*
X007158Y010560D01*
X007218Y010680D02*
X007158Y010741D01*
X007158Y010862D01*
X007218Y010923D01*
X007461Y010923D01*
X007522Y010862D01*
X007522Y010741D01*
X007461Y010680D01*
X007400Y010680D01*
X007340Y010741D01*
X007340Y010923D01*
X007158Y010318D02*
X007522Y010318D01*
X005656Y010346D02*
X005656Y010468D01*
X005596Y010528D01*
X005535Y010528D01*
X005474Y010468D01*
X005414Y010528D01*
X005353Y010528D01*
X005292Y010468D01*
X005292Y010346D01*
X005353Y010286D01*
X005292Y010166D02*
X005414Y010045D01*
X005414Y010105D02*
X005414Y009923D01*
X005292Y009923D02*
X005656Y009923D01*
X005656Y010105D01*
X005596Y010166D01*
X005474Y010166D01*
X005414Y010105D01*
X005474Y010407D02*
X005474Y010468D01*
X005596Y010286D02*
X005656Y010346D01*
X002895Y011341D02*
X002895Y011523D01*
X002834Y011583D01*
X002713Y011583D01*
X002652Y011523D01*
X002652Y011341D01*
X002652Y011462D02*
X002531Y011583D01*
X002531Y011703D02*
X002531Y011946D01*
X002531Y011824D02*
X002895Y011824D01*
X002774Y011703D01*
X002895Y011341D02*
X002531Y011341D01*
X002123Y011369D02*
X002123Y011551D01*
X002062Y011611D01*
X001941Y011611D01*
X001880Y011551D01*
X001880Y011369D01*
X001880Y011490D02*
X001759Y011611D01*
X001759Y011731D02*
X001819Y011731D01*
X002062Y011974D01*
X002123Y011974D01*
X002123Y011731D01*
X002123Y011369D02*
X001759Y011369D01*
X005657Y015238D02*
X005597Y015298D01*
X005597Y015420D01*
X005657Y015480D01*
X005597Y015600D02*
X005597Y015843D01*
X005597Y015963D02*
X005657Y015963D01*
X005900Y016205D01*
X005961Y016205D01*
X005961Y015963D01*
X005961Y015721D02*
X005597Y015721D01*
X005839Y015600D02*
X005961Y015721D01*
X005900Y015480D02*
X005961Y015420D01*
X005961Y015298D01*
X005900Y015238D01*
X005657Y015238D01*
X006580Y015214D02*
X006640Y015274D01*
X006580Y015214D02*
X006580Y015092D01*
X006640Y015032D01*
X006883Y015032D01*
X006944Y015092D01*
X006944Y015214D01*
X006883Y015274D01*
X006823Y015394D02*
X006944Y015516D01*
X006580Y015516D01*
X006580Y015637D02*
X006580Y015394D01*
X006762Y015757D02*
X006762Y015999D01*
X006944Y015939D02*
X006762Y015757D01*
X006580Y015939D02*
X006944Y015939D01*
X009707Y015852D02*
X009767Y015913D01*
X009828Y015913D01*
X009889Y015852D01*
X009889Y015670D01*
X009767Y015670D01*
X009707Y015731D01*
X009707Y015852D01*
X009889Y015670D02*
X010010Y015791D01*
X010071Y015913D01*
X010071Y015429D02*
X009707Y015429D01*
X009707Y015308D02*
X009707Y015550D01*
X009949Y015308D02*
X010071Y015429D01*
X010010Y015188D02*
X010071Y015127D01*
X010071Y015006D01*
X010010Y014945D01*
X009767Y014945D01*
X009707Y015006D01*
X009707Y015127D01*
X009767Y015188D01*
X010524Y015318D02*
X010524Y015439D01*
X010585Y015500D01*
X010524Y015620D02*
X010524Y015863D01*
X010524Y015741D02*
X010888Y015741D01*
X010767Y015620D01*
X010828Y015500D02*
X010888Y015439D01*
X010888Y015318D01*
X010828Y015257D01*
X010585Y015257D01*
X010524Y015318D01*
X010585Y015982D02*
X010524Y016043D01*
X010524Y016164D01*
X010585Y016225D01*
X010706Y016225D01*
X010767Y016164D01*
X010767Y016104D01*
X010706Y015982D01*
X010888Y015982D01*
X010888Y016225D01*
D15*
X007951Y016554D02*
X007874Y016478D01*
X007721Y016478D01*
X007644Y016554D01*
X007491Y016554D02*
X007414Y016478D01*
X007261Y016478D01*
X007184Y016554D01*
X007184Y016631D01*
X007261Y016708D01*
X007337Y016708D01*
X007261Y016708D02*
X007184Y016785D01*
X007184Y016861D01*
X007261Y016938D01*
X007414Y016938D01*
X007491Y016861D01*
X007644Y016861D02*
X007721Y016938D01*
X007874Y016938D01*
X007951Y016861D01*
X007951Y016554D01*
X007030Y016554D02*
X006954Y016478D01*
X006800Y016478D01*
X006723Y016554D01*
X006723Y016708D01*
X006800Y016785D01*
X006877Y016785D01*
X007030Y016708D01*
X007030Y016938D01*
X006723Y016938D01*
X006734Y017872D02*
X006674Y017932D01*
X006674Y018052D01*
X006734Y018112D01*
X007034Y018112D01*
X006974Y018240D02*
X007034Y018300D01*
X007034Y018420D01*
X006974Y018480D01*
X006854Y018420D02*
X006854Y018300D01*
X006914Y018240D01*
X006974Y018240D01*
X007094Y018360D02*
X006614Y018360D01*
X006674Y018300D02*
X006674Y018420D01*
X006734Y018480D01*
X006794Y018480D01*
X006854Y018420D01*
X006734Y018240D02*
X006674Y018300D01*
X006674Y018608D02*
X006734Y018608D01*
X006974Y018849D01*
X007034Y018849D01*
X007034Y018608D01*
X007034Y017872D02*
X006734Y017872D01*
X004544Y015063D02*
X004084Y015063D01*
X004084Y014910D02*
X004084Y015217D01*
X004391Y014910D02*
X004544Y015063D01*
X004467Y014757D02*
X004314Y014757D01*
X004237Y014680D01*
X004237Y014450D01*
X004237Y014603D02*
X004084Y014757D01*
X004084Y014450D02*
X004544Y014450D01*
X004544Y014680D01*
X004467Y014757D01*
X004544Y014296D02*
X004544Y013989D01*
X004084Y013989D01*
X004084Y014296D01*
X004160Y013836D02*
X004084Y013759D01*
X004084Y013606D01*
X004160Y013529D01*
X004314Y013606D02*
X004314Y013759D01*
X004237Y013836D01*
X004160Y013836D01*
X004314Y013989D02*
X004314Y014143D01*
X004467Y013836D02*
X004544Y013759D01*
X004544Y013606D01*
X004467Y013529D01*
X004391Y013529D01*
X004314Y013606D01*
X004238Y006987D02*
X004391Y006987D01*
X004468Y006911D01*
X004468Y006604D01*
X004391Y006527D01*
X004238Y006527D01*
X004161Y006604D01*
X004008Y006604D02*
X003931Y006527D01*
X003778Y006527D01*
X003701Y006604D01*
X003701Y006680D01*
X003778Y006757D01*
X003854Y006757D01*
X003778Y006757D02*
X003701Y006834D01*
X003701Y006911D01*
X003778Y006987D01*
X003931Y006987D01*
X004008Y006911D01*
X004161Y006911D02*
X004238Y006987D01*
X003547Y006911D02*
X003547Y006834D01*
X003471Y006757D01*
X003240Y006757D01*
X003240Y006604D02*
X003240Y006911D01*
X003317Y006987D01*
X003471Y006987D01*
X003547Y006911D01*
X003547Y006604D02*
X003471Y006527D01*
X003317Y006527D01*
X003240Y006604D01*
X008044Y006641D02*
X008044Y006564D01*
X008120Y006488D01*
X008274Y006488D01*
X008350Y006564D01*
X008197Y006718D02*
X008120Y006718D01*
X008044Y006641D01*
X008120Y006718D02*
X008044Y006794D01*
X008044Y006871D01*
X008120Y006948D01*
X008274Y006948D01*
X008350Y006871D01*
X008504Y006718D02*
X008811Y006718D01*
X008581Y006948D01*
X008581Y006488D01*
X008964Y006564D02*
X009041Y006488D01*
X009195Y006488D01*
X009271Y006564D01*
X009271Y006871D01*
X009195Y006948D01*
X009041Y006948D01*
X008964Y006871D01*
X012925Y006834D02*
X013002Y006757D01*
X013156Y006757D01*
X013232Y006834D01*
X013232Y006911D01*
X013156Y006987D01*
X013002Y006987D01*
X012925Y006911D01*
X012925Y006834D01*
X013002Y006757D02*
X012925Y006680D01*
X012925Y006604D01*
X013002Y006527D01*
X013156Y006527D01*
X013232Y006604D01*
X013232Y006680D01*
X013156Y006757D01*
X013386Y006680D02*
X013386Y006604D01*
X013463Y006527D01*
X013616Y006527D01*
X013693Y006604D01*
X013846Y006604D02*
X013923Y006527D01*
X014076Y006527D01*
X014153Y006604D01*
X014153Y006911D01*
X014076Y006987D01*
X013923Y006987D01*
X013846Y006911D01*
X013693Y006911D02*
X013616Y006987D01*
X013463Y006987D01*
X013386Y006911D01*
X013386Y006834D01*
X013463Y006757D01*
X013386Y006680D01*
X013463Y006757D02*
X013539Y006757D01*
X008556Y023148D02*
X008095Y023148D01*
X008249Y023148D02*
X008249Y023378D01*
X008326Y023455D01*
X008479Y023455D01*
X008556Y023378D01*
X008556Y023148D01*
X008556Y023608D02*
X008556Y023839D01*
X008479Y023915D01*
X008326Y023915D01*
X008249Y023839D01*
X008249Y023608D01*
X008095Y023608D02*
X008556Y023608D01*
X008249Y023762D02*
X008095Y023915D01*
X008172Y024069D02*
X008095Y024145D01*
X008095Y024299D01*
X008172Y024376D01*
X008479Y024376D01*
X008556Y024299D01*
X008556Y024145D01*
X008479Y024069D01*
X008172Y024069D01*
X008172Y024529D02*
X008095Y024606D01*
X008095Y024759D01*
X008172Y024836D01*
X008326Y024836D01*
X008326Y024683D01*
X008479Y024836D02*
X008556Y024759D01*
X008556Y024606D01*
X008479Y024529D01*
X008172Y024529D01*
X003642Y024509D02*
X003642Y024740D01*
X003566Y024816D01*
X003412Y024816D01*
X003336Y024740D01*
X003336Y024509D01*
X003336Y024663D02*
X003182Y024816D01*
X003182Y024509D02*
X003642Y024509D01*
X003642Y024356D02*
X003642Y024049D01*
X003182Y024049D01*
X003182Y024356D01*
X003412Y024202D02*
X003412Y024049D01*
X003336Y023896D02*
X003259Y023896D01*
X003182Y023819D01*
X003182Y023665D01*
X003259Y023589D01*
X003412Y023665D02*
X003412Y023819D01*
X003336Y023896D01*
X003566Y023896D02*
X003642Y023819D01*
X003642Y023665D01*
X003566Y023589D01*
X003489Y023589D01*
X003412Y023665D01*
D16*
X007243Y018976D02*
X007243Y017297D01*
X009154Y017297D02*
X009154Y018976D01*
X002583Y007433D02*
X002583Y007133D01*
X002433Y007283D02*
X002733Y007283D01*
X002863Y006543D02*
X003233Y006543D01*
X003883Y005893D01*
X003883Y006543D02*
X003883Y003943D01*
X002863Y003943D01*
X002303Y003943D02*
X001283Y003943D01*
X001283Y006543D01*
X002303Y006543D01*
X001933Y006543D02*
X001283Y005893D01*
X003233Y006543D02*
X003883Y006543D01*
X012504Y006523D02*
X012504Y003923D01*
X013524Y003923D01*
X014084Y003923D02*
X015104Y003923D01*
X015104Y006523D01*
X014454Y006523D01*
X015104Y005873D01*
X014454Y006523D02*
X014084Y006523D01*
X013804Y007113D02*
X013804Y007413D01*
X013654Y007263D02*
X013954Y007263D01*
X013524Y006523D02*
X012504Y006523D01*
X013154Y006523D02*
X012504Y005873D01*
D17*
X007445Y018755D03*
D18*
X008213Y005046D02*
X008213Y000125D01*
X008902Y000125D01*
X008902Y005046D01*
X008213Y005046D01*
X008233Y005046D02*
X008233Y000125D01*
X004788Y000125D01*
X004788Y005046D01*
X004099Y005046D01*
X004099Y000125D01*
X004788Y000125D01*
X004788Y005046D02*
X008233Y005046D01*
X008902Y005046D02*
X012347Y005046D01*
X012347Y000125D01*
X008902Y000125D01*
M02*
