G75*
%MOIN*%
%OFA0B0*%
%FSLAX24Y24*%
%IPPOS*%
%LPD*%
%AMOC8*
5,1,8,0,0,1.08239X$1,22.5*
%
%ADD10R,0.0098X0.0354*%
%ADD11R,0.2362X0.0800*%
%ADD12R,0.0551X0.0276*%
%ADD13R,0.0413X0.1900*%
%ADD14R,0.1220X0.1240*%
%ADD15R,0.0630X0.0709*%
%ADD16R,0.0433X0.0394*%
%ADD17R,0.0394X0.0433*%
%ADD18R,0.0591X0.0512*%
%ADD19R,0.0709X0.1417*%
%ADD20R,0.0709X0.0945*%
%ADD21R,0.0630X0.1063*%
%ADD22R,0.0087X0.0394*%
%ADD23R,0.0394X0.0087*%
%ADD24R,0.0480X0.0880*%
%ADD25R,0.1417X0.0866*%
%ADD26R,0.0701X0.0283*%
%ADD27R,0.0413X0.0425*%
%ADD28C,0.0118*%
%ADD29R,0.0236X0.0630*%
D10*
X005549Y013071D03*
X005746Y013071D03*
X005943Y013071D03*
X006140Y013071D03*
X006337Y013071D03*
X006534Y013071D03*
X006731Y013071D03*
X006927Y013071D03*
X007124Y013071D03*
X007321Y013071D03*
X007518Y013071D03*
X007715Y013071D03*
X007912Y013071D03*
X008109Y013071D03*
X008305Y013071D03*
X008502Y013071D03*
X008699Y013071D03*
X008896Y013071D03*
X009093Y013071D03*
X009290Y013071D03*
X009486Y013071D03*
X009683Y013071D03*
X009880Y013071D03*
X010077Y013071D03*
X010274Y013071D03*
X010471Y013071D03*
X010668Y013071D03*
X010864Y013071D03*
X010864Y016260D03*
X010668Y016260D03*
X010471Y016260D03*
X010274Y016260D03*
X010077Y016260D03*
X009880Y016260D03*
X009683Y016260D03*
X009486Y016260D03*
X009290Y016260D03*
X009093Y016260D03*
X008896Y016260D03*
X008699Y016260D03*
X008502Y016260D03*
X008305Y016260D03*
X008109Y016260D03*
X007912Y016260D03*
X007715Y016260D03*
X007518Y016260D03*
X007321Y016260D03*
X007124Y016260D03*
X006927Y016260D03*
X006731Y016260D03*
X006534Y016260D03*
X006337Y016260D03*
X006140Y016260D03*
X005943Y016260D03*
X005746Y016260D03*
X005549Y016260D03*
D11*
X008207Y014665D03*
D12*
X008850Y009768D03*
X008850Y009268D03*
X008850Y008768D03*
X008850Y008268D03*
X004050Y008268D03*
X004050Y008768D03*
X004050Y009268D03*
X004050Y009768D03*
X013650Y009768D03*
X013650Y009268D03*
X013650Y008768D03*
X013650Y008268D03*
D13*
X011593Y009023D03*
X006793Y009023D03*
X001993Y009023D03*
D14*
X002800Y009018D03*
X007600Y009018D03*
X012400Y009018D03*
D15*
X001619Y003314D03*
X001619Y004101D03*
X001619Y004889D03*
X001619Y005676D03*
X001619Y006464D03*
X002721Y006464D03*
X002721Y005676D03*
X002721Y004889D03*
X002721Y004101D03*
X002721Y003314D03*
X003047Y007538D03*
X004149Y007538D03*
X007870Y007505D03*
X008972Y007505D03*
X012735Y007525D03*
X013607Y006424D03*
X013607Y005637D03*
X013607Y004849D03*
X013607Y004062D03*
X013607Y003275D03*
X014709Y003275D03*
X014709Y004062D03*
X014709Y004849D03*
X014709Y005637D03*
X014709Y006424D03*
X013838Y007525D03*
D16*
X014328Y009883D03*
X014328Y010553D03*
X014633Y011218D03*
X014633Y011887D03*
X013607Y011053D03*
X013607Y010383D03*
X011519Y011597D03*
X010849Y011597D03*
X010257Y011575D03*
X009587Y011575D03*
X009607Y010553D03*
X009607Y009883D03*
X008630Y010364D03*
X008630Y011033D03*
X008722Y011634D03*
X008053Y011634D03*
X007168Y011673D03*
X006498Y011673D03*
X004928Y012795D03*
X004928Y013464D03*
X004127Y012790D03*
X004127Y012121D03*
X004007Y011053D03*
X004007Y010383D03*
X004807Y010553D03*
X004807Y009883D03*
X009727Y016934D03*
X009727Y017603D03*
X010005Y018545D03*
X009336Y018545D03*
X010684Y017610D03*
X010684Y016941D03*
X011367Y017486D03*
X011504Y016817D03*
X011504Y016148D03*
X011507Y015586D03*
X011507Y014916D03*
X012589Y015901D03*
X012589Y016570D03*
X012036Y017486D03*
X013601Y017448D03*
X014270Y017448D03*
X012721Y021719D03*
X012721Y022389D03*
X010357Y023230D03*
X010355Y023726D03*
X009686Y023726D03*
X009688Y023230D03*
X006716Y024148D03*
X006047Y024148D03*
D17*
X003669Y023101D03*
X003669Y022431D03*
X003943Y020240D03*
X003943Y019571D03*
X002721Y020164D03*
X002052Y020164D03*
X005033Y015045D03*
X005033Y014376D03*
X003314Y012787D03*
X003314Y012118D03*
X006623Y017173D03*
X006623Y017842D03*
X008173Y017949D03*
X008173Y017279D03*
X010693Y018155D03*
X010693Y018824D03*
X012121Y021708D03*
X012121Y022377D03*
X011535Y014183D03*
X011535Y013514D03*
X011527Y012916D03*
X011527Y012246D03*
D18*
X008946Y017005D03*
X008946Y017753D03*
D19*
X012473Y014237D03*
X014048Y014237D03*
D20*
X013959Y012756D03*
X012365Y012756D03*
D21*
X013438Y016249D03*
X014540Y016249D03*
X010658Y008818D03*
X009556Y008818D03*
X005858Y008818D03*
X004756Y008818D03*
D22*
X005483Y018895D03*
X005680Y018895D03*
X005876Y018895D03*
X006073Y018895D03*
X006270Y018895D03*
X006467Y018895D03*
X006664Y018895D03*
X006861Y018895D03*
X007058Y018895D03*
X007254Y018895D03*
X007451Y018895D03*
X007648Y018895D03*
X007845Y018895D03*
X008042Y018895D03*
X008239Y018895D03*
X008435Y018895D03*
X008435Y023423D03*
X008239Y023423D03*
X008042Y023423D03*
X007845Y023423D03*
X007648Y023423D03*
X007451Y023423D03*
X007254Y023423D03*
X007058Y023423D03*
X006861Y023423D03*
X006664Y023423D03*
X006467Y023423D03*
X006270Y023423D03*
X006073Y023423D03*
X005876Y023423D03*
X005680Y023423D03*
X005483Y023423D03*
D23*
X004695Y022636D03*
X004695Y022439D03*
X004695Y022242D03*
X004695Y022045D03*
X004695Y021848D03*
X004695Y021651D03*
X004695Y021454D03*
X004695Y021258D03*
X004695Y021061D03*
X004695Y020864D03*
X004695Y020667D03*
X004695Y020470D03*
X004695Y020273D03*
X004695Y020076D03*
X004695Y019880D03*
X004695Y019683D03*
X009223Y019683D03*
X009223Y019880D03*
X009223Y020076D03*
X009223Y020273D03*
X009223Y020470D03*
X009223Y020667D03*
X009223Y020864D03*
X009223Y021061D03*
X009223Y021258D03*
X009223Y021454D03*
X009223Y021651D03*
X009223Y021848D03*
X009223Y022045D03*
X009223Y022242D03*
X009223Y022439D03*
X009223Y022636D03*
D24*
X011485Y018383D03*
X012394Y018383D03*
X013304Y018383D03*
D25*
X012394Y020823D03*
D26*
X004572Y017942D03*
X004572Y017442D03*
X004572Y016942D03*
X004572Y016442D03*
X002721Y016442D03*
X002721Y016942D03*
X002721Y017442D03*
X002721Y017942D03*
D27*
X002731Y018826D03*
X002042Y018826D03*
X003991Y018570D03*
X004680Y018570D03*
D28*
X002574Y019456D02*
X002574Y019732D01*
X002850Y019732D01*
X002850Y019456D01*
X002574Y019456D01*
X002574Y019573D02*
X002850Y019573D01*
X002850Y019690D02*
X002574Y019690D01*
X001884Y019732D02*
X001884Y019456D01*
X001884Y019732D02*
X002160Y019732D01*
X002160Y019456D01*
X001884Y019456D01*
X001884Y019573D02*
X002160Y019573D01*
X002160Y019690D02*
X001884Y019690D01*
X012258Y023058D02*
X012258Y023334D01*
X012258Y023058D02*
X011982Y023058D01*
X011982Y023334D01*
X012258Y023334D01*
X012258Y023175D02*
X011982Y023175D01*
X011982Y023292D02*
X012258Y023292D01*
X012948Y023334D02*
X012948Y023058D01*
X012672Y023058D01*
X012672Y023334D01*
X012948Y023334D01*
X012948Y023175D02*
X012672Y023175D01*
X012672Y023292D02*
X012948Y023292D01*
D29*
X008469Y024279D03*
X007997Y024279D03*
X007524Y024279D03*
M02*
