G75*
%MOIN*%
%OFA0B0*%
%FSLAX24Y24*%
%IPPOS*%
%LPD*%
%AMOC8*
5,1,8,0,0,1.08239X$1,22.5*
%
%ADD10C,0.0515*%
%ADD11C,0.0827*%
%ADD12C,0.0298*%
%ADD13C,0.0396*%
%ADD14C,0.0286*%
%ADD15C,0.0160*%
D10*
X007457Y014665D03*
X008207Y014665D03*
X008957Y014665D03*
D11*
X006909Y007468D03*
X011730Y007468D03*
X002009Y007468D03*
D12*
X004670Y011542D03*
X005044Y011542D03*
X005615Y011542D03*
X005792Y012015D03*
X006501Y011680D03*
X006875Y012094D03*
X006599Y012645D03*
X005831Y014042D03*
X005851Y014790D03*
X006343Y015538D03*
X006619Y014554D03*
X006087Y016739D03*
X006127Y017192D03*
X006658Y018373D03*
X005792Y021464D03*
X006068Y021838D03*
X005890Y022428D03*
X006323Y022842D03*
X006560Y022428D03*
X007032Y022448D03*
X007682Y022802D03*
X007741Y021680D03*
X008272Y021739D03*
X009198Y022960D03*
X009906Y022113D03*
X010379Y022566D03*
X011146Y022586D03*
X010930Y021680D03*
X010438Y020873D03*
X010930Y019633D03*
X011481Y018412D03*
X012386Y018393D03*
X013292Y019712D03*
X010635Y014751D03*
X009867Y014534D03*
X009847Y013865D03*
X010772Y012625D03*
X011619Y011050D03*
X010103Y010322D03*
X009611Y010558D03*
X009591Y011562D03*
X008646Y010361D03*
X008036Y011641D03*
X008194Y012054D03*
X004926Y012802D03*
X003883Y017428D03*
X005182Y022664D03*
X004296Y023235D03*
X006914Y024160D03*
X009867Y019613D03*
X009375Y019082D03*
X009316Y018550D03*
X009729Y017605D03*
D13*
X001619Y003314D03*
X001619Y004101D03*
X001619Y004889D03*
X001619Y005676D03*
X001619Y006464D03*
X003036Y007527D03*
X004138Y007527D03*
X004946Y006011D03*
X004946Y005656D03*
X004946Y005302D03*
X005438Y005302D03*
X005438Y005656D03*
X005438Y006011D03*
X007859Y007507D03*
X008981Y007487D03*
X009079Y006011D03*
X009079Y005656D03*
X009079Y005302D03*
X009572Y005302D03*
X009572Y005656D03*
X009572Y006011D03*
X012741Y007527D03*
X013843Y007507D03*
X014709Y006424D03*
X014709Y005637D03*
X014709Y004849D03*
X014709Y004062D03*
X014709Y003275D03*
X014631Y011897D03*
X012386Y020873D03*
D14*
X008292Y021306D03*
X008016Y020991D03*
X007721Y020676D03*
X007426Y020361D03*
X006560Y019594D03*
X005162Y017940D03*
X004178Y016424D03*
X003331Y015420D03*
X002052Y016916D03*
X002032Y017408D03*
X003292Y019298D03*
X003686Y021975D03*
D15*
X003892Y021753D02*
X005683Y021753D01*
X005731Y021772D02*
X005617Y021725D01*
X005530Y021639D01*
X005483Y021525D01*
X005483Y021402D01*
X005530Y021289D01*
X005617Y021202D01*
X005731Y021155D01*
X005853Y021155D01*
X005967Y021202D01*
X006054Y021289D01*
X006101Y021402D01*
X006101Y021525D01*
X006099Y021529D01*
X006129Y021529D01*
X006243Y021576D01*
X006329Y021663D01*
X006376Y021776D01*
X006376Y021899D01*
X006329Y022013D01*
X006243Y022099D01*
X006129Y022146D01*
X006018Y022146D01*
X006065Y022166D01*
X006152Y022253D01*
X006199Y022367D01*
X006199Y022490D01*
X006152Y022603D01*
X006065Y022690D01*
X005952Y022737D01*
X005829Y022737D01*
X005715Y022690D01*
X005629Y022603D01*
X005582Y022490D01*
X005582Y022367D01*
X005629Y022253D01*
X005715Y022166D01*
X005829Y022119D01*
X005940Y022119D01*
X005893Y022099D01*
X005806Y022013D01*
X005759Y021899D01*
X005759Y021776D01*
X005760Y021772D01*
X005731Y021772D01*
X005764Y021911D02*
X003987Y021911D01*
X003989Y021915D02*
X003943Y021804D01*
X003857Y021719D01*
X003746Y021672D01*
X003625Y021672D01*
X003514Y021719D01*
X003429Y021804D01*
X003383Y021915D01*
X003383Y022036D01*
X003429Y022147D01*
X003514Y022232D01*
X003625Y022278D01*
X003746Y022278D01*
X003857Y022232D01*
X003943Y022147D01*
X003989Y022036D01*
X003989Y021915D01*
X003974Y022070D02*
X005863Y022070D01*
X005653Y022228D02*
X003861Y022228D01*
X003510Y022228D02*
X002499Y022228D01*
X002412Y022264D02*
X002164Y022264D01*
X001935Y022169D01*
X001759Y021994D01*
X001664Y021765D01*
X001664Y021517D01*
X001759Y021287D01*
X001935Y021112D01*
X002164Y021017D01*
X002412Y021017D01*
X002641Y021112D01*
X002817Y021287D01*
X002912Y021517D01*
X002912Y021765D01*
X002817Y021994D01*
X002641Y022169D01*
X002412Y022264D01*
X002077Y022228D02*
X001386Y022228D01*
X001386Y022312D02*
X003962Y024889D01*
X012425Y024889D01*
X014985Y022329D01*
X014985Y011011D01*
X011928Y011011D01*
X011928Y011112D01*
X011881Y011225D01*
X011794Y011312D01*
X011680Y011359D01*
X011557Y011359D01*
X011444Y011312D01*
X011357Y011225D01*
X011310Y011112D01*
X011310Y011011D01*
X001386Y011011D01*
X001386Y022312D01*
X001461Y022387D02*
X005044Y022387D01*
X005007Y022402D02*
X005120Y022355D01*
X005243Y022355D01*
X005357Y022402D01*
X005444Y022489D01*
X005491Y022603D01*
X005491Y022726D01*
X005444Y022839D01*
X005357Y022926D01*
X005243Y022973D01*
X005120Y022973D01*
X005007Y022926D01*
X004920Y022839D01*
X004873Y022726D01*
X004873Y022603D01*
X004920Y022489D01*
X005007Y022402D01*
X004897Y022545D02*
X001619Y022545D01*
X001778Y022704D02*
X004873Y022704D01*
X004943Y022862D02*
X001936Y022862D01*
X002095Y023021D02*
X004073Y023021D01*
X004034Y023060D02*
X004121Y022973D01*
X004234Y022926D01*
X004357Y022926D01*
X004471Y022973D01*
X004558Y023060D01*
X004605Y023174D01*
X004605Y023297D01*
X004558Y023410D01*
X004471Y023497D01*
X004357Y023544D01*
X004234Y023544D01*
X004121Y023497D01*
X004034Y023410D01*
X003987Y023297D01*
X003987Y023174D01*
X004034Y023060D01*
X003987Y023179D02*
X002253Y023179D01*
X002412Y023338D02*
X004004Y023338D01*
X004120Y023496D02*
X002570Y023496D01*
X002729Y023655D02*
X013659Y023655D01*
X013817Y023496D02*
X004472Y023496D01*
X004588Y023338D02*
X013976Y023338D01*
X014134Y023179D02*
X009415Y023179D01*
X009372Y023222D02*
X009259Y023269D01*
X009136Y023269D01*
X009023Y023222D01*
X008936Y023135D01*
X008889Y023021D01*
X007900Y023021D01*
X007857Y023064D02*
X007944Y022977D01*
X007991Y022864D01*
X007991Y022741D01*
X007944Y022627D01*
X007857Y022540D01*
X007743Y022493D01*
X007620Y022493D01*
X007507Y022540D01*
X007420Y022627D01*
X007373Y022741D01*
X007373Y022864D01*
X007420Y022977D01*
X007507Y023064D01*
X007620Y023111D01*
X007743Y023111D01*
X007857Y023064D01*
X007991Y022862D02*
X008903Y022862D01*
X008889Y022898D02*
X008936Y022785D01*
X009023Y022698D01*
X009136Y022651D01*
X009259Y022651D01*
X009372Y022698D01*
X009459Y022785D01*
X009506Y022898D01*
X009506Y023021D01*
X014293Y023021D01*
X014451Y022862D02*
X011285Y022862D01*
X011321Y022848D02*
X011208Y022895D01*
X011085Y022895D01*
X010971Y022848D01*
X010884Y022761D01*
X010837Y022647D01*
X010837Y022524D01*
X010884Y022411D01*
X010971Y022324D01*
X011085Y022277D01*
X011208Y022277D01*
X011321Y022324D01*
X011408Y022411D01*
X011455Y022524D01*
X011455Y022647D01*
X011408Y022761D01*
X011321Y022848D01*
X011432Y022704D02*
X014610Y022704D01*
X014768Y022545D02*
X011455Y022545D01*
X011384Y022387D02*
X014927Y022387D01*
X014985Y022228D02*
X014310Y022228D01*
X014223Y022264D02*
X013975Y022264D01*
X013746Y022169D01*
X013570Y021994D01*
X013475Y021765D01*
X013475Y021517D01*
X013570Y021287D01*
X013746Y021112D01*
X013975Y021017D01*
X014223Y021017D01*
X014452Y021112D01*
X014628Y021287D01*
X014723Y021517D01*
X014723Y021765D01*
X014628Y021994D01*
X014452Y022169D01*
X014223Y022264D01*
X013888Y022228D02*
X010193Y022228D01*
X010215Y022175D02*
X010168Y022288D01*
X010081Y022375D01*
X009968Y022422D01*
X009845Y022422D01*
X009731Y022375D01*
X009644Y022288D01*
X009597Y022175D01*
X009597Y022052D01*
X009644Y021938D01*
X009731Y021851D01*
X009845Y021804D01*
X009968Y021804D01*
X010081Y021851D01*
X010168Y021938D01*
X010215Y022052D01*
X010215Y022175D01*
X010215Y022070D02*
X013646Y022070D01*
X013536Y021911D02*
X011135Y021911D01*
X011105Y021942D02*
X010991Y021989D01*
X010868Y021989D01*
X010755Y021942D01*
X010668Y021855D01*
X010621Y021742D01*
X010621Y021619D01*
X010668Y021505D01*
X010755Y021418D01*
X010868Y021371D01*
X010991Y021371D01*
X011105Y021418D01*
X011192Y021505D01*
X011239Y021619D01*
X011239Y021742D01*
X011192Y021855D01*
X011105Y021942D01*
X011234Y021753D02*
X013475Y021753D01*
X013475Y021594D02*
X011229Y021594D01*
X011122Y021436D02*
X013509Y021436D01*
X013580Y021277D02*
X008595Y021277D01*
X008595Y021246D02*
X008595Y021366D01*
X008549Y021478D01*
X008498Y021528D01*
X008534Y021564D01*
X008581Y021678D01*
X008581Y021801D01*
X008534Y021914D01*
X008447Y022001D01*
X008334Y022048D01*
X008211Y022048D01*
X008097Y022001D01*
X008010Y021914D01*
X007991Y021867D01*
X007916Y021942D01*
X007802Y021989D01*
X007679Y021989D01*
X007566Y021942D01*
X007479Y021855D01*
X007432Y021742D01*
X007432Y021619D01*
X007479Y021505D01*
X007566Y021418D01*
X007679Y021371D01*
X007802Y021371D01*
X007916Y021418D01*
X008003Y021505D01*
X008022Y021552D01*
X008066Y021509D01*
X008035Y021478D01*
X007989Y021366D01*
X007989Y021294D01*
X007956Y021294D01*
X007845Y021248D01*
X007760Y021163D01*
X007713Y021051D01*
X007713Y020979D01*
X007661Y020979D01*
X007549Y020933D01*
X007464Y020848D01*
X007418Y020736D01*
X007418Y020664D01*
X007366Y020664D01*
X007254Y020618D01*
X007169Y020533D01*
X007123Y020421D01*
X007123Y020301D01*
X007169Y020190D01*
X007254Y020104D01*
X007366Y020058D01*
X007486Y020058D01*
X007597Y020104D01*
X007683Y020190D01*
X007729Y020301D01*
X007729Y020373D01*
X007781Y020373D01*
X007893Y020419D01*
X007978Y020505D01*
X008024Y020616D01*
X008024Y020688D01*
X008077Y020688D01*
X008188Y020734D01*
X008273Y020820D01*
X008319Y020931D01*
X008319Y021003D01*
X008352Y021003D01*
X008464Y021049D01*
X008549Y021134D01*
X008595Y021246D01*
X008533Y021119D02*
X010247Y021119D01*
X010263Y021135D02*
X010176Y021048D01*
X010129Y020934D01*
X010129Y020812D01*
X010176Y020698D01*
X010263Y020611D01*
X010376Y020564D01*
X010499Y020564D01*
X010613Y020611D01*
X010700Y020698D01*
X010747Y020812D01*
X010747Y020934D01*
X010700Y021048D01*
X010613Y021135D01*
X010499Y021182D01*
X010376Y021182D01*
X010263Y021135D01*
X010140Y020960D02*
X008319Y020960D01*
X008256Y020802D02*
X010133Y020802D01*
X010230Y020643D02*
X008024Y020643D01*
X007958Y020485D02*
X014985Y020485D01*
X014985Y020643D02*
X012663Y020643D01*
X012690Y020670D02*
X012745Y020802D01*
X014985Y020802D01*
X014985Y020960D02*
X012738Y020960D01*
X012745Y020944D02*
X012690Y021076D01*
X012589Y021177D01*
X012458Y021231D01*
X012315Y021231D01*
X012184Y021177D01*
X012083Y021076D01*
X012028Y020944D01*
X012028Y020802D01*
X010743Y020802D01*
X010736Y020960D02*
X012035Y020960D01*
X012028Y020802D02*
X012083Y020670D01*
X012184Y020569D01*
X012315Y020515D01*
X012458Y020515D01*
X012589Y020569D01*
X012690Y020670D01*
X012745Y020802D02*
X012745Y020944D01*
X012647Y021119D02*
X013739Y021119D01*
X013353Y020021D02*
X013231Y020021D01*
X013117Y019973D01*
X013030Y019887D01*
X012983Y019773D01*
X012983Y019650D01*
X013030Y019537D01*
X013117Y019450D01*
X013231Y019403D01*
X013353Y019403D01*
X013467Y019450D01*
X013554Y019537D01*
X013601Y019650D01*
X013601Y019773D01*
X013554Y019887D01*
X013467Y019973D01*
X013353Y020021D01*
X013380Y020009D02*
X014985Y020009D01*
X014985Y019851D02*
X013569Y019851D01*
X013601Y019692D02*
X014985Y019692D01*
X014985Y019534D02*
X013551Y019534D01*
X013204Y020009D02*
X001386Y020009D01*
X001386Y019851D02*
X006389Y019851D01*
X006388Y019850D02*
X006303Y019765D01*
X006257Y019654D01*
X006257Y019533D01*
X006303Y019422D01*
X006388Y019337D01*
X006499Y019291D01*
X006620Y019291D01*
X006731Y019337D01*
X006817Y019422D01*
X006863Y019533D01*
X006863Y019654D01*
X006817Y019765D01*
X006731Y019850D01*
X006620Y019896D01*
X006499Y019896D01*
X006388Y019850D01*
X006273Y019692D02*
X001386Y019692D01*
X001386Y019534D02*
X003099Y019534D01*
X003120Y019555D02*
X003035Y019470D01*
X002989Y019358D01*
X002989Y019238D01*
X003035Y019127D01*
X003120Y019041D01*
X003232Y018995D01*
X003352Y018995D01*
X003464Y019041D01*
X003549Y019127D01*
X003595Y019238D01*
X003595Y019358D01*
X003549Y019470D01*
X003464Y019555D01*
X003352Y019601D01*
X003232Y019601D01*
X003120Y019555D01*
X002996Y019375D02*
X001386Y019375D01*
X001386Y019217D02*
X002998Y019217D01*
X003103Y019058D02*
X001386Y019058D01*
X001386Y018900D02*
X009120Y018900D01*
X009113Y018907D02*
X009188Y018832D01*
X009141Y018812D01*
X009054Y018725D01*
X009007Y018612D01*
X009007Y018489D01*
X009054Y018375D01*
X009141Y018288D01*
X009254Y018241D01*
X009377Y018241D01*
X009491Y018288D01*
X009577Y018375D01*
X009625Y018489D01*
X009625Y018612D01*
X009577Y018725D01*
X009502Y018800D01*
X009550Y018820D01*
X009637Y018907D01*
X009684Y019020D01*
X009684Y019143D01*
X009637Y019257D01*
X009550Y019344D01*
X009436Y019391D01*
X009313Y019391D01*
X009200Y019344D01*
X009113Y019257D01*
X009066Y019143D01*
X009066Y019020D01*
X009113Y018907D01*
X009066Y019058D02*
X003481Y019058D01*
X003586Y019217D02*
X009096Y019217D01*
X009277Y019375D02*
X006770Y019375D01*
X006863Y019534D02*
X009565Y019534D01*
X009558Y019552D02*
X009605Y019438D01*
X009692Y019351D01*
X009805Y019304D01*
X009928Y019304D01*
X010042Y019351D01*
X010129Y019438D01*
X010176Y019552D01*
X010176Y019675D01*
X010129Y019788D01*
X010042Y019875D01*
X009928Y019922D01*
X009805Y019922D01*
X009692Y019875D01*
X009605Y019788D01*
X009558Y019675D01*
X009558Y019552D01*
X009565Y019692D02*
X006847Y019692D01*
X006730Y019851D02*
X009668Y019851D01*
X009668Y019375D02*
X009473Y019375D01*
X009653Y019217D02*
X014985Y019217D01*
X014985Y019375D02*
X011109Y019375D01*
X011105Y019371D02*
X011192Y019458D01*
X011239Y019571D01*
X011239Y019694D01*
X011192Y019808D01*
X011105Y019895D01*
X010991Y019942D01*
X010868Y019942D01*
X010755Y019895D01*
X010668Y019808D01*
X010621Y019694D01*
X010621Y019571D01*
X010668Y019458D01*
X010755Y019371D01*
X010868Y019324D01*
X010991Y019324D01*
X011105Y019371D01*
X011223Y019534D02*
X013033Y019534D01*
X012983Y019692D02*
X011239Y019692D01*
X011149Y019851D02*
X013015Y019851D01*
X012561Y018655D02*
X012448Y018702D01*
X012325Y018702D01*
X012212Y018655D01*
X012125Y018568D01*
X012078Y018454D01*
X012078Y018331D01*
X012125Y018218D01*
X012212Y018131D01*
X012325Y018084D01*
X012448Y018084D01*
X012561Y018131D01*
X012648Y018218D01*
X012695Y018331D01*
X012695Y018454D01*
X012648Y018568D01*
X012561Y018655D01*
X012633Y018583D02*
X014985Y018583D01*
X014985Y018741D02*
X009561Y018741D01*
X009625Y018583D02*
X012140Y018583D01*
X012078Y018424D02*
X009598Y018424D01*
X009437Y018266D02*
X012105Y018266D01*
X012268Y018107D02*
X005421Y018107D01*
X005419Y018112D02*
X005334Y018197D01*
X005222Y018243D01*
X005102Y018243D01*
X004990Y018197D01*
X004905Y018112D01*
X004859Y018000D01*
X004859Y017880D01*
X004905Y017768D01*
X004990Y017683D01*
X005102Y017637D01*
X005222Y017637D01*
X005334Y017683D01*
X005419Y017768D01*
X005465Y017880D01*
X005465Y018000D01*
X005419Y018112D01*
X005465Y017949D02*
X014985Y017949D01*
X014985Y018107D02*
X012505Y018107D01*
X012668Y018266D02*
X014985Y018266D01*
X014985Y018424D02*
X012695Y018424D01*
X012110Y020643D02*
X010645Y020643D01*
X010629Y021119D02*
X012126Y021119D01*
X010908Y022387D02*
X010052Y022387D01*
X009760Y022387D02*
X007341Y022387D01*
X007341Y022386D02*
X007341Y022509D01*
X007294Y022623D01*
X007207Y022710D01*
X007094Y022757D01*
X006971Y022757D01*
X006857Y022710D01*
X006786Y022639D01*
X006735Y022690D01*
X006621Y022737D01*
X006498Y022737D01*
X006385Y022690D01*
X006298Y022603D01*
X006251Y022490D01*
X006251Y022367D01*
X006298Y022253D01*
X006385Y022166D01*
X006498Y022119D01*
X006621Y022119D01*
X006735Y022166D01*
X006806Y022237D01*
X006857Y022186D01*
X006971Y022139D01*
X007094Y022139D01*
X007207Y022186D01*
X007294Y022273D01*
X007341Y022386D01*
X007326Y022545D02*
X007502Y022545D01*
X007388Y022704D02*
X007213Y022704D01*
X007373Y022862D02*
X005421Y022862D01*
X005491Y022704D02*
X005749Y022704D01*
X005605Y022545D02*
X005467Y022545D01*
X005582Y022387D02*
X005319Y022387D01*
X005512Y021594D02*
X002912Y021594D01*
X002912Y021753D02*
X003480Y021753D01*
X003384Y021911D02*
X002851Y021911D01*
X002741Y022070D02*
X003397Y022070D01*
X002878Y021436D02*
X005483Y021436D01*
X005541Y021277D02*
X002807Y021277D01*
X002648Y021119D02*
X007741Y021119D01*
X007616Y020960D02*
X001386Y020960D01*
X001386Y020802D02*
X007445Y020802D01*
X007315Y020643D02*
X001386Y020643D01*
X001386Y020485D02*
X007149Y020485D01*
X007123Y020326D02*
X001386Y020326D01*
X001386Y020168D02*
X007191Y020168D01*
X007661Y020168D02*
X014985Y020168D01*
X014985Y020326D02*
X007729Y020326D01*
X007916Y021277D02*
X006043Y021277D01*
X006101Y021436D02*
X007548Y021436D01*
X007442Y021594D02*
X006261Y021594D01*
X006367Y021753D02*
X007437Y021753D01*
X007535Y021911D02*
X006371Y021911D01*
X006272Y022070D02*
X009597Y022070D01*
X009620Y022228D02*
X007250Y022228D01*
X006815Y022228D02*
X006797Y022228D01*
X006851Y022704D02*
X006701Y022704D01*
X006418Y022704D02*
X006032Y022704D01*
X006176Y022545D02*
X006274Y022545D01*
X006251Y022387D02*
X006199Y022387D01*
X006128Y022228D02*
X006323Y022228D01*
X007464Y023021D02*
X004518Y023021D01*
X004605Y023179D02*
X008980Y023179D01*
X008889Y023021D02*
X008889Y022898D01*
X009016Y022704D02*
X007975Y022704D01*
X007862Y022545D02*
X010837Y022545D01*
X010861Y022704D02*
X009379Y022704D01*
X009492Y022862D02*
X011007Y022862D01*
X010724Y021911D02*
X010141Y021911D01*
X009671Y021911D02*
X008535Y021911D01*
X008581Y021753D02*
X010626Y021753D01*
X010631Y021594D02*
X008547Y021594D01*
X008566Y021436D02*
X010737Y021436D01*
X010711Y019851D02*
X010066Y019851D01*
X010168Y019692D02*
X010621Y019692D01*
X010636Y019534D02*
X010168Y019534D01*
X010066Y019375D02*
X010750Y019375D01*
X009684Y019058D02*
X014985Y019058D01*
X014985Y018900D02*
X009630Y018900D01*
X009195Y018266D02*
X001386Y018266D01*
X001386Y018424D02*
X009033Y018424D01*
X009007Y018583D02*
X001386Y018583D01*
X001386Y018741D02*
X009070Y018741D01*
X008018Y021436D02*
X007933Y021436D01*
X007946Y021911D02*
X008009Y021911D01*
X007089Y023899D02*
X006975Y023852D01*
X006853Y023852D01*
X006739Y023899D01*
X006652Y023985D01*
X006605Y024099D01*
X006605Y024222D01*
X006652Y024335D01*
X006739Y024422D01*
X006853Y024469D01*
X006975Y024469D01*
X007089Y024422D01*
X007176Y024335D01*
X007223Y024222D01*
X007223Y024099D01*
X007176Y023985D01*
X007089Y023899D01*
X007162Y023972D02*
X013342Y023972D01*
X013500Y023813D02*
X002887Y023813D01*
X003046Y023972D02*
X006666Y023972D01*
X006605Y024130D02*
X003204Y024130D01*
X003363Y024289D02*
X006633Y024289D01*
X006800Y024447D02*
X003521Y024447D01*
X003680Y024606D02*
X012708Y024606D01*
X012866Y024447D02*
X007028Y024447D01*
X007195Y024289D02*
X013025Y024289D01*
X013183Y024130D02*
X007223Y024130D01*
X009372Y023222D02*
X009459Y023135D01*
X009506Y023021D01*
X012549Y024764D02*
X003838Y024764D01*
X001835Y022070D02*
X001386Y022070D01*
X001386Y021911D02*
X001725Y021911D01*
X001664Y021753D02*
X001386Y021753D01*
X001386Y021594D02*
X001664Y021594D01*
X001698Y021436D02*
X001386Y021436D01*
X001386Y021277D02*
X001769Y021277D01*
X001928Y021119D02*
X001386Y021119D01*
X001386Y018107D02*
X004903Y018107D01*
X004859Y017949D02*
X001386Y017949D01*
X001386Y017790D02*
X004896Y017790D01*
X005428Y017790D02*
X014985Y017790D01*
X014985Y017632D02*
X004116Y017632D01*
X004144Y017603D02*
X004058Y017690D01*
X003944Y017737D01*
X003821Y017737D01*
X003708Y017690D01*
X003621Y017603D01*
X003574Y017490D01*
X003574Y017367D01*
X003621Y017253D01*
X003708Y017166D01*
X003821Y017119D01*
X003944Y017119D01*
X004058Y017166D01*
X004144Y017253D01*
X004191Y017367D01*
X004191Y017490D01*
X004144Y017603D01*
X004191Y017473D02*
X005999Y017473D01*
X005952Y017454D02*
X005865Y017367D01*
X005818Y017253D01*
X005818Y017130D01*
X005865Y017017D01*
X005896Y016985D01*
X005825Y016914D01*
X005778Y016801D01*
X005778Y016678D01*
X005825Y016564D01*
X005912Y016477D01*
X006026Y016430D01*
X006149Y016430D01*
X006262Y016477D01*
X006349Y016564D01*
X006396Y016678D01*
X006396Y016801D01*
X006349Y016914D01*
X006317Y016946D01*
X006389Y017017D01*
X006436Y017130D01*
X006436Y017253D01*
X006389Y017367D01*
X006302Y017454D01*
X006188Y017501D01*
X006065Y017501D01*
X005952Y017454D01*
X005843Y017315D02*
X004170Y017315D01*
X004034Y017156D02*
X005818Y017156D01*
X005884Y016998D02*
X002346Y016998D01*
X002355Y016977D02*
X002309Y017088D01*
X002224Y017172D01*
X002289Y017237D01*
X002335Y017348D01*
X002335Y017469D01*
X002289Y017580D01*
X002204Y017665D01*
X002092Y017711D01*
X001972Y017711D01*
X001861Y017665D01*
X001775Y017580D01*
X001729Y017469D01*
X001729Y017348D01*
X001775Y017237D01*
X001860Y017153D01*
X001795Y017088D01*
X001749Y016977D01*
X001749Y016856D01*
X001795Y016745D01*
X001880Y016659D01*
X001992Y016613D01*
X002112Y016613D01*
X002223Y016659D01*
X002309Y016745D01*
X002355Y016856D01*
X002355Y016977D01*
X002348Y016839D02*
X005794Y016839D01*
X005778Y016681D02*
X004350Y016681D01*
X004349Y016681D02*
X004238Y016727D01*
X004118Y016727D01*
X004006Y016681D01*
X002245Y016681D01*
X001859Y016681D02*
X001386Y016681D01*
X001386Y016839D02*
X001756Y016839D01*
X001758Y016998D02*
X001386Y016998D01*
X001386Y017156D02*
X001856Y017156D01*
X001743Y017315D02*
X001386Y017315D01*
X001386Y017473D02*
X001731Y017473D01*
X001827Y017632D02*
X001386Y017632D01*
X001386Y016522D02*
X003891Y016522D01*
X003875Y016484D02*
X003875Y016364D01*
X001386Y016364D01*
X001386Y016205D02*
X003968Y016205D01*
X004006Y016167D02*
X004118Y016121D01*
X004238Y016121D01*
X004349Y016167D01*
X004435Y016253D01*
X004481Y016364D01*
X004481Y016484D01*
X004435Y016596D01*
X004349Y016681D01*
X004465Y016522D02*
X005867Y016522D01*
X006307Y016522D02*
X014985Y016522D01*
X014985Y016364D02*
X004481Y016364D01*
X004388Y016205D02*
X014985Y016205D01*
X014985Y016047D02*
X001386Y016047D01*
X001386Y015888D02*
X014985Y015888D01*
X014985Y015730D02*
X006588Y015730D01*
X006605Y015713D02*
X006518Y015800D01*
X006405Y015847D01*
X006282Y015847D01*
X006168Y015800D01*
X006081Y015713D01*
X006034Y015600D01*
X006034Y015477D01*
X006081Y015363D01*
X006168Y015277D01*
X006282Y015229D01*
X006405Y015229D01*
X006518Y015277D01*
X006605Y015363D01*
X006652Y015477D01*
X006652Y015600D01*
X006605Y015713D01*
X006652Y015571D02*
X014985Y015571D01*
X014985Y015413D02*
X006626Y015413D01*
X006465Y015254D02*
X014985Y015254D01*
X014985Y015096D02*
X001386Y015096D01*
X001386Y015254D02*
X006222Y015254D01*
X006061Y015413D02*
X001386Y015413D01*
X001386Y015571D02*
X006034Y015571D01*
X006098Y015730D02*
X001386Y015730D01*
X001386Y014937D02*
X014985Y014937D01*
X014985Y014779D02*
X001386Y014779D01*
X001386Y014620D02*
X014985Y014620D01*
X014985Y014462D02*
X001386Y014462D01*
X001386Y014303D02*
X005656Y014303D01*
X005656Y014304D02*
X005569Y014217D01*
X005522Y014104D01*
X005522Y013981D01*
X005569Y013867D01*
X005656Y013780D01*
X005770Y013733D01*
X005893Y013733D01*
X006006Y013780D01*
X006093Y013867D01*
X006140Y013981D01*
X006140Y014104D01*
X006093Y014217D01*
X006006Y014304D01*
X005893Y014351D01*
X005770Y014351D01*
X005656Y014304D01*
X005540Y014145D02*
X001386Y014145D01*
X001386Y013986D02*
X005522Y013986D01*
X005609Y013828D02*
X001386Y013828D01*
X001386Y013669D02*
X009606Y013669D01*
X009585Y013690D02*
X009672Y013603D01*
X009786Y013556D01*
X009909Y013556D01*
X010022Y013603D01*
X010109Y013690D01*
X010156Y013804D01*
X010156Y013927D01*
X010109Y014040D01*
X010022Y014127D01*
X009909Y014174D01*
X009786Y014174D01*
X009672Y014127D01*
X009585Y014040D01*
X009538Y013927D01*
X009538Y013804D01*
X009585Y013690D01*
X009538Y013828D02*
X006054Y013828D01*
X006140Y013986D02*
X009563Y013986D01*
X009715Y014145D02*
X006123Y014145D01*
X006007Y014303D02*
X014985Y014303D01*
X014985Y014145D02*
X009979Y014145D01*
X010131Y013986D02*
X014985Y013986D01*
X014985Y013828D02*
X010156Y013828D01*
X010088Y013669D02*
X014985Y013669D01*
X014985Y013511D02*
X001386Y013511D01*
X001386Y013352D02*
X014985Y013352D01*
X014985Y013194D02*
X001386Y013194D01*
X001386Y013035D02*
X004722Y013035D01*
X004751Y013064D02*
X004664Y012977D01*
X004617Y012864D01*
X004617Y012741D01*
X004664Y012627D01*
X004751Y012540D01*
X004864Y012493D01*
X004987Y012493D01*
X005101Y012540D01*
X005188Y012627D01*
X005235Y012741D01*
X005235Y012864D01*
X005188Y012977D01*
X005101Y013064D01*
X004987Y013111D01*
X004864Y013111D01*
X004751Y013064D01*
X004622Y012877D02*
X001386Y012877D01*
X001386Y012718D02*
X004626Y012718D01*
X004731Y012560D02*
X001386Y012560D01*
X001386Y012401D02*
X006405Y012401D01*
X006424Y012383D02*
X006538Y012336D01*
X006661Y012336D01*
X006694Y012350D01*
X006613Y012268D01*
X006566Y012155D01*
X006566Y012032D01*
X006588Y011978D01*
X006562Y011989D01*
X006439Y011989D01*
X006326Y011942D01*
X006239Y011855D01*
X006192Y011742D01*
X006192Y011619D01*
X006239Y011505D01*
X006326Y011418D01*
X006439Y011371D01*
X006562Y011371D01*
X006676Y011418D01*
X006763Y011505D01*
X006810Y011619D01*
X006810Y011742D01*
X006787Y011795D01*
X006813Y011785D01*
X006936Y011785D01*
X007050Y011832D01*
X007137Y011919D01*
X007184Y012032D01*
X007184Y012155D01*
X007137Y012268D01*
X007050Y012355D01*
X006936Y012402D01*
X006813Y012402D01*
X006780Y012389D01*
X006861Y012470D01*
X006908Y012583D01*
X006908Y012706D01*
X006861Y012820D01*
X006774Y012907D01*
X006661Y012954D01*
X006538Y012954D01*
X006424Y012907D01*
X006337Y012820D01*
X006290Y012706D01*
X006290Y012583D01*
X006337Y012470D01*
X006424Y012383D01*
X006300Y012560D02*
X005120Y012560D01*
X005226Y012718D02*
X006295Y012718D01*
X006394Y012877D02*
X005229Y012877D01*
X005129Y013035D02*
X014985Y013035D01*
X014985Y012877D02*
X010957Y012877D01*
X010947Y012887D02*
X010834Y012934D01*
X010711Y012934D01*
X010597Y012887D01*
X010510Y012800D01*
X010463Y012686D01*
X010463Y012564D01*
X010510Y012450D01*
X010597Y012363D01*
X010711Y012316D01*
X010834Y012316D01*
X010947Y012363D01*
X011034Y012450D01*
X011081Y012564D01*
X011081Y012686D01*
X011034Y012800D01*
X010947Y012887D01*
X011068Y012718D02*
X014985Y012718D01*
X014985Y012560D02*
X011080Y012560D01*
X010986Y012401D02*
X014985Y012401D01*
X014985Y012243D02*
X008442Y012243D01*
X008455Y012229D02*
X008369Y012316D01*
X008255Y012363D01*
X008132Y012363D01*
X008019Y012316D01*
X007932Y012229D01*
X007885Y012116D01*
X007885Y011993D01*
X007913Y011924D01*
X007861Y011903D01*
X007774Y011816D01*
X007727Y011702D01*
X007727Y011579D01*
X007774Y011466D01*
X007861Y011379D01*
X007975Y011332D01*
X008098Y011332D01*
X008211Y011379D01*
X008298Y011466D01*
X008345Y011579D01*
X008345Y011702D01*
X008317Y011771D01*
X008369Y011792D01*
X008455Y011879D01*
X008502Y011993D01*
X008502Y012116D01*
X008455Y012229D01*
X008502Y012084D02*
X014985Y012084D01*
X014985Y011926D02*
X008475Y011926D01*
X008318Y011767D02*
X009360Y011767D01*
X009329Y011737D02*
X009416Y011824D01*
X009530Y011871D01*
X009653Y011871D01*
X009766Y011824D01*
X009853Y011737D01*
X009900Y011623D01*
X009900Y011501D01*
X009853Y011387D01*
X009766Y011300D01*
X009653Y011253D01*
X009530Y011253D01*
X009416Y011300D01*
X009329Y011387D01*
X009282Y011501D01*
X009282Y011623D01*
X009329Y011737D01*
X009282Y011609D02*
X008345Y011609D01*
X008283Y011450D02*
X009303Y011450D01*
X009436Y011292D02*
X005801Y011292D01*
X005790Y011280D02*
X005877Y011367D01*
X005924Y011481D01*
X005924Y011604D01*
X005877Y011716D01*
X005967Y011753D01*
X006054Y011840D01*
X006101Y011953D01*
X006101Y012076D01*
X006054Y012190D01*
X005967Y012277D01*
X005853Y012324D01*
X005731Y012324D01*
X005617Y012277D01*
X005530Y012190D01*
X005483Y012076D01*
X005483Y011953D01*
X005529Y011841D01*
X005440Y011804D01*
X005353Y011717D01*
X005329Y011660D01*
X005306Y011717D01*
X005219Y011804D01*
X005105Y011851D01*
X004983Y011851D01*
X004869Y011804D01*
X004857Y011792D01*
X004845Y011804D01*
X004731Y011851D01*
X004609Y011851D01*
X004495Y011804D01*
X004408Y011717D01*
X004361Y011604D01*
X004361Y011481D01*
X004408Y011367D01*
X004495Y011280D01*
X004609Y011233D01*
X004731Y011233D01*
X004845Y011280D01*
X004857Y011292D01*
X004869Y011280D01*
X004983Y011233D01*
X005105Y011233D01*
X005219Y011280D01*
X005306Y011367D01*
X005329Y011424D01*
X005353Y011367D01*
X005440Y011280D01*
X005553Y011233D01*
X005676Y011233D01*
X005790Y011280D01*
X005911Y011450D02*
X006294Y011450D01*
X006196Y011609D02*
X005922Y011609D01*
X005982Y011767D02*
X006202Y011767D01*
X006310Y011926D02*
X006090Y011926D01*
X006097Y012084D02*
X006566Y012084D01*
X006602Y012243D02*
X006001Y012243D01*
X005583Y012243D02*
X001386Y012243D01*
X001386Y012084D02*
X005487Y012084D01*
X005494Y011926D02*
X001386Y011926D01*
X001386Y011767D02*
X004458Y011767D01*
X004363Y011609D02*
X001386Y011609D01*
X001386Y011450D02*
X004374Y011450D01*
X004483Y011292D02*
X001386Y011292D01*
X001386Y011133D02*
X011319Y011133D01*
X011424Y011292D02*
X009746Y011292D01*
X009879Y011450D02*
X014985Y011450D01*
X014985Y011292D02*
X011814Y011292D01*
X011919Y011133D02*
X014985Y011133D01*
X014985Y011609D02*
X009900Y011609D01*
X009823Y011767D02*
X014985Y011767D01*
X014985Y016681D02*
X006396Y016681D01*
X006380Y016839D02*
X014985Y016839D01*
X014985Y016998D02*
X006369Y016998D01*
X006436Y017156D02*
X014985Y017156D01*
X014985Y017315D02*
X006410Y017315D01*
X006254Y017473D02*
X014985Y017473D01*
X014985Y021119D02*
X014459Y021119D01*
X014618Y021277D02*
X014985Y021277D01*
X014985Y021436D02*
X014689Y021436D01*
X014723Y021594D02*
X014985Y021594D01*
X014985Y021753D02*
X014723Y021753D01*
X014662Y021911D02*
X014985Y021911D01*
X014985Y022070D02*
X014552Y022070D01*
X010587Y012877D02*
X006804Y012877D01*
X006903Y012718D02*
X010477Y012718D01*
X010465Y012560D02*
X006898Y012560D01*
X006938Y012401D02*
X010559Y012401D01*
X007946Y012243D02*
X007147Y012243D01*
X007184Y012084D02*
X007885Y012084D01*
X007912Y011926D02*
X007140Y011926D01*
X006799Y011767D02*
X007754Y011767D01*
X007727Y011609D02*
X006806Y011609D01*
X006708Y011450D02*
X007790Y011450D01*
X006811Y012401D02*
X006793Y012401D01*
X005428Y011292D02*
X005230Y011292D01*
X004858Y011292D02*
X004856Y011292D01*
X005256Y011767D02*
X005403Y011767D01*
X004006Y016167D02*
X003921Y016253D01*
X003875Y016364D01*
X003875Y016484D02*
X003921Y016596D01*
X004006Y016681D01*
X003731Y017156D02*
X002240Y017156D01*
X002321Y017315D02*
X003595Y017315D01*
X003574Y017473D02*
X002333Y017473D01*
X002237Y017632D02*
X003649Y017632D01*
X003588Y019375D02*
X006349Y019375D01*
X006257Y019534D02*
X003485Y019534D01*
M02*
