G75*
%MOIN*%
%OFA0B0*%
%FSLAX24Y24*%
%IPPOS*%
%LPD*%
%AMOC8*
5,1,8,0,0,1.08239X$1,22.5*
%
%ADD10R,0.0098X0.0354*%
%ADD11R,0.2362X0.0800*%
%ADD12R,0.0515X0.0515*%
%ADD13R,0.0551X0.0276*%
%ADD14R,0.1693X0.1969*%
%ADD15R,0.0630X0.0709*%
%ADD16R,0.0433X0.0394*%
%ADD17R,0.0394X0.0433*%
%ADD18R,0.0591X0.0512*%
%ADD19R,0.0709X0.1417*%
%ADD20R,0.0709X0.0945*%
%ADD21R,0.0630X0.1063*%
%ADD22R,0.0087X0.0394*%
%ADD23R,0.0394X0.0087*%
%ADD24R,0.0480X0.0880*%
%ADD25R,0.1417X0.0866*%
%ADD26R,0.0630X0.0512*%
%ADD27C,0.0827*%
%ADD28R,0.0701X0.0283*%
%ADD29R,0.0413X0.0425*%
%ADD30C,0.0118*%
%ADD31R,0.0236X0.0630*%
%ADD32C,0.0160*%
%ADD33C,0.0100*%
%ADD34C,0.0298*%
%ADD35C,0.0098*%
%ADD36R,0.0396X0.0396*%
%ADD37C,0.0320*%
%ADD38C,0.0240*%
%ADD39C,0.0286*%
%ADD40C,0.0396*%
D10*
X005286Y013779D03*
X005483Y013779D03*
X005680Y013779D03*
X005876Y013779D03*
X006073Y013779D03*
X006270Y013779D03*
X006467Y013779D03*
X006664Y013779D03*
X006861Y013779D03*
X007057Y013779D03*
X007254Y013779D03*
X007451Y013779D03*
X007648Y013779D03*
X007845Y013779D03*
X008042Y013779D03*
X008239Y013779D03*
X008435Y013779D03*
X008632Y013779D03*
X008829Y013779D03*
X009026Y013779D03*
X009223Y013779D03*
X009420Y013779D03*
X009617Y013779D03*
X009813Y013779D03*
X010010Y013779D03*
X010207Y013779D03*
X010404Y013779D03*
X010601Y013779D03*
X010601Y016968D03*
X010404Y016968D03*
X010207Y016968D03*
X010010Y016968D03*
X009813Y016968D03*
X009617Y016968D03*
X009420Y016968D03*
X009223Y016968D03*
X009026Y016968D03*
X008829Y016968D03*
X008632Y016968D03*
X008435Y016968D03*
X008239Y016968D03*
X008042Y016968D03*
X007845Y016968D03*
X007648Y016968D03*
X007451Y016968D03*
X007254Y016968D03*
X007057Y016968D03*
X006861Y016968D03*
X006664Y016968D03*
X006467Y016968D03*
X006270Y016968D03*
X006073Y016968D03*
X005876Y016968D03*
X005680Y016968D03*
X005483Y016968D03*
X005286Y016968D03*
D11*
X007943Y015374D03*
D12*
X007943Y015374D03*
X008693Y015374D03*
X007193Y015374D03*
D13*
X008587Y010477D03*
X008587Y009977D03*
X008587Y009477D03*
X008587Y008977D03*
X013387Y008977D03*
X013387Y009477D03*
X013387Y009977D03*
X013387Y010477D03*
X003787Y010477D03*
X003787Y009977D03*
X003787Y009477D03*
X003787Y008977D03*
D14*
X002350Y009727D03*
X007150Y009727D03*
X011950Y009727D03*
D15*
X012531Y008175D03*
X013343Y007133D03*
X013343Y006345D03*
X013343Y005558D03*
X013343Y004771D03*
X013343Y003983D03*
X014446Y003983D03*
X014446Y004771D03*
X014446Y005558D03*
X014446Y006345D03*
X014446Y007133D03*
X013633Y008175D03*
X008886Y008135D03*
X007783Y008135D03*
X004063Y008128D03*
X002961Y008128D03*
X002457Y007172D03*
X002457Y006385D03*
X002457Y005597D03*
X002457Y004810D03*
X002457Y004023D03*
X001355Y004023D03*
X001355Y004810D03*
X001355Y005597D03*
X001355Y006385D03*
X001355Y007172D03*
D16*
X003743Y011092D03*
X003743Y011761D03*
X003863Y012830D03*
X003863Y013499D03*
X004665Y013504D03*
X004665Y014173D03*
X006235Y012382D03*
X006904Y012382D03*
X007789Y012342D03*
X008366Y011742D03*
X008458Y012342D03*
X008366Y011072D03*
X009343Y011261D03*
X009343Y010592D03*
X009324Y012283D03*
X009993Y012283D03*
X010586Y012306D03*
X011255Y012306D03*
X013343Y011761D03*
X013343Y011092D03*
X014065Y011261D03*
X014065Y010592D03*
X014369Y011927D03*
X014369Y012596D03*
X012325Y016609D03*
X012325Y017279D03*
X011772Y018195D03*
X011240Y017526D03*
X011240Y016856D03*
X011243Y016294D03*
X011243Y015625D03*
X010420Y017649D03*
X010420Y018319D03*
X011103Y018195D03*
X009742Y019254D03*
X009072Y019254D03*
X009464Y018312D03*
X009464Y017642D03*
X012457Y022428D03*
X012457Y023097D03*
X010094Y023938D03*
X010091Y024434D03*
X009422Y024434D03*
X009424Y023938D03*
X006453Y024856D03*
X005783Y024856D03*
X005272Y024849D03*
X004603Y024849D03*
X004543Y011261D03*
X004543Y010592D03*
X013337Y018156D03*
X014006Y018156D03*
D17*
X011271Y014892D03*
X011271Y014223D03*
X011264Y013624D03*
X011264Y012955D03*
X007909Y017988D03*
X007909Y018657D03*
X006359Y018551D03*
X006359Y017882D03*
X004769Y015754D03*
X004769Y015085D03*
X003050Y013496D03*
X003050Y012827D03*
X003680Y020279D03*
X003680Y020949D03*
X002457Y020873D03*
X001788Y020873D03*
X003406Y023140D03*
X003406Y023809D03*
X010429Y019533D03*
X010429Y018864D03*
D18*
X008682Y018461D03*
X008682Y017713D03*
D19*
X012209Y014945D03*
X013784Y014945D03*
D20*
X013696Y013465D03*
X012101Y013465D03*
D21*
X013174Y016957D03*
X014276Y016957D03*
X010394Y009527D03*
X009292Y009527D03*
X005594Y009527D03*
X004492Y009527D03*
D22*
X005219Y019604D03*
X005416Y019604D03*
X005613Y019604D03*
X005810Y019604D03*
X006006Y019604D03*
X006203Y019604D03*
X006400Y019604D03*
X006597Y019604D03*
X006794Y019604D03*
X006991Y019604D03*
X007188Y019604D03*
X007384Y019604D03*
X007581Y019604D03*
X007778Y019604D03*
X007975Y019604D03*
X008172Y019604D03*
X008172Y024132D03*
X007975Y024132D03*
X007778Y024132D03*
X007581Y024132D03*
X007384Y024132D03*
X007188Y024132D03*
X006991Y024132D03*
X006794Y024132D03*
X006597Y024132D03*
X006400Y024132D03*
X006203Y024132D03*
X006006Y024132D03*
X005810Y024132D03*
X005613Y024132D03*
X005416Y024132D03*
X005219Y024132D03*
D23*
X004432Y023344D03*
X004432Y023147D03*
X004432Y022951D03*
X004432Y022754D03*
X004432Y022557D03*
X004432Y022360D03*
X004432Y022163D03*
X004432Y021966D03*
X004432Y021769D03*
X004432Y021573D03*
X004432Y021376D03*
X004432Y021179D03*
X004432Y020982D03*
X004432Y020785D03*
X004432Y020588D03*
X004432Y020391D03*
X008959Y020391D03*
X008959Y020588D03*
X008959Y020785D03*
X008959Y020982D03*
X008959Y021179D03*
X008959Y021376D03*
X008959Y021573D03*
X008959Y021769D03*
X008959Y021966D03*
X008959Y022163D03*
X008959Y022360D03*
X008959Y022557D03*
X008959Y022754D03*
X008959Y022951D03*
X008959Y023147D03*
X008959Y023344D03*
D24*
X011221Y019092D03*
X012131Y019092D03*
X013041Y019092D03*
D25*
X012131Y021532D03*
D26*
X011641Y022456D03*
X011641Y023243D03*
D27*
X011466Y008176D03*
X006645Y008176D03*
X001745Y008176D03*
D28*
X002457Y017151D03*
X002457Y017651D03*
X002457Y018151D03*
X002457Y018651D03*
X004308Y018651D03*
X004308Y018151D03*
X004308Y017651D03*
X004308Y017151D03*
D29*
X004416Y019279D03*
X003727Y019279D03*
X002467Y019534D03*
X001778Y019534D03*
D30*
X001620Y020164D02*
X001620Y020440D01*
X001896Y020440D01*
X001896Y020164D01*
X001620Y020164D01*
X001620Y020281D02*
X001896Y020281D01*
X001896Y020398D02*
X001620Y020398D01*
X002310Y020440D02*
X002310Y020164D01*
X002310Y020440D02*
X002586Y020440D01*
X002586Y020164D01*
X002310Y020164D01*
X002310Y020281D02*
X002586Y020281D01*
X002586Y020398D02*
X002310Y020398D01*
X011994Y023806D02*
X011994Y024082D01*
X011994Y023806D02*
X011718Y023806D01*
X011718Y024082D01*
X011994Y024082D01*
X011994Y023923D02*
X011718Y023923D01*
X011718Y024040D02*
X011994Y024040D01*
X012685Y024082D02*
X012685Y023806D01*
X012409Y023806D01*
X012409Y024082D01*
X012685Y024082D01*
X012685Y023923D02*
X012409Y023923D01*
X012409Y024040D02*
X012685Y024040D01*
D31*
X008206Y024987D03*
X007733Y024987D03*
X007261Y024987D03*
D32*
X001870Y007497D02*
X001870Y003731D01*
X003516Y003731D01*
X003516Y005082D01*
X003559Y005185D01*
X003637Y005264D01*
X003740Y005307D01*
X006292Y005307D01*
X006292Y005622D01*
X006409Y005740D01*
X007325Y005740D01*
X007442Y005622D01*
X007442Y005307D01*
X010386Y005307D01*
X010386Y005603D01*
X010503Y005720D01*
X011459Y005720D01*
X011576Y005603D01*
X011576Y005307D01*
X012119Y005307D01*
X012222Y005264D01*
X012301Y005185D01*
X013931Y005185D01*
X013931Y005027D02*
X012344Y005027D01*
X012344Y005082D02*
X012301Y005185D01*
X012344Y005082D02*
X012344Y003731D01*
X013931Y003731D01*
X013931Y007570D01*
X014048Y007687D01*
X014737Y007687D01*
X014737Y010127D01*
X013131Y010127D01*
X013131Y008829D01*
X013132Y008776D01*
X013131Y008773D01*
X013131Y008770D01*
X013111Y008721D01*
X013092Y008672D01*
X013090Y008670D01*
X013089Y008667D01*
X013051Y008630D01*
X013040Y008618D01*
X013046Y008612D01*
X013046Y007737D01*
X012929Y007620D01*
X012158Y007620D01*
X012144Y007585D01*
X012065Y007506D01*
X011962Y007463D01*
X010988Y007463D01*
X010885Y007506D01*
X010806Y007585D01*
X010763Y007687D01*
X010763Y010127D01*
X009923Y010127D01*
X009923Y008771D01*
X009881Y008668D01*
X009802Y008589D01*
X009699Y008547D01*
X008298Y008547D01*
X008298Y007698D01*
X008181Y007581D01*
X007386Y007581D01*
X007319Y007647D01*
X007301Y007604D01*
X007222Y007525D01*
X007119Y007483D01*
X006188Y007483D01*
X006085Y007525D01*
X006006Y007604D01*
X005963Y007707D01*
X005963Y010127D01*
X005123Y010127D01*
X005123Y008771D01*
X005081Y008668D01*
X005002Y008589D01*
X004899Y008547D01*
X003488Y008547D01*
X003476Y008552D01*
X003476Y007691D01*
X003358Y007574D01*
X002563Y007574D01*
X002475Y007662D01*
X002461Y007628D01*
X002459Y007626D01*
X002459Y007624D01*
X002421Y007586D01*
X002384Y007548D01*
X002381Y007547D01*
X002380Y007545D01*
X002330Y007525D01*
X002281Y007503D01*
X002279Y007503D01*
X002277Y007502D01*
X002223Y007502D01*
X001870Y007497D01*
X001870Y007404D02*
X013931Y007404D01*
X013931Y007246D02*
X001870Y007246D01*
X001870Y007087D02*
X013931Y007087D01*
X013931Y006929D02*
X001870Y006929D01*
X001870Y006770D02*
X013931Y006770D01*
X013931Y006612D02*
X001870Y006612D01*
X001870Y006453D02*
X013931Y006453D01*
X013931Y006295D02*
X001870Y006295D01*
X001870Y006136D02*
X013931Y006136D01*
X013931Y005978D02*
X001870Y005978D01*
X001870Y005819D02*
X013931Y005819D01*
X013931Y005661D02*
X011518Y005661D01*
X011576Y005502D02*
X013931Y005502D01*
X013931Y005344D02*
X011576Y005344D01*
X012344Y004868D02*
X013931Y004868D01*
X013931Y004710D02*
X012344Y004710D01*
X012344Y004551D02*
X013931Y004551D01*
X013931Y004393D02*
X012344Y004393D01*
X012344Y004234D02*
X013931Y004234D01*
X013931Y004076D02*
X012344Y004076D01*
X012344Y003917D02*
X013931Y003917D01*
X013931Y003759D02*
X012344Y003759D01*
X010386Y005344D02*
X007442Y005344D01*
X007442Y005502D02*
X010386Y005502D01*
X010444Y005661D02*
X007404Y005661D01*
X006330Y005661D02*
X001870Y005661D01*
X001870Y005502D02*
X006292Y005502D01*
X006292Y005344D02*
X001870Y005344D01*
X001870Y005185D02*
X003559Y005185D01*
X003516Y005027D02*
X001870Y005027D01*
X001870Y004868D02*
X003516Y004868D01*
X003516Y004710D02*
X001870Y004710D01*
X001870Y004551D02*
X003516Y004551D01*
X003516Y004393D02*
X001870Y004393D01*
X001870Y004234D02*
X003516Y004234D01*
X003516Y004076D02*
X001870Y004076D01*
X001870Y003917D02*
X003516Y003917D01*
X003516Y003759D02*
X001870Y003759D01*
X002398Y007563D02*
X006048Y007563D01*
X005963Y007721D02*
X003476Y007721D01*
X003476Y007880D02*
X005963Y007880D01*
X005963Y008038D02*
X003476Y008038D01*
X003476Y008197D02*
X005963Y008197D01*
X005963Y008355D02*
X003476Y008355D01*
X003476Y008514D02*
X005963Y008514D01*
X005963Y008672D02*
X005082Y008672D01*
X005123Y008831D02*
X005963Y008831D01*
X005963Y008989D02*
X005123Y008989D01*
X005123Y009148D02*
X005963Y009148D01*
X005963Y009306D02*
X005123Y009306D01*
X005123Y009465D02*
X005963Y009465D01*
X005963Y009623D02*
X005123Y009623D01*
X005123Y009782D02*
X005963Y009782D01*
X005963Y009940D02*
X005123Y009940D01*
X005123Y010099D02*
X005963Y010099D01*
X006243Y010099D02*
X008048Y010099D01*
X008048Y010257D02*
X006243Y010257D01*
X006243Y010416D02*
X008048Y010416D01*
X008048Y010574D02*
X006243Y010574D01*
X006243Y010727D02*
X008016Y010727D01*
X008048Y010694D01*
X008048Y008767D01*
X007064Y008767D01*
X007064Y007763D01*
X006243Y007763D01*
X006243Y010727D01*
X006243Y009940D02*
X008048Y009940D01*
X008048Y009782D02*
X006243Y009782D01*
X006243Y009623D02*
X008048Y009623D01*
X008048Y009465D02*
X006243Y009465D01*
X006243Y009306D02*
X008048Y009306D01*
X008048Y009148D02*
X006243Y009148D01*
X006243Y008989D02*
X008048Y008989D01*
X008048Y008831D02*
X006243Y008831D01*
X006243Y008672D02*
X007064Y008672D01*
X007064Y008514D02*
X006243Y008514D01*
X006243Y008355D02*
X007064Y008355D01*
X007064Y008197D02*
X006243Y008197D01*
X006243Y008038D02*
X007064Y008038D01*
X007064Y007880D02*
X006243Y007880D01*
X007260Y007563D02*
X010828Y007563D01*
X010763Y007721D02*
X008298Y007721D01*
X008298Y007880D02*
X010763Y007880D01*
X010763Y008038D02*
X008298Y008038D01*
X008298Y008197D02*
X010763Y008197D01*
X010763Y008355D02*
X008298Y008355D01*
X008298Y008514D02*
X010763Y008514D01*
X010763Y008672D02*
X009882Y008672D01*
X009923Y008831D02*
X010763Y008831D01*
X010763Y008989D02*
X009923Y008989D01*
X009923Y009148D02*
X010763Y009148D01*
X010763Y009306D02*
X009923Y009306D01*
X009923Y009465D02*
X010763Y009465D01*
X010763Y009623D02*
X009923Y009623D01*
X009923Y009782D02*
X010763Y009782D01*
X010763Y009940D02*
X009923Y009940D01*
X009923Y010099D02*
X010763Y010099D01*
X011043Y010099D02*
X012851Y010099D01*
X012851Y010257D02*
X011043Y010257D01*
X011043Y010416D02*
X012851Y010416D01*
X012851Y010574D02*
X011043Y010574D01*
X011043Y010727D02*
X012851Y010727D01*
X012851Y008826D01*
X011906Y008806D01*
X011906Y007743D01*
X011043Y007743D01*
X011043Y010727D01*
X011043Y009940D02*
X012851Y009940D01*
X012851Y009782D02*
X011043Y009782D01*
X011043Y009623D02*
X012851Y009623D01*
X012851Y009465D02*
X011043Y009465D01*
X011043Y009306D02*
X012851Y009306D01*
X012851Y009148D02*
X011043Y009148D01*
X011043Y008989D02*
X012851Y008989D01*
X012851Y008831D02*
X011043Y008831D01*
X011043Y008672D02*
X011906Y008672D01*
X011906Y008514D02*
X011043Y008514D01*
X011043Y008355D02*
X011906Y008355D01*
X011906Y008197D02*
X011043Y008197D01*
X011043Y008038D02*
X011906Y008038D01*
X011906Y007880D02*
X011043Y007880D01*
X012122Y007563D02*
X013931Y007563D01*
X014737Y007721D02*
X013029Y007721D01*
X013046Y007880D02*
X014737Y007880D01*
X014737Y008038D02*
X013046Y008038D01*
X013046Y008197D02*
X014737Y008197D01*
X014737Y008355D02*
X013046Y008355D01*
X013046Y008514D02*
X014737Y008514D01*
X014737Y008672D02*
X013092Y008672D01*
X013131Y008831D02*
X014737Y008831D01*
X014737Y008989D02*
X013131Y008989D01*
X013131Y009148D02*
X014737Y009148D01*
X014737Y009306D02*
X013131Y009306D01*
X013131Y009465D02*
X014737Y009465D01*
X014737Y009623D02*
X013131Y009623D01*
X013131Y009782D02*
X014737Y009782D01*
X014737Y009940D02*
X013131Y009940D01*
X013131Y010099D02*
X014737Y010099D01*
X013737Y015204D02*
X013737Y015440D01*
X013225Y015952D01*
X013225Y016680D01*
X012969Y017290D01*
X013304Y017231D01*
X013294Y018176D01*
X013294Y018995D01*
X013041Y019092D01*
X013041Y020137D01*
X013028Y020420D01*
X012969Y017290D02*
X012339Y017290D01*
X009583Y014574D02*
X010095Y014062D01*
X010095Y013609D01*
X010371Y013334D01*
X010509Y013334D01*
X010095Y013570D02*
X010095Y013609D01*
X009643Y010127D02*
X008343Y010127D01*
X008343Y008827D01*
X009643Y008827D01*
X009643Y010127D01*
X009643Y010099D02*
X008343Y010099D01*
X008343Y009940D02*
X009643Y009940D01*
X009643Y009782D02*
X008343Y009782D01*
X008343Y009623D02*
X009643Y009623D01*
X009643Y009465D02*
X008343Y009465D01*
X008343Y009306D02*
X009643Y009306D01*
X009643Y009148D02*
X008343Y009148D01*
X008343Y008989D02*
X009643Y008989D01*
X009643Y008831D02*
X008343Y008831D01*
X004843Y008831D02*
X003543Y008831D01*
X003543Y008827D02*
X003543Y010127D01*
X004843Y010127D01*
X004843Y008827D01*
X003543Y008827D01*
X003543Y008989D02*
X004843Y008989D01*
X004843Y009148D02*
X003543Y009148D01*
X003543Y009306D02*
X004843Y009306D01*
X004843Y009465D02*
X003543Y009465D01*
X003543Y009623D02*
X004843Y009623D01*
X004843Y009782D02*
X003543Y009782D01*
X003543Y009940D02*
X004843Y009940D01*
X004843Y010099D02*
X003543Y010099D01*
X003245Y010099D02*
X001123Y010099D01*
X001123Y010257D02*
X003245Y010257D01*
X003245Y010416D02*
X001123Y010416D01*
X001123Y010574D02*
X003245Y010574D01*
X003245Y010727D02*
X003245Y008865D01*
X002418Y008865D01*
X002221Y008845D01*
X002221Y007782D01*
X001123Y007766D01*
X001123Y010727D01*
X003245Y010727D01*
X003245Y009940D02*
X001123Y009940D01*
X001123Y009782D02*
X003245Y009782D01*
X003245Y009623D02*
X001123Y009623D01*
X001123Y009465D02*
X003245Y009465D01*
X003245Y009306D02*
X001123Y009306D01*
X001123Y009148D02*
X003245Y009148D01*
X003245Y008989D02*
X001123Y008989D01*
X001123Y008831D02*
X002221Y008831D01*
X002221Y008672D02*
X001123Y008672D01*
X001123Y008514D02*
X002221Y008514D01*
X002221Y008355D02*
X001123Y008355D01*
X001123Y008197D02*
X002221Y008197D01*
X002221Y008038D02*
X001123Y008038D01*
X001123Y007880D02*
X002221Y007880D01*
X002432Y017625D02*
X001788Y017625D01*
X001769Y018117D02*
X002424Y018117D01*
X002457Y018151D01*
X002457Y017651D02*
X002432Y017625D01*
X002467Y019534D02*
X002556Y019534D01*
X003028Y020007D01*
X003301Y020279D01*
X003680Y020279D01*
X005272Y024849D02*
X005783Y024849D01*
X005783Y024856D01*
X009052Y019259D02*
X009127Y019259D01*
X009072Y019254D01*
D33*
X009052Y019259D02*
X008186Y019259D01*
X008186Y019594D01*
X007984Y019518D02*
X007984Y019347D01*
X007991Y019340D01*
X007991Y019178D01*
X008105Y019064D01*
X008711Y019064D01*
X008711Y018997D01*
X008796Y018913D01*
X009349Y018913D01*
X009433Y018997D01*
X009433Y019511D01*
X009349Y019595D01*
X009331Y019595D01*
X009360Y019624D01*
X009404Y019732D01*
X009404Y019849D01*
X009360Y019957D01*
X009277Y020039D01*
X009169Y020084D01*
X009053Y020084D01*
X008945Y020039D01*
X008891Y019985D01*
X008699Y019985D01*
X008557Y020127D01*
X008444Y020241D01*
X007790Y020241D01*
X007676Y020127D01*
X007676Y020127D01*
X007598Y020048D01*
X007598Y019945D01*
X005116Y019945D01*
X005031Y019861D01*
X005031Y019347D01*
X005116Y019263D01*
X006613Y019263D01*
X006613Y018243D01*
X006102Y018243D01*
X006018Y018158D01*
X006018Y018154D01*
X005921Y018194D01*
X005805Y018194D01*
X005697Y018149D01*
X005614Y018067D01*
X005570Y017959D01*
X005570Y017882D01*
X005428Y017741D01*
X005314Y017627D01*
X005314Y017289D01*
X005343Y017260D01*
X005289Y017205D01*
X005289Y016731D01*
X005294Y016726D01*
X005294Y016526D01*
X004870Y016115D01*
X004513Y016115D01*
X004428Y016031D01*
X004428Y015478D01*
X004513Y015393D01*
X005026Y015393D01*
X005111Y015478D01*
X005111Y015807D01*
X005568Y016249D01*
X005570Y016249D01*
X005625Y016305D01*
X005682Y016360D01*
X005682Y016362D01*
X005683Y016363D01*
X005683Y016442D01*
X005685Y016521D01*
X005683Y016523D01*
X005683Y016647D01*
X005885Y016647D01*
X005885Y016467D01*
X005831Y016413D01*
X005786Y016305D01*
X005786Y016189D01*
X005831Y016081D01*
X005913Y015998D01*
X006021Y015954D01*
X006138Y015954D01*
X006246Y015998D01*
X006328Y016081D01*
X006373Y016189D01*
X006373Y016305D01*
X006355Y016348D01*
X009310Y016348D01*
X009424Y016462D01*
X009424Y016647D01*
X010019Y016647D01*
X010019Y016344D01*
X010078Y016285D01*
X010192Y016171D01*
X010882Y016171D01*
X010882Y016038D01*
X010967Y015953D01*
X011520Y015953D01*
X011604Y016038D01*
X011604Y016171D01*
X011974Y016171D01*
X012044Y016163D01*
X012053Y016171D01*
X012066Y016171D01*
X012115Y016220D01*
X012175Y016268D01*
X012602Y016268D01*
X012686Y016353D01*
X012686Y016866D01*
X012608Y016944D01*
X012686Y017022D01*
X012686Y017066D01*
X012715Y017066D01*
X012715Y016366D01*
X012799Y016281D01*
X013001Y016281D01*
X013001Y015859D01*
X013132Y015727D01*
X013285Y015574D01*
X013285Y014177D01*
X013370Y014092D01*
X014198Y014092D01*
X014283Y014177D01*
X014283Y015714D01*
X014198Y015799D01*
X013696Y015799D01*
X013450Y016045D01*
X013450Y016281D01*
X013549Y016281D01*
X013633Y016366D01*
X013633Y017549D01*
X013549Y017633D01*
X013524Y017633D01*
X013522Y017815D01*
X013613Y017815D01*
X013698Y017900D01*
X013698Y018413D01*
X013613Y018498D01*
X013519Y018498D01*
X013519Y018954D01*
X013537Y019003D01*
X013519Y019043D01*
X013519Y019088D01*
X013482Y019125D01*
X013461Y019172D01*
X013425Y019186D01*
X013425Y019591D01*
X013340Y019676D01*
X013265Y019676D01*
X013265Y020050D01*
X013269Y020054D01*
X013265Y020142D01*
X013265Y020230D01*
X013261Y020234D01*
X013261Y020238D01*
X013277Y020254D01*
X013322Y020362D01*
X013322Y020479D01*
X013277Y020586D01*
X013195Y020669D01*
X013087Y020714D01*
X012970Y020714D01*
X012862Y020669D01*
X012780Y020586D01*
X012735Y020479D01*
X012735Y020362D01*
X012780Y020254D01*
X012812Y020221D01*
X012816Y020132D01*
X012816Y019676D01*
X012741Y019676D01*
X012656Y019591D01*
X012656Y018592D01*
X012741Y018507D01*
X013070Y018507D01*
X013070Y018498D01*
X013061Y018498D01*
X012976Y018413D01*
X012976Y017900D01*
X013061Y017815D01*
X013073Y017815D01*
X013075Y017633D01*
X012799Y017633D01*
X012715Y017549D01*
X012715Y017515D01*
X012686Y017515D01*
X012686Y017535D01*
X012602Y017620D01*
X012049Y017620D01*
X011964Y017535D01*
X011964Y017022D01*
X012042Y016944D01*
X011964Y016866D01*
X011964Y016598D01*
X011917Y016560D01*
X011596Y016560D01*
X011578Y016577D01*
X011601Y016600D01*
X011601Y017113D01*
X011517Y017198D01*
X010964Y017198D01*
X010879Y017113D01*
X010879Y017052D01*
X010798Y017052D01*
X010794Y017055D01*
X010794Y017205D01*
X010710Y017290D01*
X010605Y017290D01*
X010605Y017308D01*
X010697Y017308D01*
X010781Y017393D01*
X010781Y017623D01*
X011012Y017854D01*
X011380Y017854D01*
X011464Y017938D01*
X011464Y018452D01*
X011380Y018536D01*
X010827Y018536D01*
X010781Y018491D01*
X010781Y018575D01*
X010770Y018587D01*
X010770Y018587D01*
X010770Y019140D01*
X010686Y019225D01*
X010172Y019225D01*
X010088Y019140D01*
X010088Y018604D01*
X010059Y018575D01*
X010059Y018062D01*
X010137Y017984D01*
X010059Y017906D01*
X010059Y017393D01*
X010144Y017308D01*
X010216Y017308D01*
X010216Y017290D01*
X009660Y017290D01*
X009660Y017301D01*
X009740Y017301D01*
X009825Y017386D01*
X009825Y017899D01*
X009740Y017984D01*
X009187Y017984D01*
X009122Y017918D01*
X009122Y018029D01*
X009037Y018114D01*
X008439Y018114D01*
X008439Y018395D01*
X008325Y018508D01*
X008251Y018583D01*
X008251Y018934D01*
X008166Y019018D01*
X007653Y019018D01*
X007593Y018958D01*
X007593Y019263D01*
X007881Y019263D01*
X007966Y019347D01*
X007966Y019517D01*
X007978Y019529D01*
X007978Y019524D01*
X007984Y019518D01*
X007984Y019506D02*
X007966Y019506D01*
X007966Y019408D02*
X007984Y019408D01*
X007991Y019309D02*
X007928Y019309D01*
X007991Y019211D02*
X007593Y019211D01*
X007593Y019112D02*
X008058Y019112D01*
X008171Y019014D02*
X008711Y019014D01*
X008794Y018915D02*
X008251Y018915D01*
X008251Y018817D02*
X010088Y018817D01*
X010088Y018915D02*
X009351Y018915D01*
X009433Y019014D02*
X010088Y019014D01*
X010088Y019112D02*
X009433Y019112D01*
X009433Y019211D02*
X010158Y019211D01*
X010430Y018865D02*
X010430Y018334D01*
X010410Y018314D01*
X010059Y018324D02*
X008439Y018324D01*
X008439Y018226D02*
X010059Y018226D01*
X010059Y018127D02*
X008439Y018127D01*
X008245Y018314D02*
X008245Y017664D01*
X008048Y017468D01*
X008048Y016956D01*
X007851Y016956D02*
X007851Y017546D01*
X007910Y017605D01*
X007910Y017979D01*
X008245Y018314D02*
X007910Y018649D01*
X007648Y019014D02*
X007593Y019014D01*
X007398Y019594D02*
X007398Y017704D01*
X007517Y017586D01*
X007536Y017566D01*
X007654Y017448D01*
X007654Y016956D01*
X007457Y016975D02*
X007457Y017369D01*
X007339Y017487D01*
X007202Y017625D01*
X007202Y019594D01*
X007005Y019594D02*
X007005Y017507D01*
X007064Y017448D01*
X007064Y016956D01*
X006670Y016975D02*
X006670Y017389D01*
X006808Y017527D01*
X006808Y019594D01*
X006613Y019211D02*
X004078Y019211D01*
X004078Y019309D02*
X005070Y019309D01*
X005031Y019408D02*
X004078Y019408D01*
X004078Y019506D02*
X005031Y019506D01*
X005031Y019605D02*
X004025Y019605D01*
X003994Y019636D02*
X003461Y019636D01*
X003376Y019551D01*
X003376Y019006D01*
X003424Y018958D01*
X003424Y018357D01*
X003370Y018303D01*
X003326Y018195D01*
X003326Y018078D01*
X003370Y017971D01*
X003453Y017888D01*
X003561Y017843D01*
X003677Y017843D01*
X003785Y017888D01*
X003829Y017933D01*
X003898Y017864D01*
X004718Y017864D01*
X004803Y017949D01*
X004803Y018352D01*
X004760Y018395D01*
X004841Y018361D01*
X004956Y018361D01*
X005061Y018405D01*
X005142Y018486D01*
X005186Y018591D01*
X005186Y018706D01*
X005142Y018811D01*
X005061Y018892D01*
X004956Y018936D01*
X004841Y018936D01*
X004755Y018900D01*
X004718Y018937D01*
X004009Y018937D01*
X004078Y019006D01*
X004078Y019551D01*
X003994Y019636D01*
X003936Y019918D02*
X004021Y020003D01*
X004021Y020197D01*
X004512Y020197D01*
X004519Y020204D01*
X004688Y020204D01*
X004773Y020288D01*
X004773Y020495D01*
X004688Y020579D01*
X004519Y020579D01*
X004512Y020586D01*
X003991Y020586D01*
X003986Y020591D01*
X004512Y020591D01*
X004519Y020597D01*
X004688Y020597D01*
X004773Y020682D01*
X004773Y021649D01*
X005039Y021383D01*
X005153Y021269D01*
X005802Y021269D01*
X005914Y021157D01*
X005914Y020577D01*
X006044Y020446D01*
X006009Y020359D01*
X006009Y020245D01*
X006052Y020139D01*
X006133Y020058D01*
X006239Y020015D01*
X006353Y020015D01*
X006459Y020058D01*
X006540Y020139D01*
X006584Y020245D01*
X006584Y020359D01*
X006540Y020465D01*
X006491Y020514D01*
X006491Y020550D01*
X006303Y020738D01*
X006303Y021319D01*
X006215Y021406D01*
X006215Y021406D01*
X006079Y021542D01*
X006097Y021560D01*
X006097Y021564D01*
X006282Y021761D01*
X007467Y021761D01*
X007465Y021757D01*
X007465Y021672D01*
X007400Y021672D01*
X007295Y021629D01*
X007214Y021548D01*
X007170Y021442D01*
X007170Y021357D01*
X007105Y021357D01*
X006999Y021314D01*
X006918Y021233D01*
X006875Y021127D01*
X006875Y021013D01*
X006918Y020907D01*
X006999Y020826D01*
X007105Y020782D01*
X007219Y020782D01*
X007325Y020826D01*
X007374Y020875D01*
X007790Y020875D01*
X008272Y020394D01*
X008618Y020394D01*
X008618Y020288D01*
X008703Y020204D01*
X008870Y020204D01*
X008875Y020199D01*
X009341Y020189D01*
X009354Y020156D01*
X009437Y020073D01*
X009545Y020028D01*
X009662Y020028D01*
X009769Y020073D01*
X009852Y020156D01*
X009897Y020263D01*
X009897Y020380D01*
X009852Y020488D01*
X009769Y020571D01*
X009662Y020615D01*
X009545Y020615D01*
X009475Y020586D01*
X009463Y020591D01*
X009426Y020576D01*
X009301Y020579D01*
X009301Y021387D01*
X009954Y021387D01*
X010008Y021333D01*
X010116Y021288D01*
X010232Y021288D01*
X010340Y021333D01*
X010423Y021416D01*
X010467Y021523D01*
X010467Y021640D01*
X010423Y021748D01*
X010340Y021830D01*
X010232Y021875D01*
X010116Y021875D01*
X010008Y021830D01*
X009954Y021776D01*
X009301Y021776D01*
X009301Y022463D01*
X009216Y022548D01*
X008703Y022548D01*
X008618Y022463D01*
X008618Y021405D01*
X008617Y021406D01*
X008617Y021702D01*
X008316Y022002D01*
X008316Y022072D01*
X008272Y022178D01*
X008213Y022237D01*
X008257Y022282D01*
X008302Y022389D01*
X008302Y022506D01*
X008257Y022614D01*
X008175Y022697D01*
X008067Y022741D01*
X007950Y022741D01*
X007842Y022697D01*
X007760Y022614D01*
X007731Y022543D01*
X007726Y022555D01*
X007643Y022637D01*
X007592Y022659D01*
X007601Y022668D01*
X007601Y022671D01*
X007814Y022883D01*
X008125Y022883D01*
X008449Y022559D01*
X009040Y022559D01*
X009046Y022566D01*
X009216Y022566D01*
X009301Y022651D01*
X009301Y023054D01*
X009216Y023138D01*
X009046Y023138D01*
X009040Y023145D01*
X008689Y023145D01*
X008498Y023335D01*
X008384Y023449D01*
X007710Y023449D01*
X007711Y023452D01*
X007711Y023569D01*
X007667Y023677D01*
X007584Y023760D01*
X007510Y023790D01*
X008275Y023790D01*
X008360Y023875D01*
X008360Y024031D01*
X008380Y024051D01*
X008380Y024059D01*
X008380Y024060D01*
X008380Y024064D01*
X008602Y024064D01*
X008602Y023726D01*
X008640Y023688D01*
X008640Y023610D01*
X008681Y023511D01*
X008618Y023447D01*
X008618Y023241D01*
X008703Y023156D01*
X008872Y023156D01*
X008879Y023150D01*
X009040Y023150D01*
X009046Y023156D01*
X009216Y023156D01*
X009301Y023241D01*
X009301Y023447D01*
X009216Y023532D01*
X009195Y023532D01*
X009208Y023562D01*
X009221Y023562D01*
X009256Y023597D01*
X009701Y023597D01*
X009785Y023682D01*
X009785Y024195D01*
X009783Y024197D01*
X009783Y024691D01*
X009698Y024776D01*
X009146Y024776D01*
X009061Y024691D01*
X009061Y024330D01*
X009059Y024327D01*
X009061Y024280D01*
X009047Y024235D01*
X009061Y024209D01*
X009061Y024178D01*
X009063Y024175D01*
X009063Y023955D01*
X009060Y023951D01*
X009017Y023951D01*
X008992Y023962D01*
X008990Y023962D01*
X008990Y024178D01*
X008991Y024178D01*
X008991Y024339D01*
X008877Y024453D01*
X008297Y024453D01*
X008332Y024502D01*
X008360Y024528D01*
X008383Y024528D01*
X008468Y024612D01*
X008468Y025362D01*
X008383Y025447D01*
X008028Y025447D01*
X007943Y025362D01*
X007943Y024690D01*
X007523Y024690D01*
X007523Y025362D01*
X007439Y025447D01*
X007083Y025447D01*
X006998Y025362D01*
X006998Y025028D01*
X006993Y025023D01*
X006993Y024965D01*
X006980Y024909D01*
X006993Y024887D01*
X006993Y024473D01*
X006100Y024473D01*
X006016Y024388D01*
X006016Y023875D01*
X006100Y023790D01*
X006403Y023790D01*
X006403Y023518D01*
X006314Y023430D01*
X006238Y023430D01*
X006130Y023386D01*
X006047Y023303D01*
X006003Y023195D01*
X006003Y023078D01*
X006047Y022971D01*
X006061Y022957D01*
X005979Y022957D01*
X005865Y022843D01*
X005862Y022840D01*
X005746Y022840D01*
X005638Y022795D01*
X005555Y022712D01*
X005511Y022605D01*
X005511Y022488D01*
X005520Y022466D01*
X005470Y022466D01*
X005362Y022421D01*
X005280Y022338D01*
X005246Y022257D01*
X004949Y022554D01*
X004773Y022554D01*
X004773Y023054D01*
X004688Y023138D01*
X004519Y023138D01*
X004512Y023145D01*
X004043Y023145D01*
X003971Y023217D01*
X003857Y023331D01*
X003747Y023331D01*
X003747Y023416D01*
X003662Y023501D01*
X003149Y023501D01*
X003064Y023416D01*
X003064Y022864D01*
X003149Y022779D01*
X003150Y022779D01*
X003135Y022741D01*
X003135Y022627D01*
X003178Y022521D01*
X003259Y022440D01*
X003365Y022397D01*
X003479Y022397D01*
X003585Y022440D01*
X003666Y022521D01*
X003710Y022627D01*
X003710Y022741D01*
X003685Y022801D01*
X003747Y022864D01*
X003747Y022891D01*
X003882Y022756D01*
X004090Y022756D01*
X004090Y021964D01*
X003273Y021964D01*
X002543Y021234D01*
X002201Y021234D01*
X002123Y021156D01*
X002045Y021234D01*
X001531Y021234D01*
X001447Y021149D01*
X001447Y020597D01*
X001468Y020576D01*
X001417Y020524D01*
X001417Y020080D01*
X001536Y019961D01*
X001980Y019961D01*
X002099Y020080D01*
X002099Y020524D01*
X002078Y020545D01*
X002123Y020590D01*
X002201Y020512D01*
X002714Y020512D01*
X002799Y020597D01*
X002799Y020939D01*
X003434Y021575D01*
X004090Y021575D01*
X004090Y020980D01*
X004021Y020980D01*
X004021Y021225D01*
X003936Y021310D01*
X003423Y021310D01*
X003338Y021225D01*
X003338Y020672D01*
X003396Y020614D01*
X003338Y020556D01*
X003338Y020504D01*
X003208Y020504D01*
X002998Y020294D01*
X002971Y020294D01*
X002866Y020251D01*
X002785Y020170D01*
X002741Y020064D01*
X002741Y020037D01*
X002596Y019892D01*
X002201Y019892D01*
X002116Y019807D01*
X002116Y019262D01*
X002201Y019177D01*
X002263Y019177D01*
X002263Y019173D01*
X002261Y019095D01*
X002263Y019093D01*
X002263Y018937D01*
X002047Y018937D01*
X001963Y018852D01*
X001963Y018449D01*
X002011Y018401D01*
X001963Y018352D01*
X001963Y018342D01*
X001951Y018342D01*
X001931Y018361D01*
X001826Y018405D01*
X001711Y018405D01*
X001606Y018361D01*
X001525Y018280D01*
X001481Y018174D01*
X001481Y018060D01*
X001525Y017954D01*
X001606Y017873D01*
X001623Y017866D01*
X001544Y017788D01*
X001501Y017682D01*
X001501Y017568D01*
X001544Y017462D01*
X001625Y017381D01*
X001731Y017338D01*
X001845Y017338D01*
X001951Y017381D01*
X001970Y017401D01*
X002011Y017401D01*
X002047Y017364D01*
X002868Y017364D01*
X002952Y017449D01*
X002952Y017852D01*
X002904Y017901D01*
X002952Y017949D01*
X002952Y018352D01*
X002904Y018401D01*
X002952Y018449D01*
X002952Y018852D01*
X002868Y018937D01*
X002652Y018937D01*
X002652Y019168D01*
X002652Y019177D01*
X002734Y019177D01*
X002819Y019262D01*
X002819Y019480D01*
X003058Y019719D01*
X003086Y019719D01*
X003191Y019763D01*
X003272Y019844D01*
X003316Y019950D01*
X003316Y019977D01*
X003340Y020001D01*
X003423Y019918D01*
X003936Y019918D01*
X004017Y019999D02*
X007598Y019999D01*
X007647Y020097D02*
X006498Y020097D01*
X006563Y020196D02*
X007745Y020196D01*
X007871Y020046D02*
X007792Y019968D01*
X007792Y019618D01*
X007778Y019604D01*
X007871Y020046D02*
X008363Y020046D01*
X008619Y019790D01*
X009111Y019790D01*
X008904Y019999D02*
X008686Y019999D01*
X008587Y020097D02*
X009413Y020097D01*
X009318Y019999D02*
X012816Y019999D01*
X012816Y020097D02*
X010837Y020097D01*
X010832Y020093D02*
X010915Y020175D01*
X010960Y020283D01*
X010960Y020400D01*
X010915Y020508D01*
X010861Y020562D01*
X010861Y022168D01*
X010915Y022223D01*
X010960Y022330D01*
X010960Y022447D01*
X010915Y022555D01*
X010832Y022637D01*
X010724Y022682D01*
X010608Y022682D01*
X010500Y022637D01*
X010417Y022555D01*
X010373Y022447D01*
X010373Y022330D01*
X010417Y022223D01*
X010472Y022168D01*
X010472Y020562D01*
X010417Y020508D01*
X010373Y020400D01*
X010373Y020283D01*
X010417Y020175D01*
X010500Y020093D01*
X010608Y020048D01*
X010724Y020048D01*
X010832Y020093D01*
X010923Y020196D02*
X012813Y020196D01*
X012763Y020294D02*
X010960Y020294D01*
X010960Y020393D02*
X012735Y020393D01*
X012740Y020491D02*
X010922Y020491D01*
X010861Y020590D02*
X012783Y020590D01*
X012908Y020688D02*
X010861Y020688D01*
X010861Y020787D02*
X014741Y020787D01*
X014741Y020885D02*
X010861Y020885D01*
X010861Y020984D02*
X011333Y020984D01*
X011362Y020954D02*
X012899Y020954D01*
X012984Y021039D01*
X012984Y022025D01*
X012899Y022109D01*
X012756Y022109D01*
X012819Y022171D01*
X012819Y022685D01*
X012741Y022763D01*
X012819Y022841D01*
X012819Y023354D01*
X012734Y023439D01*
X012652Y023439D01*
X012652Y023603D01*
X012769Y023603D01*
X012888Y023722D01*
X012888Y024166D01*
X012769Y024285D01*
X012325Y024285D01*
X012206Y024166D01*
X012206Y023722D01*
X012263Y023664D01*
X012263Y023439D01*
X012181Y023439D01*
X012096Y023354D01*
X012096Y022841D01*
X012174Y022763D01*
X012100Y022689D01*
X012100Y022771D01*
X012016Y022856D01*
X011266Y022856D01*
X011181Y022771D01*
X011181Y022140D01*
X011266Y022055D01*
X011308Y022055D01*
X011278Y022025D01*
X011278Y021039D01*
X011362Y020954D01*
X011278Y021082D02*
X010861Y021082D01*
X010861Y021181D02*
X011278Y021181D01*
X011278Y021279D02*
X010861Y021279D01*
X010861Y021378D02*
X011278Y021378D01*
X011278Y021476D02*
X010861Y021476D01*
X010861Y021575D02*
X011278Y021575D01*
X011278Y021673D02*
X010861Y021673D01*
X010861Y021772D02*
X011278Y021772D01*
X011278Y021870D02*
X010861Y021870D01*
X010861Y021969D02*
X011278Y021969D01*
X011254Y022067D02*
X010861Y022067D01*
X010861Y022166D02*
X011181Y022166D01*
X011181Y022264D02*
X010932Y022264D01*
X010960Y022363D02*
X011181Y022363D01*
X011181Y022461D02*
X010954Y022461D01*
X010910Y022560D02*
X011181Y022560D01*
X011181Y022658D02*
X010783Y022658D01*
X010550Y022658D02*
X010226Y022658D01*
X010196Y022627D02*
X010471Y022903D01*
X010766Y022903D01*
X010864Y023001D01*
X010941Y023001D01*
X011049Y023046D01*
X011131Y023128D01*
X011176Y023236D01*
X011176Y023353D01*
X011131Y023460D01*
X011049Y023543D01*
X010941Y023588D01*
X010824Y023588D01*
X010716Y023543D01*
X010634Y023460D01*
X010589Y023353D01*
X010589Y023292D01*
X010310Y023292D01*
X010196Y023178D01*
X010034Y023016D01*
X009863Y023016D01*
X009809Y023071D01*
X009701Y023115D01*
X009584Y023115D01*
X009476Y023071D01*
X009394Y022988D01*
X009349Y022880D01*
X009349Y022763D01*
X009394Y022656D01*
X009476Y022573D01*
X009584Y022528D01*
X009701Y022528D01*
X009809Y022573D01*
X009863Y022627D01*
X010196Y022627D01*
X010325Y022757D02*
X011181Y022757D01*
X011265Y022855D02*
X010423Y022855D01*
X010391Y023097D02*
X010686Y023097D01*
X010883Y023294D01*
X011137Y023446D02*
X012263Y023446D01*
X012263Y023545D02*
X011045Y023545D01*
X011176Y023348D02*
X012096Y023348D01*
X012096Y023249D02*
X011176Y023249D01*
X011141Y023151D02*
X012096Y023151D01*
X012096Y023052D02*
X011055Y023052D01*
X010817Y022954D02*
X012096Y022954D01*
X012096Y022855D02*
X012017Y022855D01*
X012100Y022757D02*
X012168Y022757D01*
X012457Y022428D02*
X012457Y021957D01*
X012131Y021532D01*
X012191Y021551D01*
X012123Y021582D01*
X011631Y021897D01*
X011631Y022369D01*
X011857Y022399D01*
X011641Y022456D01*
X012263Y023643D02*
X009747Y023643D01*
X009785Y023742D02*
X012206Y023742D01*
X012206Y023840D02*
X009785Y023840D01*
X009785Y023939D02*
X012206Y023939D01*
X012206Y024037D02*
X009785Y024037D01*
X009785Y024136D02*
X012206Y024136D01*
X012274Y024234D02*
X009783Y024234D01*
X009783Y024333D02*
X013468Y024333D01*
X013370Y024431D02*
X009783Y024431D01*
X009783Y024530D02*
X013271Y024530D01*
X013173Y024628D02*
X009783Y024628D01*
X009748Y024727D02*
X013074Y024727D01*
X012976Y024825D02*
X008468Y024825D01*
X008468Y024727D02*
X009096Y024727D01*
X009061Y024628D02*
X008468Y024628D01*
X008385Y024530D02*
X009061Y024530D01*
X009061Y024431D02*
X008899Y024431D01*
X008991Y024333D02*
X009061Y024333D01*
X009048Y024234D02*
X008991Y024234D01*
X008990Y024136D02*
X009063Y024136D01*
X009063Y024037D02*
X008990Y024037D01*
X009022Y023757D02*
X009141Y023757D01*
X009288Y023905D01*
X009288Y024243D01*
X009424Y023938D01*
X009257Y024255D01*
X009422Y024434D01*
X009022Y023757D02*
X008934Y023668D01*
X008959Y023643D01*
X008959Y023344D01*
X008878Y023151D02*
X008683Y023151D01*
X008618Y023249D02*
X008585Y023249D01*
X008618Y023348D02*
X008486Y023348D01*
X008388Y023446D02*
X008618Y023446D01*
X008668Y023545D02*
X007711Y023545D01*
X007681Y023643D02*
X008640Y023643D01*
X008602Y023742D02*
X007602Y023742D01*
X007418Y023511D02*
X007320Y023511D01*
X006991Y023840D01*
X006991Y024132D01*
X007188Y024132D02*
X007188Y024942D01*
X007261Y024987D01*
X006993Y025022D02*
X006905Y025022D01*
X006899Y025035D02*
X006817Y025118D01*
X006804Y025123D01*
X006729Y025198D01*
X006176Y025198D01*
X006118Y025140D01*
X006060Y025198D01*
X005507Y025198D01*
X005500Y025191D01*
X004996Y025191D01*
X004911Y025106D01*
X004911Y024593D01*
X004996Y024508D01*
X005549Y024508D01*
X005556Y024515D01*
X005615Y024515D01*
X005615Y024473D01*
X005116Y024473D01*
X005031Y024388D01*
X005031Y024375D01*
X004030Y024375D01*
X003917Y024261D01*
X003838Y024182D01*
X003838Y024164D01*
X003784Y024110D01*
X003739Y024002D01*
X003739Y023886D01*
X003784Y023778D01*
X003866Y023695D01*
X003974Y023651D01*
X004091Y023651D01*
X004198Y023695D01*
X004281Y023778D01*
X004326Y023886D01*
X004326Y023986D01*
X005031Y023986D01*
X005031Y023875D01*
X005116Y023790D01*
X005413Y023790D01*
X005413Y023465D01*
X005407Y023458D01*
X005413Y023385D01*
X005413Y023338D01*
X005378Y023303D01*
X005333Y023195D01*
X005333Y023078D01*
X005378Y022971D01*
X005461Y022888D01*
X005568Y022843D01*
X005685Y022843D01*
X005793Y022888D01*
X005875Y022971D01*
X005920Y023078D01*
X005920Y023195D01*
X005875Y023303D01*
X005804Y023375D01*
X005802Y023400D01*
X005802Y023790D01*
X005913Y023790D01*
X005997Y023875D01*
X005997Y024044D01*
X006004Y024051D01*
X006004Y024515D01*
X006060Y024515D01*
X006118Y024573D01*
X006176Y024515D01*
X006729Y024515D01*
X006814Y024600D01*
X006814Y024619D01*
X006817Y024620D01*
X006899Y024703D01*
X006944Y024811D01*
X006944Y024927D01*
X006899Y025035D01*
X006944Y024924D02*
X006983Y024924D01*
X006993Y024825D02*
X006944Y024825D01*
X006909Y024727D02*
X006993Y024727D01*
X006993Y024628D02*
X006824Y024628D01*
X006744Y024530D02*
X006993Y024530D01*
X007384Y024461D02*
X007384Y024132D01*
X007384Y024461D02*
X007418Y024495D01*
X008087Y024495D01*
X008186Y024633D01*
X008206Y024987D01*
X007943Y025022D02*
X007523Y025022D01*
X007523Y024924D02*
X007943Y024924D01*
X007943Y024825D02*
X007523Y024825D01*
X007523Y024727D02*
X007943Y024727D01*
X007943Y025121D02*
X007523Y025121D01*
X007523Y025219D02*
X007943Y025219D01*
X007943Y025318D02*
X007523Y025318D01*
X007469Y025416D02*
X007997Y025416D01*
X008414Y025416D02*
X012385Y025416D01*
X012483Y025318D02*
X008468Y025318D01*
X008468Y025219D02*
X012582Y025219D01*
X012680Y025121D02*
X008468Y025121D01*
X008468Y025022D02*
X012779Y025022D01*
X012877Y024924D02*
X008468Y024924D01*
X008186Y024259D02*
X008186Y024141D01*
X008186Y024259D02*
X008796Y024259D01*
X008602Y024037D02*
X008365Y024037D01*
X008360Y023939D02*
X008602Y023939D01*
X008602Y023840D02*
X008325Y023840D01*
X008304Y023255D02*
X007615Y023255D01*
X007311Y022951D01*
X007123Y022763D01*
X006060Y022763D01*
X005843Y022546D01*
X005804Y022546D01*
X005533Y022658D02*
X004773Y022658D01*
X004773Y022560D02*
X005511Y022560D01*
X005459Y022461D02*
X005042Y022461D01*
X005141Y022363D02*
X005304Y022363D01*
X005249Y022264D02*
X005239Y022264D01*
X005528Y022172D02*
X005843Y022172D01*
X006060Y022389D01*
X007024Y022389D01*
X007409Y022754D01*
X007733Y023078D01*
X008206Y023078D01*
X008530Y022754D01*
X008959Y022754D01*
X008959Y022951D02*
X008608Y022951D01*
X008304Y023255D01*
X008153Y022855D02*
X007785Y022855D01*
X007687Y022757D02*
X008252Y022757D01*
X008213Y022658D02*
X008350Y022658D01*
X008280Y022560D02*
X008449Y022560D01*
X008302Y022461D02*
X008618Y022461D01*
X008618Y022363D02*
X008291Y022363D01*
X008240Y022264D02*
X008618Y022264D01*
X008618Y022166D02*
X008277Y022166D01*
X008316Y022067D02*
X008618Y022067D01*
X008618Y021969D02*
X008350Y021969D01*
X008448Y021870D02*
X008618Y021870D01*
X008618Y021772D02*
X008547Y021772D01*
X008617Y021673D02*
X008618Y021673D01*
X008617Y021575D02*
X008618Y021575D01*
X008617Y021476D02*
X008618Y021476D01*
X008422Y021621D02*
X008028Y022015D01*
X008068Y021700D02*
X007772Y021700D01*
X007753Y021700D01*
X008068Y021700D02*
X008225Y021542D01*
X008225Y021247D01*
X008490Y020982D01*
X008959Y020982D01*
X008959Y020785D02*
X008411Y020785D01*
X008009Y021188D01*
X008009Y021326D01*
X007950Y021385D01*
X007517Y021385D01*
X007457Y021385D01*
X007465Y021673D02*
X006199Y021673D01*
X006107Y021575D02*
X007241Y021575D01*
X007184Y021476D02*
X006145Y021476D01*
X006244Y021378D02*
X007170Y021378D01*
X006965Y021279D02*
X006303Y021279D01*
X006303Y021181D02*
X006897Y021181D01*
X006875Y021082D02*
X006303Y021082D01*
X006303Y020984D02*
X006887Y020984D01*
X006940Y020885D02*
X006303Y020885D01*
X006303Y020787D02*
X007095Y020787D01*
X007230Y020787D02*
X007879Y020787D01*
X007978Y020688D02*
X006352Y020688D01*
X006451Y020590D02*
X008076Y020590D01*
X008175Y020491D02*
X006514Y020491D01*
X006570Y020393D02*
X008618Y020393D01*
X008618Y020294D02*
X006584Y020294D01*
X006296Y020302D02*
X006296Y020469D01*
X006108Y020657D01*
X006108Y021238D01*
X005952Y021395D01*
X006020Y021326D01*
X005952Y021395D02*
X005883Y021464D01*
X005233Y021464D01*
X004859Y021838D01*
X004730Y021966D01*
X004432Y021966D01*
X004432Y021769D02*
X003354Y021769D01*
X002457Y020873D01*
X002589Y021279D02*
X001093Y021279D01*
X001093Y021181D02*
X001478Y021181D01*
X001447Y021082D02*
X001093Y021082D01*
X001093Y020984D02*
X001447Y020984D01*
X001447Y020885D02*
X001093Y020885D01*
X001093Y020787D02*
X001447Y020787D01*
X001447Y020688D02*
X001093Y020688D01*
X001093Y020590D02*
X001454Y020590D01*
X001417Y020491D02*
X001093Y020491D01*
X001093Y020393D02*
X001417Y020393D01*
X001417Y020294D02*
X001093Y020294D01*
X001093Y020196D02*
X001417Y020196D01*
X001417Y020097D02*
X001093Y020097D01*
X001093Y019999D02*
X001498Y019999D01*
X001758Y020302D02*
X001788Y020332D01*
X001788Y020873D01*
X002098Y021181D02*
X002147Y021181D01*
X002143Y021756D02*
X001906Y021756D01*
X001688Y021846D01*
X001521Y022013D01*
X001431Y022231D01*
X001431Y022468D01*
X001521Y022686D01*
X001688Y022853D01*
X001906Y022943D01*
X002143Y022943D01*
X002361Y022853D01*
X002528Y022686D01*
X002618Y022468D01*
X002618Y022231D01*
X002528Y022013D01*
X002361Y021846D01*
X002143Y021756D01*
X002181Y021772D02*
X003081Y021772D01*
X003180Y021870D02*
X002385Y021870D01*
X002483Y021969D02*
X004090Y021969D01*
X004090Y022067D02*
X002550Y022067D01*
X002591Y022166D02*
X004090Y022166D01*
X004090Y022264D02*
X002618Y022264D01*
X002618Y022363D02*
X004090Y022363D01*
X004090Y022461D02*
X003606Y022461D01*
X003682Y022560D02*
X004090Y022560D01*
X004090Y022658D02*
X003710Y022658D01*
X003703Y022757D02*
X003882Y022757D01*
X003783Y022855D02*
X003738Y022855D01*
X003963Y022951D02*
X003776Y023137D01*
X003409Y023137D01*
X003409Y022848D01*
X003422Y022684D01*
X003238Y022461D02*
X002618Y022461D01*
X002580Y022560D02*
X003162Y022560D01*
X003135Y022658D02*
X002539Y022658D01*
X002457Y022757D02*
X003141Y022757D01*
X003073Y022855D02*
X002355Y022855D01*
X001694Y022855D02*
X001093Y022855D01*
X001093Y022757D02*
X001592Y022757D01*
X001510Y022658D02*
X001093Y022658D01*
X001093Y022560D02*
X001469Y022560D01*
X001431Y022461D02*
X001093Y022461D01*
X001093Y022363D02*
X001431Y022363D01*
X001431Y022264D02*
X001093Y022264D01*
X001093Y022166D02*
X001458Y022166D01*
X001499Y022067D02*
X001093Y022067D01*
X001093Y021969D02*
X001566Y021969D01*
X001664Y021870D02*
X001093Y021870D01*
X001093Y021772D02*
X001868Y021772D01*
X002122Y020590D02*
X002123Y020590D01*
X002099Y020491D02*
X003195Y020491D01*
X003097Y020393D02*
X002099Y020393D01*
X002099Y020294D02*
X002971Y020294D01*
X002811Y020196D02*
X002099Y020196D01*
X002099Y020097D02*
X002755Y020097D01*
X002703Y019999D02*
X002018Y019999D01*
X002116Y019802D02*
X001093Y019802D01*
X001093Y019900D02*
X002604Y019900D01*
X002467Y019534D02*
X002457Y019170D01*
X002457Y018651D01*
X002263Y019014D02*
X001093Y019014D01*
X001093Y019112D02*
X002261Y019112D01*
X002168Y019211D02*
X001093Y019211D01*
X001093Y019309D02*
X002116Y019309D01*
X002116Y019408D02*
X001093Y019408D01*
X001093Y019506D02*
X002116Y019506D01*
X002116Y019605D02*
X001093Y019605D01*
X001093Y019703D02*
X002116Y019703D01*
X002026Y018915D02*
X001093Y018915D01*
X001093Y018817D02*
X001963Y018817D01*
X001963Y018718D02*
X001093Y018718D01*
X001093Y018620D02*
X001963Y018620D01*
X001963Y018521D02*
X001093Y018521D01*
X001093Y018423D02*
X001989Y018423D01*
X001569Y018324D02*
X001093Y018324D01*
X001093Y018226D02*
X001502Y018226D01*
X001481Y018127D02*
X001093Y018127D01*
X001093Y018029D02*
X001494Y018029D01*
X001549Y017930D02*
X001093Y017930D01*
X001093Y017832D02*
X001588Y017832D01*
X001522Y017733D02*
X001093Y017733D01*
X001093Y017635D02*
X001501Y017635D01*
X001514Y017536D02*
X001093Y017536D01*
X001093Y017438D02*
X001569Y017438D01*
X001727Y017339D02*
X001093Y017339D01*
X001093Y017241D02*
X003648Y017241D01*
X003627Y017190D02*
X003627Y017076D01*
X003670Y016970D01*
X003751Y016889D01*
X003857Y016845D01*
X003971Y016845D01*
X004017Y016864D01*
X004718Y016864D01*
X004803Y016949D01*
X004803Y017352D01*
X004718Y017437D01*
X003898Y017437D01*
X003881Y017420D01*
X003857Y017420D01*
X003751Y017377D01*
X003670Y017296D01*
X003627Y017190D01*
X003627Y017142D02*
X001093Y017142D01*
X001093Y017044D02*
X003640Y017044D01*
X003695Y016945D02*
X001093Y016945D01*
X001093Y016847D02*
X003854Y016847D01*
X003974Y016847D02*
X005289Y016847D01*
X005289Y016945D02*
X004799Y016945D01*
X004803Y017044D02*
X005289Y017044D01*
X005289Y017142D02*
X004803Y017142D01*
X004803Y017241D02*
X005324Y017241D01*
X005314Y017339D02*
X004803Y017339D01*
X005314Y017438D02*
X002941Y017438D01*
X002952Y017536D02*
X005314Y017536D01*
X005322Y017635D02*
X002952Y017635D01*
X002952Y017733D02*
X005420Y017733D01*
X005519Y017832D02*
X002952Y017832D01*
X002933Y017930D02*
X003411Y017930D01*
X003346Y018029D02*
X002952Y018029D01*
X002952Y018127D02*
X003326Y018127D01*
X003338Y018226D02*
X002952Y018226D01*
X002952Y018324D02*
X003391Y018324D01*
X003424Y018423D02*
X002926Y018423D01*
X002952Y018521D02*
X003424Y018521D01*
X003424Y018620D02*
X002952Y018620D01*
X002952Y018718D02*
X003424Y018718D01*
X003424Y018817D02*
X002952Y018817D01*
X002889Y018915D02*
X003424Y018915D01*
X003376Y019014D02*
X002652Y019014D01*
X002652Y019112D02*
X003376Y019112D01*
X003376Y019211D02*
X002767Y019211D01*
X002819Y019309D02*
X003376Y019309D01*
X003376Y019408D02*
X002819Y019408D01*
X002845Y019506D02*
X003376Y019506D01*
X003430Y019605D02*
X002944Y019605D01*
X003042Y019703D02*
X005031Y019703D01*
X005031Y019802D02*
X003230Y019802D01*
X003295Y019900D02*
X005071Y019900D01*
X004773Y020294D02*
X006009Y020294D01*
X006022Y020393D02*
X004773Y020393D01*
X004773Y020491D02*
X005999Y020491D01*
X005914Y020590D02*
X003987Y020590D01*
X003843Y020785D02*
X003680Y020949D01*
X003843Y020785D02*
X004432Y020785D01*
X004773Y020787D02*
X005914Y020787D01*
X005914Y020885D02*
X004773Y020885D01*
X004773Y020984D02*
X005914Y020984D01*
X005914Y021082D02*
X004773Y021082D01*
X004773Y021181D02*
X005891Y021181D01*
X005902Y021641D02*
X006198Y021956D01*
X007497Y021956D01*
X007930Y022389D01*
X008009Y022448D01*
X007804Y022658D02*
X007594Y022658D01*
X007721Y022560D02*
X007737Y022560D01*
X007477Y022389D02*
X007241Y022172D01*
X006119Y022172D01*
X005765Y021818D01*
X005706Y021818D01*
X005410Y021818D01*
X004868Y022360D01*
X004432Y022360D01*
X004432Y022163D02*
X004809Y022163D01*
X005331Y021641D01*
X005902Y021641D01*
X005914Y020688D02*
X004773Y020688D01*
X004432Y020391D02*
X003792Y020391D01*
X003680Y020279D01*
X004021Y020196D02*
X006029Y020196D01*
X006095Y020097D02*
X004021Y020097D01*
X003727Y019279D02*
X003619Y019121D01*
X003619Y018137D01*
X004294Y018137D01*
X004308Y018151D01*
X004310Y018649D02*
X004308Y018651D01*
X004310Y018649D02*
X004898Y018649D01*
X004791Y018915D02*
X004740Y018915D01*
X005006Y018915D02*
X006613Y018915D01*
X006613Y018817D02*
X005137Y018817D01*
X005181Y018718D02*
X006613Y018718D01*
X006613Y018620D02*
X005186Y018620D01*
X005157Y018521D02*
X006613Y018521D01*
X006613Y018423D02*
X005079Y018423D01*
X004803Y018324D02*
X006613Y018324D01*
X006359Y018551D02*
X006355Y018555D01*
X006394Y019082D01*
X006613Y019112D02*
X004078Y019112D01*
X004078Y019014D02*
X006613Y019014D01*
X006085Y018226D02*
X004803Y018226D01*
X004803Y018127D02*
X005675Y018127D01*
X005598Y018029D02*
X004803Y018029D01*
X004784Y017930D02*
X005570Y017930D01*
X005804Y017842D02*
X005509Y017546D01*
X005509Y017369D01*
X005686Y017192D01*
X005686Y016975D01*
X005686Y016956D01*
X005883Y016975D02*
X005883Y017389D01*
X005824Y017448D01*
X005804Y017842D02*
X005863Y017901D01*
X006276Y017861D02*
X006276Y016975D01*
X006276Y016956D01*
X006276Y016542D01*
X008639Y016542D01*
X009229Y016542D01*
X009229Y016956D01*
X009229Y016975D01*
X009426Y016956D02*
X009426Y017251D01*
X009465Y017290D01*
X009465Y017645D01*
X009825Y017635D02*
X010059Y017635D01*
X010059Y017733D02*
X009825Y017733D01*
X009825Y017832D02*
X010059Y017832D01*
X010083Y017930D02*
X009794Y017930D01*
X010093Y018029D02*
X009122Y018029D01*
X009122Y017930D02*
X009134Y017930D01*
X008678Y017782D02*
X008639Y017743D01*
X008245Y017349D01*
X008245Y016956D01*
X008245Y016936D01*
X008639Y016956D02*
X008639Y016542D01*
X008639Y016956D02*
X008639Y016975D01*
X008835Y016975D01*
X009316Y016354D02*
X010019Y016354D01*
X010019Y016453D02*
X009414Y016453D01*
X009424Y016551D02*
X010019Y016551D01*
X010213Y016424D02*
X010272Y016365D01*
X011217Y016365D01*
X011985Y016365D01*
X012280Y016601D01*
X011964Y016650D02*
X011601Y016650D01*
X011601Y016748D02*
X011964Y016748D01*
X011964Y016847D02*
X011601Y016847D01*
X011601Y016945D02*
X012041Y016945D01*
X011964Y017044D02*
X011601Y017044D01*
X011572Y017142D02*
X011964Y017142D01*
X011964Y017241D02*
X010759Y017241D01*
X010728Y017339D02*
X011964Y017339D01*
X011964Y017438D02*
X010781Y017438D01*
X010781Y017536D02*
X011965Y017536D01*
X011464Y018029D02*
X012976Y018029D01*
X012976Y018127D02*
X011464Y018127D01*
X011464Y018226D02*
X012976Y018226D01*
X012976Y018324D02*
X011464Y018324D01*
X011464Y018423D02*
X012985Y018423D01*
X012727Y018521D02*
X012445Y018521D01*
X012431Y018507D02*
X012515Y018592D01*
X012515Y019591D01*
X012431Y019676D01*
X011831Y019676D01*
X011746Y019591D01*
X011746Y018592D01*
X011831Y018507D01*
X012431Y018507D01*
X012515Y018620D02*
X012656Y018620D01*
X012656Y018718D02*
X012515Y018718D01*
X012515Y018817D02*
X012656Y018817D01*
X012656Y018915D02*
X012515Y018915D01*
X012515Y019014D02*
X012656Y019014D01*
X012656Y019112D02*
X012515Y019112D01*
X012515Y019211D02*
X012656Y019211D01*
X012656Y019309D02*
X012515Y019309D01*
X012515Y019408D02*
X012656Y019408D01*
X012656Y019506D02*
X012515Y019506D01*
X012502Y019605D02*
X012669Y019605D01*
X012816Y019703D02*
X009392Y019703D01*
X009404Y019802D02*
X012816Y019802D01*
X012816Y019900D02*
X009383Y019900D01*
X009340Y019605D02*
X011760Y019605D01*
X011746Y019506D02*
X009433Y019506D01*
X009433Y019408D02*
X011746Y019408D01*
X011746Y019309D02*
X009433Y019309D01*
X009793Y020097D02*
X010496Y020097D01*
X010409Y020196D02*
X009868Y020196D01*
X009897Y020294D02*
X010373Y020294D01*
X010373Y020393D02*
X009891Y020393D01*
X009849Y020491D02*
X010411Y020491D01*
X010472Y020590D02*
X009723Y020590D01*
X009603Y020322D02*
X009462Y020381D01*
X008959Y020391D01*
X008959Y020588D02*
X008352Y020588D01*
X007871Y021070D01*
X007162Y021070D01*
X005976Y022954D02*
X005858Y022954D01*
X005877Y022855D02*
X005713Y022855D01*
X005599Y022757D02*
X004773Y022757D01*
X004773Y022855D02*
X005540Y022855D01*
X005395Y022954D02*
X004773Y022954D01*
X004773Y023052D02*
X005344Y023052D01*
X005333Y023151D02*
X005111Y023151D01*
X005084Y023124D02*
X004976Y023080D01*
X004860Y023080D01*
X004752Y023124D01*
X004727Y023150D01*
X004351Y023150D01*
X004344Y023156D01*
X004175Y023156D01*
X004090Y023241D01*
X004090Y023447D01*
X004175Y023532D01*
X004344Y023532D01*
X004351Y023539D01*
X004669Y023539D01*
X004669Y023539D01*
X004752Y023622D01*
X004860Y023666D01*
X004976Y023666D01*
X005084Y023622D01*
X005167Y023539D01*
X005211Y023431D01*
X005211Y023315D01*
X005167Y023207D01*
X005084Y023124D01*
X005184Y023249D02*
X005356Y023249D01*
X005413Y023348D02*
X005211Y023348D01*
X005205Y023446D02*
X005408Y023446D01*
X005413Y023545D02*
X005161Y023545D01*
X005033Y023643D02*
X005413Y023643D01*
X005413Y023742D02*
X004245Y023742D01*
X004307Y023840D02*
X005066Y023840D01*
X005031Y023939D02*
X004326Y023939D01*
X004111Y024180D02*
X005171Y024180D01*
X005219Y024132D01*
X005074Y024431D02*
X002490Y024431D01*
X002392Y024333D02*
X003988Y024333D01*
X003890Y024234D02*
X002293Y024234D01*
X002195Y024136D02*
X003809Y024136D01*
X003753Y024037D02*
X002096Y024037D01*
X001998Y023939D02*
X003739Y023939D01*
X003758Y023840D02*
X001899Y023840D01*
X001801Y023742D02*
X003820Y023742D01*
X004032Y023944D02*
X004032Y024101D01*
X004111Y024180D01*
X004090Y023446D02*
X003717Y023446D01*
X003747Y023348D02*
X004090Y023348D01*
X004090Y023249D02*
X003939Y023249D01*
X004038Y023151D02*
X004350Y023151D01*
X004432Y023344D02*
X004889Y023344D01*
X004918Y023373D01*
X004804Y023643D02*
X001702Y023643D01*
X001604Y023545D02*
X004675Y023545D01*
X004432Y022951D02*
X003963Y022951D01*
X003409Y023137D02*
X003406Y023140D01*
X003094Y023446D02*
X001505Y023446D01*
X001407Y023348D02*
X003064Y023348D01*
X003064Y023249D02*
X001308Y023249D01*
X001210Y023151D02*
X003064Y023151D01*
X003064Y023052D02*
X001111Y023052D01*
X001093Y023034D02*
X003656Y025597D01*
X012203Y025597D01*
X014741Y023060D01*
X014741Y012034D01*
X014730Y012045D01*
X014730Y012183D01*
X014646Y012268D01*
X014093Y012268D01*
X014008Y012183D01*
X014008Y011798D01*
X013704Y011798D01*
X013704Y012018D01*
X013620Y012103D01*
X013067Y012103D01*
X012982Y012018D01*
X012982Y011953D01*
X011964Y011953D01*
X011850Y011839D01*
X011808Y011798D01*
X011649Y011798D01*
X011649Y011817D01*
X011604Y011925D01*
X011521Y012008D01*
X011413Y012052D01*
X011337Y012052D01*
X011239Y012150D01*
X010947Y012150D01*
X010947Y012563D01*
X010863Y012647D01*
X010954Y012647D01*
X011007Y012594D01*
X011520Y012594D01*
X011605Y012679D01*
X011605Y012695D01*
X011920Y012695D01*
X012017Y012735D01*
X012130Y012848D01*
X012515Y012848D01*
X012600Y012933D01*
X012600Y013997D01*
X012564Y014033D01*
X012564Y014092D01*
X012624Y014092D01*
X012708Y014177D01*
X012708Y015714D01*
X012624Y015799D01*
X011795Y015799D01*
X011711Y015714D01*
X011711Y014177D01*
X011795Y014092D01*
X012036Y014092D01*
X012036Y014082D01*
X011687Y014082D01*
X011612Y014007D01*
X011612Y014499D01*
X011528Y014584D01*
X011014Y014584D01*
X010930Y014499D01*
X010930Y014394D01*
X010743Y014394D01*
X010629Y014280D01*
X010450Y014101D01*
X010320Y014101D01*
X010320Y014155D01*
X009877Y014598D01*
X009877Y014632D01*
X009832Y014740D01*
X009750Y014823D01*
X009642Y014867D01*
X009525Y014867D01*
X009417Y014823D01*
X009335Y014740D01*
X009290Y014632D01*
X009290Y014515D01*
X009335Y014408D01*
X009417Y014325D01*
X009525Y014280D01*
X009559Y014280D01*
X009739Y014101D01*
X006471Y014101D01*
X006471Y014202D01*
X006357Y014316D01*
X005605Y014316D01*
X005491Y014202D01*
X005491Y014101D01*
X005487Y014101D01*
X005487Y014395D01*
X005549Y014458D01*
X005626Y014458D01*
X005734Y014502D01*
X005816Y014585D01*
X005861Y014693D01*
X005861Y014809D01*
X005816Y014917D01*
X005734Y015000D01*
X005626Y015044D01*
X005509Y015044D01*
X005402Y015000D01*
X005319Y014917D01*
X005274Y014809D01*
X005274Y014733D01*
X005212Y014670D01*
X005098Y014556D01*
X005098Y014355D01*
X005026Y014355D01*
X005026Y014430D01*
X004941Y014514D01*
X004388Y014514D01*
X004304Y014430D01*
X004304Y013916D01*
X004381Y013838D01*
X004304Y013760D01*
X004304Y013686D01*
X004224Y013686D01*
X004224Y013756D01*
X004139Y013840D01*
X003587Y013840D01*
X003502Y013756D01*
X003502Y013686D01*
X003392Y013686D01*
X003392Y013772D01*
X003307Y013857D01*
X002794Y013857D01*
X002709Y013772D01*
X002709Y013219D01*
X002794Y013135D01*
X003307Y013135D01*
X003392Y013219D01*
X003392Y013297D01*
X003502Y013297D01*
X003502Y013242D01*
X003587Y013158D01*
X004139Y013158D01*
X004224Y013242D01*
X004224Y013297D01*
X004304Y013297D01*
X004304Y013247D01*
X004388Y013162D01*
X004941Y013162D01*
X005026Y013247D01*
X005026Y013760D01*
X004948Y013838D01*
X005026Y013916D01*
X005026Y013966D01*
X005092Y013966D01*
X005092Y013542D01*
X005177Y013458D01*
X005259Y013458D01*
X004700Y012898D01*
X004586Y012784D01*
X004586Y012486D01*
X004572Y012500D01*
X004465Y012544D01*
X004348Y012544D01*
X004240Y012500D01*
X004186Y012445D01*
X004149Y012445D01*
X003806Y012103D01*
X003467Y012103D01*
X003382Y012018D01*
X003382Y011798D01*
X001093Y011798D01*
X001093Y023034D01*
X001093Y022954D02*
X003064Y022954D01*
X002983Y021673D02*
X001093Y021673D01*
X001093Y021575D02*
X002884Y021575D01*
X002786Y021476D02*
X001093Y021476D01*
X001093Y021378D02*
X002687Y021378D01*
X002942Y021082D02*
X003338Y021082D01*
X003338Y020984D02*
X002843Y020984D01*
X002799Y020885D02*
X003338Y020885D01*
X003338Y020787D02*
X002799Y020787D01*
X002799Y020688D02*
X003338Y020688D01*
X003372Y020590D02*
X002792Y020590D01*
X003040Y021181D02*
X003338Y021181D01*
X003392Y021279D02*
X003139Y021279D01*
X003237Y021378D02*
X004090Y021378D01*
X004090Y021476D02*
X003336Y021476D01*
X003434Y021575D02*
X004090Y021575D01*
X004090Y021279D02*
X003967Y021279D01*
X004021Y021181D02*
X004090Y021181D01*
X004090Y021082D02*
X004021Y021082D01*
X004021Y020984D02*
X004090Y020984D01*
X004773Y021279D02*
X005142Y021279D01*
X005044Y021378D02*
X004773Y021378D01*
X004773Y021476D02*
X004945Y021476D01*
X004847Y021575D02*
X004773Y021575D01*
X005627Y023137D02*
X005607Y023393D01*
X005607Y024121D01*
X005607Y024141D01*
X005810Y024132D02*
X005810Y024587D01*
X005783Y024856D01*
X006074Y024530D02*
X006162Y024530D01*
X006058Y024431D02*
X006004Y024431D01*
X006004Y024333D02*
X006016Y024333D01*
X006004Y024234D02*
X006016Y024234D01*
X006004Y024136D02*
X006016Y024136D01*
X006006Y024132D02*
X006006Y023604D01*
X006060Y023550D01*
X006092Y023348D02*
X005831Y023348D01*
X005802Y023446D02*
X006330Y023446D01*
X006403Y023545D02*
X005802Y023545D01*
X005802Y023643D02*
X006403Y023643D01*
X006403Y023742D02*
X005802Y023742D01*
X005963Y023840D02*
X006050Y023840D01*
X006016Y023939D02*
X005997Y023939D01*
X005997Y024037D02*
X006016Y024037D01*
X006597Y024132D02*
X006597Y023438D01*
X006296Y023137D01*
X006025Y023249D02*
X005898Y023249D01*
X005920Y023151D02*
X006003Y023151D01*
X006014Y023052D02*
X005909Y023052D01*
X006769Y023156D02*
X006794Y023182D01*
X006794Y024132D01*
X006677Y024856D02*
X006453Y024856D01*
X006650Y024869D02*
X006677Y024856D01*
X006810Y025121D02*
X006998Y025121D01*
X006998Y025219D02*
X003278Y025219D01*
X003180Y025121D02*
X004926Y025121D01*
X004911Y025022D02*
X003081Y025022D01*
X002983Y024924D02*
X004911Y024924D01*
X004911Y024825D02*
X002884Y024825D01*
X002786Y024727D02*
X004911Y024727D01*
X004911Y024628D02*
X002687Y024628D01*
X002589Y024530D02*
X004975Y024530D01*
X003574Y025515D02*
X012286Y025515D01*
X012820Y024234D02*
X013567Y024234D01*
X013665Y024136D02*
X012888Y024136D01*
X012888Y024037D02*
X013764Y024037D01*
X013862Y023939D02*
X012888Y023939D01*
X012888Y023840D02*
X013961Y023840D01*
X014059Y023742D02*
X012888Y023742D01*
X012810Y023643D02*
X014158Y023643D01*
X014256Y023545D02*
X012652Y023545D01*
X012652Y023446D02*
X014355Y023446D01*
X014453Y023348D02*
X012819Y023348D01*
X012819Y023249D02*
X014552Y023249D01*
X014650Y023151D02*
X012819Y023151D01*
X012819Y023052D02*
X014741Y023052D01*
X014741Y022954D02*
X012819Y022954D01*
X012819Y022855D02*
X013505Y022855D01*
X013499Y022853D02*
X013332Y022686D01*
X013242Y022468D01*
X013242Y022231D01*
X013332Y022013D01*
X013499Y021846D01*
X013717Y021756D01*
X013954Y021756D01*
X014172Y021846D01*
X014339Y022013D01*
X014429Y022231D01*
X014429Y022468D01*
X014339Y022686D01*
X014172Y022853D01*
X013954Y022943D01*
X013717Y022943D01*
X013499Y022853D01*
X013403Y022757D02*
X012747Y022757D01*
X012819Y022658D02*
X013321Y022658D01*
X013280Y022560D02*
X012819Y022560D01*
X012819Y022461D02*
X013242Y022461D01*
X013242Y022363D02*
X012819Y022363D01*
X012819Y022264D02*
X013242Y022264D01*
X013269Y022166D02*
X012813Y022166D01*
X012941Y022067D02*
X013310Y022067D01*
X013377Y021969D02*
X012984Y021969D01*
X012984Y021870D02*
X013475Y021870D01*
X013679Y021772D02*
X012984Y021772D01*
X012984Y021673D02*
X014741Y021673D01*
X014741Y021575D02*
X012984Y021575D01*
X012984Y021476D02*
X014741Y021476D01*
X014741Y021378D02*
X012984Y021378D01*
X012984Y021279D02*
X014741Y021279D01*
X014741Y021181D02*
X012984Y021181D01*
X012984Y021082D02*
X014741Y021082D01*
X014741Y020984D02*
X012929Y020984D01*
X013148Y020688D02*
X014741Y020688D01*
X014741Y020590D02*
X013274Y020590D01*
X013317Y020491D02*
X014741Y020491D01*
X014741Y020393D02*
X013322Y020393D01*
X013294Y020294D02*
X014741Y020294D01*
X014741Y020196D02*
X013265Y020196D01*
X013267Y020097D02*
X014741Y020097D01*
X014741Y019999D02*
X013265Y019999D01*
X013265Y019900D02*
X014741Y019900D01*
X014741Y019802D02*
X013265Y019802D01*
X013265Y019703D02*
X014741Y019703D01*
X014741Y019605D02*
X013412Y019605D01*
X013425Y019506D02*
X014741Y019506D01*
X014741Y019408D02*
X013425Y019408D01*
X013425Y019309D02*
X014741Y019309D01*
X014741Y019211D02*
X013425Y019211D01*
X013495Y019112D02*
X014741Y019112D01*
X014741Y019014D02*
X013532Y019014D01*
X013519Y018915D02*
X014741Y018915D01*
X014741Y018817D02*
X013519Y018817D01*
X013519Y018718D02*
X014741Y018718D01*
X014741Y018620D02*
X013519Y018620D01*
X013519Y018521D02*
X014741Y018521D01*
X014741Y018423D02*
X013689Y018423D01*
X013698Y018324D02*
X014741Y018324D01*
X014741Y018226D02*
X013698Y018226D01*
X013698Y018127D02*
X014741Y018127D01*
X014741Y018029D02*
X013698Y018029D01*
X013698Y017930D02*
X014741Y017930D01*
X014741Y017832D02*
X013630Y017832D01*
X013523Y017733D02*
X014741Y017733D01*
X014741Y017635D02*
X013524Y017635D01*
X013633Y017536D02*
X014741Y017536D01*
X014741Y017438D02*
X013633Y017438D01*
X013633Y017339D02*
X014741Y017339D01*
X014741Y017241D02*
X013633Y017241D01*
X013633Y017142D02*
X014741Y017142D01*
X014741Y017044D02*
X013633Y017044D01*
X013633Y016945D02*
X014741Y016945D01*
X014741Y016847D02*
X013633Y016847D01*
X013633Y016748D02*
X014741Y016748D01*
X014741Y016650D02*
X013633Y016650D01*
X013633Y016551D02*
X014741Y016551D01*
X014741Y016453D02*
X013633Y016453D01*
X013622Y016354D02*
X014741Y016354D01*
X014741Y016256D02*
X013450Y016256D01*
X013450Y016157D02*
X014741Y016157D01*
X014741Y016059D02*
X013450Y016059D01*
X013534Y015960D02*
X014741Y015960D01*
X014741Y015862D02*
X013633Y015862D01*
X013285Y015566D02*
X012708Y015566D01*
X012708Y015468D02*
X013285Y015468D01*
X013285Y015369D02*
X012708Y015369D01*
X012708Y015271D02*
X013285Y015271D01*
X013285Y015172D02*
X012708Y015172D01*
X012708Y015074D02*
X013285Y015074D01*
X013285Y014975D02*
X012708Y014975D01*
X012708Y014877D02*
X013285Y014877D01*
X013285Y014778D02*
X012708Y014778D01*
X012708Y014680D02*
X013285Y014680D01*
X013285Y014581D02*
X012708Y014581D01*
X012708Y014483D02*
X013285Y014483D01*
X013285Y014384D02*
X012708Y014384D01*
X012708Y014286D02*
X013285Y014286D01*
X013285Y014187D02*
X012708Y014187D01*
X012564Y014089D02*
X014741Y014089D01*
X014741Y014187D02*
X014283Y014187D01*
X014283Y014286D02*
X014741Y014286D01*
X014741Y014384D02*
X014283Y014384D01*
X014283Y014483D02*
X014741Y014483D01*
X014741Y014581D02*
X014283Y014581D01*
X014283Y014680D02*
X014741Y014680D01*
X014741Y014778D02*
X014283Y014778D01*
X014283Y014877D02*
X014741Y014877D01*
X014741Y014975D02*
X014283Y014975D01*
X014283Y015074D02*
X014741Y015074D01*
X014741Y015172D02*
X014283Y015172D01*
X014283Y015271D02*
X014741Y015271D01*
X014741Y015369D02*
X014283Y015369D01*
X014283Y015468D02*
X014741Y015468D01*
X014741Y015566D02*
X014283Y015566D01*
X014283Y015665D02*
X014741Y015665D01*
X014741Y015763D02*
X014234Y015763D01*
X014741Y013990D02*
X012600Y013990D01*
X012600Y013892D02*
X014741Y013892D01*
X014741Y013793D02*
X012600Y013793D01*
X012600Y013695D02*
X014741Y013695D01*
X014741Y013596D02*
X012600Y013596D01*
X012600Y013498D02*
X014741Y013498D01*
X014741Y013399D02*
X012600Y013399D01*
X012600Y013301D02*
X014741Y013301D01*
X014741Y013202D02*
X012600Y013202D01*
X012600Y013104D02*
X014741Y013104D01*
X014741Y013005D02*
X012600Y013005D01*
X012574Y012907D02*
X014741Y012907D01*
X014741Y012808D02*
X012089Y012808D01*
X011954Y012710D02*
X014741Y012710D01*
X014741Y012611D02*
X011538Y012611D01*
X011296Y012842D02*
X010233Y012842D01*
X010194Y012842D01*
X009426Y013609D01*
X009426Y013806D01*
X009426Y013845D01*
X009623Y013826D02*
X009623Y013491D01*
X010233Y012881D01*
X011099Y012901D01*
X011257Y012960D01*
X010990Y012611D02*
X010899Y012611D01*
X010947Y012513D02*
X014741Y012513D01*
X014741Y012414D02*
X010947Y012414D01*
X010947Y012316D02*
X014741Y012316D01*
X014741Y012217D02*
X014696Y012217D01*
X014730Y012119D02*
X014741Y012119D01*
X014465Y011975D02*
X014347Y011975D01*
X014328Y011601D02*
X014426Y011523D01*
X014426Y010696D01*
X014387Y010597D01*
X014143Y010597D01*
X014131Y010597D01*
X014143Y010597D02*
X014065Y010592D01*
X014065Y010068D01*
X014143Y010597D02*
X014143Y010627D01*
X014143Y011227D02*
X013343Y011227D01*
X013343Y011149D01*
X013343Y011092D01*
X013343Y010427D01*
X013619Y011444D02*
X013776Y011601D01*
X014328Y011601D01*
X014008Y011823D02*
X013704Y011823D01*
X013704Y011922D02*
X014008Y011922D01*
X014008Y012020D02*
X013702Y012020D01*
X014008Y012119D02*
X011270Y012119D01*
X011158Y011956D02*
X011355Y011759D01*
X011158Y011956D02*
X009820Y011956D01*
X009662Y011956D01*
X009662Y012546D01*
X008835Y013373D01*
X008835Y013806D01*
X009032Y013786D02*
X009032Y013452D01*
X009977Y012507D01*
X009977Y012290D01*
X010115Y012645D02*
X010489Y012645D01*
X010568Y012566D01*
X010568Y012330D01*
X010587Y012310D01*
X010947Y012217D02*
X014042Y012217D01*
X013619Y011444D02*
X012005Y011444D01*
X011808Y011247D01*
X011060Y011247D01*
X010706Y011601D01*
X009072Y011601D01*
X008816Y011857D01*
X008816Y012586D01*
X008245Y013156D01*
X008245Y013806D01*
X008245Y013826D01*
X008442Y013845D02*
X008442Y013806D01*
X008442Y013216D01*
X008993Y012664D01*
X008993Y011995D01*
X009229Y011779D01*
X009741Y011779D01*
X009820Y011779D01*
X010784Y011779D01*
X011139Y011424D01*
X011709Y011424D01*
X012044Y011759D01*
X013265Y011759D01*
X013343Y011759D01*
X013363Y011759D01*
X012984Y012020D02*
X011491Y012020D01*
X011605Y011922D02*
X011932Y011922D01*
X011833Y011823D02*
X011646Y011823D01*
X010745Y013078D02*
X011276Y013609D01*
X011612Y014089D02*
X012036Y014089D01*
X011711Y014187D02*
X011612Y014187D01*
X011612Y014286D02*
X011711Y014286D01*
X011711Y014384D02*
X011612Y014384D01*
X011612Y014483D02*
X011711Y014483D01*
X011711Y014581D02*
X011530Y014581D01*
X011711Y014680D02*
X009857Y014680D01*
X009894Y014581D02*
X011012Y014581D01*
X010930Y014483D02*
X009992Y014483D01*
X010091Y014384D02*
X010733Y014384D01*
X010634Y014286D02*
X010189Y014286D01*
X010288Y014187D02*
X010536Y014187D01*
X010607Y013983D02*
X010824Y014200D01*
X011257Y014200D01*
X011276Y014219D01*
X011711Y014778D02*
X009794Y014778D01*
X009373Y014778D02*
X005861Y014778D01*
X005856Y014680D02*
X009310Y014680D01*
X009290Y014581D02*
X005813Y014581D01*
X005686Y014483D02*
X009304Y014483D01*
X009358Y014384D02*
X005487Y014384D01*
X005487Y014286D02*
X005575Y014286D01*
X005491Y014187D02*
X005487Y014187D01*
X005292Y014160D02*
X005292Y013806D01*
X005292Y013767D01*
X005092Y013793D02*
X004993Y013793D01*
X005001Y013892D02*
X005092Y013892D01*
X005092Y013695D02*
X005026Y013695D01*
X005026Y013596D02*
X005092Y013596D01*
X005137Y013498D02*
X005026Y013498D01*
X005026Y013399D02*
X005201Y013399D01*
X005102Y013301D02*
X005026Y013301D01*
X005004Y013202D02*
X004981Y013202D01*
X004905Y013104D02*
X001093Y013104D01*
X001093Y013202D02*
X002726Y013202D01*
X002709Y013301D02*
X001093Y013301D01*
X001093Y013399D02*
X002709Y013399D01*
X002709Y013498D02*
X001093Y013498D01*
X001093Y013596D02*
X002709Y013596D01*
X002709Y013695D02*
X001093Y013695D01*
X001093Y013793D02*
X002730Y013793D01*
X003048Y013491D02*
X003894Y013491D01*
X004662Y013491D01*
X004304Y013695D02*
X004224Y013695D01*
X004187Y013793D02*
X004336Y013793D01*
X004328Y013892D02*
X001093Y013892D01*
X001093Y013990D02*
X004304Y013990D01*
X004304Y014089D02*
X001093Y014089D01*
X001093Y014187D02*
X004304Y014187D01*
X004304Y014286D02*
X001093Y014286D01*
X001093Y014384D02*
X004304Y014384D01*
X004356Y014483D02*
X001093Y014483D01*
X001093Y014581D02*
X005123Y014581D01*
X005098Y014483D02*
X004973Y014483D01*
X005026Y014384D02*
X005098Y014384D01*
X005292Y014475D02*
X005292Y014160D01*
X004662Y014160D01*
X004348Y013202D02*
X004184Y013202D01*
X004610Y012808D02*
X001093Y012808D01*
X001093Y012710D02*
X004586Y012710D01*
X004586Y012611D02*
X001093Y012611D01*
X001093Y012513D02*
X004271Y012513D01*
X004117Y012414D02*
X001093Y012414D01*
X001093Y012316D02*
X004019Y012316D01*
X003920Y012217D02*
X001093Y012217D01*
X001093Y012119D02*
X003822Y012119D01*
X003737Y011759D02*
X004229Y012251D01*
X004406Y012251D01*
X004541Y012513D02*
X004586Y012513D01*
X004780Y012704D02*
X004780Y012251D01*
X004780Y012704D02*
X005489Y013412D01*
X005489Y013806D01*
X005686Y013806D02*
X005686Y013294D01*
X005528Y013137D01*
X005056Y012664D01*
X005056Y011109D01*
X004544Y010597D01*
X004543Y010592D02*
X004543Y010127D01*
X004543Y010592D02*
X004543Y010627D01*
X004543Y011227D02*
X003943Y011227D01*
X003781Y011065D01*
X003743Y011027D01*
X003743Y010427D01*
X003382Y011823D02*
X001093Y011823D01*
X001093Y011922D02*
X003382Y011922D01*
X003384Y012020D02*
X001093Y012020D01*
X001093Y012907D02*
X004708Y012907D01*
X004807Y013005D02*
X001093Y013005D01*
X001093Y014680D02*
X005221Y014680D01*
X005274Y014778D02*
X001093Y014778D01*
X001093Y014877D02*
X005302Y014877D01*
X005377Y014975D02*
X001093Y014975D01*
X001093Y015074D02*
X011711Y015074D01*
X011711Y015172D02*
X001093Y015172D01*
X001093Y015271D02*
X011711Y015271D01*
X011711Y015369D02*
X001093Y015369D01*
X001093Y015468D02*
X004438Y015468D01*
X004428Y015566D02*
X001093Y015566D01*
X001093Y015665D02*
X004428Y015665D01*
X004428Y015763D02*
X001093Y015763D01*
X001093Y015862D02*
X004428Y015862D01*
X004428Y015960D02*
X001093Y015960D01*
X001093Y016059D02*
X004456Y016059D01*
X004780Y015775D02*
X004780Y015755D01*
X004780Y015775D02*
X004879Y015853D01*
X005489Y016444D01*
X005489Y016936D01*
X005489Y016975D01*
X005289Y016748D02*
X001093Y016748D01*
X001093Y016650D02*
X005294Y016650D01*
X005294Y016551D02*
X001093Y016551D01*
X001093Y016453D02*
X005218Y016453D01*
X005117Y016354D02*
X001093Y016354D01*
X001093Y016256D02*
X005015Y016256D01*
X004913Y016157D02*
X001093Y016157D01*
X001849Y017339D02*
X003714Y017339D01*
X003914Y017133D02*
X004290Y017133D01*
X004308Y017151D01*
X003832Y017930D02*
X003827Y017930D01*
X003107Y016129D02*
X003107Y016109D01*
X003107Y016129D02*
X003068Y016129D01*
X003371Y013793D02*
X003539Y013793D01*
X003502Y013695D02*
X003392Y013695D01*
X003374Y013202D02*
X003542Y013202D01*
X005100Y015468D02*
X011711Y015468D01*
X011711Y015566D02*
X005111Y015566D01*
X005111Y015665D02*
X011711Y015665D01*
X011760Y015763D02*
X005111Y015763D01*
X005167Y015862D02*
X013001Y015862D01*
X013001Y015960D02*
X011527Y015960D01*
X011604Y016059D02*
X013001Y016059D01*
X013001Y016157D02*
X011604Y016157D01*
X011237Y016857D02*
X010706Y016857D01*
X010607Y016956D01*
X010410Y016975D02*
X010410Y017664D01*
X010548Y017664D01*
X011080Y018196D01*
X010990Y017832D02*
X013044Y017832D01*
X013074Y017733D02*
X010892Y017733D01*
X010793Y017635D02*
X013075Y017635D01*
X012976Y017930D02*
X011456Y017930D01*
X011395Y018521D02*
X011817Y018521D01*
X011746Y018620D02*
X010770Y018620D01*
X010770Y018718D02*
X011746Y018718D01*
X011746Y018817D02*
X010770Y018817D01*
X010770Y018915D02*
X011746Y018915D01*
X011746Y019014D02*
X010770Y019014D01*
X010770Y019112D02*
X011746Y019112D01*
X011746Y019211D02*
X010700Y019211D01*
X010781Y018521D02*
X010811Y018521D01*
X010088Y018620D02*
X008251Y018620D01*
X008251Y018718D02*
X010088Y018718D01*
X010059Y018521D02*
X008313Y018521D01*
X008411Y018423D02*
X010059Y018423D01*
X010059Y017536D02*
X009825Y017536D01*
X009825Y017438D02*
X010059Y017438D01*
X010113Y017339D02*
X009778Y017339D01*
X010213Y016975D02*
X010213Y016424D01*
X010107Y016256D02*
X006373Y016256D01*
X006360Y016157D02*
X010882Y016157D01*
X010882Y016059D02*
X006306Y016059D01*
X006153Y015960D02*
X010960Y015960D01*
X010908Y017142D02*
X010794Y017142D01*
X012159Y016256D02*
X013001Y016256D01*
X012726Y016354D02*
X012686Y016354D01*
X012686Y016453D02*
X012715Y016453D01*
X012715Y016551D02*
X012686Y016551D01*
X012686Y016650D02*
X012715Y016650D01*
X012715Y016748D02*
X012686Y016748D01*
X012686Y016847D02*
X012715Y016847D01*
X012715Y016945D02*
X012609Y016945D01*
X012686Y017044D02*
X012715Y017044D01*
X012685Y017536D02*
X012715Y017536D01*
X012659Y015763D02*
X013096Y015763D01*
X013195Y015665D02*
X012708Y015665D01*
X011711Y014975D02*
X005759Y014975D01*
X005833Y014877D02*
X011711Y014877D01*
X010607Y013983D02*
X010607Y013786D01*
X010745Y013078D02*
X010292Y013078D01*
X009820Y013550D01*
X009820Y013826D01*
X009653Y014187D02*
X006471Y014187D01*
X006387Y014286D02*
X009513Y014286D01*
X009229Y013826D02*
X009229Y013806D01*
X009229Y013531D01*
X010115Y012645D01*
X009328Y012605D02*
X009328Y012271D01*
X009328Y012605D02*
X008639Y013294D01*
X008639Y013845D01*
X009032Y013826D02*
X009032Y013786D01*
X008048Y013078D02*
X008481Y012645D01*
X008481Y012349D01*
X008540Y011779D02*
X007654Y011779D01*
X007438Y011995D01*
X007438Y012920D01*
X007457Y012999D01*
X007457Y013786D01*
X007457Y013826D01*
X007654Y013826D02*
X007654Y013767D01*
X007654Y012448D01*
X007772Y012330D01*
X007930Y012782D02*
X007851Y012861D01*
X007851Y013786D01*
X007851Y013806D01*
X008048Y013806D02*
X008048Y013078D01*
X007261Y013786D02*
X007261Y011798D01*
X005981Y011798D01*
X005843Y011936D01*
X005843Y012704D01*
X006080Y012940D01*
X006080Y013806D01*
X006276Y013786D02*
X006276Y014121D01*
X005686Y014121D01*
X005686Y013905D01*
X005686Y013865D01*
X005686Y013806D01*
X005686Y013865D02*
X005686Y013905D01*
X005686Y014121D01*
X005686Y013905D01*
X005883Y013826D02*
X005883Y013078D01*
X005528Y012723D01*
X005351Y012251D02*
X005351Y012192D01*
X005253Y012094D01*
X005253Y010361D01*
X005568Y010046D01*
X006237Y012389D02*
X006237Y012802D01*
X006670Y013314D01*
X006670Y013826D01*
X006473Y013826D02*
X006473Y013491D01*
X006335Y013353D01*
X006867Y013097D02*
X006631Y012822D01*
X006867Y013097D02*
X006867Y013806D01*
X007064Y013826D02*
X007064Y012566D01*
X006887Y012369D01*
X007261Y011798D02*
X007261Y011779D01*
X007635Y011405D01*
X008954Y011405D01*
X008954Y010932D01*
X009288Y010597D01*
X009347Y010597D01*
X009343Y010592D02*
X009343Y010127D01*
X009343Y010592D02*
X009343Y010627D01*
X009839Y010656D02*
X010135Y010361D01*
X010135Y010046D01*
X009839Y010656D02*
X009839Y011031D01*
X008543Y011089D02*
X008543Y010466D01*
X007261Y013786D02*
X007261Y013826D01*
X006006Y015960D02*
X005269Y015960D01*
X005371Y016059D02*
X005853Y016059D01*
X005799Y016157D02*
X005472Y016157D01*
X005576Y016256D02*
X005786Y016256D01*
X005806Y016354D02*
X005676Y016354D01*
X005684Y016453D02*
X005870Y016453D01*
X005885Y016551D02*
X005683Y016551D01*
X006080Y016247D02*
X006080Y016956D01*
X006276Y016975D02*
X006276Y016956D01*
X005568Y014751D02*
X005292Y014475D01*
X003343Y019999D02*
X003338Y019999D01*
X003377Y025318D02*
X006998Y025318D01*
X007052Y025416D02*
X003475Y025416D01*
X008422Y021621D02*
X008422Y021326D01*
X008569Y021179D01*
X008959Y021179D01*
X009301Y021181D02*
X010472Y021181D01*
X010472Y021279D02*
X009301Y021279D01*
X009301Y021378D02*
X009963Y021378D01*
X010174Y021582D02*
X008968Y021582D01*
X008959Y021573D01*
X009301Y021870D02*
X010104Y021870D01*
X010244Y021870D02*
X010472Y021870D01*
X010472Y021772D02*
X010399Y021772D01*
X010454Y021673D02*
X010472Y021673D01*
X010467Y021575D02*
X010472Y021575D01*
X010472Y021476D02*
X010448Y021476D01*
X010472Y021378D02*
X010385Y021378D01*
X010472Y021082D02*
X009301Y021082D01*
X009301Y020984D02*
X010472Y020984D01*
X010472Y020885D02*
X009301Y020885D01*
X009301Y020787D02*
X010472Y020787D01*
X010472Y020688D02*
X009301Y020688D01*
X009301Y020590D02*
X009458Y020590D01*
X009467Y020590D02*
X009483Y020590D01*
X009022Y020196D02*
X008489Y020196D01*
X009301Y021969D02*
X010472Y021969D01*
X010472Y022067D02*
X009301Y022067D01*
X009301Y022166D02*
X010472Y022166D01*
X010400Y022264D02*
X009301Y022264D01*
X009301Y022363D02*
X010373Y022363D01*
X010379Y022461D02*
X009301Y022461D01*
X009301Y022658D02*
X009393Y022658D01*
X009352Y022757D02*
X009301Y022757D01*
X009301Y022855D02*
X009349Y022855D01*
X009380Y022954D02*
X009301Y022954D01*
X009301Y023052D02*
X009458Y023052D01*
X009301Y023249D02*
X010267Y023249D01*
X010169Y023151D02*
X009041Y023151D01*
X009301Y023348D02*
X010589Y023348D01*
X010628Y023446D02*
X009301Y023446D01*
X009200Y023545D02*
X010720Y023545D01*
X010391Y023097D02*
X010115Y022822D01*
X009643Y022822D01*
X009776Y022560D02*
X010422Y022560D01*
X010666Y022389D02*
X010666Y020342D01*
X009509Y022560D02*
X009040Y022560D01*
X009827Y023052D02*
X010070Y023052D01*
X010115Y023216D02*
X010115Y023275D01*
X012457Y023097D02*
X012457Y023817D01*
X012547Y023944D01*
X013992Y021772D02*
X014741Y021772D01*
X014741Y021870D02*
X014196Y021870D01*
X014294Y021969D02*
X014741Y021969D01*
X014741Y022067D02*
X014361Y022067D01*
X014402Y022166D02*
X014741Y022166D01*
X014741Y022264D02*
X014429Y022264D01*
X014429Y022363D02*
X014741Y022363D01*
X014741Y022461D02*
X014429Y022461D01*
X014391Y022560D02*
X014741Y022560D01*
X014741Y022658D02*
X014350Y022658D01*
X014268Y022757D02*
X014741Y022757D01*
X014741Y022855D02*
X014166Y022855D01*
D34*
X013028Y020420D03*
X012123Y019101D03*
X011217Y019121D03*
X010666Y020342D03*
X010174Y021582D03*
X010666Y022389D03*
X010883Y023294D03*
X010115Y023275D03*
X009643Y022822D03*
X008934Y023668D03*
X008009Y022448D03*
X007477Y022389D03*
X007418Y023511D03*
X006769Y023156D03*
X006296Y023137D03*
X006060Y023550D03*
X005627Y023137D03*
X005804Y022546D03*
X005528Y022172D03*
X004918Y023373D03*
X004032Y023944D03*
X006650Y024869D03*
X009603Y020322D03*
X009111Y019790D03*
X009052Y019259D03*
X009465Y018314D03*
X010371Y015460D03*
X009603Y015243D03*
X009583Y014574D03*
X010509Y013334D03*
X011355Y011759D03*
X009839Y011031D03*
X009347Y011267D03*
X009328Y012271D03*
X008383Y011070D03*
X007772Y012349D03*
X007930Y012782D03*
X006631Y012822D03*
X006335Y013353D03*
X006237Y012389D03*
X005528Y012723D03*
X005351Y012251D03*
X004780Y012251D03*
X004406Y012251D03*
X004662Y013511D03*
X005568Y014751D03*
X005587Y015499D03*
X006080Y016247D03*
X006355Y015263D03*
X005824Y017448D03*
X005863Y017901D03*
X006394Y019082D03*
X003619Y018137D03*
D35*
X004769Y015755D02*
X004769Y015754D01*
X004769Y015755D02*
X004780Y015755D01*
X005489Y016936D02*
X005489Y016968D01*
X005483Y016968D01*
X005680Y016968D02*
X005686Y016968D01*
X005686Y016975D01*
X005876Y016975D02*
X005876Y016968D01*
X005876Y016975D02*
X005883Y016975D01*
X006073Y016968D02*
X006080Y016968D01*
X006080Y016956D01*
X006270Y016975D02*
X006270Y016968D01*
X006270Y016975D02*
X006276Y016975D01*
X006664Y016968D02*
X006670Y016968D01*
X006670Y016975D01*
X007057Y016956D02*
X007057Y016968D01*
X007057Y016956D02*
X007064Y016956D01*
X007451Y016968D02*
X007457Y016968D01*
X007457Y016975D01*
X007648Y016968D02*
X007654Y016968D01*
X007654Y016956D01*
X007845Y016956D02*
X007845Y016968D01*
X007845Y016956D02*
X007851Y016956D01*
X008042Y016956D02*
X008042Y016968D01*
X008042Y016956D02*
X008048Y016956D01*
X008239Y016968D02*
X008245Y016968D01*
X008245Y016956D01*
X008632Y016968D02*
X008639Y016968D01*
X008639Y016956D01*
X008632Y016968D02*
X008829Y016968D01*
X009223Y016968D02*
X009229Y016968D01*
X009229Y016956D01*
X009420Y016956D02*
X009420Y016968D01*
X009420Y016956D02*
X009426Y016956D01*
X009464Y017642D02*
X009464Y017645D01*
X009465Y017645D01*
X008682Y017713D02*
X008639Y017713D01*
X008639Y017743D01*
X007910Y017979D02*
X007910Y017988D01*
X007909Y017988D01*
X007910Y018649D02*
X007910Y018657D01*
X007909Y018657D01*
X008186Y019594D02*
X008186Y019604D01*
X008172Y019604D01*
X007398Y019594D02*
X007384Y019594D01*
X007384Y019604D01*
X007202Y019594D02*
X007188Y019594D01*
X007188Y019604D01*
X007005Y019594D02*
X006991Y019594D01*
X006991Y019604D01*
X006808Y019594D02*
X006794Y019594D01*
X006794Y019604D01*
X006359Y017882D02*
X006276Y017882D01*
X006276Y017861D01*
X006467Y013826D02*
X006467Y013779D01*
X006473Y013826D02*
X006467Y013826D01*
X006664Y013826D02*
X006664Y013779D01*
X006670Y013826D02*
X006664Y013826D01*
X006861Y013806D02*
X006861Y013779D01*
X006867Y013806D02*
X006861Y013806D01*
X007057Y013826D02*
X007057Y013779D01*
X007064Y013826D02*
X007057Y013826D01*
X007254Y013779D02*
X007261Y013779D01*
X007261Y013786D01*
X007451Y013779D02*
X007457Y013779D01*
X007457Y013786D01*
X007648Y013779D02*
X007654Y013779D01*
X007654Y013767D01*
X007845Y013779D02*
X007851Y013779D01*
X007851Y013786D01*
X008042Y013779D02*
X008042Y013806D01*
X008048Y013806D01*
X008239Y013779D02*
X008245Y013779D01*
X008245Y013806D01*
X008435Y013779D02*
X008442Y013779D01*
X008442Y013806D01*
X008632Y013779D02*
X008632Y013845D01*
X008639Y013845D01*
X008829Y013806D02*
X008829Y013779D01*
X008835Y013806D02*
X008829Y013806D01*
X009026Y013779D02*
X009032Y013779D01*
X009032Y013786D01*
X009223Y013779D02*
X009229Y013779D01*
X009229Y013806D01*
X009420Y013779D02*
X009426Y013779D01*
X009426Y013806D01*
X009617Y013826D02*
X009617Y013779D01*
X009623Y013826D02*
X009617Y013826D01*
X009813Y013826D02*
X009813Y013779D01*
X009820Y013826D02*
X009813Y013826D01*
X010233Y012881D02*
X010233Y012842D01*
X009977Y012290D02*
X009977Y012283D01*
X009993Y012283D01*
X009328Y012283D02*
X009328Y012271D01*
X009324Y012283D02*
X009328Y012283D01*
X008481Y012342D02*
X008481Y012349D01*
X008481Y012342D02*
X008458Y012342D01*
X008540Y011779D02*
X008366Y011779D01*
X008366Y011742D01*
X008366Y011072D02*
X008366Y011070D01*
X008383Y011070D01*
X008543Y011070D01*
X008543Y011089D01*
X007772Y012330D02*
X007772Y012349D01*
X007789Y012349D01*
X007789Y012342D01*
X006904Y012369D02*
X006904Y012382D01*
X006904Y012369D02*
X006887Y012369D01*
X006237Y012389D02*
X006235Y012389D01*
X006235Y012382D01*
X006270Y013779D02*
X006270Y013786D01*
X006276Y013786D01*
X006080Y013806D02*
X006073Y013806D01*
X006073Y013779D01*
X005883Y013826D02*
X005876Y013826D01*
X005876Y013779D01*
X005686Y013779D02*
X005686Y013806D01*
X005680Y013779D02*
X005686Y013779D01*
X005489Y013806D02*
X005483Y013806D01*
X005483Y013779D01*
X005292Y013779D02*
X005292Y013806D01*
X005286Y013779D02*
X005292Y013779D01*
X004665Y013511D02*
X004665Y013504D01*
X004662Y013511D02*
X004665Y013511D01*
X004662Y013511D02*
X004662Y013491D01*
X003894Y013499D02*
X003894Y013491D01*
X003894Y013499D02*
X003863Y013499D01*
X003050Y013491D02*
X003050Y013496D01*
X003048Y013491D02*
X003050Y013491D01*
X003737Y011759D02*
X003743Y011759D01*
X003743Y011761D01*
X003743Y011092D02*
X003781Y011092D01*
X003781Y011065D01*
X004543Y011227D02*
X004543Y011261D01*
X004543Y010627D02*
X004543Y010592D01*
X004543Y010597D01*
X004544Y010597D01*
X009343Y010592D02*
X009347Y010592D01*
X009347Y010597D01*
X009343Y010592D02*
X009343Y010627D01*
X011257Y012960D02*
X011264Y012960D01*
X011264Y012955D01*
X010601Y013779D02*
X010601Y013786D01*
X010607Y013786D01*
X011271Y014219D02*
X011271Y014223D01*
X011271Y014219D02*
X011276Y014219D01*
X012101Y013465D02*
X012300Y013564D01*
X012300Y013471D01*
X012209Y014945D02*
X012209Y015066D01*
X012300Y015066D01*
X012280Y016601D02*
X012320Y016609D01*
X012325Y016609D01*
X012384Y017251D02*
X012325Y017279D01*
X013174Y016957D02*
X013174Y016680D01*
X013225Y016680D01*
X013294Y018156D02*
X013294Y018176D01*
X013294Y018156D02*
X013337Y018156D01*
X013107Y019121D02*
X013100Y019180D01*
X012221Y019131D02*
X012123Y019121D01*
X012131Y019092D02*
X012221Y019131D01*
X011103Y018195D02*
X011080Y018195D01*
X011080Y018196D01*
X010420Y018319D02*
X010410Y018319D01*
X010410Y018314D01*
X010429Y018864D02*
X010429Y018865D01*
X010430Y018865D01*
X010410Y016975D02*
X010410Y016968D01*
X010404Y016968D01*
X010213Y016968D02*
X010213Y016975D01*
X010213Y016968D02*
X010207Y016968D01*
X010601Y016968D02*
X010607Y016968D01*
X010607Y016956D01*
X011237Y016856D02*
X011237Y016857D01*
X011237Y016856D02*
X011240Y016856D01*
X011217Y016365D02*
X011217Y016294D01*
X011243Y016294D01*
X013776Y015164D02*
X013784Y015164D01*
X013784Y014945D01*
X014347Y011975D02*
X014350Y011975D01*
X014369Y011927D01*
X014065Y011261D02*
X014143Y011227D01*
X014143Y010597D02*
X014065Y010592D01*
X013387Y010477D02*
X013387Y010427D01*
X013343Y010427D01*
X013343Y011092D02*
X013343Y011149D01*
X013343Y011759D02*
X013343Y011761D01*
X008934Y023668D02*
X008796Y023806D01*
X008796Y024259D01*
X008186Y024141D02*
X008186Y024132D01*
X008172Y024132D01*
X006794Y024141D02*
X006794Y024132D01*
X005613Y024132D02*
X005607Y024132D01*
X005607Y024121D01*
D36*
X014367Y012605D03*
X013639Y008196D03*
X014446Y007133D03*
X014446Y006345D03*
X014446Y005558D03*
X014446Y004771D03*
X014446Y003983D03*
X013540Y004554D03*
X013540Y005420D03*
X012517Y008176D03*
X011178Y005322D03*
X010784Y005322D03*
X009288Y005302D03*
X009288Y005656D03*
X009288Y006011D03*
X008796Y006011D03*
X008796Y005656D03*
X008796Y005302D03*
X008894Y008137D03*
X007792Y008137D03*
X007044Y005342D03*
X006690Y005342D03*
X005154Y005302D03*
X005154Y005656D03*
X005154Y006011D03*
X004662Y006011D03*
X004662Y005656D03*
X004662Y005302D03*
X004072Y008137D03*
X002969Y008137D03*
X001355Y007172D03*
X001355Y006385D03*
X001355Y005597D03*
X001355Y004810D03*
X001355Y004023D03*
X002320Y004554D03*
X002320Y005420D03*
D37*
X014369Y011927D02*
X014416Y011927D01*
D38*
X014475Y011927D01*
X014682Y011719D01*
X014682Y010105D01*
X014702Y010086D01*
X011867Y012960D02*
X012300Y013393D01*
X012300Y013471D01*
X012300Y015066D01*
X012182Y015184D01*
X011867Y012960D02*
X011257Y012960D01*
X013737Y015204D02*
X013776Y015164D01*
D39*
X008028Y022015D03*
X007753Y021700D03*
X007457Y021385D03*
X007162Y021070D03*
X006296Y020302D03*
X004898Y018649D03*
X003914Y017133D03*
X003068Y016129D03*
X001788Y017625D03*
X001769Y018117D03*
X003028Y020007D03*
X003422Y022684D03*
D40*
X012123Y021582D03*
M02*
