%
M48
M72
T01C0.0126
T02C0.0138
T03C0.0236
T04C0.0315
T05C0.0551
T06C0.0787
%
T01
X3068Y16129
X3914Y17133
X4898Y18649
X6296Y20302
X7162Y21070
X7457Y21385
X7753Y21700
X8028Y22015
X3422Y22684
X3028Y20007
X1769Y18117
X1788Y17625
T02
X3619Y18137
X5587Y15499
X5568Y14751
X6355Y15263
X6080Y16247
X5824Y17448
X5863Y17901
X6394Y19082
X5528Y22172
X5804Y22546
X5627Y23137
X6060Y23550
X6296Y23137
X6769Y23156
X7418Y23511
X7477Y22389
X8009Y22448
X8934Y23668
X9643Y22822
X10115Y23275
X10666Y22389
X10883Y23294
X10174Y21582
X10666Y20342
X11217Y19121
X12123Y19101
X13028Y20420
X10371Y15460
X9603Y15243
X9583Y14574
X10509Y13334
X11355Y11759
X9839Y11031
X9347Y11267
X9328Y12271
X8383Y11070
X7772Y12349
X7930Y12782
X6631Y12822
X6335Y13353
X6237Y12389
X5528Y12723
X5351Y12251
X4780Y12251
X4406Y12251
X4662Y13511
X9052Y19259
X9111Y19790
X9603Y20322
X9465Y18314
X6650Y24869
X4918Y23373
X4032Y23944
T03
X1355Y4023
X1355Y4810
X1355Y5597
X1355Y6385
X1355Y7172
X2320Y5420
X2320Y4554
X2969Y8137
X4072Y8137
X4662Y6011
X4662Y5656
X4662Y5302
X5154Y5302
X5154Y5656
X5154Y6011
X6690Y5342
X7044Y5342
X7792Y8137
X8894Y8137
X8796Y6011
X8796Y5656
X8796Y5302
X9288Y5302
X9288Y5656
X9288Y6011
X10784Y5322
X11178Y5322
X12517Y8176
X13639Y8196
X14446Y7133
X14446Y6345
X14446Y5558
X14446Y4771
X14446Y3983
X13540Y4554
X13540Y5420
X14367Y12605
X12123Y21582
T04
X8693Y15374
X7943Y15374
X7193Y15374
T05
X6645Y8176
X11466Y8176
X1745Y8176
T06
X2024Y22349
X13835Y22349
M30
