G75*
%MOIN*%
%OFA0B0*%
%FSLAX24Y24*%
%IPPOS*%
%LPD*%
%AMOC8*
5,1,8,0,0,1.08239X$1,22.5*
%
%ADD10C,0.0827*%
%ADD11R,0.0669X0.0669*%
%ADD12C,0.0089*%
%ADD13C,0.1004*%
%ADD14C,0.0591*%
%ADD15C,0.0472*%
%ADD16C,0.0236*%
%ADD17C,0.0063*%
%ADD18C,0.0100*%
%ADD19C,0.0120*%
%ADD20C,0.1496*%
D10*
X006072Y000978D03*
X009222Y000978D03*
X012372Y000978D03*
D11*
X009222Y007631D03*
D12*
X008764Y007518D02*
X008518Y007518D01*
X008518Y007548D01*
X008764Y007548D01*
X008764Y007518D01*
X008764Y007321D02*
X008518Y007321D01*
X008518Y007351D01*
X008764Y007351D01*
X008764Y007321D01*
X008942Y007174D02*
X008942Y006928D01*
X008912Y006928D01*
X008912Y007174D01*
X008942Y007174D01*
X008942Y007016D02*
X008912Y007016D01*
X008912Y007104D02*
X008942Y007104D01*
X009139Y007174D02*
X009139Y006928D01*
X009109Y006928D01*
X009109Y007174D01*
X009139Y007174D01*
X009139Y007016D02*
X009109Y007016D01*
X009109Y007104D02*
X009139Y007104D01*
X009335Y007174D02*
X009335Y006928D01*
X009305Y006928D01*
X009305Y007174D01*
X009335Y007174D01*
X009335Y007016D02*
X009305Y007016D01*
X009305Y007104D02*
X009335Y007104D01*
X009532Y007174D02*
X009532Y006928D01*
X009502Y006928D01*
X009502Y007174D01*
X009532Y007174D01*
X009532Y007016D02*
X009502Y007016D01*
X009502Y007104D02*
X009532Y007104D01*
X009680Y007351D02*
X009926Y007351D01*
X009926Y007321D01*
X009680Y007321D01*
X009680Y007351D01*
X009680Y007548D02*
X009926Y007548D01*
X009926Y007518D01*
X009680Y007518D01*
X009680Y007548D01*
X009680Y007745D02*
X009926Y007745D01*
X009926Y007715D01*
X009680Y007715D01*
X009680Y007745D01*
X009680Y007942D02*
X009926Y007942D01*
X009926Y007912D01*
X009680Y007912D01*
X009680Y007942D01*
X009502Y008089D02*
X009502Y008335D01*
X009532Y008335D01*
X009532Y008089D01*
X009502Y008089D01*
X009502Y008177D02*
X009532Y008177D01*
X009532Y008265D02*
X009502Y008265D01*
X009305Y008335D02*
X009305Y008089D01*
X009305Y008335D02*
X009335Y008335D01*
X009335Y008089D01*
X009305Y008089D01*
X009305Y008177D02*
X009335Y008177D01*
X009335Y008265D02*
X009305Y008265D01*
X009109Y008335D02*
X009109Y008089D01*
X009109Y008335D02*
X009139Y008335D01*
X009139Y008089D01*
X009109Y008089D01*
X009109Y008177D02*
X009139Y008177D01*
X009139Y008265D02*
X009109Y008265D01*
X008912Y008335D02*
X008912Y008089D01*
X008912Y008335D02*
X008942Y008335D01*
X008942Y008089D01*
X008912Y008089D01*
X008912Y008177D02*
X008942Y008177D01*
X008942Y008265D02*
X008912Y008265D01*
X008764Y007912D02*
X008518Y007912D01*
X008518Y007942D01*
X008764Y007942D01*
X008764Y007912D01*
X008764Y007715D02*
X008518Y007715D01*
X008518Y007745D01*
X008764Y007745D01*
X008764Y007715D01*
D13*
X016214Y006600D03*
X016214Y004631D03*
D14*
X020151Y003450D03*
X020151Y007781D03*
D15*
X019065Y009206D02*
X018592Y009206D01*
X018592Y010191D02*
X019065Y010191D01*
X019065Y011175D02*
X018592Y011175D01*
D16*
X016234Y013135D03*
X015466Y012954D03*
X014880Y012769D03*
X014171Y012651D03*
X013758Y012651D03*
X013049Y012773D03*
X012813Y012537D03*
X012576Y012238D03*
X012340Y012002D03*
X012100Y011714D03*
X011159Y011883D03*
X010856Y011647D03*
X010805Y010998D03*
X011100Y010820D03*
X011395Y010643D03*
X010927Y010309D03*
X010923Y009462D03*
X010332Y009344D03*
X009895Y009061D03*
X009324Y009084D03*
X008691Y008458D03*
X008419Y008939D03*
X007722Y008754D03*
X007132Y008163D03*
X006541Y008754D03*
X007072Y009344D03*
X006482Y009935D03*
X005950Y009344D03*
X005360Y008754D03*
X005950Y008163D03*
X006541Y007572D03*
X006773Y006679D03*
X006328Y006561D03*
X006313Y006116D03*
X006549Y006116D03*
X006549Y005880D03*
X006313Y005880D03*
X006076Y005880D03*
X005840Y005880D03*
X005840Y005643D03*
X005840Y006116D03*
X006076Y006116D03*
X006549Y005643D03*
X007738Y005643D03*
X007738Y005880D03*
X007738Y006116D03*
X007974Y006116D03*
X008210Y006116D03*
X008446Y006116D03*
X008446Y005880D03*
X008210Y005880D03*
X007974Y005880D03*
X008446Y005643D03*
X009092Y005584D03*
X009446Y005584D03*
X009801Y005584D03*
X010155Y005584D03*
X010509Y005584D03*
X010509Y006175D03*
X010155Y006175D03*
X009801Y006175D03*
X009446Y006175D03*
X009092Y006175D03*
X008147Y006561D03*
X007907Y006773D03*
X009222Y007631D03*
X010277Y007509D03*
X010277Y007159D03*
X010683Y007159D03*
X011297Y007072D03*
X011742Y007065D03*
X012277Y007458D03*
X012435Y008072D03*
X013254Y008072D03*
X014112Y009108D03*
X013883Y009545D03*
X014407Y009639D03*
X014860Y009159D03*
X013226Y009167D03*
X014324Y010592D03*
X013876Y011116D03*
X013600Y010860D03*
X014285Y011588D03*
X015569Y010931D03*
X014387Y013679D03*
X011395Y012828D03*
X010998Y012824D03*
X009978Y012986D03*
X009352Y012592D03*
X008565Y012592D03*
X008907Y013427D03*
X008151Y013616D03*
X007714Y013643D03*
X007344Y013659D03*
X005840Y012502D03*
X005167Y011927D03*
X005974Y011317D03*
X006305Y010939D03*
X006009Y010820D03*
X005793Y010584D03*
X005478Y010643D03*
X005242Y010407D03*
X005301Y010112D03*
X004415Y009265D03*
X004372Y008513D03*
X005128Y007254D03*
X004301Y006175D03*
X003946Y006175D03*
X003592Y006175D03*
X003238Y006175D03*
X002883Y006175D03*
X002529Y006175D03*
X002175Y006175D03*
X002175Y005584D03*
X002529Y005584D03*
X002883Y005584D03*
X003238Y005584D03*
X003592Y005584D03*
X003946Y005584D03*
X004301Y005584D03*
X005620Y004679D03*
X005856Y004679D03*
X006092Y004679D03*
X006328Y004679D03*
X006565Y004679D03*
X006565Y004443D03*
X006328Y004443D03*
X006092Y004443D03*
X005856Y004443D03*
X005620Y004443D03*
X005506Y003380D03*
X005742Y003380D03*
X005742Y003143D03*
X005506Y003143D03*
X005269Y003143D03*
X005033Y003143D03*
X004797Y003143D03*
X004797Y003380D03*
X005033Y003380D03*
X005269Y003380D03*
X005269Y002907D03*
X005033Y002907D03*
X004797Y002907D03*
X004797Y002671D03*
X005033Y002671D03*
X005269Y002671D03*
X005506Y002671D03*
X005742Y002671D03*
X005742Y002907D03*
X005506Y002907D03*
X005978Y002907D03*
X005978Y002671D03*
X006214Y002671D03*
X006214Y002907D03*
X006214Y003143D03*
X005978Y003143D03*
X005978Y003380D03*
X006214Y003380D03*
X007037Y003320D03*
X007273Y003320D03*
X007509Y003320D03*
X007509Y003084D03*
X007273Y003084D03*
X007273Y002848D03*
X007037Y002848D03*
X007037Y003084D03*
X007509Y002848D03*
X007509Y002612D03*
X007273Y002612D03*
X007037Y002612D03*
X007037Y002376D03*
X007273Y002376D03*
X007509Y002376D03*
X007509Y002139D03*
X007273Y002139D03*
X007037Y002139D03*
X006214Y002198D03*
X005978Y002198D03*
X005978Y002435D03*
X006214Y002435D03*
X005742Y002435D03*
X005506Y002435D03*
X005506Y002198D03*
X005742Y002198D03*
X005269Y002198D03*
X005033Y002198D03*
X004797Y002198D03*
X004797Y002435D03*
X005033Y002435D03*
X005269Y002435D03*
X004084Y003025D03*
X003848Y003025D03*
X003612Y003025D03*
X003376Y003025D03*
X003139Y003025D03*
X002903Y003025D03*
X002667Y003025D03*
X002667Y003261D03*
X002903Y003261D03*
X003139Y003261D03*
X003376Y003261D03*
X003612Y003261D03*
X003848Y003261D03*
X004084Y003261D03*
X004084Y003498D03*
X003848Y003498D03*
X003612Y003498D03*
X003376Y003498D03*
X003139Y003498D03*
X002903Y003498D03*
X002667Y003498D03*
X002667Y003734D03*
X002667Y003970D03*
X002903Y003970D03*
X002903Y003734D03*
X003139Y003734D03*
X003139Y003970D03*
X003376Y003970D03*
X003612Y003970D03*
X003848Y003970D03*
X003848Y003734D03*
X003612Y003734D03*
X003376Y003734D03*
X003376Y004206D03*
X003612Y004206D03*
X003848Y004206D03*
X004084Y004206D03*
X004084Y003970D03*
X004084Y003734D03*
X003139Y004206D03*
X002903Y004206D03*
X002667Y004206D03*
X002726Y002439D03*
X002962Y002439D03*
X003198Y002439D03*
X003198Y002202D03*
X003435Y002202D03*
X003671Y002202D03*
X003671Y002439D03*
X003435Y002439D03*
X007628Y004443D03*
X007864Y004443D03*
X008100Y004443D03*
X008336Y004443D03*
X008572Y004443D03*
X008572Y004679D03*
X008336Y004679D03*
X008100Y004679D03*
X007864Y004679D03*
X007628Y004679D03*
X009226Y004029D03*
X009226Y003793D03*
X009462Y003793D03*
X009462Y004029D03*
X009698Y004029D03*
X009698Y003793D03*
X009935Y003793D03*
X010171Y003793D03*
X010171Y004029D03*
X009935Y004029D03*
X010407Y004029D03*
X010407Y003793D03*
X010643Y003793D03*
X010643Y004029D03*
X010643Y003557D03*
X010407Y003557D03*
X010407Y003320D03*
X010643Y003320D03*
X010643Y003084D03*
X010407Y003084D03*
X010407Y002848D03*
X010643Y002848D03*
X010171Y002848D03*
X010171Y003084D03*
X009935Y003084D03*
X009935Y002848D03*
X009698Y002848D03*
X009462Y002848D03*
X009226Y002848D03*
X009226Y003084D03*
X009462Y003084D03*
X009698Y003084D03*
X009698Y003320D03*
X009462Y003320D03*
X009226Y003320D03*
X009226Y003557D03*
X009462Y003557D03*
X009698Y003557D03*
X009935Y003557D03*
X010171Y003557D03*
X010171Y003320D03*
X009935Y003320D03*
X008454Y003320D03*
X008218Y003320D03*
X007982Y003320D03*
X007746Y003320D03*
X007746Y003084D03*
X007982Y003084D03*
X007982Y002848D03*
X008218Y002848D03*
X008218Y003084D03*
X008454Y003084D03*
X008454Y002848D03*
X008454Y002612D03*
X008218Y002612D03*
X007982Y002612D03*
X007746Y002612D03*
X007746Y002376D03*
X007982Y002376D03*
X008218Y002376D03*
X008454Y002376D03*
X008454Y002139D03*
X008218Y002139D03*
X007982Y002139D03*
X007746Y002139D03*
X007746Y002848D03*
X009163Y002257D03*
X009163Y002021D03*
X009399Y002021D03*
X009635Y002021D03*
X009635Y002257D03*
X009399Y002257D03*
X009872Y002257D03*
X009872Y002021D03*
X010108Y002021D03*
X010108Y002257D03*
X011407Y002671D03*
X011407Y002907D03*
X011643Y002907D03*
X011643Y002671D03*
X011880Y002671D03*
X012116Y002671D03*
X012352Y002671D03*
X012352Y002907D03*
X012588Y002907D03*
X012588Y002671D03*
X012824Y002671D03*
X012824Y002907D03*
X012824Y003143D03*
X012588Y003143D03*
X012352Y003143D03*
X012116Y003143D03*
X011880Y003143D03*
X011880Y003380D03*
X012116Y003380D03*
X012352Y003380D03*
X012588Y003380D03*
X012824Y003380D03*
X012824Y003616D03*
X012588Y003616D03*
X012588Y003852D03*
X012352Y003852D03*
X012116Y003852D03*
X012116Y003616D03*
X012352Y003616D03*
X011880Y003616D03*
X011880Y003852D03*
X011643Y003852D03*
X011407Y003852D03*
X011407Y003616D03*
X011643Y003616D03*
X011643Y003380D03*
X011407Y003380D03*
X011407Y003143D03*
X011643Y003143D03*
X011880Y002907D03*
X012116Y002907D03*
X012179Y002080D03*
X012415Y002080D03*
X012415Y001844D03*
X012179Y001844D03*
X011943Y001844D03*
X011706Y001844D03*
X011470Y001844D03*
X011470Y002080D03*
X011706Y002080D03*
X011943Y002080D03*
X013655Y002966D03*
X013891Y002966D03*
X013891Y003202D03*
X013655Y003202D03*
X013655Y003439D03*
X013655Y003675D03*
X013891Y003675D03*
X013891Y003439D03*
X014128Y003439D03*
X014364Y003439D03*
X014364Y003675D03*
X014600Y003675D03*
X014600Y003439D03*
X014836Y003439D03*
X014836Y003675D03*
X015072Y003675D03*
X015072Y003439D03*
X015072Y003202D03*
X014836Y003202D03*
X014836Y002966D03*
X015072Y002966D03*
X014600Y002966D03*
X014364Y002966D03*
X014364Y003202D03*
X014600Y003202D03*
X014128Y003202D03*
X014128Y002966D03*
X014128Y003675D03*
X014128Y003911D03*
X014364Y003911D03*
X014600Y003911D03*
X014836Y003911D03*
X015072Y003911D03*
X015049Y004580D03*
X014813Y004580D03*
X014576Y004580D03*
X014340Y004580D03*
X014104Y004580D03*
X014104Y004817D03*
X014104Y005053D03*
X014340Y005053D03*
X014576Y005053D03*
X014576Y004817D03*
X014340Y004817D03*
X014813Y004817D03*
X014813Y005053D03*
X015049Y005053D03*
X015049Y004817D03*
X015049Y005289D03*
X014813Y005289D03*
X014576Y005289D03*
X014340Y005289D03*
X014104Y005289D03*
X012872Y005584D03*
X012517Y005584D03*
X012163Y005584D03*
X011809Y005584D03*
X011454Y005584D03*
X011454Y006175D03*
X011809Y006175D03*
X012163Y006175D03*
X012517Y006175D03*
X012872Y006175D03*
X013415Y007100D03*
X010509Y007860D03*
X009198Y009915D03*
X008557Y010061D03*
X008147Y009931D03*
X008088Y010289D03*
X007797Y010415D03*
X007498Y010525D03*
X006612Y011352D03*
X007907Y011549D03*
X008809Y011588D03*
X003301Y012923D03*
X002431Y012395D03*
X002797Y011600D03*
X002348Y007506D03*
X002352Y007076D03*
X012824Y003852D03*
X013655Y003911D03*
X013891Y003911D03*
X018080Y004029D03*
X018080Y004502D03*
X018080Y004915D03*
X018080Y005328D03*
X018966Y005328D03*
X018966Y004915D03*
X018966Y004502D03*
X018966Y004029D03*
X020147Y005781D03*
X020147Y006254D03*
X020147Y006726D03*
X020147Y007198D03*
D17*
X002070Y005072D02*
X002070Y001723D01*
X002228Y001881D01*
X002551Y002015D01*
X002901Y002015D01*
X003224Y001881D01*
X003472Y001634D01*
X003606Y001310D01*
X003606Y000960D01*
X003472Y000637D01*
X003314Y000480D01*
X005852Y000480D01*
X005764Y000516D01*
X005611Y000669D01*
X005528Y000870D01*
X005528Y001086D01*
X005611Y001287D01*
X005764Y001440D01*
X005964Y001523D01*
X006181Y001523D01*
X006381Y001440D01*
X006534Y001287D01*
X006617Y001086D01*
X006617Y000870D01*
X006534Y000669D01*
X006381Y000516D01*
X006293Y000480D01*
X009002Y000480D01*
X008913Y000516D01*
X008760Y000669D01*
X008677Y000870D01*
X008677Y001086D01*
X008760Y001287D01*
X008913Y001440D01*
X009114Y001523D01*
X009330Y001523D01*
X009531Y001440D01*
X009684Y001287D01*
X009767Y001086D01*
X009767Y000870D01*
X009684Y000669D01*
X009531Y000516D01*
X009443Y000480D01*
X010090Y000480D01*
X012131Y000488D01*
X012063Y000516D01*
X011910Y000669D01*
X011827Y000870D01*
X011827Y001086D01*
X011910Y001287D01*
X012063Y001440D01*
X012263Y001523D01*
X012480Y001523D01*
X012680Y001440D01*
X012834Y001287D01*
X012917Y001086D01*
X012917Y000870D01*
X012834Y000669D01*
X012680Y000516D01*
X012617Y000490D01*
X015110Y000500D01*
X014973Y000637D01*
X014839Y000960D01*
X014839Y001310D01*
X014973Y001634D01*
X015220Y001881D01*
X015543Y002015D01*
X015893Y002015D01*
X016216Y001881D01*
X016374Y001723D01*
X016374Y002265D01*
X016464Y002542D01*
X016464Y002542D01*
X016569Y002687D01*
X016545Y004187D01*
X005293Y004147D01*
X004348Y005072D01*
X002070Y005072D01*
X002070Y005049D02*
X004372Y005049D01*
X004435Y004987D02*
X002070Y004987D01*
X002070Y004926D02*
X004498Y004926D01*
X004561Y004864D02*
X002070Y004864D01*
X002070Y004803D02*
X004623Y004803D01*
X004686Y004741D02*
X002070Y004741D01*
X002070Y004680D02*
X004749Y004680D01*
X004812Y004618D02*
X002070Y004618D01*
X002070Y004557D02*
X004875Y004557D01*
X004937Y004495D02*
X002070Y004495D01*
X002070Y004434D02*
X005000Y004434D01*
X005063Y004372D02*
X002070Y004372D01*
X002070Y004311D02*
X005126Y004311D01*
X005189Y004249D02*
X002070Y004249D01*
X002070Y004188D02*
X005251Y004188D01*
X005220Y003629D02*
X005151Y003601D01*
X005083Y003629D01*
X004983Y003629D01*
X004915Y003601D01*
X004847Y003629D01*
X004747Y003629D01*
X004655Y003591D01*
X004585Y003521D01*
X004547Y003429D01*
X004547Y003330D01*
X004576Y003261D01*
X004547Y003193D01*
X004547Y003094D01*
X004576Y003025D01*
X004547Y002957D01*
X004547Y002857D01*
X004576Y002789D01*
X004547Y002721D01*
X004547Y002621D01*
X004576Y002553D01*
X004547Y002484D01*
X004547Y002385D01*
X004576Y002317D01*
X004547Y002248D01*
X004547Y002149D01*
X004585Y002057D01*
X004655Y001987D01*
X004747Y001949D01*
X004847Y001949D01*
X004915Y001977D01*
X004983Y001949D01*
X005083Y001949D01*
X005151Y001977D01*
X005220Y001949D01*
X005319Y001949D01*
X005387Y001977D01*
X005456Y001949D01*
X005555Y001949D01*
X005624Y001977D01*
X005692Y001949D01*
X005791Y001949D01*
X005860Y001977D01*
X005928Y001949D01*
X006028Y001949D01*
X006096Y001977D01*
X006165Y001949D01*
X006264Y001949D01*
X006356Y001987D01*
X006426Y002057D01*
X006464Y002149D01*
X006464Y002248D01*
X006435Y002317D01*
X006464Y002385D01*
X006464Y002484D01*
X006435Y002553D01*
X006464Y002621D01*
X006464Y002721D01*
X006435Y002789D01*
X006464Y002857D01*
X006464Y002957D01*
X006435Y003025D01*
X006464Y003094D01*
X006464Y003193D01*
X006435Y003261D01*
X006464Y003330D01*
X006464Y003429D01*
X006426Y003521D01*
X006356Y003591D01*
X006264Y003629D01*
X006165Y003629D01*
X006096Y003601D01*
X006028Y003629D01*
X005928Y003629D01*
X005860Y003601D01*
X005791Y003629D01*
X005692Y003629D01*
X005624Y003601D01*
X005555Y003629D01*
X005456Y003629D01*
X005387Y003601D01*
X005319Y003629D01*
X005220Y003629D01*
X004637Y003573D02*
X002070Y003573D01*
X002070Y003634D02*
X013406Y003634D01*
X013406Y003625D02*
X013434Y003557D01*
X013406Y003488D01*
X013406Y003389D01*
X013434Y003320D01*
X013406Y003252D01*
X013406Y003153D01*
X013434Y003084D01*
X013406Y003016D01*
X013406Y002916D01*
X013444Y002825D01*
X013514Y002755D01*
X013605Y002717D01*
X013705Y002717D01*
X013773Y002745D01*
X013842Y002717D01*
X013941Y002717D01*
X014009Y002745D01*
X014078Y002717D01*
X014177Y002717D01*
X014246Y002745D01*
X014314Y002717D01*
X014413Y002717D01*
X014482Y002745D01*
X014550Y002717D01*
X014650Y002717D01*
X014718Y002745D01*
X014787Y002717D01*
X014886Y002717D01*
X014954Y002745D01*
X015023Y002717D01*
X015122Y002717D01*
X015214Y002755D01*
X015284Y002825D01*
X015322Y002916D01*
X015322Y003016D01*
X015294Y003084D01*
X015322Y003153D01*
X015322Y003252D01*
X015294Y003320D01*
X015322Y003389D01*
X015322Y003488D01*
X015294Y003557D01*
X015322Y003625D01*
X015322Y003724D01*
X015294Y003793D01*
X015322Y003861D01*
X015322Y003961D01*
X015284Y004052D01*
X015214Y004123D01*
X015122Y004161D01*
X015023Y004161D01*
X014954Y004132D01*
X014886Y004161D01*
X014787Y004161D01*
X014718Y004132D01*
X014650Y004161D01*
X014550Y004161D01*
X014482Y004132D01*
X014413Y004161D01*
X014314Y004161D01*
X014246Y004132D01*
X014177Y004161D01*
X014078Y004161D01*
X014009Y004132D01*
X013941Y004161D01*
X013842Y004161D01*
X013773Y004132D01*
X013705Y004161D01*
X013605Y004161D01*
X013514Y004123D01*
X013444Y004052D01*
X013406Y003961D01*
X013406Y003861D01*
X013434Y003793D01*
X013406Y003724D01*
X013406Y003625D01*
X013427Y003573D02*
X006374Y003573D01*
X006430Y003512D02*
X006875Y003512D01*
X006896Y003532D02*
X006825Y003462D01*
X006787Y003370D01*
X006787Y003271D01*
X006816Y003202D01*
X006787Y003134D01*
X006787Y003035D01*
X006816Y002966D01*
X006787Y002898D01*
X006787Y002798D01*
X006816Y002730D01*
X006787Y002661D01*
X006787Y002562D01*
X006816Y002494D01*
X006787Y002425D01*
X006787Y002326D01*
X006816Y002257D01*
X006787Y002189D01*
X006787Y002090D01*
X006825Y001998D01*
X006896Y001928D01*
X006987Y001890D01*
X007087Y001890D01*
X007155Y001918D01*
X007224Y001890D01*
X007323Y001890D01*
X007391Y001918D01*
X007460Y001890D01*
X007559Y001890D01*
X007628Y001918D01*
X007696Y001890D01*
X007795Y001890D01*
X007864Y001918D01*
X007932Y001890D01*
X008032Y001890D01*
X008100Y001918D01*
X008168Y001890D01*
X008268Y001890D01*
X008336Y001918D01*
X008405Y001890D01*
X008504Y001890D01*
X008596Y001928D01*
X008666Y001998D01*
X008704Y002090D01*
X008704Y002189D01*
X008676Y002257D01*
X008704Y002326D01*
X008704Y002425D01*
X008676Y002494D01*
X008704Y002562D01*
X008704Y002661D01*
X008676Y002730D01*
X008704Y002798D01*
X008704Y002898D01*
X008676Y002966D01*
X008704Y003035D01*
X008704Y003134D01*
X008676Y003202D01*
X008704Y003271D01*
X008704Y003370D01*
X008666Y003462D01*
X008596Y003532D01*
X008504Y003570D01*
X008405Y003570D01*
X008336Y003542D01*
X008268Y003570D01*
X008168Y003570D01*
X008100Y003542D01*
X008032Y003570D01*
X007932Y003570D01*
X007864Y003542D01*
X007795Y003570D01*
X007696Y003570D01*
X007628Y003542D01*
X007559Y003570D01*
X007460Y003570D01*
X007391Y003542D01*
X007323Y003570D01*
X007224Y003570D01*
X007155Y003542D01*
X007087Y003570D01*
X006987Y003570D01*
X006896Y003532D01*
X006821Y003450D02*
X006455Y003450D01*
X006464Y003389D02*
X006795Y003389D01*
X006787Y003327D02*
X006463Y003327D01*
X006437Y003266D02*
X006790Y003266D01*
X006815Y003204D02*
X006459Y003204D01*
X006464Y003143D02*
X006791Y003143D01*
X006787Y003081D02*
X006459Y003081D01*
X006438Y003020D02*
X006794Y003020D01*
X006812Y002958D02*
X006463Y002958D01*
X006464Y002897D02*
X006787Y002897D01*
X006787Y002835D02*
X006455Y002835D01*
X006442Y002774D02*
X006798Y002774D01*
X006808Y002712D02*
X006464Y002712D01*
X006464Y002651D02*
X006787Y002651D01*
X006787Y002589D02*
X006451Y002589D01*
X006446Y002528D02*
X006802Y002528D01*
X006804Y002466D02*
X006464Y002466D01*
X006464Y002405D02*
X006787Y002405D01*
X006787Y002343D02*
X006446Y002343D01*
X006450Y002282D02*
X006806Y002282D01*
X006800Y002220D02*
X006464Y002220D01*
X006464Y002159D02*
X006787Y002159D01*
X006787Y002097D02*
X006442Y002097D01*
X006404Y002036D02*
X006810Y002036D01*
X006849Y001974D02*
X006325Y001974D01*
X006103Y001974D02*
X006089Y001974D01*
X005867Y001974D02*
X005853Y001974D01*
X005631Y001974D02*
X005616Y001974D01*
X005395Y001974D02*
X005380Y001974D01*
X005158Y001974D02*
X005144Y001974D01*
X004922Y001974D02*
X004908Y001974D01*
X004686Y001974D02*
X003772Y001974D01*
X003812Y001991D02*
X003882Y002061D01*
X003920Y002153D01*
X003920Y002252D01*
X003892Y002320D01*
X003920Y002389D01*
X003920Y002488D01*
X003882Y002580D01*
X003812Y002650D01*
X003721Y002688D01*
X003621Y002688D01*
X003553Y002660D01*
X003484Y002688D01*
X003385Y002688D01*
X003317Y002660D01*
X003248Y002688D01*
X003149Y002688D01*
X003080Y002660D01*
X003012Y002688D01*
X002913Y002688D01*
X002844Y002660D01*
X002776Y002688D01*
X002676Y002688D01*
X002585Y002650D01*
X002514Y002580D01*
X002476Y002488D01*
X002476Y002389D01*
X002514Y002297D01*
X002585Y002227D01*
X002676Y002189D01*
X002776Y002189D01*
X002844Y002217D01*
X002913Y002189D01*
X002949Y002189D01*
X002949Y002153D01*
X002987Y002061D01*
X003057Y001991D01*
X003149Y001953D01*
X003248Y001953D01*
X003317Y001981D01*
X003385Y001953D01*
X003484Y001953D01*
X003553Y001981D01*
X003621Y001953D01*
X003721Y001953D01*
X003812Y001991D01*
X003857Y002036D02*
X004607Y002036D01*
X004569Y002097D02*
X003897Y002097D01*
X003920Y002159D02*
X004547Y002159D01*
X004547Y002220D02*
X003920Y002220D01*
X003908Y002282D02*
X004561Y002282D01*
X004565Y002343D02*
X003902Y002343D01*
X003920Y002405D02*
X004547Y002405D01*
X004547Y002466D02*
X003920Y002466D01*
X003904Y002528D02*
X004565Y002528D01*
X004561Y002589D02*
X003873Y002589D01*
X003811Y002651D02*
X004547Y002651D01*
X004547Y002712D02*
X002070Y002712D01*
X002070Y002651D02*
X002586Y002651D01*
X002524Y002589D02*
X002070Y002589D01*
X002070Y002528D02*
X002493Y002528D01*
X002476Y002466D02*
X002070Y002466D01*
X002070Y002405D02*
X002476Y002405D01*
X002495Y002343D02*
X002070Y002343D01*
X002070Y002282D02*
X002530Y002282D01*
X002601Y002220D02*
X002070Y002220D01*
X002070Y002159D02*
X002949Y002159D01*
X002972Y002097D02*
X002070Y002097D01*
X002070Y002036D02*
X003012Y002036D01*
X002999Y001974D02*
X003097Y001974D01*
X003148Y001913D02*
X006932Y001913D01*
X007142Y001913D02*
X007168Y001913D01*
X007378Y001913D02*
X007404Y001913D01*
X007615Y001913D02*
X007641Y001913D01*
X007851Y001913D02*
X007877Y001913D01*
X008087Y001913D02*
X008113Y001913D01*
X008323Y001913D02*
X008349Y001913D01*
X008559Y001913D02*
X008938Y001913D01*
X008951Y001880D02*
X009022Y001810D01*
X009113Y001772D01*
X009213Y001772D01*
X009281Y001800D01*
X009350Y001772D01*
X009449Y001772D01*
X009517Y001800D01*
X009586Y001772D01*
X009685Y001772D01*
X009754Y001800D01*
X009822Y001772D01*
X009921Y001772D01*
X009990Y001800D01*
X010058Y001772D01*
X010158Y001772D01*
X010249Y001810D01*
X010320Y001880D01*
X010358Y001972D01*
X010358Y002071D01*
X010329Y002139D01*
X010358Y002208D01*
X010358Y002307D01*
X010320Y002399D01*
X010249Y002469D01*
X010158Y002507D01*
X010058Y002507D01*
X009990Y002479D01*
X009921Y002507D01*
X009822Y002507D01*
X009754Y002479D01*
X009685Y002507D01*
X009586Y002507D01*
X009517Y002479D01*
X009449Y002507D01*
X009350Y002507D01*
X009281Y002479D01*
X009213Y002507D01*
X009113Y002507D01*
X009022Y002469D01*
X008951Y002399D01*
X008913Y002307D01*
X008913Y002208D01*
X008942Y002139D01*
X008913Y002071D01*
X008913Y001972D01*
X008951Y001880D01*
X008980Y001851D02*
X003254Y001851D01*
X003316Y001790D02*
X009070Y001790D01*
X009256Y001790D02*
X009306Y001790D01*
X009492Y001790D02*
X009542Y001790D01*
X009729Y001790D02*
X009778Y001790D01*
X009965Y001790D02*
X010015Y001790D01*
X010201Y001790D02*
X011222Y001790D01*
X011220Y001794D02*
X011258Y001703D01*
X011329Y001632D01*
X011420Y001594D01*
X011520Y001594D01*
X011588Y001623D01*
X011657Y001594D01*
X011756Y001594D01*
X011824Y001623D01*
X011893Y001594D01*
X011992Y001594D01*
X012061Y001623D01*
X012129Y001594D01*
X012228Y001594D01*
X012297Y001623D01*
X012365Y001594D01*
X012465Y001594D01*
X012556Y001632D01*
X012627Y001703D01*
X012665Y001794D01*
X012665Y001894D01*
X012636Y001962D01*
X012665Y002031D01*
X012665Y002130D01*
X012627Y002222D01*
X012556Y002292D01*
X012465Y002330D01*
X012365Y002330D01*
X012297Y002302D01*
X012228Y002330D01*
X012129Y002330D01*
X012061Y002302D01*
X011992Y002330D01*
X011893Y002330D01*
X011824Y002302D01*
X011756Y002330D01*
X011657Y002330D01*
X011588Y002302D01*
X011520Y002330D01*
X011420Y002330D01*
X011329Y002292D01*
X011258Y002222D01*
X011220Y002130D01*
X011220Y002031D01*
X011249Y001962D01*
X011220Y001894D01*
X011220Y001794D01*
X011220Y001851D02*
X010291Y001851D01*
X010333Y001913D02*
X011228Y001913D01*
X011244Y001974D02*
X010358Y001974D01*
X010358Y002036D02*
X011220Y002036D01*
X011220Y002097D02*
X010347Y002097D01*
X010337Y002159D02*
X011232Y002159D01*
X011258Y002220D02*
X010358Y002220D01*
X010358Y002282D02*
X011318Y002282D01*
X011248Y001728D02*
X003377Y001728D01*
X003439Y001667D02*
X011294Y001667D01*
X011394Y001605D02*
X003483Y001605D01*
X003509Y001544D02*
X014935Y001544D01*
X014961Y001605D02*
X012491Y001605D01*
X012591Y001667D02*
X015006Y001667D01*
X015067Y001728D02*
X012637Y001728D01*
X012663Y001790D02*
X015129Y001790D01*
X015190Y001851D02*
X012665Y001851D01*
X012657Y001913D02*
X015296Y001913D01*
X015445Y001974D02*
X012641Y001974D01*
X012665Y002036D02*
X016374Y002036D01*
X016374Y002097D02*
X012665Y002097D01*
X012653Y002159D02*
X016374Y002159D01*
X016374Y002220D02*
X012627Y002220D01*
X012567Y002282D02*
X016379Y002282D01*
X016399Y002343D02*
X010343Y002343D01*
X010314Y002405D02*
X016419Y002405D01*
X016439Y002466D02*
X010252Y002466D01*
X009019Y002466D02*
X008687Y002466D01*
X008690Y002528D02*
X016459Y002528D01*
X016498Y002589D02*
X008704Y002589D01*
X008704Y002651D02*
X016543Y002651D01*
X016569Y002712D02*
X008683Y002712D01*
X008694Y002774D02*
X013495Y002774D01*
X013439Y002835D02*
X008704Y002835D01*
X008704Y002897D02*
X013414Y002897D01*
X013406Y002958D02*
X008679Y002958D01*
X008698Y003020D02*
X013407Y003020D01*
X013433Y003081D02*
X008704Y003081D01*
X008700Y003143D02*
X013410Y003143D01*
X013406Y003204D02*
X008676Y003204D01*
X008702Y003266D02*
X013411Y003266D01*
X013431Y003327D02*
X008704Y003327D01*
X008696Y003389D02*
X013406Y003389D01*
X013406Y003450D02*
X008671Y003450D01*
X008616Y003512D02*
X013415Y003512D01*
X013406Y003696D02*
X002070Y003696D01*
X002070Y003757D02*
X013419Y003757D01*
X013423Y003819D02*
X002070Y003819D01*
X002070Y003880D02*
X013406Y003880D01*
X013406Y003942D02*
X002070Y003942D01*
X002070Y004003D02*
X013423Y004003D01*
X013456Y004065D02*
X002070Y004065D01*
X002070Y004126D02*
X013523Y004126D01*
X015205Y004126D02*
X016546Y004126D01*
X016547Y004065D02*
X015272Y004065D01*
X015304Y004003D02*
X016548Y004003D01*
X016549Y003942D02*
X015322Y003942D01*
X015322Y003880D02*
X016550Y003880D01*
X016551Y003819D02*
X015305Y003819D01*
X015308Y003757D02*
X016552Y003757D01*
X016553Y003696D02*
X015322Y003696D01*
X015322Y003634D02*
X016554Y003634D01*
X016555Y003573D02*
X015300Y003573D01*
X015312Y003512D02*
X016556Y003512D01*
X016557Y003450D02*
X015322Y003450D01*
X015322Y003389D02*
X016558Y003389D01*
X016559Y003327D02*
X015296Y003327D01*
X015316Y003266D02*
X016560Y003266D01*
X016561Y003204D02*
X015322Y003204D01*
X015318Y003143D02*
X016562Y003143D01*
X016563Y003081D02*
X015295Y003081D01*
X015321Y003020D02*
X016564Y003020D01*
X016565Y002958D02*
X015322Y002958D01*
X015314Y002897D02*
X016566Y002897D01*
X016567Y002835D02*
X015288Y002835D01*
X015233Y002774D02*
X016568Y002774D01*
X016374Y001974D02*
X015991Y001974D01*
X016140Y001913D02*
X016374Y001913D01*
X016374Y001851D02*
X016246Y001851D01*
X016308Y001790D02*
X016374Y001790D01*
X016369Y001728D02*
X016374Y001728D01*
X014910Y001482D02*
X012578Y001482D01*
X012699Y001421D02*
X014884Y001421D01*
X014859Y001359D02*
X012761Y001359D01*
X012822Y001298D02*
X014839Y001298D01*
X014839Y001236D02*
X012854Y001236D01*
X012880Y001175D02*
X014839Y001175D01*
X014839Y001113D02*
X012905Y001113D01*
X012917Y001052D02*
X014839Y001052D01*
X014839Y000990D02*
X012917Y000990D01*
X012917Y000929D02*
X014852Y000929D01*
X014877Y000867D02*
X012916Y000867D01*
X012890Y000806D02*
X014903Y000806D01*
X014928Y000744D02*
X012865Y000744D01*
X012839Y000683D02*
X014954Y000683D01*
X014988Y000621D02*
X012786Y000621D01*
X012724Y000560D02*
X015050Y000560D01*
X014817Y000498D02*
X012638Y000498D01*
X012106Y000498D02*
X009488Y000498D01*
X009575Y000560D02*
X012019Y000560D01*
X011958Y000621D02*
X009636Y000621D01*
X009690Y000683D02*
X011904Y000683D01*
X011879Y000744D02*
X009715Y000744D01*
X009741Y000806D02*
X011853Y000806D01*
X011828Y000867D02*
X009766Y000867D01*
X009767Y000929D02*
X011827Y000929D01*
X011827Y000990D02*
X009767Y000990D01*
X009767Y001052D02*
X011827Y001052D01*
X011838Y001113D02*
X009756Y001113D01*
X009730Y001175D02*
X011863Y001175D01*
X011889Y001236D02*
X009705Y001236D01*
X009673Y001298D02*
X011921Y001298D01*
X011982Y001359D02*
X009611Y001359D01*
X009550Y001421D02*
X012044Y001421D01*
X012165Y001482D02*
X009428Y001482D01*
X009016Y001482D02*
X006279Y001482D01*
X006400Y001421D02*
X008894Y001421D01*
X008833Y001359D02*
X006462Y001359D01*
X006523Y001298D02*
X008771Y001298D01*
X008739Y001236D02*
X006555Y001236D01*
X006581Y001175D02*
X008714Y001175D01*
X008688Y001113D02*
X006606Y001113D01*
X006617Y001052D02*
X008677Y001052D01*
X008677Y000990D02*
X006617Y000990D01*
X006617Y000929D02*
X008677Y000929D01*
X008678Y000867D02*
X006616Y000867D01*
X006591Y000806D02*
X008704Y000806D01*
X008729Y000744D02*
X006565Y000744D01*
X006540Y000683D02*
X008755Y000683D01*
X008808Y000621D02*
X006486Y000621D01*
X006425Y000560D02*
X008870Y000560D01*
X008956Y000498D02*
X006339Y000498D01*
X005806Y000498D02*
X003333Y000498D01*
X003394Y000560D02*
X005720Y000560D01*
X005658Y000621D02*
X003456Y000621D01*
X003491Y000683D02*
X005605Y000683D01*
X005579Y000744D02*
X003516Y000744D01*
X003541Y000806D02*
X005554Y000806D01*
X005529Y000867D02*
X003567Y000867D01*
X003592Y000929D02*
X005528Y000929D01*
X005528Y000990D02*
X003606Y000990D01*
X003606Y001052D02*
X005528Y001052D01*
X005539Y001113D02*
X003606Y001113D01*
X003606Y001175D02*
X005564Y001175D01*
X005590Y001236D02*
X003606Y001236D01*
X003606Y001298D02*
X005622Y001298D01*
X005683Y001359D02*
X003585Y001359D01*
X003560Y001421D02*
X005745Y001421D01*
X005866Y001482D02*
X003534Y001482D01*
X003536Y001974D02*
X003569Y001974D01*
X003333Y001974D02*
X003300Y001974D01*
X002453Y001974D02*
X002070Y001974D01*
X002070Y001913D02*
X002304Y001913D01*
X002198Y001851D02*
X002070Y001851D01*
X002070Y001790D02*
X002136Y001790D01*
X002075Y001728D02*
X002070Y001728D01*
X002070Y002774D02*
X004569Y002774D01*
X004557Y002835D02*
X002070Y002835D01*
X002070Y002897D02*
X004547Y002897D01*
X004548Y002958D02*
X002070Y002958D01*
X002070Y003020D02*
X004573Y003020D01*
X004552Y003081D02*
X002070Y003081D01*
X002070Y003143D02*
X004547Y003143D01*
X004552Y003204D02*
X002070Y003204D01*
X002070Y003266D02*
X004574Y003266D01*
X004548Y003327D02*
X002070Y003327D01*
X002070Y003389D02*
X004547Y003389D01*
X004556Y003450D02*
X002070Y003450D01*
X002070Y003512D02*
X004581Y003512D01*
X005029Y006037D02*
X005147Y006214D01*
X006328Y006561D02*
X006450Y006561D01*
X006576Y006435D01*
X008021Y006435D01*
X008147Y006561D01*
X007907Y006773D02*
X007868Y006813D01*
X006907Y006813D01*
X006773Y006679D01*
X008336Y006864D02*
X008336Y007868D01*
X008395Y007927D01*
X008641Y007927D01*
X008927Y008212D02*
X008691Y008448D01*
X008691Y008458D01*
X008529Y008828D02*
X008419Y008939D01*
X008529Y008828D02*
X010860Y008828D01*
X011238Y009206D01*
X011632Y009206D01*
X013285Y010860D01*
X013600Y010860D01*
X013344Y011116D02*
X013876Y011116D01*
X013344Y011116D02*
X013226Y010998D01*
X012950Y010702D01*
X011572Y009344D01*
X011143Y009344D01*
X010923Y009108D01*
X009943Y009108D01*
X009895Y009061D01*
X010450Y008702D02*
X011049Y008104D01*
X011049Y007320D01*
X011297Y007072D01*
X011742Y007065D02*
X011742Y007631D01*
X012183Y008072D01*
X012435Y008072D01*
X010683Y007159D02*
X010683Y006805D01*
X010565Y006687D01*
X008513Y006687D01*
X008336Y006864D01*
X009222Y007631D02*
X009517Y007927D01*
X009517Y008212D01*
X009340Y008232D02*
X009320Y008212D01*
X009340Y008232D02*
X009340Y008458D01*
X009399Y008517D01*
X010391Y008517D01*
X010509Y008399D01*
X010509Y007860D01*
X010277Y007509D02*
X010104Y007336D01*
X009803Y007336D01*
X009517Y007051D02*
X010169Y007051D01*
X010277Y007159D01*
X009222Y007631D02*
X009163Y007868D01*
X009104Y007809D01*
X008151Y008702D02*
X007836Y009017D01*
X003238Y009017D01*
X002986Y009269D01*
X002986Y011411D01*
X002797Y011600D01*
X002797Y007946D01*
X002348Y007506D01*
X004415Y009265D02*
X004710Y009639D01*
X004710Y010427D01*
X005191Y010907D01*
X005565Y010907D01*
X005714Y011057D01*
X006069Y011057D01*
X006364Y011352D01*
X006612Y011352D01*
X006399Y011033D02*
X010608Y011033D01*
X010643Y010998D01*
X010805Y010998D01*
X010608Y011159D02*
X008297Y011159D01*
X007907Y011549D01*
X006639Y010781D02*
X010482Y010781D01*
X010734Y010529D01*
X011238Y010529D01*
X011352Y010643D01*
X011395Y010643D01*
X011100Y010820D02*
X011025Y010820D01*
X010923Y010718D01*
X010734Y010718D01*
X010545Y010907D01*
X006576Y010907D01*
X006198Y010529D01*
X005828Y010529D01*
X005793Y010584D01*
X005537Y010643D02*
X005478Y010643D01*
X005466Y010655D01*
X005128Y010655D01*
X005006Y010533D01*
X005006Y010171D01*
X005065Y010112D01*
X005301Y010112D01*
X005403Y010214D01*
X006828Y010214D01*
X007139Y010525D01*
X007498Y010525D01*
X007628Y010655D01*
X010419Y010655D01*
X010765Y010309D01*
X010927Y010309D01*
X010797Y010088D02*
X011553Y010088D01*
X012498Y011033D01*
X012498Y011852D01*
X012348Y012002D01*
X012340Y012002D01*
X012576Y012151D02*
X012576Y012238D01*
X012576Y012151D02*
X012687Y012041D01*
X012687Y011033D01*
X011616Y009962D01*
X010734Y009962D01*
X010293Y010403D01*
X008202Y010403D01*
X008088Y010289D01*
X007911Y010529D02*
X010356Y010529D01*
X010797Y010088D01*
X010671Y009836D02*
X010230Y010277D01*
X008431Y010277D01*
X008147Y009931D01*
X008557Y010061D02*
X008647Y010151D01*
X010167Y010151D01*
X010608Y009710D01*
X011761Y009710D01*
X012939Y010887D01*
X012939Y011773D01*
X013049Y011943D01*
X013049Y012773D01*
X012813Y012537D02*
X012813Y010970D01*
X011679Y009836D01*
X010671Y009836D01*
X010450Y008702D02*
X008151Y008702D01*
X006198Y010340D02*
X006639Y010781D01*
X006399Y011033D02*
X006305Y010939D01*
X006009Y010820D02*
X005950Y010880D01*
X005773Y010880D01*
X005537Y010643D01*
X005242Y010407D02*
X005309Y010340D01*
X006198Y010340D01*
X007797Y010415D02*
X007911Y010529D01*
X009509Y011647D02*
X008565Y012592D01*
X009352Y012592D02*
X010061Y011883D01*
X011159Y011883D01*
X010856Y011647D02*
X009509Y011647D01*
X010608Y011159D02*
X010734Y011285D01*
X011742Y011285D01*
X012100Y011643D01*
X012100Y011714D01*
X014324Y010718D02*
X014324Y010592D01*
X014324Y010718D02*
X014702Y011096D01*
X014702Y012545D01*
X013065Y014183D01*
X008718Y014183D01*
X008151Y013616D01*
X007714Y013643D02*
X008443Y014372D01*
X013116Y014372D01*
X014659Y012828D01*
X014820Y012828D01*
X014880Y012769D01*
X014387Y013679D02*
X013525Y014541D01*
X008226Y014541D01*
X007344Y013659D01*
X008704Y002405D02*
X008957Y002405D01*
X008928Y002343D02*
X008704Y002343D01*
X008686Y002282D02*
X008913Y002282D01*
X008913Y002220D02*
X008691Y002220D01*
X008704Y002159D02*
X008934Y002159D01*
X008924Y002097D02*
X008704Y002097D01*
X008682Y002036D02*
X008913Y002036D01*
X008913Y001974D02*
X008642Y001974D01*
X011546Y001605D02*
X011631Y001605D01*
X011782Y001605D02*
X011867Y001605D01*
X012018Y001605D02*
X012103Y001605D01*
X012254Y001605D02*
X012339Y001605D01*
D18*
X015521Y002026D02*
X015521Y004679D01*
X016210Y005368D01*
X020935Y005466D01*
X020935Y003057D01*
X020365Y003057D01*
X020403Y003073D01*
X020529Y003198D01*
X020596Y003362D01*
X020596Y003539D01*
X020529Y003703D01*
X020403Y003828D01*
X020240Y003896D01*
X020063Y003896D01*
X019899Y003828D01*
X019774Y003703D01*
X019706Y003539D01*
X019706Y003362D01*
X019774Y003198D01*
X019899Y003073D01*
X019937Y003057D01*
X017231Y003057D01*
X017144Y003057D01*
X016862Y002965D01*
X016622Y002791D01*
X016622Y002791D01*
X016447Y002551D01*
X016447Y002551D01*
X016356Y002268D01*
X016356Y001768D01*
X016227Y001897D01*
X015897Y002033D01*
X015540Y002033D01*
X015521Y002026D01*
X015521Y002115D02*
X016356Y002115D01*
X016356Y002017D02*
X015937Y002017D01*
X016174Y001918D02*
X016356Y001918D01*
X016356Y001820D02*
X016304Y001820D01*
X016356Y002214D02*
X015521Y002214D01*
X015521Y002312D02*
X016370Y002312D01*
X016402Y002411D02*
X015521Y002411D01*
X015521Y002509D02*
X016434Y002509D01*
X016489Y002608D02*
X015521Y002608D01*
X015521Y002706D02*
X016561Y002706D01*
X016622Y002791D02*
X016622Y002791D01*
X016641Y002805D02*
X015521Y002805D01*
X015521Y002903D02*
X016777Y002903D01*
X016862Y002965D02*
X016862Y002965D01*
X016975Y003002D02*
X015521Y003002D01*
X015521Y003100D02*
X019871Y003100D01*
X019773Y003199D02*
X015521Y003199D01*
X015521Y003297D02*
X019733Y003297D01*
X019706Y003396D02*
X015521Y003396D01*
X015521Y003494D02*
X019706Y003494D01*
X019728Y003593D02*
X015521Y003593D01*
X015521Y003691D02*
X019769Y003691D01*
X019861Y003790D02*
X015521Y003790D01*
X015521Y003888D02*
X020045Y003888D01*
X020257Y003888D02*
X020935Y003888D01*
X020935Y003790D02*
X020441Y003790D01*
X020533Y003691D02*
X020935Y003691D01*
X020935Y003593D02*
X020574Y003593D01*
X020596Y003494D02*
X020935Y003494D01*
X020935Y003396D02*
X020596Y003396D01*
X020570Y003297D02*
X020935Y003297D01*
X020935Y003199D02*
X020529Y003199D01*
X020431Y003100D02*
X020935Y003100D01*
X020935Y003987D02*
X015521Y003987D01*
X015521Y004085D02*
X020935Y004085D01*
X020935Y004184D02*
X015521Y004184D01*
X015521Y004282D02*
X020935Y004282D01*
X020935Y004381D02*
X015521Y004381D01*
X015521Y004479D02*
X020935Y004479D01*
X020935Y004578D02*
X015521Y004578D01*
X015521Y004676D02*
X020935Y004676D01*
X020935Y004775D02*
X015618Y004775D01*
X015716Y004873D02*
X020935Y004873D01*
X020935Y004972D02*
X015815Y004972D01*
X015913Y005070D02*
X020935Y005070D01*
X020935Y005169D02*
X016012Y005169D01*
X016110Y005267D02*
X020935Y005267D01*
X020935Y005366D02*
X016209Y005366D01*
X016110Y005563D02*
X002089Y005563D01*
X002089Y005661D02*
X020861Y005661D01*
X020935Y005663D02*
X016112Y005565D01*
X015324Y004777D01*
X015324Y004383D01*
X009616Y004383D01*
X008730Y005269D01*
X008655Y005269D01*
X008612Y005312D01*
X007123Y005312D01*
X007081Y005269D01*
X007080Y005269D01*
X007037Y005312D01*
X004541Y005312D01*
X004498Y005269D01*
X002089Y005269D01*
X002089Y006254D01*
X013848Y006254D01*
X014734Y007238D01*
X020935Y007336D01*
X020920Y007336D01*
X020935Y007336D02*
X020935Y005663D01*
X020935Y005760D02*
X002089Y005760D01*
X002089Y005858D02*
X020935Y005858D01*
X020935Y005957D02*
X002089Y005957D01*
X002089Y006055D02*
X020935Y006055D01*
X020935Y006154D02*
X002089Y006154D01*
X002089Y006252D02*
X020935Y006252D01*
X020935Y006351D02*
X013936Y006351D01*
X014024Y006449D02*
X020935Y006449D01*
X020935Y006548D02*
X014113Y006548D01*
X014202Y006646D02*
X020935Y006646D01*
X020935Y006745D02*
X014290Y006745D01*
X014379Y006843D02*
X020935Y006843D01*
X020935Y006942D02*
X014468Y006942D01*
X014556Y007040D02*
X020935Y007040D01*
X020935Y007139D02*
X014645Y007139D01*
X014734Y007237D02*
X020935Y007237D01*
X020935Y005464D02*
X020855Y005464D01*
X017144Y003057D02*
X017144Y003057D01*
X015324Y004479D02*
X009520Y004479D01*
X009421Y004578D02*
X015324Y004578D01*
X015324Y004676D02*
X009323Y004676D01*
X009224Y004775D02*
X015324Y004775D01*
X015421Y004873D02*
X009126Y004873D01*
X009027Y004972D02*
X015519Y004972D01*
X015618Y005070D02*
X008929Y005070D01*
X008830Y005169D02*
X015716Y005169D01*
X015815Y005267D02*
X008732Y005267D01*
X008570Y005070D02*
X007206Y005070D01*
X007206Y005112D02*
X008529Y005112D01*
X009285Y004356D01*
X007206Y004356D01*
X007206Y005112D01*
X007206Y004972D02*
X008669Y004972D01*
X008767Y004873D02*
X007206Y004873D01*
X007206Y004775D02*
X008866Y004775D01*
X008964Y004676D02*
X007206Y004676D01*
X007206Y004578D02*
X009063Y004578D01*
X009161Y004479D02*
X007206Y004479D01*
X007206Y004381D02*
X009260Y004381D01*
X006954Y004381D02*
X005354Y004381D01*
X005380Y004356D02*
X004624Y005112D01*
X006954Y005112D01*
X006954Y004356D01*
X005380Y004356D01*
X005256Y004479D02*
X006954Y004479D01*
X006954Y004578D02*
X005157Y004578D01*
X005059Y004676D02*
X006954Y004676D01*
X006954Y004775D02*
X004960Y004775D01*
X004862Y004873D02*
X006954Y004873D01*
X006954Y004972D02*
X004763Y004972D01*
X004665Y005070D02*
X006954Y005070D01*
X007781Y007159D02*
X005400Y007159D01*
X005416Y007196D01*
X005416Y007311D01*
X005372Y007417D01*
X005291Y007498D01*
X005185Y007542D01*
X005165Y007542D01*
X004602Y008105D01*
X004602Y008336D01*
X004616Y008350D01*
X004660Y008456D01*
X004660Y008571D01*
X004616Y008677D01*
X004535Y008758D01*
X004533Y008758D01*
X004533Y008816D01*
X007753Y008816D01*
X008017Y008551D01*
X008017Y007395D01*
X007781Y007159D01*
X007860Y007237D02*
X005416Y007237D01*
X005405Y007336D02*
X007958Y007336D01*
X008017Y007434D02*
X005354Y007434D01*
X005206Y007533D02*
X008017Y007533D01*
X008017Y007631D02*
X005075Y007631D01*
X004976Y007730D02*
X008017Y007730D01*
X008017Y007828D02*
X004878Y007828D01*
X004779Y007927D02*
X008017Y007927D01*
X008017Y008025D02*
X004681Y008025D01*
X004602Y008124D02*
X008017Y008124D01*
X008017Y008222D02*
X004602Y008222D01*
X004602Y008321D02*
X008017Y008321D01*
X008017Y008419D02*
X004645Y008419D01*
X004660Y008518D02*
X008017Y008518D01*
X007952Y008616D02*
X004641Y008616D01*
X004578Y008715D02*
X007854Y008715D01*
X007755Y008813D02*
X004533Y008813D01*
X004703Y009219D02*
X004703Y009305D01*
X004861Y009505D01*
X004912Y009556D01*
X004912Y009569D01*
X004920Y009580D01*
X004912Y009651D01*
X004912Y009980D01*
X004922Y009969D01*
X004981Y009910D01*
X005095Y009910D01*
X005138Y009868D01*
X005243Y009824D01*
X005358Y009824D01*
X005464Y009868D01*
X005545Y009949D01*
X005572Y010013D01*
X006912Y010013D01*
X007011Y010112D01*
X007368Y010112D01*
X008017Y009462D01*
X008017Y009121D01*
X007920Y009219D01*
X004703Y009219D01*
X004704Y009306D02*
X008017Y009306D01*
X008017Y009208D02*
X007931Y009208D01*
X008017Y009405D02*
X004782Y009405D01*
X004859Y009503D02*
X007977Y009503D01*
X007878Y009602D02*
X004918Y009602D01*
X004912Y009700D02*
X007780Y009700D01*
X007681Y009799D02*
X004912Y009799D01*
X004912Y009897D02*
X005108Y009897D01*
X004922Y009969D02*
X004922Y009969D01*
X005493Y009897D02*
X007583Y009897D01*
X007484Y009996D02*
X005564Y009996D01*
X006993Y010094D02*
X007386Y010094D01*
X002089Y005464D02*
X016012Y005464D01*
X015913Y005366D02*
X002089Y005366D01*
D19*
X004372Y008009D02*
X005128Y007254D01*
X004372Y008009D02*
X004372Y008513D01*
D20*
X002726Y014128D03*
X015718Y014128D03*
X015718Y001135D03*
X002726Y001135D03*
M02*
