G75*
%MOIN*%
%OFA0B0*%
%FSLAX24Y24*%
%IPPOS*%
%LPD*%
%AMOC8*
5,1,8,0,0,1.08239X$1,22.5*
%
%ADD10C,0.0827*%
%ADD11C,0.1004*%
%ADD12C,0.0591*%
%ADD13C,0.0472*%
%ADD14C,0.0531*%
%ADD15C,0.0236*%
%ADD16C,0.0100*%
%ADD17C,0.0063*%
%ADD18C,0.1227*%
D10*
X006072Y000978D03*
X009222Y000978D03*
X012372Y000978D03*
D11*
X016214Y004631D03*
X016214Y006600D03*
D12*
X020151Y007781D03*
X020151Y003450D03*
D13*
X018907Y009383D03*
X018907Y010171D03*
X018907Y010958D03*
D14*
X019104Y011844D03*
X020974Y011844D03*
X020974Y008498D03*
X019104Y008498D03*
D15*
X020147Y007198D03*
X020147Y006726D03*
X020147Y006254D03*
X020147Y005781D03*
X018966Y005328D03*
X018966Y004915D03*
X018966Y004502D03*
X018966Y004029D03*
X018080Y004029D03*
X018080Y004502D03*
X018080Y004915D03*
X018080Y005328D03*
X015049Y005289D03*
X014813Y005289D03*
X014576Y005289D03*
X014340Y005289D03*
X014104Y005289D03*
X014104Y005053D03*
X014340Y005053D03*
X014576Y005053D03*
X014576Y004817D03*
X014340Y004817D03*
X014104Y004817D03*
X014104Y004580D03*
X014340Y004580D03*
X014576Y004580D03*
X014813Y004580D03*
X015049Y004580D03*
X015049Y004817D03*
X015049Y005053D03*
X014813Y005053D03*
X014813Y004817D03*
X014836Y003911D03*
X014600Y003911D03*
X014364Y003911D03*
X014128Y003911D03*
X013891Y003911D03*
X013655Y003911D03*
X013655Y003675D03*
X013891Y003675D03*
X013891Y003439D03*
X013655Y003439D03*
X013655Y003202D03*
X013655Y002966D03*
X013891Y002966D03*
X013891Y003202D03*
X014128Y003202D03*
X014364Y003202D03*
X014364Y002966D03*
X014600Y002966D03*
X014836Y002966D03*
X014836Y003202D03*
X014600Y003202D03*
X014600Y003439D03*
X014600Y003675D03*
X014364Y003675D03*
X014364Y003439D03*
X014128Y003439D03*
X014128Y003675D03*
X014836Y003675D03*
X014836Y003439D03*
X015072Y003439D03*
X015072Y003675D03*
X015072Y003911D03*
X015072Y003202D03*
X015072Y002966D03*
X014128Y002966D03*
X012824Y002907D03*
X012588Y002907D03*
X012352Y002907D03*
X012352Y002671D03*
X012588Y002671D03*
X012824Y002671D03*
X012824Y003143D03*
X012588Y003143D03*
X012352Y003143D03*
X012116Y003143D03*
X011880Y003143D03*
X011880Y003380D03*
X012116Y003380D03*
X012352Y003380D03*
X012588Y003380D03*
X012824Y003380D03*
X012824Y003616D03*
X012588Y003616D03*
X012588Y003852D03*
X012352Y003852D03*
X012116Y003852D03*
X012116Y003616D03*
X012352Y003616D03*
X011880Y003616D03*
X011880Y003852D03*
X011643Y003852D03*
X011407Y003852D03*
X011407Y003616D03*
X011643Y003616D03*
X011643Y003380D03*
X011407Y003380D03*
X011407Y003143D03*
X011643Y003143D03*
X011643Y002907D03*
X011407Y002907D03*
X011407Y002671D03*
X011643Y002671D03*
X011880Y002671D03*
X012116Y002671D03*
X012116Y002907D03*
X011880Y002907D03*
X011943Y002080D03*
X011706Y002080D03*
X011470Y002080D03*
X011470Y001844D03*
X011706Y001844D03*
X011943Y001844D03*
X012179Y001844D03*
X012415Y001844D03*
X012415Y002080D03*
X012179Y002080D03*
X010643Y002848D03*
X010407Y002848D03*
X010171Y002848D03*
X010171Y003084D03*
X010407Y003084D03*
X010643Y003084D03*
X010643Y003320D03*
X010407Y003320D03*
X010171Y003320D03*
X009935Y003320D03*
X009698Y003320D03*
X009462Y003320D03*
X009226Y003320D03*
X009226Y003557D03*
X009462Y003557D03*
X009698Y003557D03*
X009935Y003557D03*
X010171Y003557D03*
X010407Y003557D03*
X010643Y003557D03*
X010643Y003793D03*
X010407Y003793D03*
X010171Y003793D03*
X010171Y004029D03*
X010407Y004029D03*
X010643Y004029D03*
X009935Y004029D03*
X009935Y003793D03*
X009698Y003793D03*
X009462Y003793D03*
X009226Y003793D03*
X009226Y004029D03*
X009462Y004029D03*
X009698Y004029D03*
X008572Y004443D03*
X008336Y004443D03*
X008100Y004443D03*
X007864Y004443D03*
X007628Y004443D03*
X007628Y004679D03*
X007864Y004679D03*
X008100Y004679D03*
X008336Y004679D03*
X008572Y004679D03*
X009092Y005584D03*
X009446Y005584D03*
X009801Y005584D03*
X010155Y005584D03*
X010509Y005584D03*
X010509Y006175D03*
X010155Y006175D03*
X009801Y006175D03*
X009446Y006175D03*
X009092Y006175D03*
X008446Y006116D03*
X008210Y006116D03*
X007974Y006116D03*
X007738Y006116D03*
X007738Y005880D03*
X007974Y005880D03*
X008210Y005880D03*
X008446Y005880D03*
X008446Y005643D03*
X007738Y005643D03*
X006549Y005643D03*
X006549Y005880D03*
X006313Y005880D03*
X006076Y005880D03*
X005840Y005880D03*
X005840Y005643D03*
X005840Y006116D03*
X006076Y006116D03*
X006313Y006116D03*
X006549Y006116D03*
X006328Y006561D03*
X006773Y006679D03*
X006541Y007572D03*
X007132Y008163D03*
X007722Y008754D03*
X008419Y008939D03*
X008691Y008458D03*
X009324Y009084D03*
X009895Y009061D03*
X010332Y009344D03*
X010923Y009462D03*
X010927Y010309D03*
X011395Y010643D03*
X011100Y010820D03*
X010805Y010998D03*
X010856Y011647D03*
X011159Y011883D03*
X012100Y011714D03*
X012340Y012002D03*
X012576Y012238D03*
X012813Y012537D03*
X013049Y012773D03*
X013758Y012651D03*
X014171Y012651D03*
X014880Y012769D03*
X015466Y012954D03*
X016234Y013135D03*
X014387Y013679D03*
X011395Y012828D03*
X010998Y012824D03*
X009978Y012986D03*
X009352Y012592D03*
X008565Y012592D03*
X008907Y013427D03*
X008151Y013616D03*
X007714Y013643D03*
X007344Y013659D03*
X005840Y012502D03*
X005167Y011927D03*
X005974Y011317D03*
X006305Y010939D03*
X006009Y010820D03*
X005793Y010584D03*
X005478Y010643D03*
X005242Y010407D03*
X005301Y010112D03*
X005950Y009344D03*
X006482Y009935D03*
X007072Y009344D03*
X006541Y008754D03*
X005950Y008163D03*
X005360Y008754D03*
X004372Y008513D03*
X004415Y009265D03*
X002348Y007506D03*
X002352Y007076D03*
X002529Y006175D03*
X002883Y006175D03*
X003238Y006175D03*
X003592Y006175D03*
X003946Y006175D03*
X004301Y006175D03*
X004301Y005584D03*
X003946Y005584D03*
X003592Y005584D03*
X003238Y005584D03*
X002883Y005584D03*
X002529Y005584D03*
X002175Y005584D03*
X002175Y006175D03*
X002667Y004206D03*
X002903Y004206D03*
X003139Y004206D03*
X003376Y004206D03*
X003612Y004206D03*
X003848Y004206D03*
X004084Y004206D03*
X004084Y003970D03*
X003848Y003970D03*
X003848Y003734D03*
X003612Y003734D03*
X003612Y003970D03*
X003376Y003970D03*
X003376Y003734D03*
X003139Y003734D03*
X002903Y003734D03*
X002667Y003734D03*
X002667Y003970D03*
X002903Y003970D03*
X003139Y003970D03*
X003139Y003498D03*
X002903Y003498D03*
X002667Y003498D03*
X002667Y003261D03*
X002903Y003261D03*
X003139Y003261D03*
X003376Y003261D03*
X003612Y003261D03*
X003848Y003261D03*
X004084Y003261D03*
X004084Y003498D03*
X003848Y003498D03*
X003612Y003498D03*
X003376Y003498D03*
X003376Y003025D03*
X003612Y003025D03*
X003848Y003025D03*
X004084Y003025D03*
X004797Y002907D03*
X005033Y002907D03*
X005033Y002671D03*
X004797Y002671D03*
X004797Y002435D03*
X005033Y002435D03*
X005269Y002435D03*
X005506Y002435D03*
X005742Y002435D03*
X005742Y002198D03*
X005506Y002198D03*
X005269Y002198D03*
X005033Y002198D03*
X004797Y002198D03*
X005269Y002671D03*
X005269Y002907D03*
X005506Y002907D03*
X005742Y002907D03*
X005742Y002671D03*
X005506Y002671D03*
X005978Y002671D03*
X005978Y002907D03*
X006214Y002907D03*
X006214Y002671D03*
X006214Y002435D03*
X005978Y002435D03*
X005978Y002198D03*
X006214Y002198D03*
X007037Y002139D03*
X007273Y002139D03*
X007509Y002139D03*
X007746Y002139D03*
X007982Y002139D03*
X008218Y002139D03*
X008454Y002139D03*
X008454Y002376D03*
X008454Y002612D03*
X008218Y002612D03*
X007982Y002612D03*
X007746Y002612D03*
X007746Y002376D03*
X007982Y002376D03*
X008218Y002376D03*
X008218Y002848D03*
X007982Y002848D03*
X007982Y003084D03*
X008218Y003084D03*
X008454Y003084D03*
X008454Y002848D03*
X008454Y003320D03*
X008218Y003320D03*
X007982Y003320D03*
X007746Y003320D03*
X007509Y003320D03*
X007273Y003320D03*
X007037Y003320D03*
X007037Y003084D03*
X007037Y002848D03*
X007273Y002848D03*
X007273Y003084D03*
X007509Y003084D03*
X007509Y002848D03*
X007746Y002848D03*
X007746Y003084D03*
X007509Y002612D03*
X007273Y002612D03*
X007037Y002612D03*
X007037Y002376D03*
X007273Y002376D03*
X007509Y002376D03*
X006214Y003143D03*
X005978Y003143D03*
X005978Y003380D03*
X006214Y003380D03*
X005742Y003380D03*
X005506Y003380D03*
X005269Y003380D03*
X005033Y003380D03*
X004797Y003380D03*
X004797Y003143D03*
X005033Y003143D03*
X005269Y003143D03*
X005506Y003143D03*
X005742Y003143D03*
X004084Y003734D03*
X003139Y003025D03*
X002903Y003025D03*
X002667Y003025D03*
X002726Y002439D03*
X002962Y002439D03*
X003198Y002439D03*
X003198Y002202D03*
X003435Y002202D03*
X003671Y002202D03*
X003671Y002439D03*
X003435Y002439D03*
X005620Y004443D03*
X005856Y004443D03*
X006092Y004443D03*
X006328Y004443D03*
X006565Y004443D03*
X006565Y004679D03*
X006328Y004679D03*
X006092Y004679D03*
X005856Y004679D03*
X005620Y004679D03*
X008147Y006561D03*
X007907Y006773D03*
X009222Y007631D03*
X010277Y007509D03*
X010277Y007159D03*
X010683Y007159D03*
X011297Y007072D03*
X011742Y007065D03*
X012277Y007458D03*
X012435Y008072D03*
X013254Y008072D03*
X014112Y009108D03*
X013883Y009545D03*
X014407Y009639D03*
X014860Y009159D03*
X013226Y009167D03*
X014324Y010592D03*
X013876Y011116D03*
X013600Y010860D03*
X014285Y011588D03*
X015569Y010931D03*
X010509Y007860D03*
X011454Y006175D03*
X011809Y006175D03*
X012163Y006175D03*
X012517Y006175D03*
X012872Y006175D03*
X012872Y005584D03*
X012517Y005584D03*
X012163Y005584D03*
X011809Y005584D03*
X011454Y005584D03*
X013415Y007100D03*
X009198Y009915D03*
X008557Y010061D03*
X008147Y009931D03*
X008088Y010289D03*
X007797Y010415D03*
X007498Y010525D03*
X006612Y011352D03*
X007907Y011549D03*
X008809Y011588D03*
X003301Y012923D03*
X002431Y012395D03*
X002797Y011600D03*
X005128Y007254D03*
X009226Y003084D03*
X009226Y002848D03*
X009462Y002848D03*
X009462Y003084D03*
X009698Y003084D03*
X009698Y002848D03*
X009935Y002848D03*
X009935Y003084D03*
X009872Y002257D03*
X009872Y002021D03*
X009635Y002021D03*
X009399Y002021D03*
X009163Y002021D03*
X009163Y002257D03*
X009399Y002257D03*
X009635Y002257D03*
X010108Y002257D03*
X010108Y002021D03*
X012824Y003852D03*
D16*
X013848Y005663D02*
X013946Y006352D01*
X014734Y007238D01*
X020935Y007238D01*
X020935Y005565D01*
X019096Y005565D01*
X019019Y005596D01*
X018913Y005596D01*
X018836Y005565D01*
X018211Y005565D01*
X018134Y005596D01*
X018027Y005596D01*
X017950Y005565D01*
X015620Y005565D01*
X013848Y005663D01*
X013875Y005661D02*
X020935Y005661D01*
X020935Y005760D02*
X013862Y005760D01*
X013876Y005858D02*
X020935Y005858D01*
X020935Y005957D02*
X013890Y005957D01*
X013904Y006055D02*
X020935Y006055D01*
X020935Y006154D02*
X013918Y006154D01*
X013932Y006252D02*
X020935Y006252D01*
X020935Y006351D02*
X013946Y006351D01*
X014033Y006449D02*
X020935Y006449D01*
X020935Y006548D02*
X014121Y006548D01*
X014208Y006646D02*
X020935Y006646D01*
X020935Y006745D02*
X014296Y006745D01*
X014383Y006843D02*
X020935Y006843D01*
X020935Y006942D02*
X014471Y006942D01*
X014559Y007040D02*
X020935Y007040D01*
X020935Y007139D02*
X014646Y007139D01*
X014734Y007237D02*
X020935Y007237D01*
X016427Y006273D02*
X016427Y005249D01*
X016344Y005283D01*
X016085Y005283D01*
X015845Y005184D01*
X015661Y005001D01*
X015562Y004761D01*
X015562Y004502D01*
X015636Y004324D01*
X008814Y004324D01*
X008841Y004389D01*
X008841Y004496D01*
X008814Y004561D01*
X008841Y004625D01*
X008841Y004732D01*
X008800Y004831D01*
X008724Y004906D01*
X008626Y004947D01*
X008519Y004947D01*
X008454Y004920D01*
X008390Y004947D01*
X008283Y004947D01*
X008218Y004920D01*
X008153Y004947D01*
X008047Y004947D01*
X007982Y004920D01*
X007917Y004947D01*
X007810Y004947D01*
X007746Y004920D01*
X007681Y004947D01*
X007574Y004947D01*
X007476Y004906D01*
X007400Y004831D01*
X007359Y004732D01*
X007359Y004625D01*
X007386Y004561D01*
X007359Y004496D01*
X007359Y004389D01*
X007386Y004324D01*
X006806Y004324D01*
X006833Y004389D01*
X006833Y004496D01*
X006806Y004561D01*
X006833Y004625D01*
X006833Y004732D01*
X006792Y004831D01*
X006716Y004906D01*
X006618Y004947D01*
X006511Y004947D01*
X006446Y004920D01*
X006382Y004947D01*
X006275Y004947D01*
X006210Y004920D01*
X006145Y004947D01*
X006039Y004947D01*
X005974Y004920D01*
X005909Y004947D01*
X005803Y004947D01*
X005738Y004920D01*
X005673Y004947D01*
X005566Y004947D01*
X005468Y004906D01*
X005392Y004831D01*
X005352Y004732D01*
X005352Y004625D01*
X005378Y004561D01*
X005352Y004496D01*
X005352Y004389D01*
X005378Y004324D01*
X004326Y004324D01*
X004312Y004358D01*
X004236Y004434D01*
X004138Y004474D01*
X004031Y004474D01*
X003966Y004448D01*
X003901Y004474D01*
X003795Y004474D01*
X003730Y004448D01*
X003665Y004474D01*
X003559Y004474D01*
X003494Y004448D01*
X003429Y004474D01*
X003322Y004474D01*
X003258Y004448D01*
X003193Y004474D01*
X003086Y004474D01*
X003021Y004448D01*
X002957Y004474D01*
X002850Y004474D01*
X002785Y004448D01*
X002720Y004474D01*
X002614Y004474D01*
X002515Y004434D01*
X002440Y004358D01*
X002426Y004324D01*
X002089Y004324D01*
X002089Y006273D01*
X016427Y006273D01*
X016427Y006252D02*
X002089Y006252D01*
X002089Y006154D02*
X016427Y006154D01*
X016427Y006055D02*
X002089Y006055D01*
X002089Y005957D02*
X016427Y005957D01*
X016427Y005858D02*
X002089Y005858D01*
X002089Y005760D02*
X016427Y005760D01*
X016427Y005661D02*
X002089Y005661D01*
X002089Y005563D02*
X016427Y005563D01*
X016427Y005464D02*
X002089Y005464D01*
X002089Y005366D02*
X016427Y005366D01*
X016427Y005267D02*
X016382Y005267D01*
X016046Y005267D02*
X002089Y005267D01*
X002089Y005169D02*
X015830Y005169D01*
X015731Y005070D02*
X002089Y005070D01*
X002089Y004972D02*
X015650Y004972D01*
X015609Y004873D02*
X008757Y004873D01*
X008823Y004775D02*
X015568Y004775D01*
X015562Y004676D02*
X008841Y004676D01*
X008821Y004578D02*
X015562Y004578D01*
X015571Y004479D02*
X008841Y004479D01*
X008837Y004381D02*
X015612Y004381D01*
X007443Y004873D02*
X006749Y004873D01*
X006815Y004775D02*
X007377Y004775D01*
X007359Y004676D02*
X006833Y004676D01*
X006813Y004578D02*
X007379Y004578D01*
X007359Y004479D02*
X006833Y004479D01*
X006829Y004381D02*
X007363Y004381D01*
X005435Y004873D02*
X002089Y004873D01*
X002089Y004775D02*
X005369Y004775D01*
X005352Y004676D02*
X002089Y004676D01*
X002089Y004578D02*
X005371Y004578D01*
X005352Y004479D02*
X002089Y004479D01*
X002089Y004381D02*
X002462Y004381D01*
X004289Y004381D02*
X005355Y004381D01*
D17*
X004612Y003545D02*
X006604Y003545D01*
X006584Y000525D01*
X003524Y000480D01*
X003089Y000480D01*
X003148Y000504D01*
X003357Y000713D01*
X003471Y000987D01*
X003471Y001284D01*
X003357Y001557D01*
X003148Y001767D01*
X002874Y001880D01*
X002628Y001880D01*
X002628Y002663D01*
X004612Y002663D01*
X004612Y003545D01*
X004612Y003512D02*
X006604Y003512D01*
X006603Y003450D02*
X004612Y003450D01*
X004612Y003389D02*
X006603Y003389D01*
X006603Y003327D02*
X004612Y003327D01*
X004612Y003266D02*
X006602Y003266D01*
X006602Y003204D02*
X004612Y003204D01*
X004612Y003143D02*
X006601Y003143D01*
X006601Y003081D02*
X004612Y003081D01*
X004612Y003020D02*
X006601Y003020D01*
X006600Y002958D02*
X004612Y002958D01*
X004612Y002897D02*
X006600Y002897D01*
X006599Y002835D02*
X004612Y002835D01*
X004612Y002774D02*
X006599Y002774D01*
X006599Y002712D02*
X004612Y002712D01*
X003310Y001605D02*
X006591Y001605D01*
X006591Y001544D02*
X003363Y001544D01*
X003389Y001482D02*
X006591Y001482D01*
X006590Y001421D02*
X003414Y001421D01*
X003440Y001359D02*
X006590Y001359D01*
X006589Y001298D02*
X003465Y001298D01*
X003471Y001236D02*
X006589Y001236D01*
X006589Y001175D02*
X003471Y001175D01*
X003471Y001113D02*
X006588Y001113D01*
X006588Y001052D02*
X003471Y001052D01*
X003471Y000990D02*
X006587Y000990D01*
X006587Y000929D02*
X003447Y000929D01*
X003421Y000867D02*
X006587Y000867D01*
X006586Y000806D02*
X003396Y000806D01*
X003370Y000744D02*
X006586Y000744D01*
X006585Y000683D02*
X003327Y000683D01*
X003265Y000621D02*
X006585Y000621D01*
X006584Y000560D02*
X003204Y000560D01*
X003134Y000498D02*
X004788Y000498D01*
X003248Y001667D02*
X006592Y001667D01*
X006592Y001728D02*
X003187Y001728D01*
X003093Y001790D02*
X006593Y001790D01*
X006593Y001851D02*
X002944Y001851D01*
X002628Y001913D02*
X006593Y001913D01*
X006594Y001974D02*
X002628Y001974D01*
X002628Y002036D02*
X006594Y002036D01*
X006595Y002097D02*
X002628Y002097D01*
X002628Y002159D02*
X006595Y002159D01*
X006595Y002220D02*
X002628Y002220D01*
X002628Y002282D02*
X006596Y002282D01*
X006596Y002343D02*
X002628Y002343D01*
X002628Y002405D02*
X006597Y002405D01*
X006597Y002466D02*
X002628Y002466D01*
X002628Y002528D02*
X006597Y002528D01*
X006598Y002589D02*
X002628Y002589D01*
X002628Y002651D02*
X006598Y002651D01*
X006805Y002651D02*
X008710Y002651D01*
X008710Y002712D02*
X006805Y002712D01*
X006805Y002774D02*
X008710Y002774D01*
X008710Y002835D02*
X006805Y002835D01*
X006805Y002897D02*
X008710Y002897D01*
X008710Y002958D02*
X006805Y002958D01*
X006805Y003020D02*
X008710Y003020D01*
X008710Y003081D02*
X006805Y003081D01*
X006805Y003143D02*
X008710Y003143D01*
X008710Y003204D02*
X006805Y003204D01*
X006805Y003266D02*
X008710Y003266D01*
X008710Y003327D02*
X006805Y003327D01*
X006805Y003389D02*
X008710Y003389D01*
X008710Y003450D02*
X006805Y003450D01*
X006805Y003512D02*
X008710Y003512D01*
X008710Y003545D02*
X008710Y002462D01*
X010383Y002462D01*
X010383Y000480D01*
X006785Y000480D01*
X006785Y001903D01*
X006805Y001903D01*
X006805Y003545D01*
X008710Y003545D01*
X008710Y002589D02*
X006805Y002589D01*
X006805Y002528D02*
X008710Y002528D01*
X008710Y002466D02*
X006805Y002466D01*
X006805Y002405D02*
X010383Y002405D01*
X010383Y002343D02*
X006805Y002343D01*
X006805Y002282D02*
X010383Y002282D01*
X010383Y002220D02*
X006805Y002220D01*
X006805Y002159D02*
X010383Y002159D01*
X010383Y002097D02*
X006805Y002097D01*
X006805Y002036D02*
X010383Y002036D01*
X010383Y001974D02*
X006805Y001974D01*
X006805Y001913D02*
X010383Y001913D01*
X010383Y001851D02*
X006785Y001851D01*
X006785Y001790D02*
X010383Y001790D01*
X010383Y001728D02*
X006785Y001728D01*
X006785Y001667D02*
X010383Y001667D01*
X010383Y001605D02*
X006785Y001605D01*
X006785Y001544D02*
X010383Y001544D01*
X010383Y001482D02*
X006785Y001482D01*
X006785Y001421D02*
X010383Y001421D01*
X010383Y001359D02*
X006785Y001359D01*
X006785Y001298D02*
X010383Y001298D01*
X010383Y001236D02*
X006785Y001236D01*
X006785Y001175D02*
X010383Y001175D01*
X010383Y001113D02*
X006785Y001113D01*
X006785Y001052D02*
X010383Y001052D01*
X010383Y000990D02*
X006785Y000990D01*
X006785Y000929D02*
X010383Y000929D01*
X010383Y000867D02*
X006785Y000867D01*
X006785Y000806D02*
X010383Y000806D01*
X010383Y000744D02*
X006785Y000744D01*
X006785Y000683D02*
X010383Y000683D01*
X010383Y000621D02*
X006785Y000621D01*
X006785Y000560D02*
X010383Y000560D01*
X010383Y000498D02*
X006785Y000498D01*
X011218Y000498D02*
X015310Y000498D01*
X015313Y000497D02*
X015313Y000486D01*
X011218Y000486D01*
X011218Y002403D01*
X013395Y002403D01*
X013395Y004112D01*
X015313Y004112D01*
X015313Y001774D01*
X015296Y001767D01*
X015087Y001557D01*
X014973Y001284D01*
X014973Y000987D01*
X015087Y000713D01*
X015296Y000504D01*
X015313Y000497D01*
X015240Y000560D02*
X011218Y000560D01*
X011218Y000621D02*
X015179Y000621D01*
X015117Y000683D02*
X011218Y000683D01*
X011218Y000744D02*
X015074Y000744D01*
X015048Y000806D02*
X011218Y000806D01*
X011218Y000867D02*
X015023Y000867D01*
X014997Y000929D02*
X011218Y000929D01*
X011218Y000990D02*
X014973Y000990D01*
X014973Y001052D02*
X011218Y001052D01*
X011218Y001113D02*
X014973Y001113D01*
X014973Y001175D02*
X011218Y001175D01*
X011218Y001236D02*
X014973Y001236D01*
X014979Y001298D02*
X011218Y001298D01*
X011218Y001359D02*
X015005Y001359D01*
X015030Y001421D02*
X011218Y001421D01*
X011218Y001482D02*
X015056Y001482D01*
X015081Y001544D02*
X011218Y001544D01*
X011218Y001605D02*
X015135Y001605D01*
X015196Y001667D02*
X011218Y001667D01*
X011218Y001728D02*
X015258Y001728D01*
X015313Y001790D02*
X011218Y001790D01*
X011218Y001851D02*
X015313Y001851D01*
X015313Y001913D02*
X011218Y001913D01*
X011218Y001974D02*
X015313Y001974D01*
X015313Y002036D02*
X011218Y002036D01*
X011218Y002097D02*
X015313Y002097D01*
X015313Y002159D02*
X011218Y002159D01*
X011218Y002220D02*
X015313Y002220D01*
X015313Y002282D02*
X011218Y002282D01*
X011218Y002343D02*
X015313Y002343D01*
X015313Y002405D02*
X013395Y002405D01*
X013395Y002466D02*
X015313Y002466D01*
X015313Y002528D02*
X013395Y002528D01*
X013395Y002589D02*
X015313Y002589D01*
X015313Y002651D02*
X013395Y002651D01*
X013395Y002712D02*
X015313Y002712D01*
X015313Y002774D02*
X013395Y002774D01*
X013395Y002835D02*
X015313Y002835D01*
X015313Y002897D02*
X013395Y002897D01*
X013395Y002958D02*
X015313Y002958D01*
X015313Y003020D02*
X013395Y003020D01*
X013395Y003081D02*
X015313Y003081D01*
X015313Y003143D02*
X013395Y003143D01*
X013395Y003204D02*
X015313Y003204D01*
X015313Y003266D02*
X013395Y003266D01*
X013395Y003327D02*
X015313Y003327D01*
X015313Y003389D02*
X013395Y003389D01*
X013395Y003450D02*
X015313Y003450D01*
X015313Y003512D02*
X013395Y003512D01*
X013395Y003573D02*
X015313Y003573D01*
X015313Y003634D02*
X013395Y003634D01*
X013395Y003696D02*
X015313Y003696D01*
X015313Y003757D02*
X013395Y003757D01*
X013395Y003819D02*
X015313Y003819D01*
X015313Y003880D02*
X013395Y003880D01*
X013395Y003942D02*
X015313Y003942D01*
X015313Y004003D02*
X013395Y004003D01*
X013395Y004065D02*
X015313Y004065D01*
X013750Y006647D02*
X008378Y006656D01*
X008359Y006702D01*
X008289Y006772D01*
X008197Y006810D01*
X008157Y006810D01*
X008157Y006823D01*
X008119Y006915D01*
X008048Y006985D01*
X007957Y007023D01*
X007857Y007023D01*
X007766Y006985D01*
X007696Y006915D01*
X007658Y006823D01*
X007658Y006724D01*
X007685Y006657D01*
X007023Y006658D01*
X007023Y006728D01*
X006985Y006820D01*
X006915Y006890D01*
X006823Y006928D01*
X006724Y006928D01*
X006632Y006890D01*
X006562Y006820D01*
X006524Y006728D01*
X006524Y006718D01*
X006470Y006772D01*
X006378Y006810D01*
X006279Y006810D01*
X006187Y006772D01*
X006117Y006702D01*
X006099Y006660D01*
X002070Y006666D01*
X002070Y013765D01*
X002095Y013706D01*
X002304Y013496D01*
X002578Y013383D01*
X002874Y013383D01*
X003148Y013496D01*
X003357Y013706D01*
X003471Y013979D01*
X003471Y014276D01*
X003357Y014550D01*
X003148Y014759D01*
X003089Y014783D01*
X015355Y014783D01*
X015296Y014759D01*
X015087Y014550D01*
X014973Y014276D01*
X014973Y013979D01*
X015087Y013706D01*
X015296Y013496D01*
X015570Y013383D01*
X015866Y013383D01*
X016140Y013496D01*
X016350Y013706D01*
X016374Y013765D01*
X016374Y012998D01*
X016464Y012721D01*
X016635Y012485D01*
X016668Y012461D01*
X016604Y007494D01*
X014557Y007494D01*
X013750Y006647D01*
X013750Y006648D02*
X013521Y006648D01*
X013809Y006709D02*
X008352Y006709D01*
X008290Y006771D02*
X013867Y006771D01*
X013926Y006832D02*
X011833Y006832D01*
X011791Y006815D02*
X011883Y006853D01*
X011953Y006923D01*
X011991Y007015D01*
X011991Y007114D01*
X011953Y007206D01*
X011883Y007276D01*
X011791Y007314D01*
X011692Y007314D01*
X011600Y007276D01*
X011530Y007206D01*
X011521Y007184D01*
X011508Y007214D01*
X011438Y007284D01*
X011347Y007322D01*
X011247Y007322D01*
X011155Y007284D01*
X011085Y007214D01*
X011047Y007122D01*
X011047Y007023D01*
X011085Y006931D01*
X011155Y006861D01*
X011247Y006823D01*
X011347Y006823D01*
X011438Y006861D01*
X011508Y006931D01*
X011518Y006953D01*
X011530Y006923D01*
X011600Y006853D01*
X011692Y006815D01*
X011791Y006815D01*
X011651Y006832D02*
X011369Y006832D01*
X011471Y006894D02*
X011560Y006894D01*
X011924Y006894D02*
X013985Y006894D01*
X014043Y006955D02*
X011967Y006955D01*
X011991Y007017D02*
X014102Y007017D01*
X014160Y007078D02*
X011991Y007078D01*
X011981Y007140D02*
X014219Y007140D01*
X014278Y007201D02*
X011955Y007201D01*
X011897Y007263D02*
X012120Y007263D01*
X012136Y007247D02*
X012228Y007209D01*
X012327Y007209D01*
X012419Y007247D01*
X012489Y007317D01*
X012527Y007409D01*
X012527Y007508D01*
X012489Y007600D01*
X012419Y007670D01*
X012327Y007708D01*
X012228Y007708D01*
X012136Y007670D01*
X012066Y007600D01*
X012028Y007508D01*
X012028Y007409D01*
X012066Y007317D01*
X012136Y007247D01*
X012063Y007324D02*
X010871Y007324D01*
X010894Y007300D02*
X010824Y007371D01*
X010732Y007409D01*
X010633Y007409D01*
X010541Y007371D01*
X010471Y007300D01*
X010433Y007209D01*
X010433Y007109D01*
X010471Y007018D01*
X010541Y006947D01*
X010633Y006909D01*
X010732Y006909D01*
X010824Y006947D01*
X010894Y007018D01*
X010932Y007109D01*
X010932Y007209D01*
X010894Y007300D01*
X010910Y007263D02*
X011134Y007263D01*
X011080Y007201D02*
X010932Y007201D01*
X010932Y007140D02*
X011055Y007140D01*
X011047Y007078D02*
X010919Y007078D01*
X010893Y007017D02*
X011050Y007017D01*
X011075Y006955D02*
X010832Y006955D01*
X011123Y006894D02*
X008127Y006894D01*
X008153Y006832D02*
X011225Y006832D01*
X011514Y007201D02*
X011528Y007201D01*
X011587Y007263D02*
X011460Y007263D01*
X012037Y007386D02*
X010788Y007386D01*
X010577Y007386D02*
X010496Y007386D01*
X010489Y007368D02*
X010527Y007460D01*
X010527Y007559D01*
X010506Y007610D01*
X010559Y007610D01*
X010651Y007648D01*
X010721Y007718D01*
X010759Y007810D01*
X010759Y007909D01*
X010721Y008001D01*
X010651Y008071D01*
X010559Y008109D01*
X010460Y008109D01*
X010368Y008071D01*
X010298Y008001D01*
X010260Y007909D01*
X010260Y007810D01*
X010281Y007759D01*
X010228Y007759D01*
X010136Y007721D01*
X010066Y007651D01*
X010028Y007559D01*
X010028Y007460D01*
X010066Y007368D01*
X010136Y007298D01*
X010228Y007260D01*
X010327Y007260D01*
X010419Y007298D01*
X010489Y007368D01*
X010495Y007324D02*
X010445Y007324D01*
X010455Y007263D02*
X010333Y007263D01*
X010221Y007263D02*
X005377Y007263D01*
X005377Y007303D02*
X005377Y007204D01*
X005339Y007112D01*
X005269Y007042D01*
X005177Y007004D01*
X005078Y007004D01*
X004986Y007042D01*
X004916Y007112D01*
X004878Y007204D01*
X004878Y007303D01*
X004916Y007395D01*
X004986Y007465D01*
X005078Y007503D01*
X005177Y007503D01*
X005269Y007465D01*
X005339Y007395D01*
X005377Y007303D01*
X005369Y007324D02*
X006488Y007324D01*
X006491Y007323D02*
X006591Y007323D01*
X006682Y007361D01*
X006753Y007431D01*
X006791Y007523D01*
X006791Y007622D01*
X006753Y007714D01*
X006682Y007784D01*
X006591Y007822D01*
X006491Y007822D01*
X006400Y007784D01*
X006329Y007714D01*
X006291Y007622D01*
X006291Y007523D01*
X006329Y007431D01*
X006400Y007361D01*
X006491Y007323D01*
X006594Y007324D02*
X010110Y007324D01*
X010058Y007386D02*
X009280Y007386D01*
X009272Y007382D02*
X009363Y007420D01*
X009434Y007490D01*
X009472Y007582D01*
X009472Y007681D01*
X009434Y007773D01*
X009363Y007843D01*
X009272Y007881D01*
X009172Y007881D01*
X009081Y007843D01*
X009010Y007773D01*
X008972Y007681D01*
X008972Y007582D01*
X009010Y007490D01*
X009081Y007420D01*
X009172Y007382D01*
X009272Y007382D01*
X009164Y007386D02*
X006707Y007386D01*
X006759Y007447D02*
X009054Y007447D01*
X009003Y007509D02*
X006785Y007509D01*
X006791Y007570D02*
X008977Y007570D01*
X008972Y007631D02*
X006787Y007631D01*
X006761Y007693D02*
X008977Y007693D01*
X009003Y007754D02*
X006712Y007754D01*
X006605Y007816D02*
X009054Y007816D01*
X009164Y007877D02*
X002070Y007877D01*
X002070Y007816D02*
X006477Y007816D01*
X006370Y007754D02*
X002399Y007754D01*
X002398Y007755D02*
X002298Y007755D01*
X002207Y007717D01*
X002136Y007647D01*
X002098Y007555D01*
X002098Y007456D01*
X002136Y007364D01*
X002207Y007294D01*
X002216Y007290D01*
X002211Y007288D01*
X002140Y007218D01*
X002102Y007126D01*
X002102Y007027D01*
X002140Y006935D01*
X002211Y006865D01*
X002302Y006827D01*
X002402Y006827D01*
X002493Y006865D01*
X002564Y006935D01*
X002602Y007027D01*
X002602Y007126D01*
X002564Y007218D01*
X002493Y007288D01*
X002484Y007292D01*
X002489Y007294D01*
X002560Y007364D01*
X002598Y007456D01*
X002598Y007555D01*
X002560Y007647D01*
X002489Y007717D01*
X002398Y007755D01*
X002297Y007754D02*
X002070Y007754D01*
X002070Y007693D02*
X002183Y007693D01*
X002130Y007631D02*
X002070Y007631D01*
X002070Y007570D02*
X002105Y007570D01*
X002098Y007509D02*
X002070Y007509D01*
X002070Y007447D02*
X002102Y007447D01*
X002128Y007386D02*
X002070Y007386D01*
X002070Y007324D02*
X002177Y007324D01*
X002185Y007263D02*
X002070Y007263D01*
X002070Y007201D02*
X002133Y007201D01*
X002108Y007140D02*
X002070Y007140D01*
X002070Y007078D02*
X002102Y007078D01*
X002107Y007017D02*
X002070Y007017D01*
X002070Y006955D02*
X002132Y006955D01*
X002182Y006894D02*
X002070Y006894D01*
X002070Y006832D02*
X002289Y006832D01*
X002414Y006832D02*
X006574Y006832D01*
X006541Y006771D02*
X006471Y006771D01*
X006640Y006894D02*
X002522Y006894D01*
X002572Y006955D02*
X007736Y006955D01*
X007687Y006894D02*
X006907Y006894D01*
X006973Y006832D02*
X007661Y006832D01*
X007658Y006771D02*
X007005Y006771D01*
X007023Y006709D02*
X007663Y006709D01*
X007842Y007017D02*
X005208Y007017D01*
X005305Y007078D02*
X010446Y007078D01*
X010433Y007140D02*
X005351Y007140D01*
X005376Y007201D02*
X010433Y007201D01*
X010472Y007017D02*
X007972Y007017D01*
X008078Y006955D02*
X010534Y006955D01*
X010521Y007447D02*
X012028Y007447D01*
X012028Y007509D02*
X010527Y007509D01*
X010522Y007570D02*
X012053Y007570D01*
X012097Y007631D02*
X010610Y007631D01*
X010696Y007693D02*
X012192Y007693D01*
X012363Y007693D02*
X016607Y007693D01*
X016607Y007754D02*
X010736Y007754D01*
X010759Y007816D02*
X016608Y007816D01*
X016609Y007877D02*
X012593Y007877D01*
X012576Y007861D02*
X012646Y007931D01*
X012684Y008023D01*
X012684Y008122D01*
X012646Y008214D01*
X012576Y008284D01*
X012484Y008322D01*
X012385Y008322D01*
X012293Y008284D01*
X012223Y008214D01*
X012185Y008122D01*
X012185Y008023D01*
X012223Y007931D01*
X012293Y007861D01*
X012385Y007823D01*
X012484Y007823D01*
X012576Y007861D01*
X012650Y007939D02*
X016610Y007939D01*
X016611Y008000D02*
X012675Y008000D01*
X012684Y008062D02*
X016611Y008062D01*
X016612Y008123D02*
X012684Y008123D01*
X012658Y008185D02*
X016613Y008185D01*
X016614Y008246D02*
X012614Y008246D01*
X012518Y008308D02*
X016614Y008308D01*
X016615Y008369D02*
X008924Y008369D01*
X008940Y008409D02*
X008902Y008317D01*
X008832Y008247D01*
X008740Y008209D01*
X008641Y008209D01*
X008549Y008247D01*
X008479Y008317D01*
X008441Y008409D01*
X008441Y008508D01*
X008479Y008600D01*
X008549Y008670D01*
X008641Y008708D01*
X008740Y008708D01*
X008832Y008670D01*
X008902Y008600D01*
X008940Y008508D01*
X008940Y008409D01*
X008940Y008431D02*
X016616Y008431D01*
X016617Y008492D02*
X008940Y008492D01*
X008921Y008554D02*
X016618Y008554D01*
X016618Y008615D02*
X008886Y008615D01*
X008815Y008677D02*
X016619Y008677D01*
X016620Y008738D02*
X008572Y008738D01*
X008560Y008727D02*
X008631Y008797D01*
X008669Y008889D01*
X008669Y008988D01*
X008631Y009080D01*
X008560Y009150D01*
X008469Y009188D01*
X008369Y009188D01*
X008278Y009150D01*
X008207Y009080D01*
X008169Y008988D01*
X008169Y008889D01*
X008207Y008797D01*
X008278Y008727D01*
X008369Y008689D01*
X008469Y008689D01*
X008560Y008727D01*
X008566Y008677D02*
X007960Y008677D01*
X007972Y008704D02*
X007934Y008612D01*
X007863Y008542D01*
X007772Y008504D01*
X007672Y008504D01*
X007581Y008542D01*
X007510Y008612D01*
X007472Y008704D01*
X007472Y008803D01*
X007510Y008895D01*
X007581Y008965D01*
X007672Y009003D01*
X007772Y009003D01*
X007863Y008965D01*
X007934Y008895D01*
X007972Y008803D01*
X007972Y008704D01*
X007972Y008738D02*
X008266Y008738D01*
X008206Y008800D02*
X007972Y008800D01*
X007948Y008861D02*
X008181Y008861D01*
X008169Y008923D02*
X007906Y008923D01*
X007817Y008984D02*
X008169Y008984D01*
X008193Y009046D02*
X004537Y009046D01*
X004556Y009054D02*
X004627Y009124D01*
X004665Y009216D01*
X004665Y009315D01*
X004627Y009407D01*
X004556Y009477D01*
X004465Y009515D01*
X004365Y009515D01*
X004274Y009477D01*
X004203Y009407D01*
X004165Y009315D01*
X004165Y009216D01*
X004203Y009124D01*
X004274Y009054D01*
X004365Y009016D01*
X004465Y009016D01*
X004556Y009054D01*
X004610Y009107D02*
X005870Y009107D01*
X005901Y009094D02*
X006000Y009094D01*
X006092Y009132D01*
X006162Y009203D01*
X006200Y009294D01*
X006200Y009394D01*
X006162Y009485D01*
X006092Y009556D01*
X006000Y009594D01*
X005901Y009594D01*
X005809Y009556D01*
X005739Y009485D01*
X005701Y009394D01*
X005701Y009294D01*
X005739Y009203D01*
X005809Y009132D01*
X005901Y009094D01*
X006031Y009107D02*
X006992Y009107D01*
X007023Y009094D02*
X007122Y009094D01*
X007214Y009132D01*
X007284Y009203D01*
X007322Y009294D01*
X007322Y009394D01*
X007284Y009485D01*
X007214Y009556D01*
X007122Y009594D01*
X007023Y009594D01*
X006931Y009556D01*
X006861Y009485D01*
X006823Y009394D01*
X006823Y009294D01*
X006861Y009203D01*
X006931Y009132D01*
X007023Y009094D01*
X007153Y009107D02*
X008235Y009107D01*
X008322Y009169D02*
X007250Y009169D01*
X007295Y009230D02*
X009117Y009230D01*
X009113Y009226D02*
X009075Y009134D01*
X009075Y009035D01*
X009113Y008943D01*
X009183Y008873D01*
X009275Y008835D01*
X009374Y008835D01*
X009466Y008873D01*
X009536Y008943D01*
X009574Y009035D01*
X009574Y009134D01*
X009536Y009226D01*
X009466Y009296D01*
X009374Y009334D01*
X009275Y009334D01*
X009183Y009296D01*
X009113Y009226D01*
X009089Y009169D02*
X008515Y009169D01*
X008603Y009107D02*
X009075Y009107D01*
X009075Y009046D02*
X008645Y009046D01*
X008669Y008984D02*
X009096Y008984D01*
X009133Y008923D02*
X008669Y008923D01*
X008657Y008861D02*
X009210Y008861D01*
X009439Y008861D02*
X009742Y008861D01*
X009754Y008849D02*
X009846Y008811D01*
X009945Y008811D01*
X010037Y008849D01*
X010107Y008919D01*
X010145Y009011D01*
X010145Y009110D01*
X010107Y009202D01*
X010037Y009272D01*
X009945Y009310D01*
X009846Y009310D01*
X009754Y009272D01*
X009684Y009202D01*
X009646Y009110D01*
X009646Y009011D01*
X009684Y008919D01*
X009754Y008849D01*
X009682Y008923D02*
X009516Y008923D01*
X009553Y008984D02*
X009657Y008984D01*
X009646Y009046D02*
X009574Y009046D01*
X009574Y009107D02*
X009646Y009107D01*
X009670Y009169D02*
X009560Y009169D01*
X009531Y009230D02*
X009712Y009230D01*
X009801Y009292D02*
X009470Y009292D01*
X009179Y009292D02*
X007321Y009292D01*
X007322Y009353D02*
X010698Y009353D01*
X010711Y009321D02*
X010781Y009251D01*
X010873Y009213D01*
X010973Y009213D01*
X011064Y009251D01*
X011134Y009321D01*
X011172Y009413D01*
X011172Y009512D01*
X011134Y009604D01*
X011064Y009674D01*
X010973Y009712D01*
X010873Y009712D01*
X010781Y009674D01*
X010711Y009604D01*
X010673Y009512D01*
X010673Y009413D01*
X010711Y009321D01*
X010740Y009292D02*
X009989Y009292D01*
X010079Y009230D02*
X010830Y009230D01*
X011015Y009230D02*
X012982Y009230D01*
X012976Y009217D02*
X012976Y009117D01*
X013014Y009026D01*
X013085Y008955D01*
X013176Y008917D01*
X013276Y008917D01*
X013367Y008955D01*
X013438Y009026D01*
X013476Y009117D01*
X013476Y009217D01*
X013438Y009308D01*
X013367Y009379D01*
X013276Y009417D01*
X013176Y009417D01*
X013085Y009379D01*
X013014Y009308D01*
X012976Y009217D01*
X012976Y009169D02*
X010121Y009169D01*
X010145Y009107D02*
X012981Y009107D01*
X013006Y009046D02*
X010145Y009046D01*
X010134Y008984D02*
X013056Y008984D01*
X013163Y008923D02*
X010108Y008923D01*
X010049Y008861D02*
X016622Y008861D01*
X016621Y008800D02*
X008632Y008800D01*
X008495Y008615D02*
X007935Y008615D01*
X007875Y008554D02*
X008460Y008554D01*
X008441Y008492D02*
X004621Y008492D01*
X004621Y008464D02*
X004583Y008372D01*
X004513Y008302D01*
X004421Y008264D01*
X004322Y008264D01*
X004230Y008302D01*
X004160Y008372D01*
X004122Y008464D01*
X004122Y008563D01*
X004160Y008655D01*
X004230Y008725D01*
X004322Y008763D01*
X004421Y008763D01*
X004513Y008725D01*
X004583Y008655D01*
X004621Y008563D01*
X004621Y008464D01*
X004608Y008431D02*
X008441Y008431D01*
X008457Y008369D02*
X007278Y008369D01*
X007273Y008375D02*
X007181Y008413D01*
X007082Y008413D01*
X006990Y008375D01*
X006920Y008304D01*
X006882Y008213D01*
X006882Y008113D01*
X006920Y008022D01*
X006990Y007951D01*
X007082Y007913D01*
X007181Y007913D01*
X007273Y007951D01*
X007343Y008022D01*
X007381Y008113D01*
X007381Y008213D01*
X007343Y008304D01*
X007273Y008375D01*
X007340Y008308D02*
X008488Y008308D01*
X008550Y008246D02*
X007367Y008246D01*
X007381Y008185D02*
X012211Y008185D01*
X012186Y008123D02*
X007381Y008123D01*
X007360Y008062D02*
X010359Y008062D01*
X010298Y008000D02*
X007322Y008000D01*
X007243Y007939D02*
X010272Y007939D01*
X010260Y007877D02*
X009280Y007877D01*
X009391Y007816D02*
X010260Y007816D01*
X010216Y007754D02*
X009441Y007754D01*
X009467Y007693D02*
X010108Y007693D01*
X010058Y007631D02*
X009472Y007631D01*
X009467Y007570D02*
X010032Y007570D01*
X010028Y007509D02*
X009441Y007509D01*
X009391Y007447D02*
X010033Y007447D01*
X010759Y007877D02*
X012277Y007877D01*
X012220Y007939D02*
X010747Y007939D01*
X010721Y008000D02*
X012194Y008000D01*
X012185Y008062D02*
X010660Y008062D01*
X012256Y008246D02*
X008831Y008246D01*
X008893Y008308D02*
X012351Y008308D01*
X012457Y007631D02*
X016606Y007631D01*
X016605Y007570D02*
X012501Y007570D01*
X012527Y007509D02*
X016604Y007509D01*
X016622Y008923D02*
X014942Y008923D01*
X014910Y008909D02*
X015001Y008947D01*
X015071Y009018D01*
X015109Y009109D01*
X015109Y009209D01*
X015071Y009300D01*
X015001Y009371D01*
X014910Y009409D01*
X014810Y009409D01*
X014718Y009371D01*
X014648Y009300D01*
X014610Y009209D01*
X014610Y009109D01*
X014648Y009018D01*
X014718Y008947D01*
X014810Y008909D01*
X014910Y008909D01*
X014778Y008923D02*
X013289Y008923D01*
X013396Y008984D02*
X014682Y008984D01*
X014637Y009046D02*
X013446Y009046D01*
X013471Y009107D02*
X014611Y009107D01*
X014610Y009169D02*
X013476Y009169D01*
X013470Y009230D02*
X014619Y009230D01*
X014645Y009292D02*
X013444Y009292D01*
X013393Y009353D02*
X013722Y009353D01*
X013742Y009333D02*
X013834Y009295D01*
X013933Y009295D01*
X014025Y009333D01*
X014095Y009403D01*
X014133Y009495D01*
X014133Y009595D01*
X014095Y009686D01*
X014025Y009756D01*
X013933Y009794D01*
X013834Y009794D01*
X013742Y009756D01*
X013672Y009686D01*
X013634Y009595D01*
X013634Y009495D01*
X013672Y009403D01*
X013742Y009333D01*
X013667Y009415D02*
X013280Y009415D01*
X013172Y009415D02*
X011172Y009415D01*
X011172Y009476D02*
X013642Y009476D01*
X013634Y009538D02*
X011162Y009538D01*
X011136Y009599D02*
X013636Y009599D01*
X013661Y009661D02*
X011077Y009661D01*
X010768Y009661D02*
X002070Y009661D01*
X002070Y009722D02*
X006342Y009722D01*
X006341Y009723D02*
X006432Y009685D01*
X006532Y009685D01*
X006623Y009723D01*
X006694Y009793D01*
X006732Y009885D01*
X006732Y009984D01*
X006694Y010076D01*
X006623Y010146D01*
X006532Y010184D01*
X006432Y010184D01*
X006341Y010146D01*
X006270Y010076D01*
X006232Y009984D01*
X006232Y009885D01*
X006270Y009793D01*
X006341Y009723D01*
X006280Y009784D02*
X002070Y009784D01*
X002070Y009845D02*
X006249Y009845D01*
X006232Y009907D02*
X005449Y009907D01*
X005442Y009900D02*
X005512Y009970D01*
X005550Y010062D01*
X005550Y010161D01*
X005512Y010253D01*
X005467Y010299D01*
X005491Y010357D01*
X005491Y010394D01*
X005528Y010394D01*
X005600Y010424D01*
X005652Y010373D01*
X005743Y010335D01*
X005843Y010335D01*
X005934Y010373D01*
X006005Y010443D01*
X006043Y010535D01*
X006043Y010571D01*
X006059Y010571D01*
X006151Y010609D01*
X006221Y010679D01*
X006230Y010700D01*
X006255Y010689D01*
X006354Y010689D01*
X006446Y010727D01*
X006516Y010797D01*
X006554Y010889D01*
X006554Y010988D01*
X006516Y011080D01*
X006446Y011150D01*
X006354Y011188D01*
X006255Y011188D01*
X006163Y011150D01*
X006093Y011080D01*
X006085Y011059D01*
X006059Y011070D01*
X005960Y011070D01*
X005868Y011032D01*
X005798Y010962D01*
X005760Y010870D01*
X005760Y010834D01*
X005743Y010834D01*
X005671Y010804D01*
X005619Y010855D01*
X005528Y010893D01*
X005428Y010893D01*
X005337Y010855D01*
X005266Y010785D01*
X005228Y010693D01*
X005228Y010657D01*
X005192Y010657D01*
X005100Y010619D01*
X005030Y010548D01*
X004992Y010457D01*
X004992Y010357D01*
X005030Y010266D01*
X005076Y010220D01*
X005051Y010161D01*
X005051Y010062D01*
X005089Y009970D01*
X005159Y009900D01*
X005251Y009862D01*
X005350Y009862D01*
X005442Y009900D01*
X005510Y009968D02*
X006232Y009968D01*
X006251Y010030D02*
X005537Y010030D01*
X005550Y010091D02*
X006285Y010091D01*
X006356Y010153D02*
X005550Y010153D01*
X005529Y010214D02*
X007645Y010214D01*
X007655Y010203D02*
X007747Y010165D01*
X007847Y010165D01*
X007866Y010173D01*
X007877Y010148D01*
X007944Y010080D01*
X007936Y010072D01*
X007898Y009980D01*
X007898Y009881D01*
X007936Y009789D01*
X008006Y009719D01*
X008098Y009681D01*
X008197Y009681D01*
X008289Y009719D01*
X008359Y009789D01*
X008393Y009871D01*
X008415Y009849D01*
X008507Y009811D01*
X008606Y009811D01*
X008698Y009849D01*
X008768Y009919D01*
X008806Y010011D01*
X008806Y010110D01*
X008768Y010202D01*
X008698Y010272D01*
X008606Y010310D01*
X008507Y010310D01*
X008415Y010272D01*
X008345Y010202D01*
X008311Y010120D01*
X008292Y010139D01*
X008300Y010148D01*
X008338Y010239D01*
X008338Y010339D01*
X008300Y010430D01*
X008230Y010501D01*
X008138Y010539D01*
X008039Y010539D01*
X008019Y010531D01*
X008008Y010556D01*
X007938Y010627D01*
X007847Y010665D01*
X007747Y010665D01*
X007716Y010651D01*
X007709Y010667D01*
X007639Y010737D01*
X007547Y010775D01*
X007448Y010775D01*
X007356Y010737D01*
X007286Y010667D01*
X007248Y010575D01*
X007248Y010476D01*
X007286Y010384D01*
X007356Y010314D01*
X007448Y010276D01*
X005490Y010276D01*
X005483Y010337D02*
X005737Y010337D01*
X005849Y010337D02*
X007333Y010337D01*
X007280Y010399D02*
X005960Y010399D01*
X006012Y010460D02*
X007254Y010460D01*
X007248Y010522D02*
X006037Y010522D01*
X006089Y010583D02*
X007251Y010583D01*
X007277Y010645D02*
X006187Y010645D01*
X006396Y010706D02*
X007326Y010706D01*
X007431Y010768D02*
X006487Y010768D01*
X006530Y010829D02*
X010620Y010829D01*
X010593Y010856D02*
X010663Y010786D01*
X010755Y010748D01*
X010854Y010748D01*
X010859Y010750D01*
X010888Y010679D01*
X010959Y010609D01*
X011050Y010571D01*
X011150Y010571D01*
X011154Y010573D01*
X011184Y010502D01*
X011254Y010432D01*
X011346Y010394D01*
X011445Y010394D01*
X011537Y010432D01*
X011607Y010502D01*
X011645Y010594D01*
X011645Y010693D01*
X011607Y010785D01*
X011537Y010855D01*
X011445Y010893D01*
X011346Y010893D01*
X011341Y010891D01*
X011312Y010962D01*
X011241Y011032D01*
X011150Y011070D01*
X011050Y011070D01*
X011046Y011068D01*
X011016Y011139D01*
X010946Y011209D01*
X010854Y011247D01*
X010755Y011247D01*
X010663Y011209D01*
X010593Y011139D01*
X010555Y011047D01*
X010555Y010948D01*
X010593Y010856D01*
X010579Y010891D02*
X006554Y010891D01*
X006554Y010952D02*
X010555Y010952D01*
X010555Y011014D02*
X006544Y011014D01*
X006518Y011075D02*
X010567Y011075D01*
X010592Y011137D02*
X006744Y011137D01*
X006753Y011140D02*
X006823Y011211D01*
X006861Y011302D01*
X006861Y011402D01*
X006823Y011493D01*
X006753Y011564D01*
X006661Y011602D01*
X006562Y011602D01*
X006470Y011564D01*
X006400Y011493D01*
X006362Y011402D01*
X006362Y011302D01*
X006400Y011211D01*
X006470Y011140D01*
X006562Y011102D01*
X006661Y011102D01*
X006753Y011140D01*
X006811Y011198D02*
X010652Y011198D01*
X010715Y011436D02*
X010806Y011398D01*
X010906Y011398D01*
X010997Y011436D01*
X011068Y011506D01*
X011106Y011598D01*
X011106Y011635D01*
X011109Y011634D01*
X011209Y011634D01*
X011300Y011672D01*
X011371Y011742D01*
X011409Y011834D01*
X011409Y011933D01*
X011371Y012025D01*
X011300Y012095D01*
X011209Y012133D01*
X011109Y012133D01*
X011018Y012095D01*
X010947Y012025D01*
X010909Y011933D01*
X010909Y011895D01*
X010906Y011897D01*
X010806Y011897D01*
X010715Y011859D01*
X010644Y011789D01*
X010606Y011697D01*
X010606Y011598D01*
X010644Y011506D01*
X010715Y011436D01*
X010706Y011444D02*
X008134Y011444D01*
X008119Y011407D02*
X008157Y011499D01*
X008157Y011598D01*
X008119Y011690D01*
X010606Y011690D01*
X010606Y011629D02*
X008144Y011629D01*
X008157Y011567D02*
X010619Y011567D01*
X010645Y011506D02*
X008157Y011506D01*
X008119Y011407D02*
X008048Y011337D01*
X007957Y011299D01*
X007857Y011299D01*
X007766Y011337D01*
X007696Y011407D01*
X007658Y011499D01*
X007658Y011598D01*
X007696Y011690D01*
X007766Y011760D01*
X007857Y011798D01*
X007957Y011798D01*
X008048Y011760D01*
X008119Y011690D01*
X008057Y011751D02*
X010629Y011751D01*
X010669Y011813D02*
X005390Y011813D01*
X005379Y011785D02*
X005417Y011877D01*
X005417Y011976D01*
X005379Y012068D01*
X005308Y012138D01*
X005217Y012176D01*
X005117Y012176D01*
X005026Y012138D01*
X004955Y012068D01*
X004917Y011976D01*
X004917Y011877D01*
X004955Y011785D01*
X005026Y011715D01*
X005117Y011677D01*
X005217Y011677D01*
X005308Y011715D01*
X005379Y011785D01*
X005345Y011751D02*
X007757Y011751D01*
X007695Y011690D02*
X005248Y011690D01*
X005086Y011690D02*
X003030Y011690D01*
X003046Y011650D02*
X003008Y011741D01*
X002938Y011812D01*
X002847Y011850D01*
X002747Y011850D01*
X002655Y011812D01*
X002585Y011741D01*
X002547Y011650D01*
X002547Y011550D01*
X002585Y011459D01*
X002655Y011388D01*
X002747Y011350D01*
X002847Y011350D01*
X002938Y011388D01*
X003008Y011459D01*
X003046Y011550D01*
X003046Y011650D01*
X003046Y011629D02*
X007670Y011629D01*
X007658Y011567D02*
X006745Y011567D01*
X006811Y011506D02*
X007658Y011506D01*
X007680Y011444D02*
X006844Y011444D01*
X006861Y011383D02*
X007720Y011383D01*
X007805Y011321D02*
X006861Y011321D01*
X006844Y011260D02*
X013666Y011260D01*
X013664Y011257D02*
X013626Y011165D01*
X013626Y011109D01*
X013550Y011109D01*
X013459Y011071D01*
X013388Y011001D01*
X013350Y010909D01*
X013350Y010810D01*
X013388Y010718D01*
X013459Y010648D01*
X013550Y010610D01*
X013650Y010610D01*
X013741Y010648D01*
X013812Y010718D01*
X013850Y010810D01*
X013850Y010866D01*
X013925Y010866D01*
X014017Y010904D01*
X014087Y010974D01*
X014125Y011066D01*
X014125Y011165D01*
X014087Y011257D01*
X014017Y011327D01*
X013925Y011365D01*
X013826Y011365D01*
X013734Y011327D01*
X013664Y011257D01*
X013640Y011198D02*
X010957Y011198D01*
X011017Y011137D02*
X013626Y011137D01*
X013467Y011075D02*
X011043Y011075D01*
X011260Y011014D02*
X013401Y011014D01*
X013368Y010952D02*
X011316Y010952D01*
X011451Y010891D02*
X013350Y010891D01*
X013350Y010829D02*
X011563Y010829D01*
X011614Y010768D02*
X013368Y010768D01*
X013401Y010706D02*
X011639Y010706D01*
X011645Y010645D02*
X013467Y010645D01*
X013733Y010645D02*
X014076Y010645D01*
X014075Y010642D02*
X014075Y010542D01*
X014113Y010451D01*
X014183Y010381D01*
X014275Y010343D01*
X014374Y010343D01*
X014466Y010381D01*
X014536Y010451D01*
X014574Y010542D01*
X014574Y010642D01*
X014536Y010734D01*
X014466Y010804D01*
X014374Y010842D01*
X014275Y010842D01*
X014183Y010804D01*
X014113Y010734D01*
X014075Y010642D01*
X014075Y010583D02*
X011641Y010583D01*
X011615Y010522D02*
X014083Y010522D01*
X014109Y010460D02*
X011565Y010460D01*
X011457Y010399D02*
X014165Y010399D01*
X014101Y010706D02*
X013799Y010706D01*
X013832Y010768D02*
X014147Y010768D01*
X014244Y010829D02*
X013850Y010829D01*
X013984Y010891D02*
X015319Y010891D01*
X015319Y010881D02*
X015357Y010789D01*
X015427Y010719D01*
X015519Y010681D01*
X015618Y010681D01*
X015710Y010719D01*
X015780Y010789D01*
X015818Y010881D01*
X015818Y010980D01*
X015780Y011072D01*
X015710Y011142D01*
X015618Y011180D01*
X015519Y011180D01*
X015427Y011142D01*
X015357Y011072D01*
X015319Y010980D01*
X015319Y010881D01*
X015340Y010829D02*
X014405Y010829D01*
X014502Y010768D02*
X015379Y010768D01*
X015458Y010706D02*
X014547Y010706D01*
X014573Y010645D02*
X016645Y010645D01*
X016645Y010706D02*
X015679Y010706D01*
X015758Y010768D02*
X016646Y010768D01*
X016647Y010829D02*
X015797Y010829D01*
X015818Y010891D02*
X016648Y010891D01*
X016649Y010952D02*
X015818Y010952D01*
X015804Y011014D02*
X016649Y011014D01*
X016650Y011075D02*
X015777Y011075D01*
X015716Y011137D02*
X016651Y011137D01*
X016652Y011198D02*
X014112Y011198D01*
X014125Y011137D02*
X015421Y011137D01*
X015360Y011075D02*
X014125Y011075D01*
X014103Y011014D02*
X015333Y011014D01*
X015319Y010952D02*
X014065Y010952D01*
X014085Y011260D02*
X016653Y011260D01*
X016653Y011321D02*
X014023Y011321D01*
X014138Y011383D02*
X008094Y011383D01*
X008009Y011321D02*
X013728Y011321D01*
X014073Y011447D02*
X014035Y011539D01*
X014035Y011638D01*
X014073Y011730D01*
X014144Y011800D01*
X014235Y011838D01*
X014335Y011838D01*
X014426Y011800D01*
X014497Y011730D01*
X014535Y011638D01*
X014535Y011539D01*
X014497Y011447D01*
X014426Y011377D01*
X014335Y011339D01*
X014235Y011339D01*
X014144Y011377D01*
X014073Y011447D01*
X014076Y011444D02*
X011006Y011444D01*
X011067Y011506D02*
X011956Y011506D01*
X011959Y011503D02*
X012050Y011465D01*
X012150Y011465D01*
X012241Y011503D01*
X012312Y011573D01*
X012350Y011665D01*
X012350Y011752D01*
X012390Y011752D01*
X012482Y011790D01*
X012552Y011860D01*
X012590Y011952D01*
X012590Y011988D01*
X012626Y011988D01*
X012718Y012026D01*
X012788Y012096D01*
X012826Y012188D01*
X012826Y012287D01*
X012862Y012287D01*
X012954Y012325D01*
X013024Y012396D01*
X013062Y012487D01*
X013062Y012524D01*
X013098Y012524D01*
X013190Y012562D01*
X013260Y012632D01*
X013298Y012724D01*
X013298Y012823D01*
X013260Y012915D01*
X013190Y012985D01*
X013098Y013023D01*
X012999Y013023D01*
X012907Y012985D01*
X012837Y012915D01*
X012799Y012823D01*
X012799Y012787D01*
X012763Y012787D01*
X012671Y012749D01*
X012601Y012678D01*
X012563Y012587D01*
X012563Y012487D01*
X012527Y012487D01*
X012435Y012449D01*
X012365Y012379D01*
X012327Y012287D01*
X012327Y012251D01*
X012291Y012251D01*
X012199Y012213D01*
X012129Y012143D01*
X012091Y012051D01*
X012091Y011964D01*
X012050Y011964D01*
X011959Y011926D01*
X011888Y011856D01*
X011850Y011764D01*
X011850Y011665D01*
X011888Y011573D01*
X011959Y011503D01*
X011894Y011567D02*
X011093Y011567D01*
X011106Y011629D02*
X011865Y011629D01*
X011850Y011690D02*
X011319Y011690D01*
X011375Y011751D02*
X011850Y011751D01*
X011871Y011813D02*
X011400Y011813D01*
X011409Y011874D02*
X011907Y011874D01*
X011983Y011936D02*
X011408Y011936D01*
X011382Y011997D02*
X012091Y011997D01*
X012094Y012059D02*
X011337Y012059D01*
X011239Y012120D02*
X012119Y012120D01*
X012168Y012182D02*
X002568Y012182D01*
X002572Y012184D02*
X002642Y012254D01*
X002680Y012346D01*
X002680Y012445D01*
X002642Y012537D01*
X002572Y012607D01*
X002480Y012645D01*
X002381Y012645D01*
X002289Y012607D01*
X002219Y012537D01*
X002181Y012445D01*
X002181Y012346D01*
X002219Y012254D01*
X002289Y012184D01*
X002381Y012146D01*
X002480Y012146D01*
X002572Y012184D01*
X002632Y012243D02*
X012272Y012243D01*
X012334Y012305D02*
X005997Y012305D01*
X005982Y012290D02*
X006052Y012360D01*
X006090Y012452D01*
X006090Y012551D01*
X008315Y012551D01*
X008315Y012542D02*
X008353Y012451D01*
X008423Y012381D01*
X008515Y012343D01*
X008614Y012343D01*
X008706Y012381D01*
X008776Y012451D01*
X008814Y012542D01*
X008814Y012642D01*
X008776Y012734D01*
X008706Y012804D01*
X008614Y012842D01*
X008515Y012842D01*
X008423Y012804D01*
X008353Y012734D01*
X008315Y012642D01*
X008315Y012542D01*
X008337Y012489D02*
X006090Y012489D01*
X006080Y012428D02*
X008376Y012428D01*
X008457Y012366D02*
X006054Y012366D01*
X005982Y012290D02*
X005890Y012252D01*
X005791Y012252D01*
X005699Y012290D01*
X005629Y012360D01*
X005591Y012452D01*
X005591Y012551D01*
X002628Y012551D01*
X002662Y012489D02*
X005591Y012489D01*
X005601Y012428D02*
X002680Y012428D01*
X002680Y012366D02*
X005626Y012366D01*
X005684Y012305D02*
X002663Y012305D01*
X002559Y012612D02*
X005616Y012612D01*
X005629Y012643D02*
X005591Y012551D01*
X005629Y012643D02*
X005699Y012713D01*
X005791Y012751D01*
X005890Y012751D01*
X005982Y012713D01*
X006052Y012643D01*
X006090Y012551D01*
X006064Y012612D02*
X008315Y012612D01*
X008328Y012674D02*
X006021Y012674D01*
X005928Y012735D02*
X008355Y012735D01*
X008416Y012797D02*
X003519Y012797D01*
X003512Y012781D02*
X003550Y012873D01*
X003550Y012972D01*
X003512Y013064D01*
X003442Y013134D01*
X003350Y013172D01*
X003251Y013172D01*
X003159Y013134D01*
X003089Y013064D01*
X003051Y012972D01*
X003051Y012873D01*
X003089Y012781D01*
X003159Y012711D01*
X003251Y012673D01*
X003350Y012673D01*
X003442Y012711D01*
X003512Y012781D01*
X003466Y012735D02*
X005752Y012735D01*
X005659Y012674D02*
X003352Y012674D01*
X003250Y012674D02*
X002070Y012674D01*
X002070Y012735D02*
X003135Y012735D01*
X003083Y012797D02*
X002070Y012797D01*
X002070Y012858D02*
X003057Y012858D01*
X003051Y012920D02*
X002070Y012920D01*
X002070Y012981D02*
X003055Y012981D01*
X003080Y013043D02*
X002070Y013043D01*
X002070Y013104D02*
X003129Y013104D01*
X003235Y013166D02*
X002070Y013166D01*
X002070Y013227D02*
X008754Y013227D01*
X008766Y013215D02*
X008857Y013177D01*
X008957Y013177D01*
X009048Y013215D01*
X009119Y013285D01*
X009157Y013377D01*
X009157Y013476D01*
X009119Y013568D01*
X009048Y013638D01*
X008957Y013676D01*
X008857Y013676D01*
X008766Y013638D01*
X008696Y013568D01*
X008658Y013476D01*
X008658Y013377D01*
X008696Y013285D01*
X008766Y013215D01*
X008694Y013289D02*
X002070Y013289D01*
X002070Y013350D02*
X008669Y013350D01*
X008658Y013412D02*
X008300Y013412D01*
X008293Y013404D02*
X008363Y013474D01*
X008401Y013566D01*
X008401Y013665D01*
X008363Y013757D01*
X008293Y013827D01*
X008201Y013865D01*
X008102Y013865D01*
X008010Y013827D01*
X007940Y013757D01*
X007938Y013754D01*
X007926Y013785D01*
X007856Y013855D01*
X007764Y013893D01*
X007665Y013893D01*
X007573Y013855D01*
X007537Y013819D01*
X007486Y013871D01*
X007394Y013909D01*
X007294Y013909D01*
X007203Y013871D01*
X007133Y013800D01*
X007095Y013709D01*
X007095Y013609D01*
X007133Y013518D01*
X007203Y013447D01*
X007294Y013409D01*
X007394Y013409D01*
X007486Y013447D01*
X007521Y013483D01*
X007573Y013432D01*
X007665Y013394D01*
X007764Y013394D01*
X007856Y013432D01*
X007926Y013502D01*
X007927Y013505D01*
X007940Y013474D01*
X008010Y013404D01*
X008102Y013366D01*
X008201Y013366D01*
X008293Y013404D01*
X008362Y013473D02*
X008658Y013473D01*
X008682Y013535D02*
X008388Y013535D01*
X008401Y013596D02*
X008724Y013596D01*
X008812Y013658D02*
X008401Y013658D01*
X008379Y013719D02*
X014138Y013719D01*
X014138Y013728D02*
X014138Y013629D01*
X014176Y013537D01*
X014246Y013467D01*
X014338Y013429D01*
X014437Y013429D01*
X014529Y013467D01*
X014599Y013537D01*
X014637Y013629D01*
X014637Y013728D01*
X014599Y013820D01*
X014529Y013890D01*
X014437Y013928D01*
X014338Y013928D01*
X014246Y013890D01*
X014176Y013820D01*
X014138Y013728D01*
X014159Y013781D02*
X008339Y013781D01*
X008257Y013842D02*
X014198Y013842D01*
X014278Y013904D02*
X007406Y013904D01*
X007283Y013904D02*
X003440Y013904D01*
X003465Y013965D02*
X014979Y013965D01*
X014973Y014027D02*
X003471Y014027D01*
X003471Y014088D02*
X014973Y014088D01*
X014973Y014150D02*
X003471Y014150D01*
X003471Y014211D02*
X014973Y014211D01*
X014973Y014273D02*
X003471Y014273D01*
X003447Y014334D02*
X014997Y014334D01*
X015023Y014396D02*
X003421Y014396D01*
X003396Y014457D02*
X015048Y014457D01*
X015074Y014519D02*
X003370Y014519D01*
X003327Y014580D02*
X015117Y014580D01*
X015179Y014642D02*
X003265Y014642D01*
X003204Y014703D02*
X015240Y014703D01*
X015310Y014765D02*
X003134Y014765D01*
X003414Y013842D02*
X007174Y013842D01*
X007124Y013781D02*
X003389Y013781D01*
X003363Y013719D02*
X007099Y013719D01*
X007095Y013658D02*
X003310Y013658D01*
X003248Y013596D02*
X007100Y013596D01*
X007125Y013535D02*
X003187Y013535D01*
X003093Y013473D02*
X007177Y013473D01*
X007289Y013412D02*
X002944Y013412D01*
X002508Y013412D02*
X002070Y013412D01*
X002070Y013473D02*
X002359Y013473D01*
X002265Y013535D02*
X002070Y013535D01*
X002070Y013596D02*
X002204Y013596D01*
X002142Y013658D02*
X002070Y013658D01*
X002070Y013719D02*
X002089Y013719D01*
X003366Y013166D02*
X015325Y013166D01*
X015255Y013096D01*
X015217Y013004D01*
X015217Y012905D01*
X015255Y012813D01*
X015325Y012743D01*
X015417Y012705D01*
X015516Y012705D01*
X015608Y012743D01*
X015678Y012813D01*
X015716Y012905D01*
X015716Y013004D01*
X015678Y013096D01*
X015608Y013166D01*
X016374Y013166D01*
X016374Y013227D02*
X009061Y013227D01*
X009120Y013289D02*
X016374Y013289D01*
X016374Y013350D02*
X009146Y013350D01*
X009157Y013412D02*
X015500Y013412D01*
X015351Y013473D02*
X014535Y013473D01*
X014596Y013535D02*
X015258Y013535D01*
X015196Y013596D02*
X014623Y013596D01*
X014637Y013658D02*
X015135Y013658D01*
X015081Y013719D02*
X014637Y013719D01*
X014615Y013781D02*
X015056Y013781D01*
X015030Y013842D02*
X014577Y013842D01*
X014497Y013904D02*
X015005Y013904D01*
X015325Y013166D02*
X015417Y013204D01*
X015516Y013204D01*
X015608Y013166D01*
X015669Y013104D02*
X016374Y013104D01*
X016374Y013043D02*
X015700Y013043D01*
X015716Y012981D02*
X016379Y012981D01*
X016399Y012920D02*
X015716Y012920D01*
X015697Y012858D02*
X016419Y012858D01*
X016439Y012797D02*
X015662Y012797D01*
X015590Y012735D02*
X016459Y012735D01*
X016498Y012674D02*
X015110Y012674D01*
X015091Y012628D02*
X015129Y012720D01*
X015129Y012819D01*
X015091Y012911D01*
X015021Y012981D01*
X014929Y013019D01*
X014830Y013019D01*
X014738Y012981D01*
X014668Y012911D01*
X014630Y012819D01*
X014630Y012720D01*
X014668Y012628D01*
X014738Y012558D01*
X014830Y012520D01*
X014929Y012520D01*
X015021Y012558D01*
X015091Y012628D01*
X015076Y012612D02*
X016543Y012612D01*
X016588Y012551D02*
X015005Y012551D01*
X014755Y012551D02*
X014400Y012551D01*
X014382Y012510D02*
X014420Y012602D01*
X014420Y012701D01*
X014382Y012793D01*
X014312Y012863D01*
X014221Y012901D01*
X014121Y012901D01*
X014029Y012863D01*
X013959Y012793D01*
X013921Y012701D01*
X013921Y012602D01*
X013959Y012510D01*
X014029Y012440D01*
X014121Y012402D01*
X014221Y012402D01*
X014312Y012440D01*
X014382Y012510D01*
X014362Y012489D02*
X016632Y012489D01*
X016635Y012485D02*
X016635Y012485D01*
X016668Y012428D02*
X014284Y012428D01*
X014058Y012428D02*
X013038Y012428D01*
X013062Y012489D02*
X013980Y012489D01*
X013942Y012551D02*
X013164Y012551D01*
X013241Y012612D02*
X013921Y012612D01*
X013921Y012674D02*
X013278Y012674D01*
X013298Y012735D02*
X013936Y012735D01*
X013964Y012797D02*
X013298Y012797D01*
X013284Y012858D02*
X014025Y012858D01*
X014317Y012858D02*
X014646Y012858D01*
X014630Y012797D02*
X014378Y012797D01*
X014406Y012735D02*
X014630Y012735D01*
X014649Y012674D02*
X014420Y012674D01*
X014420Y012612D02*
X014683Y012612D01*
X014677Y012920D02*
X013255Y012920D01*
X013194Y012981D02*
X014739Y012981D01*
X015020Y012981D02*
X015217Y012981D01*
X015217Y012920D02*
X015082Y012920D01*
X015113Y012858D02*
X015236Y012858D01*
X015271Y012797D02*
X015129Y012797D01*
X015129Y012735D02*
X015343Y012735D01*
X015233Y013043D02*
X011530Y013043D01*
X011537Y013040D02*
X011445Y013078D01*
X011346Y013078D01*
X011254Y013040D01*
X011184Y012970D01*
X011146Y012878D01*
X011146Y012779D01*
X011184Y012687D01*
X011254Y012617D01*
X011346Y012579D01*
X011445Y012579D01*
X011537Y012617D01*
X011607Y012687D01*
X011645Y012779D01*
X011645Y012878D01*
X011607Y012970D01*
X011537Y013040D01*
X011595Y012981D02*
X012904Y012981D01*
X012842Y012920D02*
X011628Y012920D01*
X011645Y012858D02*
X012814Y012858D01*
X012799Y012797D02*
X011645Y012797D01*
X011627Y012735D02*
X012658Y012735D01*
X012599Y012674D02*
X011594Y012674D01*
X011526Y012612D02*
X012574Y012612D01*
X012563Y012551D02*
X009602Y012551D01*
X009602Y012542D02*
X009564Y012451D01*
X009493Y012381D01*
X009402Y012343D01*
X009302Y012343D01*
X009211Y012381D01*
X009140Y012451D01*
X009102Y012542D01*
X009102Y012642D01*
X009140Y012734D01*
X009211Y012804D01*
X009302Y012842D01*
X009402Y012842D01*
X009493Y012804D01*
X009564Y012734D01*
X009602Y012642D01*
X009602Y012542D01*
X009580Y012489D02*
X012563Y012489D01*
X012414Y012428D02*
X009541Y012428D01*
X009459Y012366D02*
X012360Y012366D01*
X012648Y011997D02*
X016662Y011997D01*
X016661Y011936D02*
X012583Y011936D01*
X012558Y011874D02*
X016661Y011874D01*
X016660Y011813D02*
X014395Y011813D01*
X014475Y011751D02*
X016659Y011751D01*
X016658Y011690D02*
X014513Y011690D01*
X014535Y011629D02*
X016657Y011629D01*
X016657Y011567D02*
X014535Y011567D01*
X014521Y011506D02*
X016656Y011506D01*
X016655Y011444D02*
X014494Y011444D01*
X014432Y011383D02*
X016654Y011383D01*
X016663Y012059D02*
X012751Y012059D01*
X012798Y012120D02*
X016664Y012120D01*
X016665Y012182D02*
X012823Y012182D01*
X012826Y012243D02*
X016665Y012243D01*
X016666Y012305D02*
X012905Y012305D01*
X012995Y012366D02*
X016667Y012366D01*
X015263Y013104D02*
X003472Y013104D01*
X003521Y013043D02*
X011261Y013043D01*
X011195Y012981D02*
X003547Y012981D01*
X003550Y012920D02*
X011163Y012920D01*
X011146Y012858D02*
X003544Y012858D01*
X002303Y012612D02*
X002070Y012612D01*
X002070Y012551D02*
X002233Y012551D01*
X002200Y012489D02*
X002070Y012489D01*
X002070Y012428D02*
X002181Y012428D01*
X002181Y012366D02*
X002070Y012366D01*
X002070Y012305D02*
X002198Y012305D01*
X002230Y012243D02*
X002070Y012243D01*
X002070Y012182D02*
X002294Y012182D01*
X002070Y012120D02*
X005008Y012120D01*
X004952Y012059D02*
X002070Y012059D01*
X002070Y011997D02*
X004926Y011997D01*
X004917Y011936D02*
X002070Y011936D01*
X002070Y011874D02*
X004918Y011874D01*
X004944Y011813D02*
X002935Y011813D01*
X002998Y011751D02*
X004989Y011751D01*
X005415Y011874D02*
X010752Y011874D01*
X010911Y011936D02*
X005417Y011936D01*
X005408Y011997D02*
X010936Y011997D01*
X010982Y012059D02*
X005382Y012059D01*
X005326Y012120D02*
X011079Y012120D01*
X011264Y012612D02*
X009602Y012612D01*
X009588Y012674D02*
X011197Y012674D01*
X011164Y012735D02*
X009562Y012735D01*
X009500Y012797D02*
X011146Y012797D01*
X012505Y011813D02*
X014175Y011813D01*
X014095Y011751D02*
X012350Y011751D01*
X012350Y011690D02*
X014057Y011690D01*
X014035Y011629D02*
X012335Y011629D01*
X012306Y011567D02*
X014035Y011567D01*
X014049Y011506D02*
X012244Y011506D01*
X011021Y010583D02*
X007982Y010583D01*
X007895Y010645D02*
X010923Y010645D01*
X010877Y010706D02*
X007670Y010706D01*
X007565Y010768D02*
X010708Y010768D01*
X010785Y010520D02*
X010877Y010558D01*
X010976Y010558D01*
X011068Y010520D01*
X011138Y010450D01*
X011176Y010358D01*
X011176Y010259D01*
X011138Y010167D01*
X011068Y010097D01*
X010976Y010059D01*
X010877Y010059D01*
X010785Y010097D01*
X010715Y010167D01*
X010677Y010259D01*
X010677Y010358D01*
X010715Y010450D01*
X010785Y010520D01*
X010789Y010522D02*
X008179Y010522D01*
X008270Y010460D02*
X010725Y010460D01*
X010694Y010399D02*
X008313Y010399D01*
X008338Y010337D02*
X010677Y010337D01*
X010677Y010276D02*
X008690Y010276D01*
X008756Y010214D02*
X010696Y010214D01*
X010730Y010153D02*
X008789Y010153D01*
X008806Y010091D02*
X010800Y010091D01*
X011054Y010091D02*
X016638Y010091D01*
X016637Y010030D02*
X008806Y010030D01*
X008789Y009968D02*
X016636Y009968D01*
X016635Y009907D02*
X008756Y009907D01*
X008689Y009845D02*
X016634Y009845D01*
X016634Y009784D02*
X013959Y009784D01*
X014059Y009722D02*
X016633Y009722D01*
X016632Y009661D02*
X014106Y009661D01*
X014131Y009599D02*
X016631Y009599D01*
X016630Y009538D02*
X014133Y009538D01*
X014125Y009476D02*
X016630Y009476D01*
X016629Y009415D02*
X014100Y009415D01*
X014045Y009353D02*
X014701Y009353D01*
X015019Y009353D02*
X016628Y009353D01*
X016627Y009292D02*
X015075Y009292D01*
X015101Y009230D02*
X016626Y009230D01*
X016626Y009169D02*
X015109Y009169D01*
X015109Y009107D02*
X016625Y009107D01*
X016624Y009046D02*
X015083Y009046D01*
X015038Y008984D02*
X016623Y008984D01*
X016638Y010153D02*
X011124Y010153D01*
X011158Y010214D02*
X016639Y010214D01*
X016640Y010276D02*
X011176Y010276D01*
X011176Y010337D02*
X016641Y010337D01*
X016641Y010399D02*
X014484Y010399D01*
X014540Y010460D02*
X016642Y010460D01*
X016643Y010522D02*
X014565Y010522D01*
X014574Y010583D02*
X016644Y010583D01*
X014407Y009698D02*
X014407Y009639D01*
X013808Y009784D02*
X008353Y009784D01*
X008382Y009845D02*
X008425Y009845D01*
X008292Y009722D02*
X013708Y009722D01*
X014171Y009167D02*
X014112Y009108D01*
X013059Y009353D02*
X011148Y009353D01*
X011105Y009292D02*
X013008Y009292D01*
X011334Y010399D02*
X011160Y010399D01*
X011128Y010460D02*
X011225Y010460D01*
X011176Y010522D02*
X011065Y010522D01*
X010709Y009599D02*
X002070Y009599D01*
X002070Y009538D02*
X005791Y009538D01*
X005735Y009476D02*
X004557Y009476D01*
X004619Y009415D02*
X005710Y009415D01*
X005701Y009353D02*
X004649Y009353D01*
X004665Y009292D02*
X005702Y009292D01*
X005727Y009230D02*
X004665Y009230D01*
X004645Y009169D02*
X005773Y009169D01*
X006128Y009169D02*
X006895Y009169D01*
X006849Y009230D02*
X006173Y009230D01*
X006199Y009292D02*
X006824Y009292D01*
X006823Y009353D02*
X006200Y009353D01*
X006191Y009415D02*
X006832Y009415D01*
X006857Y009476D02*
X006166Y009476D01*
X006110Y009538D02*
X006913Y009538D01*
X007232Y009538D02*
X010684Y009538D01*
X010673Y009476D02*
X007288Y009476D01*
X007313Y009415D02*
X010673Y009415D01*
X010450Y009285D02*
X010391Y009344D01*
X010332Y009344D01*
X008424Y010276D02*
X008338Y010276D01*
X008327Y010214D02*
X008357Y010214D01*
X008325Y010153D02*
X008302Y010153D01*
X007933Y010091D02*
X006678Y010091D01*
X006713Y010030D02*
X007918Y010030D01*
X007898Y009968D02*
X006732Y009968D01*
X006732Y009907D02*
X007898Y009907D01*
X007913Y009845D02*
X006715Y009845D01*
X006684Y009784D02*
X007941Y009784D01*
X008003Y009722D02*
X006621Y009722D01*
X006608Y010153D02*
X007874Y010153D01*
X007655Y010203D02*
X007585Y010274D01*
X007579Y010289D01*
X007547Y010276D01*
X007448Y010276D01*
X007547Y010276D02*
X007584Y010276D01*
X006480Y011137D02*
X006460Y011137D01*
X006413Y011198D02*
X002070Y011198D01*
X002070Y011137D02*
X006150Y011137D01*
X006091Y011075D02*
X002070Y011075D01*
X002070Y011014D02*
X005850Y011014D01*
X005794Y010952D02*
X002070Y010952D01*
X002070Y010891D02*
X005423Y010891D01*
X005533Y010891D02*
X005768Y010891D01*
X005732Y010829D02*
X005645Y010829D01*
X005311Y010829D02*
X002070Y010829D01*
X002070Y010768D02*
X005259Y010768D01*
X005234Y010706D02*
X002070Y010706D01*
X002070Y010645D02*
X005163Y010645D01*
X005065Y010583D02*
X002070Y010583D01*
X002070Y010522D02*
X005019Y010522D01*
X004994Y010460D02*
X002070Y010460D01*
X002070Y010399D02*
X004992Y010399D01*
X005001Y010337D02*
X002070Y010337D01*
X002070Y010276D02*
X005026Y010276D01*
X005073Y010214D02*
X002070Y010214D01*
X002070Y010153D02*
X005051Y010153D01*
X005051Y010091D02*
X002070Y010091D01*
X002070Y010030D02*
X005065Y010030D01*
X005091Y009968D02*
X002070Y009968D01*
X002070Y009907D02*
X005153Y009907D01*
X005540Y010399D02*
X005626Y010399D01*
X006380Y011260D02*
X002070Y011260D01*
X002070Y011321D02*
X006362Y011321D01*
X006362Y011383D02*
X002924Y011383D01*
X002994Y011444D02*
X006380Y011444D01*
X006412Y011506D02*
X003028Y011506D01*
X003046Y011567D02*
X006479Y011567D01*
X008672Y012366D02*
X009245Y012366D01*
X009163Y012428D02*
X008753Y012428D01*
X008792Y012489D02*
X009124Y012489D01*
X009102Y012551D02*
X008814Y012551D01*
X008814Y012612D02*
X009102Y012612D01*
X009116Y012674D02*
X008801Y012674D01*
X008774Y012735D02*
X009142Y012735D01*
X009204Y012797D02*
X008713Y012797D01*
X009157Y013473D02*
X014240Y013473D01*
X014178Y013535D02*
X009133Y013535D01*
X009091Y013596D02*
X014151Y013596D01*
X014138Y013658D02*
X009002Y013658D01*
X008046Y013842D02*
X007868Y013842D01*
X007927Y013781D02*
X007963Y013781D01*
X007941Y013473D02*
X007897Y013473D01*
X007807Y013412D02*
X008002Y013412D01*
X007621Y013412D02*
X007399Y013412D01*
X007511Y013473D02*
X007531Y013473D01*
X007514Y013842D02*
X007560Y013842D01*
X002659Y011813D02*
X002070Y011813D01*
X002070Y011751D02*
X002595Y011751D01*
X002564Y011690D02*
X002070Y011690D01*
X002070Y011629D02*
X002547Y011629D01*
X002547Y011567D02*
X002070Y011567D01*
X002070Y011506D02*
X002566Y011506D01*
X002600Y011444D02*
X002070Y011444D01*
X002070Y011383D02*
X002670Y011383D01*
X002070Y009476D02*
X004273Y009476D01*
X004211Y009415D02*
X002070Y009415D01*
X002070Y009353D02*
X004181Y009353D01*
X004165Y009292D02*
X002070Y009292D01*
X002070Y009230D02*
X004165Y009230D01*
X004185Y009169D02*
X002070Y009169D01*
X002070Y009107D02*
X004220Y009107D01*
X004293Y009046D02*
X002070Y009046D01*
X002070Y008984D02*
X005265Y008984D01*
X005310Y009003D02*
X005218Y008965D01*
X005148Y008895D01*
X005110Y008803D01*
X005110Y008704D01*
X005148Y008612D01*
X005218Y008542D01*
X005310Y008504D01*
X005410Y008504D01*
X005501Y008542D01*
X005571Y008612D01*
X005609Y008704D01*
X005609Y008803D01*
X005571Y008895D01*
X005501Y008965D01*
X005410Y009003D01*
X005310Y009003D01*
X005455Y008984D02*
X006446Y008984D01*
X006491Y009003D02*
X006400Y008965D01*
X006329Y008895D01*
X006291Y008803D01*
X006291Y008704D01*
X006329Y008612D01*
X006400Y008542D01*
X006491Y008504D01*
X006591Y008504D01*
X006682Y008542D01*
X006753Y008612D01*
X006791Y008704D01*
X006791Y008803D01*
X006753Y008895D01*
X006682Y008965D01*
X006591Y009003D01*
X006491Y009003D01*
X006636Y008984D02*
X007627Y008984D01*
X007538Y008923D02*
X006725Y008923D01*
X006766Y008861D02*
X007497Y008861D01*
X007472Y008800D02*
X006791Y008800D01*
X006791Y008738D02*
X007472Y008738D01*
X007484Y008677D02*
X006779Y008677D01*
X006754Y008615D02*
X007509Y008615D01*
X007569Y008554D02*
X006694Y008554D01*
X006388Y008554D02*
X005513Y008554D01*
X005573Y008615D02*
X006328Y008615D01*
X006303Y008677D02*
X005598Y008677D01*
X005609Y008738D02*
X006291Y008738D01*
X006291Y008800D02*
X005609Y008800D01*
X005585Y008861D02*
X006315Y008861D01*
X006357Y008923D02*
X005544Y008923D01*
X005176Y008923D02*
X002070Y008923D01*
X002070Y008861D02*
X005134Y008861D01*
X005110Y008800D02*
X002070Y008800D01*
X002070Y008738D02*
X004263Y008738D01*
X004182Y008677D02*
X002070Y008677D01*
X002070Y008615D02*
X004144Y008615D01*
X004122Y008554D02*
X002070Y008554D01*
X002070Y008492D02*
X004122Y008492D01*
X004136Y008431D02*
X002070Y008431D01*
X002070Y008369D02*
X004163Y008369D01*
X004224Y008308D02*
X002070Y008308D01*
X002070Y008246D02*
X005715Y008246D01*
X005701Y008213D02*
X005739Y008304D01*
X005809Y008375D01*
X005901Y008413D01*
X006000Y008413D01*
X006092Y008375D01*
X006162Y008304D01*
X006200Y008213D01*
X006200Y008113D01*
X006162Y008022D01*
X006092Y007951D01*
X006000Y007913D01*
X005901Y007913D01*
X005809Y007951D01*
X005739Y008022D01*
X005701Y008113D01*
X005701Y008213D01*
X005701Y008185D02*
X002070Y008185D01*
X002070Y008123D02*
X005701Y008123D01*
X005722Y008062D02*
X002070Y008062D01*
X002070Y008000D02*
X005760Y008000D01*
X005839Y007939D02*
X002070Y007939D01*
X002514Y007693D02*
X006321Y007693D01*
X006295Y007631D02*
X002566Y007631D01*
X002592Y007570D02*
X006291Y007570D01*
X006297Y007509D02*
X002598Y007509D01*
X002594Y007447D02*
X004968Y007447D01*
X004912Y007386D02*
X002569Y007386D01*
X002520Y007324D02*
X004887Y007324D01*
X004878Y007263D02*
X002519Y007263D01*
X002571Y007201D02*
X004879Y007201D01*
X004905Y007140D02*
X002596Y007140D01*
X002602Y007078D02*
X004950Y007078D01*
X005047Y007017D02*
X002597Y007017D01*
X002070Y006771D02*
X006185Y006771D01*
X006124Y006709D02*
X002070Y006709D01*
X004519Y008308D02*
X005742Y008308D01*
X005804Y008369D02*
X004581Y008369D01*
X004621Y008554D02*
X005207Y008554D01*
X005147Y008615D02*
X004600Y008615D01*
X004561Y008677D02*
X005121Y008677D01*
X005110Y008738D02*
X004481Y008738D01*
X006097Y008369D02*
X006985Y008369D01*
X006923Y008308D02*
X006158Y008308D01*
X006186Y008246D02*
X006896Y008246D01*
X006882Y008185D02*
X006200Y008185D01*
X006200Y008123D02*
X006882Y008123D01*
X006903Y008062D02*
X006179Y008062D01*
X006141Y008000D02*
X006941Y008000D01*
X007020Y007939D02*
X006062Y007939D01*
X006323Y007447D02*
X005287Y007447D01*
X005343Y007386D02*
X006375Y007386D01*
X012434Y007263D02*
X014336Y007263D01*
X014395Y007324D02*
X012492Y007324D01*
X012517Y007386D02*
X014454Y007386D01*
X014512Y007447D02*
X012527Y007447D01*
X013415Y007100D02*
X013415Y006982D01*
X013817Y012592D02*
X013758Y012651D01*
X015937Y013412D02*
X016374Y013412D01*
X016374Y013473D02*
X016085Y013473D01*
X016179Y013535D02*
X016374Y013535D01*
X016374Y013596D02*
X016240Y013596D01*
X016302Y013658D02*
X016374Y013658D01*
X016374Y013719D02*
X016355Y013719D01*
D18*
X002726Y001135D03*
X015718Y001135D03*
X015718Y014128D03*
X002726Y014128D03*
M02*
