%
M48
M72
T01C0.0118
T02C0.0315
T03C0.0354
T04C0.0394
T05C0.0551
T06C0.0669
T07C0.0827
%
T01
X3198Y2202
X3198Y2439
X2962Y2439
X2726Y2439
X3435Y2439
X3671Y2439
X3671Y2202
X3435Y2202
X3376Y3025
X3612Y3025
X3848Y3025
X4084Y3025
X4084Y3261
X3848Y3261
X3612Y3261
X3376Y3261
X3139Y3261
X2903Y3261
X2667Y3261
X2667Y3498
X2903Y3498
X3139Y3498
X3376Y3498
X3612Y3498
X3848Y3498
X4084Y3498
X4084Y3734
X3848Y3734
X3848Y3970
X3612Y3970
X3612Y3734
X3376Y3734
X3376Y3970
X3139Y3970
X2903Y3970
X2667Y3970
X2667Y3734
X2903Y3734
X3139Y3734
X3139Y4206
X2903Y4206
X2667Y4206
X3376Y4206
X3612Y4206
X3848Y4206
X4084Y4206
X4084Y3970
X4797Y3380
X5033Y3380
X5269Y3380
X5506Y3380
X5742Y3380
X5742Y3143
X5506Y3143
X5269Y3143
X5033Y3143
X4797Y3143
X4797Y2907
X5033Y2907
X5033Y2671
X4797Y2671
X4797Y2435
X5033Y2435
X5269Y2435
X5506Y2435
X5742Y2435
X5742Y2198
X5506Y2198
X5269Y2198
X5033Y2198
X4797Y2198
X5269Y2671
X5269Y2907
X5506Y2907
X5742Y2907
X5742Y2671
X5506Y2671
X5978Y2671
X5978Y2907
X6214Y2907
X6214Y2671
X6214Y2435
X5978Y2435
X5978Y2198
X6214Y2198
X7037Y2139
X7273Y2139
X7509Y2139
X7746Y2139
X7982Y2139
X8218Y2139
X8454Y2139
X8454Y2376
X8454Y2612
X8218Y2612
X7982Y2612
X7746Y2612
X7746Y2376
X7982Y2376
X8218Y2376
X8218Y2848
X7982Y2848
X7982Y3084
X8218Y3084
X8454Y3084
X8454Y2848
X8454Y3320
X8218Y3320
X7982Y3320
X7746Y3320
X7509Y3320
X7273Y3320
X7037Y3320
X7037Y3084
X7037Y2848
X7273Y2848
X7273Y3084
X7509Y3084
X7509Y2848
X7746Y2848
X7746Y3084
X7509Y2612
X7273Y2612
X7037Y2612
X7037Y2376
X7273Y2376
X7509Y2376
X6214Y3143
X5978Y3143
X5978Y3380
X6214Y3380
X6328Y4443
X6092Y4443
X5856Y4443
X5620Y4443
X5620Y4679
X5856Y4679
X6092Y4679
X6328Y4679
X6565Y4679
X6565Y4443
X7628Y4443
X7864Y4443
X8100Y4443
X8336Y4443
X8572Y4443
X8572Y4679
X8336Y4679
X8100Y4679
X7864Y4679
X7628Y4679
X7738Y5643
X7738Y5880
X7974Y5880
X8210Y5880
X8446Y5880
X8446Y5643
X8446Y6116
X8210Y6116
X7974Y6116
X7738Y6116
X8147Y6561
X7907Y6773
X6773Y6679
X6328Y6561
X6313Y6116
X6549Y6116
X6549Y5880
X6313Y5880
X6076Y5880
X5840Y5880
X5840Y5643
X5840Y6116
X6076Y6116
X6549Y5643
X5128Y7254
X5950Y8163
X5360Y8754
X5950Y9344
X6482Y9935
X7072Y9344
X6541Y8754
X7132Y8163
X7722Y8754
X8419Y8939
X8691Y8458
X9324Y9084
X9895Y9061
X10332Y9344
X10923Y9462
X10927Y10309
X11395Y10643
X11100Y10820
X10805Y10998
X10856Y11647
X11159Y11883
X12100Y11714
X12340Y12002
X12576Y12238
X12813Y12537
X13049Y12773
X13758Y12651
X14171Y12651
X14880Y12769
X15466Y12954
X16234Y13135
X14387Y13679
X11395Y12828
X10998Y12824
X9978Y12986
X9352Y12592
X8565Y12592
X8907Y13427
X8151Y13616
X7714Y13643
X7344Y13659
X5840Y12502
X5167Y11927
X5974Y11317
X6305Y10939
X6009Y10820
X5793Y10584
X5478Y10643
X5242Y10407
X5301Y10112
X4415Y9265
X4372Y8513
X2348Y7506
X2352Y7076
X2529Y6175
X2883Y6175
X3238Y6175
X3592Y6175
X3946Y6175
X4301Y6175
X4301Y5584
X3946Y5584
X3592Y5584
X3238Y5584
X2883Y5584
X2529Y5584
X2175Y5584
X2175Y6175
X6541Y7572
X9092Y6175
X9446Y6175
X9801Y6175
X10155Y6175
X10509Y6175
X10509Y5584
X10155Y5584
X9801Y5584
X9446Y5584
X9092Y5584
X9226Y4029
X9226Y3793
X9462Y3793
X9462Y4029
X9698Y4029
X9698Y3793
X9935Y3793
X10171Y3793
X10407Y3793
X10407Y4029
X10171Y4029
X9935Y4029
X9935Y3557
X10171Y3557
X10407Y3557
X10643Y3557
X10643Y3320
X10407Y3320
X10171Y3320
X9935Y3320
X9698Y3320
X9462Y3320
X9226Y3320
X9226Y3557
X9462Y3557
X9698Y3557
X9698Y3084
X9462Y3084
X9462Y2848
X9226Y2848
X9226Y3084
X9698Y2848
X9935Y2848
X10171Y2848
X10407Y2848
X10407Y3084
X10171Y3084
X9935Y3084
X10643Y3084
X10643Y2848
X11407Y2907
X11407Y2671
X11643Y2671
X11643Y2907
X11880Y2907
X12116Y2907
X12352Y2907
X12352Y2671
X12588Y2671
X12588Y2907
X12824Y2907
X12824Y2671
X12824Y3143
X12588Y3143
X12352Y3143
X12116Y3143
X11880Y3143
X11880Y3380
X12116Y3380
X12352Y3380
X12588Y3380
X12824Y3380
X12824Y3616
X12588Y3616
X12588Y3852
X12352Y3852
X12116Y3852
X12116Y3616
X12352Y3616
X11880Y3616
X11880Y3852
X11643Y3852
X11407Y3852
X11407Y3616
X11643Y3616
X11643Y3380
X11407Y3380
X11407Y3143
X11643Y3143
X11880Y2671
X12116Y2671
X12179Y2080
X12415Y2080
X12415Y1844
X12179Y1844
X11943Y1844
X11706Y1844
X11470Y1844
X11470Y2080
X11706Y2080
X11943Y2080
X10108Y2021
X10108Y2257
X9872Y2257
X9872Y2021
X9635Y2021
X9399Y2021
X9163Y2021
X9163Y2257
X9399Y2257
X9635Y2257
X10643Y3793
X10643Y4029
X12824Y3852
X13655Y3911
X13891Y3911
X14128Y3911
X14364Y3911
X14600Y3911
X14836Y3911
X15072Y3911
X15072Y3675
X14836Y3675
X14600Y3675
X14364Y3675
X14364Y3439
X14600Y3439
X14836Y3439
X15072Y3439
X15072Y3202
X14836Y3202
X14836Y2966
X14600Y2966
X14364Y2966
X14364Y3202
X14600Y3202
X14128Y3202
X14128Y2966
X13891Y2966
X13655Y2966
X13655Y3202
X13891Y3202
X13891Y3439
X13891Y3675
X13655Y3675
X13655Y3439
X14128Y3439
X14128Y3675
X15072Y2966
X15049Y4580
X14813Y4580
X14576Y4580
X14340Y4580
X14104Y4580
X14104Y4817
X14104Y5053
X14340Y5053
X14576Y5053
X14576Y4817
X14340Y4817
X14813Y4817
X14813Y5053
X15049Y5053
X15049Y4817
X15049Y5289
X14813Y5289
X14576Y5289
X14340Y5289
X14104Y5289
X12872Y5584
X12517Y5584
X12163Y5584
X11809Y5584
X11454Y5584
X11454Y6175
X11809Y6175
X12163Y6175
X12517Y6175
X12872Y6175
X13415Y7100
X12277Y7458
X11742Y7065
X11297Y7072
X10683Y7159
X10277Y7159
X10277Y7509
X10509Y7860
X9222Y7631
X9198Y9915
X8557Y10061
X8147Y9931
X8088Y10289
X7797Y10415
X7498Y10525
X6612Y11352
X7907Y11549
X8809Y11588
X13226Y9167
X13883Y9545
X14407Y9639
X14860Y9159
X14112Y9108
X13254Y8072
X12435Y8072
X14324Y10592
X13876Y11116
X13600Y10860
X14285Y11588
X15569Y10931
X20147Y7198
X20147Y6726
X20147Y6254
X20147Y5781
X18966Y5328
X18966Y4915
X18966Y4502
X18966Y4029
X18080Y4029
X18080Y4502
X18080Y4915
X18080Y5328
X3301Y12923
X2431Y12395
X2797Y11600
X2903Y3025
X2667Y3025
X3139Y3025
T02
X18907Y9383
X18907Y10171
X18907Y10958
T03
X19104Y11844
X20974Y11844
X20974Y8498
X19104Y8498
T04
X20151Y7781
X20151Y3450
T05
X12372Y978
X9222Y978
X6072Y978
T06
X16214Y4631
X16214Y6600
T07
X2726Y1135
X15718Y1135
X15718Y14128
X2726Y14128
M30
