G75*
%MOIN*%
%OFA0B0*%
%FSLAX24Y24*%
%IPPOS*%
%LPD*%
%AMOC8*
5,1,8,0,0,1.08239X$1,22.5*
%
%ADD10R,0.0200X0.0400*%
%ADD11R,0.2090X0.2090*%
%ADD12R,0.0631X0.0631*%
%ADD13C,0.0158*%
%ADD14R,0.0493X0.0505*%
%ADD15R,0.0356X0.0434*%
%ADD16R,0.0371X0.0444*%
%ADD17R,0.0505X0.0493*%
%ADD18R,0.0444X0.0371*%
%ADD19R,0.0434X0.0356*%
%ADD20R,0.0289X0.0525*%
%ADD21R,0.1793X0.1537*%
%ADD22R,0.0289X0.0604*%
%ADD23R,0.0474X0.0167*%
%ADD24R,0.0167X0.0474*%
%ADD25R,0.0474X0.0513*%
%ADD26C,0.0142*%
%ADD27R,0.0710X0.0316*%
%ADD28R,0.1143X0.0710*%
%ADD29C,0.0907*%
%ADD30R,0.0375X0.0198*%
%ADD31R,0.0615X0.0655*%
%ADD32R,0.0669X0.1024*%
%ADD33R,0.0374X0.0217*%
%ADD34R,0.0867X0.0671*%
%ADD35R,0.0671X0.0867*%
%ADD36R,0.0316X0.0690*%
%ADD37R,0.0552X0.0789*%
%ADD38C,0.1084*%
%ADD39C,0.0671*%
%ADD40C,0.0552*%
%ADD41C,0.1576*%
D10*
G36*
X006253Y006836D02*
X006111Y006978D01*
X006393Y007260D01*
X006535Y007118D01*
X006253Y006836D01*
G37*
G36*
X006119Y006970D02*
X005977Y007112D01*
X006259Y007394D01*
X006401Y007252D01*
X006119Y006970D01*
G37*
G36*
X005978Y007112D02*
X005836Y007254D01*
X006118Y007536D01*
X006260Y007394D01*
X005978Y007112D01*
G37*
G36*
X005836Y007253D02*
X005694Y007395D01*
X005976Y007677D01*
X006118Y007535D01*
X005836Y007253D01*
G37*
G36*
X005702Y007387D02*
X005560Y007529D01*
X005842Y007811D01*
X005984Y007669D01*
X005702Y007387D01*
G37*
G36*
X005560Y007529D02*
X005418Y007671D01*
X005700Y007953D01*
X005842Y007811D01*
X005560Y007529D01*
G37*
G36*
X005419Y007670D02*
X005277Y007812D01*
X005559Y008094D01*
X005701Y007952D01*
X005419Y007670D01*
G37*
G36*
X005277Y007812D02*
X005135Y007954D01*
X005417Y008236D01*
X005559Y008094D01*
X005277Y007812D01*
G37*
G36*
X005143Y007946D02*
X005001Y008088D01*
X005283Y008370D01*
X005425Y008228D01*
X005143Y007946D01*
G37*
G36*
X005002Y008087D02*
X004860Y008229D01*
X005142Y008511D01*
X005284Y008369D01*
X005002Y008087D01*
G37*
G36*
X004860Y008229D02*
X004718Y008371D01*
X005000Y008653D01*
X005142Y008511D01*
X004860Y008229D01*
G37*
G36*
X004726Y008363D02*
X004584Y008505D01*
X004866Y008787D01*
X005008Y008645D01*
X004726Y008363D01*
G37*
G36*
X004584Y009041D02*
X004726Y009183D01*
X005008Y008901D01*
X004866Y008759D01*
X004584Y009041D01*
G37*
G36*
X004718Y009176D02*
X004860Y009318D01*
X005142Y009036D01*
X005000Y008894D01*
X004718Y009176D01*
G37*
G36*
X004860Y009317D02*
X005002Y009459D01*
X005284Y009177D01*
X005142Y009035D01*
X004860Y009317D01*
G37*
G36*
X005001Y009458D02*
X005143Y009600D01*
X005425Y009318D01*
X005283Y009176D01*
X005001Y009458D01*
G37*
G36*
X005135Y009593D02*
X005277Y009735D01*
X005559Y009453D01*
X005417Y009311D01*
X005135Y009593D01*
G37*
G36*
X005277Y009734D02*
X005419Y009876D01*
X005701Y009594D01*
X005559Y009452D01*
X005277Y009734D01*
G37*
G36*
X005418Y009876D02*
X005560Y010018D01*
X005842Y009736D01*
X005700Y009594D01*
X005418Y009876D01*
G37*
G36*
X005560Y010017D02*
X005702Y010159D01*
X005984Y009877D01*
X005842Y009735D01*
X005560Y010017D01*
G37*
G36*
X005694Y010151D02*
X005836Y010293D01*
X006118Y010011D01*
X005976Y009869D01*
X005694Y010151D01*
G37*
G36*
X005836Y010293D02*
X005978Y010435D01*
X006260Y010153D01*
X006118Y010011D01*
X005836Y010293D01*
G37*
G36*
X005977Y010434D02*
X006119Y010576D01*
X006401Y010294D01*
X006259Y010152D01*
X005977Y010434D01*
G37*
G36*
X006111Y010569D02*
X006253Y010711D01*
X006535Y010429D01*
X006393Y010287D01*
X006111Y010569D01*
G37*
G36*
X006649Y010287D02*
X006507Y010429D01*
X006789Y010711D01*
X006931Y010569D01*
X006649Y010287D01*
G37*
G36*
X006784Y010152D02*
X006642Y010294D01*
X006924Y010576D01*
X007066Y010434D01*
X006784Y010152D01*
G37*
G36*
X006925Y010011D02*
X006783Y010153D01*
X007065Y010435D01*
X007207Y010293D01*
X006925Y010011D01*
G37*
G36*
X007066Y009869D02*
X006924Y010011D01*
X007206Y010293D01*
X007348Y010151D01*
X007066Y009869D01*
G37*
G36*
X007201Y009735D02*
X007059Y009877D01*
X007341Y010159D01*
X007483Y010017D01*
X007201Y009735D01*
G37*
G36*
X007342Y009594D02*
X007200Y009736D01*
X007482Y010018D01*
X007624Y009876D01*
X007342Y009594D01*
G37*
G36*
X007484Y009452D02*
X007342Y009594D01*
X007624Y009876D01*
X007766Y009734D01*
X007484Y009452D01*
G37*
G36*
X007625Y009311D02*
X007483Y009453D01*
X007765Y009735D01*
X007907Y009593D01*
X007625Y009311D01*
G37*
G36*
X007759Y009176D02*
X007617Y009318D01*
X007899Y009600D01*
X008041Y009458D01*
X007759Y009176D01*
G37*
G36*
X007901Y009035D02*
X007759Y009177D01*
X008041Y009459D01*
X008183Y009317D01*
X007901Y009035D01*
G37*
G36*
X008042Y008894D02*
X007900Y009036D01*
X008182Y009318D01*
X008324Y009176D01*
X008042Y008894D01*
G37*
G36*
X008177Y008759D02*
X008035Y008901D01*
X008317Y009183D01*
X008459Y009041D01*
X008177Y008759D01*
G37*
G36*
X008035Y008645D02*
X008177Y008787D01*
X008459Y008505D01*
X008317Y008363D01*
X008035Y008645D01*
G37*
G36*
X007900Y008511D02*
X008042Y008653D01*
X008324Y008371D01*
X008182Y008229D01*
X007900Y008511D01*
G37*
G36*
X007759Y008369D02*
X007901Y008511D01*
X008183Y008229D01*
X008041Y008087D01*
X007759Y008369D01*
G37*
G36*
X007617Y008228D02*
X007759Y008370D01*
X008041Y008088D01*
X007899Y007946D01*
X007617Y008228D01*
G37*
G36*
X007483Y008094D02*
X007625Y008236D01*
X007907Y007954D01*
X007765Y007812D01*
X007483Y008094D01*
G37*
G36*
X007342Y007952D02*
X007484Y008094D01*
X007766Y007812D01*
X007624Y007670D01*
X007342Y007952D01*
G37*
G36*
X007200Y007811D02*
X007342Y007953D01*
X007624Y007671D01*
X007482Y007529D01*
X007200Y007811D01*
G37*
G36*
X007059Y007669D02*
X007201Y007811D01*
X007483Y007529D01*
X007341Y007387D01*
X007059Y007669D01*
G37*
G36*
X006924Y007535D02*
X007066Y007677D01*
X007348Y007395D01*
X007206Y007253D01*
X006924Y007535D01*
G37*
G36*
X006783Y007394D02*
X006925Y007536D01*
X007207Y007254D01*
X007065Y007112D01*
X006783Y007394D01*
G37*
G36*
X006642Y007252D02*
X006784Y007394D01*
X007066Y007112D01*
X006924Y006970D01*
X006642Y007252D01*
G37*
G36*
X006507Y007118D02*
X006649Y007260D01*
X006931Y006978D01*
X006789Y006836D01*
X006507Y007118D01*
G37*
D11*
G36*
X007998Y008773D02*
X006521Y007296D01*
X005044Y008773D01*
X006521Y010250D01*
X007998Y008773D01*
G37*
D12*
X004387Y009828D03*
X002891Y009828D03*
D13*
X002439Y010466D02*
X003541Y010466D01*
X002439Y010466D02*
X002439Y010938D01*
X003541Y010938D01*
X003541Y010466D01*
X003541Y010623D02*
X002439Y010623D01*
X002439Y010780D02*
X003541Y010780D01*
X003541Y010937D02*
X002439Y010937D01*
X002439Y011333D02*
X003541Y011333D01*
X002439Y011333D02*
X002439Y011805D01*
X003541Y011805D01*
X003541Y011333D01*
X003541Y011490D02*
X002439Y011490D01*
X002439Y011647D02*
X003541Y011647D01*
X003541Y011804D02*
X002439Y011804D01*
D14*
X002472Y012391D03*
X003161Y012391D03*
X004090Y010576D03*
X004779Y010576D03*
X003496Y009191D03*
X002807Y009191D03*
D15*
X002746Y007525D03*
X003258Y007525D03*
X003265Y007049D03*
X002754Y007049D03*
X007943Y011049D03*
X008454Y011049D03*
X008962Y011584D03*
X009474Y011584D03*
X012317Y014462D03*
X012828Y014462D03*
D16*
X015502Y012458D03*
X015502Y011986D03*
X015439Y009639D03*
X015931Y009624D03*
X015439Y009167D03*
X015931Y009151D03*
X011214Y007651D03*
X011214Y007179D03*
X008958Y009124D03*
X008958Y009596D03*
X009616Y009513D03*
X009616Y009986D03*
X004096Y011407D03*
X004096Y011880D03*
X003919Y007372D03*
X003919Y006899D03*
X015710Y002765D03*
X016151Y002765D03*
X016151Y002293D03*
X015710Y002293D03*
D17*
X004572Y006815D03*
X004572Y007504D03*
X006246Y011826D03*
X006765Y011822D03*
X006765Y012511D03*
X006246Y012515D03*
D18*
X006734Y010939D03*
X007206Y010939D03*
X002907Y012923D03*
X002435Y012923D03*
X009340Y007336D03*
X009813Y007336D03*
X013332Y008080D03*
X013805Y008080D03*
X013919Y013958D03*
X013446Y013958D03*
X011655Y013950D03*
X011183Y013950D03*
D19*
X008305Y012061D03*
X008305Y011549D03*
X009053Y011029D03*
X009569Y011029D03*
X009569Y010517D03*
X009053Y010517D03*
D20*
X013630Y004718D03*
X014130Y004718D03*
X014630Y004718D03*
X015130Y004718D03*
X012885Y002009D03*
X012385Y002009D03*
X011885Y002009D03*
X011385Y002009D03*
X010700Y002206D03*
X010200Y002206D03*
X009700Y002206D03*
X009200Y002206D03*
X008515Y003990D03*
X008015Y003990D03*
X007515Y003990D03*
X007015Y003990D03*
X006271Y003990D03*
X005771Y003990D03*
X005271Y003990D03*
X004771Y003990D03*
X004145Y002364D03*
X003645Y002364D03*
X003145Y002364D03*
X002645Y002364D03*
D21*
X003395Y003600D03*
X005521Y002754D03*
X007765Y002754D03*
X009950Y003443D03*
X012135Y003246D03*
X014380Y003482D03*
D22*
X014630Y002561D03*
X015130Y002561D03*
X014130Y002561D03*
X013630Y002561D03*
X012885Y004167D03*
X012385Y004167D03*
X011885Y004167D03*
X011385Y004167D03*
X010700Y004364D03*
X010200Y004364D03*
X009700Y004364D03*
X009200Y004364D03*
X008515Y001832D03*
X008015Y001832D03*
X007515Y001832D03*
X007015Y001832D03*
X006271Y001832D03*
X005771Y001832D03*
X005271Y001832D03*
X004771Y001832D03*
X004145Y004521D03*
X003645Y004521D03*
X003145Y004521D03*
X002645Y004521D03*
D23*
X010317Y009517D03*
X010317Y009714D03*
X010317Y009911D03*
X010317Y010108D03*
X010317Y010305D03*
X010317Y010502D03*
X010317Y010698D03*
X010317Y010895D03*
X010317Y011092D03*
X010317Y011289D03*
X010317Y011486D03*
X010317Y011683D03*
X010317Y011880D03*
X010317Y012076D03*
X010317Y012273D03*
X010317Y012470D03*
X014844Y012470D03*
X014844Y012273D03*
X014844Y012076D03*
X014844Y011880D03*
X014844Y011683D03*
X014844Y011486D03*
X014844Y011289D03*
X014844Y011092D03*
X014844Y010895D03*
X014844Y010698D03*
X014844Y010502D03*
X014844Y010305D03*
X014844Y010108D03*
X014844Y009911D03*
X014844Y009714D03*
X014844Y009517D03*
D24*
X014057Y008730D03*
X013860Y008730D03*
X013663Y008730D03*
X013466Y008730D03*
X013269Y008730D03*
X013072Y008730D03*
X012876Y008730D03*
X012679Y008730D03*
X012482Y008730D03*
X012285Y008730D03*
X012088Y008730D03*
X011891Y008730D03*
X011695Y008730D03*
X011498Y008730D03*
X011301Y008730D03*
X011104Y008730D03*
X011104Y013257D03*
X011301Y013257D03*
X011498Y013257D03*
X011695Y013257D03*
X011891Y013257D03*
X012088Y013257D03*
X012285Y013257D03*
X012482Y013257D03*
X012679Y013257D03*
X012876Y013257D03*
X013072Y013257D03*
X013269Y013257D03*
X013466Y013257D03*
X013663Y013257D03*
X013860Y013257D03*
X014057Y013257D03*
D25*
X015998Y012691D03*
X015998Y012021D03*
D26*
X013901Y014308D02*
X013901Y014640D01*
X014233Y014640D01*
X014233Y014308D01*
X013901Y014308D01*
X013901Y014449D02*
X014233Y014449D01*
X014233Y014590D02*
X013901Y014590D01*
X013211Y014640D02*
X013211Y014308D01*
X013211Y014640D02*
X013543Y014640D01*
X013543Y014308D01*
X013211Y014308D01*
X013211Y014449D02*
X013543Y014449D01*
X013543Y014590D02*
X013211Y014590D01*
X009729Y012290D02*
X009729Y011958D01*
X009397Y011958D01*
X009397Y012290D01*
X009729Y012290D01*
X009729Y012099D02*
X009397Y012099D01*
X009397Y012240D02*
X009729Y012240D01*
X009039Y012290D02*
X009039Y011958D01*
X008707Y011958D01*
X008707Y012290D01*
X009039Y012290D01*
X009039Y012099D02*
X008707Y012099D01*
X008707Y012240D02*
X009039Y012240D01*
D27*
X015978Y011391D03*
X015978Y010919D03*
X015978Y010446D03*
D28*
X008065Y005809D03*
X008065Y004706D03*
X006254Y004698D03*
X006254Y005801D03*
D29*
X006072Y000978D03*
X009222Y000978D03*
X012372Y000978D03*
D30*
X012915Y007183D03*
X012915Y007380D03*
X012915Y007576D03*
X012915Y007773D03*
X011734Y007773D03*
X011734Y007576D03*
X011734Y007380D03*
X011734Y007183D03*
D31*
X012324Y007478D03*
D32*
X005128Y011647D03*
D33*
X005698Y011647D03*
X005698Y012041D03*
X005698Y011254D03*
X004557Y011254D03*
X004557Y011647D03*
X004557Y012041D03*
D34*
X004065Y006037D03*
X003258Y006037D03*
X002431Y006037D03*
X002431Y004856D03*
X003258Y004856D03*
X004065Y004856D03*
X009470Y004738D03*
X010234Y004738D03*
X011817Y004679D03*
X012643Y004679D03*
X012643Y005860D03*
X011817Y005860D03*
X010234Y005919D03*
X009470Y005919D03*
D35*
X014069Y005919D03*
X015250Y005919D03*
X017391Y006057D03*
X017391Y006943D03*
X018572Y006943D03*
X019360Y006943D03*
X019360Y006057D03*
X018572Y006057D03*
X018572Y005171D03*
X019360Y005171D03*
X020541Y005171D03*
X020541Y006057D03*
X020541Y006943D03*
X017391Y005171D03*
X017391Y004285D03*
X018572Y004285D03*
X019360Y004285D03*
X020541Y004285D03*
X003702Y008450D03*
X002521Y008450D03*
D36*
X007348Y012948D03*
X007742Y012948D03*
X008135Y012948D03*
X008529Y012948D03*
X008923Y012948D03*
X009317Y012948D03*
X009710Y012948D03*
D37*
X010222Y014474D03*
X006836Y014474D03*
D38*
X016214Y006600D03*
X016214Y004631D03*
D39*
X020151Y003450D03*
X020151Y007781D03*
D40*
X019065Y009206D02*
X018592Y009206D01*
X018592Y010191D02*
X019065Y010191D01*
X019065Y011175D02*
X018592Y011175D01*
D41*
X002726Y001135D03*
X015718Y001135D03*
X015718Y014128D03*
X002726Y014128D03*
M02*
