G75*
%MOIN*%
%OFA0B0*%
%FSLAX24Y24*%
%IPPOS*%
%LPD*%
%AMOC8*
5,1,8,0,0,1.08239X$1,22.5*
%
%ADD10R,0.0120X0.0320*%
%ADD11R,0.2010X0.2010*%
%ADD12R,0.0551X0.0551*%
%ADD13C,0.0138*%
%ADD14R,0.0413X0.0425*%
%ADD15R,0.0276X0.0354*%
%ADD16R,0.0291X0.0364*%
%ADD17R,0.0425X0.0413*%
%ADD18R,0.0364X0.0291*%
%ADD19R,0.0354X0.0276*%
%ADD20R,0.0209X0.0445*%
%ADD21R,0.1713X0.1457*%
%ADD22R,0.0209X0.0524*%
%ADD23R,0.0394X0.0087*%
%ADD24R,0.0087X0.0394*%
%ADD25R,0.0394X0.0433*%
%ADD26C,0.0118*%
%ADD27R,0.0630X0.0236*%
%ADD28R,0.1063X0.0630*%
%ADD29C,0.0827*%
%ADD30R,0.0295X0.0118*%
%ADD31R,0.0535X0.0575*%
%ADD32R,0.0335X0.0177*%
%ADD33R,0.0630X0.0984*%
%ADD34R,0.0787X0.0591*%
%ADD35R,0.0591X0.0787*%
%ADD36R,0.0236X0.0610*%
%ADD37R,0.0472X0.0709*%
%ADD38C,0.1004*%
%ADD39C,0.0591*%
%ADD40C,0.0472*%
%ADD41C,0.0063*%
%ADD42C,0.0236*%
%ADD43C,0.0102*%
%ADD44C,0.0400*%
%ADD45C,0.0160*%
%ADD46C,0.0120*%
%ADD47C,0.0098*%
%ADD48C,0.0079*%
%ADD49C,0.1496*%
D10*
G36*
X006253Y006893D02*
X006168Y006978D01*
X006393Y007203D01*
X006478Y007118D01*
X006253Y006893D01*
G37*
G36*
X006119Y007027D02*
X006034Y007112D01*
X006259Y007337D01*
X006344Y007252D01*
X006119Y007027D01*
G37*
G36*
X005978Y007169D02*
X005893Y007254D01*
X006118Y007479D01*
X006203Y007394D01*
X005978Y007169D01*
G37*
G36*
X005836Y007310D02*
X005751Y007395D01*
X005976Y007620D01*
X006061Y007535D01*
X005836Y007310D01*
G37*
G36*
X005702Y007444D02*
X005617Y007529D01*
X005842Y007754D01*
X005927Y007669D01*
X005702Y007444D01*
G37*
G36*
X005560Y007586D02*
X005475Y007671D01*
X005700Y007896D01*
X005785Y007811D01*
X005560Y007586D01*
G37*
G36*
X005419Y007727D02*
X005334Y007812D01*
X005559Y008037D01*
X005644Y007952D01*
X005419Y007727D01*
G37*
G36*
X005277Y007869D02*
X005192Y007954D01*
X005417Y008179D01*
X005502Y008094D01*
X005277Y007869D01*
G37*
G36*
X005143Y008003D02*
X005058Y008088D01*
X005283Y008313D01*
X005368Y008228D01*
X005143Y008003D01*
G37*
G36*
X005002Y008144D02*
X004917Y008229D01*
X005142Y008454D01*
X005227Y008369D01*
X005002Y008144D01*
G37*
G36*
X004860Y008286D02*
X004775Y008371D01*
X005000Y008596D01*
X005085Y008511D01*
X004860Y008286D01*
G37*
G36*
X004726Y008420D02*
X004641Y008505D01*
X004866Y008730D01*
X004951Y008645D01*
X004726Y008420D01*
G37*
G36*
X004641Y009041D02*
X004726Y009126D01*
X004951Y008901D01*
X004866Y008816D01*
X004641Y009041D01*
G37*
G36*
X004775Y009176D02*
X004860Y009261D01*
X005085Y009036D01*
X005000Y008951D01*
X004775Y009176D01*
G37*
G36*
X004917Y009317D02*
X005002Y009402D01*
X005227Y009177D01*
X005142Y009092D01*
X004917Y009317D01*
G37*
G36*
X005058Y009458D02*
X005143Y009543D01*
X005368Y009318D01*
X005283Y009233D01*
X005058Y009458D01*
G37*
G36*
X005192Y009593D02*
X005277Y009678D01*
X005502Y009453D01*
X005417Y009368D01*
X005192Y009593D01*
G37*
G36*
X005334Y009734D02*
X005419Y009819D01*
X005644Y009594D01*
X005559Y009509D01*
X005334Y009734D01*
G37*
G36*
X005475Y009876D02*
X005560Y009961D01*
X005785Y009736D01*
X005700Y009651D01*
X005475Y009876D01*
G37*
G36*
X005617Y010017D02*
X005702Y010102D01*
X005927Y009877D01*
X005842Y009792D01*
X005617Y010017D01*
G37*
G36*
X005751Y010151D02*
X005836Y010236D01*
X006061Y010011D01*
X005976Y009926D01*
X005751Y010151D01*
G37*
G36*
X005893Y010293D02*
X005978Y010378D01*
X006203Y010153D01*
X006118Y010068D01*
X005893Y010293D01*
G37*
G36*
X006034Y010434D02*
X006119Y010519D01*
X006344Y010294D01*
X006259Y010209D01*
X006034Y010434D01*
G37*
G36*
X006168Y010569D02*
X006253Y010654D01*
X006478Y010429D01*
X006393Y010344D01*
X006168Y010569D01*
G37*
G36*
X006649Y010344D02*
X006564Y010429D01*
X006789Y010654D01*
X006874Y010569D01*
X006649Y010344D01*
G37*
G36*
X006784Y010209D02*
X006699Y010294D01*
X006924Y010519D01*
X007009Y010434D01*
X006784Y010209D01*
G37*
G36*
X006925Y010068D02*
X006840Y010153D01*
X007065Y010378D01*
X007150Y010293D01*
X006925Y010068D01*
G37*
G36*
X007066Y009926D02*
X006981Y010011D01*
X007206Y010236D01*
X007291Y010151D01*
X007066Y009926D01*
G37*
G36*
X007201Y009792D02*
X007116Y009877D01*
X007341Y010102D01*
X007426Y010017D01*
X007201Y009792D01*
G37*
G36*
X007342Y009651D02*
X007257Y009736D01*
X007482Y009961D01*
X007567Y009876D01*
X007342Y009651D01*
G37*
G36*
X007484Y009509D02*
X007399Y009594D01*
X007624Y009819D01*
X007709Y009734D01*
X007484Y009509D01*
G37*
G36*
X007625Y009368D02*
X007540Y009453D01*
X007765Y009678D01*
X007850Y009593D01*
X007625Y009368D01*
G37*
G36*
X007759Y009233D02*
X007674Y009318D01*
X007899Y009543D01*
X007984Y009458D01*
X007759Y009233D01*
G37*
G36*
X007901Y009092D02*
X007816Y009177D01*
X008041Y009402D01*
X008126Y009317D01*
X007901Y009092D01*
G37*
G36*
X008042Y008951D02*
X007957Y009036D01*
X008182Y009261D01*
X008267Y009176D01*
X008042Y008951D01*
G37*
G36*
X008177Y008816D02*
X008092Y008901D01*
X008317Y009126D01*
X008402Y009041D01*
X008177Y008816D01*
G37*
G36*
X008092Y008645D02*
X008177Y008730D01*
X008402Y008505D01*
X008317Y008420D01*
X008092Y008645D01*
G37*
G36*
X007957Y008511D02*
X008042Y008596D01*
X008267Y008371D01*
X008182Y008286D01*
X007957Y008511D01*
G37*
G36*
X007816Y008369D02*
X007901Y008454D01*
X008126Y008229D01*
X008041Y008144D01*
X007816Y008369D01*
G37*
G36*
X007674Y008228D02*
X007759Y008313D01*
X007984Y008088D01*
X007899Y008003D01*
X007674Y008228D01*
G37*
G36*
X007540Y008094D02*
X007625Y008179D01*
X007850Y007954D01*
X007765Y007869D01*
X007540Y008094D01*
G37*
G36*
X007399Y007952D02*
X007484Y008037D01*
X007709Y007812D01*
X007624Y007727D01*
X007399Y007952D01*
G37*
G36*
X007257Y007811D02*
X007342Y007896D01*
X007567Y007671D01*
X007482Y007586D01*
X007257Y007811D01*
G37*
G36*
X007116Y007669D02*
X007201Y007754D01*
X007426Y007529D01*
X007341Y007444D01*
X007116Y007669D01*
G37*
G36*
X006981Y007535D02*
X007066Y007620D01*
X007291Y007395D01*
X007206Y007310D01*
X006981Y007535D01*
G37*
G36*
X006840Y007394D02*
X006925Y007479D01*
X007150Y007254D01*
X007065Y007169D01*
X006840Y007394D01*
G37*
G36*
X006699Y007252D02*
X006784Y007337D01*
X007009Y007112D01*
X006924Y007027D01*
X006699Y007252D01*
G37*
G36*
X006564Y007118D02*
X006649Y007203D01*
X006874Y006978D01*
X006789Y006893D01*
X006564Y007118D01*
G37*
D11*
G36*
X007942Y008773D02*
X006521Y007352D01*
X005100Y008773D01*
X006521Y010194D01*
X007942Y008773D01*
G37*
D12*
X004387Y009828D03*
X002891Y009828D03*
D13*
X002469Y010496D02*
X003511Y010496D01*
X002469Y010496D02*
X002469Y010908D01*
X003511Y010908D01*
X003511Y010496D01*
X003511Y010633D02*
X002469Y010633D01*
X002469Y010770D02*
X003511Y010770D01*
X003511Y010907D02*
X002469Y010907D01*
X002469Y011363D02*
X003511Y011363D01*
X002469Y011363D02*
X002469Y011775D01*
X003511Y011775D01*
X003511Y011363D01*
X003511Y011500D02*
X002469Y011500D01*
X002469Y011637D02*
X003511Y011637D01*
X003511Y011774D02*
X002469Y011774D01*
D14*
X002472Y012391D03*
X003161Y012391D03*
X004090Y010576D03*
X004779Y010576D03*
X003496Y009191D03*
X002807Y009191D03*
D15*
X002746Y007525D03*
X003258Y007525D03*
X003265Y007049D03*
X002754Y007049D03*
X007943Y011049D03*
X008454Y011049D03*
X008962Y011584D03*
X009474Y011584D03*
X012317Y014462D03*
X012828Y014462D03*
D16*
X015502Y012458D03*
X015502Y011986D03*
X015439Y009639D03*
X015931Y009624D03*
X015439Y009167D03*
X015931Y009151D03*
X011214Y007651D03*
X011214Y007179D03*
X008958Y009124D03*
X008958Y009596D03*
X009616Y009513D03*
X009616Y009986D03*
X004096Y011407D03*
X004096Y011880D03*
X003919Y007372D03*
X003919Y006899D03*
X015710Y002765D03*
X016151Y002765D03*
X016151Y002293D03*
X015710Y002293D03*
D17*
X004572Y006815D03*
X004572Y007504D03*
X006246Y011826D03*
X006765Y011822D03*
X006765Y012511D03*
X006246Y012515D03*
D18*
X006734Y010939D03*
X007206Y010939D03*
X002907Y012923D03*
X002435Y012923D03*
X009340Y007336D03*
X009813Y007336D03*
X013332Y008080D03*
X013805Y008080D03*
X013919Y013958D03*
X013446Y013958D03*
X011655Y013950D03*
X011183Y013950D03*
D19*
X008305Y012061D03*
X008305Y011549D03*
X009053Y011029D03*
X009569Y011029D03*
X009569Y010517D03*
X009053Y010517D03*
D20*
X013630Y004718D03*
X014130Y004718D03*
X014630Y004718D03*
X015130Y004718D03*
X012885Y002009D03*
X012385Y002009D03*
X011885Y002009D03*
X011385Y002009D03*
X010700Y002206D03*
X010200Y002206D03*
X009700Y002206D03*
X009200Y002206D03*
X008515Y003990D03*
X008015Y003990D03*
X007515Y003990D03*
X007015Y003990D03*
X006271Y003990D03*
X005771Y003990D03*
X005271Y003990D03*
X004771Y003990D03*
X004145Y002364D03*
X003645Y002364D03*
X003145Y002364D03*
X002645Y002364D03*
D21*
X003395Y003600D03*
X005521Y002754D03*
X007765Y002754D03*
X009950Y003443D03*
X012135Y003246D03*
X014380Y003482D03*
D22*
X014630Y002561D03*
X015130Y002561D03*
X014130Y002561D03*
X013630Y002561D03*
X012885Y004167D03*
X012385Y004167D03*
X011885Y004167D03*
X011385Y004167D03*
X010700Y004364D03*
X010200Y004364D03*
X009700Y004364D03*
X009200Y004364D03*
X008515Y001832D03*
X008015Y001832D03*
X007515Y001832D03*
X007015Y001832D03*
X006271Y001832D03*
X005771Y001832D03*
X005271Y001832D03*
X004771Y001832D03*
X004145Y004521D03*
X003645Y004521D03*
X003145Y004521D03*
X002645Y004521D03*
D23*
X010317Y009517D03*
X010317Y009714D03*
X010317Y009911D03*
X010317Y010108D03*
X010317Y010305D03*
X010317Y010502D03*
X010317Y010698D03*
X010317Y010895D03*
X010317Y011092D03*
X010317Y011289D03*
X010317Y011486D03*
X010317Y011683D03*
X010317Y011880D03*
X010317Y012076D03*
X010317Y012273D03*
X010317Y012470D03*
X014844Y012470D03*
X014844Y012273D03*
X014844Y012076D03*
X014844Y011880D03*
X014844Y011683D03*
X014844Y011486D03*
X014844Y011289D03*
X014844Y011092D03*
X014844Y010895D03*
X014844Y010698D03*
X014844Y010502D03*
X014844Y010305D03*
X014844Y010108D03*
X014844Y009911D03*
X014844Y009714D03*
X014844Y009517D03*
D24*
X014057Y008730D03*
X013860Y008730D03*
X013663Y008730D03*
X013466Y008730D03*
X013269Y008730D03*
X013072Y008730D03*
X012876Y008730D03*
X012679Y008730D03*
X012482Y008730D03*
X012285Y008730D03*
X012088Y008730D03*
X011891Y008730D03*
X011695Y008730D03*
X011498Y008730D03*
X011301Y008730D03*
X011104Y008730D03*
X011104Y013257D03*
X011301Y013257D03*
X011498Y013257D03*
X011695Y013257D03*
X011891Y013257D03*
X012088Y013257D03*
X012285Y013257D03*
X012482Y013257D03*
X012679Y013257D03*
X012876Y013257D03*
X013072Y013257D03*
X013269Y013257D03*
X013466Y013257D03*
X013663Y013257D03*
X013860Y013257D03*
X014057Y013257D03*
D25*
X015998Y012691D03*
X015998Y012021D03*
D26*
X013929Y014336D02*
X013929Y014612D01*
X014205Y014612D01*
X014205Y014336D01*
X013929Y014336D01*
X013929Y014453D02*
X014205Y014453D01*
X014205Y014570D02*
X013929Y014570D01*
X013239Y014612D02*
X013239Y014336D01*
X013239Y014612D02*
X013515Y014612D01*
X013515Y014336D01*
X013239Y014336D01*
X013239Y014453D02*
X013515Y014453D01*
X013515Y014570D02*
X013239Y014570D01*
X009701Y012262D02*
X009701Y011986D01*
X009425Y011986D01*
X009425Y012262D01*
X009701Y012262D01*
X009701Y012103D02*
X009425Y012103D01*
X009425Y012220D02*
X009701Y012220D01*
X009011Y012262D02*
X009011Y011986D01*
X008735Y011986D01*
X008735Y012262D01*
X009011Y012262D01*
X009011Y012103D02*
X008735Y012103D01*
X008735Y012220D02*
X009011Y012220D01*
X005213Y009388D02*
X004549Y010045D01*
X002807Y009819D02*
X002807Y009191D01*
D27*
X015978Y010446D03*
X015978Y010919D03*
X015978Y011391D03*
D28*
X008065Y005809D03*
X008065Y004706D03*
X006254Y004698D03*
X006254Y005801D03*
D29*
X006072Y000978D03*
X009222Y000978D03*
X012372Y000978D03*
D30*
X012915Y007183D03*
X012915Y007380D03*
X012915Y007576D03*
X012915Y007773D03*
X011734Y007773D03*
X011734Y007576D03*
X011734Y007380D03*
X011734Y007183D03*
D31*
X012324Y007478D03*
D32*
X005698Y011254D03*
X005698Y011647D03*
X005698Y012041D03*
X004557Y012041D03*
X004557Y011647D03*
X004557Y011254D03*
D33*
X005128Y011647D03*
D34*
X004065Y006037D03*
X003258Y006037D03*
X002431Y006037D03*
X002431Y004856D03*
X003258Y004856D03*
X004065Y004856D03*
X009470Y004738D03*
X010234Y004738D03*
X011817Y004679D03*
X012643Y004679D03*
X012643Y005860D03*
X011817Y005860D03*
X010234Y005919D03*
X009470Y005919D03*
D35*
X014069Y005919D03*
X015250Y005919D03*
X017391Y006057D03*
X017391Y006943D03*
X018572Y006943D03*
X019360Y006943D03*
X019360Y006057D03*
X018572Y006057D03*
X018572Y005171D03*
X019360Y005171D03*
X020541Y005171D03*
X020541Y006057D03*
X020541Y006943D03*
X017391Y005171D03*
X017391Y004285D03*
X018572Y004285D03*
X019360Y004285D03*
X020541Y004285D03*
X003702Y008450D03*
X002521Y008450D03*
D36*
X007348Y012948D03*
X007742Y012948D03*
X008135Y012948D03*
X008529Y012948D03*
X008923Y012948D03*
X009317Y012948D03*
X009710Y012948D03*
D37*
X010222Y014474D03*
X006836Y014474D03*
D38*
X016214Y006600D03*
X016214Y004631D03*
D39*
X020151Y003450D03*
X020151Y007781D03*
D40*
X019065Y009206D02*
X018592Y009206D01*
X018592Y010191D02*
X019065Y010191D01*
X019065Y011175D02*
X018592Y011175D01*
D41*
X018828Y010191D02*
X017785Y010191D01*
X015324Y007730D01*
X013986Y007730D01*
X013832Y007576D01*
X012915Y007576D01*
X012915Y007380D02*
X013872Y007380D01*
X014025Y007533D01*
X015324Y007533D01*
X016998Y009206D01*
X018828Y009206D01*
X017982Y007336D02*
X019852Y007336D01*
X019852Y003891D01*
X017982Y003891D01*
X017982Y007336D01*
X017982Y007324D02*
X019852Y007324D01*
X019852Y007263D02*
X017982Y007263D01*
X017982Y007201D02*
X019852Y007201D01*
X019852Y007140D02*
X017982Y007140D01*
X017982Y007078D02*
X019852Y007078D01*
X019852Y007017D02*
X017982Y007017D01*
X017982Y006955D02*
X019852Y006955D01*
X019852Y006894D02*
X017982Y006894D01*
X017982Y006832D02*
X019852Y006832D01*
X019852Y006771D02*
X017982Y006771D01*
X017982Y006709D02*
X019852Y006709D01*
X019852Y006648D02*
X017982Y006648D01*
X017982Y006586D02*
X019852Y006586D01*
X019852Y006525D02*
X017982Y006525D01*
X017982Y006463D02*
X019852Y006463D01*
X019852Y006402D02*
X017982Y006402D01*
X017982Y006340D02*
X019852Y006340D01*
X019852Y006279D02*
X017982Y006279D01*
X017982Y006217D02*
X019852Y006217D01*
X019852Y006156D02*
X017982Y006156D01*
X017982Y006094D02*
X019852Y006094D01*
X019852Y006033D02*
X017982Y006033D01*
X017982Y005971D02*
X019852Y005971D01*
X019852Y005910D02*
X017982Y005910D01*
X017982Y005848D02*
X019852Y005848D01*
X019852Y005787D02*
X017982Y005787D01*
X017982Y005725D02*
X019852Y005725D01*
X019852Y005664D02*
X017982Y005664D01*
X017982Y005602D02*
X019852Y005602D01*
X019852Y005541D02*
X017982Y005541D01*
X017982Y005479D02*
X019852Y005479D01*
X019852Y005418D02*
X017982Y005418D01*
X017982Y005356D02*
X019852Y005356D01*
X019852Y005295D02*
X017982Y005295D01*
X017982Y005233D02*
X019852Y005233D01*
X019852Y005172D02*
X017982Y005172D01*
X017982Y005110D02*
X019852Y005110D01*
X019852Y005049D02*
X017982Y005049D01*
X017982Y004987D02*
X019852Y004987D01*
X019852Y004926D02*
X017982Y004926D01*
X017982Y004864D02*
X019852Y004864D01*
X019852Y004803D02*
X017982Y004803D01*
X017982Y004741D02*
X019852Y004741D01*
X019852Y004680D02*
X017982Y004680D01*
X017982Y004618D02*
X019852Y004618D01*
X019852Y004557D02*
X017982Y004557D01*
X017982Y004495D02*
X019852Y004495D01*
X019852Y004434D02*
X017982Y004434D01*
X017982Y004372D02*
X019852Y004372D01*
X019852Y004311D02*
X017982Y004311D01*
X017982Y004249D02*
X019852Y004249D01*
X019852Y004188D02*
X017982Y004188D01*
X017982Y004126D02*
X019852Y004126D01*
X019852Y004065D02*
X017982Y004065D01*
X017982Y004003D02*
X019852Y004003D01*
X019852Y003942D02*
X017982Y003942D01*
X017785Y003942D02*
X016899Y003942D01*
X016899Y003891D02*
X016899Y005565D01*
X015718Y005565D01*
X015718Y007336D01*
X017785Y007336D01*
X017785Y003891D01*
X016899Y003891D01*
X016899Y004003D02*
X017785Y004003D01*
X017785Y004065D02*
X016899Y004065D01*
X016899Y004126D02*
X017785Y004126D01*
X017785Y004188D02*
X016899Y004188D01*
X016899Y004249D02*
X017785Y004249D01*
X017785Y004311D02*
X016899Y004311D01*
X016899Y004372D02*
X017785Y004372D01*
X017785Y004434D02*
X016899Y004434D01*
X016899Y004495D02*
X017785Y004495D01*
X017785Y004557D02*
X016899Y004557D01*
X016899Y004618D02*
X017785Y004618D01*
X017785Y004680D02*
X016899Y004680D01*
X016899Y004741D02*
X017785Y004741D01*
X017785Y004803D02*
X016899Y004803D01*
X016899Y004864D02*
X017785Y004864D01*
X017785Y004926D02*
X016899Y004926D01*
X016899Y004987D02*
X017785Y004987D01*
X017785Y005049D02*
X016899Y005049D01*
X016899Y005110D02*
X017785Y005110D01*
X017785Y005172D02*
X016899Y005172D01*
X016899Y005233D02*
X017785Y005233D01*
X017785Y005295D02*
X016899Y005295D01*
X016899Y005356D02*
X017785Y005356D01*
X017785Y005418D02*
X016899Y005418D01*
X016899Y005479D02*
X017785Y005479D01*
X017785Y005541D02*
X016899Y005541D01*
X017785Y005602D02*
X015718Y005602D01*
X015718Y005664D02*
X017785Y005664D01*
X017785Y005725D02*
X015718Y005725D01*
X015718Y005787D02*
X017785Y005787D01*
X017785Y005848D02*
X015718Y005848D01*
X015718Y005910D02*
X017785Y005910D01*
X017785Y005971D02*
X015718Y005971D01*
X015718Y006033D02*
X017785Y006033D01*
X017785Y006094D02*
X015718Y006094D01*
X015718Y006156D02*
X017785Y006156D01*
X017785Y006217D02*
X015718Y006217D01*
X015718Y006279D02*
X017785Y006279D01*
X017785Y006340D02*
X015718Y006340D01*
X015718Y006402D02*
X017785Y006402D01*
X017785Y006463D02*
X015718Y006463D01*
X015718Y006525D02*
X017785Y006525D01*
X017785Y006586D02*
X015718Y006586D01*
X015718Y006648D02*
X017785Y006648D01*
X017785Y006709D02*
X015718Y006709D01*
X015718Y006771D02*
X017785Y006771D01*
X017785Y006832D02*
X015718Y006832D01*
X015718Y006894D02*
X017785Y006894D01*
X017785Y006955D02*
X015718Y006955D01*
X015718Y007017D02*
X017785Y007017D01*
X017785Y007078D02*
X015718Y007078D01*
X015718Y007140D02*
X017785Y007140D01*
X017785Y007201D02*
X015718Y007201D01*
X015718Y007263D02*
X017785Y007263D01*
X017785Y007324D02*
X015718Y007324D01*
X013860Y008198D02*
X013860Y008730D01*
X013860Y009521D01*
X013883Y009545D01*
X013663Y009238D02*
X013443Y009458D01*
X013128Y009458D01*
X012876Y009206D01*
X012876Y008730D01*
X012876Y008450D01*
X012750Y008324D01*
X012285Y008324D01*
X011734Y007773D01*
X011734Y007576D02*
X011541Y007576D01*
X011214Y007651D01*
X011364Y007946D02*
X010860Y007946D01*
X010734Y007820D01*
X010734Y007210D01*
X010683Y007159D01*
X010986Y006939D02*
X009049Y006939D01*
X007829Y008158D01*
X007971Y008299D01*
X007937Y008299D01*
X007836Y008198D01*
X007836Y008135D01*
X007695Y008024D02*
X008906Y006813D01*
X010923Y006813D01*
X011049Y006687D01*
X013254Y006687D01*
X013506Y006435D01*
X013506Y004752D01*
X013630Y004718D01*
X013956Y004741D02*
X015250Y004741D01*
X015250Y004680D02*
X013955Y004680D01*
X013954Y004618D02*
X015250Y004618D01*
X015250Y004557D02*
X013953Y004557D01*
X013952Y004495D02*
X015250Y004495D01*
X015250Y004434D02*
X013951Y004434D01*
X013950Y004389D02*
X013966Y005387D01*
X015220Y005387D01*
X015220Y005036D01*
X015218Y004964D01*
X015220Y004961D01*
X015220Y004957D01*
X015250Y004928D01*
X015250Y004389D01*
X013950Y004389D01*
X013957Y004803D02*
X015250Y004803D01*
X015250Y004864D02*
X013958Y004864D01*
X013959Y004926D02*
X015250Y004926D01*
X015219Y004987D02*
X013960Y004987D01*
X013961Y005049D02*
X015220Y005049D01*
X015220Y005110D02*
X013962Y005110D01*
X013963Y005172D02*
X015220Y005172D01*
X015220Y005233D02*
X013964Y005233D01*
X013965Y005295D02*
X015220Y005295D01*
X015220Y005356D02*
X013966Y005356D01*
X014045Y005112D02*
X013758Y005112D01*
X013632Y005238D01*
X013632Y006498D01*
X013317Y006813D01*
X011112Y006813D01*
X010986Y006939D01*
X010860Y006687D02*
X008749Y006687D01*
X007554Y007882D01*
X007412Y007741D02*
X007963Y007191D01*
X008025Y007191D01*
X008655Y006561D01*
X010797Y006561D01*
X010923Y006435D01*
X013128Y006435D01*
X013254Y006309D01*
X013254Y002326D01*
X012885Y002009D01*
X013121Y001997D02*
X013121Y001733D01*
X013080Y001692D01*
X013080Y001588D01*
X012655Y001588D01*
X012655Y001727D01*
X012650Y001733D01*
X012650Y002286D01*
X012655Y002292D01*
X012655Y002336D01*
X011218Y002336D01*
X011218Y000486D01*
X015124Y000486D01*
X014973Y000637D01*
X014839Y000960D01*
X014839Y001310D01*
X014973Y001634D01*
X015220Y001881D01*
X015313Y001919D01*
X015313Y002932D01*
X015232Y003013D01*
X015232Y004166D01*
X015173Y004226D01*
X013417Y004226D01*
X013417Y002387D01*
X013421Y002382D01*
X013417Y002320D01*
X013417Y002259D01*
X013412Y002254D01*
X013411Y002247D01*
X013365Y002207D01*
X013321Y002163D01*
X013314Y002163D01*
X013121Y001997D01*
X013121Y001974D02*
X015313Y001974D01*
X015313Y002036D02*
X013166Y002036D01*
X013237Y002097D02*
X015313Y002097D01*
X015313Y002159D02*
X013309Y002159D01*
X013380Y002220D02*
X015313Y002220D01*
X015313Y002282D02*
X013417Y002282D01*
X013418Y002343D02*
X015313Y002343D01*
X015313Y002405D02*
X013417Y002405D01*
X013417Y002466D02*
X015313Y002466D01*
X015313Y002528D02*
X013417Y002528D01*
X013417Y002589D02*
X015313Y002589D01*
X015313Y002651D02*
X013417Y002651D01*
X013417Y002712D02*
X015313Y002712D01*
X015313Y002774D02*
X013417Y002774D01*
X013417Y002835D02*
X015313Y002835D01*
X015313Y002897D02*
X013417Y002897D01*
X013417Y002958D02*
X015287Y002958D01*
X015232Y003020D02*
X013417Y003020D01*
X013417Y003081D02*
X015232Y003081D01*
X015232Y003143D02*
X013417Y003143D01*
X013417Y003204D02*
X015232Y003204D01*
X015232Y003266D02*
X013417Y003266D01*
X013417Y003327D02*
X015232Y003327D01*
X015232Y003389D02*
X013417Y003389D01*
X013417Y003450D02*
X015232Y003450D01*
X015232Y003512D02*
X013417Y003512D01*
X013417Y003573D02*
X015232Y003573D01*
X015232Y003634D02*
X013417Y003634D01*
X013417Y003696D02*
X015232Y003696D01*
X015232Y003757D02*
X013417Y003757D01*
X013417Y003819D02*
X015232Y003819D01*
X015232Y003880D02*
X013417Y003880D01*
X013417Y003942D02*
X015232Y003942D01*
X015232Y004003D02*
X013417Y004003D01*
X013417Y004065D02*
X015232Y004065D01*
X015232Y004126D02*
X013417Y004126D01*
X013417Y004188D02*
X015211Y004188D01*
X015395Y004234D02*
X015049Y004580D01*
X015395Y004234D02*
X015395Y003080D01*
X015710Y002765D01*
X016151Y002765D02*
X016151Y004423D01*
X015954Y004443D01*
X014104Y005053D02*
X014045Y005112D01*
X013131Y005328D02*
X011171Y005328D01*
X011171Y006273D01*
X013115Y006273D01*
X013131Y006258D01*
X013131Y005328D01*
X013131Y005356D02*
X011171Y005356D01*
X011171Y005418D02*
X013131Y005418D01*
X013131Y005479D02*
X011171Y005479D01*
X011171Y005541D02*
X013131Y005541D01*
X013131Y005602D02*
X011171Y005602D01*
X011171Y005664D02*
X013131Y005664D01*
X013131Y005725D02*
X011171Y005725D01*
X011171Y005787D02*
X013131Y005787D01*
X013131Y005848D02*
X011171Y005848D01*
X011171Y005910D02*
X013131Y005910D01*
X013131Y005971D02*
X011171Y005971D01*
X011171Y006033D02*
X013131Y006033D01*
X013131Y006094D02*
X011171Y006094D01*
X011171Y006156D02*
X013131Y006156D01*
X013131Y006217D02*
X011171Y006217D01*
X011033Y006120D02*
X010702Y006435D01*
X008592Y006435D01*
X007962Y007065D01*
X007806Y007065D01*
X007271Y007599D01*
X007136Y007465D02*
X007136Y007449D01*
X007395Y007191D01*
X007395Y006750D01*
X007080Y006435D01*
X007080Y004549D01*
X007277Y004352D01*
X007277Y003498D01*
X007785Y002868D01*
X007015Y001832D01*
X006905Y001851D02*
X010383Y001851D01*
X010383Y001790D02*
X006905Y001790D01*
X006905Y001728D02*
X010383Y001728D01*
X010383Y001667D02*
X006905Y001667D01*
X006905Y001605D02*
X010383Y001605D01*
X010383Y001544D02*
X006905Y001544D01*
X006905Y001482D02*
X010383Y001482D01*
X010383Y001421D02*
X006905Y001421D01*
X006905Y001359D02*
X010383Y001359D01*
X010383Y001298D02*
X006905Y001298D01*
X006905Y001236D02*
X010383Y001236D01*
X010383Y001175D02*
X006905Y001175D01*
X006905Y001113D02*
X010383Y001113D01*
X010383Y001052D02*
X006905Y001052D01*
X006905Y000990D02*
X010383Y000990D01*
X010383Y000929D02*
X006905Y000929D01*
X006905Y000867D02*
X010383Y000867D01*
X010383Y000806D02*
X006905Y000806D01*
X006905Y000744D02*
X010383Y000744D01*
X010383Y000683D02*
X006905Y000683D01*
X006905Y000621D02*
X010383Y000621D01*
X010383Y000560D02*
X006905Y000560D01*
X006905Y000526D02*
X006905Y001903D01*
X006919Y001903D01*
X006919Y003360D01*
X008651Y003360D01*
X008651Y002454D01*
X010383Y002454D01*
X010383Y000480D01*
X006905Y000480D01*
X006905Y000526D01*
X006905Y000498D02*
X010383Y000498D01*
X011218Y000498D02*
X015111Y000498D01*
X015050Y000560D02*
X011218Y000560D01*
X011218Y000621D02*
X014988Y000621D01*
X014954Y000683D02*
X011218Y000683D01*
X011218Y000744D02*
X014928Y000744D01*
X014903Y000806D02*
X011218Y000806D01*
X011218Y000867D02*
X014877Y000867D01*
X014852Y000929D02*
X011218Y000929D01*
X011218Y000990D02*
X014839Y000990D01*
X014839Y001052D02*
X011218Y001052D01*
X011218Y001113D02*
X014839Y001113D01*
X014839Y001175D02*
X011218Y001175D01*
X011218Y001236D02*
X014839Y001236D01*
X014839Y001298D02*
X011218Y001298D01*
X011218Y001359D02*
X014859Y001359D01*
X014884Y001421D02*
X011218Y001421D01*
X011218Y001482D02*
X014910Y001482D01*
X014935Y001544D02*
X011218Y001544D01*
X011218Y001605D02*
X012655Y001605D01*
X012655Y001667D02*
X011218Y001667D01*
X011218Y001728D02*
X012654Y001728D01*
X012650Y001790D02*
X011218Y001790D01*
X011218Y001851D02*
X012650Y001851D01*
X012650Y001913D02*
X011218Y001913D01*
X011218Y001974D02*
X012650Y001974D01*
X012650Y002036D02*
X011218Y002036D01*
X011218Y002097D02*
X012650Y002097D01*
X012650Y002159D02*
X011218Y002159D01*
X011218Y002220D02*
X012650Y002220D01*
X012650Y002282D02*
X011218Y002282D01*
X011033Y002403D02*
X011033Y006120D01*
X010706Y006094D02*
X008935Y006094D01*
X008935Y006033D02*
X010706Y006033D01*
X010706Y005971D02*
X008935Y005971D01*
X008935Y005910D02*
X010706Y005910D01*
X010706Y005848D02*
X008935Y005848D01*
X008935Y005787D02*
X010706Y005787D01*
X010706Y005725D02*
X008935Y005725D01*
X008935Y005664D02*
X010706Y005664D01*
X010706Y005602D02*
X008935Y005602D01*
X008935Y005541D02*
X010706Y005541D01*
X010706Y005479D02*
X008935Y005479D01*
X008935Y005418D02*
X010706Y005418D01*
X010706Y005356D02*
X008935Y005356D01*
X008935Y005328D02*
X008935Y006273D01*
X010694Y006273D01*
X010706Y006261D01*
X010706Y005328D01*
X008935Y005328D01*
X008990Y005100D02*
X010820Y005100D01*
X010820Y002671D01*
X008990Y002671D01*
X008990Y005100D01*
X008990Y005049D02*
X010820Y005049D01*
X010820Y004987D02*
X008990Y004987D01*
X008990Y004926D02*
X010820Y004926D01*
X010820Y004864D02*
X008990Y004864D01*
X008990Y004803D02*
X010820Y004803D01*
X010820Y004741D02*
X008990Y004741D01*
X008990Y004680D02*
X010820Y004680D01*
X010820Y004618D02*
X008990Y004618D01*
X008990Y004557D02*
X010820Y004557D01*
X010820Y004495D02*
X008990Y004495D01*
X008990Y004434D02*
X010820Y004434D01*
X010820Y004372D02*
X008990Y004372D01*
X008990Y004311D02*
X010820Y004311D01*
X010820Y004249D02*
X008990Y004249D01*
X008990Y004188D02*
X010820Y004188D01*
X010820Y004126D02*
X008990Y004126D01*
X008990Y004065D02*
X010820Y004065D01*
X010820Y004003D02*
X008990Y004003D01*
X008990Y003942D02*
X010820Y003942D01*
X010820Y003880D02*
X008990Y003880D01*
X008990Y003819D02*
X010820Y003819D01*
X010820Y003757D02*
X008990Y003757D01*
X008990Y003696D02*
X010820Y003696D01*
X010820Y003634D02*
X008990Y003634D01*
X008990Y003573D02*
X010820Y003573D01*
X010820Y003512D02*
X008990Y003512D01*
X008990Y003450D02*
X010820Y003450D01*
X010820Y003389D02*
X008990Y003389D01*
X008990Y003327D02*
X010820Y003327D01*
X010820Y003266D02*
X008990Y003266D01*
X008990Y003204D02*
X010820Y003204D01*
X010820Y003143D02*
X008990Y003143D01*
X008990Y003081D02*
X010820Y003081D01*
X010820Y003020D02*
X008990Y003020D01*
X008990Y002958D02*
X010820Y002958D01*
X010820Y002897D02*
X008990Y002897D01*
X008990Y002835D02*
X010820Y002835D01*
X010820Y002774D02*
X008990Y002774D01*
X008990Y002712D02*
X010820Y002712D01*
X011033Y002403D02*
X010671Y002025D01*
X010700Y002206D01*
X010383Y002220D02*
X006919Y002220D01*
X006919Y002159D02*
X010383Y002159D01*
X010383Y002097D02*
X006919Y002097D01*
X006919Y002036D02*
X010383Y002036D01*
X010383Y001974D02*
X006919Y001974D01*
X006919Y001913D02*
X010383Y001913D01*
X010383Y002282D02*
X006919Y002282D01*
X006919Y002343D02*
X010383Y002343D01*
X010383Y002405D02*
X006919Y002405D01*
X006919Y002466D02*
X008651Y002466D01*
X008651Y002528D02*
X006919Y002528D01*
X006919Y002589D02*
X008651Y002589D01*
X008651Y002651D02*
X006919Y002651D01*
X006919Y002712D02*
X008651Y002712D01*
X008651Y002774D02*
X006919Y002774D01*
X006919Y002835D02*
X008651Y002835D01*
X008651Y002897D02*
X006919Y002897D01*
X006919Y002958D02*
X008651Y002958D01*
X008651Y003020D02*
X006919Y003020D01*
X006919Y003081D02*
X008651Y003081D01*
X008651Y003143D02*
X006919Y003143D01*
X006919Y003204D02*
X008651Y003204D01*
X008651Y003266D02*
X006919Y003266D01*
X006919Y003327D02*
X008651Y003327D01*
X008750Y003793D02*
X007450Y003793D01*
X007450Y005096D01*
X008750Y005096D01*
X008750Y003793D01*
X008750Y003819D02*
X007450Y003819D01*
X007450Y003880D02*
X008750Y003880D01*
X008750Y003942D02*
X007450Y003942D01*
X007450Y004003D02*
X008750Y004003D01*
X008750Y004065D02*
X007450Y004065D01*
X007450Y004126D02*
X008750Y004126D01*
X008750Y004188D02*
X007450Y004188D01*
X007450Y004249D02*
X008750Y004249D01*
X008750Y004311D02*
X007450Y004311D01*
X007450Y004372D02*
X008750Y004372D01*
X008750Y004434D02*
X007450Y004434D01*
X007450Y004495D02*
X008750Y004495D01*
X008750Y004557D02*
X007450Y004557D01*
X007450Y004618D02*
X008750Y004618D01*
X008750Y004680D02*
X007450Y004680D01*
X007450Y004741D02*
X008750Y004741D01*
X008750Y004803D02*
X007450Y004803D01*
X007450Y004864D02*
X008750Y004864D01*
X008750Y004926D02*
X007450Y004926D01*
X007450Y004987D02*
X008750Y004987D01*
X008750Y005049D02*
X007450Y005049D01*
X007206Y005238D02*
X007206Y006372D01*
X007395Y006561D01*
X007836Y006561D01*
X007899Y006624D01*
X007899Y006765D01*
X007907Y006773D01*
X008147Y006561D02*
X008147Y006557D01*
X008025Y006435D01*
X007458Y006435D01*
X007332Y006309D01*
X007332Y005364D01*
X007962Y005364D01*
X008025Y005427D01*
X008025Y005647D01*
X008147Y005643D01*
X008580Y005664D02*
X007576Y005664D01*
X007576Y005725D02*
X008580Y005725D01*
X008580Y005787D02*
X007576Y005787D01*
X007576Y005848D02*
X008580Y005848D01*
X008580Y005910D02*
X007576Y005910D01*
X007576Y005971D02*
X008580Y005971D01*
X008580Y006033D02*
X007576Y006033D01*
X007576Y006094D02*
X008580Y006094D01*
X008580Y006156D02*
X007576Y006156D01*
X007576Y006217D02*
X008580Y006217D01*
X008580Y006272D02*
X008580Y005549D01*
X007576Y005549D01*
X007576Y006273D01*
X008523Y006273D01*
X008525Y006272D01*
X008580Y006272D01*
X008935Y006217D02*
X010706Y006217D01*
X010706Y006156D02*
X008935Y006156D01*
X008580Y005602D02*
X007576Y005602D01*
X007206Y005238D02*
X007962Y005238D01*
X008025Y005175D01*
X008002Y004820D01*
X008065Y004706D01*
X007015Y003990D02*
X006954Y004051D01*
X006954Y006498D01*
X007269Y006813D01*
X007269Y007065D01*
X007010Y007324D01*
X006995Y007324D01*
X006900Y007182D02*
X006854Y007182D01*
X006900Y007182D02*
X007080Y007002D01*
X007080Y006986D01*
X006773Y006679D01*
X006719Y006952D02*
X006328Y006561D01*
X006151Y006876D02*
X006323Y007048D01*
X006189Y007181D02*
X006189Y007182D01*
X006189Y007181D02*
X005443Y006435D01*
X005443Y005364D01*
X005569Y005238D01*
X006104Y005238D01*
X006151Y005191D01*
X006151Y004738D01*
X006254Y004698D01*
X006006Y004791D01*
X006006Y004794D01*
X006006Y004791D02*
X005915Y004836D01*
X005480Y004864D02*
X006746Y004864D01*
X006746Y004803D02*
X005480Y004803D01*
X005480Y004781D02*
X005480Y005092D01*
X006746Y005092D01*
X006746Y003734D01*
X005033Y003734D01*
X005033Y004334D01*
X005384Y004685D01*
X005480Y004781D01*
X005440Y004741D02*
X006746Y004741D01*
X006746Y004680D02*
X005379Y004680D01*
X005317Y004618D02*
X006746Y004618D01*
X006746Y004557D02*
X005256Y004557D01*
X005194Y004495D02*
X006746Y004495D01*
X006746Y004434D02*
X005133Y004434D01*
X005071Y004372D02*
X006746Y004372D01*
X006746Y004311D02*
X005033Y004311D01*
X005033Y004249D02*
X006746Y004249D01*
X006746Y004188D02*
X005033Y004188D01*
X005033Y004126D02*
X006746Y004126D01*
X006746Y004065D02*
X005033Y004065D01*
X005033Y004003D02*
X006746Y004003D01*
X006746Y003942D02*
X005033Y003942D01*
X005033Y003880D02*
X006746Y003880D01*
X006746Y003819D02*
X005033Y003819D01*
X005033Y003757D02*
X006746Y003757D01*
X006549Y003478D02*
X006565Y002651D01*
X004550Y002651D01*
X004550Y002712D02*
X006563Y002712D01*
X006565Y002651D02*
X006742Y002494D01*
X006742Y000525D01*
X003560Y000480D01*
X003314Y000480D01*
X003472Y000637D01*
X003606Y000960D01*
X003606Y001310D01*
X003472Y001634D01*
X003224Y001881D01*
X002901Y002015D01*
X002628Y002015D01*
X002628Y002600D01*
X003909Y002600D01*
X003909Y002087D01*
X003966Y002030D01*
X003966Y002021D01*
X003975Y002021D01*
X003986Y002010D01*
X004304Y002010D01*
X004316Y002021D01*
X004545Y002021D01*
X004545Y002460D01*
X004550Y002466D01*
X006742Y002466D01*
X006742Y002405D02*
X004545Y002405D01*
X004550Y002466D02*
X004550Y002513D01*
X004562Y002559D01*
X004550Y002578D01*
X004550Y003478D01*
X006549Y003478D01*
X006549Y003450D02*
X004550Y003450D01*
X004550Y003389D02*
X006551Y003389D01*
X006552Y003327D02*
X004550Y003327D01*
X004513Y003297D02*
X004726Y003261D01*
X004738Y003261D01*
X004550Y003266D02*
X006553Y003266D01*
X006554Y003204D02*
X004550Y003204D01*
X004550Y003143D02*
X006555Y003143D01*
X006556Y003081D02*
X004550Y003081D01*
X004550Y003020D02*
X006558Y003020D01*
X006559Y002958D02*
X004550Y002958D01*
X004550Y002897D02*
X006560Y002897D01*
X006561Y002835D02*
X004550Y002835D01*
X004550Y002774D02*
X006562Y002774D01*
X006634Y002589D02*
X004550Y002589D01*
X004554Y002528D02*
X006704Y002528D01*
X006742Y002343D02*
X004545Y002343D01*
X004545Y002282D02*
X006742Y002282D01*
X006742Y002220D02*
X004545Y002220D01*
X004545Y002159D02*
X006742Y002159D01*
X006742Y002097D02*
X004545Y002097D01*
X004545Y002036D02*
X006742Y002036D01*
X006742Y001974D02*
X002999Y001974D01*
X003148Y001913D02*
X006742Y001913D01*
X006742Y001851D02*
X003254Y001851D01*
X003316Y001790D02*
X006742Y001790D01*
X006742Y001728D02*
X003377Y001728D01*
X003439Y001667D02*
X006742Y001667D01*
X006742Y001605D02*
X003483Y001605D01*
X003509Y001544D02*
X006742Y001544D01*
X006742Y001482D02*
X003534Y001482D01*
X003560Y001421D02*
X006742Y001421D01*
X006742Y001359D02*
X003585Y001359D01*
X003606Y001298D02*
X006742Y001298D01*
X006742Y001236D02*
X003606Y001236D01*
X003606Y001175D02*
X006742Y001175D01*
X006742Y001113D02*
X003606Y001113D01*
X003606Y001052D02*
X006742Y001052D01*
X006742Y000990D02*
X003606Y000990D01*
X003592Y000929D02*
X006742Y000929D01*
X006742Y000867D02*
X003567Y000867D01*
X003541Y000806D02*
X006742Y000806D01*
X006742Y000744D02*
X003516Y000744D01*
X003491Y000683D02*
X006742Y000683D01*
X006742Y000621D02*
X003456Y000621D01*
X003394Y000560D02*
X006742Y000560D01*
X004874Y000498D02*
X003333Y000498D01*
X003961Y002036D02*
X002628Y002036D01*
X002628Y002097D02*
X003909Y002097D01*
X003909Y002159D02*
X002628Y002159D01*
X002628Y002220D02*
X003909Y002220D01*
X003909Y002282D02*
X002628Y002282D01*
X002628Y002343D02*
X003909Y002343D01*
X003909Y002405D02*
X002628Y002405D01*
X002628Y002466D02*
X003909Y002466D01*
X003909Y002528D02*
X002628Y002528D01*
X002628Y002589D02*
X003909Y002589D01*
X004145Y002364D02*
X004348Y002376D01*
X004387Y002533D01*
X004387Y004317D01*
X005065Y004994D01*
X005065Y006624D01*
X005569Y007128D01*
X005569Y007396D01*
X005772Y007599D01*
X005906Y007465D02*
X005695Y007253D01*
X005695Y007065D01*
X005191Y006561D01*
X005191Y004931D01*
X004513Y004254D01*
X004513Y003297D01*
X004224Y003327D02*
X002070Y003327D01*
X002070Y003266D02*
X004224Y003266D01*
X004224Y003204D02*
X002070Y003204D01*
X002070Y003143D02*
X004224Y003143D01*
X004224Y003081D02*
X002070Y003081D01*
X002070Y003020D02*
X004224Y003020D01*
X004224Y002958D02*
X002070Y002958D01*
X002070Y002897D02*
X004224Y002897D01*
X004224Y002835D02*
X002070Y002835D01*
X002070Y002789D02*
X004224Y002789D01*
X004224Y004384D01*
X004250Y004409D01*
X004250Y005210D01*
X002070Y005210D01*
X002070Y002789D01*
X002070Y003389D02*
X004224Y003389D01*
X004224Y003450D02*
X002070Y003450D01*
X002070Y003512D02*
X004224Y003512D01*
X004224Y003573D02*
X002070Y003573D01*
X002070Y003634D02*
X004224Y003634D01*
X004224Y003696D02*
X002070Y003696D01*
X002070Y003757D02*
X004224Y003757D01*
X004224Y003819D02*
X002070Y003819D01*
X002070Y003880D02*
X004224Y003880D01*
X004224Y003942D02*
X002070Y003942D01*
X002070Y004003D02*
X004224Y004003D01*
X004224Y004065D02*
X002070Y004065D01*
X002070Y004126D02*
X004224Y004126D01*
X004224Y004188D02*
X002070Y004188D01*
X002070Y004249D02*
X004224Y004249D01*
X004224Y004311D02*
X002070Y004311D01*
X002070Y004372D02*
X004224Y004372D01*
X004250Y004434D02*
X002070Y004434D01*
X002070Y004495D02*
X004250Y004495D01*
X004250Y004557D02*
X002070Y004557D01*
X002070Y004618D02*
X004250Y004618D01*
X004250Y004680D02*
X002070Y004680D01*
X002070Y004741D02*
X004250Y004741D01*
X004250Y004803D02*
X002070Y004803D01*
X002070Y004864D02*
X004250Y004864D01*
X004309Y004856D02*
X004065Y004856D01*
X004250Y004926D02*
X002070Y004926D01*
X002070Y004987D02*
X004250Y004987D01*
X004250Y005049D02*
X002070Y005049D01*
X002070Y005110D02*
X004250Y005110D01*
X004250Y005172D02*
X002070Y005172D01*
X002070Y005446D02*
X002070Y006324D01*
X004439Y006324D01*
X004439Y005446D01*
X002070Y005446D01*
X002070Y005479D02*
X004439Y005479D01*
X004439Y005541D02*
X002070Y005541D01*
X002070Y005602D02*
X004439Y005602D01*
X004439Y005664D02*
X002070Y005664D01*
X002070Y005725D02*
X004439Y005725D01*
X004439Y005787D02*
X002070Y005787D01*
X002070Y005848D02*
X004439Y005848D01*
X004439Y005910D02*
X002070Y005910D01*
X002070Y005971D02*
X004439Y005971D01*
X004439Y006033D02*
X002070Y006033D01*
X002070Y006094D02*
X004439Y006094D01*
X004439Y006156D02*
X002070Y006156D01*
X002070Y006217D02*
X004439Y006217D01*
X004439Y006279D02*
X002070Y006279D01*
X002352Y007076D02*
X002537Y007076D01*
X002754Y007049D01*
X003265Y007049D02*
X003265Y007517D01*
X003258Y007525D01*
X003364Y007820D01*
X003931Y007820D01*
X004309Y008198D01*
X004435Y008198D01*
X004796Y008560D01*
X004796Y008575D01*
X004930Y008441D02*
X005250Y008777D01*
X006521Y008773D01*
X006509Y010036D01*
X006854Y010364D01*
X007206Y010733D01*
X007206Y010939D01*
X006734Y010939D02*
X006707Y010912D01*
X006719Y010499D01*
X006323Y010499D02*
X006305Y010556D01*
X006305Y010939D01*
X006009Y010820D02*
X006009Y010525D01*
X006166Y010368D01*
X006189Y010364D01*
X006048Y010223D02*
X005737Y010525D01*
X005793Y010584D01*
X005478Y010643D02*
X005478Y010501D01*
X005906Y010081D01*
X005772Y009947D02*
X005304Y010407D01*
X005242Y010407D01*
X005257Y010171D02*
X005301Y010112D01*
X005257Y010171D02*
X005630Y009806D01*
X005489Y009664D02*
X006368Y008777D01*
X006521Y008773D01*
X007604Y008813D02*
X007604Y008897D01*
X007971Y009247D01*
X008112Y009106D02*
X008113Y009106D01*
X008624Y009616D01*
X008958Y009596D01*
X008958Y009675D01*
X009198Y009915D01*
X009222Y010151D02*
X008970Y010151D01*
X008403Y009584D01*
X008025Y009584D01*
X007829Y009388D01*
X007695Y009523D02*
X007883Y009710D01*
X008340Y009710D01*
X008557Y009927D01*
X008557Y010061D01*
X008919Y010423D01*
X009053Y010423D01*
X009053Y010517D01*
X009222Y010151D02*
X009569Y010498D01*
X009569Y010517D01*
X009616Y009986D02*
X009639Y009962D01*
X009789Y009962D01*
X010037Y009714D01*
X010317Y009714D01*
X010671Y009714D01*
X010923Y009462D01*
X011104Y009289D02*
X011809Y009994D01*
X011809Y011234D01*
X011159Y011883D01*
X011100Y011647D02*
X010856Y011647D01*
X011100Y011647D02*
X011632Y011116D01*
X011632Y010171D01*
X011372Y009911D01*
X010317Y009911D01*
X010317Y009517D02*
X009620Y009517D01*
X009616Y009513D01*
X009305Y009104D02*
X008958Y009124D01*
X009305Y009104D02*
X009324Y009084D01*
X009537Y008702D02*
X008374Y008702D01*
X008247Y008575D01*
X008247Y008971D02*
X008386Y008971D01*
X008419Y008939D01*
X008691Y008458D02*
X008868Y008281D01*
X010025Y008281D01*
X010132Y008387D01*
X011175Y008387D01*
X011301Y008513D01*
X011301Y008730D01*
X011490Y008722D02*
X011498Y008730D01*
X011490Y008722D02*
X011490Y008450D01*
X011238Y008198D01*
X010419Y008198D01*
X010273Y008053D01*
X010273Y007569D01*
X010277Y007509D01*
X010277Y007159D02*
X009990Y007159D01*
X009813Y007336D01*
X009340Y007336D02*
X009340Y007513D01*
X009222Y007631D01*
X010509Y007860D02*
X010722Y008072D01*
X011301Y008072D01*
X011695Y008466D01*
X011695Y008730D01*
X011891Y008730D02*
X011891Y008474D01*
X011364Y007946D01*
X011734Y007576D02*
X012415Y007576D01*
X012324Y007478D01*
X012809Y007773D01*
X012915Y007773D01*
X012687Y008072D02*
X012435Y008072D01*
X012687Y008072D02*
X013072Y008458D01*
X013143Y008387D01*
X013443Y008387D01*
X013466Y008411D01*
X013466Y008730D01*
X013269Y008730D02*
X013269Y009124D01*
X013226Y009167D01*
X013663Y009238D02*
X013663Y008730D01*
X014057Y008730D02*
X014057Y009053D01*
X014112Y009108D01*
X014529Y009517D02*
X014407Y009639D01*
X014529Y009517D02*
X014844Y009517D01*
X015439Y009517D01*
X015439Y009639D01*
X015931Y009639D01*
X015931Y009624D01*
X015931Y009167D02*
X015439Y009167D01*
X015439Y009159D01*
X014860Y009159D01*
X015931Y009167D02*
X015931Y009151D01*
X015647Y010305D02*
X014844Y010305D01*
X014844Y010502D02*
X015179Y010502D01*
X015269Y010592D01*
X015269Y011222D01*
X015439Y011391D01*
X015978Y011391D01*
X015978Y010919D02*
X015580Y010919D01*
X015569Y010931D01*
X015647Y010305D02*
X015978Y010446D01*
X014844Y010698D02*
X014431Y010698D01*
X014324Y010592D01*
X014029Y010895D02*
X013994Y010860D01*
X013600Y010860D01*
X013876Y011116D02*
X013899Y011092D01*
X014844Y011092D01*
X014844Y010895D02*
X014029Y010895D01*
X014285Y011588D02*
X014380Y011683D01*
X014844Y011683D01*
X014844Y011880D02*
X015415Y011880D01*
X015502Y011986D01*
X015943Y011966D01*
X015998Y012021D01*
X015502Y012458D02*
X015502Y012919D01*
X015466Y012954D01*
X014880Y012769D02*
X014880Y012506D01*
X014844Y012470D01*
X014844Y012076D02*
X013065Y012076D01*
X012698Y011710D01*
X012285Y011710D01*
X012100Y011714D01*
X012340Y012002D02*
X012813Y012002D01*
X013466Y012655D01*
X013466Y013257D01*
X013269Y013257D02*
X013269Y012635D01*
X012872Y012238D01*
X012576Y012238D01*
X012813Y012537D02*
X012813Y012891D01*
X012876Y012954D01*
X012876Y013257D01*
X013072Y013257D02*
X013072Y012797D01*
X013049Y012773D01*
X013663Y012746D02*
X013663Y013257D01*
X013663Y013521D01*
X013443Y013742D01*
X013443Y013954D01*
X013446Y013958D01*
X013860Y013899D02*
X013919Y013958D01*
X014067Y014107D01*
X014067Y014474D01*
X013377Y014474D02*
X012840Y014474D01*
X012828Y014462D01*
X012482Y014297D02*
X012317Y014462D01*
X012482Y014297D02*
X012482Y013257D01*
X011498Y013685D02*
X011655Y013950D01*
X011498Y013685D02*
X011498Y013257D01*
X011301Y013257D02*
X011301Y012923D01*
X011395Y012828D01*
X011104Y012931D02*
X010998Y012824D01*
X011104Y012931D02*
X011104Y013257D01*
X011104Y013858D01*
X011183Y013950D01*
X009978Y012986D02*
X009978Y012948D01*
X009710Y012948D01*
X009317Y012948D02*
X009317Y012592D01*
X009352Y012592D01*
X008923Y012948D02*
X008873Y012948D01*
X008873Y012124D01*
X008810Y012061D01*
X008305Y012061D01*
X008305Y011549D02*
X007907Y011549D01*
X007773Y011285D02*
X006679Y011285D01*
X006612Y011352D01*
X006765Y011822D02*
X006250Y011822D01*
X006246Y011826D01*
X006246Y012515D02*
X005854Y012515D01*
X005840Y012502D01*
X006246Y012515D02*
X006708Y012515D01*
X007344Y012948D02*
X007344Y013659D01*
X007714Y013643D02*
X007714Y012948D01*
X007742Y012948D01*
X007348Y012948D02*
X007344Y012948D01*
X008135Y012948D02*
X008151Y012964D01*
X008151Y013616D01*
X008529Y012948D02*
X008529Y012592D01*
X008565Y012592D01*
X008907Y012948D02*
X008907Y013427D01*
X008923Y012948D02*
X008907Y012948D01*
X008915Y012166D02*
X008873Y012124D01*
X009563Y012124D02*
X009563Y011674D01*
X009474Y011584D01*
X009053Y011494D02*
X008962Y011584D01*
X009053Y011494D02*
X009053Y011029D01*
X009569Y011029D01*
X010317Y010895D02*
X010702Y010895D01*
X010805Y010998D01*
X011100Y010820D02*
X010986Y010698D01*
X010317Y010698D01*
X010317Y010502D02*
X010643Y010502D01*
X010702Y010561D01*
X011313Y010561D01*
X011395Y010643D01*
X011383Y010643D01*
X010927Y010309D02*
X010352Y010309D01*
X010332Y010289D01*
X010317Y010305D01*
X010317Y009517D02*
X010317Y009360D01*
X010332Y009344D01*
X009895Y009061D02*
X009537Y008702D01*
X011104Y008730D02*
X011104Y009289D01*
X013072Y008730D02*
X013072Y008458D01*
X013261Y008080D02*
X013254Y008072D01*
X013246Y008072D01*
X013261Y008080D02*
X013332Y008080D01*
X013805Y008080D02*
X013860Y008198D01*
X013332Y007183D02*
X012915Y007183D01*
X013332Y007183D02*
X013415Y007100D01*
X013191Y006561D02*
X013380Y006372D01*
X013380Y004072D01*
X013655Y003911D01*
X013065Y003880D02*
X011234Y003880D01*
X011234Y003819D02*
X013065Y003819D01*
X013065Y003757D02*
X011234Y003757D01*
X011234Y003696D02*
X013065Y003696D01*
X013065Y003634D02*
X011234Y003634D01*
X011234Y003573D02*
X013065Y003573D01*
X013065Y003512D02*
X011234Y003512D01*
X011234Y003450D02*
X013065Y003450D01*
X013065Y003389D02*
X011234Y003389D01*
X011234Y003327D02*
X013065Y003327D01*
X013065Y003266D02*
X011234Y003266D01*
X011234Y003204D02*
X013065Y003204D01*
X013065Y003143D02*
X011234Y003143D01*
X011234Y003081D02*
X013065Y003081D01*
X013065Y003020D02*
X011234Y003020D01*
X011234Y002958D02*
X013065Y002958D01*
X013065Y002897D02*
X011234Y002897D01*
X011234Y002835D02*
X013065Y002835D01*
X013065Y002774D02*
X011234Y002774D01*
X011234Y002712D02*
X013065Y002712D01*
X013065Y002651D02*
X011234Y002651D01*
X011234Y002612D02*
X011234Y005100D01*
X013065Y005100D01*
X013065Y002612D01*
X011234Y002612D01*
X011234Y003942D02*
X013065Y003942D01*
X013065Y004003D02*
X011234Y004003D01*
X011234Y004065D02*
X013065Y004065D01*
X013065Y004126D02*
X011234Y004126D01*
X011234Y004188D02*
X013065Y004188D01*
X013065Y004249D02*
X011234Y004249D01*
X011234Y004311D02*
X013065Y004311D01*
X013065Y004372D02*
X011234Y004372D01*
X011234Y004434D02*
X013065Y004434D01*
X013065Y004495D02*
X011234Y004495D01*
X011234Y004557D02*
X013065Y004557D01*
X013065Y004618D02*
X011234Y004618D01*
X011234Y004680D02*
X013065Y004680D01*
X013065Y004741D02*
X011234Y004741D01*
X011234Y004803D02*
X013065Y004803D01*
X013065Y004864D02*
X011234Y004864D01*
X011234Y004926D02*
X013065Y004926D01*
X013065Y004987D02*
X011234Y004987D01*
X011234Y005049D02*
X013065Y005049D01*
X013191Y006561D02*
X010986Y006561D01*
X010860Y006687D01*
X011297Y007072D02*
X011297Y007159D01*
X011214Y007179D01*
X011226Y007179D01*
X011427Y007380D01*
X011734Y007380D01*
X011734Y007183D02*
X011734Y007135D01*
X011742Y007065D01*
X012277Y007458D02*
X012513Y007411D01*
X012324Y007478D01*
X008210Y009958D02*
X008088Y009836D01*
X007726Y009836D01*
X007554Y009664D01*
X007412Y009806D02*
X007569Y009962D01*
X007836Y009962D01*
X008088Y010214D01*
X008088Y010289D01*
X007797Y010415D02*
X007739Y010415D01*
X007271Y009947D01*
X007137Y010081D02*
X007395Y010340D01*
X007395Y010423D01*
X007498Y010525D01*
X007136Y010081D02*
X007137Y010081D01*
X008147Y009931D02*
X008210Y009958D01*
X008454Y011049D02*
X008454Y011399D01*
X008305Y011549D01*
X007943Y011116D02*
X007773Y011285D01*
X007943Y011116D02*
X007943Y011049D01*
X005335Y009546D02*
X005347Y009523D01*
X005335Y009546D02*
X005006Y009876D01*
X005006Y010716D01*
X004779Y010576D01*
X004372Y010583D02*
X002545Y010583D01*
X002545Y010522D02*
X004372Y010522D01*
X004372Y010460D02*
X002545Y010460D01*
X002545Y010403D02*
X002545Y010970D01*
X004372Y010970D01*
X004372Y009584D01*
X003805Y009584D01*
X003805Y010403D01*
X002545Y010403D01*
X002545Y010645D02*
X004372Y010645D01*
X004372Y010706D02*
X002545Y010706D01*
X002545Y010768D02*
X004372Y010768D01*
X004372Y010829D02*
X002545Y010829D01*
X002545Y010891D02*
X004372Y010891D01*
X004372Y010952D02*
X002545Y010952D01*
X002828Y011569D02*
X002797Y011600D01*
X002828Y011569D02*
X002990Y011569D01*
X003805Y010399D02*
X004372Y010399D01*
X004372Y010337D02*
X003805Y010337D01*
X003805Y010276D02*
X004372Y010276D01*
X004372Y010214D02*
X003805Y010214D01*
X003805Y010153D02*
X004372Y010153D01*
X004372Y010091D02*
X003805Y010091D01*
X003805Y010030D02*
X004372Y010030D01*
X004372Y009968D02*
X003805Y009968D01*
X003805Y009907D02*
X004372Y009907D01*
X004372Y009845D02*
X003805Y009845D01*
X003805Y009784D02*
X004372Y009784D01*
X004372Y009722D02*
X003805Y009722D01*
X003805Y009661D02*
X004372Y009661D01*
X004372Y009599D02*
X003805Y009599D01*
X005072Y008299D02*
X005072Y008269D01*
X004750Y007946D01*
X004246Y007946D01*
X003994Y007694D01*
X003994Y007555D01*
X003919Y007372D01*
X003919Y006899D02*
X004161Y006791D01*
X004246Y006876D01*
X004246Y007757D01*
X004309Y007820D01*
X004876Y007820D01*
X005213Y008158D01*
X005347Y008024D02*
X004827Y007504D01*
X004572Y007504D01*
X004380Y006980D02*
X004572Y006815D01*
X004939Y006687D02*
X004939Y005281D01*
X004372Y004714D01*
X004380Y004856D02*
X004309Y004856D01*
X004145Y004521D02*
X004049Y003383D01*
X004771Y003990D02*
X004793Y004011D01*
X004793Y004324D01*
X005317Y004848D01*
X005317Y006498D01*
X005820Y007002D01*
X005820Y007065D01*
X006048Y007292D01*
X006048Y007324D01*
X005630Y007741D02*
X005615Y007741D01*
X005443Y007569D01*
X005443Y007191D01*
X004939Y006687D01*
X005569Y006372D02*
X006072Y006876D01*
X006151Y006876D01*
X006719Y006952D02*
X006719Y007048D01*
X007412Y007741D02*
X007412Y007741D01*
X005569Y006372D02*
X005569Y005427D01*
X005632Y005364D01*
X006135Y005364D01*
X006191Y005419D01*
X006254Y005801D01*
X006151Y005899D01*
X006151Y005506D01*
X005742Y005506D02*
X006791Y005506D01*
X006791Y006273D01*
X005742Y006273D01*
X005742Y005506D01*
X005742Y005541D02*
X006791Y005541D01*
X006791Y005602D02*
X005742Y005602D01*
X005742Y005664D02*
X006791Y005664D01*
X006791Y005725D02*
X005742Y005725D01*
X005742Y005787D02*
X006791Y005787D01*
X006791Y005848D02*
X005742Y005848D01*
X005742Y005910D02*
X006791Y005910D01*
X006791Y005971D02*
X005742Y005971D01*
X005742Y006033D02*
X006791Y006033D01*
X006791Y006094D02*
X005742Y006094D01*
X005742Y006156D02*
X006791Y006156D01*
X006791Y006217D02*
X005742Y006217D01*
X005480Y005049D02*
X006746Y005049D01*
X006746Y004987D02*
X005480Y004987D01*
X005480Y004926D02*
X006746Y004926D01*
X002746Y007525D02*
X002391Y007506D01*
X002348Y007506D01*
X004557Y011254D02*
X004557Y011647D01*
X003301Y012923D02*
X002907Y012923D01*
X002435Y012923D02*
X002435Y013836D01*
X002726Y014128D01*
X013663Y012746D02*
X013758Y012651D01*
X013860Y012962D02*
X014171Y012651D01*
X013860Y012962D02*
X013860Y013257D01*
X013860Y013899D01*
X014387Y013679D02*
X014387Y013588D01*
X014057Y013257D01*
X015998Y012899D02*
X015998Y012691D01*
X015998Y012899D02*
X016234Y013135D01*
X020049Y007336D02*
X020935Y007336D01*
X020935Y003891D01*
X020049Y003891D01*
X020049Y007336D01*
X020049Y007324D02*
X020935Y007324D01*
X020935Y007263D02*
X020049Y007263D01*
X020049Y007201D02*
X020935Y007201D01*
X020935Y007140D02*
X020049Y007140D01*
X020049Y007078D02*
X020935Y007078D01*
X020935Y007017D02*
X020049Y007017D01*
X020049Y006955D02*
X020935Y006955D01*
X020935Y006894D02*
X020049Y006894D01*
X020049Y006832D02*
X020935Y006832D01*
X020935Y006771D02*
X020049Y006771D01*
X020049Y006709D02*
X020935Y006709D01*
X020935Y006648D02*
X020049Y006648D01*
X020049Y006586D02*
X020935Y006586D01*
X020935Y006525D02*
X020049Y006525D01*
X020049Y006463D02*
X020935Y006463D01*
X020935Y006402D02*
X020049Y006402D01*
X020049Y006340D02*
X020935Y006340D01*
X020935Y006279D02*
X020049Y006279D01*
X020049Y006217D02*
X020935Y006217D01*
X020935Y006156D02*
X020049Y006156D01*
X020049Y006094D02*
X020935Y006094D01*
X020935Y006033D02*
X020049Y006033D01*
X020049Y005971D02*
X020935Y005971D01*
X020935Y005910D02*
X020049Y005910D01*
X020049Y005848D02*
X020935Y005848D01*
X020935Y005787D02*
X020049Y005787D01*
X020049Y005725D02*
X020935Y005725D01*
X020935Y005664D02*
X020049Y005664D01*
X020049Y005602D02*
X020935Y005602D01*
X020935Y005541D02*
X020049Y005541D01*
X020049Y005479D02*
X020935Y005479D01*
X020935Y005418D02*
X020049Y005418D01*
X020049Y005356D02*
X020935Y005356D01*
X020935Y005295D02*
X020049Y005295D01*
X020049Y005233D02*
X020935Y005233D01*
X020935Y005172D02*
X020049Y005172D01*
X020049Y005110D02*
X020935Y005110D01*
X020935Y005049D02*
X020049Y005049D01*
X020049Y004987D02*
X020935Y004987D01*
X020935Y004926D02*
X020049Y004926D01*
X020049Y004864D02*
X020935Y004864D01*
X020935Y004803D02*
X020049Y004803D01*
X020049Y004741D02*
X020935Y004741D01*
X020935Y004680D02*
X020049Y004680D01*
X020049Y004618D02*
X020935Y004618D01*
X020935Y004557D02*
X020049Y004557D01*
X020049Y004495D02*
X020935Y004495D01*
X020935Y004434D02*
X020049Y004434D01*
X020049Y004372D02*
X020935Y004372D01*
X020935Y004311D02*
X020049Y004311D01*
X020049Y004249D02*
X020935Y004249D01*
X020935Y004188D02*
X020049Y004188D01*
X020049Y004126D02*
X020935Y004126D01*
X020935Y004065D02*
X020049Y004065D01*
X020049Y004003D02*
X020935Y004003D01*
X020935Y003942D02*
X020049Y003942D01*
X016151Y002293D02*
X016151Y001569D01*
X015718Y001135D01*
X015710Y001143D01*
X015710Y002293D01*
X015296Y001913D02*
X013121Y001913D01*
X013121Y001851D02*
X015190Y001851D01*
X015129Y001790D02*
X013121Y001790D01*
X013117Y001728D02*
X015067Y001728D01*
X015006Y001667D02*
X013080Y001667D01*
X013080Y001605D02*
X014961Y001605D01*
D42*
X015072Y002966D03*
X014836Y002966D03*
X014836Y003202D03*
X015072Y003202D03*
X015072Y003439D03*
X014836Y003439D03*
X014836Y003675D03*
X015072Y003675D03*
X015072Y003911D03*
X014836Y003911D03*
X014600Y003911D03*
X014364Y003911D03*
X014128Y003911D03*
X013891Y003911D03*
X013655Y003911D03*
X013655Y003675D03*
X013891Y003675D03*
X013891Y003439D03*
X013655Y003439D03*
X013655Y003202D03*
X013655Y002966D03*
X013891Y002966D03*
X013891Y003202D03*
X014128Y003202D03*
X014364Y003202D03*
X014364Y002966D03*
X014600Y002966D03*
X014600Y003202D03*
X014600Y003439D03*
X014600Y003675D03*
X014364Y003675D03*
X014364Y003439D03*
X014128Y003439D03*
X014128Y003675D03*
X014128Y002966D03*
X012824Y002907D03*
X012588Y002907D03*
X012352Y002907D03*
X012352Y002671D03*
X012588Y002671D03*
X012824Y002671D03*
X012824Y003143D03*
X012588Y003143D03*
X012352Y003143D03*
X012116Y003143D03*
X011880Y003143D03*
X011880Y003380D03*
X012116Y003380D03*
X012352Y003380D03*
X012588Y003380D03*
X012824Y003380D03*
X012824Y003616D03*
X012588Y003616D03*
X012588Y003852D03*
X012352Y003852D03*
X012116Y003852D03*
X012116Y003616D03*
X012352Y003616D03*
X011880Y003616D03*
X011880Y003852D03*
X011643Y003852D03*
X011407Y003852D03*
X011407Y003616D03*
X011643Y003616D03*
X011643Y003380D03*
X011407Y003380D03*
X011407Y003143D03*
X011643Y003143D03*
X011643Y002907D03*
X011407Y002907D03*
X011407Y002671D03*
X011643Y002671D03*
X011880Y002671D03*
X012116Y002671D03*
X012116Y002907D03*
X011880Y002907D03*
X011943Y002080D03*
X011706Y002080D03*
X011470Y002080D03*
X011470Y001844D03*
X011706Y001844D03*
X011943Y001844D03*
X012179Y001844D03*
X012415Y001844D03*
X012415Y002080D03*
X012179Y002080D03*
X010643Y002848D03*
X010407Y002848D03*
X010407Y003084D03*
X010643Y003084D03*
X010643Y003320D03*
X010407Y003320D03*
X010407Y003557D03*
X010643Y003557D03*
X010643Y003793D03*
X010407Y003793D03*
X010407Y004029D03*
X010643Y004029D03*
X010171Y004029D03*
X010171Y003793D03*
X009935Y003793D03*
X009935Y004029D03*
X009698Y004029D03*
X009462Y004029D03*
X009226Y004029D03*
X009226Y003793D03*
X009462Y003793D03*
X009698Y003793D03*
X009698Y003557D03*
X009462Y003557D03*
X009226Y003557D03*
X009226Y003320D03*
X009462Y003320D03*
X009698Y003320D03*
X009935Y003320D03*
X010171Y003320D03*
X010171Y003557D03*
X009935Y003557D03*
X009935Y003084D03*
X010171Y003084D03*
X010171Y002848D03*
X009935Y002848D03*
X009698Y002848D03*
X009462Y002848D03*
X009226Y002848D03*
X009226Y003084D03*
X009462Y003084D03*
X009698Y003084D03*
X009635Y002257D03*
X009635Y002021D03*
X009399Y002021D03*
X009163Y002021D03*
X009163Y002257D03*
X009399Y002257D03*
X009872Y002257D03*
X009872Y002021D03*
X010108Y002021D03*
X010108Y002257D03*
X008454Y002139D03*
X008218Y002139D03*
X007982Y002139D03*
X007746Y002139D03*
X007509Y002139D03*
X007273Y002139D03*
X007037Y002139D03*
X007037Y002376D03*
X007037Y002612D03*
X007273Y002612D03*
X007273Y002376D03*
X007509Y002376D03*
X007509Y002612D03*
X007509Y002848D03*
X007273Y002848D03*
X007037Y002848D03*
X007037Y003084D03*
X007273Y003084D03*
X007509Y003084D03*
X007509Y003320D03*
X007273Y003320D03*
X007037Y003320D03*
X006214Y003380D03*
X005978Y003380D03*
X005978Y003143D03*
X006214Y003143D03*
X006214Y002907D03*
X005978Y002907D03*
X005978Y002671D03*
X006214Y002671D03*
X006214Y002435D03*
X005978Y002435D03*
X005978Y002198D03*
X006214Y002198D03*
X005742Y002198D03*
X005506Y002198D03*
X005506Y002435D03*
X005742Y002435D03*
X005742Y002671D03*
X005742Y002907D03*
X005506Y002907D03*
X005506Y002671D03*
X005269Y002671D03*
X005033Y002671D03*
X005033Y002907D03*
X004797Y002907D03*
X004797Y002671D03*
X004797Y002435D03*
X005033Y002435D03*
X005269Y002435D03*
X005269Y002198D03*
X005033Y002198D03*
X004797Y002198D03*
X005269Y002907D03*
X005269Y003143D03*
X005033Y003143D03*
X004797Y003143D03*
X004797Y003380D03*
X005033Y003380D03*
X005269Y003380D03*
X005506Y003380D03*
X005742Y003380D03*
X005742Y003143D03*
X005506Y003143D03*
X004084Y003025D03*
X003848Y003025D03*
X003612Y003025D03*
X003376Y003025D03*
X003139Y003025D03*
X002903Y003025D03*
X002667Y003025D03*
X002667Y003261D03*
X002903Y003261D03*
X003139Y003261D03*
X003376Y003261D03*
X003612Y003261D03*
X003848Y003261D03*
X004084Y003261D03*
X004084Y003498D03*
X003848Y003498D03*
X003612Y003498D03*
X003376Y003498D03*
X003139Y003498D03*
X002903Y003498D03*
X002667Y003498D03*
X002667Y003734D03*
X002667Y003970D03*
X002903Y003970D03*
X002903Y003734D03*
X003139Y003734D03*
X003139Y003970D03*
X003376Y003970D03*
X003612Y003970D03*
X003848Y003970D03*
X003848Y003734D03*
X003612Y003734D03*
X003376Y003734D03*
X003376Y004206D03*
X003612Y004206D03*
X003848Y004206D03*
X004084Y004206D03*
X004084Y003970D03*
X004084Y003734D03*
X003139Y004206D03*
X002903Y004206D03*
X002667Y004206D03*
X002529Y005584D03*
X002175Y005584D03*
X002175Y006175D03*
X002529Y006175D03*
X002883Y006175D03*
X003238Y006175D03*
X003592Y006175D03*
X003946Y006175D03*
X004301Y006175D03*
X004301Y005584D03*
X003946Y005584D03*
X003592Y005584D03*
X003238Y005584D03*
X002883Y005584D03*
X002352Y007076D03*
X002348Y007506D03*
X004372Y008513D03*
X004415Y009265D03*
X005360Y008754D03*
X005950Y009344D03*
X006482Y009935D03*
X007072Y009344D03*
X006541Y008754D03*
X007132Y008163D03*
X007722Y008754D03*
X008419Y008939D03*
X008691Y008458D03*
X009324Y009084D03*
X009895Y009061D03*
X010332Y009344D03*
X010923Y009462D03*
X010927Y010309D03*
X011395Y010643D03*
X011100Y010820D03*
X010805Y010998D03*
X010856Y011647D03*
X011159Y011883D03*
X012100Y011714D03*
X012340Y012002D03*
X012576Y012238D03*
X012813Y012537D03*
X013049Y012773D03*
X013758Y012651D03*
X014171Y012651D03*
X014880Y012769D03*
X015466Y012954D03*
X016234Y013135D03*
X014387Y013679D03*
X014285Y011588D03*
X013876Y011116D03*
X013600Y010860D03*
X014324Y010592D03*
X014407Y009639D03*
X013883Y009545D03*
X014112Y009108D03*
X014860Y009159D03*
X013226Y009167D03*
X013254Y008072D03*
X012435Y008072D03*
X012277Y007458D03*
X011742Y007065D03*
X011297Y007072D03*
X010683Y007159D03*
X010277Y007159D03*
X010277Y007509D03*
X010509Y007860D03*
X009222Y007631D03*
X007907Y006773D03*
X008147Y006561D03*
X008210Y006116D03*
X007974Y006116D03*
X007738Y006116D03*
X007738Y005880D03*
X007738Y005643D03*
X007974Y005880D03*
X008210Y005880D03*
X008446Y005880D03*
X008446Y005643D03*
X008446Y006116D03*
X009092Y006175D03*
X009446Y006175D03*
X009801Y006175D03*
X010155Y006175D03*
X010509Y006175D03*
X010509Y005584D03*
X010155Y005584D03*
X009801Y005584D03*
X009446Y005584D03*
X009092Y005584D03*
X008572Y004679D03*
X008336Y004679D03*
X008100Y004679D03*
X007864Y004679D03*
X007628Y004679D03*
X007628Y004443D03*
X007864Y004443D03*
X008100Y004443D03*
X008336Y004443D03*
X008572Y004443D03*
X008454Y003320D03*
X008218Y003320D03*
X007982Y003320D03*
X007746Y003320D03*
X007746Y003084D03*
X007982Y003084D03*
X007982Y002848D03*
X008218Y002848D03*
X008218Y003084D03*
X008454Y003084D03*
X008454Y002848D03*
X008454Y002612D03*
X008218Y002612D03*
X007982Y002612D03*
X007746Y002612D03*
X007746Y002376D03*
X007982Y002376D03*
X008218Y002376D03*
X008454Y002376D03*
X007746Y002848D03*
X006565Y004443D03*
X006328Y004443D03*
X006092Y004443D03*
X005856Y004443D03*
X005620Y004443D03*
X005620Y004679D03*
X005856Y004679D03*
X006092Y004679D03*
X006328Y004679D03*
X006565Y004679D03*
X006549Y005643D03*
X006549Y005880D03*
X006313Y005880D03*
X006076Y005880D03*
X005840Y005880D03*
X005840Y005643D03*
X005840Y006116D03*
X006076Y006116D03*
X006313Y006116D03*
X006549Y006116D03*
X006328Y006561D03*
X006773Y006679D03*
X006541Y007572D03*
X005950Y008163D03*
X005128Y007254D03*
X008147Y009931D03*
X008088Y010289D03*
X007797Y010415D03*
X007498Y010525D03*
X008557Y010061D03*
X009198Y009915D03*
X008809Y011588D03*
X007907Y011549D03*
X006612Y011352D03*
X006305Y010939D03*
X006009Y010820D03*
X005793Y010584D03*
X005478Y010643D03*
X005242Y010407D03*
X005301Y010112D03*
X005974Y011317D03*
X005167Y011927D03*
X005840Y012502D03*
X007344Y013659D03*
X007714Y013643D03*
X008151Y013616D03*
X008907Y013427D03*
X008565Y012592D03*
X009352Y012592D03*
X009978Y012986D03*
X010998Y012824D03*
X011395Y012828D03*
X015569Y010931D03*
X020147Y007198D03*
X020147Y006726D03*
X020147Y006254D03*
X020147Y005781D03*
X018966Y005328D03*
X018966Y004915D03*
X018966Y004502D03*
X018966Y004029D03*
X018080Y004029D03*
X018080Y004502D03*
X018080Y004915D03*
X018080Y005328D03*
X015049Y005289D03*
X015049Y005053D03*
X015049Y004817D03*
X014813Y004817D03*
X014813Y005053D03*
X014576Y005053D03*
X014340Y005053D03*
X014104Y005053D03*
X014104Y004817D03*
X014340Y004817D03*
X014576Y004817D03*
X014576Y004580D03*
X014340Y004580D03*
X014104Y004580D03*
X014813Y004580D03*
X015049Y004580D03*
X014813Y005289D03*
X014576Y005289D03*
X014340Y005289D03*
X014104Y005289D03*
X012872Y005584D03*
X012517Y005584D03*
X012163Y005584D03*
X011809Y005584D03*
X011454Y005584D03*
X011454Y006175D03*
X011809Y006175D03*
X012163Y006175D03*
X012517Y006175D03*
X012872Y006175D03*
X013415Y007100D03*
X012824Y003852D03*
X003671Y002439D03*
X003435Y002439D03*
X003198Y002439D03*
X002962Y002439D03*
X002726Y002439D03*
X003198Y002202D03*
X003435Y002202D03*
X003671Y002202D03*
X002797Y011600D03*
X002431Y012395D03*
X003301Y012923D03*
D43*
X002456Y012441D02*
X002472Y012391D01*
X002990Y011569D02*
X003218Y011726D01*
X003395Y011746D01*
X004324Y010968D02*
X004090Y010576D01*
X004454Y010041D02*
X004387Y009828D01*
X004549Y010045D01*
X004415Y009265D02*
X003742Y009265D01*
X003496Y009191D01*
X004372Y009222D02*
X004415Y009265D01*
X004762Y009265D01*
X004930Y009106D01*
X004372Y009222D02*
X004372Y008513D01*
X002891Y009828D02*
X002807Y009819D01*
X004506Y006757D02*
X004498Y006631D01*
X004679Y006631D02*
X004679Y005226D01*
X004309Y004856D01*
X015187Y005683D02*
X015403Y005565D01*
X015403Y005033D01*
X015954Y004443D01*
X015187Y005683D02*
X015250Y005919D01*
D44*
X014069Y005919D02*
X014124Y005387D01*
D45*
X014104Y005289D01*
X006246Y011588D02*
X005974Y011317D01*
X005974Y011254D01*
X005698Y011254D01*
X006246Y011588D02*
X006246Y011826D01*
X005128Y011647D02*
X005128Y012041D01*
X004557Y012041D01*
X004096Y012041D01*
X004096Y011880D01*
X004096Y011407D02*
X003376Y011387D01*
X003376Y011569D01*
X004096Y011407D02*
X004096Y011254D01*
X004557Y011254D01*
D46*
X005065Y011651D02*
X005167Y011927D01*
X003376Y012226D02*
X003376Y011569D01*
X003376Y012226D02*
X003161Y012391D01*
X002431Y012395D02*
X002332Y012395D01*
X002104Y012167D01*
X002104Y010025D01*
X002293Y009836D01*
X002506Y009836D01*
X002891Y009828D01*
X002807Y009191D02*
X002592Y008775D01*
X002521Y008450D01*
X003702Y008450D02*
X003695Y009218D01*
X003742Y009265D01*
X005191Y007584D02*
X005489Y007882D01*
X005191Y007584D02*
X005191Y007254D01*
X004569Y006631D01*
X004563Y006689D02*
X004572Y006815D01*
X004563Y006689D02*
X005128Y007254D01*
D47*
X004679Y006750D02*
X004679Y006631D01*
D48*
X003376Y011569D02*
X003218Y011726D01*
D49*
X002726Y001135D03*
X015718Y001135D03*
X015718Y014128D03*
X002726Y014128D03*
M02*
