G75*
%MOIN*%
%OFA0B0*%
%FSLAX24Y24*%
%IPPOS*%
%LPD*%
%AMOC8*
5,1,8,0,0,1.08239X$1,22.5*
%
%ADD10C,0.0907*%
%ADD11C,0.0157*%
%ADD12R,0.0689X0.0689*%
%ADD13R,0.0276X0.0157*%
%ADD14R,0.0157X0.0276*%
%ADD15C,0.1084*%
%ADD16C,0.0671*%
%ADD17C,0.0552*%
%ADD18C,0.1576*%
D10*
X006072Y000978D03*
X009222Y000978D03*
X012372Y000978D03*
D11*
X009517Y007159D03*
X009320Y007159D03*
X009124Y007159D03*
X008927Y007159D03*
X008750Y007336D03*
X008750Y007533D03*
X008750Y007730D03*
X008750Y007927D03*
X008927Y008104D03*
X009124Y008104D03*
X009320Y008104D03*
X009517Y008104D03*
X009695Y007927D03*
X009695Y007730D03*
X009695Y007533D03*
X009695Y007336D03*
D12*
X009222Y007631D03*
D13*
X008612Y007533D03*
X008612Y007336D03*
X008612Y007730D03*
X008612Y007927D03*
X009832Y007927D03*
X009832Y007730D03*
X009832Y007533D03*
X009832Y007336D03*
D14*
X009517Y007021D03*
X009320Y007021D03*
X009124Y007021D03*
X008927Y007021D03*
X008927Y008242D03*
X009124Y008242D03*
X009320Y008242D03*
X009517Y008242D03*
D15*
X016214Y006600D03*
X016214Y004631D03*
D16*
X020151Y003450D03*
X020151Y007781D03*
D17*
X019065Y009206D02*
X018592Y009206D01*
X018592Y010191D02*
X019065Y010191D01*
X019065Y011175D02*
X018592Y011175D01*
D18*
X002726Y001135D03*
X015718Y001135D03*
X015718Y014128D03*
X002726Y014128D03*
M02*
