G75*
%MOIN*%
%OFA0B0*%
%FSLAX24Y24*%
%IPPOS*%
%LPD*%
%AMOC8*
5,1,8,0,0,1.08239X$1,22.5*
%
%ADD10C,0.0827*%
%ADD11C,0.1004*%
%ADD12C,0.0591*%
%ADD13C,0.0472*%
%ADD14C,0.0236*%
%ADD15C,0.0063*%
%ADD16C,0.0100*%
%ADD17C,0.0320*%
%ADD18C,0.1227*%
D10*
X006072Y000978D03*
X009222Y000978D03*
X012372Y000978D03*
D11*
X016214Y004631D03*
X016214Y006600D03*
D12*
X020151Y007781D03*
X020151Y003450D03*
D13*
X018828Y009206D03*
X018828Y010191D03*
X018828Y011175D03*
D14*
X016234Y013135D03*
X015466Y012954D03*
X014880Y012769D03*
X014171Y012651D03*
X013758Y012651D03*
X013049Y012773D03*
X012813Y012537D03*
X012576Y012238D03*
X012340Y012002D03*
X012100Y011714D03*
X011159Y011883D03*
X010856Y011647D03*
X010805Y010998D03*
X011100Y010820D03*
X011395Y010643D03*
X010927Y010309D03*
X010923Y009462D03*
X010332Y009344D03*
X009895Y009061D03*
X009324Y009084D03*
X008691Y008458D03*
X008419Y008939D03*
X007722Y008754D03*
X007132Y008163D03*
X006541Y008754D03*
X007072Y009344D03*
X006482Y009935D03*
X005950Y009344D03*
X005360Y008754D03*
X005950Y008163D03*
X006541Y007572D03*
X006773Y006679D03*
X006328Y006561D03*
X006313Y006116D03*
X006549Y006116D03*
X006549Y005880D03*
X006313Y005880D03*
X006076Y005880D03*
X005840Y005880D03*
X005840Y005643D03*
X005840Y006116D03*
X006076Y006116D03*
X006549Y005643D03*
X007738Y005643D03*
X007738Y005880D03*
X007738Y006116D03*
X007974Y006116D03*
X008210Y006116D03*
X008446Y006116D03*
X008446Y005880D03*
X008210Y005880D03*
X007974Y005880D03*
X008446Y005643D03*
X009092Y005584D03*
X009446Y005584D03*
X009801Y005584D03*
X010155Y005584D03*
X010509Y005584D03*
X010509Y006175D03*
X010155Y006175D03*
X009801Y006175D03*
X009446Y006175D03*
X009092Y006175D03*
X008147Y006561D03*
X007907Y006773D03*
X009222Y007631D03*
X010277Y007509D03*
X010277Y007159D03*
X010683Y007159D03*
X011297Y007072D03*
X011742Y007065D03*
X012277Y007458D03*
X012435Y008072D03*
X013254Y008072D03*
X014112Y009108D03*
X013883Y009545D03*
X014407Y009639D03*
X014860Y009159D03*
X013226Y009167D03*
X014324Y010592D03*
X013876Y011116D03*
X013600Y010860D03*
X014285Y011588D03*
X015569Y010931D03*
X014387Y013679D03*
X011395Y012828D03*
X010998Y012824D03*
X009978Y012986D03*
X009352Y012592D03*
X008565Y012592D03*
X008907Y013427D03*
X008151Y013616D03*
X007714Y013643D03*
X007344Y013659D03*
X005840Y012502D03*
X005167Y011927D03*
X005974Y011317D03*
X006305Y010939D03*
X006009Y010820D03*
X005793Y010584D03*
X005478Y010643D03*
X005242Y010407D03*
X005301Y010112D03*
X004415Y009265D03*
X004372Y008513D03*
X005128Y007254D03*
X004301Y006175D03*
X003946Y006175D03*
X003592Y006175D03*
X003238Y006175D03*
X002883Y006175D03*
X002529Y006175D03*
X002175Y006175D03*
X002175Y005584D03*
X002529Y005584D03*
X002883Y005584D03*
X003238Y005584D03*
X003592Y005584D03*
X003946Y005584D03*
X004301Y005584D03*
X005620Y004679D03*
X005856Y004679D03*
X006092Y004679D03*
X006328Y004679D03*
X006565Y004679D03*
X006565Y004443D03*
X006328Y004443D03*
X006092Y004443D03*
X005856Y004443D03*
X005620Y004443D03*
X005506Y003380D03*
X005742Y003380D03*
X005742Y003143D03*
X005506Y003143D03*
X005269Y003143D03*
X005033Y003143D03*
X004797Y003143D03*
X004797Y003380D03*
X005033Y003380D03*
X005269Y003380D03*
X005269Y002907D03*
X005033Y002907D03*
X004797Y002907D03*
X004797Y002671D03*
X005033Y002671D03*
X005269Y002671D03*
X005506Y002671D03*
X005742Y002671D03*
X005742Y002907D03*
X005506Y002907D03*
X005978Y002907D03*
X005978Y002671D03*
X006214Y002671D03*
X006214Y002907D03*
X006214Y003143D03*
X005978Y003143D03*
X005978Y003380D03*
X006214Y003380D03*
X007037Y003320D03*
X007273Y003320D03*
X007509Y003320D03*
X007509Y003084D03*
X007273Y003084D03*
X007273Y002848D03*
X007037Y002848D03*
X007037Y003084D03*
X007509Y002848D03*
X007509Y002612D03*
X007273Y002612D03*
X007037Y002612D03*
X007037Y002376D03*
X007273Y002376D03*
X007509Y002376D03*
X007509Y002139D03*
X007273Y002139D03*
X007037Y002139D03*
X006214Y002198D03*
X005978Y002198D03*
X005978Y002435D03*
X006214Y002435D03*
X005742Y002435D03*
X005506Y002435D03*
X005506Y002198D03*
X005742Y002198D03*
X005269Y002198D03*
X005033Y002198D03*
X004797Y002198D03*
X004797Y002435D03*
X005033Y002435D03*
X005269Y002435D03*
X004084Y003025D03*
X003848Y003025D03*
X003612Y003025D03*
X003376Y003025D03*
X003139Y003025D03*
X002903Y003025D03*
X002667Y003025D03*
X002667Y003261D03*
X002903Y003261D03*
X003139Y003261D03*
X003376Y003261D03*
X003612Y003261D03*
X003848Y003261D03*
X004084Y003261D03*
X004084Y003498D03*
X003848Y003498D03*
X003612Y003498D03*
X003376Y003498D03*
X003139Y003498D03*
X002903Y003498D03*
X002667Y003498D03*
X002667Y003734D03*
X002667Y003970D03*
X002903Y003970D03*
X002903Y003734D03*
X003139Y003734D03*
X003139Y003970D03*
X003376Y003970D03*
X003612Y003970D03*
X003848Y003970D03*
X003848Y003734D03*
X003612Y003734D03*
X003376Y003734D03*
X003376Y004206D03*
X003612Y004206D03*
X003848Y004206D03*
X004084Y004206D03*
X004084Y003970D03*
X004084Y003734D03*
X003139Y004206D03*
X002903Y004206D03*
X002667Y004206D03*
X002726Y002439D03*
X002962Y002439D03*
X003198Y002439D03*
X003198Y002202D03*
X003435Y002202D03*
X003671Y002202D03*
X003671Y002439D03*
X003435Y002439D03*
X007628Y004443D03*
X007864Y004443D03*
X008100Y004443D03*
X008336Y004443D03*
X008572Y004443D03*
X008572Y004679D03*
X008336Y004679D03*
X008100Y004679D03*
X007864Y004679D03*
X007628Y004679D03*
X009226Y004029D03*
X009226Y003793D03*
X009462Y003793D03*
X009462Y004029D03*
X009698Y004029D03*
X009698Y003793D03*
X009935Y003793D03*
X010171Y003793D03*
X010171Y004029D03*
X009935Y004029D03*
X010407Y004029D03*
X010407Y003793D03*
X010643Y003793D03*
X010643Y004029D03*
X010643Y003557D03*
X010407Y003557D03*
X010407Y003320D03*
X010643Y003320D03*
X010643Y003084D03*
X010407Y003084D03*
X010407Y002848D03*
X010643Y002848D03*
X010171Y002848D03*
X010171Y003084D03*
X009935Y003084D03*
X009935Y002848D03*
X009698Y002848D03*
X009462Y002848D03*
X009226Y002848D03*
X009226Y003084D03*
X009462Y003084D03*
X009698Y003084D03*
X009698Y003320D03*
X009462Y003320D03*
X009226Y003320D03*
X009226Y003557D03*
X009462Y003557D03*
X009698Y003557D03*
X009935Y003557D03*
X010171Y003557D03*
X010171Y003320D03*
X009935Y003320D03*
X008454Y003320D03*
X008218Y003320D03*
X007982Y003320D03*
X007746Y003320D03*
X007746Y003084D03*
X007982Y003084D03*
X007982Y002848D03*
X008218Y002848D03*
X008218Y003084D03*
X008454Y003084D03*
X008454Y002848D03*
X008454Y002612D03*
X008218Y002612D03*
X007982Y002612D03*
X007746Y002612D03*
X007746Y002376D03*
X007982Y002376D03*
X008218Y002376D03*
X008454Y002376D03*
X008454Y002139D03*
X008218Y002139D03*
X007982Y002139D03*
X007746Y002139D03*
X007746Y002848D03*
X009163Y002257D03*
X009163Y002021D03*
X009399Y002021D03*
X009635Y002021D03*
X009635Y002257D03*
X009399Y002257D03*
X009872Y002257D03*
X009872Y002021D03*
X010108Y002021D03*
X010108Y002257D03*
X011407Y002671D03*
X011407Y002907D03*
X011643Y002907D03*
X011643Y002671D03*
X011880Y002671D03*
X012116Y002671D03*
X012352Y002671D03*
X012352Y002907D03*
X012588Y002907D03*
X012588Y002671D03*
X012824Y002671D03*
X012824Y002907D03*
X012824Y003143D03*
X012588Y003143D03*
X012352Y003143D03*
X012116Y003143D03*
X011880Y003143D03*
X011880Y003380D03*
X012116Y003380D03*
X012352Y003380D03*
X012588Y003380D03*
X012824Y003380D03*
X012824Y003616D03*
X012588Y003616D03*
X012588Y003852D03*
X012352Y003852D03*
X012116Y003852D03*
X012116Y003616D03*
X012352Y003616D03*
X011880Y003616D03*
X011880Y003852D03*
X011643Y003852D03*
X011407Y003852D03*
X011407Y003616D03*
X011643Y003616D03*
X011643Y003380D03*
X011407Y003380D03*
X011407Y003143D03*
X011643Y003143D03*
X011880Y002907D03*
X012116Y002907D03*
X012179Y002080D03*
X012415Y002080D03*
X012415Y001844D03*
X012179Y001844D03*
X011943Y001844D03*
X011706Y001844D03*
X011470Y001844D03*
X011470Y002080D03*
X011706Y002080D03*
X011943Y002080D03*
X013655Y002966D03*
X013891Y002966D03*
X013891Y003202D03*
X013655Y003202D03*
X013655Y003439D03*
X013655Y003675D03*
X013891Y003675D03*
X013891Y003439D03*
X014128Y003439D03*
X014364Y003439D03*
X014364Y003675D03*
X014600Y003675D03*
X014600Y003439D03*
X014836Y003439D03*
X014836Y003675D03*
X015072Y003675D03*
X015072Y003439D03*
X015072Y003202D03*
X014836Y003202D03*
X014836Y002966D03*
X015072Y002966D03*
X014600Y002966D03*
X014364Y002966D03*
X014364Y003202D03*
X014600Y003202D03*
X014128Y003202D03*
X014128Y002966D03*
X014128Y003675D03*
X014128Y003911D03*
X014364Y003911D03*
X014600Y003911D03*
X014836Y003911D03*
X015072Y003911D03*
X015049Y004580D03*
X014813Y004580D03*
X014576Y004580D03*
X014340Y004580D03*
X014104Y004580D03*
X014104Y004817D03*
X014104Y005053D03*
X014340Y005053D03*
X014576Y005053D03*
X014576Y004817D03*
X014340Y004817D03*
X014813Y004817D03*
X014813Y005053D03*
X015049Y005053D03*
X015049Y004817D03*
X015049Y005289D03*
X014813Y005289D03*
X014576Y005289D03*
X014340Y005289D03*
X014104Y005289D03*
X012872Y005584D03*
X012517Y005584D03*
X012163Y005584D03*
X011809Y005584D03*
X011454Y005584D03*
X011454Y006175D03*
X011809Y006175D03*
X012163Y006175D03*
X012517Y006175D03*
X012872Y006175D03*
X013415Y007100D03*
X010509Y007860D03*
X009198Y009915D03*
X008557Y010061D03*
X008147Y009931D03*
X008088Y010289D03*
X007797Y010415D03*
X007498Y010525D03*
X006612Y011352D03*
X007907Y011549D03*
X008809Y011588D03*
X003301Y012923D03*
X002431Y012395D03*
X002797Y011600D03*
X002348Y007506D03*
X002352Y007076D03*
X012824Y003852D03*
X013655Y003911D03*
X013891Y003911D03*
X018080Y004029D03*
X018080Y004502D03*
X018080Y004915D03*
X018080Y005328D03*
X018966Y005328D03*
X018966Y004915D03*
X018966Y004502D03*
X018966Y004029D03*
X020147Y005781D03*
X020147Y006254D03*
X020147Y006726D03*
X020147Y007198D03*
D15*
X002070Y005092D02*
X002070Y001498D01*
X002095Y001557D01*
X002304Y001767D01*
X002578Y001880D01*
X002874Y001880D01*
X003148Y001767D01*
X003357Y001557D01*
X003471Y001284D01*
X003471Y000987D01*
X003357Y000713D01*
X003148Y000504D01*
X003089Y000480D01*
X005852Y000480D01*
X005764Y000516D01*
X005611Y000669D01*
X005528Y000870D01*
X005528Y001086D01*
X005611Y001287D01*
X005764Y001440D01*
X005964Y001523D01*
X006181Y001523D01*
X006381Y001440D01*
X006534Y001287D01*
X006617Y001086D01*
X006617Y000870D01*
X006534Y000669D01*
X006381Y000516D01*
X006293Y000480D01*
X009002Y000480D01*
X008913Y000516D01*
X008760Y000669D01*
X008677Y000870D01*
X008677Y001086D01*
X008760Y001287D01*
X008913Y001440D01*
X009114Y001523D01*
X009330Y001523D01*
X009531Y001440D01*
X009684Y001287D01*
X009767Y001086D01*
X009767Y000870D01*
X009684Y000669D01*
X009531Y000516D01*
X009443Y000480D01*
X012151Y000480D01*
X012063Y000516D01*
X011910Y000669D01*
X011827Y000870D01*
X011827Y001086D01*
X011910Y001287D01*
X012063Y001440D01*
X012263Y001523D01*
X012480Y001523D01*
X012680Y001440D01*
X012834Y001287D01*
X012917Y001086D01*
X012917Y000870D01*
X012834Y000669D01*
X012680Y000516D01*
X012592Y000480D01*
X015355Y000480D01*
X015296Y000504D01*
X015087Y000713D01*
X014973Y000987D01*
X014973Y001284D01*
X015087Y001557D01*
X015296Y001767D01*
X015570Y001880D01*
X015866Y001880D01*
X016140Y001767D01*
X016350Y001557D01*
X016374Y001498D01*
X016374Y002265D01*
X016464Y002542D01*
X016464Y002542D01*
X016635Y002778D01*
X016635Y002778D01*
X016635Y002778D01*
X016684Y002813D01*
X016663Y004265D01*
X008698Y004224D01*
X008622Y004193D01*
X008523Y004193D01*
X008454Y004221D01*
X008386Y004193D01*
X008287Y004193D01*
X008218Y004221D01*
X008150Y004193D01*
X008050Y004193D01*
X007983Y004221D01*
X007981Y004221D01*
X007913Y004193D01*
X007814Y004193D01*
X007750Y004220D01*
X007741Y004220D01*
X007677Y004193D01*
X007578Y004193D01*
X007516Y004218D01*
X006665Y004214D01*
X006614Y004193D01*
X006515Y004193D01*
X006467Y004213D01*
X006426Y004213D01*
X006378Y004193D01*
X006279Y004193D01*
X006233Y004212D01*
X006187Y004212D01*
X006142Y004193D01*
X006042Y004193D01*
X006000Y004211D01*
X005948Y004210D01*
X005906Y004193D01*
X005806Y004193D01*
X005767Y004209D01*
X005708Y004209D01*
X005669Y004193D01*
X005570Y004193D01*
X005533Y004208D01*
X005167Y004206D01*
X004348Y005092D01*
X002070Y005092D01*
X002070Y005049D02*
X004388Y005049D01*
X004445Y004987D02*
X002070Y004987D01*
X002070Y004926D02*
X004502Y004926D01*
X004559Y004864D02*
X002070Y004864D01*
X002070Y004803D02*
X004615Y004803D01*
X004672Y004741D02*
X002070Y004741D01*
X002070Y004680D02*
X004729Y004680D01*
X004786Y004618D02*
X002070Y004618D01*
X002070Y004557D02*
X004843Y004557D01*
X004900Y004495D02*
X002070Y004495D01*
X002070Y004434D02*
X004957Y004434D01*
X005013Y004372D02*
X002070Y004372D01*
X002070Y004311D02*
X005070Y004311D01*
X005127Y004249D02*
X002070Y004249D01*
X002070Y004188D02*
X016664Y004188D01*
X016663Y004249D02*
X013560Y004249D01*
X013605Y004161D02*
X013514Y004123D01*
X013444Y004052D01*
X013406Y003961D01*
X013406Y003861D01*
X013434Y003793D01*
X013406Y003724D01*
X013406Y003625D01*
X013434Y003557D01*
X013406Y003488D01*
X013406Y003389D01*
X013434Y003320D01*
X013406Y003252D01*
X013406Y003153D01*
X013434Y003084D01*
X013406Y003016D01*
X013406Y002916D01*
X013444Y002825D01*
X013514Y002755D01*
X013605Y002717D01*
X013705Y002717D01*
X013773Y002745D01*
X013842Y002717D01*
X013941Y002717D01*
X014009Y002745D01*
X014078Y002717D01*
X014177Y002717D01*
X014246Y002745D01*
X014314Y002717D01*
X014413Y002717D01*
X014482Y002745D01*
X014550Y002717D01*
X014650Y002717D01*
X014718Y002745D01*
X014787Y002717D01*
X014886Y002717D01*
X014954Y002745D01*
X015023Y002717D01*
X015122Y002717D01*
X015214Y002755D01*
X015284Y002825D01*
X015322Y002916D01*
X015322Y003016D01*
X015294Y003084D01*
X015322Y003153D01*
X015322Y003252D01*
X015294Y003320D01*
X015322Y003389D01*
X015322Y003488D01*
X015294Y003557D01*
X015322Y003625D01*
X015322Y003724D01*
X015294Y003793D01*
X015322Y003861D01*
X015322Y003961D01*
X015284Y004052D01*
X015214Y004123D01*
X015122Y004161D01*
X015023Y004161D01*
X014954Y004132D01*
X014886Y004161D01*
X014787Y004161D01*
X014718Y004132D01*
X014650Y004161D01*
X014550Y004161D01*
X014482Y004132D01*
X014413Y004161D01*
X014314Y004161D01*
X014246Y004132D01*
X014177Y004161D01*
X014078Y004161D01*
X014009Y004132D01*
X013941Y004161D01*
X013842Y004161D01*
X013773Y004132D01*
X013705Y004161D01*
X013605Y004161D01*
X013523Y004126D02*
X002070Y004126D01*
X002070Y004065D02*
X013456Y004065D01*
X013423Y004003D02*
X002070Y004003D01*
X002070Y003942D02*
X013406Y003942D01*
X013406Y003880D02*
X002070Y003880D01*
X002070Y003819D02*
X013423Y003819D01*
X013419Y003757D02*
X002070Y003757D01*
X002070Y003696D02*
X013406Y003696D01*
X013406Y003634D02*
X002070Y003634D01*
X002070Y003573D02*
X004637Y003573D01*
X004655Y003591D02*
X004585Y003521D01*
X004547Y003429D01*
X004547Y003330D01*
X004576Y003261D01*
X004547Y003193D01*
X004547Y003094D01*
X004576Y003025D01*
X004547Y002957D01*
X004547Y002857D01*
X004576Y002789D01*
X004547Y002721D01*
X004547Y002621D01*
X004576Y002553D01*
X004547Y002484D01*
X004547Y002385D01*
X004576Y002317D01*
X004547Y002248D01*
X004547Y002149D01*
X004585Y002057D01*
X004655Y001987D01*
X004747Y001949D01*
X004847Y001949D01*
X004915Y001977D01*
X004983Y001949D01*
X005083Y001949D01*
X005151Y001977D01*
X005220Y001949D01*
X005319Y001949D01*
X005387Y001977D01*
X005456Y001949D01*
X005555Y001949D01*
X005624Y001977D01*
X005692Y001949D01*
X005791Y001949D01*
X005860Y001977D01*
X005928Y001949D01*
X006028Y001949D01*
X006096Y001977D01*
X006165Y001949D01*
X006264Y001949D01*
X006356Y001987D01*
X006426Y002057D01*
X006464Y002149D01*
X006464Y002248D01*
X006435Y002317D01*
X006464Y002385D01*
X006464Y002484D01*
X006435Y002553D01*
X006464Y002621D01*
X006464Y002721D01*
X006435Y002789D01*
X006464Y002857D01*
X006464Y002957D01*
X006435Y003025D01*
X006464Y003094D01*
X006464Y003193D01*
X006435Y003261D01*
X006464Y003330D01*
X006464Y003429D01*
X006426Y003521D01*
X006356Y003591D01*
X006264Y003629D01*
X006165Y003629D01*
X006096Y003601D01*
X006028Y003629D01*
X005928Y003629D01*
X005860Y003601D01*
X005791Y003629D01*
X005692Y003629D01*
X005624Y003601D01*
X005555Y003629D01*
X005456Y003629D01*
X005387Y003601D01*
X005319Y003629D01*
X005220Y003629D01*
X005151Y003601D01*
X005083Y003629D01*
X004983Y003629D01*
X004915Y003601D01*
X004847Y003629D01*
X004747Y003629D01*
X004655Y003591D01*
X004581Y003512D02*
X002070Y003512D01*
X002070Y003450D02*
X004556Y003450D01*
X004547Y003389D02*
X002070Y003389D01*
X002070Y003327D02*
X004548Y003327D01*
X004574Y003266D02*
X002070Y003266D01*
X002070Y003204D02*
X004552Y003204D01*
X004547Y003143D02*
X002070Y003143D01*
X002070Y003081D02*
X004552Y003081D01*
X004573Y003020D02*
X002070Y003020D01*
X002070Y002958D02*
X004548Y002958D01*
X004547Y002897D02*
X002070Y002897D01*
X002070Y002835D02*
X004557Y002835D01*
X004569Y002774D02*
X002070Y002774D01*
X002070Y002712D02*
X004547Y002712D01*
X004547Y002651D02*
X003811Y002651D01*
X003812Y002650D02*
X003721Y002688D01*
X003621Y002688D01*
X003553Y002660D01*
X003484Y002688D01*
X003385Y002688D01*
X003317Y002660D01*
X003248Y002688D01*
X003149Y002688D01*
X003080Y002660D01*
X003012Y002688D01*
X002913Y002688D01*
X002844Y002660D01*
X002776Y002688D01*
X002676Y002688D01*
X002585Y002650D01*
X002514Y002580D01*
X002476Y002488D01*
X002476Y002389D01*
X002514Y002297D01*
X002585Y002227D01*
X002676Y002189D01*
X002776Y002189D01*
X002844Y002217D01*
X002913Y002189D01*
X002949Y002189D01*
X002949Y002153D01*
X002987Y002061D01*
X003057Y001991D01*
X003149Y001953D01*
X003248Y001953D01*
X003317Y001981D01*
X003385Y001953D01*
X003484Y001953D01*
X003553Y001981D01*
X003621Y001953D01*
X003721Y001953D01*
X003812Y001991D01*
X003882Y002061D01*
X003920Y002153D01*
X003920Y002252D01*
X003892Y002320D01*
X003920Y002389D01*
X003920Y002488D01*
X003882Y002580D01*
X003812Y002650D01*
X003873Y002589D02*
X004561Y002589D01*
X004565Y002528D02*
X003904Y002528D01*
X003920Y002466D02*
X004547Y002466D01*
X004547Y002405D02*
X003920Y002405D01*
X003902Y002343D02*
X004565Y002343D01*
X004561Y002282D02*
X003908Y002282D01*
X003920Y002220D02*
X004547Y002220D01*
X004547Y002159D02*
X003920Y002159D01*
X003897Y002097D02*
X004569Y002097D01*
X004607Y002036D02*
X003857Y002036D01*
X003772Y001974D02*
X004686Y001974D01*
X004908Y001974D02*
X004922Y001974D01*
X005144Y001974D02*
X005158Y001974D01*
X005380Y001974D02*
X005395Y001974D01*
X005616Y001974D02*
X005631Y001974D01*
X005853Y001974D02*
X005867Y001974D01*
X006089Y001974D02*
X006103Y001974D01*
X006325Y001974D02*
X006849Y001974D01*
X006825Y001998D02*
X006896Y001928D01*
X006987Y001890D01*
X007087Y001890D01*
X007155Y001918D01*
X007224Y001890D01*
X007323Y001890D01*
X007391Y001918D01*
X007460Y001890D01*
X007559Y001890D01*
X007628Y001918D01*
X007696Y001890D01*
X007795Y001890D01*
X007864Y001918D01*
X007932Y001890D01*
X008032Y001890D01*
X008100Y001918D01*
X008168Y001890D01*
X008268Y001890D01*
X008336Y001918D01*
X008405Y001890D01*
X008504Y001890D01*
X008596Y001928D01*
X008666Y001998D01*
X008704Y002090D01*
X008704Y002189D01*
X008676Y002257D01*
X008704Y002326D01*
X008704Y002425D01*
X008676Y002494D01*
X008704Y002562D01*
X008704Y002661D01*
X008676Y002730D01*
X008704Y002798D01*
X008704Y002898D01*
X008676Y002966D01*
X008704Y003035D01*
X008704Y003134D01*
X008676Y003202D01*
X008704Y003271D01*
X008704Y003370D01*
X008666Y003462D01*
X008596Y003532D01*
X008504Y003570D01*
X008405Y003570D01*
X008336Y003542D01*
X008268Y003570D01*
X008168Y003570D01*
X008100Y003542D01*
X008032Y003570D01*
X007932Y003570D01*
X007864Y003542D01*
X007795Y003570D01*
X007696Y003570D01*
X007628Y003542D01*
X007559Y003570D01*
X007460Y003570D01*
X007391Y003542D01*
X007323Y003570D01*
X007224Y003570D01*
X007155Y003542D01*
X007087Y003570D01*
X006987Y003570D01*
X006896Y003532D01*
X006825Y003462D01*
X006787Y003370D01*
X006787Y003271D01*
X006816Y003202D01*
X006787Y003134D01*
X006787Y003035D01*
X006816Y002966D01*
X006787Y002898D01*
X006787Y002798D01*
X006816Y002730D01*
X006787Y002661D01*
X006787Y002562D01*
X006816Y002494D01*
X006787Y002425D01*
X006787Y002326D01*
X006816Y002257D01*
X006787Y002189D01*
X006787Y002090D01*
X006825Y001998D01*
X006810Y002036D02*
X006404Y002036D01*
X006442Y002097D02*
X006787Y002097D01*
X006787Y002159D02*
X006464Y002159D01*
X006464Y002220D02*
X006800Y002220D01*
X006806Y002282D02*
X006450Y002282D01*
X006446Y002343D02*
X006787Y002343D01*
X006787Y002405D02*
X006464Y002405D01*
X006464Y002466D02*
X006804Y002466D01*
X006802Y002528D02*
X006446Y002528D01*
X006451Y002589D02*
X006787Y002589D01*
X006787Y002651D02*
X006464Y002651D01*
X006464Y002712D02*
X006808Y002712D01*
X006798Y002774D02*
X006442Y002774D01*
X006455Y002835D02*
X006787Y002835D01*
X006787Y002897D02*
X006464Y002897D01*
X006463Y002958D02*
X006812Y002958D01*
X006794Y003020D02*
X006438Y003020D01*
X006459Y003081D02*
X006787Y003081D01*
X006791Y003143D02*
X006464Y003143D01*
X006459Y003204D02*
X006815Y003204D01*
X006790Y003266D02*
X006437Y003266D01*
X006463Y003327D02*
X006787Y003327D01*
X006795Y003389D02*
X006464Y003389D01*
X006455Y003450D02*
X006821Y003450D01*
X006875Y003512D02*
X006430Y003512D01*
X006374Y003573D02*
X013427Y003573D01*
X013415Y003512D02*
X008616Y003512D01*
X008671Y003450D02*
X013406Y003450D01*
X013406Y003389D02*
X008696Y003389D01*
X008704Y003327D02*
X013431Y003327D01*
X013411Y003266D02*
X008702Y003266D01*
X008676Y003204D02*
X013406Y003204D01*
X013410Y003143D02*
X008700Y003143D01*
X008704Y003081D02*
X013433Y003081D01*
X013407Y003020D02*
X008698Y003020D01*
X008679Y002958D02*
X013406Y002958D01*
X013414Y002897D02*
X008704Y002897D01*
X008704Y002835D02*
X013439Y002835D01*
X013495Y002774D02*
X008694Y002774D01*
X008683Y002712D02*
X016588Y002712D01*
X016632Y002774D02*
X015233Y002774D01*
X015288Y002835D02*
X016683Y002835D01*
X016683Y002897D02*
X015314Y002897D01*
X015322Y002958D02*
X016682Y002958D01*
X016681Y003020D02*
X015321Y003020D01*
X015295Y003081D02*
X016680Y003081D01*
X016679Y003143D02*
X015318Y003143D01*
X015322Y003204D02*
X016678Y003204D01*
X016677Y003266D02*
X015316Y003266D01*
X015296Y003327D02*
X016676Y003327D01*
X016676Y003389D02*
X015322Y003389D01*
X015322Y003450D02*
X016675Y003450D01*
X016674Y003512D02*
X015312Y003512D01*
X015300Y003573D02*
X016673Y003573D01*
X016672Y003634D02*
X015322Y003634D01*
X015322Y003696D02*
X016671Y003696D01*
X016670Y003757D02*
X015308Y003757D01*
X015305Y003819D02*
X016669Y003819D01*
X016669Y003880D02*
X015322Y003880D01*
X015322Y003942D02*
X016668Y003942D01*
X016667Y004003D02*
X015304Y004003D01*
X015272Y004065D02*
X016666Y004065D01*
X016665Y004126D02*
X015205Y004126D01*
X016543Y002651D02*
X008704Y002651D01*
X008704Y002589D02*
X016498Y002589D01*
X016459Y002528D02*
X008690Y002528D01*
X008687Y002466D02*
X009019Y002466D01*
X009022Y002469D02*
X008951Y002399D01*
X008913Y002307D01*
X008913Y002208D01*
X008942Y002139D01*
X008913Y002071D01*
X008913Y001972D01*
X008951Y001880D01*
X009022Y001810D01*
X009113Y001772D01*
X009213Y001772D01*
X009281Y001800D01*
X009350Y001772D01*
X009449Y001772D01*
X009517Y001800D01*
X009586Y001772D01*
X009685Y001772D01*
X009754Y001800D01*
X009822Y001772D01*
X009921Y001772D01*
X009990Y001800D01*
X010058Y001772D01*
X010158Y001772D01*
X010249Y001810D01*
X010320Y001880D01*
X010358Y001972D01*
X010358Y002071D01*
X010329Y002139D01*
X010358Y002208D01*
X010358Y002307D01*
X010320Y002399D01*
X010249Y002469D01*
X010158Y002507D01*
X010058Y002507D01*
X009990Y002479D01*
X009921Y002507D01*
X009822Y002507D01*
X009754Y002479D01*
X009685Y002507D01*
X009586Y002507D01*
X009517Y002479D01*
X009449Y002507D01*
X009350Y002507D01*
X009281Y002479D01*
X009213Y002507D01*
X009113Y002507D01*
X009022Y002469D01*
X008957Y002405D02*
X008704Y002405D01*
X008704Y002343D02*
X008928Y002343D01*
X008913Y002282D02*
X008686Y002282D01*
X008691Y002220D02*
X008913Y002220D01*
X008934Y002159D02*
X008704Y002159D01*
X008704Y002097D02*
X008924Y002097D01*
X008913Y002036D02*
X008682Y002036D01*
X008642Y001974D02*
X008913Y001974D01*
X008938Y001913D02*
X008559Y001913D01*
X008349Y001913D02*
X008323Y001913D01*
X008113Y001913D02*
X008087Y001913D01*
X007877Y001913D02*
X007851Y001913D01*
X007641Y001913D02*
X007615Y001913D01*
X007404Y001913D02*
X007378Y001913D01*
X007168Y001913D02*
X007142Y001913D01*
X006932Y001913D02*
X002070Y001913D01*
X002070Y001974D02*
X003097Y001974D01*
X003012Y002036D02*
X002070Y002036D01*
X002070Y002097D02*
X002972Y002097D01*
X002949Y002159D02*
X002070Y002159D01*
X002070Y002220D02*
X002601Y002220D01*
X002530Y002282D02*
X002070Y002282D01*
X002070Y002343D02*
X002495Y002343D01*
X002476Y002405D02*
X002070Y002405D01*
X002070Y002466D02*
X002476Y002466D01*
X002493Y002528D02*
X002070Y002528D01*
X002070Y002589D02*
X002524Y002589D01*
X002586Y002651D02*
X002070Y002651D01*
X003300Y001974D02*
X003333Y001974D01*
X003536Y001974D02*
X003569Y001974D01*
X003248Y001667D02*
X011294Y001667D01*
X011329Y001632D02*
X011420Y001594D01*
X011520Y001594D01*
X011588Y001623D01*
X011657Y001594D01*
X011756Y001594D01*
X011824Y001623D01*
X011893Y001594D01*
X011992Y001594D01*
X012061Y001623D01*
X012129Y001594D01*
X012228Y001594D01*
X012297Y001623D01*
X012365Y001594D01*
X012465Y001594D01*
X012556Y001632D01*
X012627Y001703D01*
X012665Y001794D01*
X012665Y001894D01*
X012636Y001962D01*
X012665Y002031D01*
X012665Y002130D01*
X012627Y002222D01*
X012556Y002292D01*
X012465Y002330D01*
X012365Y002330D01*
X012297Y002302D01*
X012228Y002330D01*
X012129Y002330D01*
X012061Y002302D01*
X011992Y002330D01*
X011893Y002330D01*
X011824Y002302D01*
X011756Y002330D01*
X011657Y002330D01*
X011588Y002302D01*
X011520Y002330D01*
X011420Y002330D01*
X011329Y002292D01*
X011258Y002222D01*
X011220Y002130D01*
X011220Y002031D01*
X011249Y001962D01*
X011220Y001894D01*
X011220Y001794D01*
X011258Y001703D01*
X011329Y001632D01*
X011394Y001605D02*
X003310Y001605D01*
X003363Y001544D02*
X015081Y001544D01*
X015056Y001482D02*
X012578Y001482D01*
X012699Y001421D02*
X015030Y001421D01*
X015005Y001359D02*
X012761Y001359D01*
X012822Y001298D02*
X014979Y001298D01*
X014973Y001236D02*
X012854Y001236D01*
X012880Y001175D02*
X014973Y001175D01*
X014973Y001113D02*
X012905Y001113D01*
X012917Y001052D02*
X014973Y001052D01*
X014973Y000990D02*
X012917Y000990D01*
X012917Y000929D02*
X014997Y000929D01*
X015023Y000867D02*
X012916Y000867D01*
X012890Y000806D02*
X015048Y000806D01*
X015074Y000744D02*
X012865Y000744D01*
X012839Y000683D02*
X015117Y000683D01*
X015179Y000621D02*
X012786Y000621D01*
X012724Y000560D02*
X015240Y000560D01*
X015310Y000498D02*
X012638Y000498D01*
X012106Y000498D02*
X009488Y000498D01*
X009575Y000560D02*
X012019Y000560D01*
X011958Y000621D02*
X009636Y000621D01*
X009690Y000683D02*
X011904Y000683D01*
X011879Y000744D02*
X009715Y000744D01*
X009741Y000806D02*
X011853Y000806D01*
X011828Y000867D02*
X009766Y000867D01*
X009767Y000929D02*
X011827Y000929D01*
X011827Y000990D02*
X009767Y000990D01*
X009767Y001052D02*
X011827Y001052D01*
X011838Y001113D02*
X009756Y001113D01*
X009730Y001175D02*
X011863Y001175D01*
X011889Y001236D02*
X009705Y001236D01*
X009673Y001298D02*
X011921Y001298D01*
X011982Y001359D02*
X009611Y001359D01*
X009550Y001421D02*
X012044Y001421D01*
X012165Y001482D02*
X009428Y001482D01*
X009492Y001790D02*
X009542Y001790D01*
X009729Y001790D02*
X009778Y001790D01*
X009965Y001790D02*
X010015Y001790D01*
X010201Y001790D02*
X011222Y001790D01*
X011220Y001851D02*
X010291Y001851D01*
X010333Y001913D02*
X011228Y001913D01*
X011244Y001974D02*
X010358Y001974D01*
X010358Y002036D02*
X011220Y002036D01*
X011220Y002097D02*
X010347Y002097D01*
X010337Y002159D02*
X011232Y002159D01*
X011258Y002220D02*
X010358Y002220D01*
X010358Y002282D02*
X011318Y002282D01*
X011248Y001728D02*
X003187Y001728D01*
X003093Y001790D02*
X009070Y001790D01*
X008980Y001851D02*
X002944Y001851D01*
X002508Y001851D02*
X002070Y001851D01*
X002070Y001790D02*
X002359Y001790D01*
X002265Y001728D02*
X002070Y001728D01*
X002070Y001667D02*
X002204Y001667D01*
X002142Y001605D02*
X002070Y001605D01*
X002070Y001544D02*
X002089Y001544D01*
X003265Y000621D02*
X005658Y000621D01*
X005605Y000683D02*
X003327Y000683D01*
X003370Y000744D02*
X005579Y000744D01*
X005554Y000806D02*
X003396Y000806D01*
X003421Y000867D02*
X005529Y000867D01*
X005528Y000929D02*
X003447Y000929D01*
X003471Y000990D02*
X005528Y000990D01*
X005528Y001052D02*
X003471Y001052D01*
X003471Y001113D02*
X005539Y001113D01*
X005564Y001175D02*
X003471Y001175D01*
X003471Y001236D02*
X005590Y001236D01*
X005622Y001298D02*
X003465Y001298D01*
X003440Y001359D02*
X005683Y001359D01*
X005745Y001421D02*
X003414Y001421D01*
X003389Y001482D02*
X005866Y001482D01*
X006279Y001482D02*
X009016Y001482D01*
X008894Y001421D02*
X006400Y001421D01*
X006462Y001359D02*
X008833Y001359D01*
X008771Y001298D02*
X006523Y001298D01*
X006555Y001236D02*
X008739Y001236D01*
X008714Y001175D02*
X006581Y001175D01*
X006606Y001113D02*
X008688Y001113D01*
X008677Y001052D02*
X006617Y001052D01*
X006617Y000990D02*
X008677Y000990D01*
X008677Y000929D02*
X006617Y000929D01*
X006616Y000867D02*
X008678Y000867D01*
X008704Y000806D02*
X006591Y000806D01*
X006565Y000744D02*
X008729Y000744D01*
X008755Y000683D02*
X006540Y000683D01*
X006486Y000621D02*
X008808Y000621D01*
X008870Y000560D02*
X006425Y000560D01*
X006339Y000498D02*
X008956Y000498D01*
X009256Y001790D02*
X009306Y001790D01*
X010252Y002466D02*
X016439Y002466D01*
X016419Y002405D02*
X010314Y002405D01*
X010343Y002343D02*
X016399Y002343D01*
X016379Y002282D02*
X012567Y002282D01*
X012627Y002220D02*
X016374Y002220D01*
X016374Y002159D02*
X012653Y002159D01*
X012665Y002097D02*
X016374Y002097D01*
X016374Y002036D02*
X012665Y002036D01*
X012641Y001974D02*
X016374Y001974D01*
X016374Y001913D02*
X012657Y001913D01*
X012665Y001851D02*
X015500Y001851D01*
X015351Y001790D02*
X012663Y001790D01*
X012637Y001728D02*
X015258Y001728D01*
X015196Y001667D02*
X012591Y001667D01*
X012491Y001605D02*
X015135Y001605D01*
X015937Y001851D02*
X016374Y001851D01*
X016374Y001790D02*
X016085Y001790D01*
X016179Y001728D02*
X016374Y001728D01*
X016374Y001667D02*
X016240Y001667D01*
X016302Y001605D02*
X016374Y001605D01*
X016374Y001544D02*
X016355Y001544D01*
X012339Y001605D02*
X012254Y001605D01*
X012103Y001605D02*
X012018Y001605D01*
X011867Y001605D02*
X011782Y001605D01*
X011631Y001605D02*
X011546Y001605D01*
X005806Y000498D02*
X003134Y000498D01*
X003204Y000560D02*
X005720Y000560D01*
X006033Y006608D02*
X002070Y006608D01*
X002070Y013765D01*
X002095Y013706D01*
X002304Y013496D01*
X002578Y013383D01*
X002874Y013383D01*
X003148Y013496D01*
X003357Y013706D01*
X003471Y013979D01*
X003471Y014276D01*
X003357Y014550D01*
X003148Y014759D01*
X003089Y014783D01*
X015355Y014783D01*
X015296Y014759D01*
X015087Y014550D01*
X014973Y014276D01*
X014973Y013979D01*
X015087Y013706D01*
X015296Y013496D01*
X015570Y013383D01*
X015866Y013383D01*
X016140Y013496D01*
X016350Y013706D01*
X016374Y013765D01*
X016374Y013348D01*
X016284Y013385D01*
X016184Y013385D01*
X016092Y013347D01*
X016022Y013277D01*
X015984Y013185D01*
X015984Y013086D01*
X016022Y012994D01*
X016092Y012924D01*
X016184Y012886D01*
X016284Y012886D01*
X016375Y012924D01*
X016392Y012941D01*
X016464Y012721D01*
X016635Y012485D01*
X016668Y012461D01*
X016604Y007494D01*
X014537Y007494D01*
X013750Y006647D01*
X008439Y006628D01*
X008439Y007041D01*
X006033Y007041D01*
X006033Y006608D01*
X006033Y006648D02*
X002070Y006648D01*
X002070Y006709D02*
X006033Y006709D01*
X006033Y006771D02*
X002070Y006771D01*
X002070Y006832D02*
X006033Y006832D01*
X006033Y006894D02*
X002070Y006894D01*
X002070Y006955D02*
X006033Y006955D01*
X006033Y007017D02*
X005208Y007017D01*
X005177Y007004D02*
X005269Y007042D01*
X005339Y007112D01*
X005377Y007204D01*
X005377Y007303D01*
X005339Y007395D01*
X005269Y007465D01*
X005177Y007503D01*
X005078Y007503D01*
X004986Y007465D01*
X004916Y007395D01*
X004878Y007303D01*
X004878Y007204D01*
X004916Y007112D01*
X004986Y007042D01*
X005078Y007004D01*
X005177Y007004D01*
X005047Y007017D02*
X002070Y007017D01*
X002070Y007078D02*
X004950Y007078D01*
X004905Y007140D02*
X002070Y007140D01*
X002070Y007201D02*
X004879Y007201D01*
X004878Y007263D02*
X002414Y007263D01*
X002398Y007256D02*
X002489Y007294D01*
X002560Y007364D01*
X002598Y007456D01*
X002598Y007555D01*
X002560Y007647D01*
X002489Y007717D01*
X002398Y007755D01*
X002298Y007755D01*
X002207Y007717D01*
X002136Y007647D01*
X002098Y007555D01*
X002098Y007456D01*
X002136Y007364D01*
X002207Y007294D01*
X002298Y007256D01*
X002398Y007256D01*
X002282Y007263D02*
X002070Y007263D01*
X002070Y007324D02*
X002177Y007324D01*
X002128Y007386D02*
X002070Y007386D01*
X002070Y007447D02*
X002102Y007447D01*
X002098Y007509D02*
X002070Y007509D01*
X002070Y007570D02*
X002105Y007570D01*
X002130Y007631D02*
X002070Y007631D01*
X002070Y007693D02*
X002183Y007693D01*
X002070Y007754D02*
X002297Y007754D01*
X002399Y007754D02*
X010216Y007754D01*
X010228Y007759D02*
X010136Y007721D01*
X010066Y007651D01*
X010028Y007559D01*
X010028Y007460D01*
X010066Y007368D01*
X010099Y007334D01*
X010066Y007300D01*
X010028Y007209D01*
X010028Y007109D01*
X010066Y007018D01*
X010136Y006947D01*
X010228Y006909D01*
X010327Y006909D01*
X010419Y006947D01*
X010480Y007009D01*
X010541Y006947D01*
X010633Y006909D01*
X010732Y006909D01*
X010824Y006947D01*
X010894Y007018D01*
X010932Y007109D01*
X010932Y007209D01*
X010894Y007300D01*
X010824Y007371D01*
X010732Y007409D01*
X010633Y007409D01*
X010541Y007371D01*
X010480Y007309D01*
X010455Y007334D01*
X010489Y007368D01*
X010527Y007460D01*
X010527Y007559D01*
X010506Y007610D01*
X010559Y007610D01*
X010651Y007648D01*
X010721Y007718D01*
X010759Y007810D01*
X010759Y007909D01*
X010721Y008001D01*
X010651Y008071D01*
X010559Y008109D01*
X010460Y008109D01*
X010368Y008071D01*
X010298Y008001D01*
X010260Y007909D01*
X010260Y007810D01*
X010281Y007759D01*
X010228Y007759D01*
X010260Y007816D02*
X002070Y007816D01*
X002070Y007877D02*
X010260Y007877D01*
X010272Y007939D02*
X002070Y007939D01*
X002070Y008000D02*
X010298Y008000D01*
X010359Y008062D02*
X002070Y008062D01*
X002070Y008123D02*
X012186Y008123D01*
X012185Y008122D02*
X012185Y008023D01*
X012223Y007931D01*
X012293Y007861D01*
X012385Y007823D01*
X012484Y007823D01*
X012576Y007861D01*
X012646Y007931D01*
X012684Y008023D01*
X012684Y008122D01*
X012646Y008214D01*
X012576Y008284D01*
X012484Y008322D01*
X012385Y008322D01*
X012293Y008284D01*
X012223Y008214D01*
X012185Y008122D01*
X012185Y008062D02*
X010660Y008062D01*
X010721Y008000D02*
X012194Y008000D01*
X012220Y007939D02*
X010747Y007939D01*
X010759Y007877D02*
X012277Y007877D01*
X012593Y007877D02*
X013096Y007877D01*
X013112Y007861D02*
X013204Y007823D01*
X013303Y007823D01*
X013395Y007861D01*
X013465Y007931D01*
X013503Y008023D01*
X013503Y008122D01*
X013465Y008214D01*
X013395Y008284D01*
X013303Y008322D01*
X013204Y008322D01*
X013112Y008284D01*
X013042Y008214D01*
X013004Y008122D01*
X013004Y008023D01*
X013042Y007931D01*
X013112Y007861D01*
X013039Y007939D02*
X012650Y007939D01*
X012675Y008000D02*
X013013Y008000D01*
X013004Y008062D02*
X012684Y008062D01*
X012684Y008123D02*
X013005Y008123D01*
X013030Y008185D02*
X012658Y008185D01*
X012614Y008246D02*
X013075Y008246D01*
X013170Y008308D02*
X012518Y008308D01*
X012351Y008308D02*
X008893Y008308D01*
X008902Y008317D02*
X008940Y008409D01*
X008940Y008508D01*
X008902Y008600D01*
X008832Y008670D01*
X008740Y008708D01*
X008641Y008708D01*
X008549Y008670D01*
X008479Y008600D01*
X008441Y008508D01*
X008441Y008409D01*
X008479Y008317D01*
X008549Y008247D01*
X008641Y008209D01*
X008740Y008209D01*
X008832Y008247D01*
X008902Y008317D01*
X008924Y008369D02*
X016615Y008369D01*
X016614Y008308D02*
X013337Y008308D01*
X013433Y008246D02*
X016614Y008246D01*
X016613Y008185D02*
X013477Y008185D01*
X013503Y008123D02*
X016612Y008123D01*
X016611Y008062D02*
X013503Y008062D01*
X013494Y008000D02*
X016611Y008000D01*
X016610Y007939D02*
X013468Y007939D01*
X013412Y007877D02*
X016609Y007877D01*
X016608Y007816D02*
X010759Y007816D01*
X010736Y007754D02*
X016607Y007754D01*
X016607Y007693D02*
X010696Y007693D01*
X010610Y007631D02*
X016606Y007631D01*
X016605Y007570D02*
X010522Y007570D01*
X010527Y007509D02*
X016604Y007509D01*
X016616Y008431D02*
X008940Y008431D01*
X008940Y008492D02*
X016617Y008492D01*
X016618Y008554D02*
X008921Y008554D01*
X008886Y008615D02*
X016618Y008615D01*
X016619Y008677D02*
X008815Y008677D01*
X008631Y008797D02*
X008560Y008727D01*
X008469Y008689D01*
X008369Y008689D01*
X008278Y008727D01*
X008207Y008797D01*
X008169Y008889D01*
X008169Y008988D01*
X008207Y009080D01*
X008278Y009150D01*
X008369Y009188D01*
X008469Y009188D01*
X008560Y009150D01*
X008631Y009080D01*
X008669Y008988D01*
X008669Y008889D01*
X008631Y008797D01*
X008632Y008800D02*
X016621Y008800D01*
X016622Y008861D02*
X014169Y008861D01*
X014161Y008858D02*
X014253Y008896D01*
X014323Y008966D01*
X014361Y009058D01*
X014361Y009158D01*
X014323Y009249D01*
X014253Y009319D01*
X014161Y009357D01*
X014062Y009357D01*
X013970Y009319D01*
X013900Y009249D01*
X013862Y009158D01*
X013862Y009058D01*
X013900Y008966D01*
X013970Y008896D01*
X014062Y008858D01*
X014161Y008858D01*
X014055Y008861D02*
X010049Y008861D01*
X010037Y008849D02*
X010107Y008919D01*
X010145Y009011D01*
X010145Y009110D01*
X010107Y009202D01*
X010037Y009272D01*
X009945Y009310D01*
X009846Y009310D01*
X009754Y009272D01*
X009684Y009202D01*
X009646Y009110D01*
X009646Y009011D01*
X009684Y008919D01*
X009754Y008849D01*
X009846Y008811D01*
X009945Y008811D01*
X010037Y008849D01*
X010108Y008923D02*
X013944Y008923D01*
X013893Y008984D02*
X010134Y008984D01*
X010145Y009046D02*
X013867Y009046D01*
X013862Y009107D02*
X010413Y009107D01*
X010382Y009094D02*
X010474Y009132D01*
X010544Y009203D01*
X010582Y009294D01*
X010582Y009394D01*
X010544Y009485D01*
X010474Y009556D01*
X010382Y009594D01*
X010283Y009594D01*
X010191Y009556D01*
X010121Y009485D01*
X010083Y009394D01*
X010083Y009294D01*
X010121Y009203D01*
X010191Y009132D01*
X010283Y009094D01*
X010382Y009094D01*
X010252Y009107D02*
X010145Y009107D01*
X010155Y009169D02*
X010121Y009169D01*
X010109Y009230D02*
X010079Y009230D01*
X010084Y009292D02*
X009989Y009292D01*
X010083Y009353D02*
X004649Y009353D01*
X004665Y009315D02*
X004627Y009407D01*
X004556Y009477D01*
X004465Y009515D01*
X004365Y009515D01*
X004274Y009477D01*
X004203Y009407D01*
X004165Y009315D01*
X004165Y009216D01*
X004203Y009124D01*
X004274Y009054D01*
X004365Y009016D01*
X004465Y009016D01*
X004556Y009054D01*
X004627Y009124D01*
X004665Y009216D01*
X004665Y009315D01*
X004665Y009292D02*
X009801Y009292D01*
X009712Y009230D02*
X004665Y009230D01*
X004645Y009169D02*
X008322Y009169D01*
X008235Y009107D02*
X004610Y009107D01*
X004537Y009046D02*
X008193Y009046D01*
X008169Y008984D02*
X002070Y008984D01*
X002070Y008923D02*
X008169Y008923D01*
X008181Y008861D02*
X002070Y008861D01*
X002070Y008800D02*
X008206Y008800D01*
X008266Y008738D02*
X004481Y008738D01*
X004513Y008725D02*
X004421Y008763D01*
X004322Y008763D01*
X004230Y008725D01*
X004160Y008655D01*
X004122Y008563D01*
X004122Y008464D01*
X004160Y008372D01*
X004230Y008302D01*
X004322Y008264D01*
X004421Y008264D01*
X004513Y008302D01*
X004583Y008372D01*
X004621Y008464D01*
X004621Y008563D01*
X004583Y008655D01*
X004513Y008725D01*
X004561Y008677D02*
X008566Y008677D01*
X008572Y008738D02*
X016620Y008738D01*
X016622Y008923D02*
X014280Y008923D01*
X014331Y008984D02*
X016623Y008984D01*
X016624Y009046D02*
X014356Y009046D01*
X014361Y009107D02*
X016625Y009107D01*
X016626Y009169D02*
X014357Y009169D01*
X014331Y009230D02*
X016626Y009230D01*
X016627Y009292D02*
X014281Y009292D01*
X014297Y009415D02*
X010573Y009415D01*
X010582Y009353D02*
X014052Y009353D01*
X014172Y009353D02*
X016628Y009353D01*
X016629Y009415D02*
X014517Y009415D01*
X014548Y009428D02*
X014619Y009498D01*
X014657Y009590D01*
X014657Y009689D01*
X014619Y009781D01*
X014548Y009851D01*
X014457Y009889D01*
X014357Y009889D01*
X014266Y009851D01*
X014196Y009781D01*
X014158Y009689D01*
X014158Y009590D01*
X014196Y009498D01*
X014266Y009428D01*
X014357Y009390D01*
X014457Y009390D01*
X014548Y009428D01*
X014597Y009476D02*
X016630Y009476D01*
X016630Y009538D02*
X014635Y009538D01*
X014657Y009599D02*
X016631Y009599D01*
X016632Y009661D02*
X014657Y009661D01*
X014643Y009722D02*
X016633Y009722D01*
X016634Y009784D02*
X014616Y009784D01*
X014554Y009845D02*
X016634Y009845D01*
X016635Y009907D02*
X009448Y009907D01*
X009448Y009865D02*
X009410Y009774D01*
X009340Y009703D01*
X009248Y009665D01*
X009149Y009665D01*
X009057Y009703D01*
X008987Y009774D01*
X008949Y009865D01*
X008949Y009965D01*
X008987Y010056D01*
X009057Y010127D01*
X009149Y010165D01*
X009248Y010165D01*
X009340Y010127D01*
X009410Y010056D01*
X009448Y009965D01*
X009448Y009865D01*
X009440Y009845D02*
X014260Y009845D01*
X014198Y009784D02*
X009414Y009784D01*
X009359Y009722D02*
X014171Y009722D01*
X014158Y009661D02*
X002070Y009661D01*
X002070Y009722D02*
X008003Y009722D01*
X008006Y009719D02*
X008098Y009681D01*
X008197Y009681D01*
X008289Y009719D01*
X008359Y009789D01*
X008393Y009871D01*
X008415Y009849D01*
X008507Y009811D01*
X008606Y009811D01*
X008698Y009849D01*
X008768Y009919D01*
X008806Y010011D01*
X008806Y010110D01*
X008768Y010202D01*
X008698Y010272D01*
X008606Y010310D01*
X008507Y010310D01*
X008415Y010272D01*
X008345Y010202D01*
X008311Y010120D01*
X008292Y010139D01*
X008300Y010148D01*
X008338Y010239D01*
X008338Y010339D01*
X008300Y010430D01*
X008230Y010501D01*
X008138Y010539D01*
X008039Y010539D01*
X008019Y010531D01*
X008008Y010556D01*
X007938Y010627D01*
X007847Y010665D01*
X007747Y010665D01*
X007716Y010651D01*
X007709Y010667D01*
X007639Y010737D01*
X007547Y010775D01*
X007448Y010775D01*
X007356Y010737D01*
X007286Y010667D01*
X007248Y010575D01*
X007248Y010476D01*
X007286Y010384D01*
X007356Y010314D01*
X007448Y010276D01*
X005490Y010276D01*
X005512Y010253D02*
X005467Y010299D01*
X005491Y010357D01*
X005491Y010394D01*
X005528Y010394D01*
X005600Y010424D01*
X005652Y010373D01*
X005743Y010335D01*
X005843Y010335D01*
X005934Y010373D01*
X006005Y010443D01*
X006043Y010535D01*
X006043Y010571D01*
X006059Y010571D01*
X006151Y010609D01*
X006221Y010679D01*
X006230Y010700D01*
X006255Y010689D01*
X006354Y010689D01*
X006446Y010727D01*
X006516Y010797D01*
X006554Y010889D01*
X006554Y010988D01*
X006516Y011080D01*
X006446Y011150D01*
X006354Y011188D01*
X006255Y011188D01*
X006163Y011150D01*
X006093Y011080D01*
X006085Y011059D01*
X006059Y011070D01*
X006031Y011070D01*
X006115Y011105D01*
X006186Y011175D01*
X006224Y011267D01*
X006224Y011366D01*
X006186Y011458D01*
X006115Y011528D01*
X006024Y011566D01*
X005924Y011566D01*
X005833Y011528D01*
X005762Y011458D01*
X005724Y011366D01*
X005724Y011267D01*
X005762Y011175D01*
X005833Y011105D01*
X005924Y011067D01*
X005952Y011067D01*
X005868Y011032D01*
X005798Y010962D01*
X005760Y010870D01*
X005760Y010834D01*
X005743Y010834D01*
X005671Y010804D01*
X005619Y010855D01*
X005528Y010893D01*
X005428Y010893D01*
X005337Y010855D01*
X005266Y010785D01*
X005228Y010693D01*
X005228Y010657D01*
X005192Y010657D01*
X005100Y010619D01*
X005030Y010548D01*
X004992Y010457D01*
X004992Y010357D01*
X005030Y010266D01*
X005076Y010220D01*
X005051Y010161D01*
X005051Y010062D01*
X005089Y009970D01*
X005159Y009900D01*
X005251Y009862D01*
X005350Y009862D01*
X005442Y009900D01*
X005512Y009970D01*
X005550Y010062D01*
X005550Y010161D01*
X005512Y010253D01*
X005529Y010214D02*
X007645Y010214D01*
X007655Y010203D02*
X007747Y010165D01*
X007847Y010165D01*
X007866Y010173D01*
X007877Y010148D01*
X007944Y010080D01*
X007936Y010072D01*
X007898Y009980D01*
X007898Y009881D01*
X007936Y009789D01*
X008006Y009719D01*
X007941Y009784D02*
X002070Y009784D01*
X002070Y009845D02*
X007913Y009845D01*
X007898Y009907D02*
X005449Y009907D01*
X005510Y009968D02*
X007898Y009968D01*
X007918Y010030D02*
X005537Y010030D01*
X005550Y010091D02*
X007933Y010091D01*
X007874Y010153D02*
X005550Y010153D01*
X005483Y010337D02*
X005737Y010337D01*
X005849Y010337D02*
X007333Y010337D01*
X007280Y010399D02*
X005960Y010399D01*
X006012Y010460D02*
X007254Y010460D01*
X007248Y010522D02*
X006037Y010522D01*
X006089Y010583D02*
X007251Y010583D01*
X007277Y010645D02*
X006187Y010645D01*
X006396Y010706D02*
X007326Y010706D01*
X007431Y010768D02*
X006487Y010768D01*
X006530Y010829D02*
X010620Y010829D01*
X010593Y010856D02*
X010663Y010786D01*
X010755Y010748D01*
X010854Y010748D01*
X010859Y010750D01*
X010888Y010679D01*
X010959Y010609D01*
X011050Y010571D01*
X011150Y010571D01*
X011154Y010573D01*
X011184Y010502D01*
X011254Y010432D01*
X011346Y010394D01*
X011445Y010394D01*
X011537Y010432D01*
X011607Y010502D01*
X011645Y010594D01*
X011645Y010693D01*
X011607Y010785D01*
X011537Y010855D01*
X011445Y010893D01*
X011346Y010893D01*
X011341Y010891D01*
X011312Y010962D01*
X011241Y011032D01*
X011150Y011070D01*
X011050Y011070D01*
X011046Y011068D01*
X011016Y011139D01*
X010946Y011209D01*
X010854Y011247D01*
X010755Y011247D01*
X010663Y011209D01*
X010593Y011139D01*
X010555Y011047D01*
X010555Y010948D01*
X010593Y010856D01*
X010579Y010891D02*
X006554Y010891D01*
X006554Y010952D02*
X010555Y010952D01*
X010555Y011014D02*
X006544Y011014D01*
X006518Y011075D02*
X010567Y011075D01*
X010592Y011137D02*
X006744Y011137D01*
X006753Y011140D02*
X006823Y011211D01*
X006861Y011302D01*
X006861Y011402D01*
X006823Y011493D01*
X006753Y011564D01*
X006661Y011602D01*
X006562Y011602D01*
X006470Y011564D01*
X006400Y011493D01*
X006362Y011402D01*
X006362Y011302D01*
X006400Y011211D01*
X006470Y011140D01*
X006562Y011102D01*
X006661Y011102D01*
X006753Y011140D01*
X006811Y011198D02*
X010652Y011198D01*
X010715Y011436D02*
X010806Y011398D01*
X010906Y011398D01*
X010997Y011436D01*
X011068Y011506D01*
X011106Y011598D01*
X011106Y011635D01*
X011109Y011634D01*
X011209Y011634D01*
X011300Y011672D01*
X011371Y011742D01*
X011409Y011834D01*
X011409Y011933D01*
X011371Y012025D01*
X011300Y012095D01*
X011209Y012133D01*
X011109Y012133D01*
X011018Y012095D01*
X010947Y012025D01*
X010909Y011933D01*
X010909Y011895D01*
X010906Y011897D01*
X010806Y011897D01*
X010715Y011859D01*
X010644Y011789D01*
X010606Y011697D01*
X010606Y011598D01*
X010644Y011506D01*
X010715Y011436D01*
X010706Y011444D02*
X009018Y011444D01*
X009020Y011447D02*
X009058Y011539D01*
X009058Y011638D01*
X009020Y011730D01*
X008950Y011800D01*
X008858Y011838D01*
X008759Y011838D01*
X008667Y011800D01*
X008597Y011730D01*
X008559Y011638D01*
X008559Y011539D01*
X008597Y011447D01*
X008667Y011377D01*
X008759Y011339D01*
X008858Y011339D01*
X008950Y011377D01*
X009020Y011447D01*
X009045Y011506D02*
X010645Y011506D01*
X010619Y011567D02*
X009058Y011567D01*
X009058Y011629D02*
X010606Y011629D01*
X010606Y011690D02*
X009037Y011690D01*
X008998Y011751D02*
X010629Y011751D01*
X010669Y011813D02*
X008918Y011813D01*
X008699Y011813D02*
X002935Y011813D01*
X002938Y011812D02*
X002847Y011850D01*
X002747Y011850D01*
X002655Y011812D01*
X002585Y011741D01*
X002547Y011650D01*
X002547Y011550D01*
X002585Y011459D01*
X002655Y011388D01*
X002747Y011350D01*
X002847Y011350D01*
X002938Y011388D01*
X003008Y011459D01*
X003046Y011550D01*
X003046Y011650D01*
X003008Y011741D01*
X002938Y011812D01*
X002998Y011751D02*
X007757Y011751D01*
X007766Y011760D02*
X007696Y011690D01*
X007658Y011598D01*
X007658Y011499D01*
X007696Y011407D01*
X007766Y011337D01*
X007857Y011299D01*
X007957Y011299D01*
X008048Y011337D01*
X008119Y011407D01*
X008157Y011499D01*
X008157Y011598D01*
X008119Y011690D01*
X008581Y011690D01*
X008559Y011629D02*
X008144Y011629D01*
X008157Y011567D02*
X008559Y011567D01*
X008573Y011506D02*
X008157Y011506D01*
X008134Y011444D02*
X008600Y011444D01*
X008661Y011383D02*
X008094Y011383D01*
X008009Y011321D02*
X013728Y011321D01*
X013734Y011327D02*
X013664Y011257D01*
X013626Y011165D01*
X013626Y011109D01*
X013550Y011109D01*
X013459Y011071D01*
X013388Y011001D01*
X013350Y010909D01*
X013350Y010810D01*
X013388Y010718D01*
X013459Y010648D01*
X013550Y010610D01*
X013650Y010610D01*
X013741Y010648D01*
X013812Y010718D01*
X013850Y010810D01*
X013850Y010866D01*
X013925Y010866D01*
X014017Y010904D01*
X014087Y010974D01*
X014125Y011066D01*
X014125Y011165D01*
X014087Y011257D01*
X014017Y011327D01*
X013925Y011365D01*
X013826Y011365D01*
X013734Y011327D01*
X013666Y011260D02*
X006844Y011260D01*
X006861Y011321D02*
X007805Y011321D01*
X007720Y011383D02*
X006861Y011383D01*
X006844Y011444D02*
X007680Y011444D01*
X007658Y011506D02*
X006811Y011506D01*
X006745Y011567D02*
X007658Y011567D01*
X007670Y011629D02*
X003046Y011629D01*
X003046Y011567D02*
X006479Y011567D01*
X006412Y011506D02*
X006138Y011506D01*
X006191Y011444D02*
X006380Y011444D01*
X006362Y011383D02*
X006217Y011383D01*
X006224Y011321D02*
X006362Y011321D01*
X006380Y011260D02*
X006221Y011260D01*
X006195Y011198D02*
X006413Y011198D01*
X006460Y011137D02*
X006480Y011137D01*
X006150Y011137D02*
X006147Y011137D01*
X006091Y011075D02*
X006043Y011075D01*
X005905Y011075D02*
X002070Y011075D01*
X002070Y011014D02*
X005850Y011014D01*
X005794Y010952D02*
X002070Y010952D01*
X002070Y010891D02*
X005423Y010891D01*
X005533Y010891D02*
X005768Y010891D01*
X005732Y010829D02*
X005645Y010829D01*
X005311Y010829D02*
X002070Y010829D01*
X002070Y010768D02*
X005259Y010768D01*
X005234Y010706D02*
X002070Y010706D01*
X002070Y010645D02*
X005163Y010645D01*
X005065Y010583D02*
X002070Y010583D01*
X002070Y010522D02*
X005019Y010522D01*
X004994Y010460D02*
X002070Y010460D01*
X002070Y010399D02*
X004992Y010399D01*
X005001Y010337D02*
X002070Y010337D01*
X002070Y010276D02*
X005026Y010276D01*
X005073Y010214D02*
X002070Y010214D01*
X002070Y010153D02*
X005051Y010153D01*
X005051Y010091D02*
X002070Y010091D01*
X002070Y010030D02*
X005065Y010030D01*
X005091Y009968D02*
X002070Y009968D01*
X002070Y009907D02*
X005153Y009907D01*
X004619Y009415D02*
X010091Y009415D01*
X010117Y009476D02*
X004557Y009476D01*
X004273Y009476D02*
X002070Y009476D01*
X002070Y009415D02*
X004211Y009415D01*
X004181Y009353D02*
X002070Y009353D01*
X002070Y009292D02*
X004165Y009292D01*
X004165Y009230D02*
X002070Y009230D01*
X002070Y009169D02*
X004185Y009169D01*
X004220Y009107D02*
X002070Y009107D01*
X002070Y009046D02*
X004293Y009046D01*
X004263Y008738D02*
X002070Y008738D01*
X002070Y008677D02*
X004182Y008677D01*
X004144Y008615D02*
X002070Y008615D01*
X002070Y008554D02*
X004122Y008554D01*
X004122Y008492D02*
X002070Y008492D01*
X002070Y008431D02*
X004136Y008431D01*
X004163Y008369D02*
X002070Y008369D01*
X002070Y008308D02*
X004224Y008308D01*
X004519Y008308D02*
X008488Y008308D01*
X008457Y008369D02*
X004581Y008369D01*
X004608Y008431D02*
X008441Y008431D01*
X008441Y008492D02*
X004621Y008492D01*
X004621Y008554D02*
X008460Y008554D01*
X008495Y008615D02*
X004600Y008615D01*
X004968Y007447D02*
X002594Y007447D01*
X002598Y007509D02*
X010028Y007509D01*
X010032Y007570D02*
X002592Y007570D01*
X002566Y007631D02*
X010058Y007631D01*
X010108Y007693D02*
X002514Y007693D01*
X002569Y007386D02*
X004912Y007386D01*
X004887Y007324D02*
X002520Y007324D01*
X002070Y008185D02*
X012211Y008185D01*
X012256Y008246D02*
X008831Y008246D01*
X008550Y008246D02*
X002070Y008246D01*
X002070Y009538D02*
X010173Y009538D01*
X010492Y009538D02*
X014179Y009538D01*
X014158Y009599D02*
X002070Y009599D01*
X002070Y011137D02*
X005801Y011137D01*
X005753Y011198D02*
X002070Y011198D01*
X002070Y011260D02*
X005727Y011260D01*
X005724Y011321D02*
X002070Y011321D01*
X002070Y011383D02*
X002670Y011383D01*
X002600Y011444D02*
X002070Y011444D01*
X002070Y011506D02*
X002566Y011506D01*
X002547Y011567D02*
X002070Y011567D01*
X002070Y011629D02*
X002547Y011629D01*
X002564Y011690D02*
X002070Y011690D01*
X002070Y011751D02*
X002595Y011751D01*
X002659Y011813D02*
X002070Y011813D01*
X002070Y011874D02*
X010752Y011874D01*
X010911Y011936D02*
X002070Y011936D01*
X002070Y011997D02*
X010936Y011997D01*
X010982Y012059D02*
X002070Y012059D01*
X002070Y012120D02*
X011079Y012120D01*
X011239Y012120D02*
X012119Y012120D01*
X012129Y012143D02*
X012091Y012051D01*
X012091Y011964D01*
X012050Y011964D01*
X011959Y011926D01*
X011888Y011856D01*
X011850Y011764D01*
X011850Y011665D01*
X011888Y011573D01*
X011959Y011503D01*
X012050Y011465D01*
X012150Y011465D01*
X012241Y011503D01*
X012312Y011573D01*
X012350Y011665D01*
X012350Y011752D01*
X012390Y011752D01*
X012482Y011790D01*
X012552Y011860D01*
X012590Y011952D01*
X012590Y011988D01*
X012626Y011988D01*
X012718Y012026D01*
X012788Y012096D01*
X012826Y012188D01*
X012826Y012287D01*
X012862Y012287D01*
X012954Y012325D01*
X013024Y012396D01*
X013062Y012487D01*
X013062Y012524D01*
X013098Y012524D01*
X013190Y012562D01*
X013260Y012632D01*
X013298Y012724D01*
X013298Y012823D01*
X013260Y012915D01*
X013190Y012985D01*
X013098Y013023D01*
X012999Y013023D01*
X012907Y012985D01*
X012837Y012915D01*
X012799Y012823D01*
X012799Y012787D01*
X012763Y012787D01*
X012671Y012749D01*
X012601Y012678D01*
X012563Y012587D01*
X012563Y012487D01*
X012527Y012487D01*
X012435Y012449D01*
X012365Y012379D01*
X012327Y012287D01*
X012327Y012251D01*
X012291Y012251D01*
X012199Y012213D01*
X012129Y012143D01*
X012168Y012182D02*
X002070Y012182D01*
X002070Y012243D02*
X012272Y012243D01*
X012334Y012305D02*
X002070Y012305D01*
X002070Y012366D02*
X008457Y012366D01*
X008423Y012381D02*
X008515Y012343D01*
X008614Y012343D01*
X008706Y012381D01*
X008776Y012451D01*
X008814Y012542D01*
X008814Y012642D01*
X008776Y012734D01*
X008706Y012804D01*
X008614Y012842D01*
X008515Y012842D01*
X008423Y012804D01*
X008353Y012734D01*
X008315Y012642D01*
X008315Y012542D01*
X008353Y012451D01*
X008423Y012381D01*
X008376Y012428D02*
X002070Y012428D01*
X002070Y012489D02*
X008337Y012489D01*
X008315Y012551D02*
X002070Y012551D01*
X002070Y012612D02*
X008315Y012612D01*
X008328Y012674D02*
X002070Y012674D01*
X002070Y012735D02*
X008355Y012735D01*
X008416Y012797D02*
X002070Y012797D01*
X002070Y012858D02*
X009761Y012858D01*
X009766Y012844D02*
X009837Y012774D01*
X009928Y012736D01*
X010028Y012736D01*
X010119Y012774D01*
X010190Y012844D01*
X010228Y012936D01*
X010228Y013035D01*
X010190Y013127D01*
X010119Y013197D01*
X010028Y013235D01*
X009928Y013235D01*
X009837Y013197D01*
X009766Y013127D01*
X009728Y013035D01*
X009728Y012936D01*
X009766Y012844D01*
X009814Y012797D02*
X009500Y012797D01*
X009493Y012804D02*
X009402Y012842D01*
X009302Y012842D01*
X009211Y012804D01*
X009140Y012734D01*
X009102Y012642D01*
X009102Y012542D01*
X009140Y012451D01*
X009211Y012381D01*
X009302Y012343D01*
X009402Y012343D01*
X009493Y012381D01*
X009564Y012451D01*
X009602Y012542D01*
X009602Y012642D01*
X009564Y012734D01*
X009493Y012804D01*
X009562Y012735D02*
X010764Y012735D01*
X010748Y012775D02*
X010786Y012683D01*
X010856Y012613D01*
X010948Y012575D01*
X011047Y012575D01*
X011139Y012613D01*
X011209Y012683D01*
X011247Y012775D01*
X011247Y012874D01*
X011209Y012966D01*
X011139Y013036D01*
X011047Y013074D01*
X010948Y013074D01*
X010856Y013036D01*
X010786Y012966D01*
X010748Y012874D01*
X010748Y012775D01*
X010748Y012797D02*
X010142Y012797D01*
X010195Y012858D02*
X010748Y012858D01*
X010767Y012920D02*
X010221Y012920D01*
X010228Y012981D02*
X010802Y012981D01*
X010873Y013043D02*
X010225Y013043D01*
X010199Y013104D02*
X015984Y013104D01*
X015984Y013166D02*
X010151Y013166D01*
X010047Y013227D02*
X016002Y013227D01*
X016034Y013289D02*
X002070Y013289D01*
X002070Y013350D02*
X016100Y013350D01*
X016085Y013473D02*
X016374Y013473D01*
X016374Y013412D02*
X015937Y013412D01*
X016179Y013535D02*
X016374Y013535D01*
X016374Y013596D02*
X016240Y013596D01*
X016302Y013658D02*
X016374Y013658D01*
X016374Y013719D02*
X016355Y013719D01*
X016367Y013350D02*
X016374Y013350D01*
X016002Y013043D02*
X011123Y013043D01*
X011194Y012981D02*
X012904Y012981D01*
X012842Y012920D02*
X011228Y012920D01*
X011247Y012858D02*
X012814Y012858D01*
X012799Y012797D02*
X011247Y012797D01*
X011231Y012735D02*
X012658Y012735D01*
X012599Y012674D02*
X011200Y012674D01*
X011138Y012612D02*
X012574Y012612D01*
X012563Y012551D02*
X009602Y012551D01*
X009602Y012612D02*
X010857Y012612D01*
X010795Y012674D02*
X009588Y012674D01*
X009580Y012489D02*
X012563Y012489D01*
X012414Y012428D02*
X009541Y012428D01*
X009459Y012366D02*
X012360Y012366D01*
X012094Y012059D02*
X011337Y012059D01*
X011382Y011997D02*
X012091Y011997D01*
X011983Y011936D02*
X011408Y011936D01*
X011409Y011874D02*
X011907Y011874D01*
X011871Y011813D02*
X011400Y011813D01*
X011375Y011751D02*
X011850Y011751D01*
X011850Y011690D02*
X011319Y011690D01*
X011106Y011629D02*
X011865Y011629D01*
X011894Y011567D02*
X011093Y011567D01*
X011067Y011506D02*
X011956Y011506D01*
X012244Y011506D02*
X016656Y011506D01*
X016657Y011567D02*
X012306Y011567D01*
X012335Y011629D02*
X016657Y011629D01*
X016658Y011690D02*
X012350Y011690D01*
X012350Y011751D02*
X016659Y011751D01*
X016660Y011813D02*
X012505Y011813D01*
X012558Y011874D02*
X016661Y011874D01*
X016661Y011936D02*
X012583Y011936D01*
X012648Y011997D02*
X016662Y011997D01*
X016663Y012059D02*
X012751Y012059D01*
X012798Y012120D02*
X016664Y012120D01*
X016665Y012182D02*
X012823Y012182D01*
X012826Y012243D02*
X016665Y012243D01*
X016666Y012305D02*
X012905Y012305D01*
X012995Y012366D02*
X016667Y012366D01*
X016668Y012428D02*
X013871Y012428D01*
X013899Y012440D02*
X013969Y012510D01*
X014007Y012602D01*
X014007Y012701D01*
X013969Y012793D01*
X013899Y012863D01*
X013807Y012901D01*
X013708Y012901D01*
X013616Y012863D01*
X013546Y012793D01*
X013508Y012701D01*
X013508Y012602D01*
X013546Y012510D01*
X013616Y012440D01*
X013708Y012402D01*
X013807Y012402D01*
X013899Y012440D01*
X013949Y012489D02*
X016632Y012489D01*
X016635Y012485D02*
X016635Y012485D01*
X016588Y012551D02*
X015005Y012551D01*
X015021Y012558D02*
X015091Y012628D01*
X015129Y012720D01*
X015129Y012819D01*
X015091Y012911D01*
X015021Y012981D01*
X014929Y013019D01*
X014830Y013019D01*
X014738Y012981D01*
X014668Y012911D01*
X014630Y012819D01*
X014630Y012720D01*
X014668Y012628D01*
X014738Y012558D01*
X014830Y012520D01*
X014929Y012520D01*
X015021Y012558D01*
X015076Y012612D02*
X016543Y012612D01*
X016498Y012674D02*
X015110Y012674D01*
X015129Y012735D02*
X016459Y012735D01*
X016439Y012797D02*
X015129Y012797D01*
X015113Y012858D02*
X016419Y012858D01*
X016399Y012920D02*
X016366Y012920D01*
X016102Y012920D02*
X015082Y012920D01*
X015020Y012981D02*
X016035Y012981D01*
X015500Y013412D02*
X008300Y013412D01*
X008293Y013404D02*
X008363Y013474D01*
X008401Y013566D01*
X008401Y013665D01*
X008363Y013757D01*
X008293Y013827D01*
X008201Y013865D01*
X008102Y013865D01*
X008010Y013827D01*
X007940Y013757D01*
X007938Y013754D01*
X007926Y013785D01*
X007856Y013855D01*
X007764Y013893D01*
X007665Y013893D01*
X007573Y013855D01*
X007537Y013819D01*
X007486Y013871D01*
X007394Y013909D01*
X007294Y013909D01*
X007203Y013871D01*
X007133Y013800D01*
X007095Y013709D01*
X007095Y013609D01*
X007133Y013518D01*
X007203Y013447D01*
X007294Y013409D01*
X007394Y013409D01*
X007486Y013447D01*
X007521Y013483D01*
X007573Y013432D01*
X007665Y013394D01*
X007764Y013394D01*
X007856Y013432D01*
X007926Y013502D01*
X007927Y013505D01*
X007940Y013474D01*
X008010Y013404D01*
X008102Y013366D01*
X008201Y013366D01*
X008293Y013404D01*
X008362Y013473D02*
X014240Y013473D01*
X014246Y013467D02*
X014338Y013429D01*
X014437Y013429D01*
X014529Y013467D01*
X014599Y013537D01*
X014637Y013629D01*
X014637Y013728D01*
X014599Y013820D01*
X014529Y013890D01*
X014437Y013928D01*
X014338Y013928D01*
X014246Y013890D01*
X014176Y013820D01*
X014138Y013728D01*
X014138Y013629D01*
X014176Y013537D01*
X014246Y013467D01*
X014178Y013535D02*
X008388Y013535D01*
X008401Y013596D02*
X014151Y013596D01*
X014138Y013658D02*
X008401Y013658D01*
X008379Y013719D02*
X014138Y013719D01*
X014159Y013781D02*
X008339Y013781D01*
X008257Y013842D02*
X014198Y013842D01*
X014278Y013904D02*
X007406Y013904D01*
X007283Y013904D02*
X003440Y013904D01*
X003465Y013965D02*
X014979Y013965D01*
X014973Y014027D02*
X003471Y014027D01*
X003471Y014088D02*
X014973Y014088D01*
X014973Y014150D02*
X003471Y014150D01*
X003471Y014211D02*
X014973Y014211D01*
X014973Y014273D02*
X003471Y014273D01*
X003447Y014334D02*
X014997Y014334D01*
X015023Y014396D02*
X003421Y014396D01*
X003396Y014457D02*
X015048Y014457D01*
X015074Y014519D02*
X003370Y014519D01*
X003327Y014580D02*
X015117Y014580D01*
X015179Y014642D02*
X003265Y014642D01*
X003204Y014703D02*
X015240Y014703D01*
X015310Y014765D02*
X003134Y014765D01*
X003414Y013842D02*
X007174Y013842D01*
X007124Y013781D02*
X003389Y013781D01*
X003363Y013719D02*
X007099Y013719D01*
X007095Y013658D02*
X003310Y013658D01*
X003248Y013596D02*
X007100Y013596D01*
X007125Y013535D02*
X003187Y013535D01*
X003093Y013473D02*
X007177Y013473D01*
X007289Y013412D02*
X002944Y013412D01*
X002508Y013412D02*
X002070Y013412D01*
X002070Y013473D02*
X002359Y013473D01*
X002265Y013535D02*
X002070Y013535D01*
X002070Y013596D02*
X002204Y013596D01*
X002142Y013658D02*
X002070Y013658D01*
X002070Y013719D02*
X002089Y013719D01*
X002070Y013227D02*
X009909Y013227D01*
X009805Y013166D02*
X002070Y013166D01*
X002070Y013104D02*
X009757Y013104D01*
X009731Y013043D02*
X002070Y013043D01*
X002070Y012981D02*
X009728Y012981D01*
X009735Y012920D02*
X002070Y012920D01*
X003030Y011690D02*
X007695Y011690D01*
X007766Y011760D02*
X007857Y011798D01*
X007957Y011798D01*
X008048Y011760D01*
X008119Y011690D01*
X008057Y011751D02*
X008619Y011751D01*
X008956Y011383D02*
X016654Y011383D01*
X016655Y011444D02*
X011006Y011444D01*
X010957Y011198D02*
X013640Y011198D01*
X013626Y011137D02*
X011017Y011137D01*
X011043Y011075D02*
X013467Y011075D01*
X013401Y011014D02*
X011260Y011014D01*
X011316Y010952D02*
X013368Y010952D01*
X013350Y010891D02*
X011451Y010891D01*
X011563Y010829D02*
X013350Y010829D01*
X013368Y010768D02*
X011614Y010768D01*
X011639Y010706D02*
X013401Y010706D01*
X013467Y010645D02*
X011645Y010645D01*
X011641Y010583D02*
X014075Y010583D01*
X014075Y010542D02*
X014075Y010642D01*
X014113Y010734D01*
X014183Y010804D01*
X014275Y010842D01*
X014374Y010842D01*
X014466Y010804D01*
X014536Y010734D01*
X014574Y010642D01*
X014574Y010542D01*
X014536Y010451D01*
X014466Y010381D01*
X014374Y010343D01*
X014275Y010343D01*
X014183Y010381D01*
X014113Y010451D01*
X014075Y010542D01*
X014083Y010522D02*
X011615Y010522D01*
X011565Y010460D02*
X014109Y010460D01*
X014165Y010399D02*
X011457Y010399D01*
X011334Y010399D02*
X011160Y010399D01*
X011176Y010358D02*
X011138Y010450D01*
X011068Y010520D01*
X010976Y010558D01*
X010877Y010558D01*
X010785Y010520D01*
X010715Y010450D01*
X010677Y010358D01*
X010677Y010259D01*
X010715Y010167D01*
X010785Y010097D01*
X010877Y010059D01*
X010976Y010059D01*
X011068Y010097D01*
X011138Y010167D01*
X011176Y010259D01*
X011176Y010358D01*
X011176Y010337D02*
X016641Y010337D01*
X016640Y010276D02*
X011176Y010276D01*
X011158Y010214D02*
X016639Y010214D01*
X016638Y010153D02*
X011124Y010153D01*
X011054Y010091D02*
X016638Y010091D01*
X016637Y010030D02*
X009421Y010030D01*
X009447Y009968D02*
X016636Y009968D01*
X016641Y010399D02*
X014484Y010399D01*
X014540Y010460D02*
X016642Y010460D01*
X016643Y010522D02*
X014565Y010522D01*
X014574Y010583D02*
X016644Y010583D01*
X016645Y010645D02*
X014573Y010645D01*
X014547Y010706D02*
X016645Y010706D01*
X016646Y010768D02*
X014502Y010768D01*
X014405Y010829D02*
X016647Y010829D01*
X016648Y010891D02*
X013984Y010891D01*
X014065Y010952D02*
X016649Y010952D01*
X016649Y011014D02*
X014103Y011014D01*
X014125Y011075D02*
X016650Y011075D01*
X016651Y011137D02*
X014125Y011137D01*
X014112Y011198D02*
X016652Y011198D01*
X016653Y011260D02*
X014085Y011260D01*
X014023Y011321D02*
X016653Y011321D01*
X018474Y011175D02*
X016506Y009206D01*
X014982Y009069D02*
X014860Y009159D01*
X014217Y009476D02*
X010548Y009476D01*
X010581Y009292D02*
X013943Y009292D01*
X013892Y009230D02*
X010555Y009230D01*
X010510Y009169D02*
X013867Y009169D01*
X013883Y009545D02*
X013824Y009604D01*
X013226Y009167D02*
X013167Y009226D01*
X013733Y010645D02*
X014076Y010645D01*
X014101Y010706D02*
X013799Y010706D01*
X013832Y010768D02*
X014147Y010768D01*
X014244Y010829D02*
X013850Y010829D01*
X013644Y012428D02*
X013038Y012428D01*
X013062Y012489D02*
X013566Y012489D01*
X013529Y012551D02*
X013164Y012551D01*
X013241Y012612D02*
X013508Y012612D01*
X013508Y012674D02*
X013278Y012674D01*
X013298Y012735D02*
X013522Y012735D01*
X013550Y012797D02*
X013298Y012797D01*
X013284Y012858D02*
X013612Y012858D01*
X013903Y012858D02*
X014646Y012858D01*
X014630Y012797D02*
X013965Y012797D01*
X013993Y012735D02*
X014630Y012735D01*
X014649Y012674D02*
X014007Y012674D01*
X014007Y012612D02*
X014683Y012612D01*
X014755Y012551D02*
X013986Y012551D01*
X014171Y012651D02*
X014289Y012592D01*
X014677Y012920D02*
X013255Y012920D01*
X013194Y012981D02*
X014739Y012981D01*
X014535Y013473D02*
X015351Y013473D01*
X015258Y013535D02*
X014596Y013535D01*
X014623Y013596D02*
X015196Y013596D01*
X015135Y013658D02*
X014637Y013658D01*
X014637Y013719D02*
X015081Y013719D01*
X015056Y013781D02*
X014615Y013781D01*
X014577Y013842D02*
X015030Y013842D01*
X015005Y013904D02*
X014497Y013904D01*
X011454Y012828D02*
X011395Y012828D01*
X009204Y012797D02*
X008713Y012797D01*
X008774Y012735D02*
X009142Y012735D01*
X009116Y012674D02*
X008801Y012674D01*
X008814Y012612D02*
X009102Y012612D01*
X009102Y012551D02*
X008814Y012551D01*
X008792Y012489D02*
X009124Y012489D01*
X009163Y012428D02*
X008753Y012428D01*
X008672Y012366D02*
X009245Y012366D01*
X008002Y013412D02*
X007807Y013412D01*
X007897Y013473D02*
X007941Y013473D01*
X007621Y013412D02*
X007399Y013412D01*
X007511Y013473D02*
X007531Y013473D01*
X007927Y013781D02*
X007963Y013781D01*
X008046Y013842D02*
X007868Y013842D01*
X007560Y013842D02*
X007514Y013842D01*
X005810Y011506D02*
X003028Y011506D01*
X002994Y011444D02*
X005757Y011444D01*
X005731Y011383D02*
X002924Y011383D01*
X005540Y010399D02*
X005626Y010399D01*
X007448Y010276D02*
X007547Y010276D01*
X007579Y010289D01*
X007585Y010274D01*
X007655Y010203D01*
X007584Y010276D02*
X007547Y010276D01*
X007895Y010645D02*
X010923Y010645D01*
X010877Y010706D02*
X007670Y010706D01*
X007565Y010768D02*
X010708Y010768D01*
X011021Y010583D02*
X007982Y010583D01*
X008179Y010522D02*
X010789Y010522D01*
X010725Y010460D02*
X008270Y010460D01*
X008313Y010399D02*
X010694Y010399D01*
X010677Y010337D02*
X008338Y010337D01*
X008338Y010276D02*
X008424Y010276D01*
X008357Y010214D02*
X008327Y010214D01*
X008325Y010153D02*
X008302Y010153D01*
X008382Y009845D02*
X008425Y009845D01*
X008353Y009784D02*
X008983Y009784D01*
X008957Y009845D02*
X008689Y009845D01*
X008756Y009907D02*
X008949Y009907D01*
X008950Y009968D02*
X008789Y009968D01*
X008806Y010030D02*
X008976Y010030D01*
X009022Y010091D02*
X008806Y010091D01*
X008789Y010153D02*
X009120Y010153D01*
X009277Y010153D02*
X010730Y010153D01*
X010696Y010214D02*
X008756Y010214D01*
X008690Y010276D02*
X010677Y010276D01*
X010800Y010091D02*
X009375Y010091D01*
X009038Y009722D02*
X008292Y009722D01*
X008515Y009169D02*
X009670Y009169D01*
X009646Y009107D02*
X008603Y009107D01*
X008645Y009046D02*
X009646Y009046D01*
X009657Y008984D02*
X008669Y008984D01*
X008669Y008923D02*
X009682Y008923D01*
X009742Y008861D02*
X008657Y008861D01*
X010033Y007447D02*
X005287Y007447D01*
X005343Y007386D02*
X010058Y007386D01*
X010089Y007324D02*
X005369Y007324D01*
X005377Y007263D02*
X010050Y007263D01*
X010028Y007201D02*
X005376Y007201D01*
X005351Y007140D02*
X010028Y007140D01*
X010041Y007078D02*
X005305Y007078D01*
X008439Y007017D02*
X010067Y007017D01*
X010128Y006955D02*
X008439Y006955D01*
X008439Y006894D02*
X011123Y006894D01*
X011155Y006861D02*
X011247Y006823D01*
X011347Y006823D01*
X011438Y006861D01*
X011508Y006931D01*
X011518Y006953D01*
X011530Y006923D01*
X011600Y006853D01*
X011692Y006815D01*
X011791Y006815D01*
X011883Y006853D01*
X011953Y006923D01*
X011991Y007015D01*
X011991Y007114D01*
X011953Y007206D01*
X011883Y007276D01*
X011791Y007314D01*
X011692Y007314D01*
X011600Y007276D01*
X011530Y007206D01*
X011521Y007184D01*
X011508Y007214D01*
X011438Y007284D01*
X011347Y007322D01*
X011247Y007322D01*
X011155Y007284D01*
X011085Y007214D01*
X011047Y007122D01*
X011047Y007023D01*
X011085Y006931D01*
X011155Y006861D01*
X011225Y006832D02*
X008439Y006832D01*
X008439Y006771D02*
X013864Y006771D01*
X013922Y006832D02*
X011833Y006832D01*
X011924Y006894D02*
X013268Y006894D01*
X013274Y006888D02*
X013365Y006850D01*
X013465Y006850D01*
X013556Y006888D01*
X013627Y006959D01*
X013665Y007050D01*
X013665Y007150D01*
X013627Y007241D01*
X013556Y007312D01*
X013465Y007350D01*
X013365Y007350D01*
X013274Y007312D01*
X013203Y007241D01*
X013165Y007150D01*
X013165Y007050D01*
X013203Y006959D01*
X013274Y006888D01*
X013207Y006955D02*
X011967Y006955D01*
X011991Y007017D02*
X013179Y007017D01*
X013165Y007078D02*
X011991Y007078D01*
X011981Y007140D02*
X013165Y007140D01*
X013187Y007201D02*
X011955Y007201D01*
X011897Y007263D02*
X013225Y007263D01*
X013304Y007324D02*
X010871Y007324D01*
X010910Y007263D02*
X011134Y007263D01*
X011080Y007201D02*
X010932Y007201D01*
X010932Y007140D02*
X011055Y007140D01*
X011047Y007078D02*
X010919Y007078D01*
X010893Y007017D02*
X011050Y007017D01*
X011075Y006955D02*
X010832Y006955D01*
X010534Y006955D02*
X010426Y006955D01*
X010465Y007324D02*
X010495Y007324D01*
X010496Y007386D02*
X010577Y007386D01*
X010521Y007447D02*
X014494Y007447D01*
X014436Y007386D02*
X010788Y007386D01*
X011460Y007263D02*
X011587Y007263D01*
X011528Y007201D02*
X011514Y007201D01*
X011471Y006894D02*
X011560Y006894D01*
X011651Y006832D02*
X011369Y006832D01*
X012277Y007399D02*
X012277Y007458D01*
X013526Y007324D02*
X014379Y007324D01*
X014322Y007263D02*
X013605Y007263D01*
X013643Y007201D02*
X014265Y007201D01*
X014208Y007140D02*
X013665Y007140D01*
X013665Y007078D02*
X014150Y007078D01*
X014093Y007017D02*
X013651Y007017D01*
X013623Y006955D02*
X014036Y006955D01*
X013979Y006894D02*
X013562Y006894D01*
X013807Y006709D02*
X008439Y006709D01*
X008439Y006648D02*
X013750Y006648D01*
X010923Y009403D02*
X010864Y009462D01*
X010923Y009462D01*
X011128Y010460D02*
X011225Y010460D01*
X011176Y010522D02*
X011065Y010522D01*
X018474Y011175D02*
X018828Y011175D01*
D16*
X020935Y007238D02*
X014734Y007238D01*
X013946Y006352D01*
X013848Y005761D01*
X015620Y005565D01*
X017950Y005565D01*
X018027Y005596D01*
X018134Y005596D01*
X018211Y005565D01*
X018836Y005565D01*
X018913Y005596D01*
X019019Y005596D01*
X019096Y005565D01*
X020935Y005565D01*
X020935Y007238D01*
X020935Y007237D02*
X014734Y007237D01*
X014646Y007139D02*
X020935Y007139D01*
X020935Y007040D02*
X014559Y007040D01*
X014471Y006942D02*
X020935Y006942D01*
X020935Y006843D02*
X014383Y006843D01*
X014296Y006745D02*
X020935Y006745D01*
X020935Y006646D02*
X014208Y006646D01*
X014121Y006548D02*
X020935Y006548D01*
X020935Y006449D02*
X014033Y006449D01*
X013946Y006351D02*
X020935Y006351D01*
X020935Y006252D02*
X013930Y006252D01*
X013913Y006154D02*
X020935Y006154D01*
X020935Y006055D02*
X013897Y006055D01*
X013881Y005957D02*
X020935Y005957D01*
X020935Y005858D02*
X013864Y005858D01*
X013861Y005760D02*
X020935Y005760D01*
X020935Y005661D02*
X014747Y005661D01*
X015532Y004972D02*
X004693Y004972D01*
X004779Y004873D02*
X005492Y004873D01*
X005525Y004907D02*
X005392Y004773D01*
X005392Y004584D01*
X005415Y004561D01*
X005392Y004537D01*
X005392Y004348D01*
X005414Y004325D01*
X005261Y004324D01*
X004380Y005328D01*
X002049Y005328D01*
X002049Y006273D01*
X016604Y006273D01*
X016582Y005568D01*
X016127Y005568D01*
X016010Y005451D01*
X015321Y004762D01*
X015321Y004377D01*
X008795Y004343D01*
X008801Y004348D01*
X008801Y004537D01*
X008777Y004561D01*
X008801Y004584D01*
X008801Y004773D01*
X008667Y004907D01*
X008478Y004907D01*
X008454Y004883D01*
X008431Y004907D01*
X008242Y004907D01*
X008218Y004883D01*
X008195Y004907D01*
X008006Y004907D01*
X007982Y004883D01*
X007958Y004907D01*
X007769Y004907D01*
X007746Y004883D01*
X007722Y004907D01*
X007533Y004907D01*
X007399Y004773D01*
X007399Y004584D01*
X007423Y004561D01*
X007399Y004537D01*
X007399Y004348D01*
X007412Y004336D01*
X006777Y004332D01*
X006793Y004348D01*
X006793Y004537D01*
X006769Y004561D01*
X006793Y004584D01*
X006793Y004773D01*
X006659Y004907D01*
X006470Y004907D01*
X006446Y004883D01*
X006423Y004907D01*
X006234Y004907D01*
X006210Y004883D01*
X006187Y004907D01*
X005998Y004907D01*
X005974Y004883D01*
X005950Y004907D01*
X005761Y004907D01*
X005738Y004883D01*
X005714Y004907D01*
X005525Y004907D01*
X005393Y004775D02*
X004866Y004775D01*
X004952Y004676D02*
X005392Y004676D01*
X005398Y004578D02*
X005039Y004578D01*
X005125Y004479D02*
X005392Y004479D01*
X005392Y004381D02*
X005212Y004381D01*
X004606Y005070D02*
X015630Y005070D01*
X015729Y005169D02*
X004520Y005169D01*
X004433Y005267D02*
X015827Y005267D01*
X015926Y005366D02*
X002049Y005366D01*
X002049Y005464D02*
X016024Y005464D01*
X016123Y005563D02*
X002049Y005563D01*
X002049Y005661D02*
X016585Y005661D01*
X016588Y005760D02*
X002049Y005760D01*
X002049Y005858D02*
X016591Y005858D01*
X016594Y005957D02*
X002049Y005957D01*
X002049Y006055D02*
X016597Y006055D01*
X016600Y006154D02*
X002049Y006154D01*
X002049Y006252D02*
X016603Y006252D01*
X016210Y005368D02*
X020935Y005368D01*
X020935Y003057D01*
X020365Y003057D01*
X020403Y003073D01*
X020529Y003198D01*
X020596Y003362D01*
X020596Y003539D01*
X020529Y003703D01*
X020403Y003828D01*
X020240Y003896D01*
X020063Y003896D01*
X019899Y003828D01*
X019774Y003703D01*
X019706Y003539D01*
X019706Y003362D01*
X019774Y003198D01*
X019899Y003073D01*
X019937Y003057D01*
X017231Y003057D01*
X017144Y003057D01*
X016862Y002965D01*
X016622Y002791D01*
X016622Y002791D01*
X016447Y002551D01*
X016447Y002551D01*
X016356Y002268D01*
X016356Y001578D01*
X016151Y001783D01*
X015870Y001899D01*
X015566Y001899D01*
X015521Y001880D01*
X015521Y004679D01*
X016210Y005368D01*
X016209Y005366D02*
X020935Y005366D01*
X020935Y005267D02*
X016110Y005267D01*
X016012Y005169D02*
X020935Y005169D01*
X020935Y005070D02*
X015913Y005070D01*
X015815Y004972D02*
X020935Y004972D01*
X020935Y004873D02*
X015716Y004873D01*
X015618Y004775D02*
X020935Y004775D01*
X020935Y004676D02*
X015521Y004676D01*
X015521Y004578D02*
X020935Y004578D01*
X020935Y004479D02*
X015521Y004479D01*
X015521Y004381D02*
X020935Y004381D01*
X020935Y004282D02*
X015521Y004282D01*
X015521Y004184D02*
X020935Y004184D01*
X020935Y004085D02*
X015521Y004085D01*
X015521Y003987D02*
X020935Y003987D01*
X020935Y003888D02*
X020257Y003888D01*
X020441Y003790D02*
X020935Y003790D01*
X020935Y003691D02*
X020533Y003691D01*
X020574Y003593D02*
X020935Y003593D01*
X020935Y003494D02*
X020596Y003494D01*
X020596Y003396D02*
X020935Y003396D01*
X020935Y003297D02*
X020570Y003297D01*
X020529Y003199D02*
X020935Y003199D01*
X020935Y003100D02*
X020431Y003100D01*
X019871Y003100D02*
X015521Y003100D01*
X015521Y003002D02*
X016975Y003002D01*
X016862Y002965D02*
X016862Y002965D01*
X016777Y002903D02*
X015521Y002903D01*
X015521Y002805D02*
X016641Y002805D01*
X016622Y002791D02*
X016622Y002791D01*
X016561Y002706D02*
X015521Y002706D01*
X015521Y002608D02*
X016489Y002608D01*
X016434Y002509D02*
X015521Y002509D01*
X015521Y002411D02*
X016402Y002411D01*
X016370Y002312D02*
X015521Y002312D01*
X015521Y002214D02*
X016356Y002214D01*
X016356Y002115D02*
X015521Y002115D01*
X015521Y002017D02*
X016356Y002017D01*
X016356Y001918D02*
X015521Y001918D01*
X016060Y001820D02*
X016356Y001820D01*
X016356Y001721D02*
X016212Y001721D01*
X016310Y001623D02*
X016356Y001623D01*
X017144Y003057D02*
X017144Y003057D01*
X015521Y003199D02*
X019773Y003199D01*
X019733Y003297D02*
X015521Y003297D01*
X015521Y003396D02*
X019706Y003396D01*
X019706Y003494D02*
X015521Y003494D01*
X015521Y003593D02*
X019728Y003593D01*
X019769Y003691D02*
X015521Y003691D01*
X015521Y003790D02*
X019861Y003790D01*
X020045Y003888D02*
X015521Y003888D01*
X015321Y004381D02*
X008801Y004381D01*
X008801Y004479D02*
X015321Y004479D01*
X015321Y004578D02*
X008794Y004578D01*
X008801Y004676D02*
X015321Y004676D01*
X015335Y004775D02*
X008799Y004775D01*
X008700Y004873D02*
X015433Y004873D01*
X007500Y004873D02*
X006692Y004873D01*
X006791Y004775D02*
X007401Y004775D01*
X007399Y004676D02*
X006793Y004676D01*
X006786Y004578D02*
X007406Y004578D01*
X007399Y004479D02*
X006793Y004479D01*
X006793Y004381D02*
X007399Y004381D01*
D17*
X004584Y006057D02*
X004584Y006939D01*
D18*
X002726Y001135D03*
X015718Y001135D03*
X015718Y014128D03*
X002726Y014128D03*
M02*
