G75*
%MOIN*%
%OFA0B0*%
%FSLAX24Y24*%
%IPPOS*%
%LPD*%
%AMOC8*
5,1,8,0,0,1.08239X$1,22.5*
%
%ADD10C,0.0020*%
%ADD11C,0.0000*%
%ADD12C,0.0060*%
%ADD13C,0.0030*%
%ADD14C,0.0100*%
%ADD15R,0.0295X0.0335*%
%ADD16R,0.0354X0.0531*%
%ADD17C,0.0080*%
%ADD18C,0.0197*%
%ADD19C,0.0040*%
%ADD20R,0.0138X0.0315*%
%ADD21R,0.0118X0.0236*%
%ADD22R,0.0197X0.0108*%
%ADD23R,0.0315X0.0138*%
%ADD24R,0.0108X0.0197*%
%ADD25R,0.0236X0.0118*%
%ADD26C,0.0050*%
%ADD27C,0.0079*%
%ADD28R,0.0374X0.0197*%
%ADD29R,0.1024X0.0295*%
%ADD30R,0.0157X0.0055*%
%ADD31R,0.0630X0.0197*%
%ADD32R,0.0197X0.0630*%
D10*
X003760Y012953D02*
X003906Y012953D01*
X003833Y012953D02*
X003833Y013173D01*
X003760Y013099D01*
X003760Y013313D02*
X003870Y013313D01*
X003906Y013349D01*
X003906Y013386D01*
X003870Y013423D01*
X003760Y013423D01*
X003760Y013313D02*
X003760Y013533D01*
X003870Y013533D01*
X003906Y013496D01*
X003906Y013459D01*
X003870Y013423D01*
X003981Y013423D02*
X004017Y013459D01*
X004091Y013459D01*
X004127Y013423D01*
X004127Y013386D01*
X003981Y013386D01*
X003981Y013349D02*
X003981Y013423D01*
X003981Y013349D02*
X004017Y013313D01*
X004091Y013313D01*
X004202Y013313D02*
X004202Y013459D01*
X004312Y013459D01*
X004348Y013423D01*
X004348Y013313D01*
X004348Y013173D02*
X004202Y012953D01*
X004127Y012989D02*
X004091Y012953D01*
X004017Y012953D01*
X003981Y012989D01*
X004127Y013136D01*
X004127Y012989D01*
X003981Y012989D02*
X003981Y013136D01*
X004017Y013173D01*
X004091Y013173D01*
X004127Y013136D01*
X004423Y013099D02*
X004496Y013173D01*
X004496Y012953D01*
X004423Y012953D02*
X004569Y012953D01*
X004644Y012989D02*
X004644Y013026D01*
X004680Y013063D01*
X004754Y013063D01*
X004790Y013026D01*
X004790Y012989D01*
X004754Y012953D01*
X004680Y012953D01*
X004644Y012989D01*
X004680Y013063D02*
X004644Y013099D01*
X004644Y013136D01*
X004680Y013173D01*
X004754Y013173D01*
X004790Y013136D01*
X004790Y013099D01*
X004754Y013063D01*
X004790Y013313D02*
X004680Y013423D01*
X004644Y013386D02*
X004790Y013533D01*
X004901Y013459D02*
X004975Y013459D01*
X005011Y013423D01*
X005011Y013313D01*
X004901Y013313D01*
X004865Y013349D01*
X004901Y013386D01*
X005011Y013386D01*
X005086Y013459D02*
X005159Y013459D01*
X005122Y013496D02*
X005122Y013349D01*
X005159Y013313D01*
X005233Y013313D02*
X005380Y013313D01*
X005380Y013459D02*
X005233Y013459D01*
X005233Y013313D02*
X005380Y013459D01*
X005454Y013959D02*
X005490Y013959D01*
X005527Y013996D01*
X005527Y014179D01*
X005417Y014179D01*
X005380Y014143D01*
X005380Y014069D01*
X005417Y014033D01*
X005527Y014033D01*
X005601Y014033D02*
X005601Y014179D01*
X005601Y014106D02*
X005675Y014179D01*
X005711Y014179D01*
X005822Y014179D02*
X005895Y014179D01*
X005932Y014143D01*
X005932Y014033D01*
X005822Y014033D01*
X005785Y014069D01*
X005822Y014106D01*
X005932Y014106D01*
X006006Y014179D02*
X006080Y014179D01*
X006043Y014216D02*
X006043Y014069D01*
X006080Y014033D01*
X006154Y014069D02*
X006154Y014143D01*
X006190Y014179D01*
X006264Y014179D01*
X006300Y014143D01*
X006300Y014106D01*
X006154Y014106D01*
X006154Y014069D02*
X006190Y014033D01*
X006264Y014033D01*
X006375Y014069D02*
X006375Y014143D01*
X006411Y014179D01*
X006521Y014179D01*
X006521Y014253D02*
X006521Y014033D01*
X006411Y014033D01*
X006375Y014069D01*
X005306Y014106D02*
X005159Y014106D01*
X005159Y014069D02*
X005159Y014143D01*
X005196Y014179D01*
X005269Y014179D01*
X005306Y014143D01*
X005306Y014106D01*
X005269Y014033D02*
X005196Y014033D01*
X005159Y014069D01*
X005085Y014033D02*
X005049Y014069D01*
X005049Y014216D01*
X005085Y014179D02*
X005012Y014179D01*
X004938Y014143D02*
X004938Y014033D01*
X004938Y014143D02*
X004901Y014179D01*
X004791Y014179D01*
X004791Y014033D01*
X004717Y014033D02*
X004644Y014033D01*
X004680Y014033D02*
X004680Y014253D01*
X004644Y014253D02*
X004717Y014253D01*
X004348Y014216D02*
X004312Y014253D01*
X004238Y014253D01*
X004202Y014216D01*
X004202Y014069D01*
X004238Y014033D01*
X004312Y014033D01*
X004348Y014069D01*
X004349Y013893D02*
X004312Y013856D01*
X004349Y013893D02*
X004422Y013893D01*
X004459Y013856D01*
X004459Y013819D01*
X004312Y013673D01*
X004459Y013673D01*
X004238Y013673D02*
X004202Y013673D01*
X004202Y013709D01*
X004238Y013709D01*
X004238Y013673D01*
X004127Y013673D02*
X003981Y013673D01*
X004127Y013819D01*
X004127Y013856D01*
X004091Y013893D01*
X004017Y013893D01*
X003981Y013856D01*
X003906Y013893D02*
X003906Y013746D01*
X003833Y013673D01*
X003760Y013746D01*
X003760Y013893D01*
X003760Y014033D02*
X003760Y014253D01*
X003760Y014143D02*
X003906Y014143D01*
X003981Y014106D02*
X004127Y014253D01*
X003981Y014253D02*
X003981Y014033D01*
X003906Y014033D02*
X003906Y014253D01*
X004017Y014143D02*
X004127Y014033D01*
X004644Y013533D02*
X004644Y013313D01*
D11*
X001939Y014128D02*
X001939Y001135D01*
X001941Y001081D01*
X001946Y001028D01*
X001955Y000975D01*
X001968Y000923D01*
X001984Y000871D01*
X002004Y000821D01*
X002027Y000773D01*
X002054Y000726D01*
X002083Y000681D01*
X002116Y000638D01*
X002151Y000598D01*
X002189Y000560D01*
X002229Y000525D01*
X002272Y000492D01*
X002317Y000463D01*
X002364Y000436D01*
X002412Y000413D01*
X002462Y000393D01*
X002514Y000377D01*
X002566Y000364D01*
X002619Y000355D01*
X002672Y000350D01*
X002726Y000348D01*
X015718Y000348D01*
X015772Y000350D01*
X015825Y000355D01*
X015878Y000364D01*
X015930Y000377D01*
X015982Y000393D01*
X016032Y000413D01*
X016080Y000436D01*
X016127Y000463D01*
X016172Y000492D01*
X016215Y000525D01*
X016255Y000560D01*
X016293Y000598D01*
X016328Y000638D01*
X016361Y000681D01*
X016390Y000726D01*
X016417Y000773D01*
X016440Y000821D01*
X016460Y000871D01*
X016476Y000923D01*
X016489Y000975D01*
X016498Y001028D01*
X016503Y001081D01*
X016505Y001135D01*
X016506Y001135D02*
X016506Y002120D01*
X016508Y002174D01*
X016513Y002227D01*
X016522Y002280D01*
X016535Y002332D01*
X016551Y002384D01*
X016571Y002434D01*
X016594Y002482D01*
X016621Y002529D01*
X016650Y002574D01*
X016683Y002617D01*
X016718Y002657D01*
X016756Y002695D01*
X016796Y002730D01*
X016839Y002763D01*
X016884Y002792D01*
X016931Y002819D01*
X016979Y002842D01*
X017029Y002862D01*
X017081Y002878D01*
X017133Y002891D01*
X017186Y002900D01*
X017239Y002905D01*
X017293Y002907D01*
X021427Y002907D01*
X021427Y012356D01*
X017293Y012356D01*
X017239Y012358D01*
X017186Y012363D01*
X017133Y012372D01*
X017081Y012385D01*
X017029Y012401D01*
X016979Y012421D01*
X016931Y012444D01*
X016884Y012471D01*
X016839Y012500D01*
X016796Y012533D01*
X016756Y012568D01*
X016718Y012606D01*
X016683Y012646D01*
X016650Y012689D01*
X016621Y012734D01*
X016594Y012781D01*
X016571Y012829D01*
X016551Y012879D01*
X016535Y012931D01*
X016522Y012983D01*
X016513Y013036D01*
X016508Y013089D01*
X016506Y013143D01*
X016506Y014128D01*
X016505Y014128D02*
X016503Y014182D01*
X016498Y014235D01*
X016489Y014288D01*
X016476Y014340D01*
X016460Y014392D01*
X016440Y014442D01*
X016417Y014490D01*
X016390Y014537D01*
X016361Y014582D01*
X016328Y014625D01*
X016293Y014665D01*
X016255Y014703D01*
X016215Y014738D01*
X016172Y014771D01*
X016127Y014800D01*
X016080Y014827D01*
X016032Y014850D01*
X015982Y014870D01*
X015930Y014886D01*
X015878Y014899D01*
X015825Y014908D01*
X015772Y014913D01*
X015718Y014915D01*
X002726Y014915D01*
X002672Y014913D01*
X002619Y014908D01*
X002566Y014899D01*
X002514Y014886D01*
X002462Y014870D01*
X002412Y014850D01*
X002364Y014827D01*
X002317Y014800D01*
X002272Y014771D01*
X002229Y014738D01*
X002189Y014703D01*
X002151Y014665D01*
X002116Y014625D01*
X002083Y014582D01*
X002054Y014537D01*
X002027Y014490D01*
X002004Y014442D01*
X001984Y014392D01*
X001968Y014340D01*
X001955Y014288D01*
X001946Y014235D01*
X001941Y014182D01*
X001939Y014128D01*
X006521Y010753D02*
X004541Y008773D01*
X006521Y006793D01*
X008501Y008773D01*
X006521Y010753D01*
X006337Y010569D02*
X006253Y010484D01*
X006196Y010428D02*
X006118Y010350D01*
X006062Y010294D02*
X005977Y010209D01*
X005920Y010152D02*
X005835Y010067D01*
X005779Y010011D02*
X005701Y009933D01*
X005644Y009876D02*
X005560Y009791D01*
X005503Y009735D02*
X005418Y009650D01*
X005362Y009593D02*
X005284Y009516D01*
X005227Y009459D02*
X005142Y009374D01*
X005086Y009318D02*
X005001Y009233D01*
X004944Y009176D02*
X004867Y009098D01*
X004895Y009127D02*
X004895Y008420D01*
X004867Y008448D02*
X004944Y008370D01*
X005001Y008314D02*
X005086Y008229D01*
X005142Y008172D02*
X005227Y008087D01*
X005284Y008031D02*
X005362Y007953D01*
X005418Y007896D02*
X005503Y007812D01*
X005560Y007755D02*
X005644Y007670D01*
X005701Y007614D02*
X005779Y007536D01*
X005835Y007479D02*
X005920Y007394D01*
X005977Y007338D02*
X006062Y007253D01*
X006118Y007196D02*
X006196Y007119D01*
X006253Y007062D02*
X006337Y006977D01*
X006705Y006977D02*
X006790Y007062D01*
X006847Y007119D02*
X006924Y007196D01*
X006981Y007253D02*
X007066Y007338D01*
X007122Y007394D02*
X007207Y007479D01*
X007264Y007536D02*
X007342Y007614D01*
X007398Y007670D02*
X007483Y007755D01*
X007540Y007812D02*
X007624Y007896D01*
X007681Y007953D02*
X007759Y008031D01*
X007815Y008087D02*
X007900Y008172D01*
X007957Y008229D02*
X008042Y008314D01*
X008098Y008370D02*
X008176Y008448D01*
X008232Y008505D02*
X008317Y008589D01*
X008317Y008957D02*
X008232Y009042D01*
X008176Y009098D02*
X008098Y009176D01*
X008042Y009233D02*
X007957Y009318D01*
X007900Y009374D02*
X007815Y009459D01*
X007759Y009516D02*
X007681Y009593D01*
X007624Y009650D02*
X007540Y009735D01*
X007483Y009791D02*
X007398Y009876D01*
X007342Y009933D02*
X007264Y010011D01*
X007207Y010067D02*
X007122Y010152D01*
X007066Y010209D02*
X006981Y010294D01*
X006924Y010350D02*
X006847Y010428D01*
X006790Y010484D02*
X006705Y010569D01*
X004810Y009042D02*
X004725Y008957D01*
X004725Y008589D02*
X004810Y008505D01*
D12*
X004633Y008681D02*
X004541Y008773D01*
X004633Y008865D01*
X003098Y007613D02*
X002905Y007613D01*
X002905Y007437D02*
X003098Y007437D01*
X003106Y007137D02*
X002913Y007137D01*
X002913Y006961D02*
X003106Y006961D01*
X005567Y006843D02*
X005850Y007126D01*
X006429Y006885D02*
X006521Y006793D01*
X006613Y006885D01*
X007900Y007819D02*
X008183Y007536D01*
X008409Y008681D02*
X008501Y008773D01*
X008409Y008865D01*
X007752Y009862D02*
X008034Y010145D01*
X008965Y010677D02*
X008965Y010870D01*
X009141Y010870D02*
X009141Y010677D01*
X009480Y010677D02*
X009480Y010870D01*
X009657Y010870D02*
X009657Y010677D01*
X009315Y011496D02*
X009122Y011496D01*
X009122Y011672D02*
X009315Y011672D01*
X008393Y011708D02*
X008393Y011901D01*
X008217Y011901D02*
X008217Y011708D01*
X007923Y012076D02*
X007816Y011969D01*
X007496Y011969D01*
X007280Y011863D02*
X007280Y011756D01*
X007173Y011756D01*
X007173Y011863D01*
X007280Y011863D01*
X007280Y012076D02*
X007173Y012076D01*
X007173Y012183D01*
X007280Y012183D01*
X007280Y012076D01*
X007496Y011756D02*
X007496Y012397D01*
X007816Y012397D01*
X007923Y012290D01*
X007923Y012076D01*
X008102Y011137D02*
X008295Y011137D01*
X008295Y010961D02*
X008102Y010961D01*
X006613Y010661D02*
X006521Y010753D01*
X006429Y010661D01*
X005718Y011057D02*
X005718Y011112D01*
X005718Y011057D02*
X004537Y011057D01*
X004537Y011112D01*
X005418Y010569D02*
X005694Y010294D01*
X005718Y012183D02*
X005718Y012238D01*
X004537Y012238D01*
X004537Y012183D01*
X012476Y014374D02*
X012669Y014374D01*
X012669Y014550D02*
X012476Y014550D01*
X015919Y006081D02*
X015919Y005654D01*
X015675Y002986D02*
X015675Y002559D01*
X015888Y002773D02*
X015461Y002773D01*
X011648Y001215D02*
X011648Y000575D01*
X011434Y000788D01*
X011221Y000575D01*
X011221Y001215D01*
X008608Y001215D02*
X008608Y000788D01*
X008395Y000575D01*
X008181Y000788D01*
X008181Y001215D01*
X005396Y001215D02*
X005396Y000682D01*
X005289Y000575D01*
X005075Y000575D01*
X004969Y000682D01*
X004969Y001215D01*
X005774Y004880D02*
X005774Y005609D01*
X006733Y005609D02*
X006733Y004880D01*
X007585Y004888D02*
X007585Y005617D01*
X008545Y005617D02*
X008545Y004888D01*
D13*
X004295Y008206D02*
X004295Y008650D01*
X004295Y008206D01*
X004184Y008317D02*
X004406Y008539D01*
X004184Y008317D01*
X004073Y008428D02*
X004517Y008428D01*
X004073Y008428D01*
X004184Y008539D02*
X004406Y008317D01*
X004184Y008539D01*
D14*
X004072Y009553D02*
X003206Y009553D01*
X003206Y010104D01*
X004072Y010104D01*
X004072Y009553D01*
X006808Y013126D02*
X006954Y013126D01*
X006808Y013126D02*
X006808Y013923D01*
X006808Y014700D02*
X006808Y013126D01*
X010251Y013126D01*
X010104Y013126D01*
X010251Y013126D02*
X010251Y013923D01*
X010251Y014700D02*
X010251Y013126D01*
X010251Y014700D02*
X006808Y014700D01*
X007348Y014700D02*
X009710Y014700D01*
D15*
X004259Y009838D03*
X003019Y009838D03*
D16*
X003876Y009819D03*
D17*
X003718Y010309D02*
X002261Y010309D01*
X002261Y011962D01*
X003718Y011962D01*
X003718Y010309D01*
X003088Y010545D02*
X003088Y010594D01*
X003086Y010612D01*
X003081Y010629D01*
X003073Y010646D01*
X003062Y010660D01*
X003049Y010672D01*
X003034Y010682D01*
X003017Y010688D01*
X002999Y010692D01*
X002981Y010692D01*
X002963Y010688D01*
X002946Y010682D01*
X002931Y010672D01*
X002918Y010660D01*
X002907Y010646D01*
X002899Y010629D01*
X002894Y010612D01*
X002892Y010594D01*
X002891Y010594D02*
X002891Y010545D01*
X002448Y010939D02*
X002448Y011332D01*
X003088Y011731D02*
X003134Y011719D01*
X003179Y011703D01*
X003223Y011684D01*
X003265Y011661D01*
X003306Y011635D01*
X003344Y011606D01*
X003379Y011574D01*
X003412Y011539D01*
X003442Y011502D01*
X003469Y011462D01*
X003493Y011421D01*
X003514Y011377D01*
X003531Y011332D01*
X003531Y010939D01*
X002891Y010540D02*
X002845Y010552D01*
X002800Y010568D01*
X002756Y010587D01*
X002714Y010610D01*
X002673Y010636D01*
X002635Y010665D01*
X002600Y010697D01*
X002567Y010732D01*
X002537Y010769D01*
X002510Y010809D01*
X002486Y010850D01*
X002465Y010894D01*
X002448Y010939D01*
X003088Y010540D02*
X003134Y010552D01*
X003179Y010568D01*
X003223Y010587D01*
X003265Y010610D01*
X003306Y010636D01*
X003344Y010665D01*
X003379Y010697D01*
X003412Y010732D01*
X003442Y010769D01*
X003469Y010809D01*
X003493Y010850D01*
X003514Y010894D01*
X003531Y010939D01*
X002891Y011731D02*
X002845Y011719D01*
X002800Y011703D01*
X002756Y011684D01*
X002714Y011661D01*
X002673Y011635D01*
X002635Y011606D01*
X002600Y011574D01*
X002567Y011539D01*
X002537Y011502D01*
X002510Y011462D01*
X002486Y011421D01*
X002465Y011377D01*
X002448Y011332D01*
X002891Y011677D02*
X002891Y011726D01*
X002892Y011677D02*
X002894Y011659D01*
X002899Y011642D01*
X002907Y011625D01*
X002918Y011611D01*
X002931Y011599D01*
X002946Y011589D01*
X002963Y011583D01*
X002981Y011579D01*
X002999Y011579D01*
X003017Y011583D01*
X003034Y011589D01*
X003049Y011599D01*
X003062Y011611D01*
X003073Y011625D01*
X003081Y011642D01*
X003086Y011659D01*
X003088Y011677D01*
X003088Y011726D01*
X009151Y011943D02*
X009151Y012124D01*
X009273Y012216D01*
X009151Y012305D02*
X009151Y012124D01*
X009157Y012114D02*
X009273Y012038D01*
X010572Y012608D02*
X010572Y013002D01*
X010966Y013002D01*
X010612Y012962D02*
X010612Y009025D01*
X014549Y009025D01*
X014549Y012962D01*
X010612Y012962D01*
X013667Y014382D02*
X013789Y014474D01*
X013789Y014655D01*
X013667Y014560D02*
X013783Y014484D01*
X013789Y014474D02*
X013789Y014293D01*
X014195Y013002D02*
X014588Y013002D01*
X014588Y012608D01*
X014588Y009380D02*
X014195Y008986D01*
X010966Y008986D02*
X010572Y008986D01*
X010572Y009380D01*
D18*
X002990Y011381D03*
D19*
X003102Y012254D02*
X002531Y012254D01*
X002531Y012529D02*
X003102Y012529D01*
X002838Y012844D02*
X002504Y012844D01*
X002504Y013002D02*
X002838Y013002D01*
X004017Y011811D02*
X004017Y011476D01*
X004175Y011476D02*
X004175Y011811D01*
X004537Y012238D02*
X005718Y012238D01*
X005718Y011057D01*
X004537Y011057D01*
X004537Y012238D01*
X006108Y012456D02*
X006108Y011885D01*
X006383Y011885D02*
X006383Y012456D01*
X006628Y012452D02*
X006628Y011881D01*
X006903Y011881D02*
X006903Y012452D01*
X006803Y011017D02*
X007137Y011017D01*
X007137Y010860D02*
X006803Y010860D01*
X004720Y010714D02*
X004149Y010714D01*
X004149Y010439D02*
X004720Y010439D01*
X003437Y009328D02*
X002866Y009328D01*
X002866Y009053D02*
X003437Y009053D01*
X003712Y008746D02*
X002511Y008746D01*
X002511Y008155D02*
X003712Y008155D01*
X003840Y007303D02*
X003840Y006968D01*
X003998Y006968D02*
X003998Y007303D01*
X004435Y007444D02*
X004435Y006874D01*
X004710Y006874D02*
X004710Y007444D01*
X004360Y006047D02*
X004360Y004846D01*
X003769Y004846D02*
X003769Y006047D01*
X003553Y006047D02*
X003553Y004846D01*
X002962Y004846D02*
X002962Y006047D01*
X002726Y006047D02*
X002726Y004846D01*
X002135Y004846D02*
X002135Y006047D01*
X008880Y009193D02*
X008880Y009527D01*
X009037Y009527D02*
X009037Y009193D01*
X009537Y009582D02*
X009537Y009917D01*
X009695Y009917D02*
X009695Y009582D01*
X011135Y007582D02*
X011135Y007248D01*
X011293Y007248D02*
X011293Y007582D01*
X009744Y007415D02*
X009409Y007415D01*
X009409Y007257D02*
X009744Y007257D01*
X009765Y005929D02*
X009765Y004728D01*
X009939Y004728D02*
X009939Y005929D01*
X010529Y005929D02*
X010529Y004728D01*
X011521Y004669D02*
X011521Y005870D01*
X012112Y005870D02*
X012112Y004669D01*
X012348Y004669D02*
X012348Y005870D01*
X012939Y005870D02*
X012939Y004669D01*
X014059Y005624D02*
X015259Y005624D01*
X015259Y006214D02*
X014059Y006214D01*
X013736Y008002D02*
X013401Y008002D01*
X013401Y008159D02*
X013736Y008159D01*
X015360Y009236D02*
X015360Y009570D01*
X015517Y009570D02*
X015517Y009236D01*
X015852Y009220D02*
X015852Y009555D01*
X016009Y009555D02*
X016009Y009220D01*
X017382Y007238D02*
X018582Y007238D01*
X018582Y006647D02*
X017382Y006647D01*
X017382Y006352D02*
X018582Y006352D01*
X018582Y005761D02*
X017382Y005761D01*
X017382Y005466D02*
X018582Y005466D01*
X018582Y004876D02*
X017382Y004876D01*
X017382Y004580D02*
X018582Y004580D01*
X018582Y003990D02*
X017382Y003990D01*
X016230Y002696D02*
X016230Y002362D01*
X016072Y002362D02*
X016072Y002696D01*
X015789Y002696D02*
X015789Y002362D01*
X015632Y002362D02*
X015632Y002696D01*
X019350Y003990D02*
X020551Y003990D01*
X020551Y004580D02*
X019350Y004580D01*
X019350Y004876D02*
X020551Y004876D01*
X020551Y005466D02*
X019350Y005466D01*
X019350Y005761D02*
X020551Y005761D01*
X020551Y006352D02*
X019350Y006352D01*
X019350Y006647D02*
X020551Y006647D01*
X020551Y007238D02*
X019350Y007238D01*
X015580Y012055D02*
X015580Y012389D01*
X015423Y012389D02*
X015423Y012055D01*
X015833Y012216D02*
X015833Y012496D01*
X016168Y012496D02*
X016168Y012216D01*
X013850Y013880D02*
X013515Y013880D01*
X013515Y014037D02*
X013850Y014037D01*
X011586Y014029D02*
X011252Y014029D01*
X011252Y013872D02*
X011586Y013872D01*
X009175Y005929D02*
X009175Y004728D01*
D20*
X003397Y009191D03*
X002905Y009191D03*
X004189Y010576D03*
X004681Y010576D03*
X003063Y012391D03*
X002570Y012391D03*
D21*
X008038Y011051D03*
X008358Y011051D03*
X009057Y011586D03*
X009377Y011586D03*
X012412Y014464D03*
X012732Y014464D03*
X003161Y007527D03*
X002841Y007527D03*
X002850Y007047D03*
X003170Y007047D03*
D22*
X003919Y006993D03*
X003919Y007278D03*
X008958Y009217D03*
X008958Y009503D03*
X009616Y009607D03*
X009616Y009892D03*
X011214Y007558D03*
X011214Y007272D03*
X015439Y009260D03*
X015439Y009546D03*
X015931Y009530D03*
X015931Y009245D03*
X015502Y012079D03*
X015502Y012365D03*
X004096Y011786D03*
X004096Y011501D03*
X015710Y002672D03*
X016151Y002672D03*
X016151Y002386D03*
X015710Y002386D03*
D23*
X004572Y006913D03*
X004572Y007405D03*
X006246Y011925D03*
X006765Y011921D03*
X006765Y012413D03*
X006246Y012417D03*
D24*
X006827Y010939D03*
X007113Y010939D03*
X011276Y013950D03*
X011562Y013950D03*
X013540Y013958D03*
X013825Y013958D03*
X013711Y008080D03*
X013426Y008080D03*
X009719Y007336D03*
X009434Y007336D03*
X002814Y012923D03*
X002528Y012923D03*
D25*
X008303Y011964D03*
X008303Y011644D03*
X009055Y010934D03*
X009055Y010614D03*
X009570Y010614D03*
X009570Y010934D03*
D26*
X011970Y007872D02*
X011972Y007887D01*
X011977Y007900D01*
X011986Y007912D01*
X011997Y007922D01*
X012011Y007928D01*
X012025Y007931D01*
X012040Y007930D01*
X012054Y007925D01*
X012067Y007917D01*
X012077Y007907D01*
X012084Y007894D01*
X012088Y007879D01*
X012088Y007865D01*
X012084Y007850D01*
X012077Y007837D01*
X012067Y007827D01*
X012054Y007819D01*
X012040Y007814D01*
X012025Y007813D01*
X012011Y007816D01*
X011997Y007822D01*
X011986Y007832D01*
X011977Y007844D01*
X011972Y007857D01*
X011970Y007872D01*
X015663Y010289D02*
X015663Y011549D01*
X016293Y011549D01*
X016293Y010289D01*
X015663Y010289D01*
X015912Y012356D02*
X015914Y012374D01*
X015919Y012391D01*
X015928Y012407D01*
X015940Y012420D01*
X015955Y012430D01*
X015971Y012438D01*
X015989Y012442D01*
X016007Y012442D01*
X016025Y012438D01*
X016041Y012430D01*
X016056Y012420D01*
X016068Y012407D01*
X016077Y012391D01*
X016082Y012374D01*
X016084Y012356D01*
X016082Y012338D01*
X016077Y012321D01*
X016068Y012305D01*
X016056Y012292D01*
X016041Y012282D01*
X016025Y012274D01*
X016007Y012270D01*
X015989Y012270D01*
X015971Y012274D01*
X015955Y012282D01*
X015940Y012292D01*
X015928Y012305D01*
X015919Y012321D01*
X015914Y012338D01*
X015912Y012356D01*
X015988Y012356D02*
X015990Y012361D01*
X015994Y012365D01*
X015999Y012366D01*
X016005Y012364D01*
X016008Y012359D01*
X016008Y012353D01*
X016005Y012348D01*
X015999Y012346D01*
X015994Y012347D01*
X015990Y012351D01*
X015988Y012356D01*
X015948Y012356D02*
X015950Y012369D01*
X015955Y012382D01*
X015964Y012393D01*
X015975Y012400D01*
X015988Y012405D01*
X016001Y012406D01*
X016015Y012403D01*
X016027Y012397D01*
X016037Y012388D01*
X016044Y012376D01*
X016048Y012363D01*
X016048Y012349D01*
X016044Y012336D01*
X016037Y012324D01*
X016027Y012315D01*
X016015Y012309D01*
X016001Y012306D01*
X015988Y012307D01*
X015975Y012312D01*
X015964Y012319D01*
X015955Y012330D01*
X015950Y012343D01*
X015948Y012356D01*
X015364Y004604D02*
X013395Y004604D01*
X013395Y003620D01*
X013336Y003620D01*
X013395Y003620D02*
X013395Y002635D01*
X015364Y002635D01*
X015364Y003620D01*
X015423Y003620D01*
X015364Y003620D02*
X015364Y004604D01*
X015364Y002635D01*
X013395Y002635D02*
X013395Y004604D01*
X013120Y004092D02*
X013120Y003108D01*
X013179Y003108D01*
X013120Y003108D02*
X013120Y002124D01*
X013120Y004092D01*
X011151Y004092D01*
X011151Y003108D01*
X011092Y003108D01*
X011151Y003108D02*
X011151Y002124D01*
X013120Y002124D01*
X011151Y002124D02*
X011151Y004092D01*
X010935Y004289D02*
X010935Y003305D01*
X010994Y003305D01*
X010935Y003305D02*
X010935Y002320D01*
X010935Y004289D01*
X008966Y004289D01*
X008966Y003305D01*
X008907Y003305D01*
X008966Y003305D02*
X008966Y002320D01*
X010935Y002320D01*
X008966Y002320D02*
X008966Y004289D01*
X008750Y003876D02*
X008750Y002891D01*
X008809Y002891D01*
X008750Y002891D02*
X008750Y001907D01*
X006781Y001907D01*
X006781Y002891D01*
X006722Y002891D01*
X006781Y002891D02*
X006781Y003876D01*
X006781Y001907D01*
X006506Y001907D02*
X006506Y002891D01*
X006565Y002891D01*
X006506Y002891D02*
X006506Y003876D01*
X004537Y003876D01*
X004537Y002891D01*
X004478Y002891D01*
X004537Y002891D02*
X004537Y001907D01*
X006506Y001907D01*
X006506Y003876D01*
X006781Y003876D02*
X008750Y003876D01*
X008750Y001907D01*
X004537Y001907D02*
X004537Y003876D01*
X004439Y003462D02*
X004380Y003462D01*
X004380Y002478D01*
X004380Y004446D01*
X004380Y003462D01*
X004380Y004446D02*
X002411Y004446D01*
X002411Y003462D01*
X002352Y003462D01*
X002411Y003462D02*
X002411Y002478D01*
X004380Y002478D01*
X002411Y002478D02*
X002411Y004446D01*
D27*
X002606Y001962D02*
X002608Y001974D01*
X002613Y001985D01*
X002622Y001994D01*
X002633Y001999D01*
X002645Y002001D01*
X002657Y001999D01*
X002668Y001994D01*
X002677Y001985D01*
X002682Y001974D01*
X002684Y001962D01*
X002682Y001950D01*
X002677Y001939D01*
X002668Y001930D01*
X002657Y001925D01*
X002645Y001923D01*
X002633Y001925D01*
X002622Y001930D01*
X002613Y001939D01*
X002608Y001950D01*
X002606Y001962D01*
X006232Y004391D02*
X006234Y004403D01*
X006239Y004414D01*
X006248Y004423D01*
X006259Y004428D01*
X006271Y004430D01*
X006283Y004428D01*
X006294Y004423D01*
X006303Y004414D01*
X006308Y004403D01*
X006310Y004391D01*
X006308Y004379D01*
X006303Y004368D01*
X006294Y004359D01*
X006283Y004354D01*
X006271Y004352D01*
X006259Y004354D01*
X006248Y004359D01*
X006239Y004368D01*
X006234Y004379D01*
X006232Y004391D01*
X008476Y004391D02*
X008478Y004403D01*
X008483Y004414D01*
X008492Y004423D01*
X008503Y004428D01*
X008515Y004430D01*
X008527Y004428D01*
X008538Y004423D01*
X008547Y004414D01*
X008552Y004403D01*
X008554Y004391D01*
X008552Y004379D01*
X008547Y004368D01*
X008538Y004359D01*
X008527Y004354D01*
X008515Y004352D01*
X008503Y004354D01*
X008492Y004359D01*
X008483Y004368D01*
X008478Y004379D01*
X008476Y004391D01*
X009161Y001805D02*
X009163Y001817D01*
X009168Y001828D01*
X009177Y001837D01*
X009188Y001842D01*
X009200Y001844D01*
X009212Y001842D01*
X009223Y001837D01*
X009232Y001828D01*
X009237Y001817D01*
X009239Y001805D01*
X009237Y001793D01*
X009232Y001782D01*
X009223Y001773D01*
X009212Y001768D01*
X009200Y001766D01*
X009188Y001768D01*
X009177Y001773D01*
X009168Y001782D01*
X009163Y001793D01*
X009161Y001805D01*
X011346Y001608D02*
X011348Y001620D01*
X011353Y001631D01*
X011362Y001640D01*
X011373Y001645D01*
X011385Y001647D01*
X011397Y001645D01*
X011408Y001640D01*
X011417Y001631D01*
X011422Y001620D01*
X011424Y001608D01*
X011422Y001596D01*
X011417Y001585D01*
X011408Y001576D01*
X011397Y001571D01*
X011385Y001569D01*
X011373Y001571D01*
X011362Y001576D01*
X011353Y001585D01*
X011348Y001596D01*
X011346Y001608D01*
X015091Y005120D02*
X015093Y005132D01*
X015098Y005143D01*
X015107Y005152D01*
X015118Y005157D01*
X015130Y005159D01*
X015142Y005157D01*
X015153Y005152D01*
X015162Y005143D01*
X015167Y005132D01*
X015169Y005120D01*
X015167Y005108D01*
X015162Y005097D01*
X015153Y005088D01*
X015142Y005083D01*
X015130Y005081D01*
X015118Y005083D01*
X015107Y005088D01*
X015098Y005097D01*
X015093Y005108D01*
X015091Y005120D01*
D28*
X016000Y012127D03*
X016000Y012587D03*
D29*
X008061Y005760D03*
X008061Y004750D03*
X006250Y004742D03*
X006250Y005752D03*
D30*
X005639Y011084D03*
D31*
X004065Y005978D03*
X003258Y005978D03*
X002431Y005978D03*
X002431Y004915D03*
X003258Y004915D03*
X004065Y004915D03*
X009470Y004797D03*
X010234Y004797D03*
X010234Y005860D03*
X009470Y005860D03*
X011817Y005801D03*
X012643Y005801D03*
X012643Y004738D03*
X011817Y004738D03*
D32*
X014128Y005919D03*
X015191Y005919D03*
X017450Y006057D03*
X017450Y006943D03*
X018513Y006943D03*
X019419Y006943D03*
X019419Y006057D03*
X018513Y006057D03*
X018513Y005171D03*
X019419Y005171D03*
X020482Y005171D03*
X020482Y006057D03*
X020482Y006943D03*
X017450Y005171D03*
X017450Y004285D03*
X018513Y004285D03*
X019419Y004285D03*
X020482Y004285D03*
X003643Y008450D03*
X002580Y008450D03*
M02*
