G75*
%MOIN*%
%OFA0B0*%
%FSLAX24Y24*%
%IPPOS*%
%LPD*%
%AMOC8*
5,1,8,0,0,1.08239X$1,22.5*
%
%ADD10R,0.0120X0.0320*%
%ADD11R,0.2010X0.2010*%
%ADD12R,0.0551X0.0551*%
%ADD13C,0.0138*%
%ADD14R,0.0413X0.0425*%
%ADD15R,0.0512X0.0630*%
%ADD16R,0.0276X0.0354*%
%ADD17R,0.0425X0.0413*%
%ADD18R,0.0364X0.0291*%
%ADD19R,0.0354X0.0276*%
%ADD20R,0.0276X0.0551*%
%ADD21R,0.1969X0.1693*%
%ADD22R,0.0394X0.0087*%
%ADD23R,0.0087X0.0394*%
%ADD24R,0.0394X0.0433*%
%ADD25R,0.0291X0.0364*%
%ADD26C,0.0118*%
%ADD27R,0.0630X0.0236*%
%ADD28R,0.1063X0.0630*%
%ADD29R,0.0236X0.0610*%
%ADD30R,0.0472X0.0709*%
%ADD31R,0.0610X0.0236*%
%ADD32R,0.0709X0.0472*%
%ADD33C,0.0827*%
%ADD34R,0.0295X0.0118*%
%ADD35R,0.0535X0.0575*%
%ADD36R,0.0335X0.0177*%
%ADD37R,0.0630X0.0984*%
%ADD38R,0.0787X0.0591*%
%ADD39R,0.0591X0.0787*%
%ADD40C,0.0063*%
%ADD41C,0.0236*%
%ADD42C,0.0102*%
%ADD43C,0.0400*%
%ADD44C,0.0160*%
%ADD45C,0.0120*%
%ADD46C,0.0079*%
%ADD47C,0.0098*%
%ADD48C,0.1496*%
D10*
G36*
X004766Y006893D02*
X004681Y006978D01*
X004906Y007203D01*
X004991Y007118D01*
X004766Y006893D01*
G37*
G36*
X004632Y007027D02*
X004547Y007112D01*
X004772Y007337D01*
X004857Y007252D01*
X004632Y007027D01*
G37*
G36*
X004491Y007169D02*
X004406Y007254D01*
X004631Y007479D01*
X004716Y007394D01*
X004491Y007169D01*
G37*
G36*
X004349Y007310D02*
X004264Y007395D01*
X004489Y007620D01*
X004574Y007535D01*
X004349Y007310D01*
G37*
G36*
X004215Y007444D02*
X004130Y007529D01*
X004355Y007754D01*
X004440Y007669D01*
X004215Y007444D01*
G37*
G36*
X004073Y007586D02*
X003988Y007671D01*
X004213Y007896D01*
X004298Y007811D01*
X004073Y007586D01*
G37*
G36*
X003932Y007727D02*
X003847Y007812D01*
X004072Y008037D01*
X004157Y007952D01*
X003932Y007727D01*
G37*
G36*
X003791Y007869D02*
X003706Y007954D01*
X003931Y008179D01*
X004016Y008094D01*
X003791Y007869D01*
G37*
G36*
X003656Y008003D02*
X003571Y008088D01*
X003796Y008313D01*
X003881Y008228D01*
X003656Y008003D01*
G37*
G36*
X003515Y008144D02*
X003430Y008229D01*
X003655Y008454D01*
X003740Y008369D01*
X003515Y008144D01*
G37*
G36*
X003373Y008286D02*
X003288Y008371D01*
X003513Y008596D01*
X003598Y008511D01*
X003373Y008286D01*
G37*
G36*
X003239Y008420D02*
X003154Y008505D01*
X003379Y008730D01*
X003464Y008645D01*
X003239Y008420D01*
G37*
G36*
X003154Y009041D02*
X003239Y009126D01*
X003464Y008901D01*
X003379Y008816D01*
X003154Y009041D01*
G37*
G36*
X003288Y009176D02*
X003373Y009261D01*
X003598Y009036D01*
X003513Y008951D01*
X003288Y009176D01*
G37*
G36*
X003430Y009317D02*
X003515Y009402D01*
X003740Y009177D01*
X003655Y009092D01*
X003430Y009317D01*
G37*
G36*
X003571Y009458D02*
X003656Y009543D01*
X003881Y009318D01*
X003796Y009233D01*
X003571Y009458D01*
G37*
G36*
X003706Y009593D02*
X003791Y009678D01*
X004016Y009453D01*
X003931Y009368D01*
X003706Y009593D01*
G37*
G36*
X003847Y009734D02*
X003932Y009819D01*
X004157Y009594D01*
X004072Y009509D01*
X003847Y009734D01*
G37*
G36*
X003988Y009876D02*
X004073Y009961D01*
X004298Y009736D01*
X004213Y009651D01*
X003988Y009876D01*
G37*
G36*
X004130Y010017D02*
X004215Y010102D01*
X004440Y009877D01*
X004355Y009792D01*
X004130Y010017D01*
G37*
G36*
X004264Y010151D02*
X004349Y010236D01*
X004574Y010011D01*
X004489Y009926D01*
X004264Y010151D01*
G37*
G36*
X004406Y010293D02*
X004491Y010378D01*
X004716Y010153D01*
X004631Y010068D01*
X004406Y010293D01*
G37*
G36*
X004547Y010434D02*
X004632Y010519D01*
X004857Y010294D01*
X004772Y010209D01*
X004547Y010434D01*
G37*
G36*
X004681Y010569D02*
X004766Y010654D01*
X004991Y010429D01*
X004906Y010344D01*
X004681Y010569D01*
G37*
G36*
X005162Y010344D02*
X005077Y010429D01*
X005302Y010654D01*
X005387Y010569D01*
X005162Y010344D01*
G37*
G36*
X005297Y010209D02*
X005212Y010294D01*
X005437Y010519D01*
X005522Y010434D01*
X005297Y010209D01*
G37*
G36*
X005438Y010068D02*
X005353Y010153D01*
X005578Y010378D01*
X005663Y010293D01*
X005438Y010068D01*
G37*
G36*
X005580Y009926D02*
X005495Y010011D01*
X005720Y010236D01*
X005805Y010151D01*
X005580Y009926D01*
G37*
G36*
X005714Y009792D02*
X005629Y009877D01*
X005854Y010102D01*
X005939Y010017D01*
X005714Y009792D01*
G37*
G36*
X005855Y009651D02*
X005770Y009736D01*
X005995Y009961D01*
X006080Y009876D01*
X005855Y009651D01*
G37*
G36*
X005997Y009509D02*
X005912Y009594D01*
X006137Y009819D01*
X006222Y009734D01*
X005997Y009509D01*
G37*
G36*
X006138Y009368D02*
X006053Y009453D01*
X006278Y009678D01*
X006363Y009593D01*
X006138Y009368D01*
G37*
G36*
X006273Y009233D02*
X006188Y009318D01*
X006413Y009543D01*
X006498Y009458D01*
X006273Y009233D01*
G37*
G36*
X006414Y009092D02*
X006329Y009177D01*
X006554Y009402D01*
X006639Y009317D01*
X006414Y009092D01*
G37*
G36*
X006555Y008951D02*
X006470Y009036D01*
X006695Y009261D01*
X006780Y009176D01*
X006555Y008951D01*
G37*
G36*
X006690Y008816D02*
X006605Y008901D01*
X006830Y009126D01*
X006915Y009041D01*
X006690Y008816D01*
G37*
G36*
X006605Y008645D02*
X006690Y008730D01*
X006915Y008505D01*
X006830Y008420D01*
X006605Y008645D01*
G37*
G36*
X006470Y008511D02*
X006555Y008596D01*
X006780Y008371D01*
X006695Y008286D01*
X006470Y008511D01*
G37*
G36*
X006329Y008369D02*
X006414Y008454D01*
X006639Y008229D01*
X006554Y008144D01*
X006329Y008369D01*
G37*
G36*
X006188Y008228D02*
X006273Y008313D01*
X006498Y008088D01*
X006413Y008003D01*
X006188Y008228D01*
G37*
G36*
X006053Y008094D02*
X006138Y008179D01*
X006363Y007954D01*
X006278Y007869D01*
X006053Y008094D01*
G37*
G36*
X005912Y007952D02*
X005997Y008037D01*
X006222Y007812D01*
X006137Y007727D01*
X005912Y007952D01*
G37*
G36*
X005770Y007811D02*
X005855Y007896D01*
X006080Y007671D01*
X005995Y007586D01*
X005770Y007811D01*
G37*
G36*
X005629Y007669D02*
X005714Y007754D01*
X005939Y007529D01*
X005854Y007444D01*
X005629Y007669D01*
G37*
G36*
X005495Y007535D02*
X005580Y007620D01*
X005805Y007395D01*
X005720Y007310D01*
X005495Y007535D01*
G37*
G36*
X005353Y007394D02*
X005438Y007479D01*
X005663Y007254D01*
X005578Y007169D01*
X005353Y007394D01*
G37*
G36*
X005212Y007252D02*
X005297Y007337D01*
X005522Y007112D01*
X005437Y007027D01*
X005212Y007252D01*
G37*
G36*
X005077Y007118D02*
X005162Y007203D01*
X005387Y006978D01*
X005302Y006893D01*
X005077Y007118D01*
G37*
D11*
G36*
X006455Y008773D02*
X005034Y007352D01*
X003613Y008773D01*
X005034Y010194D01*
X006455Y008773D01*
G37*
D12*
X003090Y009828D03*
X001593Y009828D03*
D13*
X001549Y010496D02*
X002591Y010496D01*
X001549Y010496D02*
X001549Y010908D01*
X002591Y010908D01*
X002591Y010496D01*
X002591Y010633D02*
X001549Y010633D01*
X001549Y010770D02*
X002591Y010770D01*
X002591Y010907D02*
X001549Y010907D01*
X001549Y011363D02*
X002591Y011363D01*
X001549Y011363D02*
X001549Y011775D01*
X002591Y011775D01*
X002591Y011363D01*
X002591Y011500D02*
X001549Y011500D01*
X001549Y011637D02*
X002591Y011637D01*
X002591Y011774D02*
X001549Y011774D01*
D14*
X003107Y011080D03*
X003796Y011080D03*
X002198Y009191D03*
X001509Y009191D03*
X001966Y006864D03*
X002654Y006864D03*
X013509Y008734D03*
X014198Y008734D03*
D15*
X002334Y008576D03*
X001546Y008576D03*
X001566Y012391D03*
X002353Y012391D03*
D16*
X002593Y013025D03*
X002082Y013025D03*
X005763Y011943D03*
X005763Y011490D03*
X006275Y011490D03*
X006275Y011943D03*
X007105Y011616D03*
X007617Y011616D03*
X010389Y014021D03*
X010901Y014021D03*
X002023Y007966D03*
X002030Y007490D03*
X001519Y007490D03*
X001511Y007966D03*
D17*
X003275Y007504D03*
X003275Y006815D03*
X005074Y011952D03*
X005074Y012641D03*
X009416Y013830D03*
X009416Y014519D03*
D18*
X006271Y012324D03*
X005798Y012324D03*
X005719Y010939D03*
X005247Y010939D03*
X013538Y009187D03*
X014011Y009187D03*
D19*
X014141Y012344D03*
X014141Y012856D03*
X007515Y011029D03*
X007515Y010517D03*
X006999Y010517D03*
X006999Y011029D03*
X007597Y009868D03*
X007597Y009356D03*
D20*
X012694Y004580D03*
X013194Y004580D03*
X013694Y004580D03*
X014194Y004580D03*
X011906Y001962D03*
X011406Y001962D03*
X010906Y001962D03*
X010406Y001962D03*
X009682Y001962D03*
X009182Y001962D03*
X008682Y001962D03*
X008182Y001962D03*
X007615Y003990D03*
X007115Y003990D03*
X006615Y003990D03*
X006115Y003990D03*
X005548Y003990D03*
X005048Y003990D03*
X004548Y003990D03*
X004048Y003990D03*
X003284Y002317D03*
X002784Y002317D03*
X002284Y002317D03*
X001784Y002317D03*
D21*
X002534Y003754D03*
X004798Y002553D03*
X006865Y002553D03*
X008932Y003399D03*
X011156Y003399D03*
X013444Y003143D03*
D22*
X013168Y009517D03*
X013168Y009714D03*
X013168Y009911D03*
X013168Y010108D03*
X013168Y010305D03*
X013168Y010502D03*
X013168Y010698D03*
X013168Y010895D03*
X013168Y011092D03*
X013168Y011289D03*
X013168Y011486D03*
X013168Y011683D03*
X013168Y011880D03*
X013168Y012076D03*
X013168Y012273D03*
X013168Y012470D03*
X008641Y012470D03*
X008641Y012273D03*
X008641Y012076D03*
X008641Y011880D03*
X008641Y011683D03*
X008641Y011486D03*
X008641Y011289D03*
X008641Y011092D03*
X008641Y010895D03*
X008641Y010698D03*
X008641Y010502D03*
X008641Y010305D03*
X008641Y010108D03*
X008641Y009911D03*
X008641Y009714D03*
X008641Y009517D03*
D23*
X009428Y008730D03*
X009625Y008730D03*
X009822Y008730D03*
X010019Y008730D03*
X010216Y008730D03*
X010412Y008730D03*
X010609Y008730D03*
X010806Y008730D03*
X011003Y008730D03*
X011200Y008730D03*
X011397Y008730D03*
X011593Y008730D03*
X011790Y008730D03*
X011987Y008730D03*
X012184Y008730D03*
X012381Y008730D03*
X012381Y013257D03*
X012184Y013257D03*
X011987Y013257D03*
X011790Y013257D03*
X011593Y013257D03*
X011397Y013257D03*
X011200Y013257D03*
X011003Y013257D03*
X010806Y013257D03*
X010609Y013257D03*
X010412Y013257D03*
X010216Y013257D03*
X010019Y013257D03*
X009822Y013257D03*
X009625Y013257D03*
X009428Y013257D03*
D24*
X014125Y011746D03*
X014125Y011076D03*
D25*
X012936Y013494D03*
X012936Y013966D03*
X008034Y009970D03*
X008034Y009498D03*
X007857Y007958D03*
X007857Y007486D03*
X010546Y007494D03*
X010546Y007966D03*
X012908Y008151D03*
X012908Y008624D03*
D26*
X007568Y012009D02*
X007568Y012285D01*
X007844Y012285D01*
X007844Y012009D01*
X007568Y012009D01*
X007568Y012126D02*
X007844Y012126D01*
X007844Y012243D02*
X007568Y012243D01*
X006878Y012285D02*
X006878Y012009D01*
X006878Y012285D02*
X007154Y012285D01*
X007154Y012009D01*
X006878Y012009D01*
X006878Y012126D02*
X007154Y012126D01*
X007154Y012243D02*
X006878Y012243D01*
X003726Y009388D02*
X003062Y010045D01*
X001509Y009693D02*
X001509Y009191D01*
X011311Y013895D02*
X011311Y014171D01*
X011587Y014171D01*
X011587Y013895D01*
X011311Y013895D01*
X011311Y014012D02*
X011587Y014012D01*
X011587Y014129D02*
X011311Y014129D01*
X012002Y014171D02*
X012002Y013895D01*
X012002Y014171D02*
X012278Y014171D01*
X012278Y013895D01*
X012002Y013895D01*
X012002Y014012D02*
X012278Y014012D01*
X012278Y014129D02*
X012002Y014129D01*
D27*
X014113Y010572D03*
X014113Y010100D03*
X014113Y009628D03*
D28*
X007082Y005809D03*
X007082Y004706D03*
X005271Y004698D03*
X005271Y005801D03*
D29*
X006058Y012976D03*
X006452Y012976D03*
X006845Y012976D03*
X007239Y012976D03*
X007633Y012976D03*
X008027Y012976D03*
X004404Y012976D03*
X004011Y012976D03*
X003617Y012976D03*
D30*
X003105Y014502D03*
X004916Y014502D03*
X005546Y014502D03*
X008538Y014502D03*
D31*
X013513Y007907D03*
X013513Y007513D03*
X013513Y007120D03*
D32*
X015038Y006608D03*
X015038Y008419D03*
D33*
X015034Y004974D03*
X015034Y003557D03*
X011452Y001037D03*
X008302Y000978D03*
X005153Y000978D03*
D34*
X011003Y007183D03*
X011003Y007380D03*
X011003Y007576D03*
X011003Y007773D03*
X012184Y007773D03*
X012184Y007576D03*
X012184Y007380D03*
X012184Y007183D03*
D35*
X011593Y007478D03*
D36*
X004464Y011569D03*
X004464Y011962D03*
X004464Y012356D03*
X003322Y012356D03*
X003322Y011962D03*
X003322Y011569D03*
D37*
X003893Y011962D03*
D38*
X003145Y006037D03*
X002338Y006037D03*
X001511Y006037D03*
X001511Y004856D03*
X002338Y004856D03*
X003145Y004856D03*
X008302Y004738D03*
X009129Y004738D03*
X009129Y005919D03*
X008302Y005919D03*
X010782Y005860D03*
X011668Y005860D03*
X011668Y004679D03*
X010782Y004679D03*
D39*
X013086Y005919D03*
X014267Y005919D03*
D40*
X014301Y005387D02*
X014301Y004682D01*
X014298Y004609D01*
X014301Y004607D01*
X014301Y004603D01*
X014330Y004574D01*
X014330Y004147D01*
X013027Y004147D01*
X013046Y005387D01*
X014301Y005387D01*
X014301Y005356D02*
X013046Y005356D01*
X013045Y005295D02*
X014301Y005295D01*
X014301Y005233D02*
X013044Y005233D01*
X013043Y005172D02*
X014301Y005172D01*
X014301Y005110D02*
X013042Y005110D01*
X013041Y005049D02*
X014301Y005049D01*
X014301Y004987D02*
X013040Y004987D01*
X013039Y004926D02*
X014301Y004926D01*
X014301Y004864D02*
X013038Y004864D01*
X013037Y004803D02*
X014301Y004803D01*
X014301Y004741D02*
X013036Y004741D01*
X013035Y004680D02*
X014300Y004680D01*
X014298Y004618D02*
X013034Y004618D01*
X013033Y004557D02*
X014330Y004557D01*
X014330Y004495D02*
X013032Y004495D01*
X013031Y004434D02*
X014330Y004434D01*
X014330Y004372D02*
X013030Y004372D01*
X013029Y004311D02*
X014330Y004311D01*
X014330Y004249D02*
X013028Y004249D01*
X013027Y004188D02*
X014330Y004188D01*
X013184Y005053D02*
X013125Y005112D01*
X012838Y005112D01*
X012649Y005301D01*
X012649Y006498D01*
X012334Y006813D01*
X010192Y006813D01*
X010066Y006939D01*
X007420Y006939D01*
X006538Y007820D01*
X006538Y007946D01*
X006349Y008135D01*
X006349Y008198D01*
X006450Y008299D01*
X006484Y008299D01*
X006343Y008158D01*
X006208Y008024D02*
X006208Y007962D01*
X007357Y006813D01*
X010003Y006813D01*
X010129Y006687D01*
X012271Y006687D01*
X012523Y006435D01*
X012523Y004752D01*
X012694Y004580D01*
X012141Y004557D02*
X010192Y004557D01*
X010192Y004618D02*
X012141Y004618D01*
X012141Y004680D02*
X010192Y004680D01*
X010192Y004741D02*
X012141Y004741D01*
X012141Y004803D02*
X010192Y004803D01*
X010192Y004864D02*
X012141Y004864D01*
X012141Y004926D02*
X010192Y004926D01*
X010192Y004974D02*
X012141Y004974D01*
X012141Y002612D01*
X010192Y002612D01*
X010192Y004974D01*
X009897Y004974D02*
X007948Y004974D01*
X007948Y002553D01*
X009897Y002553D01*
X009897Y004974D01*
X009897Y004926D02*
X007948Y004926D01*
X007948Y004864D02*
X009897Y004864D01*
X009897Y004803D02*
X007948Y004803D01*
X007948Y004741D02*
X009897Y004741D01*
X009897Y004680D02*
X007948Y004680D01*
X007948Y004618D02*
X009897Y004618D01*
X009897Y004557D02*
X007948Y004557D01*
X007948Y004495D02*
X009897Y004495D01*
X009897Y004434D02*
X007948Y004434D01*
X007948Y004372D02*
X009897Y004372D01*
X009897Y004311D02*
X007948Y004311D01*
X007948Y004249D02*
X009897Y004249D01*
X009897Y004188D02*
X007948Y004188D01*
X007948Y004126D02*
X009897Y004126D01*
X009897Y004065D02*
X007948Y004065D01*
X007948Y004003D02*
X009897Y004003D01*
X009897Y003942D02*
X007948Y003942D01*
X007948Y003880D02*
X009897Y003880D01*
X009897Y003819D02*
X007948Y003819D01*
X007948Y003757D02*
X009897Y003757D01*
X009897Y003696D02*
X007948Y003696D01*
X007948Y003634D02*
X009897Y003634D01*
X009897Y003573D02*
X007948Y003573D01*
X007948Y003512D02*
X009897Y003512D01*
X009897Y003450D02*
X007948Y003450D01*
X007948Y003389D02*
X009897Y003389D01*
X009897Y003327D02*
X007948Y003327D01*
X007948Y003266D02*
X009897Y003266D01*
X009897Y003204D02*
X007948Y003204D01*
X007948Y003143D02*
X009897Y003143D01*
X009897Y003081D02*
X007948Y003081D01*
X007948Y003020D02*
X009897Y003020D01*
X009897Y002958D02*
X007948Y002958D01*
X007948Y002897D02*
X009897Y002897D01*
X009897Y002835D02*
X007948Y002835D01*
X007948Y002774D02*
X009897Y002774D01*
X009897Y002712D02*
X007948Y002712D01*
X007948Y002651D02*
X009897Y002651D01*
X009897Y002589D02*
X007948Y002589D01*
X007731Y002589D02*
X005940Y002589D01*
X005940Y002528D02*
X007731Y002528D01*
X007731Y002466D02*
X005940Y002466D01*
X005940Y002405D02*
X007731Y002405D01*
X007731Y002343D02*
X005940Y002343D01*
X005940Y002282D02*
X009413Y002282D01*
X009413Y002292D02*
X009413Y001632D01*
X009464Y001581D01*
X009464Y000480D01*
X005920Y000480D01*
X005920Y001903D01*
X005940Y001903D01*
X005940Y003360D01*
X007731Y003360D01*
X007731Y002336D01*
X009457Y002336D01*
X009413Y002292D01*
X009413Y002220D02*
X005940Y002220D01*
X005940Y002159D02*
X009413Y002159D01*
X009413Y002097D02*
X005940Y002097D01*
X005940Y002036D02*
X009413Y002036D01*
X009413Y001974D02*
X005940Y001974D01*
X005940Y001913D02*
X009413Y001913D01*
X009413Y001851D02*
X005920Y001851D01*
X005920Y001790D02*
X009413Y001790D01*
X009413Y001728D02*
X005920Y001728D01*
X005920Y001667D02*
X009413Y001667D01*
X009440Y001605D02*
X005920Y001605D01*
X005920Y001544D02*
X009464Y001544D01*
X009464Y001482D02*
X005920Y001482D01*
X005920Y001421D02*
X009464Y001421D01*
X009464Y001359D02*
X005920Y001359D01*
X005920Y001298D02*
X009464Y001298D01*
X009464Y001236D02*
X005920Y001236D01*
X005920Y001175D02*
X009464Y001175D01*
X009464Y001113D02*
X005920Y001113D01*
X005920Y001052D02*
X009464Y001052D01*
X009464Y000990D02*
X005920Y000990D01*
X005920Y000929D02*
X009464Y000929D01*
X009464Y000867D02*
X005920Y000867D01*
X005920Y000806D02*
X009464Y000806D01*
X009464Y000744D02*
X005920Y000744D01*
X005920Y000683D02*
X009464Y000683D01*
X009464Y000621D02*
X005920Y000621D01*
X005920Y000560D02*
X009464Y000560D01*
X009464Y000498D02*
X005920Y000498D01*
X005723Y000525D02*
X002618Y000480D01*
X002394Y000480D01*
X002552Y000637D01*
X002686Y000960D01*
X002686Y001310D01*
X002552Y001634D01*
X002304Y001881D01*
X001981Y002015D01*
X001708Y002015D01*
X001708Y002474D01*
X003015Y002474D01*
X003015Y001986D01*
X003092Y001909D01*
X003105Y001909D01*
X003105Y001844D01*
X003814Y001844D01*
X003814Y002651D01*
X005743Y002651D01*
X005723Y000525D01*
X005724Y000560D02*
X002474Y000560D01*
X002413Y000498D02*
X003900Y000498D01*
X002672Y000929D02*
X005727Y000929D01*
X005728Y000990D02*
X002686Y000990D01*
X002686Y001052D02*
X005728Y001052D01*
X005729Y001113D02*
X002686Y001113D01*
X002686Y001175D02*
X005729Y001175D01*
X005730Y001236D02*
X002686Y001236D01*
X002686Y001298D02*
X005731Y001298D01*
X005731Y001359D02*
X002665Y001359D01*
X002640Y001421D02*
X005732Y001421D01*
X005732Y001482D02*
X002614Y001482D01*
X002589Y001544D02*
X005733Y001544D01*
X005733Y001605D02*
X002563Y001605D01*
X002519Y001667D02*
X005734Y001667D01*
X005735Y001728D02*
X002457Y001728D01*
X002396Y001790D02*
X005735Y001790D01*
X005736Y001851D02*
X003814Y001851D01*
X003814Y001913D02*
X005736Y001913D01*
X005737Y001974D02*
X003814Y001974D01*
X003814Y002036D02*
X005737Y002036D01*
X005738Y002097D02*
X003814Y002097D01*
X003814Y002159D02*
X005739Y002159D01*
X005739Y002220D02*
X003814Y002220D01*
X003814Y002282D02*
X005740Y002282D01*
X005740Y002343D02*
X003814Y002343D01*
X003814Y002405D02*
X005741Y002405D01*
X005741Y002466D02*
X003814Y002466D01*
X003814Y002528D02*
X005742Y002528D01*
X005743Y002589D02*
X003814Y002589D01*
X003814Y002651D02*
X005743Y002651D01*
X005940Y002651D02*
X007731Y002651D01*
X007731Y002712D02*
X005940Y002712D01*
X005940Y002774D02*
X007731Y002774D01*
X007731Y002835D02*
X005940Y002835D01*
X005940Y002897D02*
X007731Y002897D01*
X007731Y002958D02*
X005940Y002958D01*
X005940Y003020D02*
X007731Y003020D01*
X007731Y003081D02*
X005940Y003081D01*
X005940Y003143D02*
X007731Y003143D01*
X007731Y003204D02*
X005940Y003204D01*
X005940Y003266D02*
X007731Y003266D01*
X007731Y003327D02*
X005940Y003327D01*
X006353Y003380D02*
X006353Y004352D01*
X006034Y004671D01*
X006034Y007080D01*
X005650Y007465D01*
X005784Y007599D02*
X006004Y007380D01*
X006223Y007380D01*
X007168Y006435D01*
X009656Y006435D01*
X010034Y006057D01*
X010034Y002340D01*
X009688Y001962D01*
X009682Y001962D01*
X010176Y001974D02*
X011609Y001974D01*
X011609Y001913D02*
X010177Y001913D01*
X010177Y001851D02*
X011609Y001851D01*
X011609Y001790D02*
X010178Y001790D01*
X010179Y001728D02*
X011609Y001728D01*
X011609Y001667D02*
X010179Y001667D01*
X010180Y001605D02*
X011609Y001605D01*
X011609Y001588D02*
X011681Y001588D01*
X011714Y001555D01*
X012099Y001555D01*
X012132Y001588D01*
X012475Y001588D01*
X012538Y002986D01*
X014393Y002986D01*
X014393Y001919D01*
X014300Y001881D01*
X014053Y001634D01*
X013919Y001310D01*
X013919Y000960D01*
X014053Y000637D01*
X014204Y000486D01*
X010192Y000486D01*
X010173Y002248D01*
X010197Y002273D01*
X010197Y002277D01*
X010200Y002280D01*
X010198Y002336D01*
X011609Y002336D01*
X011609Y001588D01*
X011906Y001962D02*
X012271Y002326D01*
X012271Y006309D01*
X012145Y006435D01*
X010003Y006435D01*
X009877Y006561D01*
X007231Y006561D01*
X006223Y007569D01*
X006097Y007569D01*
X005925Y007741D01*
X005925Y007741D01*
X006067Y007882D02*
X006099Y007882D01*
X007294Y006687D01*
X009940Y006687D01*
X010066Y006561D01*
X012208Y006561D01*
X012397Y006372D01*
X012397Y004072D01*
X012617Y003852D01*
X012141Y003880D02*
X010192Y003880D01*
X010192Y003819D02*
X012141Y003819D01*
X012141Y003757D02*
X010192Y003757D01*
X010192Y003696D02*
X012141Y003696D01*
X012141Y003634D02*
X010192Y003634D01*
X010192Y003573D02*
X012141Y003573D01*
X012141Y003512D02*
X010192Y003512D01*
X010192Y003450D02*
X012141Y003450D01*
X012141Y003389D02*
X010192Y003389D01*
X010192Y003327D02*
X012141Y003327D01*
X012141Y003266D02*
X010192Y003266D01*
X010192Y003204D02*
X012141Y003204D01*
X012141Y003143D02*
X010192Y003143D01*
X010192Y003081D02*
X012141Y003081D01*
X012141Y003020D02*
X010192Y003020D01*
X010192Y002958D02*
X012141Y002958D01*
X012141Y002897D02*
X010192Y002897D01*
X010192Y002835D02*
X012141Y002835D01*
X012141Y002774D02*
X010192Y002774D01*
X010192Y002712D02*
X012141Y002712D01*
X012141Y002651D02*
X010192Y002651D01*
X010200Y002282D02*
X011609Y002282D01*
X011609Y002220D02*
X010173Y002220D01*
X010174Y002159D02*
X011609Y002159D01*
X011609Y002097D02*
X010175Y002097D01*
X010175Y002036D02*
X011609Y002036D01*
X012493Y001974D02*
X014393Y001974D01*
X014393Y002036D02*
X012496Y002036D01*
X012498Y002097D02*
X014393Y002097D01*
X014393Y002159D02*
X012501Y002159D01*
X012504Y002220D02*
X014393Y002220D01*
X014393Y002282D02*
X012507Y002282D01*
X012509Y002343D02*
X014393Y002343D01*
X014393Y002405D02*
X012512Y002405D01*
X012515Y002466D02*
X014393Y002466D01*
X014393Y002528D02*
X012518Y002528D01*
X012520Y002589D02*
X014393Y002589D01*
X014393Y002651D02*
X012523Y002651D01*
X012526Y002712D02*
X014393Y002712D01*
X014393Y002774D02*
X012529Y002774D01*
X012532Y002835D02*
X014393Y002835D01*
X014393Y002897D02*
X012534Y002897D01*
X012537Y002958D02*
X014393Y002958D01*
X014376Y001913D02*
X012490Y001913D01*
X012487Y001851D02*
X014270Y001851D01*
X014209Y001790D02*
X012484Y001790D01*
X012482Y001728D02*
X014147Y001728D01*
X014086Y001667D02*
X012479Y001667D01*
X012476Y001605D02*
X014041Y001605D01*
X014015Y001544D02*
X010181Y001544D01*
X010181Y001482D02*
X013990Y001482D01*
X013964Y001421D02*
X010182Y001421D01*
X010183Y001359D02*
X013939Y001359D01*
X013919Y001298D02*
X010183Y001298D01*
X010184Y001236D02*
X013919Y001236D01*
X013919Y001175D02*
X010185Y001175D01*
X010185Y001113D02*
X013919Y001113D01*
X013919Y001052D02*
X010186Y001052D01*
X010187Y000990D02*
X013919Y000990D01*
X013932Y000929D02*
X010187Y000929D01*
X010188Y000867D02*
X013957Y000867D01*
X013983Y000806D02*
X010188Y000806D01*
X010189Y000744D02*
X014008Y000744D01*
X014034Y000683D02*
X010190Y000683D01*
X010190Y000621D02*
X014068Y000621D01*
X014130Y000560D02*
X010191Y000560D01*
X010192Y000498D02*
X014191Y000498D01*
X012141Y003942D02*
X010192Y003942D01*
X010192Y004003D02*
X012141Y004003D01*
X012141Y004065D02*
X010192Y004065D01*
X010192Y004126D02*
X012141Y004126D01*
X012141Y004188D02*
X010192Y004188D01*
X010192Y004249D02*
X012141Y004249D01*
X012141Y004311D02*
X010192Y004311D01*
X010192Y004372D02*
X012141Y004372D01*
X012141Y004434D02*
X010192Y004434D01*
X010192Y004495D02*
X012141Y004495D01*
X012082Y005565D02*
X012082Y006273D01*
X010369Y006273D01*
X010369Y005565D01*
X012082Y005565D01*
X012082Y005602D02*
X010369Y005602D01*
X010369Y005664D02*
X012082Y005664D01*
X012082Y005725D02*
X010369Y005725D01*
X010369Y005787D02*
X012082Y005787D01*
X012082Y005848D02*
X010369Y005848D01*
X010369Y005910D02*
X012082Y005910D01*
X012082Y005971D02*
X010369Y005971D01*
X010369Y006033D02*
X012082Y006033D01*
X012082Y006094D02*
X010369Y006094D01*
X010369Y006156D02*
X012082Y006156D01*
X012082Y006217D02*
X010369Y006217D01*
X009542Y006217D02*
X007948Y006217D01*
X007948Y006273D02*
X009542Y006273D01*
X009542Y005624D01*
X007948Y005624D01*
X007948Y006273D01*
X007948Y006156D02*
X009542Y006156D01*
X009542Y006094D02*
X007948Y006094D01*
X007948Y006033D02*
X009542Y006033D01*
X009542Y005971D02*
X007948Y005971D01*
X007948Y005910D02*
X009542Y005910D01*
X009542Y005848D02*
X007948Y005848D01*
X007948Y005787D02*
X009542Y005787D01*
X009542Y005725D02*
X007948Y005725D01*
X007948Y005664D02*
X009542Y005664D01*
X010345Y007183D02*
X010251Y007277D01*
X010251Y008163D01*
X010428Y008340D01*
X011668Y008340D01*
X011786Y008458D01*
X011786Y008726D01*
X011790Y008730D01*
X011593Y008730D02*
X011593Y009124D01*
X011550Y009167D01*
X012082Y009167D02*
X012184Y009065D01*
X012184Y008730D01*
X011987Y008730D02*
X011987Y008187D01*
X011904Y008104D01*
X011334Y008104D01*
X011003Y007773D01*
X011003Y007576D02*
X011495Y007576D01*
X011593Y007478D01*
X011593Y007411D01*
X011609Y007395D01*
X011003Y007380D02*
X010550Y007380D01*
X010546Y007494D01*
X010507Y007533D01*
X010566Y007513D01*
X010345Y007183D02*
X011003Y007183D01*
X010546Y007966D02*
X010527Y008084D01*
X010901Y008104D01*
X010609Y008730D02*
X010609Y009635D01*
X010318Y009927D01*
X010318Y011285D01*
X009845Y011757D01*
X009845Y012187D01*
X009735Y012297D01*
X010074Y012002D02*
X010074Y011718D01*
X010444Y011348D01*
X010444Y010970D01*
X010696Y010718D01*
X010822Y010592D01*
X012082Y010592D01*
X012188Y010698D01*
X013168Y010698D01*
X013168Y010502D02*
X014042Y010502D01*
X014113Y010572D01*
X014208Y010112D02*
X014196Y010100D01*
X014113Y010100D01*
X013676Y010230D02*
X013676Y009698D01*
X013794Y009580D01*
X014066Y009580D01*
X014113Y009628D01*
X014011Y009187D02*
X014168Y008694D01*
X014444Y008970D01*
X014198Y008734D02*
X014050Y008655D01*
X014050Y009147D01*
X014011Y009187D01*
X013538Y009187D02*
X013509Y008734D01*
X013499Y009187D02*
X013168Y009517D01*
X012853Y009517D01*
X012731Y009639D01*
X012436Y009108D02*
X012381Y009053D01*
X012381Y008730D01*
X012487Y008624D01*
X012908Y008624D01*
X012908Y008151D02*
X012684Y008151D01*
X012613Y008163D01*
X012613Y007927D01*
X012460Y007773D01*
X012184Y007773D01*
X012184Y007576D02*
X012912Y007576D01*
X013086Y007750D01*
X013263Y007927D01*
X013552Y007927D01*
X013513Y007907D01*
X013513Y007513D02*
X013086Y007513D01*
X012952Y007380D01*
X012184Y007380D01*
X012184Y007183D02*
X012412Y007183D01*
X012495Y007100D01*
X013086Y007041D02*
X013164Y007120D01*
X013513Y007120D01*
X013538Y009187D02*
X013499Y009187D01*
X013676Y010230D02*
X013601Y010305D01*
X013168Y010305D01*
X013168Y010895D02*
X012353Y010895D01*
X012318Y010860D01*
X011924Y010860D01*
X012200Y011116D02*
X012223Y011092D01*
X013168Y011092D01*
X013676Y011057D02*
X013696Y011076D01*
X014125Y011076D01*
X013617Y011588D02*
X013523Y011683D01*
X013168Y011683D01*
X013168Y011880D02*
X013991Y011880D01*
X014125Y011746D01*
X014125Y012328D01*
X014141Y012344D01*
X014141Y012856D02*
X013881Y012856D01*
X013853Y012828D01*
X013204Y012769D02*
X013204Y012506D01*
X013168Y012470D01*
X013168Y012076D02*
X011389Y012076D01*
X011023Y011710D01*
X010609Y011710D01*
X010424Y011714D01*
X010664Y012002D02*
X011137Y012002D01*
X011790Y012655D01*
X011790Y013257D01*
X011593Y013257D02*
X011593Y012635D01*
X011196Y012238D01*
X010901Y012238D01*
X011137Y012537D02*
X011137Y012891D01*
X011200Y012954D01*
X011200Y013257D01*
X011397Y013257D02*
X011397Y012797D01*
X011373Y012773D01*
X011987Y012746D02*
X012082Y012651D01*
X011987Y012746D02*
X011987Y013257D01*
X012184Y013257D02*
X012184Y013989D01*
X012184Y012962D01*
X012495Y012651D01*
X012849Y013124D02*
X012936Y013210D01*
X012936Y013494D01*
X012554Y013655D02*
X012377Y013478D01*
X012377Y013261D01*
X012381Y013257D01*
X012554Y013655D02*
X012554Y013714D01*
X012184Y013989D02*
X012140Y014033D01*
X011449Y014033D02*
X011437Y014021D01*
X010901Y014021D01*
X010723Y013655D02*
X010487Y013655D01*
X010428Y013714D01*
X010428Y013982D01*
X010389Y014021D01*
X010723Y013655D02*
X010806Y013572D01*
X010806Y013257D01*
X009838Y013273D02*
X009822Y013257D01*
X009838Y013273D02*
X009838Y014482D01*
X009800Y014519D01*
X009416Y014519D01*
X009186Y013948D02*
X009070Y013832D01*
X009186Y013948D02*
X009416Y013830D01*
X009428Y013842D01*
X009428Y013257D01*
X009625Y013257D02*
X009625Y012923D01*
X009719Y012828D01*
X009483Y011883D02*
X010133Y011234D01*
X010133Y009994D01*
X009428Y009289D01*
X009428Y008730D01*
X009625Y008730D02*
X009625Y008492D01*
X009473Y008340D01*
X009306Y008340D01*
X009217Y008429D01*
X009306Y008340D01*
X009217Y008429D02*
X009070Y008576D01*
X008893Y008281D02*
X009030Y008143D01*
X009473Y008143D01*
X009822Y008492D01*
X009822Y008730D01*
X010019Y008730D02*
X010019Y008433D01*
X009473Y007887D01*
X008873Y007887D01*
X008775Y007986D01*
X009011Y007631D02*
X008893Y007513D01*
X009011Y007631D02*
X009473Y007631D01*
X010216Y008374D01*
X010216Y008730D01*
X009247Y009462D02*
X008995Y009714D01*
X008641Y009714D01*
X008641Y009911D02*
X009696Y009911D01*
X009956Y010171D01*
X009956Y011116D01*
X009424Y011647D01*
X009180Y011647D01*
X009129Y010998D02*
X009027Y010895D01*
X008641Y010895D01*
X008641Y010698D02*
X009310Y010698D01*
X009424Y010820D01*
X009708Y010643D02*
X009719Y010643D01*
X009637Y010561D01*
X009027Y010561D01*
X008967Y010502D01*
X008641Y010502D01*
X008676Y010309D02*
X009251Y010309D01*
X008676Y010309D02*
X008656Y010289D01*
X008641Y010305D01*
X008066Y009939D02*
X008034Y009970D01*
X008058Y009907D01*
X008066Y009915D01*
X008027Y009915D01*
X007676Y009915D01*
X007597Y009868D01*
X007597Y009950D01*
X007042Y009395D01*
X006915Y009395D01*
X006625Y009106D01*
X006760Y008971D02*
X006807Y008971D01*
X006965Y008971D01*
X007121Y009128D01*
X007487Y009061D02*
X008093Y009061D01*
X008090Y009380D02*
X008034Y009498D01*
X008058Y009435D01*
X008027Y009462D01*
X007704Y009462D01*
X007597Y009356D01*
X007487Y009061D02*
X007121Y008694D01*
X007006Y008579D01*
X006760Y008575D01*
X006117Y008813D02*
X006117Y008897D01*
X006484Y009247D01*
X006343Y009388D02*
X006343Y009388D01*
X006538Y009584D01*
X006979Y009584D01*
X007042Y009647D01*
X007231Y009836D01*
X007231Y010214D01*
X007515Y010498D01*
X007515Y010517D01*
X007515Y011029D02*
X007515Y011513D01*
X007617Y011616D01*
X007617Y011553D01*
X007889Y011588D01*
X007706Y012147D02*
X007239Y012615D01*
X007239Y013655D01*
X007239Y012976D02*
X007239Y012615D01*
X007613Y012592D02*
X007653Y013015D01*
X007633Y012976D01*
X008027Y012976D02*
X008027Y013439D01*
X008066Y013478D01*
X006845Y012976D02*
X006826Y013015D01*
X006826Y012592D01*
X007016Y012147D02*
X007105Y012058D01*
X007105Y011616D01*
X006999Y011029D02*
X007515Y011029D01*
X006999Y010517D02*
X006999Y009990D01*
X006944Y009935D01*
X006767Y009757D01*
X006727Y009757D01*
X006426Y009757D01*
X006208Y009523D01*
X006067Y009664D02*
X006380Y009994D01*
X006471Y009994D01*
X006412Y010289D02*
X006392Y010289D01*
X005925Y009806D01*
X005784Y009947D02*
X006058Y010238D01*
X006058Y010289D01*
X005822Y010270D02*
X005822Y010525D01*
X005719Y010733D02*
X005719Y010939D01*
X005719Y010733D02*
X005367Y010364D01*
X005022Y010036D01*
X005034Y008773D01*
X003763Y008777D01*
X003443Y008441D01*
X003309Y008560D02*
X002948Y008198D01*
X002759Y008198D01*
X002570Y008009D01*
X002570Y007569D01*
X002050Y007569D01*
X002030Y007490D01*
X001519Y007490D02*
X001412Y007545D01*
X001369Y007454D01*
X001365Y007946D02*
X001534Y007946D01*
X001511Y007966D01*
X001150Y006450D02*
X003304Y006450D01*
X003368Y006386D01*
X003513Y006386D01*
X003513Y005624D01*
X001150Y005624D01*
X001150Y006450D01*
X001150Y006402D02*
X003352Y006402D01*
X003513Y006340D02*
X001150Y006340D01*
X001150Y006279D02*
X003513Y006279D01*
X003513Y006217D02*
X001150Y006217D01*
X001150Y006156D02*
X003513Y006156D01*
X003513Y006094D02*
X001150Y006094D01*
X001150Y006033D02*
X003513Y006033D01*
X003513Y005971D02*
X001150Y005971D01*
X001150Y005910D02*
X003513Y005910D01*
X003513Y005848D02*
X001150Y005848D01*
X001150Y005787D02*
X003513Y005787D01*
X003513Y005725D02*
X001150Y005725D01*
X001150Y005664D02*
X003513Y005664D01*
X003507Y005210D02*
X003507Y004468D01*
X003478Y004439D01*
X003478Y002789D01*
X001150Y002789D01*
X001150Y005210D01*
X003507Y005210D01*
X003507Y005172D02*
X001150Y005172D01*
X001150Y005110D02*
X003507Y005110D01*
X003507Y005049D02*
X001150Y005049D01*
X001150Y004987D02*
X003507Y004987D01*
X003507Y004926D02*
X001150Y004926D01*
X001150Y004864D02*
X003507Y004864D01*
X003460Y004856D02*
X003389Y004856D01*
X003145Y004856D01*
X003389Y004856D01*
X003507Y004803D02*
X001150Y004803D01*
X001150Y004741D02*
X003507Y004741D01*
X003507Y004680D02*
X001150Y004680D01*
X001150Y004618D02*
X003507Y004618D01*
X003507Y004557D02*
X001150Y004557D01*
X001150Y004495D02*
X003507Y004495D01*
X003478Y004434D02*
X001150Y004434D01*
X001150Y004372D02*
X003478Y004372D01*
X003452Y004419D02*
X003873Y004840D01*
X003873Y005092D01*
X003873Y006569D01*
X003873Y007487D01*
X004143Y007741D01*
X004285Y007599D02*
X004082Y007396D01*
X004082Y007380D01*
X004019Y007317D01*
X004019Y004750D01*
X003641Y004372D01*
X003641Y002529D01*
X003428Y002317D01*
X003284Y002317D01*
X003015Y002343D02*
X001708Y002343D01*
X001708Y002282D02*
X003015Y002282D01*
X003015Y002220D02*
X001708Y002220D01*
X001708Y002159D02*
X003015Y002159D01*
X003015Y002097D02*
X001708Y002097D01*
X001708Y002036D02*
X003015Y002036D01*
X003027Y001974D02*
X002079Y001974D01*
X002228Y001913D02*
X003089Y001913D01*
X003105Y001851D02*
X002334Y001851D01*
X001708Y002405D02*
X003015Y002405D01*
X003015Y002466D02*
X001708Y002466D01*
X001150Y002835D02*
X003478Y002835D01*
X003478Y002897D02*
X001150Y002897D01*
X001150Y002958D02*
X003478Y002958D01*
X003478Y003020D02*
X001150Y003020D01*
X001150Y003081D02*
X003478Y003081D01*
X003478Y003143D02*
X001150Y003143D01*
X001150Y003204D02*
X003478Y003204D01*
X003478Y003266D02*
X001150Y003266D01*
X001150Y003327D02*
X003478Y003327D01*
X003478Y003389D02*
X001150Y003389D01*
X001150Y003450D02*
X003478Y003450D01*
X003478Y003512D02*
X001150Y003512D01*
X001150Y003573D02*
X003478Y003573D01*
X003478Y003634D02*
X001150Y003634D01*
X001150Y003696D02*
X003478Y003696D01*
X003478Y003757D02*
X001150Y003757D01*
X001150Y003819D02*
X003478Y003819D01*
X003478Y003880D02*
X001150Y003880D01*
X001150Y003942D02*
X003478Y003942D01*
X003478Y004003D02*
X001150Y004003D01*
X001150Y004065D02*
X003478Y004065D01*
X003478Y004126D02*
X001150Y004126D01*
X001150Y004188D02*
X003478Y004188D01*
X003478Y004249D02*
X001150Y004249D01*
X001150Y004311D02*
X003478Y004311D01*
X003767Y004309D02*
X003767Y003474D01*
X003979Y003261D01*
X003991Y003261D01*
X004404Y003734D02*
X004404Y004259D01*
X004434Y004288D01*
X004434Y005092D01*
X005745Y005092D01*
X005745Y004129D01*
X005763Y004112D01*
X005763Y003734D01*
X004404Y003734D01*
X004404Y003757D02*
X005763Y003757D01*
X005763Y003819D02*
X004404Y003819D01*
X004404Y003880D02*
X005763Y003880D01*
X005763Y003942D02*
X004404Y003942D01*
X004404Y004003D02*
X005763Y004003D01*
X005763Y004065D02*
X004404Y004065D01*
X004404Y004126D02*
X005748Y004126D01*
X005745Y004188D02*
X004404Y004188D01*
X004404Y004249D02*
X005745Y004249D01*
X005745Y004311D02*
X004434Y004311D01*
X004434Y004372D02*
X005745Y004372D01*
X005745Y004434D02*
X004434Y004434D01*
X004434Y004495D02*
X005745Y004495D01*
X005745Y004557D02*
X004434Y004557D01*
X004434Y004618D02*
X005745Y004618D01*
X005745Y004680D02*
X004434Y004680D01*
X004434Y004741D02*
X005745Y004741D01*
X005745Y004803D02*
X004434Y004803D01*
X004434Y004864D02*
X005745Y004864D01*
X005745Y004926D02*
X004434Y004926D01*
X004434Y004987D02*
X005745Y004987D01*
X005745Y005049D02*
X004434Y005049D01*
X004460Y005238D02*
X005153Y005238D01*
X005184Y005238D01*
X005231Y005191D01*
X005231Y004738D01*
X005271Y004698D01*
X005086Y004791D01*
X005086Y004794D01*
X005086Y004791D02*
X004995Y004836D01*
X005216Y005364D02*
X004586Y005364D01*
X004586Y006797D01*
X004836Y007048D01*
X004702Y007182D02*
X004460Y006940D01*
X004460Y005238D01*
X004145Y005301D02*
X004145Y004687D01*
X003767Y004309D01*
X004048Y004208D02*
X004048Y003990D01*
X004048Y004208D02*
X004123Y004208D01*
X004271Y004356D01*
X004271Y007002D01*
X004334Y007065D01*
X004334Y007097D01*
X004561Y007324D01*
X004419Y007465D02*
X004208Y007253D01*
X004145Y007191D01*
X004145Y005301D01*
X004759Y005506D02*
X005745Y005506D01*
X005745Y006273D01*
X004759Y006273D01*
X004759Y005506D01*
X004759Y005541D02*
X005745Y005541D01*
X005745Y005602D02*
X004759Y005602D01*
X004759Y005664D02*
X005745Y005664D01*
X005745Y005725D02*
X004759Y005725D01*
X004759Y005787D02*
X005745Y005787D01*
X005745Y005848D02*
X004759Y005848D01*
X004759Y005910D02*
X005745Y005910D01*
X005745Y005971D02*
X004759Y005971D01*
X004759Y006033D02*
X005745Y006033D01*
X005745Y006094D02*
X004759Y006094D01*
X004759Y006156D02*
X005745Y006156D01*
X005745Y006217D02*
X004759Y006217D01*
X005231Y005899D02*
X005231Y005506D01*
X005271Y005419D02*
X005216Y005364D01*
X005271Y005419D02*
X005271Y005801D01*
X005231Y005899D01*
X005345Y006687D02*
X005345Y006927D01*
X005232Y007048D01*
X005367Y007182D02*
X005664Y006885D01*
X005664Y006805D01*
X005656Y006813D01*
X005908Y006939D02*
X005908Y004196D01*
X006115Y003990D01*
X006530Y004003D02*
X007771Y004003D01*
X007771Y003942D02*
X006530Y003942D01*
X006530Y003880D02*
X007771Y003880D01*
X007771Y003819D02*
X006530Y003819D01*
X006530Y003793D02*
X006530Y005096D01*
X007771Y005096D01*
X007771Y003793D01*
X006530Y003793D01*
X006530Y004065D02*
X007771Y004065D01*
X007771Y004126D02*
X006530Y004126D01*
X006530Y004188D02*
X007771Y004188D01*
X007771Y004249D02*
X006530Y004249D01*
X006530Y004311D02*
X007771Y004311D01*
X007771Y004372D02*
X006530Y004372D01*
X006530Y004434D02*
X007771Y004434D01*
X007771Y004495D02*
X006530Y004495D01*
X006530Y004557D02*
X007771Y004557D01*
X007771Y004618D02*
X006530Y004618D01*
X006530Y004680D02*
X007771Y004680D01*
X007771Y004741D02*
X006530Y004741D01*
X006530Y004803D02*
X007771Y004803D01*
X007771Y004864D02*
X006530Y004864D01*
X006530Y004926D02*
X007771Y004926D01*
X007771Y004987D02*
X006530Y004987D01*
X006530Y005049D02*
X007771Y005049D01*
X007019Y005135D02*
X007082Y004706D01*
X007019Y005135D02*
X006979Y005175D01*
X006916Y005238D01*
X006223Y005238D01*
X006223Y006891D01*
X006294Y006962D01*
X006471Y006687D02*
X006349Y006565D01*
X006349Y005364D01*
X006979Y005364D01*
X007042Y005427D01*
X007042Y005584D01*
X007227Y005643D01*
X007597Y005801D02*
X007597Y006272D01*
X007101Y006272D01*
X007099Y006273D01*
X006593Y006273D01*
X006593Y005801D01*
X007597Y005801D01*
X007597Y005848D02*
X006593Y005848D01*
X006593Y005910D02*
X007597Y005910D01*
X007597Y005971D02*
X006593Y005971D01*
X006593Y006033D02*
X007597Y006033D01*
X007597Y006094D02*
X006593Y006094D01*
X006593Y006156D02*
X007597Y006156D01*
X007597Y006217D02*
X006593Y006217D01*
X005908Y006939D02*
X005523Y007324D01*
X005508Y007324D01*
X005034Y008773D02*
X004881Y008777D01*
X004002Y009664D01*
X003848Y009546D02*
X003861Y009523D01*
X003848Y009546D02*
X003519Y009876D01*
X003519Y010716D01*
X003796Y011080D01*
X003991Y010643D02*
X003991Y010501D01*
X004419Y010081D01*
X004285Y009947D02*
X003817Y010407D01*
X003755Y010407D01*
X003770Y010171D02*
X003814Y010112D01*
X003770Y010171D02*
X004143Y009806D01*
X004561Y010223D02*
X004250Y010525D01*
X004306Y010584D01*
X004523Y010525D02*
X004523Y010820D01*
X004523Y010525D02*
X004679Y010368D01*
X004702Y010364D01*
X004836Y010499D02*
X004818Y010556D01*
X004818Y010939D01*
X005220Y010912D02*
X005232Y010499D01*
X005220Y010912D02*
X005247Y010939D01*
X004936Y011352D02*
X005074Y011490D01*
X005763Y011490D01*
X005763Y011943D02*
X005798Y012037D01*
X005798Y012324D01*
X005676Y012324D01*
X005408Y012592D01*
X005123Y012592D01*
X005074Y012641D01*
X005074Y012907D01*
X005172Y013006D01*
X004404Y012976D02*
X004404Y013773D01*
X004464Y013832D01*
X004011Y014206D02*
X004345Y014541D01*
X004011Y014206D02*
X004011Y012976D01*
X003617Y012976D02*
X003617Y013439D01*
X003519Y013537D01*
X003322Y012356D02*
X003755Y012356D01*
X003932Y012179D01*
X003952Y012159D01*
X003893Y011962D01*
X003200Y011222D02*
X003200Y009584D01*
X002759Y009584D01*
X002759Y010403D01*
X001436Y010403D01*
X001436Y010970D01*
X002696Y010970D01*
X002696Y011222D01*
X003200Y011222D01*
X003200Y011198D02*
X002696Y011198D01*
X002696Y011137D02*
X003200Y011137D01*
X003200Y011075D02*
X002696Y011075D01*
X002696Y011014D02*
X003200Y011014D01*
X003200Y010952D02*
X001436Y010952D01*
X001436Y010891D02*
X003200Y010891D01*
X003200Y010829D02*
X001436Y010829D01*
X001436Y010768D02*
X003200Y010768D01*
X003200Y010706D02*
X001436Y010706D01*
X001436Y010645D02*
X003200Y010645D01*
X003200Y010583D02*
X001436Y010583D01*
X001436Y010522D02*
X003200Y010522D01*
X003200Y010460D02*
X001436Y010460D01*
X001908Y011569D02*
X001877Y011600D01*
X001908Y011569D02*
X002070Y011569D01*
X002759Y010399D02*
X003200Y010399D01*
X003200Y010337D02*
X002759Y010337D01*
X002759Y010276D02*
X003200Y010276D01*
X003200Y010214D02*
X002759Y010214D01*
X002759Y010153D02*
X003200Y010153D01*
X003200Y010091D02*
X002759Y010091D01*
X002759Y010030D02*
X003200Y010030D01*
X003200Y009968D02*
X002759Y009968D01*
X002759Y009907D02*
X003200Y009907D01*
X003200Y009845D02*
X002759Y009845D01*
X002759Y009784D02*
X003200Y009784D01*
X003200Y009722D02*
X002759Y009722D01*
X002759Y009661D02*
X003200Y009661D01*
X003200Y009599D02*
X002759Y009599D01*
X003309Y008575D02*
X003309Y008560D01*
X003861Y008024D02*
X003509Y007689D01*
X003275Y007504D01*
X003460Y006980D02*
X003460Y006569D01*
X003275Y006815D02*
X003460Y006980D01*
X005650Y010081D02*
X005822Y010270D01*
X006294Y011297D02*
X006294Y011470D01*
X006275Y011490D01*
X006275Y011943D01*
X006275Y012320D01*
X006271Y012324D01*
X006452Y012976D02*
X006471Y013055D01*
X006471Y013537D01*
X006058Y013655D02*
X006058Y012976D01*
X005074Y011952D02*
X005074Y011903D01*
X005074Y011844D01*
X005054Y011883D01*
X005074Y011903D01*
X006924Y010013D02*
X006983Y010013D01*
X008007Y009482D02*
X008027Y009462D01*
X008641Y009517D02*
X008641Y009360D01*
X008656Y009344D01*
X007830Y008163D02*
X007857Y008135D01*
X007857Y007958D01*
X007857Y007486D02*
X007857Y007309D01*
X007830Y007277D01*
X010759Y010655D02*
X010696Y010718D01*
X012936Y013966D02*
X013129Y013966D01*
X013208Y013950D01*
X003125Y003383D02*
X002534Y003754D01*
X002647Y000867D02*
X005727Y000867D01*
X005726Y000806D02*
X002622Y000806D01*
X002596Y000744D02*
X005725Y000744D01*
X005725Y000683D02*
X002571Y000683D01*
X002536Y000621D02*
X005724Y000621D01*
X006865Y002553D02*
X006865Y002868D01*
X006353Y003380D01*
D41*
X006294Y003261D03*
X006058Y003261D03*
X006058Y003025D03*
X006058Y002789D03*
X006294Y002789D03*
X006294Y003025D03*
X006530Y003025D03*
X006530Y002789D03*
X006530Y002553D03*
X006294Y002553D03*
X006058Y002553D03*
X006058Y002317D03*
X006294Y002317D03*
X006530Y002317D03*
X006530Y002080D03*
X006294Y002080D03*
X006058Y002080D03*
X005645Y002080D03*
X005645Y002317D03*
X005645Y002553D03*
X005645Y002789D03*
X005645Y003025D03*
X005645Y003261D03*
X005408Y003261D03*
X005172Y003261D03*
X005172Y003025D03*
X005172Y002789D03*
X005408Y002789D03*
X005408Y003025D03*
X004936Y003025D03*
X004936Y002789D03*
X004700Y002789D03*
X004700Y003025D03*
X004464Y003025D03*
X004464Y002789D03*
X004464Y002553D03*
X004700Y002553D03*
X004936Y002553D03*
X004936Y002317D03*
X004700Y002317D03*
X004464Y002317D03*
X004227Y002317D03*
X004227Y002553D03*
X003991Y002553D03*
X003991Y002317D03*
X003991Y002080D03*
X004227Y002080D03*
X004464Y002080D03*
X004700Y002080D03*
X004936Y002080D03*
X005172Y002080D03*
X005408Y002080D03*
X005408Y002317D03*
X005408Y002553D03*
X005172Y002553D03*
X005172Y002317D03*
X004936Y003261D03*
X004700Y003261D03*
X004464Y003261D03*
X004227Y003261D03*
X003991Y003261D03*
X003991Y003025D03*
X003991Y002789D03*
X004227Y002789D03*
X004227Y003025D03*
X003397Y003025D03*
X003397Y003261D03*
X003397Y003498D03*
X003397Y003734D03*
X003397Y003970D03*
X003397Y004206D03*
X003160Y004206D03*
X002924Y004206D03*
X002924Y003970D03*
X002924Y003734D03*
X003160Y003734D03*
X003160Y003970D03*
X002688Y003970D03*
X002688Y003734D03*
X002452Y003734D03*
X002452Y003970D03*
X002452Y004206D03*
X002688Y004206D03*
X002216Y004206D03*
X001979Y004206D03*
X001979Y003970D03*
X001979Y003734D03*
X002216Y003734D03*
X002216Y003970D03*
X002216Y003498D03*
X002216Y003261D03*
X001979Y003261D03*
X001979Y003498D03*
X001743Y003498D03*
X001743Y003261D03*
X001743Y003025D03*
X001979Y003025D03*
X002216Y003025D03*
X002452Y003025D03*
X002688Y003025D03*
X002924Y003025D03*
X003160Y003025D03*
X003160Y003261D03*
X002924Y003261D03*
X002924Y003498D03*
X003160Y003498D03*
X002688Y003498D03*
X002452Y003498D03*
X002452Y003261D03*
X002688Y003261D03*
X001743Y003734D03*
X001743Y003970D03*
X001743Y004206D03*
X001964Y006175D03*
X001255Y006175D03*
X001369Y007454D03*
X001365Y007946D03*
X002885Y008513D03*
X002928Y009265D03*
X003814Y010112D03*
X003755Y010407D03*
X003991Y010643D03*
X004306Y010584D03*
X004523Y010820D03*
X004818Y010939D03*
X004936Y011352D03*
X005054Y011883D03*
X005172Y013006D03*
X004464Y013832D03*
X004345Y014541D03*
X003519Y013537D03*
X003932Y012179D03*
X005822Y010525D03*
X006058Y010289D03*
X006412Y010289D03*
X006471Y009994D03*
X006944Y009935D03*
X007121Y009128D03*
X006235Y008754D03*
X005645Y008163D03*
X005054Y008754D03*
X005586Y009344D03*
X004995Y009935D03*
X004464Y009344D03*
X003873Y008754D03*
X004464Y008163D03*
X005054Y007572D03*
X005664Y006805D03*
X005345Y006687D03*
X005330Y006116D03*
X005566Y006116D03*
X005566Y005880D03*
X005330Y005880D03*
X005093Y005880D03*
X005093Y006116D03*
X004857Y006116D03*
X004857Y005880D03*
X004857Y005643D03*
X005566Y005643D03*
X006471Y006687D03*
X006294Y006962D03*
X006755Y006116D03*
X006991Y006116D03*
X006991Y005880D03*
X006755Y005880D03*
X006755Y005643D03*
X007227Y005880D03*
X007227Y006116D03*
X007464Y006116D03*
X007464Y005880D03*
X007464Y005643D03*
X008046Y006175D03*
X008755Y006175D03*
X009404Y006175D03*
X010527Y006175D03*
X011235Y006175D03*
X012003Y006175D03*
X012495Y007100D03*
X013086Y007041D03*
X012613Y008163D03*
X012436Y009108D03*
X012082Y009167D03*
X011550Y009167D03*
X010901Y008104D03*
X010566Y007513D03*
X011609Y007395D03*
X013184Y005289D03*
X013420Y005289D03*
X013656Y005289D03*
X013656Y005053D03*
X013420Y005053D03*
X013420Y004817D03*
X013656Y004817D03*
X013893Y004817D03*
X013893Y005053D03*
X014129Y005053D03*
X014129Y004817D03*
X014129Y005289D03*
X013893Y005289D03*
X013184Y005053D03*
X013184Y004817D03*
X013090Y003852D03*
X013326Y003852D03*
X013326Y003616D03*
X013090Y003616D03*
X013090Y003380D03*
X013326Y003380D03*
X013326Y003143D03*
X013090Y003143D03*
X013090Y002907D03*
X013326Y002907D03*
X013562Y002907D03*
X013798Y002907D03*
X013798Y003143D03*
X013562Y003143D03*
X013562Y003380D03*
X013798Y003380D03*
X013798Y003616D03*
X013798Y003852D03*
X013562Y003852D03*
X013562Y003616D03*
X014034Y003616D03*
X014034Y003852D03*
X014271Y003852D03*
X014271Y003616D03*
X014271Y003380D03*
X014034Y003380D03*
X014034Y003143D03*
X014271Y003143D03*
X014271Y002907D03*
X014034Y002907D03*
X012853Y002907D03*
X012617Y002907D03*
X012617Y003143D03*
X012853Y003143D03*
X012853Y003380D03*
X012617Y003380D03*
X012617Y003616D03*
X012617Y003852D03*
X012853Y003852D03*
X012853Y003616D03*
X012023Y003675D03*
X012023Y003439D03*
X011786Y003439D03*
X011786Y003675D03*
X011550Y003675D03*
X011314Y003675D03*
X011314Y003439D03*
X011550Y003439D03*
X011550Y003202D03*
X011550Y002966D03*
X011314Y002966D03*
X011314Y003202D03*
X011078Y003202D03*
X011078Y002966D03*
X010842Y002966D03*
X010842Y003202D03*
X010842Y003439D03*
X011078Y003439D03*
X011078Y003675D03*
X010842Y003675D03*
X010842Y003911D03*
X011078Y003911D03*
X011314Y003911D03*
X011550Y003911D03*
X011786Y003911D03*
X012023Y003911D03*
X012023Y003202D03*
X012023Y002966D03*
X012023Y002730D03*
X011786Y002730D03*
X011550Y002730D03*
X011314Y002730D03*
X011078Y002730D03*
X010842Y002730D03*
X010605Y002730D03*
X010369Y002730D03*
X010369Y002966D03*
X010605Y002966D03*
X010605Y003202D03*
X010369Y003202D03*
X010369Y003439D03*
X010369Y003675D03*
X010605Y003675D03*
X010605Y003439D03*
X010605Y003911D03*
X010369Y003911D03*
X009719Y003911D03*
X009483Y003911D03*
X009247Y003911D03*
X009247Y003675D03*
X009483Y003675D03*
X009483Y003439D03*
X009247Y003439D03*
X009011Y003439D03*
X009011Y003675D03*
X008775Y003675D03*
X008775Y003439D03*
X008775Y003202D03*
X009011Y003202D03*
X009011Y002966D03*
X008775Y002966D03*
X008775Y002730D03*
X009011Y002730D03*
X009247Y002730D03*
X009483Y002730D03*
X009719Y002730D03*
X009719Y002966D03*
X009483Y002966D03*
X009247Y002966D03*
X009247Y003202D03*
X009483Y003202D03*
X009719Y003202D03*
X009719Y003439D03*
X009719Y003675D03*
X009011Y003911D03*
X008775Y003911D03*
X008538Y003911D03*
X008302Y003911D03*
X008066Y003911D03*
X008066Y003675D03*
X008066Y003439D03*
X008302Y003439D03*
X008302Y003675D03*
X008538Y003675D03*
X008538Y003439D03*
X008538Y003202D03*
X008538Y002966D03*
X008302Y002966D03*
X008302Y003202D03*
X008066Y003202D03*
X008066Y002966D03*
X008066Y002730D03*
X008302Y002730D03*
X008538Y002730D03*
X007712Y002789D03*
X007712Y003025D03*
X007712Y003261D03*
X007475Y003261D03*
X007239Y003261D03*
X007239Y003025D03*
X007239Y002789D03*
X007475Y002789D03*
X007475Y003025D03*
X007003Y003025D03*
X007003Y002789D03*
X006767Y002789D03*
X006767Y003025D03*
X006767Y003261D03*
X007003Y003261D03*
X006530Y003261D03*
X006767Y002553D03*
X007003Y002553D03*
X007003Y002317D03*
X006767Y002317D03*
X006767Y002080D03*
X007003Y002080D03*
X007239Y002080D03*
X007475Y002080D03*
X007475Y002317D03*
X007475Y002553D03*
X007239Y002553D03*
X007239Y002317D03*
X007712Y002317D03*
X007712Y002553D03*
X007712Y002080D03*
X011786Y002966D03*
X011786Y003202D03*
X007830Y007277D03*
X007830Y008163D03*
X008093Y009061D03*
X008027Y009462D03*
X008027Y009915D03*
X008656Y009344D03*
X009247Y009462D03*
X009251Y010309D03*
X009719Y010643D03*
X009424Y010820D03*
X009129Y010998D03*
X009180Y011647D03*
X009483Y011883D03*
X009735Y012297D03*
X010074Y012002D03*
X010424Y011714D03*
X010664Y012002D03*
X010901Y012238D03*
X011137Y012537D03*
X011373Y012773D03*
X012082Y012651D03*
X012495Y012651D03*
X012849Y013124D03*
X013204Y012769D03*
X013853Y012828D03*
X013208Y013950D03*
X012554Y013714D03*
X013617Y011588D03*
X013676Y011057D03*
X014208Y010112D03*
X014444Y008970D03*
X012731Y009639D03*
X011924Y010860D03*
X012200Y011116D03*
X009719Y012828D03*
X009070Y013832D03*
X008066Y013478D03*
X007239Y013655D03*
X006471Y013537D03*
X006058Y013655D03*
X006826Y012592D03*
X007613Y012592D03*
X007889Y011588D03*
X006294Y011297D03*
X009070Y008576D03*
X008893Y008281D03*
X008775Y007986D03*
X008893Y007513D03*
X003377Y006175D03*
X002790Y006175D03*
X003263Y006813D03*
X001877Y011600D03*
X001511Y012395D03*
D42*
X001536Y012441D02*
X001566Y012391D01*
X001536Y012441D02*
X002082Y013025D01*
X002353Y012391D02*
X002475Y012444D01*
X002475Y011746D01*
X002298Y011726D01*
X002070Y011569D01*
X003107Y011080D02*
X003090Y010968D01*
X003322Y011569D02*
X003322Y011962D01*
X004464Y011569D02*
X004680Y011569D01*
X005054Y011883D01*
X003062Y010045D02*
X003090Y009828D01*
X002967Y010041D01*
X002928Y009265D02*
X002381Y009265D01*
X002198Y009191D01*
X001509Y009693D02*
X001593Y009828D01*
X002885Y009222D02*
X002885Y008513D01*
X002885Y009222D02*
X002928Y009265D01*
X003276Y009265D01*
X003443Y009106D01*
X004002Y007882D02*
X003696Y007593D01*
X003696Y006687D01*
X003696Y006569D02*
X003696Y005163D01*
X003389Y004856D01*
X003444Y006569D02*
X003200Y006813D01*
X003263Y006813D01*
X003444Y006569D02*
X003460Y006569D01*
X003696Y006569D01*
X014267Y005919D02*
X014267Y005683D01*
X014483Y005565D01*
X014483Y004679D01*
X015034Y004088D01*
X015034Y003557D01*
D43*
X013204Y005387D02*
X013086Y005919D01*
D44*
X013204Y005387D02*
X013184Y005289D01*
D45*
X002334Y008576D02*
X002334Y009218D01*
X002381Y009265D01*
X001593Y009828D02*
X001586Y009836D01*
X001373Y009836D01*
X001184Y010025D01*
X001184Y012167D01*
X001412Y012395D01*
X001511Y012395D01*
X001509Y009191D02*
X001546Y009153D01*
X001546Y008576D01*
X002023Y007966D02*
X001964Y007498D01*
X002030Y007490D01*
D46*
X002438Y007336D02*
X001966Y006864D01*
X002438Y007336D02*
X002712Y007336D01*
X002712Y007946D01*
X002806Y008041D01*
X003326Y008041D01*
X003585Y008299D01*
X003726Y008158D02*
X003452Y007883D01*
X002885Y007883D01*
X002869Y007868D01*
X002869Y007179D01*
X002733Y007043D01*
X002654Y006864D01*
X002456Y011569D02*
X002298Y011726D01*
X002456Y011569D02*
X003322Y011569D01*
X002353Y012391D02*
X002593Y012631D01*
X002593Y013025D01*
D47*
X003696Y006805D02*
X003696Y006687D01*
X003696Y006569D01*
D48*
X001806Y001135D03*
X014798Y001135D03*
X014798Y014128D03*
X001806Y014128D03*
M02*
