G75*
%MOIN*%
%OFA0B0*%
%FSLAX24Y24*%
%IPPOS*%
%LPD*%
%AMOC8*
5,1,8,0,0,1.08239X$1,22.5*
%
%ADD10C,0.0827*%
%ADD11C,0.0236*%
%ADD12C,0.0063*%
%ADD13C,0.0100*%
%ADD14C,0.0320*%
%ADD15C,0.1227*%
D10*
X005153Y000978D03*
X008302Y000978D03*
X011452Y001037D03*
X015034Y003557D03*
X015034Y004974D03*
D11*
X014129Y005053D03*
X013893Y005053D03*
X013893Y004817D03*
X014129Y004817D03*
X014129Y005289D03*
X013893Y005289D03*
X013656Y005289D03*
X013420Y005289D03*
X013184Y005289D03*
X013184Y005053D03*
X013184Y004817D03*
X013420Y004817D03*
X013420Y005053D03*
X013656Y005053D03*
X013656Y004817D03*
X013562Y003852D03*
X013798Y003852D03*
X013798Y003616D03*
X013562Y003616D03*
X013326Y003616D03*
X013326Y003852D03*
X013090Y003852D03*
X013090Y003616D03*
X013090Y003380D03*
X013326Y003380D03*
X013326Y003143D03*
X013090Y003143D03*
X013090Y002907D03*
X013326Y002907D03*
X013562Y002907D03*
X013798Y002907D03*
X013798Y003143D03*
X013562Y003143D03*
X013562Y003380D03*
X013798Y003380D03*
X014034Y003380D03*
X014271Y003380D03*
X014271Y003143D03*
X014034Y003143D03*
X014034Y002907D03*
X014271Y002907D03*
X014271Y003616D03*
X014271Y003852D03*
X014034Y003852D03*
X014034Y003616D03*
X012853Y003616D03*
X012617Y003616D03*
X012617Y003852D03*
X012853Y003852D03*
X012853Y003380D03*
X012617Y003380D03*
X012617Y003143D03*
X012853Y003143D03*
X012853Y002907D03*
X012617Y002907D03*
X012023Y002966D03*
X012023Y003202D03*
X012023Y003439D03*
X012023Y003675D03*
X012023Y003911D03*
X011786Y003911D03*
X011550Y003911D03*
X011314Y003911D03*
X011314Y003675D03*
X011550Y003675D03*
X011786Y003675D03*
X011786Y003439D03*
X011550Y003439D03*
X011314Y003439D03*
X011078Y003439D03*
X011078Y003675D03*
X010842Y003675D03*
X010842Y003439D03*
X010842Y003202D03*
X011078Y003202D03*
X011078Y002966D03*
X010842Y002966D03*
X010842Y002730D03*
X011078Y002730D03*
X011314Y002730D03*
X011550Y002730D03*
X011786Y002730D03*
X011786Y002966D03*
X011550Y002966D03*
X011314Y002966D03*
X011314Y003202D03*
X011550Y003202D03*
X011786Y003202D03*
X012023Y002730D03*
X011078Y003911D03*
X010842Y003911D03*
X010605Y003911D03*
X010369Y003911D03*
X010369Y003675D03*
X010605Y003675D03*
X010605Y003439D03*
X010369Y003439D03*
X010369Y003202D03*
X010369Y002966D03*
X010605Y002966D03*
X010605Y003202D03*
X010605Y002730D03*
X010369Y002730D03*
X009719Y002730D03*
X009483Y002730D03*
X009247Y002730D03*
X009247Y002966D03*
X009483Y002966D03*
X009483Y003202D03*
X009247Y003202D03*
X009011Y003202D03*
X009011Y002966D03*
X008775Y002966D03*
X008775Y003202D03*
X008775Y003439D03*
X009011Y003439D03*
X009011Y003675D03*
X008775Y003675D03*
X008775Y003911D03*
X009011Y003911D03*
X009247Y003911D03*
X009483Y003911D03*
X009719Y003911D03*
X009719Y003675D03*
X009483Y003675D03*
X009247Y003675D03*
X009247Y003439D03*
X009483Y003439D03*
X009719Y003439D03*
X009719Y003202D03*
X009719Y002966D03*
X009011Y002730D03*
X008775Y002730D03*
X008538Y002730D03*
X008302Y002730D03*
X008066Y002730D03*
X008066Y002966D03*
X008066Y003202D03*
X008302Y003202D03*
X008302Y002966D03*
X008538Y002966D03*
X008538Y003202D03*
X008538Y003439D03*
X008538Y003675D03*
X008302Y003675D03*
X008302Y003439D03*
X008066Y003439D03*
X008066Y003675D03*
X008066Y003911D03*
X008302Y003911D03*
X008538Y003911D03*
X007712Y003261D03*
X007712Y003025D03*
X007712Y002789D03*
X007712Y002553D03*
X007712Y002317D03*
X007475Y002317D03*
X007475Y002553D03*
X007239Y002553D03*
X007239Y002317D03*
X007003Y002317D03*
X007003Y002553D03*
X006767Y002553D03*
X006767Y002317D03*
X006530Y002317D03*
X006294Y002317D03*
X006294Y002553D03*
X006058Y002553D03*
X006058Y002317D03*
X006058Y002080D03*
X006294Y002080D03*
X006530Y002080D03*
X006767Y002080D03*
X007003Y002080D03*
X007239Y002080D03*
X007475Y002080D03*
X007712Y002080D03*
X007475Y002789D03*
X007239Y002789D03*
X007239Y003025D03*
X007475Y003025D03*
X007475Y003261D03*
X007239Y003261D03*
X007003Y003261D03*
X006767Y003261D03*
X006767Y003025D03*
X007003Y003025D03*
X007003Y002789D03*
X006767Y002789D03*
X006530Y002789D03*
X006294Y002789D03*
X006058Y002789D03*
X006058Y003025D03*
X006294Y003025D03*
X006530Y003025D03*
X006530Y003261D03*
X006294Y003261D03*
X006058Y003261D03*
X005645Y003261D03*
X005645Y003025D03*
X005645Y002789D03*
X005645Y002553D03*
X005645Y002317D03*
X005408Y002317D03*
X005408Y002553D03*
X005172Y002553D03*
X005172Y002317D03*
X004936Y002317D03*
X004936Y002553D03*
X004700Y002553D03*
X004464Y002553D03*
X004464Y002317D03*
X004700Y002317D03*
X004700Y002080D03*
X004936Y002080D03*
X005172Y002080D03*
X005408Y002080D03*
X005645Y002080D03*
X005408Y002789D03*
X005172Y002789D03*
X005172Y003025D03*
X005408Y003025D03*
X005408Y003261D03*
X005172Y003261D03*
X004936Y003261D03*
X004700Y003261D03*
X004464Y003261D03*
X004464Y003025D03*
X004700Y003025D03*
X004936Y003025D03*
X004936Y002789D03*
X004700Y002789D03*
X004464Y002789D03*
X004227Y002789D03*
X003991Y002789D03*
X003991Y003025D03*
X004227Y003025D03*
X004227Y003261D03*
X003991Y003261D03*
X003397Y003261D03*
X003397Y003498D03*
X003397Y003734D03*
X003397Y003970D03*
X003397Y004206D03*
X003160Y004206D03*
X002924Y004206D03*
X002924Y003970D03*
X002924Y003734D03*
X003160Y003734D03*
X003160Y003970D03*
X002688Y003970D03*
X002688Y003734D03*
X002452Y003734D03*
X002452Y003970D03*
X002452Y004206D03*
X002688Y004206D03*
X002216Y004206D03*
X001979Y004206D03*
X001979Y003970D03*
X001979Y003734D03*
X002216Y003734D03*
X002216Y003970D03*
X002216Y003498D03*
X002216Y003261D03*
X001979Y003261D03*
X001979Y003498D03*
X001743Y003498D03*
X001743Y003261D03*
X001743Y003025D03*
X001979Y003025D03*
X002216Y003025D03*
X002452Y003025D03*
X002688Y003025D03*
X002924Y003025D03*
X003160Y003025D03*
X003160Y003261D03*
X002924Y003261D03*
X002924Y003498D03*
X003160Y003498D03*
X002688Y003498D03*
X002452Y003498D03*
X002452Y003261D03*
X002688Y003261D03*
X003397Y003025D03*
X003991Y002553D03*
X004227Y002553D03*
X004227Y002317D03*
X003991Y002317D03*
X003991Y002080D03*
X004227Y002080D03*
X004464Y002080D03*
X006530Y002553D03*
X006755Y005643D03*
X006755Y005880D03*
X006755Y006116D03*
X006991Y006116D03*
X006991Y005880D03*
X007227Y005880D03*
X007227Y006116D03*
X007464Y006116D03*
X007464Y005880D03*
X007464Y005643D03*
X008046Y006175D03*
X008755Y006175D03*
X009404Y006175D03*
X010527Y006175D03*
X011235Y006175D03*
X012003Y006175D03*
X012495Y007100D03*
X013086Y007041D03*
X012613Y008163D03*
X012436Y009108D03*
X012082Y009167D03*
X011550Y009167D03*
X010901Y008104D03*
X010566Y007513D03*
X011609Y007395D03*
X009247Y009462D03*
X008656Y009344D03*
X008093Y009061D03*
X008027Y009462D03*
X008027Y009915D03*
X007121Y009128D03*
X006944Y009935D03*
X006471Y009994D03*
X006412Y010289D03*
X006058Y010289D03*
X005822Y010525D03*
X006294Y011297D03*
X005054Y011883D03*
X004936Y011352D03*
X004818Y010939D03*
X004523Y010820D03*
X004306Y010584D03*
X003991Y010643D03*
X003755Y010407D03*
X003814Y010112D03*
X004464Y009344D03*
X004995Y009935D03*
X005586Y009344D03*
X005054Y008754D03*
X004464Y008163D03*
X005054Y007572D03*
X005645Y008163D03*
X006235Y008754D03*
X007830Y008163D03*
X007830Y007277D03*
X008893Y007513D03*
X008775Y007986D03*
X008893Y008281D03*
X009070Y008576D03*
X009251Y010309D03*
X009719Y010643D03*
X009424Y010820D03*
X009129Y010998D03*
X009180Y011647D03*
X009483Y011883D03*
X009735Y012297D03*
X010074Y012002D03*
X010424Y011714D03*
X010664Y012002D03*
X010901Y012238D03*
X011137Y012537D03*
X011373Y012773D03*
X012082Y012651D03*
X012495Y012651D03*
X012849Y013124D03*
X013204Y012769D03*
X013853Y012828D03*
X013208Y013950D03*
X012554Y013714D03*
X013617Y011588D03*
X013676Y011057D03*
X014208Y010112D03*
X014444Y008970D03*
X012731Y009639D03*
X011924Y010860D03*
X012200Y011116D03*
X009719Y012828D03*
X009070Y013832D03*
X008066Y013478D03*
X007239Y013655D03*
X006471Y013537D03*
X006058Y013655D03*
X005172Y013006D03*
X004464Y013832D03*
X004345Y014541D03*
X003519Y013537D03*
X003932Y012179D03*
X001877Y011600D03*
X001511Y012395D03*
X002928Y009265D03*
X002885Y008513D03*
X003873Y008754D03*
X003263Y006813D03*
X003377Y006175D03*
X002790Y006175D03*
X001964Y006175D03*
X001255Y006175D03*
X001369Y007454D03*
X001365Y007946D03*
X004857Y006116D03*
X005093Y006116D03*
X005093Y005880D03*
X004857Y005880D03*
X004857Y005643D03*
X005330Y005880D03*
X005330Y006116D03*
X005566Y006116D03*
X005566Y005880D03*
X005566Y005643D03*
X005345Y006687D03*
X005664Y006805D03*
X006294Y006962D03*
X006471Y006687D03*
X001743Y004206D03*
X001743Y003970D03*
X001743Y003734D03*
X007889Y011588D03*
X007613Y012592D03*
X006826Y012592D03*
D12*
X001150Y005092D02*
X001150Y001498D01*
X001175Y001557D01*
X001384Y001767D01*
X001658Y001880D01*
X001954Y001880D01*
X002228Y001767D01*
X002438Y001557D01*
X002551Y001284D01*
X002551Y000987D01*
X002438Y000713D01*
X002228Y000504D01*
X002169Y000480D01*
X004932Y000480D01*
X004844Y000516D01*
X004691Y000669D01*
X004608Y000870D01*
X004608Y001086D01*
X004691Y001287D01*
X004844Y001440D01*
X005044Y001523D01*
X005261Y001523D01*
X005461Y001440D01*
X005614Y001287D01*
X005697Y001086D01*
X005697Y000870D01*
X005614Y000669D01*
X005461Y000516D01*
X005373Y000480D01*
X008082Y000480D01*
X007993Y000516D01*
X007840Y000669D01*
X007757Y000870D01*
X007757Y001086D01*
X007840Y001287D01*
X007993Y001440D01*
X008194Y001523D01*
X008411Y001523D01*
X008611Y001440D01*
X008764Y001287D01*
X008847Y001086D01*
X008847Y000870D01*
X008764Y000669D01*
X008611Y000516D01*
X008523Y000480D01*
X014435Y000480D01*
X014376Y000504D01*
X014167Y000713D01*
X014053Y000987D01*
X014053Y001284D01*
X014167Y001557D01*
X014376Y001767D01*
X014650Y001880D01*
X014946Y001880D01*
X015220Y001767D01*
X015430Y001557D01*
X015454Y001498D01*
X015454Y004088D01*
X014353Y004088D01*
X014412Y004064D01*
X014482Y003993D01*
X014520Y003902D01*
X014520Y003802D01*
X014492Y003734D01*
X014520Y003665D01*
X014520Y003566D01*
X014492Y003498D01*
X014520Y003429D01*
X014520Y003330D01*
X014492Y003261D01*
X014520Y003193D01*
X014520Y003094D01*
X014492Y003025D01*
X014520Y002957D01*
X014520Y002857D01*
X014482Y002766D01*
X014412Y002695D01*
X014320Y002657D01*
X014221Y002657D01*
X014153Y002686D01*
X014084Y002657D01*
X013985Y002657D01*
X013916Y002686D01*
X013848Y002657D01*
X013749Y002657D01*
X013680Y002686D01*
X013612Y002657D01*
X013512Y002657D01*
X013444Y002686D01*
X013375Y002657D01*
X013276Y002657D01*
X013208Y002686D01*
X013139Y002657D01*
X013040Y002657D01*
X012971Y002686D01*
X012903Y002657D01*
X012804Y002657D01*
X012735Y002686D01*
X012667Y002657D01*
X012567Y002657D01*
X012476Y002695D01*
X012405Y002766D01*
X012367Y002857D01*
X012367Y002957D01*
X012396Y003025D01*
X012367Y003094D01*
X012367Y003193D01*
X012396Y003261D01*
X012367Y003330D01*
X012367Y003429D01*
X012396Y003498D01*
X012367Y003566D01*
X012367Y003665D01*
X012396Y003734D01*
X012367Y003802D01*
X012367Y003902D01*
X012405Y003993D01*
X012476Y004064D01*
X012535Y004088D01*
X004247Y004088D01*
X004247Y004225D01*
X004223Y004248D01*
X004223Y004249D01*
X004223Y004249D01*
X004223Y004324D01*
X004223Y004399D01*
X004223Y004399D01*
X004223Y005092D01*
X001150Y005092D01*
X001150Y005049D02*
X004223Y005049D01*
X004223Y004987D02*
X001150Y004987D01*
X001150Y004926D02*
X004223Y004926D01*
X004223Y004864D02*
X001150Y004864D01*
X001150Y004803D02*
X004223Y004803D01*
X004223Y004741D02*
X001150Y004741D01*
X001150Y004680D02*
X004223Y004680D01*
X004223Y004618D02*
X001150Y004618D01*
X001150Y004557D02*
X004223Y004557D01*
X004223Y004495D02*
X001150Y004495D01*
X001150Y004434D02*
X004223Y004434D01*
X004223Y004372D02*
X001150Y004372D01*
X001150Y004311D02*
X004223Y004311D01*
X004223Y004249D02*
X001150Y004249D01*
X001150Y004188D02*
X004247Y004188D01*
X004247Y004126D02*
X001150Y004126D01*
X001150Y004065D02*
X012479Y004065D01*
X012416Y004003D02*
X001150Y004003D01*
X001150Y003942D02*
X012384Y003942D01*
X012367Y003880D02*
X001150Y003880D01*
X001150Y003819D02*
X012367Y003819D01*
X012386Y003757D02*
X001150Y003757D01*
X001150Y003696D02*
X012380Y003696D01*
X012367Y003634D02*
X001150Y003634D01*
X001150Y003573D02*
X012367Y003573D01*
X012390Y003512D02*
X001150Y003512D01*
X001150Y003450D02*
X003827Y003450D01*
X003850Y003473D02*
X003780Y003403D01*
X003742Y003311D01*
X003742Y003212D01*
X003770Y003143D01*
X003742Y003075D01*
X003742Y002976D01*
X003770Y002907D01*
X003742Y002839D01*
X003742Y002739D01*
X003770Y002671D01*
X003742Y002602D01*
X003742Y002503D01*
X003770Y002435D01*
X003742Y002366D01*
X003742Y002267D01*
X003770Y002198D01*
X003742Y002130D01*
X003742Y002031D01*
X003780Y001939D01*
X003850Y001869D01*
X003941Y001831D01*
X004041Y001831D01*
X004109Y001859D01*
X004178Y001831D01*
X004277Y001831D01*
X004345Y001859D01*
X004414Y001831D01*
X004513Y001831D01*
X004582Y001859D01*
X004650Y001831D01*
X004749Y001831D01*
X004818Y001859D01*
X004886Y001831D01*
X004986Y001831D01*
X005054Y001859D01*
X005123Y001831D01*
X005222Y001831D01*
X005290Y001859D01*
X005359Y001831D01*
X005458Y001831D01*
X005527Y001859D01*
X005595Y001831D01*
X005694Y001831D01*
X005786Y001869D01*
X005851Y001934D01*
X005917Y001869D01*
X006008Y001831D01*
X006108Y001831D01*
X006176Y001859D01*
X006245Y001831D01*
X006344Y001831D01*
X006412Y001859D01*
X006481Y001831D01*
X006580Y001831D01*
X006649Y001859D01*
X006717Y001831D01*
X006816Y001831D01*
X006885Y001859D01*
X006953Y001831D01*
X007053Y001831D01*
X007121Y001859D01*
X007189Y001831D01*
X007289Y001831D01*
X007357Y001859D01*
X007426Y001831D01*
X007525Y001831D01*
X007593Y001859D01*
X007662Y001831D01*
X007761Y001831D01*
X007853Y001869D01*
X007923Y001939D01*
X007961Y002031D01*
X007961Y002130D01*
X007933Y002198D01*
X007961Y002267D01*
X007961Y002366D01*
X007933Y002435D01*
X007961Y002503D01*
X007961Y002602D01*
X007933Y002671D01*
X007961Y002739D01*
X007961Y002839D01*
X007933Y002907D01*
X007961Y002976D01*
X007961Y003075D01*
X007933Y003143D01*
X007961Y003212D01*
X007961Y003311D01*
X007923Y003403D01*
X007853Y003473D01*
X007761Y003511D01*
X007662Y003511D01*
X007593Y003483D01*
X007525Y003511D01*
X007426Y003511D01*
X007357Y003483D01*
X007289Y003511D01*
X007189Y003511D01*
X007121Y003483D01*
X007053Y003511D01*
X006953Y003511D01*
X006885Y003483D01*
X006816Y003511D01*
X006717Y003511D01*
X006649Y003483D01*
X006580Y003511D01*
X006481Y003511D01*
X006412Y003483D01*
X006344Y003511D01*
X006245Y003511D01*
X006176Y003483D01*
X006108Y003511D01*
X006008Y003511D01*
X005917Y003473D01*
X005851Y003408D01*
X005786Y003473D01*
X005694Y003511D01*
X005595Y003511D01*
X005527Y003483D01*
X005458Y003511D01*
X005359Y003511D01*
X005290Y003483D01*
X005222Y003511D01*
X005123Y003511D01*
X005054Y003483D01*
X004986Y003511D01*
X004886Y003511D01*
X004818Y003483D01*
X004749Y003511D01*
X004650Y003511D01*
X004582Y003483D01*
X004513Y003511D01*
X004414Y003511D01*
X004345Y003483D01*
X004277Y003511D01*
X004178Y003511D01*
X004109Y003483D01*
X004041Y003511D01*
X003941Y003511D01*
X003850Y003473D01*
X003774Y003389D02*
X001150Y003389D01*
X001150Y003327D02*
X003748Y003327D01*
X003742Y003266D02*
X001150Y003266D01*
X001150Y003204D02*
X003745Y003204D01*
X003770Y003143D02*
X001150Y003143D01*
X001150Y003081D02*
X003744Y003081D01*
X003742Y003020D02*
X001150Y003020D01*
X001150Y002958D02*
X003749Y002958D01*
X003766Y002897D02*
X001150Y002897D01*
X001150Y002835D02*
X003742Y002835D01*
X003742Y002774D02*
X001150Y002774D01*
X001150Y002712D02*
X003753Y002712D01*
X003761Y002651D02*
X001150Y002651D01*
X001150Y002589D02*
X003742Y002589D01*
X003742Y002528D02*
X001150Y002528D01*
X001150Y002466D02*
X003757Y002466D01*
X003757Y002405D02*
X001150Y002405D01*
X001150Y002343D02*
X003742Y002343D01*
X003742Y002282D02*
X001150Y002282D01*
X001150Y002220D02*
X003761Y002220D01*
X003753Y002159D02*
X001150Y002159D01*
X001150Y002097D02*
X003742Y002097D01*
X003742Y002036D02*
X001150Y002036D01*
X001150Y001974D02*
X003765Y001974D01*
X003806Y001913D02*
X001150Y001913D01*
X001150Y001851D02*
X001588Y001851D01*
X001439Y001790D02*
X001150Y001790D01*
X001150Y001728D02*
X001345Y001728D01*
X001284Y001667D02*
X001150Y001667D01*
X001150Y001605D02*
X001222Y001605D01*
X001169Y001544D02*
X001150Y001544D01*
X002024Y001851D02*
X003892Y001851D01*
X004090Y001851D02*
X004128Y001851D01*
X004326Y001851D02*
X004364Y001851D01*
X004563Y001851D02*
X004601Y001851D01*
X004799Y001851D02*
X004837Y001851D01*
X005035Y001851D02*
X005073Y001851D01*
X005271Y001851D02*
X005309Y001851D01*
X005508Y001851D02*
X005545Y001851D01*
X005744Y001851D02*
X005959Y001851D01*
X005873Y001913D02*
X005830Y001913D01*
X006157Y001851D02*
X006195Y001851D01*
X006393Y001851D02*
X006431Y001851D01*
X006630Y001851D02*
X006668Y001851D01*
X006866Y001851D02*
X006904Y001851D01*
X007102Y001851D02*
X007140Y001851D01*
X007338Y001851D02*
X007376Y001851D01*
X007575Y001851D02*
X007612Y001851D01*
X007811Y001851D02*
X014580Y001851D01*
X014431Y001790D02*
X002173Y001790D01*
X002267Y001728D02*
X014338Y001728D01*
X014276Y001667D02*
X002328Y001667D01*
X002390Y001605D02*
X014215Y001605D01*
X014161Y001544D02*
X011652Y001544D01*
X011560Y001582D02*
X011760Y001499D01*
X011914Y001346D01*
X011997Y001145D01*
X011997Y000929D01*
X014078Y000929D01*
X014053Y000990D02*
X011997Y000990D01*
X011997Y000929D02*
X011914Y000728D01*
X011760Y000575D01*
X011560Y000492D01*
X011343Y000492D01*
X011143Y000575D01*
X010990Y000728D01*
X010907Y000929D01*
X008847Y000929D01*
X008847Y000990D02*
X010907Y000990D01*
X010907Y000929D02*
X010907Y001145D01*
X010990Y001346D01*
X011143Y001499D01*
X011343Y001582D01*
X011560Y001582D01*
X011777Y001482D02*
X014136Y001482D01*
X014110Y001421D02*
X011839Y001421D01*
X011900Y001359D02*
X014085Y001359D01*
X014059Y001298D02*
X011933Y001298D01*
X011959Y001236D02*
X014053Y001236D01*
X014053Y001175D02*
X011984Y001175D01*
X011997Y001113D02*
X014053Y001113D01*
X014053Y001052D02*
X011997Y001052D01*
X011971Y000867D02*
X014103Y000867D01*
X014128Y000806D02*
X011946Y000806D01*
X011920Y000744D02*
X014154Y000744D01*
X014197Y000683D02*
X011868Y000683D01*
X011807Y000621D02*
X014259Y000621D01*
X014320Y000560D02*
X011724Y000560D01*
X011575Y000498D02*
X014390Y000498D01*
X015435Y001544D02*
X015454Y001544D01*
X015454Y001605D02*
X015382Y001605D01*
X015320Y001667D02*
X015454Y001667D01*
X015454Y001728D02*
X015259Y001728D01*
X015165Y001790D02*
X015454Y001790D01*
X015454Y001851D02*
X015017Y001851D01*
X015454Y001913D02*
X007897Y001913D01*
X007938Y001974D02*
X015454Y001974D01*
X015454Y002036D02*
X007961Y002036D01*
X007961Y002097D02*
X015454Y002097D01*
X015454Y002159D02*
X007949Y002159D01*
X007942Y002220D02*
X015454Y002220D01*
X015454Y002282D02*
X007961Y002282D01*
X007961Y002343D02*
X015454Y002343D01*
X015454Y002405D02*
X007945Y002405D01*
X007946Y002466D02*
X015454Y002466D01*
X015454Y002528D02*
X007961Y002528D01*
X007961Y002589D02*
X015454Y002589D01*
X015454Y002651D02*
X007941Y002651D01*
X007950Y002712D02*
X012459Y002712D01*
X012402Y002774D02*
X007961Y002774D01*
X007961Y002835D02*
X012377Y002835D01*
X012367Y002897D02*
X007937Y002897D01*
X007954Y002958D02*
X012368Y002958D01*
X012394Y003020D02*
X007961Y003020D01*
X007959Y003081D02*
X012373Y003081D01*
X012367Y003143D02*
X007933Y003143D01*
X007958Y003204D02*
X012372Y003204D01*
X012394Y003266D02*
X007961Y003266D01*
X007955Y003327D02*
X012369Y003327D01*
X012367Y003389D02*
X007929Y003389D01*
X007876Y003450D02*
X012376Y003450D01*
X011251Y001544D02*
X002443Y001544D01*
X002469Y001482D02*
X004946Y001482D01*
X004825Y001421D02*
X002494Y001421D01*
X002520Y001359D02*
X004763Y001359D01*
X004702Y001298D02*
X002545Y001298D01*
X002551Y001236D02*
X004670Y001236D01*
X004644Y001175D02*
X002551Y001175D01*
X002551Y001113D02*
X004619Y001113D01*
X004608Y001052D02*
X002551Y001052D01*
X002551Y000990D02*
X004608Y000990D01*
X004608Y000929D02*
X002527Y000929D01*
X002501Y000867D02*
X004609Y000867D01*
X004634Y000806D02*
X002476Y000806D01*
X002450Y000744D02*
X004660Y000744D01*
X004685Y000683D02*
X002407Y000683D01*
X002345Y000621D02*
X004739Y000621D01*
X004800Y000560D02*
X002284Y000560D01*
X002215Y000498D02*
X004886Y000498D01*
X005419Y000498D02*
X008036Y000498D01*
X007950Y000560D02*
X005505Y000560D01*
X005567Y000621D02*
X007888Y000621D01*
X007835Y000683D02*
X005620Y000683D01*
X005646Y000744D02*
X007809Y000744D01*
X007784Y000806D02*
X005671Y000806D01*
X005696Y000867D02*
X007758Y000867D01*
X007757Y000929D02*
X005697Y000929D01*
X005697Y000990D02*
X007757Y000990D01*
X007757Y001052D02*
X005697Y001052D01*
X005686Y001113D02*
X007768Y001113D01*
X007794Y001175D02*
X005661Y001175D01*
X005635Y001236D02*
X007819Y001236D01*
X007851Y001298D02*
X005603Y001298D01*
X005542Y001359D02*
X007913Y001359D01*
X007974Y001421D02*
X005480Y001421D01*
X005359Y001482D02*
X008096Y001482D01*
X008508Y001482D02*
X011126Y001482D01*
X011065Y001421D02*
X008630Y001421D01*
X008691Y001359D02*
X011003Y001359D01*
X010970Y001298D02*
X008753Y001298D01*
X008785Y001236D02*
X010945Y001236D01*
X010919Y001175D02*
X008810Y001175D01*
X008836Y001113D02*
X010907Y001113D01*
X010907Y001052D02*
X008847Y001052D01*
X008846Y000867D02*
X010932Y000867D01*
X010958Y000806D02*
X008821Y000806D01*
X008795Y000744D02*
X010983Y000744D01*
X011035Y000683D02*
X008770Y000683D01*
X008716Y000621D02*
X011097Y000621D01*
X011180Y000560D02*
X008655Y000560D01*
X008568Y000498D02*
X011328Y000498D01*
X014429Y002712D02*
X015454Y002712D01*
X015454Y002774D02*
X014486Y002774D01*
X014511Y002835D02*
X015454Y002835D01*
X015454Y002897D02*
X014520Y002897D01*
X014520Y002958D02*
X015454Y002958D01*
X015454Y003020D02*
X014494Y003020D01*
X014515Y003081D02*
X015454Y003081D01*
X015454Y003143D02*
X014520Y003143D01*
X014516Y003204D02*
X015454Y003204D01*
X015454Y003266D02*
X014494Y003266D01*
X014519Y003327D02*
X015454Y003327D01*
X015454Y003389D02*
X014520Y003389D01*
X014512Y003450D02*
X015454Y003450D01*
X015454Y003512D02*
X014498Y003512D01*
X014520Y003573D02*
X015454Y003573D01*
X015454Y003634D02*
X014520Y003634D01*
X014508Y003696D02*
X015454Y003696D01*
X015454Y003757D02*
X014502Y003757D01*
X014520Y003819D02*
X015454Y003819D01*
X015454Y003880D02*
X014520Y003880D01*
X014504Y003942D02*
X015454Y003942D01*
X015454Y004003D02*
X014472Y004003D01*
X014409Y004065D02*
X015454Y004065D01*
X015454Y006609D02*
X006708Y006628D01*
X006708Y006982D01*
X006544Y006982D01*
X006544Y007012D01*
X006506Y007104D01*
X006436Y007174D01*
X006344Y007212D01*
X006245Y007212D01*
X006153Y007174D01*
X006083Y007104D01*
X006045Y007012D01*
X006045Y006982D01*
X005840Y006982D01*
X005806Y007016D01*
X005714Y007054D01*
X005615Y007054D01*
X005523Y007016D01*
X005489Y006982D01*
X005113Y006982D01*
X005113Y006608D01*
X003411Y006608D01*
X003474Y006671D01*
X003512Y006763D01*
X003512Y006862D01*
X003474Y006954D01*
X003404Y007024D01*
X003312Y007062D01*
X003213Y007062D01*
X003121Y007024D01*
X003051Y006954D01*
X003013Y006862D01*
X003013Y006763D01*
X003051Y006671D01*
X003114Y006608D01*
X001150Y006608D01*
X001150Y007813D01*
X001154Y007805D01*
X001224Y007735D01*
X001315Y007697D01*
X001415Y007697D01*
X001507Y007735D01*
X001577Y007805D01*
X001615Y007897D01*
X001615Y007996D01*
X001577Y008088D01*
X001507Y008158D01*
X001415Y008196D01*
X001315Y008196D01*
X001224Y008158D01*
X001154Y008088D01*
X001150Y008080D01*
X001150Y013765D01*
X001175Y013706D01*
X001384Y013496D01*
X001658Y013383D01*
X001954Y013383D01*
X002228Y013496D01*
X002438Y013706D01*
X002551Y013979D01*
X002551Y014276D01*
X002438Y014550D01*
X002228Y014759D01*
X002169Y014783D01*
X004279Y014783D01*
X004204Y014753D01*
X004134Y014682D01*
X004096Y014591D01*
X004096Y014491D01*
X004134Y014400D01*
X004204Y014329D01*
X004296Y014291D01*
X004395Y014291D01*
X004487Y014329D01*
X004557Y014400D01*
X004595Y014491D01*
X004595Y014591D01*
X004557Y014682D01*
X004487Y014753D01*
X004412Y014783D01*
X014435Y014783D01*
X014376Y014759D01*
X014167Y014550D01*
X014053Y014276D01*
X014053Y013979D01*
X014167Y013706D01*
X014376Y013496D01*
X014650Y013383D01*
X014946Y013383D01*
X015220Y013496D01*
X015430Y013706D01*
X015454Y013765D01*
X015454Y006609D01*
X015454Y006648D02*
X006708Y006648D01*
X006708Y006709D02*
X015454Y006709D01*
X015454Y006771D02*
X006708Y006771D01*
X006708Y006832D02*
X015454Y006832D01*
X015454Y006894D02*
X012642Y006894D01*
X012636Y006888D02*
X012707Y006959D01*
X012745Y007050D01*
X012745Y007150D01*
X012707Y007241D01*
X012636Y007312D01*
X012545Y007350D01*
X012445Y007350D01*
X012354Y007312D01*
X012283Y007241D01*
X012245Y007150D01*
X012245Y007050D01*
X012283Y006959D01*
X012354Y006888D01*
X012445Y006850D01*
X012545Y006850D01*
X012636Y006888D01*
X012703Y006955D02*
X015454Y006955D01*
X015454Y007017D02*
X012731Y007017D01*
X012745Y007078D02*
X015454Y007078D01*
X015454Y007140D02*
X012745Y007140D01*
X012723Y007201D02*
X015454Y007201D01*
X015454Y007263D02*
X012685Y007263D01*
X012606Y007324D02*
X015454Y007324D01*
X015454Y007386D02*
X010783Y007386D01*
X010778Y007372D02*
X010816Y007464D01*
X010816Y007563D01*
X010778Y007655D01*
X010707Y007725D01*
X010616Y007763D01*
X010516Y007763D01*
X010425Y007725D01*
X010354Y007655D01*
X010316Y007563D01*
X010316Y007464D01*
X010354Y007372D01*
X010425Y007302D01*
X010516Y007264D01*
X010616Y007264D01*
X010707Y007302D01*
X010778Y007372D01*
X010730Y007324D02*
X012384Y007324D01*
X012305Y007263D02*
X008079Y007263D01*
X008079Y007228D02*
X008079Y007327D01*
X008041Y007419D01*
X007971Y007489D01*
X007879Y007527D01*
X007780Y007527D01*
X007688Y007489D01*
X007618Y007419D01*
X007580Y007327D01*
X007580Y007228D01*
X007618Y007136D01*
X007688Y007066D01*
X007780Y007028D01*
X007879Y007028D01*
X007971Y007066D01*
X008041Y007136D01*
X008079Y007228D01*
X008068Y007201D02*
X012267Y007201D01*
X012245Y007140D02*
X008043Y007140D01*
X007984Y007078D02*
X012245Y007078D01*
X012259Y007017D02*
X006542Y007017D01*
X006516Y007078D02*
X007676Y007078D01*
X007617Y007140D02*
X006470Y007140D01*
X006370Y007201D02*
X007591Y007201D01*
X007580Y007263D02*
X001150Y007263D01*
X001150Y007324D02*
X007580Y007324D01*
X007604Y007386D02*
X001150Y007386D01*
X001150Y007447D02*
X007647Y007447D01*
X007736Y007509D02*
X001150Y007509D01*
X001150Y007570D02*
X008646Y007570D01*
X008643Y007563D02*
X008643Y007464D01*
X008681Y007372D01*
X008751Y007302D01*
X008843Y007264D01*
X008942Y007264D01*
X009034Y007302D01*
X009104Y007372D01*
X009142Y007464D01*
X009142Y007563D01*
X009104Y007655D01*
X009034Y007725D01*
X008942Y007763D01*
X008889Y007763D01*
X008916Y007774D01*
X008986Y007844D01*
X009024Y007936D01*
X009024Y008035D01*
X009014Y008061D01*
X009034Y008069D01*
X009104Y008140D01*
X009142Y008231D01*
X009142Y008331D01*
X009140Y008335D01*
X009211Y008365D01*
X009281Y008435D01*
X009319Y008527D01*
X009319Y008626D01*
X009281Y008718D01*
X009211Y008788D01*
X009119Y008826D01*
X009020Y008826D01*
X008928Y008788D01*
X008858Y008718D01*
X008820Y008626D01*
X008820Y008527D01*
X008822Y008522D01*
X008751Y008493D01*
X008681Y008422D01*
X008643Y008331D01*
X008643Y008231D01*
X008654Y008206D01*
X008633Y008197D01*
X008563Y008127D01*
X008525Y008035D01*
X008525Y007936D01*
X008563Y007844D01*
X008633Y007774D01*
X008725Y007736D01*
X008778Y007736D01*
X008751Y007725D01*
X008681Y007655D01*
X008643Y007563D01*
X008643Y007509D02*
X007923Y007509D01*
X008013Y007447D02*
X008650Y007447D01*
X008675Y007386D02*
X008055Y007386D01*
X008079Y007324D02*
X008729Y007324D01*
X008671Y007631D02*
X001150Y007631D01*
X001150Y007693D02*
X008719Y007693D01*
X008681Y007754D02*
X001526Y007754D01*
X001581Y007816D02*
X008591Y007816D01*
X008549Y007877D02*
X001607Y007877D01*
X001615Y007939D02*
X008525Y007939D01*
X008525Y008000D02*
X001613Y008000D01*
X001587Y008062D02*
X008536Y008062D01*
X008561Y008123D02*
X001541Y008123D01*
X001442Y008185D02*
X008621Y008185D01*
X008643Y008246D02*
X001150Y008246D01*
X001150Y008185D02*
X001289Y008185D01*
X001189Y008123D02*
X001150Y008123D01*
X001150Y008308D02*
X002737Y008308D01*
X002743Y008302D02*
X002835Y008264D01*
X002934Y008264D01*
X003026Y008302D01*
X003096Y008372D01*
X003134Y008464D01*
X003134Y008563D01*
X003096Y008655D01*
X003026Y008725D01*
X002934Y008763D01*
X002835Y008763D01*
X002743Y008725D01*
X002673Y008655D01*
X002635Y008563D01*
X002635Y008464D01*
X002673Y008372D01*
X002743Y008302D01*
X002676Y008369D02*
X001150Y008369D01*
X001150Y008431D02*
X002649Y008431D01*
X002635Y008492D02*
X001150Y008492D01*
X001150Y008554D02*
X002635Y008554D01*
X002657Y008615D02*
X001150Y008615D01*
X001150Y008677D02*
X002695Y008677D01*
X002776Y008738D02*
X001150Y008738D01*
X001150Y008800D02*
X008957Y008800D01*
X008879Y008738D02*
X002994Y008738D01*
X003074Y008677D02*
X008841Y008677D01*
X008820Y008615D02*
X003113Y008615D01*
X003134Y008554D02*
X008820Y008554D01*
X008751Y008492D02*
X003134Y008492D01*
X003121Y008431D02*
X008689Y008431D01*
X008659Y008369D02*
X003094Y008369D01*
X003032Y008308D02*
X008643Y008308D01*
X009016Y008062D02*
X015454Y008062D01*
X015454Y008123D02*
X009088Y008123D01*
X009123Y008185D02*
X015454Y008185D01*
X015454Y008246D02*
X009142Y008246D01*
X009142Y008308D02*
X015454Y008308D01*
X015454Y008369D02*
X009216Y008369D01*
X009277Y008431D02*
X015454Y008431D01*
X015454Y008492D02*
X009305Y008492D01*
X009319Y008554D02*
X015454Y008554D01*
X015454Y008615D02*
X009319Y008615D01*
X009298Y008677D02*
X015454Y008677D01*
X015454Y008738D02*
X009261Y008738D01*
X009183Y008800D02*
X015454Y008800D01*
X015454Y008861D02*
X012493Y008861D01*
X012486Y008858D02*
X012577Y008896D01*
X012648Y008966D01*
X012686Y009058D01*
X012686Y009158D01*
X012648Y009249D01*
X012577Y009319D01*
X012486Y009357D01*
X012386Y009357D01*
X012295Y009319D01*
X012224Y009249D01*
X012186Y009158D01*
X012186Y009058D01*
X012224Y008966D01*
X012295Y008896D01*
X012386Y008858D01*
X012486Y008858D01*
X012379Y008861D02*
X008247Y008861D01*
X008235Y008849D02*
X008305Y008919D01*
X008343Y009011D01*
X008343Y009110D01*
X008305Y009202D01*
X008235Y009272D01*
X008143Y009310D01*
X008044Y009310D01*
X007952Y009272D01*
X007882Y009202D01*
X007844Y009110D01*
X007844Y009011D01*
X007882Y008919D01*
X007952Y008849D01*
X008044Y008811D01*
X008143Y008811D01*
X008235Y008849D01*
X008307Y008923D02*
X012268Y008923D01*
X012217Y008984D02*
X008332Y008984D01*
X008343Y009046D02*
X012192Y009046D01*
X012186Y009107D02*
X008737Y009107D01*
X008706Y009094D02*
X008798Y009132D01*
X008868Y009203D01*
X008906Y009294D01*
X008906Y009394D01*
X008868Y009485D01*
X008798Y009556D01*
X008706Y009594D01*
X008607Y009594D01*
X008515Y009556D01*
X008445Y009485D01*
X008407Y009394D01*
X008407Y009294D01*
X008445Y009203D01*
X008515Y009132D01*
X008607Y009094D01*
X008706Y009094D01*
X008576Y009107D02*
X008343Y009107D01*
X008319Y009169D02*
X008479Y009169D01*
X008433Y009230D02*
X008277Y009230D01*
X008188Y009292D02*
X008408Y009292D01*
X008407Y009353D02*
X007228Y009353D01*
X007262Y009339D02*
X007171Y009377D01*
X007071Y009377D01*
X006980Y009339D01*
X006909Y009269D01*
X006871Y009177D01*
X006871Y009078D01*
X006909Y008986D01*
X006980Y008916D01*
X007071Y008878D01*
X007171Y008878D01*
X007262Y008916D01*
X007333Y008986D01*
X007371Y009078D01*
X007371Y009177D01*
X007333Y009269D01*
X007262Y009339D01*
X007310Y009292D02*
X007999Y009292D01*
X007910Y009230D02*
X007349Y009230D01*
X007371Y009169D02*
X007868Y009169D01*
X007844Y009107D02*
X007371Y009107D01*
X007357Y009046D02*
X007844Y009046D01*
X007855Y008984D02*
X007331Y008984D01*
X007269Y008923D02*
X007880Y008923D01*
X007940Y008861D02*
X001150Y008861D01*
X001150Y008923D02*
X006973Y008923D01*
X006911Y008984D02*
X001150Y008984D01*
X001150Y009046D02*
X002806Y009046D01*
X002787Y009054D02*
X002878Y009016D01*
X002978Y009016D01*
X003070Y009054D01*
X003140Y009124D01*
X003178Y009216D01*
X003178Y009315D01*
X003140Y009407D01*
X003070Y009477D01*
X002978Y009515D01*
X002878Y009515D01*
X002787Y009477D01*
X002717Y009407D01*
X002679Y009315D01*
X002679Y009216D01*
X002717Y009124D01*
X002787Y009054D01*
X002733Y009107D02*
X001150Y009107D01*
X001150Y009169D02*
X002698Y009169D01*
X002679Y009230D02*
X001150Y009230D01*
X001150Y009292D02*
X002679Y009292D01*
X002694Y009353D02*
X001150Y009353D01*
X001150Y009415D02*
X002725Y009415D01*
X002786Y009476D02*
X001150Y009476D01*
X001150Y009538D02*
X008497Y009538D01*
X008441Y009476D02*
X003070Y009476D01*
X003132Y009415D02*
X008416Y009415D01*
X008168Y009703D02*
X008238Y009774D01*
X008276Y009865D01*
X008276Y009965D01*
X008238Y010056D01*
X008168Y010127D01*
X008076Y010165D01*
X007977Y010165D01*
X007885Y010127D01*
X007815Y010056D01*
X007777Y009965D01*
X007777Y009865D01*
X007815Y009774D01*
X007885Y009703D01*
X007977Y009665D01*
X008076Y009665D01*
X008168Y009703D01*
X008187Y009722D02*
X012495Y009722D01*
X012482Y009689D02*
X012520Y009781D01*
X012590Y009851D01*
X012682Y009889D01*
X012781Y009889D01*
X012873Y009851D01*
X012943Y009781D01*
X012981Y009689D01*
X012981Y009590D01*
X012943Y009498D01*
X012873Y009428D01*
X012781Y009390D01*
X012682Y009390D01*
X012590Y009428D01*
X012520Y009498D01*
X012482Y009590D01*
X012482Y009689D01*
X012482Y009661D02*
X001150Y009661D01*
X001150Y009722D02*
X006804Y009722D01*
X006802Y009723D02*
X006894Y009685D01*
X006994Y009685D01*
X007085Y009723D01*
X007155Y009793D01*
X007193Y009885D01*
X007193Y009984D01*
X007155Y010076D01*
X007085Y010146D01*
X006994Y010184D01*
X006894Y010184D01*
X006802Y010146D01*
X006732Y010076D01*
X006720Y010046D01*
X006683Y010135D01*
X006638Y010181D01*
X006662Y010239D01*
X006662Y010339D01*
X006624Y010430D01*
X006554Y010501D01*
X006462Y010539D01*
X006363Y010539D01*
X006271Y010501D01*
X006235Y010465D01*
X006199Y010501D01*
X006108Y010539D01*
X006071Y010539D01*
X006071Y010575D01*
X006033Y010667D01*
X005963Y010737D01*
X005871Y010775D01*
X005772Y010775D01*
X005680Y010737D01*
X005610Y010667D01*
X005572Y010575D01*
X005572Y010476D01*
X005610Y010384D01*
X005680Y010314D01*
X005772Y010276D01*
X004003Y010276D01*
X004026Y010253D02*
X003980Y010299D01*
X004004Y010357D01*
X004004Y010394D01*
X004041Y010394D01*
X004113Y010424D01*
X004165Y010373D01*
X004256Y010335D01*
X004356Y010335D01*
X004447Y010373D01*
X004518Y010443D01*
X004556Y010535D01*
X004556Y010571D01*
X004572Y010571D01*
X004664Y010609D01*
X004734Y010679D01*
X004743Y010700D01*
X004768Y010689D01*
X004868Y010689D01*
X004959Y010727D01*
X005029Y010797D01*
X005067Y010889D01*
X005067Y010988D01*
X005029Y011080D01*
X005001Y011109D01*
X005077Y011140D01*
X005148Y011211D01*
X005186Y011302D01*
X005186Y011402D01*
X005148Y011493D01*
X005077Y011564D01*
X004986Y011602D01*
X004886Y011602D01*
X004795Y011564D01*
X004724Y011493D01*
X004686Y011402D01*
X004686Y011302D01*
X004724Y011211D01*
X004753Y011182D01*
X004676Y011150D01*
X004606Y011080D01*
X004598Y011059D01*
X004572Y011070D01*
X004473Y011070D01*
X004381Y011032D01*
X004311Y010962D01*
X004273Y010870D01*
X004273Y010834D01*
X004256Y010834D01*
X004184Y010804D01*
X004132Y010855D01*
X004041Y010893D01*
X003941Y010893D01*
X003850Y010855D01*
X003780Y010785D01*
X003742Y010693D01*
X003742Y010657D01*
X003705Y010657D01*
X003613Y010619D01*
X003543Y010548D01*
X003505Y010457D01*
X003505Y010357D01*
X003543Y010266D01*
X003589Y010220D01*
X003564Y010161D01*
X003564Y010062D01*
X003602Y009970D01*
X003673Y009900D01*
X003764Y009862D01*
X003864Y009862D01*
X003955Y009900D01*
X004026Y009970D01*
X004064Y010062D01*
X004064Y010161D01*
X004026Y010253D01*
X004042Y010214D02*
X005819Y010214D01*
X005808Y010239D02*
X005846Y010148D01*
X005917Y010077D01*
X006008Y010039D01*
X006108Y010039D01*
X006199Y010077D01*
X006235Y010113D01*
X006246Y010102D01*
X006222Y010043D01*
X006222Y009944D01*
X006260Y009852D01*
X006330Y009782D01*
X006422Y009744D01*
X006521Y009744D01*
X006613Y009782D01*
X006683Y009852D01*
X006695Y009882D01*
X006732Y009793D01*
X006802Y009723D01*
X006742Y009784D02*
X006614Y009784D01*
X006676Y009845D02*
X006711Y009845D01*
X006701Y010091D02*
X006747Y010091D01*
X006818Y010153D02*
X006665Y010153D01*
X006652Y010214D02*
X009020Y010214D01*
X009001Y010259D02*
X009039Y010167D01*
X009110Y010097D01*
X009201Y010059D01*
X009301Y010059D01*
X009392Y010097D01*
X009463Y010167D01*
X009501Y010259D01*
X009501Y010358D01*
X009463Y010450D01*
X009392Y010520D01*
X009301Y010558D01*
X009201Y010558D01*
X009110Y010520D01*
X009039Y010450D01*
X009001Y010358D01*
X009001Y010259D01*
X009001Y010276D02*
X006662Y010276D01*
X006662Y010337D02*
X009001Y010337D01*
X009018Y010399D02*
X006637Y010399D01*
X006594Y010460D02*
X009049Y010460D01*
X009113Y010522D02*
X006503Y010522D01*
X006322Y010522D02*
X006149Y010522D01*
X006068Y010583D02*
X009345Y010583D01*
X009375Y010571D02*
X009474Y010571D01*
X009478Y010573D01*
X009508Y010502D01*
X009578Y010432D01*
X009670Y010394D01*
X009769Y010394D01*
X009861Y010432D01*
X009931Y010502D01*
X009969Y010594D01*
X009969Y010693D01*
X009931Y010785D01*
X009861Y010855D01*
X009769Y010893D01*
X009670Y010893D01*
X009665Y010891D01*
X009636Y010962D01*
X009566Y011032D01*
X009474Y011070D01*
X009375Y011070D01*
X009370Y011068D01*
X009341Y011139D01*
X009270Y011209D01*
X009179Y011247D01*
X009079Y011247D01*
X008988Y011209D01*
X008917Y011139D01*
X008879Y011047D01*
X008879Y010948D01*
X008917Y010856D01*
X008988Y010786D01*
X009079Y010748D01*
X009179Y010748D01*
X009183Y010750D01*
X009213Y010679D01*
X009283Y010609D01*
X009375Y010571D01*
X009389Y010522D02*
X009500Y010522D01*
X009452Y010460D02*
X009550Y010460D01*
X009484Y010399D02*
X009658Y010399D01*
X009781Y010399D02*
X015454Y010399D01*
X015454Y010460D02*
X009889Y010460D01*
X009939Y010522D02*
X015454Y010522D01*
X015454Y010583D02*
X009965Y010583D01*
X009969Y010645D02*
X011792Y010645D01*
X011783Y010648D02*
X011875Y010610D01*
X011974Y010610D01*
X012066Y010648D01*
X012136Y010718D01*
X012174Y010810D01*
X012174Y010866D01*
X012249Y010866D01*
X012341Y010904D01*
X012411Y010974D01*
X012449Y011066D01*
X012449Y011165D01*
X012411Y011257D01*
X012341Y011327D01*
X012249Y011365D01*
X012150Y011365D01*
X012058Y011327D01*
X011988Y011257D01*
X011950Y011165D01*
X011950Y011109D01*
X011875Y011109D01*
X011783Y011071D01*
X011713Y011001D01*
X011675Y010909D01*
X011675Y010810D01*
X011713Y010718D01*
X011783Y010648D01*
X011725Y010706D02*
X009964Y010706D01*
X009938Y010768D02*
X011692Y010768D01*
X011675Y010829D02*
X009887Y010829D01*
X009775Y010891D02*
X011675Y010891D01*
X011692Y010952D02*
X009640Y010952D01*
X009584Y011014D02*
X011725Y011014D01*
X011792Y011075D02*
X009367Y011075D01*
X009342Y011137D02*
X011950Y011137D01*
X011964Y011198D02*
X009281Y011198D01*
X009230Y011398D02*
X009321Y011436D01*
X009392Y011506D01*
X009430Y011598D01*
X009430Y011635D01*
X009434Y011634D01*
X009533Y011634D01*
X009625Y011672D01*
X009695Y011742D01*
X009733Y011834D01*
X009733Y011933D01*
X009695Y012025D01*
X009663Y012057D01*
X009686Y012047D01*
X009785Y012047D01*
X009830Y012066D01*
X009824Y012051D01*
X009824Y011952D01*
X009862Y011860D01*
X009932Y011790D01*
X010024Y011752D01*
X010123Y011752D01*
X010179Y011775D01*
X010175Y011764D01*
X010175Y011665D01*
X010213Y011573D01*
X010283Y011503D01*
X010375Y011465D01*
X010474Y011465D01*
X010566Y011503D01*
X010636Y011573D01*
X010674Y011665D01*
X010674Y011752D01*
X010714Y011752D01*
X010806Y011790D01*
X010876Y011860D01*
X010914Y011952D01*
X010914Y011988D01*
X010950Y011988D01*
X011042Y012026D01*
X011112Y012096D01*
X011150Y012188D01*
X011150Y012287D01*
X011186Y012287D01*
X011278Y012325D01*
X011348Y012396D01*
X011386Y012487D01*
X011386Y012524D01*
X011423Y012524D01*
X011514Y012562D01*
X011585Y012632D01*
X011623Y012724D01*
X011623Y012823D01*
X011585Y012915D01*
X011514Y012985D01*
X011423Y013023D01*
X011323Y013023D01*
X011232Y012985D01*
X011161Y012915D01*
X011123Y012823D01*
X011123Y012787D01*
X011087Y012787D01*
X010995Y012749D01*
X010925Y012678D01*
X010887Y012587D01*
X010887Y012487D01*
X010851Y012487D01*
X010759Y012449D01*
X010689Y012379D01*
X010651Y012287D01*
X010651Y012251D01*
X010615Y012251D01*
X010523Y012213D01*
X010453Y012143D01*
X010415Y012051D01*
X010415Y011964D01*
X010375Y011964D01*
X010319Y011941D01*
X010323Y011952D01*
X010323Y012051D01*
X010285Y012143D01*
X010215Y012213D01*
X010123Y012251D01*
X010024Y012251D01*
X009979Y012232D01*
X009985Y012247D01*
X009985Y012346D01*
X009947Y012438D01*
X009877Y012508D01*
X009785Y012546D01*
X009686Y012546D01*
X009594Y012508D01*
X009524Y012438D01*
X009486Y012346D01*
X009486Y012247D01*
X009524Y012155D01*
X009555Y012124D01*
X009533Y012133D01*
X009434Y012133D01*
X009342Y012095D01*
X009272Y012025D01*
X009234Y011933D01*
X009234Y011895D01*
X009230Y011897D01*
X009130Y011897D01*
X009039Y011859D01*
X008968Y011789D01*
X008930Y011697D01*
X008930Y011598D01*
X008968Y011506D01*
X009039Y011436D01*
X009130Y011398D01*
X009230Y011398D01*
X009330Y011444D02*
X015454Y011444D01*
X015454Y011383D02*
X008036Y011383D01*
X008030Y011377D02*
X008100Y011447D01*
X008138Y011539D01*
X008138Y011638D01*
X008100Y011730D01*
X008030Y011800D01*
X007938Y011838D01*
X007839Y011838D01*
X007747Y011800D01*
X007677Y011730D01*
X007639Y011638D01*
X007639Y011539D01*
X007677Y011447D01*
X007747Y011377D01*
X007839Y011339D01*
X007938Y011339D01*
X008030Y011377D01*
X008098Y011444D02*
X009030Y011444D01*
X008969Y011506D02*
X008125Y011506D01*
X008138Y011567D02*
X008943Y011567D01*
X008930Y011629D02*
X008138Y011629D01*
X008117Y011690D02*
X008930Y011690D01*
X008953Y011751D02*
X008078Y011751D01*
X007998Y011813D02*
X008993Y011813D01*
X009076Y011874D02*
X005304Y011874D01*
X005304Y011834D02*
X005304Y011933D01*
X005266Y012025D01*
X005195Y012095D01*
X005104Y012133D01*
X005004Y012133D01*
X004913Y012095D01*
X004842Y012025D01*
X004804Y011933D01*
X004804Y011834D01*
X004842Y011742D01*
X004913Y011672D01*
X005004Y011634D01*
X005104Y011634D01*
X005195Y011672D01*
X005266Y011742D01*
X005304Y011834D01*
X005295Y011813D02*
X007779Y011813D01*
X007699Y011751D02*
X005270Y011751D01*
X005214Y011690D02*
X007661Y011690D01*
X007639Y011629D02*
X002127Y011629D01*
X002127Y011650D02*
X002089Y011741D01*
X002018Y011812D01*
X001927Y011850D01*
X001827Y011850D01*
X001736Y011812D01*
X001665Y011741D01*
X001627Y011650D01*
X001627Y011550D01*
X001665Y011459D01*
X001736Y011388D01*
X001827Y011350D01*
X001927Y011350D01*
X002018Y011388D01*
X002089Y011459D01*
X002127Y011550D01*
X002127Y011650D01*
X002110Y011690D02*
X004895Y011690D01*
X004839Y011751D02*
X002078Y011751D01*
X002015Y011813D02*
X004813Y011813D01*
X004804Y011874D02*
X001150Y011874D01*
X001150Y011813D02*
X001739Y011813D01*
X001675Y011751D02*
X001150Y011751D01*
X001150Y011690D02*
X001644Y011690D01*
X001627Y011629D02*
X001150Y011629D01*
X001150Y011567D02*
X001627Y011567D01*
X001646Y011506D02*
X001150Y011506D01*
X001150Y011444D02*
X001680Y011444D01*
X001750Y011383D02*
X001150Y011383D01*
X001150Y011321D02*
X004686Y011321D01*
X004686Y011383D02*
X002004Y011383D01*
X002074Y011444D02*
X004704Y011444D01*
X004737Y011506D02*
X002108Y011506D01*
X002127Y011567D02*
X004803Y011567D01*
X005069Y011567D02*
X007639Y011567D01*
X007653Y011506D02*
X006439Y011506D01*
X006436Y011508D02*
X006344Y011546D01*
X006245Y011546D01*
X006153Y011508D01*
X006083Y011438D01*
X006045Y011346D01*
X006045Y011247D01*
X006083Y011155D01*
X006153Y011085D01*
X006245Y011047D01*
X006344Y011047D01*
X006436Y011085D01*
X006506Y011155D01*
X006544Y011247D01*
X006544Y011346D01*
X006506Y011438D01*
X006436Y011508D01*
X006500Y011444D02*
X007680Y011444D01*
X007741Y011383D02*
X006529Y011383D01*
X006544Y011321D02*
X012052Y011321D01*
X011991Y011260D02*
X006544Y011260D01*
X006524Y011198D02*
X008976Y011198D01*
X008916Y011137D02*
X006487Y011137D01*
X006411Y011075D02*
X008891Y011075D01*
X008879Y011014D02*
X005057Y011014D01*
X005067Y010952D02*
X008879Y010952D01*
X008903Y010891D02*
X005067Y010891D01*
X005043Y010829D02*
X008944Y010829D01*
X009032Y010768D02*
X005889Y010768D01*
X005994Y010706D02*
X009201Y010706D01*
X009247Y010645D02*
X006043Y010645D01*
X005755Y010768D02*
X005000Y010768D01*
X004909Y010706D02*
X005650Y010706D01*
X005601Y010645D02*
X004700Y010645D01*
X004602Y010583D02*
X005576Y010583D01*
X005572Y010522D02*
X004550Y010522D01*
X004525Y010460D02*
X005579Y010460D01*
X005604Y010399D02*
X004473Y010399D01*
X004362Y010337D02*
X005657Y010337D01*
X005772Y010276D02*
X005808Y010276D01*
X005808Y010239D01*
X005844Y010153D02*
X004064Y010153D01*
X004064Y010091D02*
X005903Y010091D01*
X006213Y010091D02*
X006242Y010091D01*
X006222Y010030D02*
X004050Y010030D01*
X004023Y009968D02*
X006222Y009968D01*
X006237Y009907D02*
X003962Y009907D01*
X003666Y009907D02*
X001150Y009907D01*
X001150Y009968D02*
X003605Y009968D01*
X003578Y010030D02*
X001150Y010030D01*
X001150Y010091D02*
X003564Y010091D01*
X003564Y010153D02*
X001150Y010153D01*
X001150Y010214D02*
X003586Y010214D01*
X003539Y010276D02*
X001150Y010276D01*
X001150Y010337D02*
X003514Y010337D01*
X003505Y010399D02*
X001150Y010399D01*
X001150Y010460D02*
X003507Y010460D01*
X003532Y010522D02*
X001150Y010522D01*
X001150Y010583D02*
X003578Y010583D01*
X003676Y010645D02*
X001150Y010645D01*
X001150Y010706D02*
X003747Y010706D01*
X003772Y010768D02*
X001150Y010768D01*
X001150Y010829D02*
X003824Y010829D01*
X003936Y010891D02*
X001150Y010891D01*
X001150Y010952D02*
X004307Y010952D01*
X004281Y010891D02*
X004046Y010891D01*
X004158Y010829D02*
X004245Y010829D01*
X004363Y011014D02*
X001150Y011014D01*
X001150Y011075D02*
X004604Y011075D01*
X004663Y011137D02*
X001150Y011137D01*
X001150Y011198D02*
X004737Y011198D01*
X004704Y011260D02*
X001150Y011260D01*
X001150Y011936D02*
X004806Y011936D01*
X004831Y011997D02*
X001150Y011997D01*
X001150Y012059D02*
X004877Y012059D01*
X004974Y012120D02*
X001150Y012120D01*
X001150Y012182D02*
X009513Y012182D01*
X009487Y012243D02*
X001150Y012243D01*
X001150Y012305D02*
X009486Y012305D01*
X009494Y012366D02*
X007720Y012366D01*
X007755Y012381D02*
X007825Y012451D01*
X007863Y012542D01*
X007863Y012642D01*
X007825Y012734D01*
X007755Y012804D01*
X007663Y012842D01*
X007564Y012842D01*
X007472Y012804D01*
X007402Y012734D01*
X007364Y012642D01*
X007364Y012542D01*
X007402Y012451D01*
X007472Y012381D01*
X007564Y012343D01*
X007663Y012343D01*
X007755Y012381D01*
X007802Y012428D02*
X009519Y012428D01*
X009575Y012489D02*
X007841Y012489D01*
X007863Y012551D02*
X010887Y012551D01*
X010887Y012489D02*
X009896Y012489D01*
X009951Y012428D02*
X010738Y012428D01*
X010684Y012366D02*
X009977Y012366D01*
X009985Y012305D02*
X010658Y012305D01*
X010596Y012243D02*
X010142Y012243D01*
X010246Y012182D02*
X010492Y012182D01*
X010443Y012120D02*
X010295Y012120D01*
X010320Y012059D02*
X010418Y012059D01*
X010415Y011997D02*
X010323Y011997D01*
X010175Y011751D02*
X009699Y011751D01*
X009724Y011813D02*
X009909Y011813D01*
X009856Y011874D02*
X009733Y011874D01*
X009732Y011936D02*
X009831Y011936D01*
X009824Y011997D02*
X009706Y011997D01*
X009813Y012059D02*
X009827Y012059D01*
X009983Y012243D02*
X010005Y012243D01*
X009403Y012120D02*
X005134Y012120D01*
X005232Y012059D02*
X009306Y012059D01*
X009260Y011997D02*
X005277Y011997D01*
X005303Y011936D02*
X009235Y011936D01*
X009430Y011629D02*
X010189Y011629D01*
X010175Y011690D02*
X009643Y011690D01*
X009417Y011567D02*
X010218Y011567D01*
X010280Y011506D02*
X009391Y011506D01*
X009501Y010337D02*
X015454Y010337D01*
X015454Y010276D02*
X009501Y010276D01*
X009482Y010214D02*
X015454Y010214D01*
X015454Y010153D02*
X009448Y010153D01*
X009378Y010091D02*
X015454Y010091D01*
X015454Y010030D02*
X008249Y010030D01*
X008275Y009968D02*
X015454Y009968D01*
X015454Y009907D02*
X008276Y009907D01*
X008268Y009845D02*
X012584Y009845D01*
X012523Y009784D02*
X008242Y009784D01*
X008203Y010091D02*
X009124Y010091D01*
X009054Y010153D02*
X008105Y010153D01*
X007948Y010153D02*
X007070Y010153D01*
X007140Y010091D02*
X007850Y010091D01*
X007804Y010030D02*
X007175Y010030D01*
X007193Y009968D02*
X007778Y009968D01*
X007777Y009907D02*
X007193Y009907D01*
X007177Y009845D02*
X007785Y009845D01*
X007811Y009784D02*
X007146Y009784D01*
X007083Y009722D02*
X007866Y009722D01*
X007014Y009353D02*
X003162Y009353D01*
X003178Y009292D02*
X006932Y009292D01*
X006893Y009230D02*
X003178Y009230D01*
X003158Y009169D02*
X006871Y009169D01*
X006871Y009107D02*
X003123Y009107D01*
X003050Y009046D02*
X006885Y009046D01*
X006328Y009784D02*
X001150Y009784D01*
X001150Y009845D02*
X006267Y009845D01*
X006177Y011075D02*
X005032Y011075D01*
X005068Y011137D02*
X006102Y011137D01*
X006065Y011198D02*
X005135Y011198D01*
X005168Y011260D02*
X006045Y011260D01*
X006045Y011321D02*
X005186Y011321D01*
X005186Y011383D02*
X006060Y011383D01*
X006088Y011444D02*
X005168Y011444D01*
X005135Y011506D02*
X006150Y011506D01*
X006684Y012381D02*
X006776Y012343D01*
X006875Y012343D01*
X006967Y012381D01*
X007037Y012451D01*
X007075Y012542D01*
X007075Y012642D01*
X007037Y012734D01*
X006967Y012804D01*
X006875Y012842D01*
X006776Y012842D01*
X006684Y012804D01*
X006614Y012734D01*
X006576Y012642D01*
X006576Y012542D01*
X006614Y012451D01*
X006684Y012381D01*
X006718Y012366D02*
X001150Y012366D01*
X001150Y012428D02*
X006637Y012428D01*
X006598Y012489D02*
X001150Y012489D01*
X001150Y012551D02*
X006576Y012551D01*
X006576Y012612D02*
X001150Y012612D01*
X001150Y012674D02*
X006589Y012674D01*
X006616Y012735D02*
X001150Y012735D01*
X001150Y012797D02*
X006677Y012797D01*
X006974Y012797D02*
X007465Y012797D01*
X007403Y012735D02*
X007036Y012735D01*
X007062Y012674D02*
X007377Y012674D01*
X007364Y012612D02*
X007075Y012612D01*
X007075Y012551D02*
X007364Y012551D01*
X007386Y012489D02*
X007053Y012489D01*
X007015Y012428D02*
X007424Y012428D01*
X007506Y012366D02*
X006933Y012366D01*
X007761Y012797D02*
X011123Y012797D01*
X011138Y012858D02*
X001150Y012858D01*
X001150Y012920D02*
X011167Y012920D01*
X011228Y012981D02*
X001150Y012981D01*
X001150Y013043D02*
X012613Y013043D01*
X012600Y013074D02*
X012638Y012982D01*
X012708Y012912D01*
X012800Y012874D01*
X012899Y012874D01*
X012991Y012912D01*
X013061Y012982D01*
X013099Y013074D01*
X013099Y013173D01*
X013061Y013265D01*
X012991Y013335D01*
X012899Y013373D01*
X012800Y013373D01*
X012708Y013335D01*
X012638Y013265D01*
X012600Y013173D01*
X012600Y013074D01*
X012600Y013104D02*
X001150Y013104D01*
X001150Y013166D02*
X012600Y013166D01*
X012622Y013227D02*
X001150Y013227D01*
X001150Y013289D02*
X006418Y013289D01*
X006422Y013287D02*
X006521Y013287D01*
X006613Y013325D01*
X006683Y013396D01*
X006721Y013487D01*
X006721Y013587D01*
X006683Y013678D01*
X006613Y013749D01*
X006521Y013787D01*
X006422Y013787D01*
X006330Y013749D01*
X006301Y013720D01*
X006270Y013797D01*
X006199Y013867D01*
X006108Y013905D01*
X006008Y013905D01*
X005917Y013867D01*
X005846Y013797D01*
X005808Y013705D01*
X005808Y013605D01*
X005846Y013514D01*
X005917Y013444D01*
X006008Y013406D01*
X006108Y013406D01*
X006199Y013444D01*
X006228Y013472D01*
X006260Y013396D01*
X006330Y013325D01*
X006422Y013287D01*
X006524Y013289D02*
X007902Y013289D01*
X007925Y013266D02*
X008016Y013228D01*
X008116Y013228D01*
X008207Y013266D01*
X008278Y013337D01*
X008316Y013428D01*
X008316Y013528D01*
X008278Y013619D01*
X008207Y013690D01*
X008116Y013728D01*
X008016Y013728D01*
X007925Y013690D01*
X007854Y013619D01*
X007816Y013528D01*
X007816Y013428D01*
X007854Y013337D01*
X007925Y013266D01*
X007849Y013350D02*
X006638Y013350D01*
X006690Y013412D02*
X007823Y013412D01*
X007816Y013473D02*
X006715Y013473D01*
X006721Y013535D02*
X007819Y013535D01*
X007845Y013596D02*
X006717Y013596D01*
X006692Y013658D02*
X007893Y013658D01*
X007996Y013719D02*
X006642Y013719D01*
X006535Y013781D02*
X008821Y013781D01*
X008820Y013783D02*
X008858Y013691D01*
X008928Y013621D01*
X009020Y013583D01*
X009119Y013583D01*
X009211Y013621D01*
X009281Y013691D01*
X009319Y013783D01*
X009319Y013882D01*
X009281Y013974D01*
X009211Y014044D01*
X009119Y014082D01*
X009020Y014082D01*
X008928Y014044D01*
X008858Y013974D01*
X008820Y013882D01*
X008820Y013783D01*
X008820Y013842D02*
X006224Y013842D01*
X006276Y013781D02*
X006408Y013781D01*
X006110Y013904D02*
X008829Y013904D01*
X008855Y013965D02*
X004679Y013965D01*
X004675Y013974D02*
X004605Y014044D01*
X004513Y014082D01*
X004414Y014082D01*
X004322Y014044D01*
X004252Y013974D01*
X004214Y013882D01*
X004214Y013783D01*
X004252Y013691D01*
X004322Y013621D01*
X004414Y013583D01*
X004513Y013583D01*
X004605Y013621D01*
X004675Y013691D01*
X004713Y013783D01*
X004713Y013882D01*
X004675Y013974D01*
X004622Y014027D02*
X008911Y014027D01*
X008846Y013719D02*
X008136Y013719D01*
X008239Y013658D02*
X008891Y013658D01*
X008987Y013596D02*
X008287Y013596D01*
X008313Y013535D02*
X012381Y013535D01*
X012413Y013503D02*
X012504Y013465D01*
X012604Y013465D01*
X012695Y013503D01*
X012766Y013573D01*
X012804Y013665D01*
X012804Y013764D01*
X012766Y013856D01*
X012695Y013926D01*
X012604Y013964D01*
X012504Y013964D01*
X012413Y013926D01*
X012342Y013856D01*
X012304Y013764D01*
X012304Y013665D01*
X012342Y013573D01*
X012413Y013503D01*
X012483Y013473D02*
X008316Y013473D01*
X008309Y013412D02*
X014580Y013412D01*
X014431Y013473D02*
X012625Y013473D01*
X012728Y013535D02*
X014338Y013535D01*
X014276Y013596D02*
X012775Y013596D01*
X012801Y013658D02*
X014215Y013658D01*
X014161Y013719D02*
X012804Y013719D01*
X012797Y013781D02*
X014136Y013781D01*
X014110Y013842D02*
X012771Y013842D01*
X012718Y013904D02*
X014085Y013904D01*
X014059Y013965D02*
X009285Y013965D01*
X009310Y013904D02*
X012391Y013904D01*
X012337Y013842D02*
X009319Y013842D01*
X009319Y013781D02*
X012311Y013781D01*
X012304Y013719D02*
X009293Y013719D01*
X009248Y013658D02*
X012307Y013658D01*
X012333Y013596D02*
X009152Y013596D01*
X009228Y014027D02*
X014053Y014027D01*
X014053Y014088D02*
X002551Y014088D01*
X002551Y014027D02*
X004305Y014027D01*
X004248Y013965D02*
X002545Y013965D01*
X002520Y013904D02*
X004223Y013904D01*
X004214Y013842D02*
X002494Y013842D01*
X002469Y013781D02*
X004215Y013781D01*
X004240Y013719D02*
X002443Y013719D01*
X002390Y013658D02*
X004285Y013658D01*
X004381Y013596D02*
X002328Y013596D01*
X002267Y013535D02*
X005838Y013535D01*
X005812Y013596D02*
X004546Y013596D01*
X004642Y013658D02*
X005808Y013658D01*
X005814Y013719D02*
X004687Y013719D01*
X004712Y013781D02*
X005840Y013781D01*
X005892Y013842D02*
X004713Y013842D01*
X004704Y013904D02*
X006006Y013904D01*
X005887Y013473D02*
X002173Y013473D01*
X002024Y013412D02*
X005993Y013412D01*
X006123Y013412D02*
X006253Y013412D01*
X006305Y013350D02*
X001150Y013350D01*
X001150Y013412D02*
X001588Y013412D01*
X001439Y013473D02*
X001150Y013473D01*
X001150Y013535D02*
X001345Y013535D01*
X001284Y013596D02*
X001150Y013596D01*
X001150Y013658D02*
X001222Y013658D01*
X001169Y013719D02*
X001150Y013719D01*
X002215Y014765D02*
X004233Y014765D01*
X004155Y014703D02*
X002284Y014703D01*
X002345Y014642D02*
X004117Y014642D01*
X004096Y014580D02*
X002407Y014580D01*
X002450Y014519D02*
X004096Y014519D01*
X004110Y014457D02*
X002476Y014457D01*
X002501Y014396D02*
X004138Y014396D01*
X004199Y014334D02*
X002527Y014334D01*
X002551Y014273D02*
X014053Y014273D01*
X014053Y014211D02*
X002551Y014211D01*
X002551Y014150D02*
X014053Y014150D01*
X014078Y014334D02*
X004492Y014334D01*
X004553Y014396D02*
X014103Y014396D01*
X014128Y014457D02*
X004581Y014457D01*
X004595Y014519D02*
X014154Y014519D01*
X014197Y014580D02*
X004595Y014580D01*
X004574Y014642D02*
X014259Y014642D01*
X014320Y014703D02*
X004536Y014703D01*
X004458Y014765D02*
X014390Y014765D01*
X015435Y013719D02*
X015454Y013719D01*
X015454Y013658D02*
X015382Y013658D01*
X015320Y013596D02*
X015454Y013596D01*
X015454Y013535D02*
X015259Y013535D01*
X015165Y013473D02*
X015454Y013473D01*
X015454Y013412D02*
X015017Y013412D01*
X015454Y013350D02*
X012954Y013350D01*
X013037Y013289D02*
X015454Y013289D01*
X015454Y013227D02*
X013077Y013227D01*
X013099Y013166D02*
X015454Y013166D01*
X015454Y013104D02*
X013099Y013104D01*
X013086Y013043D02*
X015454Y013043D01*
X015454Y012981D02*
X013344Y012981D01*
X013345Y012981D02*
X013253Y013019D01*
X013154Y013019D01*
X013062Y012981D01*
X012992Y012911D01*
X012954Y012819D01*
X012954Y012720D01*
X012992Y012628D01*
X013062Y012558D01*
X013154Y012520D01*
X013253Y012520D01*
X013345Y012558D01*
X013415Y012628D01*
X013453Y012720D01*
X013453Y012819D01*
X013415Y012911D01*
X013345Y012981D01*
X013406Y012920D02*
X015454Y012920D01*
X015454Y012858D02*
X013437Y012858D01*
X013453Y012797D02*
X015454Y012797D01*
X015454Y012735D02*
X013453Y012735D01*
X013434Y012674D02*
X015454Y012674D01*
X015454Y012612D02*
X013400Y012612D01*
X013329Y012551D02*
X015454Y012551D01*
X015454Y012489D02*
X012273Y012489D01*
X012293Y012510D02*
X012331Y012602D01*
X012331Y012701D01*
X012293Y012793D01*
X012223Y012863D01*
X012131Y012901D01*
X012032Y012901D01*
X011940Y012863D01*
X011870Y012793D01*
X011832Y012701D01*
X011832Y012602D01*
X011870Y012510D01*
X011940Y012440D01*
X012032Y012402D01*
X012131Y012402D01*
X012223Y012440D01*
X012293Y012510D01*
X012310Y012551D02*
X013079Y012551D01*
X013008Y012612D02*
X012331Y012612D01*
X012331Y012674D02*
X012973Y012674D01*
X012954Y012735D02*
X012317Y012735D01*
X012289Y012797D02*
X012954Y012797D01*
X012970Y012858D02*
X012227Y012858D01*
X011936Y012858D02*
X011608Y012858D01*
X011623Y012797D02*
X011874Y012797D01*
X011846Y012735D02*
X011623Y012735D01*
X011602Y012674D02*
X011832Y012674D01*
X011832Y012612D02*
X011565Y012612D01*
X011488Y012551D02*
X011853Y012551D01*
X011890Y012489D02*
X011386Y012489D01*
X011362Y012428D02*
X011968Y012428D01*
X012195Y012428D02*
X015454Y012428D01*
X015454Y012366D02*
X011319Y012366D01*
X011229Y012305D02*
X015454Y012305D01*
X015454Y012243D02*
X011150Y012243D01*
X011148Y012182D02*
X015454Y012182D01*
X015454Y012120D02*
X011122Y012120D01*
X011075Y012059D02*
X015454Y012059D01*
X015454Y011997D02*
X010973Y011997D01*
X010907Y011936D02*
X015454Y011936D01*
X015454Y011874D02*
X010882Y011874D01*
X010829Y011813D02*
X015454Y011813D01*
X015454Y011751D02*
X010674Y011751D01*
X010674Y011690D02*
X015454Y011690D01*
X015454Y011629D02*
X010659Y011629D01*
X010630Y011567D02*
X015454Y011567D01*
X015454Y011506D02*
X010569Y011506D01*
X010898Y012612D02*
X007863Y012612D01*
X007849Y012674D02*
X010923Y012674D01*
X010982Y012735D02*
X007823Y012735D01*
X008230Y013289D02*
X012662Y013289D01*
X012744Y013350D02*
X008283Y013350D01*
X007239Y013655D02*
X007239Y013714D01*
X005172Y013124D02*
X005172Y013006D01*
X003932Y012238D02*
X003932Y012179D01*
X003519Y013537D02*
X003460Y013537D01*
X003282Y013714D01*
X004053Y010399D02*
X004139Y010399D01*
X004250Y010337D02*
X003996Y010337D01*
X001150Y009599D02*
X012482Y009599D01*
X012503Y009538D02*
X008816Y009538D01*
X008872Y009476D02*
X012541Y009476D01*
X012621Y009415D02*
X008897Y009415D01*
X008906Y009353D02*
X012376Y009353D01*
X012496Y009353D02*
X015454Y009353D01*
X015454Y009292D02*
X012605Y009292D01*
X012655Y009230D02*
X015454Y009230D01*
X015454Y009169D02*
X012681Y009169D01*
X012686Y009107D02*
X015454Y009107D01*
X015454Y009046D02*
X012680Y009046D01*
X012655Y008984D02*
X015454Y008984D01*
X015454Y008923D02*
X012604Y008923D01*
X012191Y009169D02*
X008834Y009169D01*
X008879Y009230D02*
X012217Y009230D01*
X012267Y009292D02*
X008905Y009292D01*
X009188Y009462D02*
X009247Y009403D01*
X009247Y009462D02*
X009188Y009462D01*
X009024Y008000D02*
X015454Y008000D01*
X015454Y007939D02*
X009024Y007939D01*
X009000Y007877D02*
X015454Y007877D01*
X015454Y007816D02*
X008958Y007816D01*
X008963Y007754D02*
X010496Y007754D01*
X010393Y007693D02*
X009066Y007693D01*
X009114Y007631D02*
X010345Y007631D01*
X010319Y007570D02*
X009139Y007570D01*
X009142Y007509D02*
X010316Y007509D01*
X010323Y007447D02*
X009135Y007447D01*
X009110Y007386D02*
X010349Y007386D01*
X010402Y007324D02*
X009056Y007324D01*
X010546Y007986D02*
X010901Y008104D01*
X010636Y007754D02*
X015454Y007754D01*
X015454Y007693D02*
X010739Y007693D01*
X010787Y007631D02*
X015454Y007631D01*
X015454Y007570D02*
X010813Y007570D01*
X010816Y007509D02*
X015454Y007509D01*
X015454Y007447D02*
X010809Y007447D01*
X011609Y007395D02*
X011609Y007336D01*
X012287Y006955D02*
X006708Y006955D01*
X006708Y006894D02*
X012348Y006894D01*
X013027Y006982D02*
X013086Y007041D01*
X012613Y008163D02*
X012613Y008281D01*
X012082Y009167D02*
X012023Y009226D01*
X011550Y009167D02*
X011491Y009226D01*
X012841Y009415D02*
X015454Y009415D01*
X015454Y009476D02*
X012921Y009476D01*
X012959Y009538D02*
X015454Y009538D01*
X015454Y009599D02*
X012981Y009599D01*
X012981Y009661D02*
X015454Y009661D01*
X015454Y009722D02*
X012967Y009722D01*
X012940Y009784D02*
X015454Y009784D01*
X015454Y009845D02*
X012878Y009845D01*
X012123Y010706D02*
X015454Y010706D01*
X015454Y010645D02*
X012057Y010645D01*
X012156Y010768D02*
X015454Y010768D01*
X015454Y010829D02*
X013779Y010829D01*
X013818Y010845D02*
X013888Y010915D01*
X013926Y011007D01*
X013926Y011106D01*
X013888Y011198D01*
X015454Y011198D01*
X015454Y011137D02*
X013913Y011137D01*
X013926Y011075D02*
X015454Y011075D01*
X015454Y011014D02*
X013926Y011014D01*
X013903Y010952D02*
X015454Y010952D01*
X015454Y010891D02*
X013863Y010891D01*
X013818Y010845D02*
X013726Y010807D01*
X013626Y010807D01*
X013535Y010845D01*
X013465Y010915D01*
X013427Y011007D01*
X013427Y011106D01*
X013465Y011198D01*
X013535Y011268D01*
X013626Y011306D01*
X013726Y011306D01*
X013818Y011268D01*
X013888Y011198D01*
X013826Y011260D02*
X015454Y011260D01*
X015454Y011321D02*
X012347Y011321D01*
X012409Y011260D02*
X013526Y011260D01*
X013465Y011198D02*
X012436Y011198D01*
X012449Y011137D02*
X013439Y011137D01*
X013427Y011075D02*
X012449Y011075D01*
X012428Y011014D02*
X013427Y011014D01*
X013449Y010952D02*
X012389Y010952D01*
X012308Y010891D02*
X013489Y010891D01*
X013573Y010829D02*
X012174Y010829D01*
X013617Y011529D02*
X013617Y011588D01*
X012613Y012592D02*
X012495Y012651D01*
X012700Y012920D02*
X011579Y012920D01*
X011518Y012981D02*
X012639Y012981D01*
X012999Y012920D02*
X013001Y012920D01*
X013060Y012981D02*
X013063Y012981D01*
X013735Y012828D02*
X013853Y012828D01*
X013204Y013891D02*
X013208Y013950D01*
X009779Y012828D02*
X009719Y012828D01*
X014208Y010112D02*
X014267Y010112D01*
X014444Y008970D02*
X014188Y008754D01*
X006219Y007201D02*
X001150Y007201D01*
X001150Y007140D02*
X006119Y007140D01*
X006072Y007078D02*
X001150Y007078D01*
X001150Y007017D02*
X003114Y007017D01*
X003052Y006955D02*
X001150Y006955D01*
X001150Y006894D02*
X003026Y006894D01*
X003013Y006832D02*
X001150Y006832D01*
X001150Y006771D02*
X003013Y006771D01*
X003035Y006709D02*
X001150Y006709D01*
X001150Y006648D02*
X003075Y006648D01*
X003451Y006648D02*
X005113Y006648D01*
X005113Y006709D02*
X003490Y006709D01*
X003512Y006771D02*
X005113Y006771D01*
X005113Y006832D02*
X003512Y006832D01*
X003499Y006894D02*
X005113Y006894D01*
X005113Y006955D02*
X003473Y006955D01*
X003412Y007017D02*
X005524Y007017D01*
X005805Y007017D02*
X006047Y007017D01*
X005894Y003450D02*
X005809Y003450D01*
X001204Y007754D02*
X001150Y007754D01*
D13*
X001129Y006273D02*
X015476Y006273D01*
X015476Y004383D01*
X004404Y004324D01*
X004404Y005328D01*
X001129Y005328D01*
X001129Y006273D01*
X001129Y006252D02*
X015476Y006252D01*
X015476Y006154D02*
X001129Y006154D01*
X001129Y006055D02*
X015476Y006055D01*
X015476Y005957D02*
X001129Y005957D01*
X001129Y005858D02*
X015476Y005858D01*
X015476Y005760D02*
X001129Y005760D01*
X001129Y005661D02*
X015476Y005661D01*
X015476Y005563D02*
X001129Y005563D01*
X001129Y005464D02*
X015476Y005464D01*
X015476Y005366D02*
X001129Y005366D01*
X004404Y005267D02*
X015476Y005267D01*
X015476Y005169D02*
X004404Y005169D01*
X004404Y005070D02*
X015476Y005070D01*
X015476Y004972D02*
X004404Y004972D01*
X004404Y004873D02*
X015476Y004873D01*
X015476Y004775D02*
X004404Y004775D01*
X004404Y004676D02*
X015476Y004676D01*
X015476Y004578D02*
X004404Y004578D01*
X004404Y004479D02*
X015476Y004479D01*
X015154Y004381D02*
X004404Y004381D01*
D14*
X003664Y006057D02*
X003664Y006939D01*
D15*
X001806Y001135D03*
X014798Y001135D03*
X014798Y014128D03*
X001806Y014128D03*
M02*
