G75*
%MOIN*%
%OFA0B0*%
%FSLAX24Y24*%
%IPPOS*%
%LPD*%
%AMOC8*
5,1,8,0,0,1.08239X$1,22.5*
%
%ADD10R,0.0701X0.0157*%
%ADD11C,0.0827*%
%ADD12C,0.0236*%
%ADD13C,0.0063*%
%ADD14C,0.0100*%
%ADD15C,0.0102*%
%ADD16C,0.1496*%
D10*
X007131Y006864D03*
X007131Y007120D03*
X007131Y007376D03*
X007131Y007631D03*
X007131Y007887D03*
X007131Y008143D03*
X007131Y008399D03*
X009473Y008399D03*
X009473Y008143D03*
X009473Y007887D03*
X009473Y007631D03*
X009473Y007376D03*
X009473Y007120D03*
X009473Y006864D03*
D11*
X015034Y004974D03*
X015034Y003557D03*
X011452Y001037D03*
X008302Y000978D03*
X005153Y000978D03*
D12*
X005172Y002080D03*
X005408Y002080D03*
X005408Y002317D03*
X005408Y002553D03*
X005172Y002553D03*
X005172Y002317D03*
X004936Y002317D03*
X004936Y002553D03*
X004700Y002553D03*
X004464Y002553D03*
X004464Y002317D03*
X004700Y002317D03*
X004700Y002080D03*
X004936Y002080D03*
X004464Y002080D03*
X004227Y002080D03*
X003991Y002080D03*
X003991Y002317D03*
X003991Y002553D03*
X004227Y002553D03*
X004227Y002317D03*
X004227Y002789D03*
X003991Y002789D03*
X003991Y003025D03*
X004227Y003025D03*
X004227Y003261D03*
X003991Y003261D03*
X004464Y003261D03*
X004700Y003261D03*
X004936Y003261D03*
X004936Y003025D03*
X004936Y002789D03*
X004700Y002789D03*
X004700Y003025D03*
X004464Y003025D03*
X004464Y002789D03*
X005172Y002789D03*
X005172Y003025D03*
X005408Y003025D03*
X005408Y002789D03*
X005645Y002789D03*
X005645Y003025D03*
X005645Y003261D03*
X005408Y003261D03*
X005172Y003261D03*
X005645Y002553D03*
X005645Y002317D03*
X005645Y002080D03*
X006058Y002080D03*
X006294Y002080D03*
X006530Y002080D03*
X006530Y002317D03*
X006294Y002317D03*
X006294Y002553D03*
X006058Y002553D03*
X006058Y002317D03*
X006530Y002553D03*
X006530Y002789D03*
X006294Y002789D03*
X006058Y002789D03*
X006058Y003025D03*
X006294Y003025D03*
X006530Y003025D03*
X006530Y003261D03*
X006294Y003261D03*
X006058Y003261D03*
X006767Y003261D03*
X007003Y003261D03*
X007003Y003025D03*
X007003Y002789D03*
X006767Y002789D03*
X006767Y003025D03*
X007239Y003025D03*
X007239Y002789D03*
X007475Y002789D03*
X007475Y003025D03*
X007475Y003261D03*
X007239Y003261D03*
X007712Y003261D03*
X007712Y003025D03*
X007712Y002789D03*
X007712Y002553D03*
X007712Y002317D03*
X007475Y002317D03*
X007475Y002553D03*
X007239Y002553D03*
X007239Y002317D03*
X007003Y002317D03*
X007003Y002553D03*
X006767Y002553D03*
X006767Y002317D03*
X006767Y002080D03*
X007003Y002080D03*
X007239Y002080D03*
X007475Y002080D03*
X007712Y002080D03*
X008066Y002730D03*
X008302Y002730D03*
X008538Y002730D03*
X008538Y002966D03*
X008302Y002966D03*
X008302Y003202D03*
X008538Y003202D03*
X008775Y003202D03*
X009011Y003202D03*
X009011Y002966D03*
X008775Y002966D03*
X008775Y002730D03*
X009011Y002730D03*
X009247Y002730D03*
X009483Y002730D03*
X009719Y002730D03*
X009719Y002966D03*
X009483Y002966D03*
X009247Y002966D03*
X009247Y003202D03*
X009483Y003202D03*
X009719Y003202D03*
X009719Y003439D03*
X009483Y003439D03*
X009483Y003675D03*
X009247Y003675D03*
X009247Y003439D03*
X009011Y003439D03*
X009011Y003675D03*
X008775Y003675D03*
X008775Y003439D03*
X008538Y003439D03*
X008538Y003675D03*
X008302Y003675D03*
X008302Y003439D03*
X008066Y003439D03*
X008066Y003675D03*
X008066Y003911D03*
X008302Y003911D03*
X008538Y003911D03*
X008775Y003911D03*
X009011Y003911D03*
X009247Y003911D03*
X009483Y003911D03*
X009719Y003911D03*
X009719Y003675D03*
X010369Y003675D03*
X010605Y003675D03*
X010605Y003439D03*
X010369Y003439D03*
X010369Y003202D03*
X010369Y002966D03*
X010605Y002966D03*
X010605Y003202D03*
X010842Y003202D03*
X011078Y003202D03*
X011078Y002966D03*
X010842Y002966D03*
X010842Y002730D03*
X011078Y002730D03*
X011314Y002730D03*
X011550Y002730D03*
X011786Y002730D03*
X011786Y002966D03*
X011550Y002966D03*
X011314Y002966D03*
X011314Y003202D03*
X011550Y003202D03*
X011786Y003202D03*
X011786Y003439D03*
X011786Y003675D03*
X011550Y003675D03*
X011314Y003675D03*
X011314Y003439D03*
X011550Y003439D03*
X011550Y003911D03*
X011314Y003911D03*
X011078Y003911D03*
X010842Y003911D03*
X010842Y003675D03*
X011078Y003675D03*
X011078Y003439D03*
X010842Y003439D03*
X010605Y003911D03*
X010369Y003911D03*
X010369Y002730D03*
X010605Y002730D03*
X011786Y003911D03*
X012023Y003911D03*
X012023Y003675D03*
X012023Y003439D03*
X012023Y003202D03*
X012023Y002966D03*
X012023Y002730D03*
X012617Y002907D03*
X012853Y002907D03*
X012853Y003143D03*
X012617Y003143D03*
X012617Y003380D03*
X012853Y003380D03*
X012853Y003616D03*
X012617Y003616D03*
X012617Y003852D03*
X012853Y003852D03*
X013090Y003852D03*
X013326Y003852D03*
X013326Y003616D03*
X013090Y003616D03*
X013090Y003380D03*
X013326Y003380D03*
X013326Y003143D03*
X013090Y003143D03*
X013090Y002907D03*
X013326Y002907D03*
X013562Y002907D03*
X013798Y002907D03*
X013798Y003143D03*
X013562Y003143D03*
X013562Y003380D03*
X013798Y003380D03*
X013798Y003616D03*
X013798Y003852D03*
X013562Y003852D03*
X013562Y003616D03*
X014034Y003616D03*
X014034Y003852D03*
X014271Y003852D03*
X014271Y003616D03*
X014271Y003380D03*
X014034Y003380D03*
X014034Y003143D03*
X014271Y003143D03*
X014271Y002907D03*
X014034Y002907D03*
X014129Y004817D03*
X014129Y005053D03*
X013893Y005053D03*
X013893Y004817D03*
X013656Y004817D03*
X013656Y005053D03*
X013420Y005053D03*
X013420Y004817D03*
X013184Y004817D03*
X013184Y005053D03*
X013184Y005289D03*
X013420Y005289D03*
X013656Y005289D03*
X013893Y005289D03*
X014129Y005289D03*
X013086Y007041D03*
X012495Y007100D03*
X011609Y007395D03*
X010901Y008104D03*
X010566Y007513D03*
X010527Y006175D03*
X011235Y006175D03*
X012003Y006175D03*
X012613Y008163D03*
X012436Y009108D03*
X012082Y009167D03*
X011550Y009167D03*
X012731Y009639D03*
X011924Y010860D03*
X012200Y011116D03*
X010901Y012238D03*
X010664Y012002D03*
X010424Y011714D03*
X010074Y012002D03*
X009735Y012297D03*
X009483Y011883D03*
X009180Y011647D03*
X009129Y010998D03*
X009424Y010820D03*
X009719Y010643D03*
X009251Y010309D03*
X009247Y009462D03*
X008656Y009344D03*
X008093Y009061D03*
X008027Y009462D03*
X008027Y009915D03*
X007121Y009128D03*
X006944Y009935D03*
X006471Y009994D03*
X006412Y010289D03*
X006058Y010289D03*
X005822Y010525D03*
X006294Y011297D03*
X005054Y011883D03*
X004936Y011352D03*
X004818Y010939D03*
X004523Y010820D03*
X004306Y010584D03*
X003991Y010643D03*
X003755Y010407D03*
X003814Y010112D03*
X004464Y009344D03*
X004995Y009935D03*
X005586Y009344D03*
X005054Y008754D03*
X004464Y008163D03*
X005054Y007572D03*
X005645Y008163D03*
X006235Y008754D03*
X007830Y008163D03*
X007830Y007277D03*
X008893Y007513D03*
X008775Y007986D03*
X008893Y008281D03*
X009070Y008576D03*
X008755Y006175D03*
X008046Y006175D03*
X007464Y006116D03*
X007464Y005880D03*
X007227Y005880D03*
X007227Y006116D03*
X006991Y006116D03*
X006755Y006116D03*
X006755Y005880D03*
X006991Y005880D03*
X006755Y005643D03*
X007464Y005643D03*
X006471Y006687D03*
X006294Y006962D03*
X005664Y006805D03*
X005345Y006687D03*
X005330Y006116D03*
X005566Y006116D03*
X005566Y005880D03*
X005330Y005880D03*
X005093Y005880D03*
X005093Y006116D03*
X004857Y006116D03*
X004857Y005880D03*
X004857Y005643D03*
X005566Y005643D03*
X003377Y006175D03*
X002790Y006175D03*
X003263Y006813D03*
X001964Y006175D03*
X001255Y006175D03*
X001369Y007454D03*
X001365Y007946D03*
X002885Y008513D03*
X002928Y009265D03*
X003873Y008754D03*
X001877Y011600D03*
X001511Y012395D03*
X003519Y013537D03*
X004464Y013832D03*
X004345Y014541D03*
X005172Y013006D03*
X006058Y013655D03*
X006471Y013537D03*
X007239Y013655D03*
X008066Y013478D03*
X007613Y012592D03*
X006826Y012592D03*
X007889Y011588D03*
X009719Y012828D03*
X009070Y013832D03*
X011137Y012537D03*
X011373Y012773D03*
X012082Y012651D03*
X012495Y012651D03*
X012849Y013124D03*
X013204Y012769D03*
X013853Y012828D03*
X013208Y013950D03*
X012554Y013714D03*
X013617Y011588D03*
X013676Y011057D03*
X014208Y010112D03*
X014444Y008970D03*
X009404Y006175D03*
X008066Y003202D03*
X008066Y002966D03*
X003397Y003025D03*
X003397Y003261D03*
X003397Y003498D03*
X003397Y003734D03*
X003397Y003970D03*
X003397Y004206D03*
X003160Y004206D03*
X002924Y004206D03*
X002924Y003970D03*
X002924Y003734D03*
X003160Y003734D03*
X003160Y003970D03*
X002688Y003970D03*
X002688Y003734D03*
X002452Y003734D03*
X002452Y003970D03*
X002452Y004206D03*
X002688Y004206D03*
X002216Y004206D03*
X001979Y004206D03*
X001979Y003970D03*
X001979Y003734D03*
X002216Y003734D03*
X002216Y003970D03*
X002216Y003498D03*
X002216Y003261D03*
X001979Y003261D03*
X001979Y003498D03*
X001743Y003498D03*
X001743Y003261D03*
X001743Y003025D03*
X001979Y003025D03*
X002216Y003025D03*
X002452Y003025D03*
X002688Y003025D03*
X002924Y003025D03*
X003160Y003025D03*
X003160Y003261D03*
X002924Y003261D03*
X002924Y003498D03*
X003160Y003498D03*
X002688Y003498D03*
X002452Y003498D03*
X002452Y003261D03*
X002688Y003261D03*
X001743Y003734D03*
X001743Y003970D03*
X001743Y004206D03*
X003932Y012179D03*
D13*
X001150Y005072D02*
X001150Y001723D01*
X001308Y001881D01*
X001631Y002015D01*
X001981Y002015D01*
X002304Y001881D01*
X002552Y001634D01*
X002686Y001310D01*
X002686Y000960D01*
X002552Y000637D01*
X002394Y000480D01*
X004932Y000480D01*
X004844Y000516D01*
X004691Y000669D01*
X004608Y000870D01*
X004608Y001086D01*
X004691Y001287D01*
X004844Y001440D01*
X005044Y001523D01*
X005261Y001523D01*
X005461Y001440D01*
X005614Y001287D01*
X005697Y001086D01*
X005697Y000870D01*
X005614Y000669D01*
X005461Y000516D01*
X005373Y000480D01*
X008082Y000480D01*
X007993Y000516D01*
X007840Y000669D01*
X007757Y000870D01*
X007757Y001086D01*
X007840Y001287D01*
X007993Y001440D01*
X008194Y001523D01*
X008411Y001523D01*
X008611Y001440D01*
X008764Y001287D01*
X008847Y001086D01*
X008847Y000870D01*
X008764Y000669D01*
X008611Y000516D01*
X008523Y000480D01*
X009170Y000480D01*
X014190Y000500D01*
X014053Y000637D01*
X013919Y000960D01*
X013919Y001310D01*
X014053Y001634D01*
X014300Y001881D01*
X014623Y002015D01*
X014973Y002015D01*
X015296Y001881D01*
X015454Y001723D01*
X015454Y004069D01*
X014395Y004071D01*
X014412Y004064D01*
X014482Y003993D01*
X014520Y003902D01*
X014520Y003802D01*
X014492Y003734D01*
X014520Y003665D01*
X014520Y003566D01*
X014492Y003498D01*
X014520Y003429D01*
X014520Y003330D01*
X014492Y003261D01*
X014520Y003193D01*
X014520Y003094D01*
X014492Y003025D01*
X014520Y002957D01*
X014520Y002857D01*
X014482Y002766D01*
X014412Y002695D01*
X014320Y002657D01*
X014221Y002657D01*
X014153Y002686D01*
X014084Y002657D01*
X013985Y002657D01*
X013916Y002686D01*
X013848Y002657D01*
X013749Y002657D01*
X013680Y002686D01*
X013612Y002657D01*
X013512Y002657D01*
X013444Y002686D01*
X013375Y002657D01*
X013276Y002657D01*
X013208Y002686D01*
X013139Y002657D01*
X013040Y002657D01*
X012971Y002686D01*
X012903Y002657D01*
X012804Y002657D01*
X012735Y002686D01*
X012667Y002657D01*
X012567Y002657D01*
X012476Y002695D01*
X012405Y002766D01*
X012367Y002857D01*
X012367Y002957D01*
X012396Y003025D01*
X012367Y003094D01*
X012367Y003193D01*
X012396Y003261D01*
X012367Y003330D01*
X012367Y003429D01*
X012396Y003498D01*
X012367Y003566D01*
X012367Y003665D01*
X012396Y003734D01*
X012367Y003802D01*
X012367Y003902D01*
X012405Y003993D01*
X012476Y004064D01*
X012501Y004074D01*
X004247Y004088D01*
X004247Y004225D01*
X004223Y004248D01*
X004223Y004249D01*
X004223Y004249D01*
X004223Y004324D01*
X004223Y004399D01*
X004223Y004399D01*
X004223Y005072D01*
X001150Y005072D01*
X001150Y005049D02*
X004223Y005049D01*
X004223Y004987D02*
X001150Y004987D01*
X001150Y004926D02*
X004223Y004926D01*
X004223Y004864D02*
X001150Y004864D01*
X001150Y004803D02*
X004223Y004803D01*
X004223Y004741D02*
X001150Y004741D01*
X001150Y004680D02*
X004223Y004680D01*
X004223Y004618D02*
X001150Y004618D01*
X001150Y004557D02*
X004223Y004557D01*
X004223Y004495D02*
X001150Y004495D01*
X001150Y004434D02*
X004223Y004434D01*
X004223Y004372D02*
X001150Y004372D01*
X001150Y004311D02*
X004223Y004311D01*
X004223Y004249D02*
X001150Y004249D01*
X001150Y004188D02*
X004247Y004188D01*
X004247Y004126D02*
X001150Y004126D01*
X001150Y004065D02*
X012479Y004065D01*
X012416Y004003D02*
X001150Y004003D01*
X001150Y003942D02*
X012384Y003942D01*
X012367Y003880D02*
X001150Y003880D01*
X001150Y003819D02*
X012367Y003819D01*
X012386Y003757D02*
X001150Y003757D01*
X001150Y003696D02*
X012380Y003696D01*
X012367Y003634D02*
X001150Y003634D01*
X001150Y003573D02*
X012367Y003573D01*
X012390Y003512D02*
X001150Y003512D01*
X001150Y003450D02*
X003827Y003450D01*
X003850Y003473D02*
X003780Y003403D01*
X003742Y003311D01*
X003742Y003212D01*
X003770Y003143D01*
X003742Y003075D01*
X003742Y002976D01*
X003770Y002907D01*
X003742Y002839D01*
X003742Y002739D01*
X003770Y002671D01*
X003742Y002602D01*
X003742Y002503D01*
X003770Y002435D01*
X003742Y002366D01*
X003742Y002267D01*
X003770Y002198D01*
X003742Y002130D01*
X003742Y002031D01*
X003780Y001939D01*
X003850Y001869D01*
X003941Y001831D01*
X004041Y001831D01*
X004109Y001859D01*
X004178Y001831D01*
X004277Y001831D01*
X004345Y001859D01*
X004414Y001831D01*
X004513Y001831D01*
X004582Y001859D01*
X004650Y001831D01*
X004749Y001831D01*
X004818Y001859D01*
X004886Y001831D01*
X004986Y001831D01*
X005054Y001859D01*
X005123Y001831D01*
X005222Y001831D01*
X005290Y001859D01*
X005359Y001831D01*
X005458Y001831D01*
X005527Y001859D01*
X005595Y001831D01*
X005694Y001831D01*
X005786Y001869D01*
X005851Y001934D01*
X005917Y001869D01*
X006008Y001831D01*
X006108Y001831D01*
X006176Y001859D01*
X006245Y001831D01*
X006344Y001831D01*
X006412Y001859D01*
X006481Y001831D01*
X006580Y001831D01*
X006649Y001859D01*
X006717Y001831D01*
X006816Y001831D01*
X006885Y001859D01*
X006953Y001831D01*
X007053Y001831D01*
X007121Y001859D01*
X007189Y001831D01*
X007289Y001831D01*
X007357Y001859D01*
X007426Y001831D01*
X007525Y001831D01*
X007593Y001859D01*
X007662Y001831D01*
X007761Y001831D01*
X007853Y001869D01*
X007923Y001939D01*
X007961Y002031D01*
X007961Y002130D01*
X007933Y002198D01*
X007961Y002267D01*
X007961Y002366D01*
X007933Y002435D01*
X007961Y002503D01*
X007961Y002602D01*
X007933Y002671D01*
X007961Y002739D01*
X007961Y002839D01*
X007933Y002907D01*
X007961Y002976D01*
X007961Y003075D01*
X007933Y003143D01*
X007961Y003212D01*
X007961Y003311D01*
X007923Y003403D01*
X007853Y003473D01*
X007761Y003511D01*
X007662Y003511D01*
X007593Y003483D01*
X007525Y003511D01*
X007426Y003511D01*
X007357Y003483D01*
X007289Y003511D01*
X007189Y003511D01*
X007121Y003483D01*
X007053Y003511D01*
X006953Y003511D01*
X006885Y003483D01*
X006816Y003511D01*
X006717Y003511D01*
X006649Y003483D01*
X006580Y003511D01*
X006481Y003511D01*
X006412Y003483D01*
X006344Y003511D01*
X006245Y003511D01*
X006176Y003483D01*
X006108Y003511D01*
X006008Y003511D01*
X005917Y003473D01*
X005851Y003408D01*
X005786Y003473D01*
X005694Y003511D01*
X005595Y003511D01*
X005527Y003483D01*
X005458Y003511D01*
X005359Y003511D01*
X005290Y003483D01*
X005222Y003511D01*
X005123Y003511D01*
X005054Y003483D01*
X004986Y003511D01*
X004886Y003511D01*
X004818Y003483D01*
X004749Y003511D01*
X004650Y003511D01*
X004582Y003483D01*
X004513Y003511D01*
X004414Y003511D01*
X004345Y003483D01*
X004277Y003511D01*
X004178Y003511D01*
X004109Y003483D01*
X004041Y003511D01*
X003941Y003511D01*
X003850Y003473D01*
X003774Y003389D02*
X001150Y003389D01*
X001150Y003327D02*
X003748Y003327D01*
X003742Y003266D02*
X001150Y003266D01*
X001150Y003204D02*
X003745Y003204D01*
X003770Y003143D02*
X001150Y003143D01*
X001150Y003081D02*
X003744Y003081D01*
X003742Y003020D02*
X001150Y003020D01*
X001150Y002958D02*
X003749Y002958D01*
X003766Y002897D02*
X001150Y002897D01*
X001150Y002835D02*
X003742Y002835D01*
X003742Y002774D02*
X001150Y002774D01*
X001150Y002712D02*
X003753Y002712D01*
X003761Y002651D02*
X001150Y002651D01*
X001150Y002589D02*
X003742Y002589D01*
X003742Y002528D02*
X001150Y002528D01*
X001150Y002466D02*
X003757Y002466D01*
X003757Y002405D02*
X001150Y002405D01*
X001150Y002343D02*
X003742Y002343D01*
X003742Y002282D02*
X001150Y002282D01*
X001150Y002220D02*
X003761Y002220D01*
X003753Y002159D02*
X001150Y002159D01*
X001150Y002097D02*
X003742Y002097D01*
X003742Y002036D02*
X001150Y002036D01*
X001150Y001974D02*
X001533Y001974D01*
X001384Y001913D02*
X001150Y001913D01*
X001150Y001851D02*
X001278Y001851D01*
X001217Y001790D02*
X001150Y001790D01*
X001150Y001728D02*
X001155Y001728D01*
X002079Y001974D02*
X003765Y001974D01*
X003806Y001913D02*
X002228Y001913D01*
X002334Y001851D02*
X003892Y001851D01*
X004090Y001851D02*
X004128Y001851D01*
X004326Y001851D02*
X004364Y001851D01*
X004563Y001851D02*
X004601Y001851D01*
X004799Y001851D02*
X004837Y001851D01*
X005035Y001851D02*
X005073Y001851D01*
X005271Y001851D02*
X005309Y001851D01*
X005508Y001851D02*
X005545Y001851D01*
X005744Y001851D02*
X005959Y001851D01*
X005873Y001913D02*
X005830Y001913D01*
X006157Y001851D02*
X006195Y001851D01*
X006393Y001851D02*
X006431Y001851D01*
X006630Y001851D02*
X006668Y001851D01*
X006866Y001851D02*
X006904Y001851D01*
X007102Y001851D02*
X007140Y001851D01*
X007338Y001851D02*
X007376Y001851D01*
X007575Y001851D02*
X007612Y001851D01*
X007811Y001851D02*
X014270Y001851D01*
X014209Y001790D02*
X002396Y001790D01*
X002457Y001728D02*
X014147Y001728D01*
X014086Y001667D02*
X002519Y001667D01*
X002563Y001605D02*
X014041Y001605D01*
X014015Y001544D02*
X011652Y001544D01*
X011560Y001582D02*
X011760Y001499D01*
X011914Y001346D01*
X011997Y001145D01*
X011997Y000929D01*
X013932Y000929D01*
X013919Y000990D02*
X011997Y000990D01*
X011997Y000929D02*
X011914Y000728D01*
X011760Y000575D01*
X011560Y000492D01*
X011343Y000492D01*
X011143Y000575D01*
X010990Y000728D01*
X010907Y000929D01*
X008847Y000929D01*
X008847Y000990D02*
X010907Y000990D01*
X010907Y000929D02*
X010907Y001145D01*
X010990Y001346D01*
X011143Y001499D01*
X011343Y001582D01*
X011560Y001582D01*
X011777Y001482D02*
X013990Y001482D01*
X013964Y001421D02*
X011839Y001421D01*
X011900Y001359D02*
X013939Y001359D01*
X013919Y001298D02*
X011933Y001298D01*
X011959Y001236D02*
X013919Y001236D01*
X013919Y001175D02*
X011984Y001175D01*
X011997Y001113D02*
X013919Y001113D01*
X013919Y001052D02*
X011997Y001052D01*
X011971Y000867D02*
X013957Y000867D01*
X013983Y000806D02*
X011946Y000806D01*
X011920Y000744D02*
X014008Y000744D01*
X014034Y000683D02*
X011868Y000683D01*
X011807Y000621D02*
X014068Y000621D01*
X014130Y000560D02*
X011724Y000560D01*
X011575Y000498D02*
X013897Y000498D01*
X014376Y001913D02*
X007897Y001913D01*
X007938Y001974D02*
X014525Y001974D01*
X015072Y001974D02*
X015454Y001974D01*
X015454Y001913D02*
X015220Y001913D01*
X015326Y001851D02*
X015454Y001851D01*
X015454Y001790D02*
X015388Y001790D01*
X015449Y001728D02*
X015454Y001728D01*
X015454Y002036D02*
X007961Y002036D01*
X007961Y002097D02*
X015454Y002097D01*
X015454Y002159D02*
X007949Y002159D01*
X007942Y002220D02*
X015454Y002220D01*
X015454Y002282D02*
X007961Y002282D01*
X007961Y002343D02*
X015454Y002343D01*
X015454Y002405D02*
X007945Y002405D01*
X007946Y002466D02*
X015454Y002466D01*
X015454Y002528D02*
X007961Y002528D01*
X007961Y002589D02*
X015454Y002589D01*
X015454Y002651D02*
X007941Y002651D01*
X007950Y002712D02*
X012459Y002712D01*
X012402Y002774D02*
X007961Y002774D01*
X007961Y002835D02*
X012377Y002835D01*
X012367Y002897D02*
X007937Y002897D01*
X007954Y002958D02*
X012368Y002958D01*
X012394Y003020D02*
X007961Y003020D01*
X007959Y003081D02*
X012373Y003081D01*
X012367Y003143D02*
X007933Y003143D01*
X007958Y003204D02*
X012372Y003204D01*
X012394Y003266D02*
X007961Y003266D01*
X007955Y003327D02*
X012369Y003327D01*
X012367Y003389D02*
X007929Y003389D01*
X007876Y003450D02*
X012376Y003450D01*
X011251Y001544D02*
X002589Y001544D01*
X002614Y001482D02*
X004946Y001482D01*
X004825Y001421D02*
X002640Y001421D01*
X002665Y001359D02*
X004763Y001359D01*
X004702Y001298D02*
X002686Y001298D01*
X002686Y001236D02*
X004670Y001236D01*
X004644Y001175D02*
X002686Y001175D01*
X002686Y001113D02*
X004619Y001113D01*
X004608Y001052D02*
X002686Y001052D01*
X002686Y000990D02*
X004608Y000990D01*
X004608Y000929D02*
X002672Y000929D01*
X002647Y000867D02*
X004609Y000867D01*
X004634Y000806D02*
X002622Y000806D01*
X002596Y000744D02*
X004660Y000744D01*
X004685Y000683D02*
X002571Y000683D01*
X002536Y000621D02*
X004739Y000621D01*
X004800Y000560D02*
X002474Y000560D01*
X002413Y000498D02*
X004886Y000498D01*
X005419Y000498D02*
X008036Y000498D01*
X007950Y000560D02*
X005505Y000560D01*
X005567Y000621D02*
X007888Y000621D01*
X007835Y000683D02*
X005620Y000683D01*
X005646Y000744D02*
X007809Y000744D01*
X007784Y000806D02*
X005671Y000806D01*
X005696Y000867D02*
X007758Y000867D01*
X007757Y000929D02*
X005697Y000929D01*
X005697Y000990D02*
X007757Y000990D01*
X007757Y001052D02*
X005697Y001052D01*
X005686Y001113D02*
X007768Y001113D01*
X007794Y001175D02*
X005661Y001175D01*
X005635Y001236D02*
X007819Y001236D01*
X007851Y001298D02*
X005603Y001298D01*
X005542Y001359D02*
X007913Y001359D01*
X007974Y001421D02*
X005480Y001421D01*
X005359Y001482D02*
X008096Y001482D01*
X008508Y001482D02*
X011126Y001482D01*
X011065Y001421D02*
X008630Y001421D01*
X008691Y001359D02*
X011003Y001359D01*
X010970Y001298D02*
X008753Y001298D01*
X008785Y001236D02*
X010945Y001236D01*
X010919Y001175D02*
X008810Y001175D01*
X008836Y001113D02*
X010907Y001113D01*
X010907Y001052D02*
X008847Y001052D01*
X008846Y000867D02*
X010932Y000867D01*
X010958Y000806D02*
X008821Y000806D01*
X008795Y000744D02*
X010983Y000744D01*
X011035Y000683D02*
X008770Y000683D01*
X008716Y000621D02*
X011097Y000621D01*
X011180Y000560D02*
X008655Y000560D01*
X008568Y000498D02*
X011328Y000498D01*
X014429Y002712D02*
X015454Y002712D01*
X015454Y002774D02*
X014486Y002774D01*
X014511Y002835D02*
X015454Y002835D01*
X015454Y002897D02*
X014520Y002897D01*
X014520Y002958D02*
X015454Y002958D01*
X015454Y003020D02*
X014494Y003020D01*
X014515Y003081D02*
X015454Y003081D01*
X015454Y003143D02*
X014520Y003143D01*
X014516Y003204D02*
X015454Y003204D01*
X015454Y003266D02*
X014494Y003266D01*
X014519Y003327D02*
X015454Y003327D01*
X015454Y003389D02*
X014520Y003389D01*
X014512Y003450D02*
X015454Y003450D01*
X015454Y003512D02*
X014498Y003512D01*
X014520Y003573D02*
X015454Y003573D01*
X015454Y003634D02*
X014520Y003634D01*
X014508Y003696D02*
X015454Y003696D01*
X015454Y003757D02*
X014502Y003757D01*
X014520Y003819D02*
X015454Y003819D01*
X015454Y003880D02*
X014520Y003880D01*
X014504Y003942D02*
X015454Y003942D01*
X015454Y004003D02*
X014472Y004003D01*
X014409Y004065D02*
X015454Y004065D01*
X010566Y007513D02*
X010562Y007576D01*
X010310Y007576D01*
X010129Y007757D01*
X010129Y008765D01*
X010066Y008828D01*
X008901Y008828D01*
X008775Y008702D01*
X007105Y008702D01*
X006664Y008702D01*
X006349Y009017D01*
X002318Y009017D01*
X002066Y009269D01*
X002066Y011411D01*
X001877Y011600D01*
X001877Y008576D01*
X001365Y007946D01*
X002928Y009265D02*
X003223Y009639D01*
X003223Y010411D01*
X003223Y010427D01*
X003704Y010907D01*
X004078Y010907D01*
X004113Y010943D01*
X004078Y010907D01*
X004113Y010943D01*
X004227Y011057D01*
X004582Y011057D01*
X004877Y011352D01*
X004936Y011352D01*
X004912Y011033D02*
X008932Y011033D01*
X008967Y010998D01*
X009129Y010998D01*
X008932Y011159D02*
X009058Y011285D01*
X010066Y011285D01*
X010424Y011643D01*
X010424Y011714D01*
X010664Y012002D02*
X010672Y012002D01*
X010822Y011852D01*
X010822Y011033D01*
X009877Y010088D01*
X009121Y010088D01*
X008680Y010529D01*
X006298Y010529D01*
X006058Y010289D01*
X005822Y010525D02*
X005653Y010525D01*
X005342Y010214D01*
X003916Y010214D01*
X003814Y010112D01*
X003578Y010112D01*
X003519Y010171D01*
X003519Y010533D01*
X003641Y010655D01*
X003979Y010655D01*
X003991Y010643D01*
X004050Y010643D01*
X004286Y010880D01*
X004464Y010880D01*
X004523Y010820D01*
X004818Y010939D02*
X004912Y011033D01*
X005090Y010907D02*
X008869Y010907D01*
X009058Y010718D01*
X009247Y010718D01*
X009349Y010820D01*
X009424Y010820D01*
X009676Y010643D02*
X009719Y010643D01*
X009676Y010643D02*
X009562Y010529D01*
X009058Y010529D01*
X008806Y010781D01*
X005153Y010781D01*
X004712Y010340D01*
X003822Y010340D01*
X003755Y010407D01*
X004306Y010584D02*
X004342Y010529D01*
X004712Y010529D01*
X005090Y010907D01*
X005822Y010525D02*
X005952Y010655D01*
X008743Y010655D01*
X009090Y010309D01*
X009251Y010309D01*
X009058Y009962D02*
X009940Y009962D01*
X011011Y011033D01*
X011011Y012041D01*
X010901Y012151D01*
X010901Y012238D01*
X011137Y012537D02*
X011137Y010970D01*
X010003Y009836D01*
X008995Y009836D01*
X008554Y010277D01*
X006755Y010277D01*
X006471Y009994D01*
X006412Y010289D02*
X006527Y010403D01*
X008617Y010403D01*
X009058Y009962D01*
X008932Y009710D02*
X010086Y009710D01*
X011263Y010887D01*
X011263Y011773D01*
X011373Y011943D01*
X011373Y012773D01*
X012259Y013301D02*
X012328Y013232D01*
X011188Y014372D01*
X004649Y014372D01*
X004464Y014187D01*
X004464Y013832D01*
X004345Y014541D02*
X011727Y014541D01*
X012554Y013714D01*
X012328Y013232D02*
X012731Y012828D01*
X013145Y012828D01*
X013204Y012769D01*
X012200Y011116D02*
X011668Y011116D01*
X011550Y010998D01*
X011275Y010702D01*
X009897Y009344D01*
X009467Y009344D01*
X009247Y009108D01*
X008141Y009108D01*
X008093Y009061D01*
X008318Y008970D02*
X008176Y008828D01*
X007987Y008828D01*
X007735Y009080D01*
X007168Y009080D01*
X007121Y009128D01*
X007015Y009935D02*
X006944Y009935D01*
X007015Y009935D02*
X007231Y010151D01*
X008491Y010151D01*
X008932Y009710D01*
X009090Y008970D02*
X008318Y008970D01*
X009070Y008576D02*
X009247Y008399D01*
X009473Y008399D01*
X009454Y008163D02*
X009473Y008143D01*
X009454Y008163D02*
X009011Y008163D01*
X008893Y008281D01*
X008775Y007986D02*
X008893Y007868D01*
X009454Y007868D01*
X009473Y007887D01*
X009473Y007631D02*
X009011Y007631D01*
X008893Y007513D01*
X007830Y007395D02*
X007830Y007277D01*
X007830Y007395D02*
X007593Y007631D01*
X007131Y007631D01*
X007131Y007887D01*
X007131Y008143D02*
X007151Y008163D01*
X007830Y008163D01*
X009090Y008970D02*
X009326Y008970D01*
X009562Y009206D01*
X009956Y009206D01*
X011609Y010860D01*
X011924Y010860D01*
X010074Y012002D02*
X009719Y012002D01*
X009601Y012120D01*
X008420Y012120D01*
X007712Y012828D01*
X007180Y012828D01*
X006471Y013537D01*
X006590Y013773D02*
X006176Y013773D01*
X006058Y013655D01*
X006590Y013773D02*
X007353Y013009D01*
X007708Y013009D01*
X008420Y012297D01*
X009735Y012297D01*
X009483Y011883D02*
X008361Y011883D01*
X007653Y012592D01*
X007613Y012592D01*
X007771Y012297D02*
X007121Y012297D01*
X006826Y012592D01*
X007771Y012297D02*
X008420Y011647D01*
X009129Y011647D01*
X009180Y011647D01*
X008932Y011159D02*
X006369Y011159D01*
X006294Y011297D01*
X006294Y006962D02*
X006223Y006891D01*
X006223Y006726D01*
X005782Y006726D01*
X005664Y006805D01*
X005523Y006569D02*
X005404Y006687D01*
X005345Y006687D01*
X005523Y006569D02*
X006353Y006569D01*
X006471Y006687D01*
X004227Y006214D02*
X004109Y006037D01*
X005809Y003450D02*
X005894Y003450D01*
D14*
X004404Y004324D02*
X015476Y004383D01*
X015476Y006273D01*
X001129Y006273D01*
X001129Y005328D01*
X004404Y005328D01*
X004404Y004324D01*
X004404Y004381D02*
X015154Y004381D01*
X015476Y004479D02*
X004404Y004479D01*
X004404Y004578D02*
X015476Y004578D01*
X015476Y004676D02*
X004404Y004676D01*
X004404Y004775D02*
X015476Y004775D01*
X015476Y004873D02*
X004404Y004873D01*
X004404Y004972D02*
X015476Y004972D01*
X015476Y005070D02*
X004404Y005070D01*
X004404Y005169D02*
X015476Y005169D01*
X015476Y005267D02*
X004404Y005267D01*
X001129Y005366D02*
X015476Y005366D01*
X015476Y005464D02*
X001129Y005464D01*
X001129Y005563D02*
X015476Y005563D01*
X015476Y005661D02*
X001129Y005661D01*
X001129Y005760D02*
X015476Y005760D01*
X015476Y005858D02*
X001129Y005858D01*
X001129Y005957D02*
X015476Y005957D01*
X015476Y006055D02*
X001129Y006055D01*
X001129Y006154D02*
X015476Y006154D01*
X015476Y006252D02*
X001129Y006252D01*
D15*
X003263Y006813D02*
X003263Y008135D01*
X002885Y008513D01*
D16*
X001806Y014128D03*
X014798Y014128D03*
X014798Y001135D03*
X001806Y001135D03*
M02*
