G75*
%MOIN*%
%OFA0B0*%
%FSLAX24Y24*%
%IPPOS*%
%LPD*%
%AMOC8*
5,1,8,0,0,1.08239X$1,22.5*
%
%ADD10R,0.0781X0.0237*%
%ADD11C,0.0907*%
%ADD12C,0.0316*%
%ADD13C,0.1576*%
D10*
X007131Y006864D03*
X007131Y007120D03*
X007131Y007376D03*
X007131Y007631D03*
X007131Y007887D03*
X007131Y008143D03*
X007131Y008399D03*
X009473Y008399D03*
X009473Y008143D03*
X009473Y007887D03*
X009473Y007631D03*
X009473Y007376D03*
X009473Y007120D03*
X009473Y006864D03*
D11*
X015034Y004974D03*
X015034Y003557D03*
X011452Y001037D03*
X008302Y000978D03*
X005153Y000978D03*
D12*
X005172Y002080D03*
X005408Y002080D03*
X005408Y002317D03*
X005408Y002553D03*
X005172Y002553D03*
X005172Y002317D03*
X004936Y002317D03*
X004936Y002553D03*
X004700Y002553D03*
X004464Y002553D03*
X004464Y002317D03*
X004700Y002317D03*
X004700Y002080D03*
X004936Y002080D03*
X004464Y002080D03*
X004227Y002080D03*
X003991Y002080D03*
X003991Y002317D03*
X003991Y002553D03*
X004227Y002553D03*
X004227Y002317D03*
X004227Y002789D03*
X003991Y002789D03*
X003991Y003025D03*
X004227Y003025D03*
X004227Y003261D03*
X003991Y003261D03*
X004464Y003261D03*
X004700Y003261D03*
X004936Y003261D03*
X004936Y003025D03*
X004936Y002789D03*
X004700Y002789D03*
X004700Y003025D03*
X004464Y003025D03*
X004464Y002789D03*
X005172Y002789D03*
X005172Y003025D03*
X005408Y003025D03*
X005408Y002789D03*
X005645Y002789D03*
X005645Y003025D03*
X005645Y003261D03*
X005408Y003261D03*
X005172Y003261D03*
X005645Y002553D03*
X005645Y002317D03*
X005645Y002080D03*
X006058Y002080D03*
X006294Y002080D03*
X006530Y002080D03*
X006530Y002317D03*
X006294Y002317D03*
X006294Y002553D03*
X006058Y002553D03*
X006058Y002317D03*
X006530Y002553D03*
X006530Y002789D03*
X006294Y002789D03*
X006058Y002789D03*
X006058Y003025D03*
X006294Y003025D03*
X006530Y003025D03*
X006530Y003261D03*
X006294Y003261D03*
X006058Y003261D03*
X006767Y003261D03*
X007003Y003261D03*
X007003Y003025D03*
X007003Y002789D03*
X006767Y002789D03*
X006767Y003025D03*
X007239Y003025D03*
X007239Y002789D03*
X007475Y002789D03*
X007475Y003025D03*
X007475Y003261D03*
X007239Y003261D03*
X007712Y003261D03*
X007712Y003025D03*
X007712Y002789D03*
X007712Y002553D03*
X007712Y002317D03*
X007475Y002317D03*
X007475Y002553D03*
X007239Y002553D03*
X007239Y002317D03*
X007003Y002317D03*
X007003Y002553D03*
X006767Y002553D03*
X006767Y002317D03*
X006767Y002080D03*
X007003Y002080D03*
X007239Y002080D03*
X007475Y002080D03*
X007712Y002080D03*
X008066Y002730D03*
X008302Y002730D03*
X008538Y002730D03*
X008538Y002966D03*
X008302Y002966D03*
X008302Y003202D03*
X008538Y003202D03*
X008775Y003202D03*
X009011Y003202D03*
X009011Y002966D03*
X008775Y002966D03*
X008775Y002730D03*
X009011Y002730D03*
X009247Y002730D03*
X009483Y002730D03*
X009719Y002730D03*
X009719Y002966D03*
X009483Y002966D03*
X009247Y002966D03*
X009247Y003202D03*
X009483Y003202D03*
X009719Y003202D03*
X009719Y003439D03*
X009483Y003439D03*
X009483Y003675D03*
X009247Y003675D03*
X009247Y003439D03*
X009011Y003439D03*
X009011Y003675D03*
X008775Y003675D03*
X008775Y003439D03*
X008538Y003439D03*
X008538Y003675D03*
X008302Y003675D03*
X008302Y003439D03*
X008066Y003439D03*
X008066Y003675D03*
X008066Y003911D03*
X008302Y003911D03*
X008538Y003911D03*
X008775Y003911D03*
X009011Y003911D03*
X009247Y003911D03*
X009483Y003911D03*
X009719Y003911D03*
X009719Y003675D03*
X010369Y003675D03*
X010605Y003675D03*
X010605Y003439D03*
X010369Y003439D03*
X010369Y003202D03*
X010369Y002966D03*
X010605Y002966D03*
X010605Y003202D03*
X010842Y003202D03*
X011078Y003202D03*
X011078Y002966D03*
X010842Y002966D03*
X010842Y002730D03*
X011078Y002730D03*
X011314Y002730D03*
X011550Y002730D03*
X011786Y002730D03*
X011786Y002966D03*
X011550Y002966D03*
X011314Y002966D03*
X011314Y003202D03*
X011550Y003202D03*
X011786Y003202D03*
X011786Y003439D03*
X011786Y003675D03*
X011550Y003675D03*
X011314Y003675D03*
X011314Y003439D03*
X011550Y003439D03*
X011550Y003911D03*
X011314Y003911D03*
X011078Y003911D03*
X010842Y003911D03*
X010842Y003675D03*
X011078Y003675D03*
X011078Y003439D03*
X010842Y003439D03*
X010605Y003911D03*
X010369Y003911D03*
X010369Y002730D03*
X010605Y002730D03*
X011786Y003911D03*
X012023Y003911D03*
X012023Y003675D03*
X012023Y003439D03*
X012023Y003202D03*
X012023Y002966D03*
X012023Y002730D03*
X012617Y002907D03*
X012853Y002907D03*
X012853Y003143D03*
X012617Y003143D03*
X012617Y003380D03*
X012853Y003380D03*
X012853Y003616D03*
X012617Y003616D03*
X012617Y003852D03*
X012853Y003852D03*
X013090Y003852D03*
X013326Y003852D03*
X013326Y003616D03*
X013090Y003616D03*
X013090Y003380D03*
X013326Y003380D03*
X013326Y003143D03*
X013090Y003143D03*
X013090Y002907D03*
X013326Y002907D03*
X013562Y002907D03*
X013798Y002907D03*
X013798Y003143D03*
X013562Y003143D03*
X013562Y003380D03*
X013798Y003380D03*
X013798Y003616D03*
X013798Y003852D03*
X013562Y003852D03*
X013562Y003616D03*
X014034Y003616D03*
X014034Y003852D03*
X014271Y003852D03*
X014271Y003616D03*
X014271Y003380D03*
X014034Y003380D03*
X014034Y003143D03*
X014271Y003143D03*
X014271Y002907D03*
X014034Y002907D03*
X014129Y004817D03*
X014129Y005053D03*
X013893Y005053D03*
X013893Y004817D03*
X013656Y004817D03*
X013656Y005053D03*
X013420Y005053D03*
X013420Y004817D03*
X013184Y004817D03*
X013184Y005053D03*
X013184Y005289D03*
X013420Y005289D03*
X013656Y005289D03*
X013893Y005289D03*
X014129Y005289D03*
X013086Y007041D03*
X012495Y007100D03*
X011609Y007395D03*
X010901Y008104D03*
X010566Y007513D03*
X010527Y006175D03*
X011235Y006175D03*
X012003Y006175D03*
X012613Y008163D03*
X012436Y009108D03*
X012082Y009167D03*
X011550Y009167D03*
X012731Y009639D03*
X011924Y010860D03*
X012200Y011116D03*
X010901Y012238D03*
X010664Y012002D03*
X010424Y011714D03*
X010074Y012002D03*
X009735Y012297D03*
X009483Y011883D03*
X009180Y011647D03*
X009129Y010998D03*
X009424Y010820D03*
X009719Y010643D03*
X009251Y010309D03*
X009247Y009462D03*
X008656Y009344D03*
X008093Y009061D03*
X008027Y009462D03*
X008027Y009915D03*
X007121Y009128D03*
X006944Y009935D03*
X006471Y009994D03*
X006412Y010289D03*
X006058Y010289D03*
X005822Y010525D03*
X006294Y011297D03*
X005054Y011883D03*
X004936Y011352D03*
X004818Y010939D03*
X004523Y010820D03*
X004306Y010584D03*
X003991Y010643D03*
X003755Y010407D03*
X003814Y010112D03*
X004464Y009344D03*
X004995Y009935D03*
X005586Y009344D03*
X005054Y008754D03*
X004464Y008163D03*
X005054Y007572D03*
X005645Y008163D03*
X006235Y008754D03*
X007830Y008163D03*
X007830Y007277D03*
X008893Y007513D03*
X008775Y007986D03*
X008893Y008281D03*
X009070Y008576D03*
X008755Y006175D03*
X008046Y006175D03*
X007464Y006116D03*
X007464Y005880D03*
X007227Y005880D03*
X007227Y006116D03*
X006991Y006116D03*
X006755Y006116D03*
X006755Y005880D03*
X006991Y005880D03*
X006755Y005643D03*
X007464Y005643D03*
X006471Y006687D03*
X006294Y006962D03*
X005664Y006805D03*
X005345Y006687D03*
X005330Y006116D03*
X005566Y006116D03*
X005566Y005880D03*
X005330Y005880D03*
X005093Y005880D03*
X005093Y006116D03*
X004857Y006116D03*
X004857Y005880D03*
X004857Y005643D03*
X005566Y005643D03*
X003377Y006175D03*
X002790Y006175D03*
X003263Y006813D03*
X001964Y006175D03*
X001255Y006175D03*
X001369Y007454D03*
X001365Y007946D03*
X002885Y008513D03*
X002928Y009265D03*
X003873Y008754D03*
X001877Y011600D03*
X001511Y012395D03*
X003519Y013537D03*
X004464Y013832D03*
X004345Y014541D03*
X005172Y013006D03*
X006058Y013655D03*
X006471Y013537D03*
X007239Y013655D03*
X008066Y013478D03*
X007613Y012592D03*
X006826Y012592D03*
X007889Y011588D03*
X009719Y012828D03*
X009070Y013832D03*
X011137Y012537D03*
X011373Y012773D03*
X012082Y012651D03*
X012495Y012651D03*
X012849Y013124D03*
X013204Y012769D03*
X013853Y012828D03*
X013208Y013950D03*
X012554Y013714D03*
X013617Y011588D03*
X013676Y011057D03*
X014208Y010112D03*
X014444Y008970D03*
X009404Y006175D03*
X008066Y003202D03*
X008066Y002966D03*
X003397Y003025D03*
X003397Y003261D03*
X003397Y003498D03*
X003397Y003734D03*
X003397Y003970D03*
X003397Y004206D03*
X003160Y004206D03*
X002924Y004206D03*
X002924Y003970D03*
X002924Y003734D03*
X003160Y003734D03*
X003160Y003970D03*
X002688Y003970D03*
X002688Y003734D03*
X002452Y003734D03*
X002452Y003970D03*
X002452Y004206D03*
X002688Y004206D03*
X002216Y004206D03*
X001979Y004206D03*
X001979Y003970D03*
X001979Y003734D03*
X002216Y003734D03*
X002216Y003970D03*
X002216Y003498D03*
X002216Y003261D03*
X001979Y003261D03*
X001979Y003498D03*
X001743Y003498D03*
X001743Y003261D03*
X001743Y003025D03*
X001979Y003025D03*
X002216Y003025D03*
X002452Y003025D03*
X002688Y003025D03*
X002924Y003025D03*
X003160Y003025D03*
X003160Y003261D03*
X002924Y003261D03*
X002924Y003498D03*
X003160Y003498D03*
X002688Y003498D03*
X002452Y003498D03*
X002452Y003261D03*
X002688Y003261D03*
X001743Y003734D03*
X001743Y003970D03*
X001743Y004206D03*
X003932Y012179D03*
D13*
X001806Y001135D03*
X014798Y001135D03*
X014798Y014128D03*
X001806Y014128D03*
M02*
