G75*
%MOIN*%
%OFA0B0*%
%FSLAX24Y24*%
%IPPOS*%
%LPD*%
%AMOC8*
5,1,8,0,0,1.08239X$1,22.5*
%
%ADD10R,0.0551X0.0276*%
%ADD11R,0.0413X0.1900*%
%ADD12R,0.1220X0.1240*%
%ADD13R,0.0433X0.0394*%
%ADD14R,0.0394X0.0433*%
%ADD15R,0.0591X0.0512*%
%ADD16R,0.0236X0.0610*%
%ADD17R,0.0472X0.0709*%
%ADD18R,0.0165X0.0701*%
%ADD19R,0.0630X0.0709*%
%ADD20R,0.0787X0.1181*%
%ADD21R,0.0300X0.1280*%
D10*
X001800Y008977D03*
X001800Y009477D03*
X001800Y009977D03*
X001800Y010477D03*
X006600Y010477D03*
X006600Y009977D03*
X006600Y009477D03*
X006600Y008977D03*
X011400Y008977D03*
X011400Y009477D03*
X011400Y009977D03*
X011400Y010477D03*
D11*
X013457Y009731D03*
X008657Y009731D03*
X003857Y009731D03*
D12*
X003050Y009727D03*
X007850Y009727D03*
X012650Y009727D03*
D13*
X011343Y011092D03*
X011343Y011761D03*
X010543Y011261D03*
X010543Y010592D03*
X007792Y016916D03*
X007123Y016916D03*
X006543Y011761D03*
X006543Y011092D03*
X005743Y011261D03*
X005743Y010592D03*
X002443Y011092D03*
X002443Y011761D03*
X001643Y011761D03*
X001643Y011092D03*
D14*
X001729Y016916D03*
X002398Y016916D03*
X006366Y015267D03*
X006366Y014597D03*
X009591Y014570D03*
X009591Y015239D03*
D15*
X010376Y015467D03*
X010376Y014719D03*
X005586Y014758D03*
X005586Y015506D03*
D16*
X002694Y016139D03*
X002300Y016139D03*
X001906Y016139D03*
X004505Y023737D03*
X004898Y023737D03*
X005292Y023737D03*
X009328Y023757D03*
X009721Y023757D03*
X010115Y023757D03*
X010509Y023757D03*
X010902Y023757D03*
X011296Y023757D03*
D17*
X011808Y025282D03*
X008816Y025282D03*
X005804Y025263D03*
X003993Y025263D03*
X003206Y014613D03*
X001394Y014613D03*
D18*
X007162Y017674D03*
X007418Y017674D03*
X007674Y017674D03*
X007930Y017674D03*
X008186Y017674D03*
X008442Y017674D03*
X008698Y017674D03*
X008698Y020017D03*
X008442Y020017D03*
X008186Y020017D03*
X007930Y020017D03*
X007674Y020017D03*
X007418Y020017D03*
X007162Y020017D03*
D19*
X012536Y008196D03*
X013639Y008196D03*
X008894Y008137D03*
X007792Y008137D03*
X004052Y008137D03*
X002950Y008137D03*
D20*
X004898Y005637D03*
X006867Y005637D03*
X009013Y005637D03*
X010981Y005637D03*
D21*
X002320Y005002D03*
X002320Y006902D03*
X013540Y006882D03*
X013540Y004982D03*
M02*
