G75*
%MOIN*%
%OFA0B0*%
%FSLAX24Y24*%
%IPPOS*%
%LPD*%
%AMOC8*
5,1,8,0,0,1.08239X$1,22.5*
%
%ADD10R,0.0098X0.0354*%
%ADD11R,0.2362X0.0800*%
%ADD12R,0.0551X0.0276*%
%ADD13R,0.0413X0.1900*%
%ADD14R,0.1220X0.1240*%
%ADD15R,0.0630X0.0709*%
%ADD16R,0.0433X0.0394*%
%ADD17R,0.0394X0.0433*%
%ADD18R,0.0591X0.0512*%
%ADD19R,0.0709X0.1417*%
%ADD20R,0.0709X0.0945*%
%ADD21R,0.0630X0.1063*%
%ADD22R,0.0087X0.0394*%
%ADD23R,0.0394X0.0087*%
%ADD24R,0.0480X0.0880*%
%ADD25R,0.1417X0.0866*%
%ADD26R,0.0630X0.0512*%
%ADD27R,0.0701X0.0283*%
%ADD28R,0.0413X0.0425*%
%ADD29C,0.0118*%
%ADD30R,0.0236X0.0630*%
D10*
X005286Y013779D03*
X005483Y013779D03*
X005680Y013779D03*
X005876Y013779D03*
X006073Y013779D03*
X006270Y013779D03*
X006467Y013779D03*
X006664Y013779D03*
X006861Y013779D03*
X007057Y013779D03*
X007254Y013779D03*
X007451Y013779D03*
X007648Y013779D03*
X007845Y013779D03*
X008042Y013779D03*
X008239Y013779D03*
X008435Y013779D03*
X008632Y013779D03*
X008829Y013779D03*
X009026Y013779D03*
X009223Y013779D03*
X009420Y013779D03*
X009617Y013779D03*
X009813Y013779D03*
X010010Y013779D03*
X010207Y013779D03*
X010404Y013779D03*
X010601Y013779D03*
X010601Y016968D03*
X010404Y016968D03*
X010207Y016968D03*
X010010Y016968D03*
X009813Y016968D03*
X009617Y016968D03*
X009420Y016968D03*
X009223Y016968D03*
X009026Y016968D03*
X008829Y016968D03*
X008632Y016968D03*
X008435Y016968D03*
X008239Y016968D03*
X008042Y016968D03*
X007845Y016968D03*
X007648Y016968D03*
X007451Y016968D03*
X007254Y016968D03*
X007057Y016968D03*
X006861Y016968D03*
X006664Y016968D03*
X006467Y016968D03*
X006270Y016968D03*
X006073Y016968D03*
X005876Y016968D03*
X005680Y016968D03*
X005483Y016968D03*
X005286Y016968D03*
D11*
X007943Y015374D03*
D12*
X008587Y010477D03*
X008587Y009977D03*
X008587Y009477D03*
X008587Y008977D03*
X013387Y008977D03*
X013387Y009477D03*
X013387Y009977D03*
X013387Y010477D03*
X003787Y010477D03*
X003787Y009977D03*
X003787Y009477D03*
X003787Y008977D03*
D13*
X001730Y009731D03*
X006530Y009731D03*
X011330Y009731D03*
D14*
X012137Y009727D03*
X007337Y009727D03*
X002537Y009727D03*
D15*
X001355Y004023D03*
X001355Y004810D03*
X001355Y005597D03*
X001355Y006385D03*
X001355Y007172D03*
X002457Y007172D03*
X002457Y006385D03*
X002457Y005597D03*
X002457Y004810D03*
X002457Y004023D03*
X002961Y008128D03*
X004063Y008128D03*
X007783Y008135D03*
X008886Y008135D03*
X012531Y008175D03*
X013343Y007133D03*
X013343Y006345D03*
X013343Y005558D03*
X013343Y004771D03*
X013343Y003983D03*
X014446Y003983D03*
X014446Y004771D03*
X014446Y005558D03*
X014446Y006345D03*
X014446Y007133D03*
X013633Y008175D03*
D16*
X014065Y010592D03*
X014065Y011261D03*
X014369Y011927D03*
X014369Y012596D03*
X013343Y011761D03*
X013343Y011092D03*
X011255Y012306D03*
X010586Y012306D03*
X009993Y012283D03*
X009324Y012283D03*
X009343Y011261D03*
X009343Y010592D03*
X008366Y011072D03*
X008366Y011742D03*
X008458Y012342D03*
X007789Y012342D03*
X006904Y012382D03*
X006235Y012382D03*
X004665Y013504D03*
X004665Y014173D03*
X003863Y013499D03*
X003863Y012830D03*
X003743Y011761D03*
X003743Y011092D03*
X004543Y011261D03*
X004543Y010592D03*
X009464Y017642D03*
X009464Y018312D03*
X009742Y019254D03*
X009072Y019254D03*
X010420Y018319D03*
X010420Y017649D03*
X011103Y018195D03*
X011240Y017526D03*
X011240Y016856D03*
X011243Y016294D03*
X011243Y015625D03*
X012325Y016609D03*
X012325Y017279D03*
X011772Y018195D03*
X013337Y018156D03*
X014006Y018156D03*
X012457Y022428D03*
X012457Y023097D03*
X010094Y023938D03*
X010091Y024434D03*
X009422Y024434D03*
X009424Y023938D03*
X006453Y024856D03*
X005783Y024856D03*
X005272Y024849D03*
X004603Y024849D03*
D17*
X003406Y023809D03*
X003406Y023140D03*
X003680Y020949D03*
X003680Y020279D03*
X002457Y020873D03*
X001788Y020873D03*
X004769Y015754D03*
X004769Y015085D03*
X003050Y013496D03*
X003050Y012827D03*
X006359Y017882D03*
X006359Y018551D03*
X007909Y018657D03*
X007909Y017988D03*
X010429Y018864D03*
X010429Y019533D03*
X011271Y014892D03*
X011271Y014223D03*
X011264Y013624D03*
X011264Y012955D03*
D18*
X008682Y017713D03*
X008682Y018461D03*
D19*
X012209Y014945D03*
X013784Y014945D03*
D20*
X013696Y013465D03*
X012101Y013465D03*
D21*
X013174Y016957D03*
X014276Y016957D03*
X010394Y009527D03*
X009292Y009527D03*
X005594Y009527D03*
X004492Y009527D03*
D22*
X005219Y019604D03*
X005416Y019604D03*
X005613Y019604D03*
X005810Y019604D03*
X006006Y019604D03*
X006203Y019604D03*
X006400Y019604D03*
X006597Y019604D03*
X006794Y019604D03*
X006991Y019604D03*
X007188Y019604D03*
X007384Y019604D03*
X007581Y019604D03*
X007778Y019604D03*
X007975Y019604D03*
X008172Y019604D03*
X008172Y024132D03*
X007975Y024132D03*
X007778Y024132D03*
X007581Y024132D03*
X007384Y024132D03*
X007188Y024132D03*
X006991Y024132D03*
X006794Y024132D03*
X006597Y024132D03*
X006400Y024132D03*
X006203Y024132D03*
X006006Y024132D03*
X005810Y024132D03*
X005613Y024132D03*
X005416Y024132D03*
X005219Y024132D03*
D23*
X004432Y023344D03*
X004432Y023147D03*
X004432Y022951D03*
X004432Y022754D03*
X004432Y022557D03*
X004432Y022360D03*
X004432Y022163D03*
X004432Y021966D03*
X004432Y021769D03*
X004432Y021573D03*
X004432Y021376D03*
X004432Y021179D03*
X004432Y020982D03*
X004432Y020785D03*
X004432Y020588D03*
X004432Y020391D03*
X008959Y020391D03*
X008959Y020588D03*
X008959Y020785D03*
X008959Y020982D03*
X008959Y021179D03*
X008959Y021376D03*
X008959Y021573D03*
X008959Y021769D03*
X008959Y021966D03*
X008959Y022163D03*
X008959Y022360D03*
X008959Y022557D03*
X008959Y022754D03*
X008959Y022951D03*
X008959Y023147D03*
X008959Y023344D03*
D24*
X011221Y019092D03*
X012131Y019092D03*
X013041Y019092D03*
D25*
X012131Y021532D03*
D26*
X011641Y022456D03*
X011641Y023243D03*
D27*
X004308Y018651D03*
X004308Y018151D03*
X004308Y017651D03*
X004308Y017151D03*
X002457Y017151D03*
X002457Y017651D03*
X002457Y018151D03*
X002457Y018651D03*
D28*
X002467Y019534D03*
X001778Y019534D03*
X003727Y019279D03*
X004416Y019279D03*
D29*
X002310Y020164D02*
X002310Y020440D01*
X002586Y020440D01*
X002586Y020164D01*
X002310Y020164D01*
X002310Y020281D02*
X002586Y020281D01*
X002586Y020398D02*
X002310Y020398D01*
X001620Y020440D02*
X001620Y020164D01*
X001620Y020440D02*
X001896Y020440D01*
X001896Y020164D01*
X001620Y020164D01*
X001620Y020281D02*
X001896Y020281D01*
X001896Y020398D02*
X001620Y020398D01*
X011994Y023806D02*
X011994Y024082D01*
X011994Y023806D02*
X011718Y023806D01*
X011718Y024082D01*
X011994Y024082D01*
X011994Y023923D02*
X011718Y023923D01*
X011718Y024040D02*
X011994Y024040D01*
X012685Y024082D02*
X012685Y023806D01*
X012409Y023806D01*
X012409Y024082D01*
X012685Y024082D01*
X012685Y023923D02*
X012409Y023923D01*
X012409Y024040D02*
X012685Y024040D01*
D30*
X008206Y024987D03*
X007733Y024987D03*
X007261Y024987D03*
M02*
